<?xml version="1.0" encoding="utf-8"?>
<!-- Generator: Adobe Illustrator 16.0.0, SVG Export Plug-In . SVG Version: 6.00 Build 0)  -->
<!DOCTYPE svg PUBLIC "-//W3C//DTD SVG 1.1//EN" "http://www.w3.org/Graphics/SVG/1.1/DTD/svg11.dtd">
<svg version="1.1" id="Layer_1" xmlns="http://www.w3.org/2000/svg" xmlns:xlink="http://www.w3.org/1999/xlink" x="0px" y="0px"
	 width="190px" height="190px" viewBox="0 0 190 190" enable-background="new 0 0 190 190" xml:space="preserve">
<g>
	<line fill="#31313D" stroke="#00A956" stroke-width="4" stroke-miterlimit="10" x1="-54" y1="48" x2="294" y2="48"/>
	<line fill="none" stroke="#E90D00" stroke-width="4" stroke-miterlimit="10" x1="-54" y1="70" x2="294" y2="70"/>
	<line fill="none" stroke="#2A5BFF" stroke-width="4" stroke-miterlimit="10" x1="-54" y1="93" x2="294" y2="93"/>
	<line fill="none" stroke="#FFB46A" stroke-width="4" stroke-miterlimit="10" x1="-54" y1="116" x2="294" y2="116"/>
	<line fill="none" stroke="#A900A1" stroke-width="4" stroke-miterlimit="10" x1="-54" y1="138" x2="294" y2="138"/>
</g>
<g>
	<path fill="none" d="M-16.325,20.247c0.018-0.018-0.01-0.01-0.055,0.01C-16.343,20.251-16.304,20.245-16.325,20.247z"/>
	<path fill="none" d="M-16.422,20c-0.02,0-0.002,0,0.021,0H-16.422z"/>
	<path fill="none" d="M-12.385,51.447c0.548-1.395,0.944-2.853,1.256-4.37c0.146-0.749,0.263-1.575,0.372-2.3l0.151-1.322
		l0.107-1.183c0.25-3.254,0.312-6.554-0.045-9.761c-0.368-3.189-1.141-6.374-2.576-8.99c-0.703-1.276-1.646-2.434-2.5-2.946
		c-0.208-0.137-0.389-0.21-0.528-0.261c-0.068-0.022-0.128-0.042-0.169-0.044c0.031-0.004-0.121-0.009,0.062-0.014l-0.128,0.003
		c-0.101,0.046-0.313,0.186-0.549,0.484c-0.716,0.873-1.346,2.378-1.809,3.886c-0.471,1.534-0.825,3.167-1.117,4.818
		c-0.583,3.312-0.902,6.718-1.089,10.12c-0.191,3.404-0.273,6.813-0.282,10.207c0.011,4.765,0.165,9.495,0.392,14.179
		c1.328-1.499,2.608-3.008,3.794-4.535C-15.096,56.855-13.446,54.24-12.385,51.447z"/>
	<path fill="none" d="M-16.916,125.889c-0.972-5.654-1.966-11.509-2.879-17.548c-0.435-2.8-0.844-5.644-1.23-8.519
		c-0.039,0.016-0.08,0.027-0.118,0.046c-2.77,1.099-4.974,2.854-6.566,4.875c-1.58,2.028-2.571,4.272-3.028,6.337
		c-0.483,2.066-0.446,3.947-0.131,5.428c0.303,1.49,0.908,2.579,1.394,3.258c0.239,0.334,0.469,0.59,0.626,0.75
		c0.152,0.164,0.23,0.248,0.23,0.248s-0.107-0.039-0.32-0.113c-0.105-0.036-0.238-0.084-0.395-0.141
		c-0.154-0.078-0.332-0.169-0.535-0.273c-0.799-0.438-1.983-1.271-2.997-2.851c-1.042-1.55-1.874-3.794-2.08-6.544
		c-0.187-2.734,0.246-6.011,1.848-9.324c1.555-3.315,4.436-6.583,8.369-8.833c0.489-0.282,1.003-0.519,1.516-0.782l0.825-0.353
		c0.112-0.046,0.208-0.09,0.312-0.134c-0.398-3.422-0.768-6.886-1.106-10.394c-0.16,0.155-0.318,0.311-0.478,0.466
		c-1.264,1.19-2.526,2.377-3.785,3.562c-1.184,1.095-2.312,2.238-3.399,3.409c-2.17,2.342-4.168,4.812-5.899,7.425
		c-3.434,5.212-5.927,11.043-6.384,17.025c-0.086,0.748-0.056,1.485-0.08,2.233c0.047,0.732,0.04,1.484,0.15,2.211
		c0.147,1.47,0.463,2.91,0.94,4.291c0.456,1.392,1.117,2.696,1.881,3.934c0.75,1.253,1.706,2.365,2.75,3.385
		c1.036,1.041,2.252,1.883,3.43,2.637l1.039,0.572l0.462,0.255l0.507,0.238l1.017,0.469l1.038,0.407
		c1.386,0.529,2.801,0.967,4.24,1.239c1.433,0.304,2.884,0.467,4.324,0.512c2.049,0.075,4.078-0.144,6.018-0.604
		c-0.026-0.158-0.049-0.312-0.075-0.471C-15.953,131.491-16.43,128.713-16.916,125.889z"/>
	<path fill="none" d="M-0.087,116.344l-0.006-0.099l-0.013-0.197l-0.026-0.394c-0.057-0.522-0.093-1.041-0.202-1.555
		c-0.177-1.023-0.462-2.021-0.821-2.983c-0.713-1.925-1.732-3.695-2.909-5.259c-2.375-3.125-5.432-5.344-8.416-6.355
		c-1.504-0.479-2.987-0.711-4.428-0.618c-0.363,0.001-0.716,0.068-1.074,0.106c-0.018,0.002-0.032,0.004-0.049,0.006
		c0.32,3.029,0.653,6.023,0.993,8.975c1.072,9.153,2.269,17.911,3.392,26.221c2.836-0.926,5.42-2.387,7.502-4.271
		c3.942-3.464,5.974-8.339,6.046-12.594l0.026-0.998C-0.068,116.257-0.094,116.488-0.087,116.344z"/>
	<path fill="#F2FF2A" stroke="#31313D" stroke-miterlimit="10" d="M122.705,108.87c-0.338-1.485-0.796-2.925-1.402-4.274
		c-0.592-1.356-1.268-2.662-2.082-3.856c-3.166-4.819-7.857-8.435-13.166-9.908c-1.32-0.37-2.671-0.606-4.012-0.701
		c-1.344-0.061-2.676-0.039-3.96,0.165c-0.349,0.042-0.688,0.102-1.026,0.171c-0.395-4.146-0.755-8.357-1.078-12.621
		c3.83-3.867,7.527-7.974,10.81-12.807c2.128-3.184,4.11-6.741,5.294-10.682c0.611-1.954,1.01-3.961,1.271-5.941
		c0.121-1.001,0.194-1.94,0.268-2.978l0.055-1.329l0.028-1.474c0.032-3.827-0.384-7.654-1.313-11.416
		c-0.933-3.753-2.32-7.45-4.664-10.827c-0.592-0.844-1.248-1.665-2.024-2.437c-0.775-0.771-1.657-1.519-2.792-2.112
		c-0.561-0.298-1.207-0.547-1.924-0.702c-0.36-0.075-0.735-0.127-1.135-0.133c-0.143-0.002-0.101-0.011-0.393-0.003l-0.165,0.011
		c-0.164,0.011-0.576,0.06-0.748,0.108c-0.884,0.192-1.633,0.61-2.211,1.063c-0.583,0.457-1.022,0.953-1.384,1.44
		c-1.39,1.962-1.94,3.836-2.45,5.677c-0.476,1.84-0.779,3.649-1.016,5.446c-0.859,7.18-0.901,14.172-0.73,21.072
		c0.136,6.064,0.458,12.036,0.882,17.916c-2.086,2.206-4.236,4.393-6.355,6.573c-1.226,1.255-2.443,2.447-3.68,3.748
		c-1.292,1.344-2.539,2.731-3.71,4.18c-2.348,2.895-4.406,6.022-6.121,9.32c-1.734,3.286-3.082,6.774-3.947,10.375
		c-0.881,3.594-1.277,7.305-1.038,10.978c0.03,0.915,0.173,1.831,0.273,2.737c0.172,0.903,0.295,1.807,0.545,2.69
		c0.415,1.778,1.073,3.491,1.836,5.128c1.524,3.286,3.844,6.126,6.537,8.322l1.026,0.802l1.074,0.722
		c0.688,0.49,1.515,0.904,2.255,1.332l1.071,0.508l0.592,0.279l0.576,0.229l1.145,0.467l1.165,0.407
		c3.108,1.056,6.341,1.645,9.546,1.74c2.226,0.07,4.438-0.102,6.603-0.481c0.234,1.499,0.462,2.985,0.675,4.453
		c0.394,2.622,0.677,5.201,0.901,7.717c0.213,2.517,0.356,4.978,0.275,7.354c-0.039,1.188-0.122,2.355-0.285,3.486
		c-0.041,0.271-0.074,0.59-0.125,0.817l-0.177,0.858c-0.146,0.52-0.272,1.021-0.472,1.53c-0.723,2.033-1.91,3.806-3.357,5.171
		c-1.467,1.346-3.179,2.281-4.948,2.736l-0.667,0.145l-0.165,0.037c-0.016,0.004-0.081,0.019-0.058,0.012l-0.092,0.015l-0.368,0.056
		c-0.448,0.06-0.858,0.09-1.311,0.101c-0.876,0.014-1.736-0.044-2.55-0.222c-0.812-0.18-1.579-0.438-2.282-0.768
		c-0.695-0.352-1.315-0.775-1.857-1.24c-1.069-0.955-1.776-2.102-2.112-3.264c-0.185-0.575-0.258-1.165-0.286-1.732
		c-0.02-0.281-0.014-0.566,0.001-0.844l0.038-0.414c0.017,0.119,0.006-0.005,0.011,0.006l0.003-0.066l0.006-0.133l0.013-0.263
		c0.075-0.395,0.166-0.957,0.326-1.382c0.152-0.445,0.335-0.854,0.535-1.216c0.262-0.463,0.557-0.825,0.854-1.114
		c1.121,0.816,2.496,1.303,3.989,1.303c3.751,0,6.792-3.041,6.792-6.793s-2.979-6.916-6.729-6.986
		c-2.674-0.051-5.419,0.709-7.951,3.353c-2.024,2.114-3.625,5.129-4.029,8.33c-0.113,0.8-0.161,1.625-0.138,2.468
		c0.032,0.862,0.097,1.643,0.275,2.625c0.351,1.578,1.039,3.401,2.083,4.993c1.055,1.608,2.51,3.044,4.247,4.062
		c0.859,0.521,1.786,0.947,2.759,1.254c0.965,0.328,1.976,0.552,3.011,0.664c1.034,0.113,2.092,0.133,3.156,0.031
		c0.518-0.048,1.084-0.134,1.613-0.244l0.363-0.08l0.216-0.053l0.198-0.057l0.795-0.227c1.046-0.36,2.081-0.812,3.054-1.41
		c0.965-0.607,1.873-1.329,2.695-2.156c1.611-1.688,2.896-3.764,3.634-6.088c0.198-0.567,0.341-1.193,0.481-1.801l0.146-0.864
		c0.064-0.347,0.079-0.615,0.122-0.929c0.146-1.211,0.203-2.436,0.216-3.67c0.062-4.941-0.559-10.037-1.212-15.33
		c-0.198-1.51-0.403-3.045-0.61-4.588c3.447-0.809,6.733-2.177,9.658-4.131c2.594-1.746,4.92-3.933,6.727-6.518
		c0.919-1.28,1.68-2.675,2.306-4.12c0.322-0.722,0.582-1.465,0.825-2.215c0.132-0.358,0.222-0.802,0.33-1.201
		c0.102-0.405,0.212-0.849,0.264-1.14l0.196-0.979l0.151-1.302c0.071-0.79,0.113-1.586,0.082-2.367
		C123.253,111.896,123.059,110.352,122.705,108.87z M-16.325,20.247c0.021-0.002-0.018,0.004-0.055,0.01
		C-16.335,20.237-16.308,20.229-16.325,20.247z M-16.422,20h0.021C-16.424,20-16.441,20-16.422,20z M94.714,49.775
		c0.009-3.394,0.091-6.803,0.282-10.207c0.187-3.401,0.506-6.808,1.089-10.12c0.292-1.651,0.646-3.284,1.117-4.818
		c0.463-1.508,1.093-3.013,1.809-3.886c0.236-0.298,0.448-0.438,0.55-0.484l0.129-0.003c-0.184,0.005-0.03,0.01-0.062,0.014
		c0.041,0.003,0.102,0.022,0.169,0.044c0.14,0.051,0.32,0.124,0.526,0.261c0.855,0.512,1.799,1.67,2.502,2.946
		c1.435,2.616,2.207,5.8,2.574,8.99c0.357,3.208,0.297,6.507,0.047,9.761l-0.107,1.183l-0.15,1.322
		c-0.108,0.725-0.227,1.551-0.371,2.3c-0.312,1.517-0.709,2.976-1.256,4.37c-1.062,2.793-2.711,5.408-4.66,7.972
		c-1.187,1.527-2.467,3.036-3.794,4.535C94.879,59.27,94.725,54.54,94.714,49.775z M94.517,135.292
		c-1.44-0.045-2.891-0.208-4.324-0.512c-1.439-0.272-2.854-0.71-4.24-1.239l-1.038-0.407l-1.017-0.469l-0.507-0.238l-0.462-0.255
		L81.89,131.6c-1.178-0.754-2.394-1.596-3.43-2.637c-1.044-1.02-2-2.132-2.75-3.385c-0.764-1.236-1.425-2.542-1.881-3.934
		c-0.477-1.381-0.793-2.821-0.94-4.291c-0.111-0.727-0.103-1.479-0.15-2.211c0.024-0.748-0.006-1.485,0.08-2.233
		c0.457-5.982,2.95-11.813,6.384-17.025c1.731-2.614,3.729-5.083,5.899-7.425c1.086-1.17,2.215-2.314,3.399-3.409
		c1.259-1.185,2.521-2.373,3.785-3.562c0.16-0.155,0.318-0.311,0.478-0.466c0.339,3.507,0.708,6.971,1.106,10.394
		c-0.104,0.044-0.2,0.088-0.312,0.134l-0.825,0.353c-0.513,0.263-1.027,0.5-1.516,0.782c-3.933,2.25-6.814,5.517-8.369,8.833
		c-1.602,3.313-2.034,6.59-1.848,9.324c0.207,2.75,1.038,4.994,2.08,6.544c1.014,1.579,2.197,2.413,2.997,2.851
		c0.203,0.104,0.381,0.195,0.535,0.273c0.157,0.057,0.29,0.104,0.395,0.141c0.212,0.074,0.32,0.113,0.32,0.113
		s-0.078-0.084-0.23-0.248c-0.157-0.16-0.387-0.416-0.626-0.75c-0.486-0.679-1.091-1.768-1.394-3.258
		c-0.314-1.479-0.352-3.359,0.131-5.428c0.458-2.062,1.449-4.309,3.028-6.337c1.593-2.021,3.796-3.776,6.566-4.875
		c0.038-0.019,0.08-0.03,0.118-0.046c0.387,2.875,0.795,5.719,1.23,8.519c0.912,6.039,1.906,11.894,2.879,17.548
		c0.486,2.824,0.964,5.604,1.432,8.328c0.025,0.158,0.049,0.312,0.074,0.471C98.596,135.148,96.566,135.367,94.517,135.292z
		 M115.846,117.326c-0.072,4.255-2.104,9.13-6.046,12.594c-2.082,1.885-4.666,3.346-7.502,4.271
		c-1.124-8.31-2.319-17.066-3.394-26.221c-0.34-2.951-0.672-5.943-0.992-8.975c0.018-0.002,0.031-0.004,0.05-0.006
		c0.356-0.038,0.71-0.105,1.073-0.106c1.441-0.093,2.925,0.14,4.429,0.618c2.984,1.014,6.041,3.23,8.416,6.355
		c1.177,1.562,2.196,3.334,2.909,5.259c0.357,0.962,0.645,1.96,0.82,2.983c0.108,0.514,0.146,1.031,0.201,1.555l0.026,0.394
		l0.013,0.197l0.008,0.099c-0.008,0.145,0.02-0.087,0.015-0.016L115.846,117.326z"/>
</g>
</svg>
