<?xml version="1.0" encoding="utf-8"?>
<!-- Generator: Adobe Illustrator 15.0.0, SVG Export Plug-In . SVG Version: 6.00 Build 0)  -->
<!DOCTYPE svg PUBLIC "-//W3C//DTD SVG 1.1//EN" "http://www.w3.org/Graphics/SVG/1.1/DTD/svg11.dtd">
<svg version="1.1" id="Ebene_1" xmlns="http://www.w3.org/2000/svg" xmlns:xlink="http://www.w3.org/1999/xlink" x="0px" y="0px"
	 width="190px" height="190px" viewBox="0 0 190 190" enable-background="new 0 0 190 190" xml:space="preserve">
<g id="Orientierungskreise" display="none">
	<g id="Weißer_Kreis_x5F_Violin_9_" display="inline">
		<g>
			<path fill="#4D4D4F" d="M-1122.268,9.917c47.365,0,85.898,38.534,85.898,85.899s-38.534,85.897-85.898,85.897
				c-47.365,0-85.899-38.534-85.899-85.897C-1208.167,48.451-1169.633,9.917-1122.268,9.917 M-1122.268,9.69
				c-47.566,0-86.126,38.559-86.126,86.126c0,47.564,38.56,86.125,86.126,86.125s86.125-38.561,86.125-86.125
				C-1036.143,48.249-1074.702,9.69-1122.268,9.69L-1122.268,9.69z"/>
		</g>
	</g>
	<g id="Weißer_Kreis_x5F_Violin_10_" display="inline">
		<g>
			<path fill="#4D4D4F" d="M-1122.268,12.492c45.944,0,83.322,37.378,83.322,83.322s-37.378,83.322-83.322,83.322
				c-45.945,0-83.323-37.378-83.323-83.322C-1205.591,49.871-1168.212,12.492-1122.268,12.492 M-1122.268,12.272
				c-46.139,0-83.543,37.402-83.543,83.542c0,46.14,37.404,83.543,83.543,83.543c46.139,0,83.542-37.403,83.542-83.543
				S-1076.128,12.272-1122.268,12.272L-1122.268,12.272z"/>
		</g>
	</g>
	<g id="Weißer_Kreis_x5F_Violin_2_" display="inline">
		<g>
			<path fill="#4D4D4F" d="M-1122.268,232.007c47.365,0,85.898,38.534,85.898,85.899s-38.534,85.898-85.898,85.898
				c-47.365,0-85.899-38.535-85.899-85.898C-1208.167,270.542-1169.633,232.007-1122.268,232.007 M-1122.268,231.781
				c-47.566,0-86.126,38.559-86.126,86.125s38.56,86.125,86.126,86.125s86.125-38.559,86.125-86.125
				C-1036.143,270.339-1074.702,231.781-1122.268,231.781L-1122.268,231.781z"/>
		</g>
	</g>
	<g id="Weißer_Kreis_x5F_Violin_1_" display="inline">
		<g>
			<path fill="#4D4D4F" d="M-1122.268,234.583c45.944,0,83.322,37.378,83.322,83.323c0,45.943-37.378,83.322-83.322,83.322
				c-45.945,0-83.323-37.379-83.323-83.322C-1205.591,271.961-1168.212,234.583-1122.268,234.583 M-1122.268,234.363
				c-46.139,0-83.543,37.402-83.543,83.543c0,46.139,37.404,83.541,83.543,83.541c46.139,0,83.542-37.402,83.542-83.541
				C-1038.726,271.766-1076.128,234.363-1122.268,234.363L-1122.268,234.363z"/>
		</g>
	</g>
	<g id="Weißer_Kreis_x5F_Violin_6_" display="inline">
		<g>
			<path fill="#4D4D4F" d="M-1122.268,676.191c47.365,0,85.898,38.535,85.898,85.9c0,47.363-38.534,85.896-85.898,85.896
				c-47.365,0-85.899-38.533-85.899-85.896C-1208.167,714.727-1169.633,676.191-1122.268,676.191 M-1122.268,675.967
				c-47.566,0-86.126,38.559-86.126,86.125c0,47.564,38.56,86.125,86.126,86.125s86.125-38.561,86.125-86.125
				C-1036.143,714.523-1074.702,675.967-1122.268,675.967L-1122.268,675.967z"/>
		</g>
	</g>
	<g id="Weißer_Kreis_x5F_Violin_5_" display="inline">
		<g>
			<path fill="#4D4D4F" d="M-1122.268,678.768c45.944,0,83.322,37.379,83.322,83.324c0,45.943-37.378,83.32-83.322,83.32
				c-45.945,0-83.323-37.377-83.323-83.32C-1205.591,716.146-1168.212,678.768-1122.268,678.768 M-1122.268,678.549
				c-46.139,0-83.543,37.4-83.543,83.543c0,46.139,37.404,83.541,83.543,83.541c46.139,0,83.542-37.402,83.542-83.541
				C-1038.726,715.949-1076.128,678.549-1122.268,678.549L-1122.268,678.549z"/>
		</g>
	</g>
	<g id="Weißer_Kreis_x5F_Violin_8_" display="inline">
		<g>
			<path fill="#4D4D4F" d="M-1122.268,898.285c47.365,0,85.898,38.533,85.898,85.898s-38.534,85.898-85.898,85.898
				c-47.365,0-85.899-38.533-85.899-85.898S-1169.633,898.285-1122.268,898.285 M-1122.268,898.059
				c-47.566,0-86.126,38.559-86.126,86.127c0,47.564,38.56,86.125,86.126,86.125s86.125-38.561,86.125-86.125
				C-1036.143,936.617-1074.702,898.059-1122.268,898.059L-1122.268,898.059z"/>
		</g>
	</g>
	<g id="Weißer_Kreis_x5F_Violin_7_" display="inline">
		<g>
			<path fill="#4D4D4F" d="M-1122.268,900.859c45.944,0,83.322,37.379,83.322,83.324c0,45.943-37.378,83.322-83.322,83.322
				c-45.945,0-83.323-37.379-83.323-83.322C-1205.591,938.238-1168.212,900.859-1122.268,900.859 M-1122.268,900.641
				c-46.139,0-83.543,37.402-83.543,83.543c0,46.139,37.404,83.543,83.543,83.543c46.139,0,83.542-37.404,83.542-83.543
				C-1038.726,938.043-1076.128,900.641-1122.268,900.641L-1122.268,900.641z"/>
		</g>
	</g>
	<g id="Weißer_Kreis_x5F_Violin_4_" display="inline">
		<g>
			<path fill="#4D4D4F" d="M-1122.268,454.102c47.365,0,85.898,38.533,85.898,85.898c0,47.363-38.534,85.898-85.898,85.898
				c-47.365,0-85.899-38.535-85.899-85.898C-1208.167,492.635-1169.633,454.102-1122.268,454.102 M-1122.268,453.873
				c-47.566,0-86.126,38.561-86.126,86.127c0,47.564,38.56,86.125,86.126,86.125s86.125-38.561,86.125-86.125
				C-1036.143,492.434-1074.702,453.873-1122.268,453.873L-1122.268,453.873z"/>
		</g>
	</g>
	<g id="Weißer_Kreis_x5F_Violin_3_" display="inline">
		<g>
			<path fill="#4D4D4F" d="M-1122.267,456.676c45.944,0,83.322,37.379,83.322,83.324c0,45.943-37.378,83.322-83.322,83.322
				c-45.945,0-83.323-37.379-83.323-83.322C-1205.59,494.055-1168.212,456.676-1122.267,456.676 M-1122.267,456.457
				c-46.139,0-83.543,37.402-83.543,83.543c0,46.139,37.404,83.543,83.543,83.543c46.139,0,83.542-37.404,83.542-83.543
				C-1038.725,493.859-1076.128,456.457-1122.267,456.457L-1122.267,456.457z"/>
		</g>
	</g>
</g>
<path d="M153.521,35.332c-1.623-1.551-3.629-2.088-4.48-1.199c-0.451,0.473-0.484,1.252-0.178,2.112
	c-2.059,2.025-6.067,5.947-6.887,6.562c-1.117,0.835-5.086,4.32-6.549,6.201c-0.365,0.468-4.527,4.657-10.57,10.674
	c-0.074,0.024-0.137,0.065-0.187,0.115l-3.188,3.146c-0.055,0.055-0.09,0.127-0.111,0.209c-0.105,0.104-0.213,0.211-0.318,0.316
	c-0.094-0.048-0.199-0.078-0.313-0.078c-0.381,0-0.689,0.31-0.689,0.69v0.016l-5.91,5.831l-0.04,0.05l-0.151,0.146
	c-0.35,0.009-0.633,0.297-0.633,0.649c0,0.106,0.03,0.208,0.078,0.297c-1.432,1.418-2.889,2.863-4.365,4.325
	c-0.121-0.119-0.318-0.12-0.439,0c-1.4,1.391-2.828,2.804-4.271,4.233c-0.282,0.041-0.505,0.261-0.548,0.538
	c-0.294,0.294-0.59,0.588-0.885,0.88c-0.266,0.046-0.477,0.256-0.524,0.519c-4.601,4.556-9.302,9.207-13.718,13.569
	c-0.007-0.008-0.012-0.016-0.02-0.024c-0.163-0.164-0.428-0.164-0.591-0.003c-2.597,2.564-5.086,5.024-7.395,7.304
	c-0.163,0.162-0.165,0.426-0.004,0.591c0.039,0.04,0.084,0.068,0.13,0.089c0.008,0.063,0.031,0.123,0.075,0.175
	c-0.587,0.579-1.151,1.137-1.694,1.673c-0.143-0.064-0.293-0.11-0.443-0.11c-0.191,0-0.361,0.069-0.492,0.201
	c-0.361,0.36-0.354,0.804-0.351,1.065c0,0.034,0.001,0.076,0,0.106c-0.134,0.143-0.598,0.552-1.013,0.919
	c-0.643,0.565-1.44,1.271-2.016,1.844c-0.276,0.277-0.447,0.54-0.555,0.779c-1.532,1.51-2.51,2.475-2.771,2.731
	c-0.023-0.011-0.041-0.018-0.053-0.018l-0.016,0.006c-0.09,0.089-3.091,3.087-3.173,3.169c-0.013,0.012-0.001,0.047,0.03,0.105
	l-29.598,30.079c-0.064,0.012-0.119,0.032-0.158,0.072c-0.293,0.289-4.523,4.5-4.781,4.753c-0.391,0.386,0.563,1.992,2.134,3.586
	c1.337,1.361,2.689,2.275,3.302,2.275c0.105,0,0.189-0.026,0.246-0.083c0.305-0.299,4.48-4.457,4.782-4.755
	c0.041-0.04,0.065-0.1,0.077-0.166c9.572-9.197,17.312-16.757,22.915-22.265c0.064,0.045,0.128,0.092,0.191,0.15
	c0.317,0.284,0.636,0.428,0.946,0.428c0.494,0,0.762-0.355,0.814-0.436c0.172-0.244,0.319-0.802-0.156-1.37l9.705-9.528l0.202,0.192
	c-0.019,0.063-0.033,0.13-0.033,0.199c0,0.031,0.006,0.057,0.009,0.085l-1.029,1.037c-0.042,0.04-0.064,0.1-0.061,0.158
	c0.002,0.058,0.029,0.114,0.076,0.151l0.269,0.217c0.083,0.069,0.204,0.063,0.28-0.015l0.955-0.96
	c0.066,0.02,0.135,0.034,0.207,0.034c0.391,0,0.705-0.314,0.705-0.708c0-0.052-0.006-0.105-0.018-0.155l12.895-12.964
	c0.075-0.076,0.08-0.199,0.012-0.282l-0.039-0.045l-0.01-0.012l-0.256-0.266c0.154-0.062,0.307-0.15,0.434-0.265
	c0.302-0.276,0.966-1.297,1.313-1.844l7.771-7.787c0.081,0.067,0.197,0.066,0.274-0.009c0.077-0.074,0.081-0.196,0.015-0.278
	l13.986-14.013c0.01,0.009,0.021,0.019,0.032,0.031c0.146,0.12,0.272,0.19,0.36,0.19c0.034,0,0.063-0.01,0.085-0.03
	c0.584-0.573,3.02-3.049,3.02-3.049s-0.016-0.05-0.052-0.126l0.93-0.907c0.041-0.039,0.063-0.096,0.063-0.151
	c0-0.059-0.023-0.111-0.064-0.148l-0.541-0.521c0.076-0.205,0.074-0.393-0.033-0.502c-0.112-0.113-0.311-0.116-0.526-0.034
	l-0.23-0.219c0.519-0.463,1.124-0.985,1.745-1.495c0.754-0.622,1.537-1.224,2.205-1.657c0.334-0.217,0.64-0.392,0.888-0.507
	c0.125-0.058,0.233-0.098,0.321-0.121c0.088-0.026,0.15-0.035,0.177-0.035h0.011c0.12,0.031,0.203,0.069,0.258,0.103
	c0.084,0.055,0.115,0.098,0.142,0.151c0.024,0.054,0.04,0.125,0.04,0.216c0,0.132-0.035,0.292-0.078,0.411
	c-0.02,0.06-0.039,0.11-0.055,0.143l-0.016,0.034l-0.003,0.006l-0.021,0.042l-1.254,3.065l-0.001,0.004
	c-0.013,0.037-0.202,0.5-0.204,1.129c0,0.368,0.068,0.799,0.308,1.211c0.127,0.217,0.362,0.604,0.647,1.069
	c0.854,1.393,2.146,3.47,2.147,3.47c0.151,0.246,0.474,0.321,0.72,0.168c0.245-0.151,0.32-0.474,0.168-0.718
	c-0.001-0.001-0.145-0.231-0.367-0.59c-0.334-0.539-0.85-1.366-1.323-2.137c-0.474-0.77-0.913-1.488-1.089-1.789
	c-0.119-0.205-0.166-0.446-0.166-0.685c0-0.201,0.034-0.397,0.068-0.535c0.018-0.071,0.033-0.126,0.045-0.161l0.014-0.039
	l0.002-0.004l-0.002,0.004l0.002-0.005l0.001-0.002l1.244-3.041c0.022-0.046,0.073-0.152,0.124-0.303
	c0.064-0.188,0.133-0.446,0.134-0.748c0-0.137-0.015-0.284-0.058-0.431c-0.06-0.228-0.188-0.463-0.391-0.649
	c-0.202-0.19-0.47-0.325-0.785-0.403c-0.09-0.022-0.178-0.03-0.263-0.03c-0.173,0-0.335,0.032-0.499,0.082
	c-0.304,0.094-0.619,0.249-0.963,0.445c-0.598,0.347-1.271,0.826-1.955,1.357c-1.276,0.994-2.59,2.16-3.398,2.899
	c-0.463-0.348-0.877-0.505-1.045-0.373c-0.006-0.006-0.012-0.011-0.018-0.014c2.875-2.805,5.636-5.496,8.176-7.967
	c0.117-0.021,0.215-0.066,0.287-0.142l3.188-3.145c0.053-0.056,0.09-0.123,0.111-0.199c5.996-5.823,10.149-9.818,10.619-10.173
	c1.904-1.43,5.452-5.343,6.307-6.444c0.631-0.813,4.762-4.889,6.869-6.955c0.908,0.302,1.723,0.246,2.189-0.243
	C155.77,38.865,155.143,36.887,153.521,35.332z M91.949,104.784l0.168,0.177l-9.714,9.733c-0.032-0.072-0.069-0.141-0.122-0.199
	c-0.014-0.016-0.03-0.025-0.045-0.038C84.803,111.907,88.219,108.505,91.949,104.784z M80.056,118.347
	c-0.124-0.113-0.285-0.181-0.466-0.181c-0.086,0-0.166,0.019-0.243,0.045l-0.433-0.407c-0.01-0.01-0.022-0.013-0.033-0.021
	c0.5-0.494,1.135-1.122,1.881-1.861c0.328,0.321,0.909,0.291,1.324-0.081c0.189-0.173,0.309-0.382,0.357-0.6l9.92-9.939
	c0.021-0.004,0.046-0.009,0.07-0.015l0.3,0.311L80.056,118.347z M102.398,94.661l-0.036-0.039l-0.046-0.048l-0.068-0.07
	c1.756-1.751,3.473-3.468,5.104-5.098c0.029,0.002,0.057,0.008,0.086,0.008c0.078,0,0.152-0.011,0.226-0.028L102.398,94.661z
	 M108.385,88.661c0.018-0.068,0.027-0.144,0.027-0.221c0-0.029-0.006-0.057-0.008-0.084c3.045-3.043,5.728-5.725,7.68-7.676
	c0.106,0.029,0.196,0.031,0.264,0.006L108.385,88.661z M120.176,76.722c0.037-0.039,0.072-0.076,0.105-0.118l0.318,0.308
	l-0.733,0.716c-0.062-0.055-0.134-0.105-0.216-0.148c0.049-0.092,0.035-0.238-0.033-0.416
	C119.797,77.015,119.997,76.896,120.176,76.722z M119.401,75.763l0.174,0.166c-0.031,0.025-0.063,0.052-0.095,0.083
	c-0.117,0.116-0.208,0.24-0.272,0.363c-0.063-0.084-0.132-0.167-0.206-0.249C119.126,76.013,119.258,75.891,119.401,75.763z"/>
<g>
	<path fill="#FFFFFF" d="M111.461,81.821c-0.424,0-0.766,0.343-0.768,0.768c0,0.211,0.086,0.402,0.226,0.541
		c0.139,0.139,0.329,0.224,0.542,0.224c0.211,0,0.402-0.085,0.541-0.224c0.14-0.14,0.225-0.33,0.225-0.541
		C112.227,82.164,111.884,81.821,111.461,81.821z"/>
	<path fill="#FFFFFF" d="M152.83,36.012c-1.314-1.258-2.887-1.747-3.512-1.094c-0.242,0.253-0.305,0.641-0.217,1.092
		c0.158-0.156,0.305-0.3,0.43-0.423c0.02-0.174,0.078-0.322,0.186-0.435c0.506-0.529,1.842-0.075,2.982,1.018
		c1.141,1.09,1.654,2.402,1.146,2.934c-0.104,0.107-0.246,0.172-0.408,0.203c-0.129,0.125-0.277,0.27-0.443,0.431
		c0.457,0.068,0.842-0.012,1.084-0.266C154.703,38.82,154.145,37.271,152.83,36.012z"/>
	<path fill="#FFFFFF" d="M134.591,52.143c-0.731,0-1.323,0.592-1.323,1.322c0,0.312,0.107,0.597,0.286,0.823l-0.89,0.895
		c-0.029-0.008-0.059-0.014-0.09-0.014c-0.186,0-0.335,0.148-0.335,0.334c0,0.033,0.007,0.065,0.015,0.093l-3.42,3.442l-0.488-0.479
		c0.002-0.012,0.004-0.022,0.004-0.034c0-0.184-0.15-0.333-0.334-0.333c-0.186,0-0.334,0.149-0.334,0.333
		c0,0.188,0.148,0.337,0.334,0.337c0.012,0,0.024-0.003,0.037-0.005l0.486,0.478l-1.235,1.243l-0.271,0.273
		c-0.359-0.306-0.613-0.52-0.951-0.691c-0.34-0.174-0.646-0.268-0.867-0.267c-0.141,0-0.228,0.035-0.277,0.087l-2.695,2.657
		c0.257,0.041,0.54,0.142,0.84,0.295c0.387,0.195,0.686,0.442,1.088,0.79l0,0l0.006,0.005l-0.18,0.18l-5.389,5.426l0.104,0.624
		l-0.642,0.621c-0.032-0.01-0.064-0.016-0.099-0.016c-0.186,0-0.335,0.149-0.335,0.334c0,0.032,0.006,0.061,0.014,0.088
		l-11.297,10.913l-0.579-0.57l8.04-7.894c0.031,0.008,0.063,0.015,0.096,0.015c0.186,0,0.334-0.147,0.334-0.334
		c0-0.03-0.006-0.061-0.014-0.089l1.468-1.439c0.031,0.01,0.065,0.016,0.099,0.016c0.186,0,0.335-0.15,0.335-0.334
		c0-0.183-0.149-0.332-0.335-0.332c-0.039,0-0.076,0.007-0.111,0.019c-0.18-0.152-0.461-0.37-0.834-0.59l5.879-5.802
		c0.042,0.02,0.088,0.028,0.135,0.028c0.209,0,0.377-0.17,0.377-0.376c0-0.21-0.168-0.377-0.377-0.377
		c-0.207,0-0.376,0.167-0.376,0.377c0,0.043,0.01,0.082,0.024,0.124l-6.027,5.946c-0.008,0.01-0.011,0.019-0.017,0.026
		c-0.002,0.002-0.004,0.002-0.007,0.004l-0.275,0.271c-0.031-0.009-0.064-0.016-0.098-0.016c-0.184,0-0.334,0.149-0.334,0.334
		c0,0.187,0.15,0.334,0.334,0.334s0.334-0.147,0.334-0.334c0-0.033-0.006-0.065-0.015-0.096l0.218-0.215
		c0.321,0.187,0.58,0.372,0.758,0.517c0.034,0.027,0.063,0.052,0.089,0.074c-0.007,0.026-0.011,0.054-0.011,0.083
		c0,0.032,0.006,0.063,0.015,0.094l-1.463,1.437c-0.034-0.011-0.068-0.019-0.104-0.019c-0.184,0-0.334,0.15-0.334,0.335
		c0,0.034,0.007,0.067,0.016,0.099l-8.041,7.895l-0.684-0.673c0-0.013,0.002-0.023,0.002-0.034c0-0.185-0.148-0.333-0.334-0.333
		s-0.334,0.148-0.334,0.333c0,0.188,0.148,0.335,0.334,0.335c0.013,0,0.025-0.002,0.038-0.004l0.679,0.669l-1.129,1.108
		l-0.669-0.656c0.001-0.012,0.003-0.021,0.003-0.036c0-0.183-0.148-0.334-0.334-0.334c-0.185,0-0.335,0.151-0.335,0.334
		c0,0.186,0.15,0.336,0.335,0.336c0.014,0,0.025-0.002,0.038-0.003l0.664,0.653l-6.978,6.848c-0.084-0.016-0.171-0.026-0.262-0.026
		c-0.75,0-1.358,0.609-1.358,1.36c0,0.019,0.003,0.037,0.003,0.057c-0.14,0.359-0.369,0.89-0.625,1.265
		c-0.154-0.367-0.521-0.626-0.945-0.626c-0.566,0-1.027,0.461-1.027,1.027c0,0.2,0.059,0.382,0.156,0.539
		c-0.256-0.126-1.161-0.471-1.637,0.631c-0.225,0.519-0.643,1.172-1.076,1.782c-0.062-0.065-0.148-0.109-0.246-0.109
		c-0.184,0-0.335,0.148-0.335,0.335c0,0.132,0.079,0.249,0.192,0.301c-0.506,0.668-0.962,1.195-1.078,1.276
		c-0.242,0.175-0.451,0.936-0.246,1.286l-1.252,1.234l-0.478-0.472c0.001-0.01,0.003-0.021,0.003-0.03
		c0-0.187-0.149-0.336-0.334-0.336s-0.336,0.149-0.336,0.336c0,0.183,0.151,0.333,0.336,0.333c0.012,0,0.024-0.002,0.037-0.004
		l0.475,0.466l-4.692,4.619c-0.013-0.002-0.022-0.004-0.035-0.004c-0.185,0-0.334,0.149-0.334,0.335c0,0.01,0.003,0.021,0.003,0.029
		l-1.576,1.552c0.029-0.571-0.437-1.04-0.437-1.04s-0.802-0.768-1.185-0.382c-0.383,0.382-0.21,0.905-0.279,1.079
		c-0.07,0.175-2.002,1.76-3.1,2.855c-0.602,0.602-0.658,1.099-0.588,1.424l-0.74,0.73c-0.246,0.241-0.249,0.64-0.007,0.885
		c0.244,0.247,0.641,0.251,0.888,0.006l0.947-0.93c0.252,0.376,0.658,0.624,1.121,0.624c0.769,0,1.393-0.678,1.393-1.517
		c0-0.342-0.107-0.659-0.283-0.913l1.627-1.603l0.524,0.518c-0.002,0.012-0.005,0.023-0.005,0.036c0,0.185,0.149,0.336,0.335,0.336
		c0.185,0,0.335-0.151,0.335-0.336c0-0.184-0.15-0.333-0.335-0.333c-0.012,0-0.022,0.002-0.033,0.004l-0.524-0.517l2.213-2.18
		c0.014,0.002,0.027,0.004,0.04,0.004c0.185,0,0.335-0.149,0.335-0.333c0-0.012-0.002-0.023-0.004-0.035l4.693-4.621l0.446,0.438
		c-0.001,0.013-0.003,0.023-0.003,0.039c0,0.184,0.15,0.334,0.334,0.334c0.186,0,0.334-0.15,0.334-0.334
		c0-0.186-0.148-0.337-0.334-0.337c-0.012,0-0.022,0.002-0.033,0.004l-0.445-0.438l3.29-3.241l0.385,0.38
		c-0.001,0.012-0.003,0.024-0.003,0.037c0,0.183,0.15,0.332,0.334,0.332c0.186,0,0.335-0.149,0.335-0.332
		c0-0.186-0.149-0.335-0.335-0.335c-0.012,0-0.021,0.002-0.033,0.004l-0.385-0.379l2.526-2.489c0.277,0.174,0.723,0.064,1.109-0.377
		c0.286-0.325,0.663-1.312,0.911-2.021c0.003,0.005,0.008,0.009,0.012,0.014c-0.064,0.511-0.195,1.256-0.434,1.622
		c-0.383,0.594-1.009,1.325-0.557,1.709c0.318,0.27,0.836,0.068,1.15-0.557c0.211-0.426,0.328-1.646,0.381-2.393
		c0.151,0.059,0.316,0.093,0.488,0.093c0.751,0,1.358-0.608,1.358-1.358c0-0.159-0.027-0.31-0.077-0.45l6.971-6.736l0.371,0.364
		c-0.004,0.02-0.006,0.039-0.006,0.059c0,0.186,0.149,0.335,0.334,0.335s0.334-0.149,0.334-0.335c0-0.185-0.149-0.334-0.334-0.334
		c-0.004,0-0.008,0-0.012,0.001l-0.386-0.38l1.136-1.101l0.346,0.34c-0.004,0.018-0.006,0.039-0.006,0.058
		c0,0.186,0.15,0.336,0.334,0.336c0.186,0,0.335-0.15,0.335-0.336c0-0.185-0.149-0.332-0.335-0.332
		c-0.004,0-0.008,0.001-0.012,0.001l-0.36-0.356l11.288-10.906c0.034,0.012,0.068,0.02,0.106,0.02c0.185,0,0.334-0.147,0.334-0.334
		c0-0.034-0.005-0.064-0.015-0.095l0.758-0.734l-0.106-0.629l4.996-5.027l0.47-0.473l0.052,0.047h0.001
		c0.57,0.548,1.027,1.147,1.289,1.698c0.107,0.223,0.138,0.315,0.17,0.504l2.718-2.681c0.044-0.045,0.073-0.124,0.073-0.242
		c0.001-0.164-0.059-0.396-0.186-0.662c-0.236-0.498-0.627-0.943-1.164-1.46c-0.029-0.027-0.059-0.054-0.09-0.082l-0.004-0.002
		l0.277-0.275l1.219-1.228l0.506,0.502c-0.001,0.011-0.003,0.022-0.003,0.035c0,0.185,0.149,0.334,0.335,0.334
		c0.185,0,0.334-0.149,0.334-0.334s-0.149-0.334-0.334-0.334c-0.012,0-0.022,0.002-0.033,0.003l-0.51-0.502l3.414-3.438
		c0.033,0.01,0.064,0.016,0.102,0.016c0.184,0,0.334-0.147,0.334-0.333c0-0.037-0.007-0.072-0.018-0.103l0.886-0.893
		c0.226,0.176,0.507,0.28,0.814,0.28c0.731,0,1.323-0.593,1.323-1.323S135.322,52.143,134.591,52.143z M97.723,90.237
		c-0.135-0.203-0.322-0.366-0.542-0.475l6.868-6.744l0.566,0.559L97.723,90.237z M104.915,83.288l-0.568-0.562l1.129-1.106
		l0.578,0.568L104.915,83.288z"/>
	<path fill="#FFFFFF" d="M115.328,78.773l-0.298,0.286l-2.7,2.66c-0.189-0.313-0.529-0.521-0.92-0.521
		c-0.597,0-1.08,0.481-1.08,1.079c0,0.06,0.008,0.115,0.018,0.172l-5.7,5.614l-0.177-0.174c0.002-0.011,0.004-0.022,0.004-0.034
		c0-0.183-0.148-0.333-0.334-0.333s-0.335,0.15-0.335,0.333c0,0.187,0.149,0.337,0.335,0.337c0.012,0,0.025-0.002,0.039-0.004
		l0.17,0.168l-0.847,0.835l-0.175-0.173c0.002-0.012,0.004-0.021,0.004-0.033c0-0.185-0.15-0.336-0.334-0.336
		c-0.186,0-0.336,0.151-0.336,0.336s0.15,0.336,0.336,0.336c0.012,0,0.024-0.003,0.038-0.004l0.169,0.167l-4.604,4.533
		c-0.543,0.53-0.993,0.759-1.309,0.851c-0.313,0.096-0.959,0.095-1.27,0.211c-0.309,0.118-0.58,1.188,0.318,1.102
		c0.9-0.087,2.168-1.496,2.168-1.496l4.988-4.914l0.307,0.302l-5.592,5.507c-1.081,1.06-1.801,0.907-1.801,0.907
		c-0.906-0.176-1.219,0.07-1.219,0.07c-0.418,0.209,0.034,1.427,0.766,1.287c0.732-0.139,2.163-1.599,2.163-1.599l2.692-2.651
		c0.009,0.026,0.024,0.054,0.046,0.078l0.911,0.941l-3.458,3.403c-0.161,0.141-0.735,0.625-1.098,0.778
		c-0.427,0.182-1.106-0.058-1.684-0.612c-0.677-0.684-1.45-1.017-1.728-0.74c-0.279,0.275,0.043,1.052,0.719,1.735
		c0.698,0.671,1.316,0.834,1.818,0.776l-1.008,0.99l-1.238-1.281c0.045-0.191,0.048-0.458-0.119-0.767
		c-0.337-0.553-1.076-1.008-1.468-0.655c-0.505,0.457,0.069,1.186,0.321,1.434c0.203,0.211,0.116,0.55-0.07,0.894l-0.414-0.43
		c0.078-0.245-0.035-0.595-0.308-0.869c-0.344-0.349-0.808-0.448-1.036-0.226c-0.229,0.228-0.133,0.691,0.211,1.041
		c0.256,0.257,0.579,0.379,0.82,0.331l0.496,0.513c-0.053,0.072-0.105,0.14-0.159,0.206l-3.66,3.604l-3.349,3.297l-0.376-0.369
		c0.001-0.011,0.003-0.021,0.003-0.032c0-0.186-0.148-0.335-0.334-0.335s-0.334,0.149-0.334,0.335c0,0.185,0.148,0.334,0.334,0.334
		c0.013,0,0.025-0.002,0.037-0.005l0.372,0.367l-5.841,5.751c-0.008,0-0.016-0.002-0.024-0.002c-0.186,0-0.335,0.15-0.335,0.332
		c0,0.008,0.002,0.014,0.002,0.021l-0.559,0.552c-0.121-0.067-0.262-0.106-0.409-0.106c-0.481,0-0.871,0.391-0.871,0.87
		c0,0.481,0.39,0.873,0.871,0.873s0.871-0.392,0.871-0.873c0-0.182-0.056-0.348-0.149-0.485l0.528-0.52
		c0.017,0.002,0.033,0.005,0.051,0.005c0.185,0,0.335-0.148,0.335-0.336c0-0.016-0.003-0.029-0.006-0.043l5.835-5.746l0.548,0.539
		c-0.001,0.014-0.004,0.025-0.004,0.037c0,0.186,0.148,0.337,0.334,0.337c0.187,0,0.334-0.151,0.334-0.337
		c0-0.184-0.147-0.332-0.334-0.332c-0.012,0-0.021,0.002-0.033,0.002l-0.549-0.538l4.032-3.97l2.964-2.875
		c0,0,0.085-0.077,0.215-0.201l0.396,0.412l-3.723,3.66c-0.012,0-0.024-0.004-0.037-0.004c-0.184,0-0.335,0.148-0.335,0.336
		c0,0.184,0.151,0.333,0.335,0.333c0.186,0,0.334-0.149,0.334-0.333c0-0.013-0.002-0.022-0.003-0.034l0.677-0.666
		c0.009,0.02,0.018,0.035,0.031,0.05l0.566,0.577l0.291-0.29l-0.557-0.579c-0.016-0.014-0.033-0.021-0.051-0.032l0.557-0.549
		l0.598,0.616l0.294-0.293l4.583-4.566c0.145-0.054,0.219-0.116,0.219-0.116l4.848-4.727l-0.001-0.001l0.471-0.458l-0.437-0.45
		l5.154-5.057c0.107,0.056,0.228,0.092,0.357,0.092c0.213,0,0.402-0.087,0.541-0.226s0.225-0.332,0.225-0.541
		c0-0.425-0.344-0.766-0.766-0.767c-0.424,0.001-0.766,0.342-0.767,0.767c0,0.209,0.085,0.402,0.224,0.541
		c0.004,0.003,0.008,0.008,0.012,0.011l-5.127,5.029l-0.618-0.641c-0.024-0.022-0.052-0.04-0.08-0.05l3.016-2.969l0.156,0.154
		c-0.001,0.012-0.003,0.022-0.003,0.035c0,0.188,0.15,0.335,0.334,0.335c0.186,0,0.334-0.147,0.334-0.335
		c0-0.183-0.148-0.333-0.334-0.333c-0.012,0-0.021,0.002-0.033,0.003l-0.156-0.154l0.846-0.832l0.155,0.151
		c-0.001,0.013-0.003,0.023-0.003,0.035c0,0.187,0.15,0.337,0.335,0.337s0.335-0.15,0.335-0.337c0-0.182-0.15-0.332-0.335-0.332
		c-0.013,0-0.022,0.002-0.034,0.003l-0.154-0.151l5.539-5.456l0,0c-0.129-0.055-0.242-0.141-0.337-0.244l-5.495,5.41l-0.306-0.299
		l5.567-5.483c0.013,0.02,0.027,0.036,0.041,0.054c-0.039-0.105-0.063-0.218-0.063-0.334c0-0.541,0.436-0.978,0.975-0.978
		c0.538,0,0.975,0.437,0.975,0.978c0,0.004,0,0.008-0.001,0.013c0.032-0.102,0.055-0.212,0.055-0.323
		c0-0.045-0.008-0.085-0.013-0.126l3.012-2.967l0.136-0.134C115.476,78.844,115.328,78.773,115.328,78.773z M91.994,104.229
		l-0.345-0.357l1.983-1.947l0.009-0.011l0.07-0.077c0.069-0.081,0.068-0.204-0.005-0.283l-0.052-0.054l-0.002-0.002l-0.488-0.509
		c0.252-0.261,0.544-0.596,0.745-0.914l1.126,1.165L91.994,104.229z M104.947,88.946l-0.845,0.833l-0.306-0.299l0.847-0.836
		L104.947,88.946z"/>
	<path fill="#FFFFFF" d="M68.594,128.083c-0.543-0.497-2.285-0.293-2.814-0.22l0.213-0.209c0.006,0,0.013,0.001,0.02,0.001
		c0.184,0,0.334-0.146,0.334-0.334c0-0.184-0.15-0.333-0.334-0.333c-0.186,0-0.335,0.149-0.335,0.333
		c0,0.018,0.003,0.034,0.005,0.052l-13.992,13.856l-1.46-1.532c0.001-0.009,0.003-0.017,0.003-0.024c0-0.188-0.15-0.337-0.335-0.337
		c-0.187,0-0.335,0.149-0.335,0.337c0,0.01,0.002,0.019,0.004,0.029l-1.408,1.345L47,139.904c0.001-0.011,0.003-0.021,0.003-0.032
		c0-0.184-0.149-0.333-0.335-0.333c-0.184,0-0.334,0.149-0.334,0.333c0,0.185,0.15,0.336,0.334,0.336
		c0.014,0,0.027-0.002,0.039-0.004l1.149,1.131l-2.306,2.206l-0.571-0.562c0.001-0.014,0.003-0.023,0.003-0.035
		c0-0.181-0.148-0.332-0.334-0.332c-0.184,0-0.334,0.151-0.334,0.332c0,0.188,0.15,0.336,0.334,0.336
		c0.013,0,0.025-0.003,0.038-0.004l0.897,0.884l0.85,0.89l-1.59,1.647c-0.268-0.309-0.662-0.501-1.102-0.501
		c-0.807,0-1.463,0.655-1.463,1.462c0,0.809,0.656,1.464,1.463,1.464c0.809,0,1.464-0.655,1.464-1.464c0-0.215-0.048-0.415-0.13-0.6
		l1.682-1.742l0.852,0.836c0,0.012-0.003,0.022-0.003,0.034c0,0.185,0.15,0.335,0.335,0.335c0.184,0,0.334-0.15,0.334-0.335
		c0-0.186-0.15-0.336-0.334-0.336c-0.014,0-0.025,0.005-0.039,0.005l-2.021-1.991l-0.031-0.031l0.266-0.255l1.031,1.017l0.634-0.673
		l-0.997-0.982l0.112-0.105l0.987,0.97l0.633-0.671l-0.951-0.938l0.59-0.566l0.797,0.784c-0.002,0.016-0.004,0.032-0.004,0.047
		c0,0.186,0.149,0.337,0.334,0.337c0.092,0,0.174-0.035,0.235-0.098c0.004-0.004,0.01-0.005,0.014-0.01
		c0.01-0.009,0.015-0.022,0.022-0.033c0.004-0.007,0.008-0.013,0.013-0.02c0.003-0.008,0.009-0.015,0.012-0.021
		c0.024-0.047,0.039-0.096,0.039-0.155c0-0.183-0.15-0.331-0.335-0.331c-0.007,0-0.015,0.002-0.021,0.002l-0.803-0.791l1.4-1.338
		c0.014,0.002,0.026,0.004,0.04,0.004c0.015,0,0.029-0.002,0.044-0.004l1.45,1.523l-0.138,0.135
		c-0.014-0.001-0.025-0.003-0.037-0.003c-0.186,0-0.335,0.15-0.335,0.335c0,0.187,0.149,0.333,0.335,0.333
		c0.184,0,0.334-0.146,0.334-0.333c0-0.012-0.002-0.021-0.004-0.034l0.596-0.587c0,0,0-0.003,0.001-0.003l10.669-10.564
		c0.322,0.053,0.631-0.145,0.631-0.145s1.455-1.454,1.875-1.819c0.42-0.363,1.512-0.448,2.323,0.28
		c0.812,0.728,1.233,0.055,1.233,0.055S69.238,128.672,68.594,128.083z"/>
	<path fill="#FFFFFF" d="M68.751,126.358c-0.544-0.495-2.286-0.295-2.813-0.219l0.159-0.158c0.015,0.002,0.028,0.004,0.042,0.004
		c0.186,0,0.335-0.15,0.335-0.335c0-0.184-0.149-0.334-0.335-0.334c-0.185,0-0.334,0.15-0.334,0.334c0,0.01,0.002,0.02,0.003,0.028
		l-9.292,9.201c0,0-0.001,0-0.001,0.001l-0.198,0.196l-0.666-0.655c0.004-0.007,0.021-0.03,0.041-0.065
		c0.021-0.04,0.045-0.087,0.051-0.144c0-0.033,0.002-0.075,0.002-0.122c0-0.167-0.017-0.422-0.083-0.737l-0.001-0.005
		c-0.056-0.197-0.193-0.395-0.379-0.547c-0.188-0.149-0.425-0.255-0.68-0.255c-0.584,0-1.059,0.459-1.092,1.034l-1.191,1.235
		c-0.078,0.079-0.078,0.208,0,0.288l0.983,1.031l-1.974,1.892c-0.018-0.003-0.033-0.006-0.051-0.006
		c-0.187,0-0.335,0.149-0.335,0.335c0,0.184,0.148,0.334,0.335,0.334c0.184,0,0.334-0.15,0.334-0.334
		c0-0.006-0.002-0.012-0.002-0.018l2.066-1.981c0.182-0.002,0.329-0.151,0.329-0.335s-0.15-0.334-0.335-0.334
		c-0.063,0-0.121,0.02-0.169,0.048l-0.743-0.774l0.843-0.874c0.142,0.32,0.426,0.562,0.777,0.634
		c0.019,0.003,0.048,0.007,0.095,0.011c0.135,0.018,0.388,0.04,0.561,0.055l0.03,0.002c0.121-0.002,0.245-0.055,0.249-0.057
		l0.02-0.011l0.016-0.013l0.672,0.66l-0.1,0.101c-0.013-0.001-0.025-0.003-0.038-0.003c-0.183,0-0.334,0.148-0.334,0.334
		c0,0.184,0.151,0.333,0.334,0.333c0.186,0,0.335-0.149,0.335-0.333c0-0.011-0.002-0.021-0.004-0.034l0.265-0.262l0.042-0.038
		l0.002-0.003l6.447-6.385c0.323,0.051,0.631-0.145,0.631-0.145s1.456-1.456,1.875-1.821c0.422-0.361,1.512-0.445,2.324,0.282
		c0.812,0.728,1.232,0.056,1.232,0.056S69.395,126.947,68.751,126.358z"/>
	<path fill="#FFFFFF" d="M69.694,120.981c-0.544-0.105-1.138-0.034-1.509,0.031l0.592-0.585c0.01,0.001,0.02,0.003,0.029,0.003
		c0.185,0,0.334-0.15,0.334-0.335s-0.149-0.335-0.334-0.335c-0.186,0-0.335,0.15-0.335,0.335c0,0.014,0.002,0.026,0.005,0.041
		l-5.32,5.269l-0.828-0.746c-0.082-0.071-0.207-0.069-0.286,0.004l-1.097,1.056c-0.002,0.002-0.003,0.005-0.006,0.008l-0.309-0.232
		l1.57-1.57l0.574,0.097l0.045-0.015l0.919-0.914l0.017-0.036l-0.016-0.037l-0.59-0.594c-0.021-0.021-0.055-0.021-0.075,0
		l-0.899,0.897l-0.574-0.098l-0.045,0.015L50.994,133.79c-0.017,0.016-0.02,0.042-0.008,0.064l0.24,0.383l-0.908,0.908
		c-0.021,0.02-0.021,0.053,0,0.073l0.59,0.593l0.037,0.015l0.035-0.015l0.94-0.937c0.017-0.019,0.02-0.043,0.007-0.064l-0.238-0.385
		l3.52-3.519c0.117,0.757,0.691,1.36,1.434,1.513c0.029,0.007,0.08,0.013,0.158,0.021c0.227,0.024,0.646,0.063,0.934,0.089
		l0.05,0.002c0.202-0.002,0.411-0.09,0.418-0.091l0.032-0.021l0.105-0.101l0.406-0.379l0.012-0.015
		c0.002-0.002,0.037-0.05,0.073-0.114c0.036-0.066,0.077-0.146,0.083-0.243c0.002-0.054,0.004-0.12,0.004-0.196
		c0-0.283-0.025-0.704-0.139-1.235l-0.002-0.006c-0.089-0.328-0.319-0.656-0.63-0.908c-0.24-0.195-0.532-0.344-0.85-0.398
		l2.997-2.994c0.031,0.037,0.068,0.076,0.111,0.12c0.23,0.247,0.578,0.615,0.869,0.928c0.145,0.153,0.275,0.293,0.371,0.396
		c0.048,0.051,0.087,0.093,0.115,0.122l0.029,0.034l0.008,0.01l0.002,0.002v-0.002c0.045,0.062,0.117,0.128,0.201,0.192
		c0.043,0.03,0.089,0.059,0.135,0.08c0.047,0.021,0.094,0.039,0.148,0.04c0.252-0.001,0.459-0.199,0.459-0.449
		c-0.002-0.101-0.051-0.183-0.105-0.259c-0.057-0.071-0.119-0.133-0.178-0.173l0,0l-1.185-0.891l0.915-0.88l0.668,0.601
		l-0.144,0.139c-0.014-0.002-0.026-0.004-0.04-0.004c-0.186,0-0.335,0.15-0.335,0.336c0,0.185,0.149,0.335,0.335,0.335
		c0.184,0,0.334-0.15,0.334-0.335c0-0.011-0.002-0.021-0.003-0.031l2.144-2.123c0.265-0.011,0.486-0.153,0.486-0.153
		s1.457-1.455,1.877-1.82c1.205-1.174,2.809,0.565,3.086,1.367c0.313,0.943,1.149,0.943,1.516,0.628
		c0.574-0.417,0.13-1.157,0.025-1.304C71.756,122.204,70.816,121.225,69.694,120.981z M61.795,127.435L61.795,127.435
		L61.795,127.435L61.795,127.435z"/>
	<path fill="#FFFFFF" d="M68.754,122.37c-1,0-1.813,0.81-1.813,1.811c0,0.872,0.619,1.602,1.441,1.772
		c0.091,0.018,1.336,0.232,1.936,0.333l0.55-0.554c-0.101-0.576-0.337-1.921-0.37-2.043C70.284,122.927,69.584,122.37,68.754,122.37
		z"/>
	<path fill="#FFFFFF" d="M38.511,147.44c-0.133-0.225-0.239-0.432-0.316-0.619c-0.333,0.328-0.763,0.756-1.223,1.214l-0.37,0.368
		l-0.305,0.304c-1.018,1.015-1.982,1.976-2.208,2.196c0.001,0.097,0.064,0.367,0.36,0.864c0.385,0.648,1.003,1.419,1.739,2.168
		c1.444,1.469,2.614,2.138,2.995,2.149c0.242-0.237,1.252-1.243,2.23-2.217l0.121-0.121c0.641-0.64,1.295-1.29,1.76-1.752
		c-0.785-0.335-1.859-1.148-2.92-2.229C39.592,148.973,38.932,148.147,38.511,147.44z"/>
	<path fill="#FFFFFF" d="M74.144,116.18c-0.859-0.87-1.646-1.71-2.218-2.361c-0.244-0.278-0.434-0.504-0.571-0.683l-1.013,1.012
		c-0.613,0.612-1.24,1.239-1.563,1.561c0.318,0.423,1.231,1.47,2.77,3.033c1.538,1.565,2.572,2.495,2.986,2.82
		c0.307-0.296,0.881-0.856,1.445-1.407l0.428-0.418l0.737-0.716C76.203,118.269,74.374,116.417,74.144,116.18z"/>
	<path fill="#FFFFFF" d="M119.613,77.828c-0.299,0.289-0.959,0.932-1.592,1.546c-0.382,0.373-0.753,0.733-1.026,1
		c0.082,0.061,0.163,0.139,0.24,0.242c0.633-0.634,1.81-1.826,2.557-2.585C119.752,77.968,119.693,77.889,119.613,77.828z"/>
	<path fill="#FFFFFF" d="M117.677,78.98c0.701-0.681,1.511-1.467,1.695-1.647c-0.011-0.134-0.198-0.604-0.804-1.213
		c-0.589-0.598-1.055-0.807-1.208-0.818c-0.169,0.166-0.839,0.817-1.542,1.502l-0.103,0.1l-0.533,0.519l-0.523,0.508
		c0.351,0.164,0.759,0.469,1.149,0.866c0.396,0.399,0.698,0.814,0.857,1.169c0.214-0.208,0.482-0.471,0.768-0.748L117.677,78.98z"/>
</g>
</svg>
