<?xml version="1.0" encoding="utf-8"?>
<!-- Generator: Adobe Illustrator 15.0.0, SVG Export Plug-In . SVG Version: 6.00 Build 0)  -->
<!DOCTYPE svg PUBLIC "-//W3C//DTD SVG 1.1//EN" "http://www.w3.org/Graphics/SVG/1.1/DTD/svg11.dtd">
<svg version="1.1" xmlns="http://www.w3.org/2000/svg" xmlns:xlink="http://www.w3.org/1999/xlink" x="0px" y="0px" width="190px"
	 height="190px" viewBox="0 0 190 190" enable-background="new 0 0 190 190" xml:space="preserve">
<g id="Kreise">
	<path d="M151.104,83.037c-0.045-0.651-0.533-2.245-0.533-2.245c-0.01-0.153-0.146-0.271-0.305-0.259
		c-0.156,0.01-0.273,0.144-0.264,0.297c0,0-0.17,1.025-0.217,1.773l-0.992,0.014c0.346-6.617-0.164-13.789-1.639-21.158l0.785-0.106
		c0.25,0.734,0.658,1.667,0.658,1.667c0.027,0.151,0.188,0.249,0.357,0.219c0.17-0.031,0.285-0.178,0.258-0.33
		c0,0,0.109-1.768-0.006-2.41s-0.813-2.166-0.813-2.166c-0.027-0.153-0.188-0.252-0.357-0.221s-0.285,0.179-0.26,0.33
		c0,0-0.088,1.151-0.051,1.907l-0.779,0.105c-0.041-0.195-0.082-0.392-0.123-0.588c-1.627-7.447-4.076-14.319-7.094-20.332
		l0.592-0.236c0.451,0.638,1.137,1.441,1.137,1.441c0.07,0.137,0.25,0.185,0.404,0.107c0.156-0.079,0.225-0.255,0.154-0.392
		c0,0-0.408-1.723-0.703-2.306c-0.295-0.582-1.404-1.84-1.404-1.84c-0.068-0.138-0.25-0.186-0.404-0.107s-0.223,0.254-0.154,0.391
		c0,0,0.238,1.083,0.486,1.797l-0.576,0.229c-3.467-6.679-7.641-12.249-12.154-16.299c0.082-0.197,0.178-0.386,0.262-0.541
		c0.582,0.444,1.754,1.092,1.754,1.092c0.107,0.1,0.289,0.078,0.406-0.047c0.119-0.127,0.129-0.311,0.021-0.41
		c0,0-0.908-1.425-1.363-1.848c-0.451-0.425-1.865-1.176-1.865-1.176c-0.105-0.1-0.289-0.078-0.406,0.048
		c-0.119,0.125-0.127,0.309-0.021,0.408c0,0,0.434,0.707,0.846,1.258c-0.266,0.041-0.592,0.082-0.914,0.118
		c-4.742-3.899-9.813-6.126-14.811-6.229l0.252-0.781c0.328,0.079,0.664,0.146,0.877,0.152c0.531,0.014,1.953-0.304,1.953-0.304
		c0.125,0.004,0.23-0.113,0.234-0.262c0.004-0.147-0.094-0.271-0.219-0.272c0,0-1.389-0.396-1.92-0.411
		c-0.529-0.016-1.859,0.305-1.859,0.305c-0.125-0.003-0.23,0.114-0.234,0.261c-0.002,0.108,0.049,0.201,0.125,0.247l-1.32,1.151
		c-0.66,0.065-1.316,0.168-1.969,0.313c-1.076,0.238-3.848,1.14-4.213,1.22c-0.291,0.065-0.58,0.141-0.867,0.22
		c-0.082,0.022-0.164,0.048-0.246,0.073c-0.213,0.062-0.424,0.129-0.633,0.198c-0.08,0.027-0.16,0.055-0.24,0.083
		c-0.25,0.088-0.498,0.182-0.742,0.282c-0.029,0.011-0.057,0.021-0.084,0.032c-0.291,0.12-0.578,0.248-0.863,0.385
		c-0.016,0.007-0.031,0.015-0.047,0.022c-0.221,0.107-0.439,0.222-0.658,0.339c-0.014-0.166-0.102-0.32-0.248-0.425
		c-0.121-0.088-0.271-0.136-0.426-0.136c-0.152,0-0.297,0.046-0.412,0.132c-0.094,0.053-0.41,0.229-0.775,0.444
		c-1.137-0.209-2.271-0.348-3.406-0.415c-0.18-0.22-0.314-0.288-0.314-0.288s-3.119-0.024-3.301,0.018s-0.275,0.313-0.275,0.313
		l0.002,0.001c-1.223,0.103-2.438,0.291-3.629,0.562c-4.008,0.909-7.732,2.733-11.068,5.42c-0.936,0.752-1.836,1.575-2.703,2.46
		c-0.303,0.052-0.516,0.111-0.533,0.115c-0.049,0.013-0.094,0.042-0.125,0.084l-1.244,1.604c-0.07,0.091-0.066,0.217,0.006,0.303
		c0.002,0,0.002,0.001,0.002,0.001c-1.057,1.275-2.047,2.652-2.965,4.12c-1.422,0.697-2.785,1.532-4.088,2.505
		c-1.32,0.629-2.518,1.197-2.91,1.384c-0.453,0.212-0.576,0.662-0.57,1.098l-2.865,1.582l-0.277-0.298
		c0.389-0.427,0.943-1.359,0.943-1.359c0.09-0.085,0.061-0.22-0.066-0.3s-0.303-0.075-0.395,0.011c0,0-1.252,0.696-1.639,1.059
		s-1.104,1.519-1.104,1.519c-0.09,0.086-0.061,0.22,0.066,0.3c0.129,0.08,0.305,0.075,0.396-0.011c0,0,0.703-0.404,1.232-0.766
		l0.504,0.544c0.113,0.121,0.295,0.15,0.439,0.069l0.686-0.378c-3.713,3.853-6.553,8.924-8.346,14.749
		c-0.09-0.011-0.164-0.02-0.217-0.024l-0.035-0.002c-0.025,0-0.049,0.003-0.074,0.008c-0.754,0.155-1.236,1.236-1.342,2.256
		l-0.344,0.07c-0.043-0.718-0.291-1.836-0.291-1.836c0.01-0.15-0.127-0.245-0.307-0.211c-0.178,0.036-0.33,0.187-0.34,0.337
		c0,0-0.529,1.656-0.568,2.298c-0.039,0.641,0.287,2.257,0.287,2.257c-0.008,0.151,0.129,0.245,0.307,0.209
		c0.18-0.034,0.332-0.185,0.342-0.336c0,0,0.379-1.257,0.523-2.035l0.375-0.077c0.037,0.597,0.209,1.103,0.488,1.396
		c0.021,0.024,0.049,0.043,0.072,0.065c-1.416,6.877-1.465,14.563,0.109,22.43c-0.229,0.174-0.391,0.47-0.469,0.867
		c-0.072,0.372-0.061,0.815,0.021,1.271l-0.322,0.082c-0.26-0.709-0.85-1.807-0.85-1.807c-0.035-0.149-0.203-0.236-0.371-0.195
		c-0.166,0.04-0.273,0.194-0.236,0.345c0,0-0.023,1.658,0.133,2.294c0.154,0.636,0.975,2.223,0.975,2.223
		c0.037,0.15,0.203,0.237,0.371,0.195c0.168-0.039,0.273-0.195,0.236-0.345c0,0-0.002-1.258-0.098-2.033l0.336-0.086
		c0.295,0.856,0.797,1.466,1.32,1.602c1.965,7.091,5.076,13.418,8.938,18.649c-0.023,0.036-0.047,0.071-0.064,0.113
		c-0.201,0.441-0.117,1.152,0.213,1.949l-0.287,0.073c-0.459-0.749-1.363-1.914-1.363-1.914c-0.08-0.159-0.275-0.254-0.441-0.213
		c-0.164,0.039-0.234,0.2-0.156,0.358c0,0,0.412,1.744,0.74,2.416c0.332,0.671,1.607,2.356,1.607,2.356
		c0.078,0.159,0.273,0.254,0.439,0.213c0.164-0.04,0.234-0.202,0.158-0.358c0,0-0.336-1.325-0.639-2.143l0.291-0.075
		c0.51,0.882,1.291,1.731,1.99,1.731c0.068,0,0.139-0.01,0.203-0.025c0.047-0.012,0.09-0.032,0.129-0.062
		c0.057-0.042,0.25-0.188,0.49-0.402c1.324,1.441,2.713,2.765,4.15,3.964l5.475,39.135c-0.143,0.081-0.289,0.184-0.432,0.305
		l-14.676-8.421c0-0.152,0-0.519,0-0.637c0-0.299-0.42-0.54-0.938-0.54c-0.305,0-0.57,0.084-0.742,0.212l-2.369-1.357
		c-0.002-0.002-0.004-0.005-0.006-0.007c-0.346-0.2-0.951,0.197-1.354,0.888c-0.398,0.691-0.443,1.413-0.098,1.614
		c0.008,0.005,0.016,0.008,0.025,0.012l3.086,1.771c-0.002,0.069-0.074,0.196-0.336,0.402c-0.068,0.042-0.254-0.003-0.26-0.004
		c-0.996-0.229-1.939-0.048-2.541,0.588c-0.006,0.006-0.01,0.012-0.014,0.018c-0.137,0.089-0.264,0.189-0.377,0.308
		c-1.07,1.133-0.641,3.278,0.961,4.791s3.766,1.82,4.836,0.688c0.006-0.007,0.012-0.013,0.016-0.019
		c0.137-0.088,0.264-0.188,0.377-0.309c0.697-0.737,0.754-1.906,0.268-3.049c-0.002-0.007-0.041-0.059-0.043-0.065
		c0.107-0.065,0.182-0.108,0.217-0.13c0.092-0.005,0.359-0.061,0.686-0.102c0.193-0.025,0.361-0.037,0.531-0.082
		c0.084-0.021,0.162-0.048,0.23-0.078c0.066-0.032,0.127-0.068,0.172-0.126c0.025-0.035,0.031-0.072,0.033-0.102l10.922,6.267
		c-0.006,0.042-0.012,0.083-0.014,0.124c-0.041,0.56,0.119,0.978,0.453,1.174c0.104,0.063,0.611,0.353,1.307,0.749
		c0.051,0.358,0.104,0.725,0.156,1.092c0.258,1.786,0.525,3.635,0.543,3.771c0.082,0.624,0.889,1.044,2.008,1.044
		c0.195,0,0.395-0.014,0.596-0.039c0.621-0.081,1.193-0.278,1.611-0.556c0.469-0.312,0.697-0.695,0.648-1.079
		c-0.014-0.104-0.076-0.539-0.164-1.152c0.135,0.077,0.227,0.13,0.262,0.151c0.127,0.074,0.273,0.113,0.43,0.113
		c0.289,0,0.609-0.133,0.926-0.363l18.84,10.813c-0.037,0.026-0.211,0.243-0.25,0.278c-0.24,0.212-0.307,0.649-0.305,1.222
		c0,0.123-0.043,0.091-0.107,0.076c-1.832,0.218-3.252,1.75-3.252,3.611c0,2.01,1.658,3.64,3.703,3.64
		c0.33,0,1.541-0.142,1.762-0.182c1.721-0.313,3.025-1.797,3.025-3.58c0-0.392-0.066-0.77-0.182-1.124
		c-0.131-0.114,0.223-0.232,0.377-0.316c0.254-0.136,0.541-0.5,0.807-0.426l0.965,0.553c0,0.001,0,0.001,0,0.001
		c0.002,0.001,0.002,0.001,0.002,0.001l0.014,0.008v-0.001c0.348,0.18,0.941-0.215,1.336-0.896c0.4-0.692,0.445-1.415,0.1-1.615
		c-0.014-0.008-0.027-0.012-0.043-0.018l-4.541-2.607c0.031-0.056,0.053-0.112,0.053-0.174c0-0.126,0-0.542,0-0.67
		c0-0.299-0.422-0.541-0.939-0.541c-0.412,0-0.76,0.155-0.885,0.368l-18.939-10.868c0.023-0.121,0.041-0.238,0.051-0.353
		c0.041-0.56-0.119-0.977-0.453-1.174c-0.119-0.071-1.434-0.82-2.881-1.646l2.383-2.394c0-0.001,0.002-0.001,0.002-0.001v-0.001
		l0.039-0.039l-0.004-0.004c0.127-0.153,0.168-0.368,0.135-0.615l27.078-27.197c1.205-0.104,2.4-0.289,3.574-0.557
		c0.045-0.011,0.09-0.022,0.137-0.033c0.24,0.16,0.668,0.171,0.668,0.171c1.238-0.156,2.035-0.435,2.035-0.435
		c0.449-0.099,0.789-0.416,0.984-0.884c1.918-0.755,3.754-1.736,5.498-2.938c0.145,0.021,0.291,0.046,0.438,0.063
		c0.061,0.008,0.121,0.013,0.184,0.021c0.207,0.022,0.414,0.044,0.621,0.061c0.084,0.007,0.168,0.012,0.252,0.016
		c0.184,0.013,0.369,0.022,0.553,0.029c0.096,0.003,0.189,0.005,0.283,0.007c0.174,0.003,0.348,0.004,0.521,0.002
		c0.1-0.002,0.201-0.004,0.301-0.006c0.168-0.006,0.338-0.014,0.506-0.023c0.104-0.005,0.205-0.011,0.307-0.019
		c0.17-0.014,0.338-0.03,0.508-0.049c0.1-0.011,0.197-0.02,0.297-0.032c0.182-0.021,0.361-0.05,0.543-0.078
		c0.086-0.014,0.172-0.025,0.258-0.039c0.264-0.046,0.527-0.097,0.793-0.156c1.074-0.239,5.262-1.479,5.771-1.646
		c0.279-0.091,0.557-0.19,0.832-0.296c0.551,0.074,1.396,0.247,1.338,0.602c-0.059,0.071-0.076,0.173-0.039,0.266
		c0.041,0.103,0.139,0.168,0.242,0.169c0.033,0,0.729,0.042,1.545-0.312c0.557-0.243,1.842-1.107,1.842-1.107
		c0.133-0.054,0.197-0.206,0.145-0.343c-0.055-0.136-0.205-0.204-0.34-0.151c0,0-1.523,0.213-2.088,0.443
		c-0.045,0.02-0.086,0.038-0.127,0.058c-0.336-0.007-0.617-0.123-0.561-0.514c2.221-1.18,4.232-2.849,6.018-4.926l4.359,1.459
		c-0.053,0.057-0.152,0.178-0.207,0.257c-0.205,0.284-0.357,0.653-0.357,1.218c0,0.144,0,0.298,0.029,0.458
		c-0.02,0.051-0.059,0.213-0.109,0.369c-0.049,0.161-0.172,0.388-0.221,0.429c-0.264,0.558-0.447,1.309-0.488,2.143
		c-0.074,1.547,0.363,2.979,1.012,3.311c0.094,0.046,1.313,0.419,1.572,0.432c0.887,0.042,1.68-1.502,1.773-3.449
		c0.053-1.124-0.141-2.131-0.482-2.794c0-0.001-0.051-0.077-0.049-0.078c0.193-0.158,0.279-0.274,0.549-0.313l0.221-0.054
		c0.006-0.002,0.082-0.018,0.328-0.206c0.127-0.098,0.197-0.131,0.313-0.289l0.115-0.093l0.691,0.231l0,0l0,0l0.012,0.004v-0.002
		c0.275,0.077,0.629-0.337,0.797-0.94c0.166-0.6,0.084-1.161-0.182-1.273c-0.006-0.002-0.088-0.025-0.088-0.025l-3.107-1.04
		c0-0.137,0-0.311,0-0.38c0-0.239-0.336-0.435-0.752-0.435c-0.348,0-0.637,0.136-0.723,0.32l-3.506-1.173
		c0.912-1.277,1.752-2.67,2.516-4.174c0.625-0.287,0.973,0.141,1.139,0.477c-0.109,0.405-0.189,0.728-0.189,0.728
		c-0.063,0.13-0.008,0.286,0.125,0.351c0.133,0.063,0.289,0.011,0.352-0.118c0,0,1.021-1.285,1.287-1.833
		c0.268-0.547,0.613-2.062,0.613-2.062c0.061-0.129,0.006-0.285-0.127-0.351c-0.131-0.063-0.289-0.011-0.352,0.119
		c0,0-0.824,1.007-1.164,1.595c-0.514,0.048-0.789-0.232-0.928-0.479c2.438-5.393,3.973-11.991,4.455-19.302l1.123-0.014
		c0.152,0.769,0.463,1.843,0.463,1.843c0.012,0.153,0.146,0.269,0.303,0.258c0.158-0.011,0.275-0.143,0.266-0.297
		C150.885,85.432,151.146,83.689,151.104,83.037z M77.205,27.246c2.82-2.268,5.953-3.806,9.313-4.57
		c1.061-0.241,2.141-0.401,3.23-0.483c0.012,0.144,0.055,0.521,0.176,0.861c-0.748,0.486-1.395,0.932-1.816,1.229
		c-0.051,0.021-0.102,0.041-0.152,0.062c-0.398-0.133-1.158-0.138-2.613,0.312c-1.482,0.455-2.227,1.181-2.598,1.819
		c-2.77,1.158-5.416,2.298-7.426,3.171c-0.041-0.191-0.088-0.387-0.139-0.585C75.834,28.416,76.506,27.807,77.205,27.246z
		 M76.525,148.419c-0.23-0.023-0.432,0.021-0.578,0.144l-0.002-0.006l-1.822,1.831l-4.965-35.488
		c2.055,1.321,4.182,2.396,6.357,3.195c-0.074,0.045-0.133,0.113-0.158,0.2l-0.217,0.707c-0.635-0.091-1.443-0.148-1.443-0.148
		c-0.119-0.036-0.279,0.037-0.359,0.164s-0.047,0.262,0.072,0.298c0,0,1.148,0.728,1.654,0.884c0.506,0.158,1.938,0.235,1.938,0.235
		c0.119,0.037,0.279-0.036,0.359-0.162c0.08-0.129,0.047-0.263-0.072-0.301c0,0-0.906-0.595-1.441-0.81l0.117-0.388l2.012,0.104
		c1.611,0.432,3.238,0.712,4.873,0.83c1.514,0.27,3.029,0.41,4.537,0.41c0.814,0,1.629-0.043,2.439-0.124
		c0.338,0.168,0.674,0.326,1.012,0.482c0.031,0.335,0.572,0.67,0.572,0.67c1.238,0.53,2.549,0.874,2.549,0.874
		c0.289,0.094,0.584,0.087,0.873-0.007c0.73,0.227,1.465,0.425,2.199,0.595c0.137,0.263,0.574,0.461,0.574,0.461
		c1.201,0.341,2.447,0.502,2.447,0.502c0.402,0.075,0.791-0.043,1.127-0.317c0.125,0.011,0.25,0.014,0.377,0.022L76.525,148.419z
		 M105.955,118.857c-0.857,0.102-1.723,0.153-2.588,0.153c-0.645,0-1.289-0.028-1.936-0.083c-0.188-0.144-0.336-0.191-0.336-0.191
		l-0.672-0.101c2.004-0.155,4.154-0.333,6.275-0.526L105.955,118.857z"/>
	<g>
		<path fill="#FFFFFF" d="M101.311,173.457c-0.191,0.103-0.367,0.181-0.496,0.231c-0.064,0.025-0.115,0.045-0.152,0.058
			l-0.041,0.014l-0.014,0.005l-0.084,0.026v0.75c0,0.007-0.002,0.035-0.016,0.069c-0.016,0.033-0.039,0.07-0.082,0.104
			c-0.002,0.002-0.025,0.019-0.061,0.04c-0.26,0.164-1.199,0.733-2.072,1.26c-0.436,0.263-0.857,0.516-1.168,0.704
			c-0.254,0.152-0.434,0.26-0.492,0.295c-0.127,0.018-0.24,0.026-0.338,0.026c-0.348-0.001-0.525-0.096-0.623-0.205
			c-0.1-0.109-0.131-0.26-0.131-0.397c0-0.081,0.012-0.156,0.021-0.21c0.006-0.026,0.012-0.049,0.016-0.063l0.006-0.017v-0.003
			l1.16-3.237l-0.025-0.048c-0.416-0.763-0.557-1.333-0.557-1.753c0.002-0.505,0.199-0.795,0.395-0.973
			c0.068-0.059,0.129-0.101,0.189-0.135l-0.236-0.135c-0.037,0.027-0.074,0.057-0.111,0.089c-0.24,0.212-0.479,0.582-0.479,1.153
			c0,0.464,0.154,1.058,0.563,1.819l-1.127,3.142v0.001c-0.002,0.008-0.055,0.164-0.055,0.369c0,0.172,0.037,0.385,0.191,0.558
			s0.414,0.286,0.803,0.285c0.119-0.001,0.25-0.011,0.396-0.032l0.023-0.003l0.021-0.013c0,0,0.918-0.552,1.855-1.117
			c0.471-0.284,0.943-0.569,1.309-0.793c0.184-0.111,0.338-0.206,0.453-0.277c0.059-0.036,0.105-0.064,0.141-0.087
			c0.037-0.023,0.059-0.037,0.076-0.05c0.096-0.071,0.146-0.162,0.17-0.233s0.025-0.123,0.025-0.133v-0.576
			c0.125-0.045,0.373-0.142,0.658-0.296c0.252-0.137,0.533-0.316,0.771-0.544L101.975,173
			C101.77,173.183,101.531,173.339,101.311,173.457z"/>
		<path fill="#FFFFFF" d="M99.141,172.724c0.512,0,0.979-0.118,1.322-0.317c0.078-0.044,0.152-0.096,0.217-0.15l-0.168-0.098
			c-0.311,0.229-0.807,0.387-1.371,0.385c-0.484,0.001-0.922-0.113-1.232-0.292c-0.154-0.089-0.277-0.194-0.357-0.307
			c-0.084-0.111-0.125-0.229-0.125-0.353c0-0.121,0.041-0.238,0.125-0.352c0.121-0.169,0.338-0.32,0.615-0.428l-0.191-0.108
			c-0.051,0.024-0.107,0.046-0.154,0.073c-0.174,0.1-0.314,0.219-0.416,0.356c-0.1,0.136-0.158,0.293-0.158,0.458
			c0,0.166,0.059,0.322,0.158,0.459C97.709,172.461,98.371,172.722,99.141,172.724z"/>
		<path fill="#FFFFFF" d="M147.77,113.372c-0.094,0.119-0.199,0.219-0.303,0.298c-0.113,0.088-0.221,0.15-0.299,0.192
			c-0.039,0.02-0.07,0.035-0.094,0.045l-0.025,0.011l-0.002,0.001c-0.379,0.06-0.68,0.282-0.9,0.484
			c-0.111,0.103-0.201,0.201-0.27,0.272c-0.035,0.034-0.061,0.062-0.08,0.079c-0.014-0.008-0.029-0.015-0.047-0.024
			c-0.154-0.076-0.488-0.229-0.846-0.364c-0.357-0.136-0.732-0.254-0.992-0.256c-0.066,0-0.127,0.008-0.182,0.03
			c-0.117,0.051-0.215,0.143-0.299,0.246c-0.102,0.123-0.186,0.27-0.25,0.4c0.018-0.121,0.063-0.284,0.109-0.425
			c0.029-0.096,0.061-0.185,0.084-0.248c0.021-0.064,0.037-0.104,0.037-0.104l0.004-0.048c-0.031-0.161-0.045-0.312-0.045-0.453
			c0-0.52,0.188-0.909,0.377-1.172c0.072-0.104,0.143-0.18,0.205-0.242l-0.189-0.064c-0.053,0.058-0.107,0.124-0.164,0.2
			c-0.203,0.286-0.408,0.715-0.408,1.278c0,0.146,0.014,0.298,0.045,0.459c-0.02,0.05-0.068,0.183-0.117,0.339
			c-0.063,0.2-0.129,0.43-0.131,0.591l0.004,0.047c0.027,0.247,0.027,0.247,0.027,0.247c0.006,0.042,0.039,0.074,0.08,0.08
			c0.041,0.004,0.082-0.021,0.094-0.061l0.014-0.032c0.027-0.073,0.104-0.265,0.211-0.452c0.107-0.187,0.252-0.365,0.383-0.42
			c0.021-0.009,0.061-0.016,0.111-0.016c0.117,0,0.291,0.034,0.482,0.092c0.287,0.083,0.611,0.214,0.873,0.325
			c0.131,0.057,0.242,0.107,0.328,0.148c0.041,0.021,0.076,0.037,0.102,0.051l0.031,0.015l0.008,0.005l0.002,0.002l0.061,0.018
			c0.033-0.002,0.053-0.012,0.068-0.021c0.031-0.019,0.055-0.041,0.084-0.069c0.1-0.097,0.244-0.266,0.438-0.424
			c0.193-0.156,0.43-0.299,0.699-0.338l0.02-0.005c0.004-0.002,0.225-0.088,0.469-0.275c0.127-0.098,0.26-0.225,0.375-0.381
			L147.77,113.372z"/>
		<path fill="#FFFFFF" d="M146.074,113.139c-0.207,0.119-0.498,0.195-0.822,0.195c-0.322,0-0.613-0.076-0.82-0.195
			c-0.207-0.12-0.322-0.278-0.322-0.439c0-0.162,0.115-0.319,0.322-0.438c0.002-0.001,0.002-0.001,0.002-0.001l-0.146-0.049
			c-0.182,0.127-0.297,0.296-0.297,0.488c0,0.223,0.152,0.412,0.381,0.544c0.23,0.131,0.539,0.211,0.881,0.212
			c0.342-0.001,0.652-0.081,0.883-0.212c0.141-0.081,0.252-0.186,0.318-0.304l-0.121-0.041
			C146.279,112.986,146.195,113.068,146.074,113.139z"/>
		<path fill="#FFFFFF" d="M94.182,20.972c-0.109,0.095-0.094,0.245,0.031,0.336c0.125,0.092,0.316,0.091,0.424-0.006
			c0,0,1.434-0.763,1.896-1.162c0.461-0.402,1.381-1.689,1.381-1.689c0.107-0.095,0.094-0.245-0.031-0.337
			c-0.127-0.091-0.316-0.089-0.426,0.005c0,0-1.516,0.835-1.975,1.235C95.021,19.755,94.182,20.972,94.182,20.972z"/>
		<path fill="#FFFFFF" d="M84.438,42.362c1.398-7.51,4.049-13.909,7.746-18.494c-0.254,0.061-0.521,0.128-0.795,0.199
			c-4.381,4.435-7.484,11.33-9,19.669C82.977,43.271,83.732,42.784,84.438,42.362z"/>
		<path fill="#FFFFFF" d="M87.701,42.027c-0.203-0.404-0.607-0.58-1.102-0.405c0,0-4.379,2.284-4.826,3.34l-0.539,0.186
			c-0.443-0.689-2.057-0.764-3.932-0.118c-2.148,0.741-3.822,2.15-3.738,3.147s1.896,1.205,4.047,0.464
			c1.928-0.664,3.467-1.864,3.705-2.824l0.994-0.343c1.367,0.208,4.709-0.438,4.709-0.438c0.168-0.043,0.297-0.103,0.402-0.17
			c-0.02-0.566-0.023-1.179,0.02-1.563C87.479,42.995,87.582,42.517,87.701,42.027z"/>
		<path fill="#FFFFFF" d="M82.975,45.924c-0.234,0-0.445-0.011-0.623-0.032l-0.33,0.114c-1.166,8.14-0.879,17.496,1.119,27.201
			c0.373-0.309,0.848-0.643,1.441-1.018c0.135-0.087,0.273-0.171,0.408-0.254c-1.826-9.239-2.119-18.155-1.104-26.052
			C83.568,45.908,83.258,45.924,82.975,45.924z"/>
		<path fill="#FFFFFF" d="M88.211,72.416c-0.164-0.762-0.348-1.382-0.943-1.229c0,0-3.918,1.987-4.588,3.176l-0.658,0.17
			c-0.58-0.718-2.287-0.931-4.146-0.453c-2.133,0.55-3.654,1.799-3.4,2.791c0.256,0.992,2.191,1.353,4.324,0.803
			c1.914-0.491,3.33-1.546,3.42-2.474l0.602-0.154c1.076,0.711,5.408,0.395,5.408,0.395c0.619-0.159,0.555-0.713,0.367-1.437
			c-0.109-0.286-0.199-0.552-0.248-0.756C88.295,73.039,88.25,72.742,88.211,72.416z"/>
		<path fill="#FFFFFF" d="M83.713,75.81c2.186,9.248,5.668,17.536,9.91,24.271c0.232,0.123,0.471,0.24,0.566,0.24
			c0.459-0.022,1.045-0.22,1.531-0.49c-4.186-6.686-7.627-14.816-9.84-23.864C84.941,75.958,84.24,75.9,83.713,75.81z"/>
		<path fill="#FFFFFF" d="M116.314,117.915c-6.768-2.03-13.418-7.598-18.963-15.607c-0.74,0.013-1.457,0.068-2.139,0.175
			C101.373,111.328,108.887,117.014,116.314,117.915z"/>
		<path fill="#FFFFFF" d="M100.727,102.194c-0.17-0.207-0.32-0.402-0.424-0.561c-0.463-0.703-1.273-2.605-1.387-2.877
			c-0.035-0.06-0.061-0.124-0.078-0.188c-0.688,0.139-1.563,0.439-2.266,1.101c-0.582,0.55-1.623,0.978-2.365,1.013
			c-0.74,0.035-2.633-2.093-5.736-0.692c-1.016,0.478-2.166,1.284-1.926,2.809c0.098,0.571,0.488,0.945,1.199,1.227
			c2.467,0.825,6.395-1.703,6.682-1.765C96.832,101.746,99.199,101.946,100.727,102.194z"/>
		<path fill="#FFFFFF" d="M51.561,56.658c-0.316,0.463-0.869,0.913-1.416,1.285c-1.467,7.156-1.459,15.17,0.307,23.354
			c0.381,0.127,0.738,0.293,0.996,0.513l0.59-0.151c-2.012-8.803-2.018-17.427-0.354-25.026L51.561,56.658z"/>
		<path fill="#FFFFFF" d="M87.113,119.356c-0.688,0.022-1.57,0.051-2.484,0.079c1.471,0.182,2.945,0.235,4.422,0.162
			c-0.109-0.058-0.219-0.117-0.328-0.175C88.186,119.417,87.648,119.398,87.113,119.356z"/>
		<path fill="#FFFFFF" d="M88.445,46.166c0,0,0.611-2.036,0.707-2.857c0.096-0.823-0.035-2.988-0.035-2.988
			c0.021-0.193-0.086-0.344-0.244-0.338c-0.156,0.008-0.303,0.171-0.324,0.365c0,0-0.631,2.18-0.725,3
			c-0.094,0.821,0.051,2.843,0.051,2.843c-0.021,0.193,0.088,0.345,0.244,0.338C88.277,46.521,88.424,46.359,88.445,46.166z"/>
		<path fill="#FFFFFF" d="M90.168,72.824c-0.195-0.8-1.123-2.825-1.123-2.825c-0.047-0.188-0.221-0.308-0.389-0.267
			c-0.168,0.042-0.266,0.229-0.221,0.415c0,0,0.111,2.205,0.307,3.004c0.197,0.799,1.09,2.684,1.09,2.684
			c0.045,0.188,0.221,0.308,0.389,0.267c0.168-0.04,0.266-0.227,0.219-0.416C90.439,75.686,90.365,73.625,90.168,72.824z"/>
		<path fill="#FFFFFF" d="M102.643,103.679c0.111,0.17,0.318,0.23,0.465,0.135c0.143-0.094,0.17-0.309,0.059-0.478
			c0,0-0.809-1.993-1.281-2.714c-0.471-0.719-2.074-2.4-2.074-2.4c-0.111-0.169-0.318-0.23-0.463-0.134
			c-0.145,0.094-0.172,0.309-0.061,0.478c0,0,0.893,2.121,1.363,2.839C101.121,102.124,102.643,103.679,102.643,103.679z"/>
		<path fill="#FFFFFF" d="M144.283,60.762c-5.932-26.93-23.061-46.049-38.26-42.7c-5.402,1.188-9.83,5.058-13.031,10.757
			c-1.557,3.259-2.768,6.984-3.605,11.056c0.086,0.127,0.127,0.286,0.117,0.452c0.016,0.27,0.123,2.223,0.031,3.027
			c-0.094,0.802-0.635,2.633-0.713,2.895c-0.047,0.284-0.23,0.518-0.467,0.615c-0.68,7.277-0.279,15.33,1.359,23.641
			c0.295,0.676,0.719,1.689,0.85,2.223c0.17,0.689,0.25,2.202,0.273,2.746c2.17,8.498,5.422,16.161,9.35,22.54
			c0.328,0.349,1.613,1.722,2.047,2.381c0.34,0.519,0.828,1.622,1.105,2.274c3.254,4.36,6.844,7.901,10.586,10.413
			c0.764,0.432,1.533,0.814,2.305,1.154c0.6,0.091,1.334,0.222,1.715,0.356c0.383,0.133,0.996,0.476,1.486,0.765
			c2.703,0.709,5.418,0.815,8.072,0.23C142.703,112.238,150.215,87.693,144.283,60.762z"/>
		<path fill="#FFFFFF" d="M119.984,116.132c0,0-1.498-0.957-2.162-1.189c-0.664-0.233-2.564-0.468-2.564-0.468
			c-0.156-0.055-0.328,0.029-0.385,0.188c-0.055,0.159,0.027,0.334,0.184,0.389c0,0,1.613,0.997,2.277,1.229
			c0.662,0.234,2.447,0.427,2.447,0.427c0.156,0.056,0.328-0.03,0.385-0.188C120.223,116.359,120.139,116.186,119.984,116.132z"/>
		<path fill="#FFFFFF" d="M52.029,55.15c2.354-9.34,7.281-16.984,14.1-21.27c0.074-0.13,0.152-0.256,0.227-0.384
			c-7.402,4.007-12.811,11.721-15.453,21.293c0.256,0.126,0.484,0.276,0.65,0.46L52.029,55.15z"/>
		<path fill="#FFFFFF" d="M48.486,58.497c0,0,2.297-1.151,2.855-2.162l2.748-0.567c0.354,0.74,1.979,1.016,3.965,0.606
			c0.549-0.114,1.061-0.27,1.523-0.452c0.102-1.13,0.234-2.249,0.393-3.355c-0.508-0.008-1.092,0.049-1.736,0.182
			c-2.041,0.421-3.764,1.422-4.139,2.347l-2.699,0.556c-0.428-0.825-2.715-1.051-2.715-1.051c-0.541,0.111-1.021,1.073-1.074,2.15
			C47.553,57.827,47.947,58.609,48.486,58.497z"/>
		<path fill="#FFFFFF" d="M54.07,82.228c0.578,0.719,2.285,0.931,4.145,0.453c1.77-0.455,3.115-1.393,3.377-2.265
			c-0.078-0.318-0.156-0.637-0.232-0.956c-0.637-0.653-2.283-0.833-4.068-0.373c-1.914,0.492-3.33,1.547-3.42,2.475l-2.529,0.649
			c-0.68-0.801-3.035-0.939-3.035-0.939c-0.504,0.13-0.691,1.101-0.418,2.167c0.275,1.067,0.906,1.827,1.414,1.697
			c0,0,1.941-1.225,2.193-2.245L54.07,82.228z"/>
		<path fill="#FFFFFF" d="M95.707,18.617c-0.77-0.121-1.543-0.21-2.316-0.266c0.166,0.339,0.334,0.813,0.449,1.474
			C94.67,19.188,95.326,18.812,95.707,18.617z"/>
		<path fill="#FFFFFF" d="M73.709,26.453c0.609,0.355,1.031,1.192,1.316,2.081c0.605-0.589,1.232-1.145,1.877-1.664
			c2.828-2.274,6.006-3.867,9.508-4.663c1.547-0.352,3.102-0.532,4.66-0.557c-0.031-1.268-0.182-2.122-0.379-2.685
			c-0.104-0.295-0.215-0.509-0.328-0.665c-1.57,0.063-3.141,0.266-4.699,0.619c-4.025,0.915-7.684,2.757-10.875,5.325
			c-0.775,0.625-1.521,1.296-2.242,2.005c0.047-0.002,0.094-0.004,0.141-0.004C73.104,26.246,73.445,26.314,73.709,26.453z"/>
		<path fill="#FFFFFF" d="M61.734,46.146c0.498-0.174,1.691-0.411,3.381,0.389c1.078-4.019,2.578-7.697,4.445-10.911
			c1.057-1.819,2.229-3.489,3.504-4.991c-0.246-0.899-0.563-1.755-0.918-2.064c-0.25-0.217-0.561-0.327-0.924-0.327
			c-0.236,0-0.455,0.046-0.633,0.099c-2.826,3.299-5.137,7.27-6.889,11.718C62.936,41.999,62.281,44.035,61.734,46.146z"/>
		<path fill="#FFFFFF" d="M61,49.353c-0.803,4.034-1.223,8.31-1.223,12.738c0,5.358,0.611,10.943,1.895,16.595
			c0.105,0.465,0.217,0.926,0.33,1.385c0.789-0.366,2.125-0.635,3.271-0.813c-0.107-0.438-0.215-0.876-0.314-1.319
			c-1.23-5.408-1.813-10.744-1.813-15.848c0-4.411,0.438-8.647,1.266-12.604C63.096,49.069,61.533,49.266,61,49.353z"/>
		<path fill="#FFFFFF" d="M78.592,106.092c-0.078-0.091-0.158-0.181-0.234-0.271c-0.609,0.644-1.535,1.368-2.871,1.823
			c0.088,0.105,0.176,0.209,0.264,0.314C76.35,107.759,77.641,107.226,78.592,106.092z"/>
		<path fill="#FFFFFF" d="M91.42,116.488c-3.916-1.964-7.701-4.866-11.162-8.538c-0.531,0.665-1.42,1.621-2.539,2.229
			c0.029,0.031,0.059,0.063,0.088,0.093c3.695,3.921,7.783,7.061,12.102,9.228c0.908,0.457,1.828,0.867,2.754,1.234
			c0.352-0.273,0.662-0.714,0.912-1.206c0.35-0.693,0.441-1.413,0.293-1.94C93.047,117.26,92.23,116.895,91.42,116.488z"/>
		<path fill="#FFFFFF" d="M95.418,121.685c1.113,0.328,2.236,0.585,3.365,0.778c0.256-0.291,0.465-0.699,0.619-1.141
			c0.32-0.9,0.213-1.792-0.219-2.207c-0.305-0.055-0.611-0.114-0.918-0.18c-0.021,0.007-0.043,0.012-0.064,0.021l0.041-0.025
			c-0.607-0.132-1.211-0.285-1.816-0.461c0.258,0.535,0.201,1.372-0.205,2.173C95.996,121.088,95.721,121.438,95.418,121.685z"/>
		<path fill="#FFFFFF" d="M111.998,117.775c0.486,0.301,1.039,0.969,1.248,2.45c0.016,0.246,0.006,0.477-0.025,0.69
			c1.592-0.652,3.113-1.455,4.553-2.4c-2.033-0.002-4.182-0.672-5.135-1.01C112.428,117.6,112.211,117.688,111.998,117.775z"/>
		<path fill="#FFFFFF" d="M109.549,118.632c-0.383,0.108-0.771,0.209-1.162,0.299c-1.666,0.379-3.34,0.561-5.02,0.561
			c-0.498,0-0.994-0.02-1.49-0.05c0.277,0.487,0.445,1.292,0.096,2.594c-0.104,0.292-0.234,0.547-0.383,0.764
			c0.592,0.04,1.184,0.063,1.777,0.063c1.924,0,3.854-0.211,5.766-0.645c0.453-0.104,0.9-0.221,1.344-0.348
			c0.123-0.368,0.156-0.826,0.127-1.294C110.545,119.627,110.104,118.851,109.549,118.632z"/>
		<ellipse fill="#FFFFFF" cx="145.23" cy="109.978" rx="0.553" ry="0.319"/>
		<path fill="#FFFFFF" d="M54.068,145.507l-0.184-0.105c-0.016,0.008-0.033,0.014-0.049,0.021c-0.172,0.087-0.313,0.189-0.414,0.311
			c-0.102,0.12-0.162,0.26-0.162,0.409c0,0.148,0.061,0.288,0.162,0.408c0.305,0.357,0.963,0.583,1.729,0.585
			c0.5,0,0.953-0.101,1.293-0.266l-0.182-0.104c-0.299,0.124-0.686,0.204-1.111,0.202c-0.488,0-0.928-0.101-1.24-0.258
			c-0.154-0.078-0.277-0.171-0.359-0.268c-0.082-0.099-0.121-0.198-0.121-0.3c0-0.104,0.039-0.203,0.121-0.301
			C53.656,145.712,53.84,145.597,54.068,145.507z"/>
		<path fill="#FFFFFF" d="M74.348,151.984c0.016,0.109,0.043,0.287,0.049,0.345c0.061,0.458-0.643,0.925-1.57,1.045
			c-0.926,0.12-1.725-0.153-1.783-0.609c-0.008-0.058-0.035-0.249-0.051-0.356c-0.186,0.171-0.283,0.358-0.26,0.544
			c0.066,0.506,1.012,0.802,2.113,0.659c1.1-0.143,1.939-0.669,1.873-1.177C74.697,152.255,74.561,152.102,74.348,151.984z"/>
		<path fill="#FFFFFF" d="M78.736,155.527c-0.439-0.26-1.254,0.305-1.818,1.261s-0.664,1.942-0.223,2.201
			c0.193,0.115,0.459,0.069,0.746-0.1c-0.137-0.078-0.26-0.149-0.332-0.192c-0.314-0.185-0.242-0.885,0.158-1.565
			c0.4-0.68,0.98-1.081,1.293-0.896c0.088,0.053,0.254,0.148,0.426,0.248C79.057,156.03,78.979,155.67,78.736,155.527z"/>
		
			<ellipse transform="matrix(0.5018 -0.865 0.865 0.5018 -97.3882 175.7293)" fill="#FFFFFF" cx="103.854" cy="172.406" rx="1.135" ry="0.567"/>
		<ellipse fill="#FFFFFF" cx="99.14" cy="167.707" rx="0.69" ry="0.398"/>
		<ellipse fill="#FFFFFF" cx="54.795" cy="142.495" rx="0.689" ry="0.396"/>
		
			<ellipse transform="matrix(-0.8306 0.5569 -0.5569 -0.8306 166.9698 148.1512)" fill="#FFFFFF" cx="60.951" cy="99.472" rx="1.766" ry="2.849"/>
		<path fill="#FFFFFF" d="M60.5,95.749c-0.146,0.099-0.268,0.226-0.367,0.372c0.457,0.03,0.941,0.211,1.41,0.518
			c0.623-0.281,1.572,0.19,2.195,1.12c0.666,0.993,0.707,2.134,0.092,2.547c-0.008,0.005-0.016,0.008-0.023,0.013
			c0.01,0.104,0.014,0.205,0.014,0.305c0,0.399-0.078,0.766-0.236,1.074c0.273-0.012,0.527-0.085,0.746-0.231
			c0.979-0.655,0.914-2.467-0.145-4.045C63.129,95.843,61.479,95.094,60.5,95.749z"/>
		<path fill="#FFFFFF" d="M68.813,98.467c-0.027,0.02-0.135,0.104-0.223,0.173c-0.145,0.114-0.293,0.232-0.375,0.288
			c-0.328,0.219-0.898,0.65-1.461,1.074c1.338,0.77,2.707,0.923,3.688,0.265c1.707-1.144,1.596-4.304-0.252-7.058
			c-1.846-2.755-4.725-4.06-6.432-2.916c-0.986,0.662-1.361,1.998-1.15,3.538c0.561-0.423,1.119-0.845,1.469-1.078
			c0.029-0.019,0.135-0.104,0.221-0.171c0.145-0.116,0.295-0.234,0.379-0.288c0.279-0.189,0.609-0.286,0.977-0.286
			c1.051,0,2.264,0.798,3.092,2.032c0.539,0.805,0.852,1.696,0.883,2.512C69.656,97.415,69.367,98.095,68.813,98.467z"/>
		<path fill="#FFFFFF" d="M57.902,147.753c0.023,0.037,0.039,0.069,0.049,0.092l0.002,0.009c-0.014,0.01-0.033,0.021-0.059,0.032
			c-0.084,0.041-0.223,0.077-0.377,0.107c-0.234,0.046-0.506,0.075-0.719,0.095c-0.105,0.009-0.197,0.016-0.262,0.02
			c-0.064,0.003-0.102,0.005-0.102,0.005l-0.029,0.001l-0.025,0.016c-0.002,0.001-1.438,0.849-2.941,1.83
			c-0.43,0.279-0.742,0.37-0.961,0.37c-0.262-0.002-0.404-0.118-0.498-0.244c-0.045-0.063-0.076-0.126-0.096-0.175
			c-0.008-0.022-0.021-0.105-0.021-0.145c0-0.364,0-1.684,0-2.576c0-0.228,0.094-0.464,0.246-0.691
			c0.225-0.337,0.574-0.649,0.867-0.871c0.146-0.112,0.277-0.201,0.373-0.264c0.047-0.029,0.086-0.053,0.111-0.069
			c0.02-0.012,0.029-0.019,0.035-0.021l0.09-0.043l-0.248-0.143c-0.115,0.07-0.467,0.291-0.826,0.608
			c-0.217,0.192-0.436,0.419-0.604,0.671c-0.166,0.25-0.285,0.529-0.285,0.823c0,0.927,0,2.317,0,2.616
			c0,0.038,0.008,0.105,0.018,0.135c0.02,0.063,0.063,0.173,0.146,0.287c0.121,0.169,0.348,0.344,0.691,0.342
			c0.285-0.001,0.639-0.113,1.092-0.408c0.75-0.488,1.482-0.945,2.029-1.279c0.271-0.167,0.498-0.304,0.656-0.398
			c0.109-0.065,0.186-0.111,0.223-0.132c0.09-0.005,0.395-0.023,0.721-0.065c0.193-0.024,0.396-0.057,0.566-0.103
			c0.086-0.022,0.162-0.048,0.23-0.078c0.068-0.032,0.127-0.067,0.172-0.127c0.025-0.034,0.033-0.07,0.033-0.101l-0.346-0.197
			C57.873,147.705,57.891,147.732,57.902,147.753z"/>
		<path fill="#FFFFFF" d="M71.752,99.865c-0.047,0.032-0.234,0.18-0.385,0.299c-0.254,0.2-0.516,0.406-0.658,0.504
			c-0.047,0.031-0.096,0.059-0.143,0.088c0.842,1.366,1.723,2.686,2.639,3.946c0.615,0.001,2.068-0.14,3.182-1.365
			c-0.355-0.475-0.707-0.953-1.051-1.445c-0.826-1.18-1.619-2.413-2.379-3.69C72.727,98.912,72.322,99.483,71.752,99.865z"/>
		<path fill="#FFFFFF" d="M66.238,88.594c0.73,0,1.504,0.225,2.264,0.625c-0.932-2.294-1.764-4.684-2.479-7.159
			c-1.24,0.237-2.65,0.591-3.291,0.756c0.602,2.103,1.283,4.148,2.039,6.133C65.207,88.715,65.699,88.594,66.238,88.594z"/>
		<path fill="#FFFFFF" d="M72.031,103.882c-0.422-0.604-0.832-1.221-1.234-1.847c-0.748-0.257-1.734-0.325-2.764-0.17
			c0.035,0.412,0.061,0.723,0.072,0.826c0.033,0.322-0.172,0.639-0.529,0.895l0.342,2.443c0.412-0.034,0.836-0.104,1.26-0.213
			C70.664,105.431,71.727,104.668,72.031,103.882z"/>
		<path fill="#FFFFFF" d="M64.311,104.571l-2.445,0.634c-0.92-0.855-3.42-1.041-3.42-1.041c-0.496,0.127-0.436,1.146,0.133,2.274
			c0.566,1.127,1.428,1.938,1.924,1.809c0,0,1.709-1.255,1.703-2.325l2.215-0.574L64.311,104.571z"/>
		<path fill="#FFFFFF" d="M61.957,104.79l0.734-0.191c-0.605-0.776-1.195-1.581-1.768-2.409c-0.617-0.333-1.221-0.886-1.703-1.606
			c-0.553-0.825-0.84-1.71-0.855-2.482c-2.557-4.504-4.615-9.57-6-15.062l-0.59,0.152c-0.131,0.317-0.369,0.635-0.646,0.928
			c2.037,7.697,5.422,14.536,9.662,20.108C61.223,104.369,61.641,104.552,61.957,104.79z"/>
		<path fill="#FFFFFF" d="M63.75,105.911l-1.197,0.311c-0.01,0.049-0.025,0.098-0.039,0.146c0.781,0.916,1.588,1.786,2.416,2.619
			l-0.287-2.038C64.342,106.608,64.045,106.263,63.75,105.911z"/>
		<path fill="#FFFFFF" d="M68.816,112.46c3.178,2.503,6.584,4.418,10.098,5.635c-0.01-0.052-0.018-0.099-0.025-0.141
			c-0.018-0.112,0.242-0.277,0.426-0.299c0.049-0.005,0.119-0.011,0.207-0.018c-3.832-1.449-7.525-3.745-10.924-6.739L68.816,112.46
			z"/>
	</g>
</g>
<g id="Orientierungskreise" display="none">
	<g id="Weißer_Kreis_x5F_Violin_9_" display="inline">
		<g>
			<path fill="#4D4D4F" d="M-1122.268,9.917c47.365,0,85.898,38.534,85.898,85.899c0,47.365-38.534,85.898-85.898,85.898
				c-47.365,0-85.899-38.534-85.899-85.898C-1208.167,48.451-1169.633,9.917-1122.268,9.917 M-1122.268,9.69
				c-47.566,0-86.126,38.559-86.126,86.126c0,47.565,38.56,86.125,86.126,86.125s86.125-38.56,86.125-86.125
				C-1036.143,48.249-1074.702,9.69-1122.268,9.69L-1122.268,9.69z"/>
		</g>
	</g>
	<g id="Weißer_Kreis_x5F_Violin_10_" display="inline">
		<g>
			<path fill="#4D4D4F" d="M-1122.268,12.492c45.944,0,83.322,37.378,83.322,83.323c0,45.944-37.378,83.322-83.322,83.322
				c-45.945,0-83.323-37.378-83.323-83.322C-1205.591,49.871-1168.212,12.492-1122.268,12.492 M-1122.268,12.272
				c-46.139,0-83.543,37.402-83.543,83.543c0,46.139,37.404,83.542,83.543,83.542s83.542-37.403,83.542-83.542
				C-1038.726,49.675-1076.128,12.272-1122.268,12.272L-1122.268,12.272z"/>
		</g>
	</g>
	<g id="Weißer_Kreis_x5F_Violin_2_" display="inline">
		<g>
			<path fill="#4D4D4F" d="M-1122.268,232.007c47.365,0,85.898,38.534,85.898,85.899c0,47.365-38.534,85.898-85.898,85.898
				c-47.365,0-85.899-38.534-85.899-85.898C-1208.167,270.542-1169.633,232.007-1122.268,232.007 M-1122.268,231.781
				c-47.566,0-86.126,38.559-86.126,86.126c0,47.565,38.56,86.125,86.126,86.125s86.125-38.56,86.125-86.125
				C-1036.143,270.339-1074.702,231.781-1122.268,231.781L-1122.268,231.781z"/>
		</g>
	</g>
	<g id="Weißer_Kreis_x5F_Violin_1_" display="inline">
		<g>
			<path fill="#4D4D4F" d="M-1122.268,234.583c45.944,0,83.322,37.378,83.322,83.323c0,45.944-37.378,83.322-83.322,83.322
				c-45.945,0-83.323-37.378-83.323-83.322C-1205.591,271.961-1168.212,234.583-1122.268,234.583 M-1122.268,234.363
				c-46.139,0-83.543,37.402-83.543,83.543c0,46.139,37.404,83.542,83.543,83.542s83.542-37.403,83.542-83.542
				C-1038.726,271.765-1076.128,234.363-1122.268,234.363L-1122.268,234.363z"/>
		</g>
	</g>
	<g id="Weißer_Kreis_x5F_Violin_6_" display="inline">
		<g>
			<path fill="#4D4D4F" d="M-1122.268,676.192c47.365,0,85.898,38.534,85.898,85.899c0,47.364-38.534,85.898-85.898,85.898
				c-47.365,0-85.899-38.534-85.899-85.898C-1208.167,714.727-1169.633,676.192-1122.268,676.192 M-1122.268,675.966
				c-47.566,0-86.126,38.559-86.126,86.126c0,47.565,38.56,86.125,86.126,86.125s86.125-38.56,86.125-86.125
				C-1036.143,714.524-1074.702,675.966-1122.268,675.966L-1122.268,675.966z"/>
		</g>
	</g>
	<g id="Weißer_Kreis_x5F_Violin_5_" display="inline">
		<g>
			<path fill="#4D4D4F" d="M-1122.268,678.768c45.944,0,83.322,37.379,83.322,83.323s-37.378,83.322-83.322,83.322
				c-45.945,0-83.323-37.378-83.323-83.322S-1168.212,678.768-1122.268,678.768 M-1122.268,678.548
				c-46.139,0-83.543,37.402-83.543,83.543c0,46.139,37.404,83.542,83.543,83.542s83.542-37.403,83.542-83.542
				C-1038.726,715.95-1076.128,678.548-1122.268,678.548L-1122.268,678.548z"/>
		</g>
	</g>
	<g id="Weißer_Kreis_x5F_Violin_8_" display="inline">
		<g>
			<path fill="#4D4D4F" d="M-1122.268,898.285c47.365,0,85.898,38.534,85.898,85.899c0,47.364-38.534,85.898-85.898,85.898
				c-47.365,0-85.899-38.534-85.899-85.898C-1208.167,936.819-1169.633,898.285-1122.268,898.285 M-1122.268,898.059
				c-47.566,0-86.126,38.559-86.126,86.126c0,47.565,38.56,86.125,86.126,86.125s86.125-38.56,86.125-86.125
				C-1036.143,936.617-1074.702,898.059-1122.268,898.059L-1122.268,898.059z"/>
		</g>
	</g>
	<g id="Weißer_Kreis_x5F_Violin_7_" display="inline">
		<g>
			<path fill="#4D4D4F" d="M-1122.268,900.86c45.944,0,83.322,37.379,83.322,83.323s-37.378,83.322-83.322,83.322
				c-45.945,0-83.323-37.378-83.323-83.322S-1168.212,900.86-1122.268,900.86 M-1122.268,900.641
				c-46.139,0-83.543,37.402-83.543,83.543c0,46.139,37.404,83.542,83.543,83.542s83.542-37.403,83.542-83.542
				C-1038.726,938.043-1076.128,900.641-1122.268,900.641L-1122.268,900.641z"/>
		</g>
	</g>
	<g id="Weißer_Kreis_x5F_Violin_4_" display="inline">
		<g>
			<path fill="#4D4D4F" d="M-1122.268,454.101c47.365,0,85.898,38.534,85.898,85.899c0,47.364-38.534,85.898-85.898,85.898
				c-47.365,0-85.899-38.534-85.899-85.898C-1208.167,492.635-1169.633,454.101-1122.268,454.101 M-1122.268,453.874
				c-47.566,0-86.126,38.559-86.126,86.126c0,47.565,38.56,86.125,86.126,86.125s86.125-38.56,86.125-86.125
				C-1036.143,492.433-1074.702,453.874-1122.268,453.874L-1122.268,453.874z"/>
		</g>
	</g>
	<g id="Weißer_Kreis_x5F_Violin_3_" display="inline">
		<g>
			<path fill="#4D4D4F" d="M-1122.267,456.676c45.944,0,83.322,37.378,83.322,83.323c0,45.944-37.378,83.323-83.322,83.323
				c-45.945,0-83.323-37.379-83.323-83.323C-1205.59,494.055-1168.212,456.676-1122.267,456.676 M-1122.267,456.457
				c-46.139,0-83.543,37.402-83.543,83.543c0,46.139,37.404,83.542,83.543,83.542s83.542-37.403,83.542-83.542
				C-1038.725,493.859-1076.128,456.457-1122.267,456.457L-1122.267,456.457z"/>
		</g>
	</g>
</g>
</svg>
