<?xml version="1.0" encoding="utf-8"?>
<!-- Generator: Adobe Illustrator 15.0.0, SVG Export Plug-In . SVG Version: 6.00 Build 0)  -->
<!DOCTYPE svg PUBLIC "-//W3C//DTD SVG 1.1//EN" "http://www.w3.org/Graphics/SVG/1.1/DTD/svg11.dtd">
<svg version="1.1" id="Ebene_1" xmlns="http://www.w3.org/2000/svg" xmlns:xlink="http://www.w3.org/1999/xlink" x="0px" y="0px"
	 width="190px" height="190px" viewBox="0 0 190 190" enable-background="new 0 0 190 190" xml:space="preserve">
<g id="Orientierungskreise" display="none">
	<g id="Weißer_Kreis_x5F_Violin_9_" display="inline">
		<g>
			<path fill="#4D4D4F" d="M-1122.268,9.917c47.365,0,85.898,38.534,85.898,85.899s-38.534,85.897-85.898,85.897
				c-47.365,0-85.899-38.534-85.899-85.897C-1208.167,48.451-1169.633,9.917-1122.268,9.917 M-1122.268,9.69
				c-47.566,0-86.126,38.559-86.126,86.126c0,47.564,38.56,86.125,86.126,86.125s86.125-38.561,86.125-86.125
				C-1036.143,48.249-1074.702,9.69-1122.268,9.69L-1122.268,9.69z"/>
		</g>
	</g>
	<g id="Weißer_Kreis_x5F_Violin_10_" display="inline">
		<g>
			<path fill="#4D4D4F" d="M-1122.268,12.492c45.944,0,83.322,37.378,83.322,83.322s-37.378,83.322-83.322,83.322
				c-45.945,0-83.323-37.378-83.323-83.322C-1205.591,49.871-1168.212,12.492-1122.268,12.492 M-1122.268,12.272
				c-46.139,0-83.543,37.402-83.543,83.542c0,46.14,37.404,83.543,83.543,83.543c46.139,0,83.542-37.403,83.542-83.543
				S-1076.128,12.272-1122.268,12.272L-1122.268,12.272z"/>
		</g>
	</g>
	<g id="Weißer_Kreis_x5F_Violin_2_" display="inline">
		<g>
			<path fill="#4D4D4F" d="M-1122.268,232.007c47.365,0,85.898,38.534,85.898,85.899s-38.534,85.898-85.898,85.898
				c-47.365,0-85.899-38.535-85.899-85.898C-1208.167,270.542-1169.633,232.007-1122.268,232.007 M-1122.268,231.781
				c-47.566,0-86.126,38.559-86.126,86.125s38.56,86.125,86.126,86.125s86.125-38.559,86.125-86.125
				C-1036.143,270.339-1074.702,231.781-1122.268,231.781L-1122.268,231.781z"/>
		</g>
	</g>
	<g id="Weißer_Kreis_x5F_Violin_1_" display="inline">
		<g>
			<path fill="#4D4D4F" d="M-1122.268,234.583c45.944,0,83.322,37.378,83.322,83.323c0,45.943-37.378,83.322-83.322,83.322
				c-45.945,0-83.323-37.379-83.323-83.322C-1205.591,271.961-1168.212,234.583-1122.268,234.583 M-1122.268,234.363
				c-46.139,0-83.543,37.402-83.543,83.543c0,46.139,37.404,83.541,83.543,83.541c46.139,0,83.542-37.402,83.542-83.541
				C-1038.726,271.766-1076.128,234.363-1122.268,234.363L-1122.268,234.363z"/>
		</g>
	</g>
	<g id="Weißer_Kreis_x5F_Violin_6_" display="inline">
		<g>
			<path fill="#4D4D4F" d="M-1122.268,676.191c47.365,0,85.898,38.535,85.898,85.9c0,47.363-38.534,85.896-85.898,85.896
				c-47.365,0-85.899-38.533-85.899-85.896C-1208.167,714.727-1169.633,676.191-1122.268,676.191 M-1122.268,675.967
				c-47.566,0-86.126,38.559-86.126,86.125c0,47.564,38.56,86.125,86.126,86.125s86.125-38.561,86.125-86.125
				C-1036.143,714.523-1074.702,675.967-1122.268,675.967L-1122.268,675.967z"/>
		</g>
	</g>
	<g id="Weißer_Kreis_x5F_Violin_5_" display="inline">
		<g>
			<path fill="#4D4D4F" d="M-1122.268,678.768c45.944,0,83.322,37.379,83.322,83.324c0,45.943-37.378,83.32-83.322,83.32
				c-45.945,0-83.323-37.377-83.323-83.32C-1205.591,716.146-1168.212,678.768-1122.268,678.768 M-1122.268,678.549
				c-46.139,0-83.543,37.4-83.543,83.543c0,46.139,37.404,83.541,83.543,83.541c46.139,0,83.542-37.402,83.542-83.541
				C-1038.726,715.949-1076.128,678.549-1122.268,678.549L-1122.268,678.549z"/>
		</g>
	</g>
	<g id="Weißer_Kreis_x5F_Violin_8_" display="inline">
		<g>
			<path fill="#4D4D4F" d="M-1122.268,898.285c47.365,0,85.898,38.533,85.898,85.898s-38.534,85.898-85.898,85.898
				c-47.365,0-85.899-38.533-85.899-85.898S-1169.633,898.285-1122.268,898.285 M-1122.268,898.059
				c-47.566,0-86.126,38.559-86.126,86.127c0,47.564,38.56,86.125,86.126,86.125s86.125-38.561,86.125-86.125
				C-1036.143,936.617-1074.702,898.059-1122.268,898.059L-1122.268,898.059z"/>
		</g>
	</g>
	<g id="Weißer_Kreis_x5F_Violin_7_" display="inline">
		<g>
			<path fill="#4D4D4F" d="M-1122.268,900.859c45.944,0,83.322,37.379,83.322,83.324c0,45.943-37.378,83.322-83.322,83.322
				c-45.945,0-83.323-37.379-83.323-83.322C-1205.591,938.238-1168.212,900.859-1122.268,900.859 M-1122.268,900.641
				c-46.139,0-83.543,37.402-83.543,83.543c0,46.139,37.404,83.543,83.543,83.543c46.139,0,83.542-37.404,83.542-83.543
				C-1038.726,938.043-1076.128,900.641-1122.268,900.641L-1122.268,900.641z"/>
		</g>
	</g>
	<g id="Weißer_Kreis_x5F_Violin_4_" display="inline">
		<g>
			<path fill="#4D4D4F" d="M-1122.268,454.102c47.365,0,85.898,38.533,85.898,85.898c0,47.363-38.534,85.898-85.898,85.898
				c-47.365,0-85.899-38.535-85.899-85.898C-1208.167,492.635-1169.633,454.102-1122.268,454.102 M-1122.268,453.873
				c-47.566,0-86.126,38.561-86.126,86.127c0,47.564,38.56,86.125,86.126,86.125s86.125-38.561,86.125-86.125
				C-1036.143,492.434-1074.702,453.873-1122.268,453.873L-1122.268,453.873z"/>
		</g>
	</g>
	<g id="Weißer_Kreis_x5F_Violin_3_" display="inline">
		<g>
			<path fill="#4D4D4F" d="M-1122.267,456.676c45.944,0,83.322,37.379,83.322,83.324c0,45.943-37.378,83.322-83.322,83.322
				c-45.945,0-83.323-37.379-83.323-83.322C-1205.59,494.055-1168.212,456.676-1122.267,456.676 M-1122.267,456.457
				c-46.139,0-83.543,37.402-83.543,83.543c0,46.139,37.404,83.543,83.543,83.543c46.139,0,83.542-37.404,83.542-83.543
				C-1038.725,493.859-1076.128,456.457-1122.267,456.457L-1122.267,456.457z"/>
		</g>
	</g>
</g>
<path d="M115.353,127.405c-5.037-3.676-10.861-4.27-13.008-1.326c-1.219,1.67-0.994,4.117,0.348,6.594
	c-1.828,5.689-1.436,14.16-1.139,17.909c-0.096-0.372-0.305-0.74-0.623-1.043c-0.41-0.394-0.939-0.618-1.451-0.618
	c-0.375,0-0.717,0.124-0.973,0.352v-1.42c0-0.061-0.016-0.117-0.041-0.17c0.258-0.098,0.414-0.217,0.414-0.354v-0.989l0.744-0.156
	c0.107-0.023,0.201-0.087,0.264-0.181c0.014-0.021,0.023-0.043,0.033-0.066c0.037-0.063,0.059-0.133,0.059-0.209
	c0-0.23-0.188-0.419-0.42-0.419h-0.68v-10.31c0.092,0.045,0.193,0.07,0.301,0.07c0.389,0,0.705-0.316,0.705-0.704
	c0-0.085-0.021-0.164-0.049-0.241h0.004c0.23,0,0.418-0.188,0.418-0.42c0-0.23-0.188-0.419-0.418-0.419H99.53v-4.882
	c0.119,0.09,0.264,0.146,0.426,0.146c0.387,0,0.703-0.316,0.703-0.703c0-0.255-0.139-0.486-0.355-0.609v-1.262h0.256
	c0.23,0,0.418-0.188,0.418-0.42c0-0.23-0.188-0.42-0.418-0.42h-0.256v-6.08h0.256c0.23,0,0.418-0.189,0.418-0.42
	s-0.188-0.419-0.418-0.419h-0.256v-0.71h0.256c0.23,0,0.418-0.188,0.418-0.42c0-0.23-0.188-0.419-0.418-0.419h-0.256v-7.001
	c0.385-0.004,0.697-0.316,0.697-0.703c0-0.213-0.1-0.413-0.264-0.547v-1.405c0.037,0.013,0.078,0.02,0.119,0.02
	c0.232,0,0.42-0.188,0.42-0.419v-4.615c0.121-0.047,0.215-0.119,0.275-0.216c0.266-0.422-0.164-1.075-0.814-1.638V99.5
	c0.189-0.131,0.305-0.347,0.305-0.579c0-0.32-0.217-0.588-0.51-0.673V85.323c0.426-2.141,0.754-4.627,0.936-7.004
	c0.318-1.434,0.969-3.513,2.221-4.771c0.027,0.125,0.131,0.223,0.264,0.234c0.166,0.013,0.311-0.11,0.322-0.275l0.088-1.085
	c0.012-0.083,0.018-0.162,0.02-0.236l0.416-5.177c0.014-0.164-0.109-0.311-0.273-0.323c-0.168-0.013-0.311,0.109-0.324,0.275
	l-0.359,4.47c-0.146,0.125-1.186,1.025-2.02,2.413c0.111-0.894,0.234-1.597,0.346-2.127c0.006,0.157,0.131,0.286,0.289,0.288
	c0.166,0.004,0.303-0.127,0.307-0.293l0.139-6.518c0.002-0.166-0.129-0.303-0.295-0.306c-0.164-0.004-0.303,0.128-0.305,0.292
	l-0.066,3.131c-0.014,0.003-0.027,0.003-0.043,0.008c-0.215,0.079-1.301,0.799-1.594,7.224c-0.094,2.069-0.273,3.544-0.469,4.589
	c-0.047-0.293-0.158-0.559-0.313-0.775c0-0.238-0.004-0.375-0.018-0.388v-1.354c0.264-0.001,0.479-0.216,0.479-0.479v-6.548
	c0.287-0.41,0.443-0.929,0.443-1.476c0-0.545-0.156-1.065-0.443-1.475v-2.885h0.076c0.127,0,0.25-0.051,0.338-0.141
	c0.092-0.088,0.143-0.213,0.143-0.338V61.45c0.342-0.218,0.555-0.613,0.555-1.051c0-0.674-0.51-1.222-1.133-1.222
	c-0.105,0-0.205,0.015-0.303,0.044l1.178-1.602c0.123-0.165,0.139-0.381,0.049-0.564c-0.094-0.183-0.277-0.295-0.482-0.295h-0.053
	c0.043-0.145,0.064-0.295,0.064-0.445c0-0.67-0.424-1.26-1.057-1.471c-0.078-0.039-0.158-0.068-0.236-0.094
	c0.428-0.221,0.729-0.732,0.729-1.326c0-0.369-0.113-0.714-0.32-0.979c0.197-0.252,0.311-0.578,0.32-0.93
	c0.523-0.057,0.594-1.012,0.594-1.846c0-3.951-0.357-5.539-0.512-6.039l-0.004-0.01l-0.006-0.036v-4.499
	c0-0.265-0.215-0.48-0.479-0.48c-0.061,0-0.121,0.014-0.18,0.039h-0.459v-1.791c0.301-0.271,0.477-0.691,0.477-1.145
	c0-0.569-0.281-1.07-0.697-1.303v-1.248c0.051-0.127,0.08-0.268,0.08-0.416c0-0.146-0.029-0.287-0.08-0.414V19.752
	c0-0.146-0.227-0.26-0.576-0.348c0.023-0.017,0.037-0.034,0.037-0.052c0-0.077,0-0.988,0-1.078c0-0.072-0.199-0.139-0.531-0.193
	c0-0.077,0-0.299,0-0.366c0-0.029-0.023-0.056-0.064-0.083c-0.156-0.746-0.279-1.604-0.541-2.223
	c-0.488-1.152-1.107-2.044-1.898-2.728c-0.457-0.394-0.963-0.703-1.506-0.919c-0.57-0.229-1.184-0.356-1.82-0.377
	c-0.053-0.002-0.107-0.002-0.16-0.002h-0.004c-0.691,0-1.469,0.109-2.131,0.406c-0.889,0.398-1.695,1.037-2.398,1.895
	c-0.654,0.8-1.18,1.74-1.564,2.801l-0.074,0.211h-0.033c-0.146,0-0.238,0.051-0.275,0.152l-0.008,0.026l-0.008,0.02l-0.004,0.014
	c-0.064,0.197-1.564,4.534-2.07,5.562l-0.018,0.035c-0.029,0.079-0.006,0.146,0.031,0.201c-0.18,0.23-0.365,0.426-0.557,0.588
	c-0.244,0.203-0.498,0.359-0.756,0.463c-0.242,0.096-0.482,0.143-0.73,0.144l-0.039-0.001c-0.193-0.004-0.381-0.037-0.572-0.1
	c-0.297-0.101-0.588-0.273-0.867-0.518c-0.152-0.132-0.301-0.287-0.441-0.462c0.098-0.274,0.096-0.507-0.027-0.653
	c-0.127-0.145-0.664-0.859-0.994-1.287c0.084-0.293,0.066-0.541-0.072-0.704c-0.061-0.07-0.469-0.596-0.971-1.244
	c0.016-0.011,0.033-0.019,0.047-0.032c0.078-0.088,0.084-0.219,0.012-0.311c-0.4-0.511-0.5-0.638-0.529-0.672
	c-0.078-0.09-0.229-0.193-0.479-0.212c-0.199-0.257-0.389-0.502-0.557-0.718c0.008-0.006,0.018-0.01,0.023-0.018
	c0.08-0.086,0.086-0.217,0.014-0.31c-0.336-0.431-0.484-0.622-0.52-0.661c-0.084-0.101-0.25-0.22-0.551-0.22
	c-0.041,0-0.086,0.007-0.131,0.012c-0.01-0.011-0.02-0.022-0.031-0.034c-0.27-0.27-0.779-0.029-0.779-0.029l-0.479,0.18
	c0,0-2.906-1.527-3.057-1.588c-0.148-0.059-0.658-0.33-1.197,0s-0.211,0.809-0.211,0.809l2.154,3.563
	c-0.225,0.517-0.127,0.813,0.012,0.975c0.027,0.033,0.193,0.264,0.494,0.682c0.047,0.066,0.119,0.102,0.195,0.102
	c0.043,0,0.09-0.014,0.129-0.039c0.004-0.004,0.01-0.009,0.014-0.012c0.145,0.201,0.307,0.426,0.477,0.661
	c-0.004,0.022-0.012,0.05-0.014,0.072c-0.02,0.253,0.068,0.413,0.145,0.502c0.029,0.034,0.199,0.267,0.504,0.692
	c0.049,0.064,0.121,0.1,0.195,0.1c0.043,0,0.086-0.012,0.123-0.037c0.469,0.652,0.85,1.178,0.918,1.26
	c0.15,0.174,0.418,0.227,0.754,0.172c0.328,0.389,0.902,1.082,1.018,1.215c0.143,0.167,0.424,0.191,0.773,0.098
	c0.416,0.49,0.877,0.91,1.381,1.253c0.449,0.306,0.928,0.544,1.424,0.71c0.521,0.175,1.061,0.27,1.607,0.28c0.035,0,0.07,0,0.105,0
	c0.688,0,1.365-0.131,2.014-0.388c0.9-0.359,1.721-0.944,2.434-1.74c0.324-0.361,0.629-0.775,0.906-1.23
	c0.031,0.002,0.059,0.004,0.084,0.004c0.043,0,0.102-0.004,0.156-0.029c0.041-0.014,0.074-0.043,0.096-0.082l0.004-0.006
	l0.006-0.012l0,0l0.004-0.008c0.094-0.184,0.184-0.367,0.27-0.561c0.188-0.426,0.398-0.948,0.643-1.601
	c0.264-0.702,0.555-1.523,0.863-2.44c0.195-0.574,0.332-0.998,0.375-1.129v-0.002l0.012-0.032c0.018-0.046,0.014-0.099-0.006-0.142
	c-0.021-0.045-0.059-0.08-0.104-0.095l-0.049-0.038l0.063-0.179c0.318-0.882,0.816-1.681,1.369-2.192
	c0.24-0.225,0.5-0.401,0.744-0.512c0.006-0.002,0.012-0.003,0.02-0.006c-0.219,0.291-0.352,0.65-0.352,1.041
	c0,0.268,0.064,0.521,0.172,0.75c-0.006,0.039-0.004,0.078,0.008,0.115c0.025,0.076,0.086,0.133,0.164,0.166
	c0.316,0.428,0.822,0.706,1.396,0.706c0.186,0,0.365-0.03,0.535-0.085c0.125-0.014,0.486-0.051,0.727-0.035
	c-0.057,0.033-0.092,0.066-0.092,0.101c0,0.063,0,0.267,0,0.354c-0.383,0.055-0.613,0.127-0.613,0.205c0,0.027,0,0.223,0,0.439
	h-0.77c-0.078-0.055-0.174-0.088-0.277-0.088c-0.127,0-0.246,0.047-0.33,0.127c-0.088,0.08-0.145,0.195-0.145,0.32
	c0,0.111,0.047,0.211,0.115,0.287v2.904c-0.068,0.076-0.115,0.175-0.115,0.287c0,0.125,0.057,0.239,0.145,0.319
	c0.084,0.079,0.203,0.128,0.33,0.128c0.105,0,0.203-0.035,0.283-0.092h0.227v3.982v0.003c-0.014-0.001-0.027-0.003-0.041-0.003
	h-0.998c-0.115-0.104-0.266-0.161-0.424-0.161c-0.357,0-0.646,0.289-0.646,0.644c0,0.158,0.063,0.311,0.166,0.428v12.643
	c-0.104,0.117-0.166,0.27-0.166,0.428s0.063,0.311,0.166,0.428v3.578c-0.104,0.117-0.166,0.27-0.166,0.428s0.063,0.311,0.166,0.43
	v13.463c-0.104,0.116-0.166,0.269-0.166,0.428c0,0.158,0.063,0.313,0.166,0.429v13.792c-0.104,0.118-0.166,0.271-0.166,0.43
	c0,0.354,0.289,0.643,0.646,0.643c0.16,0,0.314-0.061,0.432-0.168h0.252c-0.014,0.314-0.025,0.642-0.035,0.973
	c-0.006,0.128,0.041,0.25,0.129,0.344c0.059,0.062,0.131,0.106,0.209,0.129c-0.023,0.908-0.035,1.899-0.035,2.955v4.068
	c-0.018,0.061-0.027,0.123-0.027,0.186s0.01,0.124,0.027,0.186v0.797c-0.158,0.084-0.252,0.229-0.268,0.417
	c-0.02,0.269,0.072,0.527,0.264,0.747c-0.176,0.237-0.277,0.553-0.277,0.887c0,0.611,0.338,1.125,0.793,1.263v4.565l-0.418-0.033
	l-0.043-0.002c-0.279,0-0.516,0.219-0.539,0.499c-0.014,0.176,0.061,0.341,0.191,0.45l-0.068,2.293
	c-0.201,0.065-0.355,0.25-0.373,0.473c-0.01,0.145,0.037,0.283,0.131,0.393c0.057,0.069,0.131,0.121,0.213,0.154l-0.082,2.857
	c-0.459,0.381-0.75,1.121-0.75,1.933c0,1.235,0.641,2.202,1.459,2.202c0.066,0,0.133-0.008,0.203-0.022
	c0.027,0.005,0.051,0.005,0.076,0.007v11.682c-0.549,0.471-0.898,1.167-0.898,1.946c0,0.777,0.35,1.474,0.898,1.945v4.576
	c-0.549,0.472-0.898,1.169-0.898,1.946c0,0.778,0.35,1.475,0.898,1.946v1.921c-0.203,0.127-0.34,0.352-0.34,0.607v2.084
	c-0.348,0.437-0.559,0.988-0.559,1.59c0,0.603,0.211,1.153,0.559,1.592v7.802c-0.348,0.438-0.559,0.989-0.559,1.591
	c0,0.603,0.211,1.154,0.559,1.592v3.207l-0.236,0.01c-0.084-0.445-0.342-0.773-0.648-0.773l-0.043,0.008
	c0-0.002-0.002-0.002-0.002-0.002c-0.047-0.047-0.098-0.086-0.148-0.117c0,0-0.002,0-0.002-0.002
	c-0.053-0.031-0.107-0.053-0.166-0.066l0,0l0.002-0.009c0.002-0.032-0.01-0.065-0.031-0.089c-0.02-0.025-0.051-0.039-0.084-0.041
	c-0.021-0.002-0.547-0.047-0.926-0.86c-0.02-0.042-0.061-0.069-0.107-0.069l-0.018,0.002c-0.027,0.004-0.646,0.1-1,0.486
	l-0.016,0.022c-0.004,0.006-0.053,0.082-0.156,0.082c-0.029,0-0.059-0.007-0.092-0.019l-0.037-0.006
	c-0.023,0-0.049,0.008-0.068,0.023l-0.568,0.389c-0.039,0.025-0.059,0.068-0.051,0.114c0,0.011,0.143,1.115-0.084,1.709
	c-0.018,0.046-0.004,0.101,0.033,0.133c0.008,0.006,0.748,0.673,0.889,1.519c0.01,0.058,0.061,0.099,0.119,0.099h0.01
	c0.002-0.001,0.186-0.017,0.412-0.017c0.572,0,0.74,0.096,0.787,0.137c0.021,0.02,0.049,0.03,0.078,0.03l0.016-0.001
	c0,0,0.301-0.037,0.492-0.037c0.061,0,0.088,0.003,0.098,0.006l0.023,0.002c0.025,0,0.049-0.008,0.07-0.021
	c0.027-0.02,0.045-0.049,0.049-0.081c0-0.007,0.111-0.725,0.592-1.067c0.066-0.051,0.109-0.103,0.139-0.155v-0.001
	c0.129-0.066,0.24-0.19,0.32-0.355c0.008-0.01,0.014-0.023,0.02-0.035c0.014-0.027,0.023-0.057,0.033-0.086
	c0.012-0.028,0.021-0.055,0.029-0.083c0.008-0.026,0.016-0.054,0.021-0.079c0.008-0.031,0.014-0.062,0.02-0.093l0.232-0.009v20.685
	c-0.361,0.085-0.643,0.251-0.643,0.527v0.76l-0.066-0.009c-0.035-0.236-0.168-0.413-0.324-0.413l-0.059,0.01l-0.059-0.01
	c-0.186,0-0.338,0.243-0.338,0.54c0,0.299,0.152,0.54,0.338,0.54l0.059-0.009l0.059,0.009c0.119,0,0.223-0.101,0.281-0.253
	l0.109,0.014v1.373c0,0.014,0.002,0.027,0.004,0.041c-0.814,0.469-1.363,1.348-1.363,2.355c0,1.502,1.217,2.72,2.719,2.72
	s2.721-1.218,2.721-2.72c0-1.009-0.553-1.89-1.369-2.357c0-0.014,0.002-0.025,0.002-0.039v-0.902
	c0.217,0.195,0.488,0.295,0.764,0.248c0.541-0.09,0.887-0.705,0.775-1.373s-0.641-1.135-1.182-1.045
	c-0.182,0.031-0.338,0.125-0.467,0.255c-0.111-0.122-0.301-0.206-0.523-0.259V152.53c0.023,0.008,0.049,0.016,0.072,0.024
	c-0.01,0.733,0.504,12.021,9.115,11.117c1.117-0.08,4.713-0.879,5.906-7.67c0.453-2.512,0.242-9.889,5.4-14.948
	c2.799,0.545,5.23,0.021,6.461-1.663C122.731,136.446,120.39,131.08,115.353,127.405z M99.874,62.885v0.909h-0.01
	c-0.018-0.004-0.041-0.008-0.066-0.008c-0.027,0-0.051,0.004-0.068,0.008H99.7v-0.163c0-0.241-0.121-0.458-0.305-0.588
	C99.562,63.018,99.726,62.962,99.874,62.885z M99.433,57.872c0.031-0.01,0.064-0.021,0.096-0.033h0.105l-0.201,0.271V57.872z
	 M98.88,59.576h0.539c-0.094,0.109-0.168,0.237-0.219,0.379h-0.043c-0.094,0-0.186,0.009-0.277,0.025V59.576z M93.229,16.718
	c-0.186,0.186-0.438,0.297-0.719,0.299c-0.283-0.002-0.535-0.113-0.721-0.299c-0.004-0.004-0.008-0.008-0.012-0.012
	c0.004-0.037,0.004-0.074-0.008-0.109c-0.027-0.082-0.096-0.144-0.186-0.176c-0.059-0.13-0.094-0.271-0.094-0.424
	c0-0.283,0.113-0.535,0.299-0.72c0.158-0.157,0.365-0.259,0.598-0.286c0.145,0.09,0.281,0.202,0.418,0.344
	c0.24,0.25,0.484,0.586,0.664,0.99C93.419,16.474,93.339,16.608,93.229,16.718z M91.878,72.73l-0.332-0.309v-0.31
	c0.078,0.128,0.211,0.22,0.367,0.242C91.899,72.476,91.89,72.601,91.878,72.73z M92.53,60.101v1.297
	c-0.018,0.001-0.035,0.002-0.049,0.005c-0.021-0.005-0.045-0.007-0.072-0.007c-0.48,0-0.697,0.693-0.697,1.336
	c0,0.631,0.209,1.308,0.666,1.336l-0.006,0.963c-0.156,0.047-0.277,0.169-0.322,0.324c-0.264,0.115-0.443,0.381-0.443,0.678
	c0,0.408,0.334,0.743,0.744,0.743h0.004l-0.027,3.276c-0.084,0.205-0.166,0.533-0.244,0.977c-0.012,0.072-0.023,0.15-0.037,0.233
	c-0.043,0.017-0.086,0.036-0.125,0.062c-0.158,0.02-0.295,0.113-0.375,0.243V60.101h0.943c0.014,0,0.027-0.005,0.041-0.006V60.101z
	 M92.53,56.605h-0.266c-0.33,0-0.6,0.268-0.6,0.599c0,0.33,0.27,0.6,0.6,0.6h0.266v1.338v0.006c-0.014,0-0.027-0.006-0.041-0.006
	h-0.943v-5.2c0.094,0.054,0.203,0.086,0.318,0.086c0.355,0,0.646-0.289,0.646-0.646c0-0.158-0.063-0.311-0.166-0.428v-1.748
	l0.186-0.027V56.605z M92.53,50.209l-0.186,0.026v-1.467l0.186-0.027V50.209z M92.53,45.927h-0.002
	c-0.449,0-0.836,0.379-0.965,0.936l-0.018,0.016v-1.145l0.039-0.048l0.945-0.141V45.927z M92.53,41.346v3.231l-0.984,0.146v-3.377
	h0.943c0.014,0,0.027-0.003,0.041-0.004V41.346z M92.53,28.618v1.904c-0.326,0.246-0.541,0.676-0.541,1.166
	c0,0.489,0.215,0.919,0.541,1.164v7.535v0.003c-0.014-0.001-0.027-0.003-0.041-0.003h-0.943v-7.293
	c0.195-0.076,0.336-0.267,0.336-0.49l-0.002-0.035v-3.951h0.609c0.014,0,0.027-0.004,0.041-0.005V28.618z M92.987,19.435
	c-0.311,0.092-0.457,0.191-0.457,0.317v2.437h-0.15v-2.756h0.619C92.995,19.434,92.991,19.434,92.987,19.435z M100.241,158.565
	c-2.371-1.217-2.459-4.954-2.436-6.002c0.402-0.123,0.701-0.311,0.701-0.597v-0.389c0.07,0.09,0.146,0.176,0.23,0.257
	c0.412,0.393,0.939,0.617,1.449,0.617c0.416,0,0.789-0.151,1.051-0.426c0.217-0.227,0.336-0.516,0.367-0.826
	c0.072,0.814,0.127,1.287,0.127,1.287s0.824,4.701-0.012,6.029C101.546,158.79,100.786,158.839,100.241,158.565z"/>
<g>
	<path fill="#FFFFFF" d="M91.384,149.45c0.041,0,0.078,0.025,0.109,0.068l0.217-0.012c-0.07-0.319-0.244-0.535-0.404-0.535
		c-0.207,0-0.439,0.359-0.439,0.839c0,0.48,0.232,0.839,0.439,0.839c0.16,0,0.332-0.213,0.404-0.531l-0.242,0.013
		c-0.025,0.024-0.055,0.04-0.084,0.04c-0.105,0-0.191-0.162-0.191-0.36S91.278,149.45,91.384,149.45z"/>
	<path fill="#FFFFFF" d="M103.89,73.067l-0.031,0.406c-0.006,0.066,0.043,0.123,0.109,0.129s0.123-0.045,0.127-0.109l0.523-6.5
		c0.004-0.064-0.043-0.122-0.109-0.128c-0.066-0.005-0.125,0.044-0.129,0.109l-0.373,4.634c-0.084,0.061-0.193,0.17-0.193,0.17
		c-0.412,0.381-1.381,1.357-2.064,2.689c-0.078,0.721-0.145,1.543-0.193,2.477c0,0.031-0.002,0.064-0.004,0.096
		c0.406-1.344,1.076-2.865,2.146-3.834C103.698,73.206,103.782,73.123,103.89,73.067z"/>
	<ellipse fill="#FFFFFF" cx="98.756" cy="80.459" rx="1.22" ry="1.515"/>
	<ellipse fill="#FFFFFF" cx="97.987" cy="32.743" rx="0.732" ry="0.818"/>
	<path fill="#FFFFFF" d="M96.972,35.71c0,0.595,0.348,1.086,0.805,1.186c-0.34-0.242-0.564-0.684-0.564-1.186
		s0.225-0.941,0.559-1.185C97.315,34.628,96.972,35.118,96.972,35.71z"/>
	<path fill="#FFFFFF" d="M95.247,34.296c0.137-0.1,0.229-0.258,0.229-0.44s-0.092-0.339-0.229-0.439V34.296z"/>
	<path fill="#FFFFFF" d="M93.829,34.333v-0.954c-0.168,0.095-0.285,0.271-0.285,0.477C93.544,34.062,93.661,34.236,93.829,34.333z"
		/>
	<ellipse fill="#FFFFFF" cx="93.146" cy="31.688" rx="0.917" ry="1.139"/>
	<ellipse fill="#FFFFFF" cx="92.526" cy="47.265" rx="0.771" ry="1.098"/>
	<path fill="#FFFFFF" d="M98.935,50.262c-0.539,0-0.973,0.54-0.973,1.207c0,0.403,0.162,0.759,0.406,0.978
		c-0.244,0.219-0.406,0.575-0.406,0.979c0,0.667,0.434,1.207,0.973,1.207c0.535,0,0.971-0.54,0.971-1.207
		c0-0.403-0.16-0.76-0.406-0.979c0.246-0.219,0.406-0.574,0.406-0.978C99.905,50.802,99.47,50.262,98.935,50.262z"/>
	<circle fill="#FFFFFF" cx="99.157" cy="56.316" r="1.313"/>
	<path fill="#FFFFFF" d="M99.917,57.599h0.189l-0.838,1.139h-0.076v-0.93c-0.012,0-0.023,0.002-0.035,0.002
		c-0.154,0-0.303-0.024-0.443-0.068v0.996h-0.813c-0.166,0-0.299,0.135-0.299,0.301c0,0.165,0.133,0.299,0.299,0.299h1.52
		c0.096,0,0.186-0.047,0.24-0.121l1.279-1.739c0.066-0.09,0.076-0.212,0.025-0.312c-0.051-0.102-0.156-0.164-0.268-0.164h-0.215
		C100.354,57.249,100.157,57.456,99.917,57.599z"/>
	<ellipse fill="#FFFFFF" cx="98.904" cy="69.112" rx="1.577" ry="2.008"/>
	<ellipse fill="#FFFFFF" cx="92.409" cy="62.732" rx="0.461" ry="1.098"/>
	<path fill="#FFFFFF" d="M99.46,71.187c-0.174,0.072-0.361,0.114-0.555,0.114c-0.139,0-0.275-0.022-0.404-0.061v0.712
		c0.404,0.008,0.758,0.266,0.959,0.651V71.187z"/>
	<ellipse fill="#FFFFFF" cx="98.483" cy="73.338" rx="0.971" ry="1.207"/>
	<path fill="#FFFFFF" d="M94.847,84.595v-0.518c-0.166,0.098-0.369,0.172-0.6,0.219v0.182
		C94.474,84.502,94.673,84.542,94.847,84.595z"/>
	<path fill="#FFFFFF" d="M92.985,82.067v0.463c0.148-0.037,0.309-0.062,0.479-0.072v-0.381c-0.07,0.006-0.141,0.012-0.209,0.012
		C93.159,82.089,93.069,82.081,92.985,82.067z"/>
	<path fill="#FFFFFF" d="M93.374,80.434c-0.139,0-0.266-0.013-0.389-0.032v0.425c0.145-0.067,0.307-0.122,0.479-0.159v-0.238
		C93.435,80.431,93.405,80.434,93.374,80.434z"/>
	<path fill="#FFFFFF" d="M94.247,82.509c0.23,0.049,0.434,0.124,0.6,0.221v-1.389c-0.084,0.202-0.295,0.392-0.6,0.533V82.509z"/>
	<path fill="#FFFFFF" d="M93.044,84.386c0.143,0.02,0.283,0.037,0.42,0.049v-0.086c-0.17-0.011-0.33-0.035-0.479-0.072v0.102
		C93.005,84.38,93.024,84.384,93.044,84.386z"/>
	<path fill="#FFFFFF" d="M92.257,82.895c0.123-0.116,0.285-0.214,0.48-0.287v-0.601c-0.209-0.078-0.348-0.209-0.385-0.384
		c-0.045-0.208,0.064-0.424,0.309-0.609c0.023-0.019,0.051-0.034,0.076-0.05v-0.615c-0.205-0.062-0.367-0.15-0.48-0.264V82.895z"/>
	<path fill="#FFFFFF" d="M92.257,84.338c0.055-0.007,0.115-0.013,0.18-0.013c0.094,0,0.195,0.008,0.301,0.02V84.2
		c-0.195-0.074-0.357-0.172-0.48-0.287V84.338z"/>
	<ellipse transform="matrix(0.995 -0.1 0.1 0.995 -7.4885 9.7532)" fill="#FFFFFF" cx="93.589" cy="79.608" rx="1.29" ry="0.599"/>
	
		<ellipse transform="matrix(-0.2127 -0.9771 0.9771 -0.2127 34.039 190.1246)" fill="#FFFFFF" cx="93.614" cy="81.349" rx="0.514" ry="1.107"/>
	<path fill="#FFFFFF" d="M91.991,84.821c-0.049,0.639,0.75,1.119,1.676,1.119c0.928,0,1.678-0.287,1.678-0.639
		c0-0.354-0.559-0.641-1.678-0.641C92.987,84.661,92.03,84.303,91.991,84.821z"/>
	<ellipse fill="#FFFFFF" cx="93.663" cy="83.403" rx="1.432" ry="0.738"/>
	<path fill="#FFFFFF" d="M92.772,87.497c0.441,0,0.797-0.475,0.797-1.061c0-0.101-0.014-0.195-0.033-0.289
		c-0.521-0.023-1.006-0.188-1.332-0.451c-0.141,0.191-0.227,0.451-0.227,0.74C91.978,87.022,92.333,87.497,92.772,87.497z"/>
	<path fill="#FFFFFF" d="M99.976,86.771c0-0.836-0.545-1.516-1.219-1.516c-0.676,0-1.221,0.68-1.221,1.516
		c0,0.443,0.152,0.839,0.398,1.117c-0.172,0.216-0.279,0.512-0.279,0.84c0,0.66,0.432,1.195,0.963,1.195s0.963-0.535,0.963-1.195
		c0-0.254-0.063-0.486-0.172-0.68C99.749,87.779,99.976,87.308,99.976,86.771z"/>
	<ellipse fill="#FFFFFF" cx="98.553" cy="96.712" rx="0.976" ry="1.211"/>
	<path fill="#FFFFFF" d="M100.438,106.612v-2.625c-0.025,0.012-0.047,0.029-0.072,0.04v4.614c0,0.078-0.023,0.151-0.063,0.213v0.633
		c0.287-0.004,0.518-0.236,0.518-0.523c0-0.194-0.107-0.361-0.264-0.453v-1.605C100.483,106.831,100.438,106.728,100.438,106.612z"
		/>
	<path fill="#FFFFFF" d="M92.933,99.369c0.445,0.364,0.742,1.074,0.742,1.912c0,0.47-0.094,0.896-0.256,1.247
		c0.064-0.045,0.141-0.08,0.227-0.105c0.145-0.322,0.234-0.715,0.234-1.142c0-0.014-0.004-0.024-0.004-0.036
		c-0.082-0.185-0.1-0.355-0.049-0.502C93.706,100.062,93.366,99.53,92.933,99.369z"/>
	<path fill="#FFFFFF" d="M92.933,103.192c0.082-0.031,0.158-0.078,0.234-0.135c-0.002-0.038-0.002-0.077,0.002-0.115
		C93.097,103.036,93.019,103.122,92.933,103.192z"/>
	<path fill="#FFFFFF" d="M90.661,74.274c0,0.223,0.182,0.404,0.406,0.404c0.135,0,0.254-0.067,0.326-0.168h0.607
		c-0.016,0.374-0.033,0.779-0.047,1.219c-0.004,0.133,0.1,0.242,0.232,0.248c0.041,0,0.078-0.012,0.111-0.03
		c-0.025,0.919-0.041,1.978-0.041,3.202v0.16c0.072-0.078,0.162-0.151,0.273-0.217c0.064-0.038,0.133-0.073,0.207-0.105
		c0-0.818,0.01-1.561,0.021-2.234h0.248c-0.012,0.65-0.02,1.364-0.021,2.146c0.15-0.043,0.313-0.075,0.479-0.095
		c0.004-0.745,0.01-1.429,0.023-2.052h0.125c-0.014,0.621-0.021,1.301-0.023,2.042c0.072-0.006,0.143-0.011,0.213-0.011
		c0.094,0,0.182,0.005,0.268,0.014c0-0.742,0.01-1.424,0.023-2.045h0.992v2.781c0,0.003,0,0.008,0,0.012v0.612h-0.238v-0.183
		c-0.248,0.224-0.67,0.393-1.178,0.443c-0.027,0.002-0.053,0.002-0.08,0.004v0.224c0.131-0.022,0.26-0.036,0.385-0.036
		c0.451,0,0.766,0.141,0.873,0.38v-0.229h0.238v2.144h-0.008c0.021,0.021,0.037,0.044,0.057,0.063
		c0.014,0.016,0.027,0.032,0.039,0.049c0.02,0.025,0.035,0.053,0.049,0.078c0.008,0.014,0.016,0.025,0.023,0.038
		c0.014,0.031,0.025,0.063,0.035,0.099c0.004,0.008,0.006,0.016,0.008,0.023c0.01,0.037,0.014,0.072,0.016,0.109
		c0.002,0.014,0.006,0.025,0.006,0.039c0,0.183-0.082,0.349-0.225,0.49v0.793c0.309,0.146,0.475,0.355,0.475,0.615
		c0,0.246-0.186,0.441-0.475,0.584v0.583h-0.238v-0.487c-0.182,0.061-0.385,0.105-0.6,0.134v0.104h-0.396
		c-0.004-0.023-0.008-0.046-0.014-0.069c-0.041,0.003-0.082,0.003-0.123,0.003c0.018,0.092,0.025,0.186,0.025,0.283
		c0,0.41-0.158,0.771-0.402,0.996c0.25-0.117,0.439-0.392,0.506-0.733h0.404v1.917h-1.172c-0.135,0-0.24,0.106-0.24,0.24
		c0,0.133,0.105,0.239,0.24,0.239h1.172v1.37c-0.1,0.029-0.174,0.118-0.174,0.227c0,0.11,0.074,0.197,0.174,0.227v0.428
		c-0.033,0.04-0.055,0.09-0.055,0.146c0,0.056,0.021,0.104,0.055,0.146v0.997l-2.154-0.166c-0.166-0.012-0.311,0.111-0.322,0.277
		c-0.01,0.137,0.072,0.254,0.193,0.3l-0.076,2.643l-0.045-0.003c-0.164-0.014-0.309,0.11-0.322,0.275
		c-0.014,0.167,0.111,0.312,0.275,0.324l0.076,0.006l-0.094,3.18c-0.438,0.296-0.748,0.994-0.748,1.81
		c0,1.084,0.547,1.962,1.221,1.962s1.219-0.878,1.219-1.962c0-1.077-0.539-1.952-1.207-1.962l0.086-2.991l0.639,0.05
		c0.066,0.09,0.162,0.146,0.271,0.146c0.092,0,0.174-0.041,0.238-0.107l0.035,0.003c0.064,0.064,0.145,0.104,0.236,0.104
		c0.074,0,0.143-0.025,0.199-0.07l0.279,0.021v0.283c0,0.004-0.002,0.005-0.002,0.008c0,0.002,0.002,0.003,0.002,0.006v0.202
		c-0.135,0.095-0.225,0.251-0.225,0.429c0,0.291,0.234,0.525,0.525,0.525c0.287,0,0.523-0.234,0.523-0.525
		c0-0.128-0.049-0.244-0.125-0.336h2.369c0.098,0.391,0.348,0.694,0.666,0.806c-0.328-0.236-0.547-0.668-0.547-1.161
		s0.219-0.924,0.547-1.161c-0.35,0.12-0.619,0.472-0.693,0.913h-2.441v-0.242c0,0,0,0,0-0.002c0-0.001-0.002-0.002,0-0.004v-1.877
		l0.238,0.018v0.58c-0.135,0.096-0.225,0.252-0.225,0.43c0,0.291,0.234,0.525,0.525,0.525c0.289,0,0.523-0.234,0.523-0.525
		c0-0.176-0.088-0.33-0.219-0.426l3.271,0.264v0.249c0.414,0.197,0.709,0.687,0.709,1.259c0,0.57-0.295,1.061-0.709,1.258v1.135
		c0.299,0.104,0.617,0.253,0.936,0.441v-0.077c-0.164-0.134-0.264-0.334-0.264-0.548c0-0.371,0.291-0.674,0.658-0.698V85.3
		c0.488-2.441,0.879-5.516,1.025-8.367c0.24-4.674,0.959-6.592,0.959-6.592s0.037-0.094,0.1-0.182l-0.031,1.545
		c-0.002,0.066,0.051,0.121,0.115,0.122c0.068,0.001,0.123-0.052,0.125-0.117l0.137-6.519c0.002-0.066-0.051-0.121-0.117-0.123
		c-0.066-0.001-0.121,0.052-0.123,0.119l-0.068,3.297c-0.037,0.004-0.084,0.019-0.137,0.061c-0.039,0.029-1.139,0.42-1.438,7.01
		c-0.23,5.061-0.955,6.623-1.279,7.076v-0.785c-0.174,0.148-0.379,0.249-0.598,0.288v2.962l0,0c0.674,0.123,1.195,0.826,1.195,1.676
		c0,0.519-0.195,1.002-0.525,1.321c0.084,0.196,0.131,0.413,0.131,0.636c0,0.537-0.26,1.005-0.637,1.23l-0.004,0.002
		c-0.051,0.031-0.105,0.058-0.16,0.08l0,0v1.246c0.674,0.121,1.195,0.826,1.195,1.676c0,0.934-0.629,1.694-1.4,1.694
		c-0.176,0-0.342-0.041-0.494-0.112l-2.445-0.196c0.074-0.049,0.129-0.128,0.137-0.225c0.014-0.163-0.105-0.305-0.27-0.321v-0.539
		h1.49c0.092,0.562,0.434,1.012,0.875,1.16c-0.346-0.246-0.594-0.666-0.668-1.16h0.178c0.113,0.692,0.605,1.214,1.197,1.214
		c0.674,0,1.219-0.679,1.219-1.515s-0.545-1.516-1.219-1.516c-0.592,0-1.084,0.521-1.197,1.214h-0.178
		c0.074-0.493,0.322-0.914,0.668-1.16c-0.441,0.148-0.783,0.599-0.875,1.16h-1.49v-1.728h0.398v0.33
		c-0.135,0.095-0.223,0.252-0.223,0.428c0,0.291,0.234,0.526,0.523,0.526s0.523-0.235,0.523-0.526c0-0.176-0.088-0.333-0.225-0.428
		v-0.33h0.143c0.131,0,0.238-0.107,0.238-0.24c0-0.132-0.107-0.238-0.238-0.238h-0.143v-3.383h0.49
		c0.061,0.379,0.24,0.703,0.484,0.922c0.016-0.032,0.031-0.068,0.051-0.1c-0.227-0.31-0.352-0.703-0.352-1.123
		c0-0.617,0.275-1.157,0.684-1.453c-0.438,0.151-0.777,0.594-0.867,1.151h-0.49v-2.935c0.137-0.096,0.225-0.254,0.225-0.431
		c0-0.29-0.234-0.524-0.523-0.524c-0.219,0-0.406,0.135-0.484,0.325h-0.215v-2.144h1.49c0.092,0.562,0.434,1.012,0.875,1.159
		c-0.414-0.294-0.693-0.837-0.693-1.461c0-0.622,0.279-1.166,0.693-1.462c-0.441,0.148-0.783,0.599-0.875,1.161h-1.49v-2.2
		l1.219-0.739v-0.466h1.598v2.041c0.084-0.019,0.168-0.03,0.256-0.03c0.299,0,0.576,0.115,0.803,0.31v-1.929
		c0.004,0.128,0.109,0.231,0.238,0.231c0.133,0,0.24-0.107,0.24-0.24v-6.352c-0.143,0.148-0.305,0.27-0.48,0.357v1.697
		c0.051,0.154,0.078,0.323,0.078,0.498c0,0.176-0.027,0.344-0.078,0.5v1.438H99.46v-1.203c-0.201,0.385-0.555,0.645-0.959,0.651
		v0.552h-1.598v-1.697h0.211c0.076,0.482,0.387,0.861,0.779,0.947c-0.336-0.242-0.561-0.682-0.561-1.188
		c0-0.504,0.225-0.945,0.561-1.188c-0.393,0.086-0.703,0.465-0.779,0.948h-0.211v-0.246l-1.219-0.747v-6.377h0.24v3.174
		c-0.088,0.037-0.148,0.121-0.148,0.223c0,0.1,0.061,0.184,0.148,0.221v1.806c-0.137,0.095-0.225,0.251-0.225,0.429
		c0,0.291,0.234,0.525,0.523,0.525s0.525-0.234,0.525-0.525c0-0.178-0.09-0.334-0.225-0.429v-1.788h0.313
		c0.086,0.894,0.635,1.604,1.334,1.734c-0.604-0.348-1.023-1.105-1.023-1.984s0.42-1.637,1.023-1.982
		c-0.705,0.131-1.256,0.851-1.338,1.754h-0.309v-3.156h1.857c0.043,0,0.082-0.016,0.119-0.037v0.346
		c-0.051-0.045-0.113-0.074-0.188-0.074L98.3,65.965c-0.066-0.06-0.152-0.097-0.248-0.097c-0.207,0-0.375,0.168-0.375,0.375
		s0.168,0.374,0.375,0.374c0.096,0,0.182-0.036,0.248-0.097c0.006,0.002,0.01,0.004,0.01,0.004c0.078,0,0.141-0.029,0.191-0.074
		v0.535c0.129-0.037,0.266-0.06,0.404-0.06c0.193,0,0.381,0.04,0.555,0.113v-2.526h0.098v2.57c0.176,0.088,0.338,0.209,0.48,0.359
		v-2.93h0.316c0.063,0,0.125-0.025,0.17-0.068c0.045-0.046,0.07-0.107,0.07-0.17v-2.365c-0.082,0.295-0.252,0.553-0.479,0.744v1.381
		h-0.279c-0.014-0.002-0.025-0.008-0.039-0.008s-0.025,0.006-0.039,0.008H99.46v-0.403c0-0.265-0.215-0.479-0.48-0.479
		c-0.199,0-0.369,0.123-0.441,0.297c-0.051-0.07-0.131-0.117-0.225-0.117L98.3,63.333c-0.066-0.06-0.152-0.096-0.248-0.096
		c-0.207,0-0.375,0.166-0.375,0.374c0,0.207,0.168,0.374,0.375,0.374c0.096,0,0.182-0.037,0.248-0.096l0.014,0.004
		c0.074,0,0.137-0.03,0.188-0.075v1.468c-0.037-0.021-0.076-0.038-0.119-0.038h-1.857v-2.135h1.201l0.822-0.442
		c0.184,0.096,0.391,0.151,0.609,0.151c0.725,0,1.314-0.589,1.314-1.313c0-0.052-0.004-0.104-0.01-0.152
		c0.393-0.104,0.689-0.49,0.689-0.957c0-0.542-0.402-0.983-0.895-0.983c-0.438,0-0.801,0.345-0.877,0.798
		c-0.072-0.012-0.146-0.02-0.223-0.02c-0.725,0-1.314,0.589-1.314,1.314c0,0.317,0.113,0.609,0.301,0.836l-0.539,0.29h-1.08v-0.907
		c0.053-0.012,0.094-0.057,0.094-0.113c0-0.058-0.041-0.102-0.094-0.115v-0.844h0.857v1.479c0,0.131,0.107,0.238,0.24,0.238
		c0.102,0,0.188-0.063,0.223-0.152c-0.115-0.212-0.182-0.454-0.182-0.711c0-0.27,0.074-0.521,0.199-0.74v-0.354
		c0-0.063-0.025-0.125-0.07-0.17c-0.045-0.044-0.105-0.069-0.17-0.069h-1.098v-2.255h1.201l0.639-0.344
		c-0.146-0.09-0.273-0.205-0.379-0.34l-0.381,0.204h-1.08V57.39c0.135-0.094,0.225-0.252,0.225-0.43c0-0.107-0.033-0.207-0.088-0.29
		c0.455,0.01,0.834,0.056,1.082,0.123c-0.051-0.149-0.08-0.311-0.08-0.478c0-0.19,0.037-0.372,0.104-0.541
		c-0.453,0.156-1.205,0.283-1.971,0.283c-0.039,0-0.074-0.004-0.111-0.006v-0.869h0.48c0.133,0,0.24-0.107,0.24-0.24
		c0-0.131-0.107-0.239-0.24-0.239h-0.48v-1.857h1.479l0.771-0.415c0.041,0.037,0.082,0.071,0.127,0.101
		c0.02-0.028,0.037-0.059,0.059-0.085c-0.217-0.258-0.338-0.604-0.338-0.978c0-0.503,0.223-0.942,0.557-1.185
		c-0.453,0.102-0.795,0.592-0.795,1.185c0,0.204,0.045,0.396,0.117,0.565l-0.619,0.333h-0.637v-1.02c0-0.062-0.027-0.124-0.07-0.169
		c-0.047-0.044-0.107-0.07-0.17-0.07h-0.48v-0.48h0.18c0.133,0,0.24-0.106,0.24-0.238c0-0.133-0.107-0.24-0.24-0.24h-0.18v-2.156
		h2.855c-0.09,0.672-0.16,1.289-0.164,1.705c-0.002,0.211,0.178,0.365,0.383,0.401c0.057-0.011,0.115-0.019,0.176-0.019
		c0.02,0,0.039,0.002,0.059,0.004c0.127-0.039,0.242-0.135,0.313-0.3c0.482-1.183,0.797-4.117,0.074-7.186
		c-0.297-1.187-0.412-1.856-0.461-2.337h0.18h0.316c-0.035,0.475-0.072,0.979-0.098,1.283c0.063,0.291,0.139,0.623,0.236,1.012
		c0.689,2.926,0.471,5.942-0.084,7.295c-0.002,0.006-0.006,0.013-0.008,0.02c0.006,0.13,0.014,0.26,0.025,0.379
		c0.313,0.208,0.535,0.585,0.586,1.028c0.221,0.022,0.426-0.327,0.426-1.608c0-4.674-0.5-5.945-0.51-5.998
		c-0.004-0.027-0.008-0.049-0.01-0.064l-0.002-0.006v-4.516c0-0.133-0.105-0.24-0.238-0.24c-0.045,0-0.086,0.016-0.123,0.039H99.04
		v0.326c0.004,0.052,0.006,0.103,0.008,0.152h0.432c-0.008,0.117-0.02,0.258-0.029,0.42h-0.387h-0.18
		c-0.008-0.193-0.012-0.365-0.023-0.563v-2.479c0.285-0.211,0.477-0.594,0.477-1.033c0-0.666-0.436-1.207-0.973-1.207
		s-0.971,0.541-0.971,1.207c0,0.598,0.35,1.09,0.809,1.187c-0.041,0.462-0.061,1.675-0.072,2.858l-0.672-0.041
		c-0.119-0.574-0.641-1.009-1.264-1.009c-0.498,0-0.928,0.28-1.143,0.687l0.119-13.545c0.568-0.13,0.994-0.626,0.994-1.221
		c0-0.695-0.578-1.258-1.289-1.258s-1.287,0.563-1.287,1.258c0,0.633,0.48,1.151,1.104,1.239l-0.16,18.387
		c-0.018,0.022-0.033,0.049-0.051,0.081c-0.027,0.057-0.055,0.126-0.074,0.208l-0.17,0.025c0.006-0.016,0.012-0.028,0.016-0.042
		c0.012-0.025,0.023-0.043,0.029-0.053l0.006-0.007l0,0c0.037-0.044,0.059-0.098,0.059-0.154l0.109-12.382
		c0.012-0.078,0.021-0.158,0.021-0.24c0-0.56-0.324-1.021-0.752-1.119c0.311,0.232,0.52,0.646,0.52,1.119
		c0,0.47-0.207,0.883-0.516,1.115c0.084-0.02,0.166-0.055,0.24-0.102l-0.102,11.53c-0.051,0.08-0.115,0.216-0.137,0.409
		l-2.404,0.355c-0.006-0.006-0.014-0.012-0.021-0.018v-3.785c0.035-0.024,0.063-0.055,0.088-0.088h1.096
		c0.131,0,0.238-0.107,0.238-0.24c0-0.132-0.107-0.238-0.238-0.238h-1.102c-0.023-0.031-0.051-0.059-0.082-0.082v-7.668
		c0.018,0.004,0.035,0.012,0.053,0.012c0.156,0,0.285-0.129,0.285-0.285c0-0.006-0.002-0.01-0.004-0.016c0-0.001,0-0.001,0-0.001
		v-4.21h0.85c0.131,0,0.238-0.107,0.238-0.24s-0.107-0.239-0.238-0.239h-0.85v-0.29h0.85c0.131,0,0.238-0.107,0.238-0.24
		c0-0.132-0.107-0.24-0.238-0.24h-1.102c-0.074-0.096-0.189-0.16-0.32-0.16c-0.225,0-0.406,0.182-0.406,0.404
		c0,0.133,0.064,0.25,0.164,0.324v12.85c-0.1,0.073-0.164,0.191-0.164,0.324s0.064,0.25,0.164,0.324v3.785
		c-0.1,0.074-0.164,0.191-0.164,0.324c0,0.135,0.064,0.251,0.164,0.324V59.3c-0.1,0.074-0.164,0.191-0.164,0.324
		c0,0.134,0.064,0.25,0.164,0.324v14.001C90.726,74.022,90.661,74.14,90.661,74.274z M94.247,93.688l-1.045-0.08
		c-0.166-0.012-0.311,0.111-0.324,0.277c-0.012,0.166,0.111,0.311,0.277,0.322l1.092,0.085v1.579l-0.191-0.016
		c-0.066-0.102-0.17-0.17-0.287-0.17c-0.102,0-0.191,0.047-0.256,0.123c-0.064-0.076-0.154-0.123-0.254-0.123
		c-0.084,0-0.162,0.035-0.223,0.092l-0.67-0.053l0.076-2.625l1.805,0.139V93.688z M95.085,93.753l-0.238-0.018v-0.473h0.238V93.753z
		 M95.085,92.66h-0.238v-0.929h0.238V92.66z M95.085,91.253h-0.238v-0.32h0.238V91.253z M95.085,90.454h-0.238v-1.358h0.238V90.454z
		 M95.085,88.616h-0.238v-1.545h0.238V88.616z M91.306,27.696c0.035-0.023,0.063-0.055,0.088-0.088h0.008v0.29h-0.096V27.696z
		 M91.306,28.378h0.096v3.951c-0.016-0.004-0.029-0.01-0.043-0.01c-0.018,0-0.035,0.008-0.053,0.012V28.378z M93.317,71.613
		c-0.104,0.778-0.207,1.94-0.27,3.661h-0.246c0.061-1.7,0.162-2.842,0.264-3.598c0.08-0.613,0.162-0.974,0.219-1.173
		c0.029-0.101,0.051-0.161,0.064-0.19l0.012-0.025l0,0l-0.002-0.002c0.023-0.036,0.037-0.079,0.037-0.121l0.033-3.629h0.246
		l-0.029,3.566C93.577,70.251,93.45,70.624,93.317,71.613z M93.688,57.563c0.021,0,0.043-0.002,0.064-0.006l-0.066,7.69h-0.248
		l0.068-7.685H93.688z M93.513,56.844l0.053-6.062l0.248-0.037l-0.055,6.106c-0.023-0.005-0.047-0.008-0.07-0.008H93.513z
		 M96.083,90.454h-0.398v-1.381c0.082-0.04,0.141-0.121,0.141-0.217c0-0.098-0.059-0.179-0.141-0.217v-1.568h0.398V90.454z
		 M95.942,83.384c0.037,0.057,0.086,0.104,0.141,0.145v2.94h-0.398v-3.085H95.942z M96.663,72.985v4.1l-0.979,0.592v-0.781
		l0.779-0.389v-2.895l-0.799-0.52v-0.719L96.663,72.985z M95.772,56.698c-0.045,0.078-0.072,0.165-0.072,0.262
		c0,0.178,0.088,0.336,0.225,0.43v2.805c-0.088,0.037-0.148,0.121-0.148,0.221s0.061,0.186,0.148,0.222v0.864
		c-0.049,0.015-0.088,0.059-0.088,0.113c0,0.053,0.039,0.098,0.088,0.113v3.521h-0.24v-8.544
		C95.714,56.702,95.743,56.7,95.772,56.698z M95.925,51.588v0.779h-0.24v-0.779H95.925z M98.53,36.01c0-0.05,0.043-0.09,0.092-0.09
		s0.09,0.04,0.09,0.09v3.774h-0.09l0,0l-0.092-0.005V36.01z M95.044,40.519c0.211,0.415,0.645,0.704,1.15,0.704
		c0.631,0,1.154-0.444,1.266-1.028l0.668,0.041c-0.004,0.465-0.004,0.912-0.006,1.283c-0.084-0.111-0.217-0.186-0.369-0.186
		c-0.178,0-0.332,0.102-0.408,0.246c-0.078-0.06-0.176-0.096-0.281-0.096c-0.256,0-0.465,0.205-0.465,0.459
		c0,0.252,0.209,0.457,0.465,0.457c0.08,0,0.156-0.021,0.221-0.059l0.838,0.027c0,0.109,0,0.174,0,0.174
		c0.139,0.137,0.412,0.348,0.6,0.847c0.115,0.022,0.227,0.064,0.33,0.126c-0.01-0.188-0.078-0.605-0.162-1.054
		c-0.092-0.481-0.201-1.005-0.275-1.346c-0.049-0.227-0.082-0.373-0.082-0.373l-0.002-0.02v-0.464l0.135,0.008
		c0.008,0.002,0.016-0.002,0.023-0.004h0.023v0.45c0.021,0.097,0.295,1.345,0.438,2.179c0.049,0.291,0.082,0.527,0.084,0.662
		l-0.004,0.055c-0.002,0.011-0.004,0.021-0.01,0.029c0.289,0.252,0.477,0.659,0.477,1.12c0,0.661-0.387,1.212-0.902,1.352
		c-0.055,0.448-0.123,0.932-0.188,1.405h-2.922v-2.518h1.49c0.078,0.479,0.385,0.856,0.773,0.945
		c-0.277-0.203-0.479-0.546-0.537-0.945h0.182c0.088,0.552,0.48,0.967,0.951,0.967c0.537,0,0.973-0.541,0.973-1.206
		c0-0.667-0.436-1.207-0.973-1.207c-0.471,0-0.863,0.415-0.951,0.968h-0.182c0.059-0.4,0.26-0.742,0.537-0.945
		c-0.389,0.087-0.695,0.464-0.773,0.945h-1.49v-0.131c0.137-0.095,0.225-0.252,0.225-0.43c0-0.289-0.234-0.523-0.523-0.523
		c-0.145,0-0.273,0.059-0.369,0.151L95.044,40.519z M94.935,44.511l0.006-0.006h-0.002c0.045-0.045,0.072-0.104,0.072-0.168v-0.014
		c0.023,0.023,0.049,0.045,0.074,0.064v0.131h-0.154L94.935,44.511z M95.085,44.997v2.518h-0.104l0.02-2.15
		c0-0.035-0.006-0.068-0.02-0.1c-0.047-0.102-0.076-0.189-0.094-0.268H95.085z M94.919,54.703l0.018-1.857h0.148v1.857H94.919z
		 M95.085,55.183v0.813c-0.084-0.01-0.143-0.016-0.168-0.016h-0.008l0.006-0.797H95.085z M94.94,52.367l0.006-0.779h0.139v0.779
		H94.94z M94.952,51.108l0.004-0.48h0.129v0.48H94.952z M94.96,50.149l0.02-2.156h0.105v2.156H94.96z M94.901,56.776l0.016,0.001
		c0.025,0,0.084-0.007,0.168-0.017v8.487h-0.256L94.901,56.776z M94.661,70.499c0.031-0.096,0.055-0.15,0.068-0.178l0.012-0.02
		L94.739,70.3c0.029-0.041,0.045-0.086,0.047-0.135l0.031-3.629h0.268v7.031c-0.135,0.094-0.225,0.25-0.225,0.428
		c0,0.291,0.234,0.526,0.525,0.526c0.289,0,0.523-0.235,0.523-0.526c0-0.178-0.088-0.334-0.225-0.428v-0.176l0.539,0.35v1.533
		h-2.088c0.068-1.721,0.178-2.867,0.289-3.62C94.513,71.044,94.601,70.691,94.661,70.499z M94.405,45.026
		c0.021,0.117,0.059,0.243,0.115,0.38l-0.041,4.757l-0.182,0.026l0.041-4.831c0-0.034-0.006-0.068-0.02-0.098
		c-0.035-0.078-0.057-0.146-0.074-0.211L94.405,45.026z M94.294,50.675l0.182-0.027l-0.127,14.601h-0.182L94.294,50.675z
		 M94.011,70.504c0.029-0.101,0.051-0.161,0.064-0.19l0.012-0.025l0,0v-0.002c0.021-0.036,0.035-0.079,0.037-0.121l0.031-3.629
		h0.182l-0.029,3.561c-0.027,0.053-0.063,0.133-0.102,0.257c-0.111,0.341-0.264,1.018-0.391,2.376
		c-0.063,0.668-0.119,1.504-0.158,2.545h-0.129c0.063-1.7,0.162-2.842,0.264-3.598C93.874,71.063,93.954,70.703,94.011,70.504z
		 M91.306,45.628c0.057-0.041,0.104-0.098,0.131-0.163l2.332-0.344c0.02,0.087,0.051,0.181,0.092,0.278l-0.043,4.861l-0.248,0.036
		l0.027-3.142c0-0.036-0.01-0.069-0.023-0.102c-0.045-0.271-0.174-0.504-0.352-0.664c0.158,0.226,0.256,0.531,0.256,0.875
		c0,0.418-0.145,0.779-0.369,1.012l-0.02,2.093l-0.984,0.145v-1.951l0.27-0.04c-0.357-0.076-0.641-0.409-0.748-0.861v0.486
		l-0.32,0.048V45.628z M91.306,48.68l0.32-0.047v1.952l-0.32,0.047V48.68z M91.306,59.945c0.033-0.024,0.063-0.052,0.088-0.085
		h1.096c0.131,0,0.238-0.107,0.238-0.24c0-0.132-0.107-0.238-0.238-0.238h-1.102c-0.023-0.031-0.053-0.057-0.082-0.08v-8.186
		l0.32-0.047v1.988c-0.1,0.074-0.166,0.191-0.166,0.324c0,0.225,0.182,0.404,0.404,0.404c0.225,0,0.406-0.18,0.406-0.404
		c0-0.133-0.066-0.25-0.166-0.324v-2.06l0.98-0.144l-0.051,5.989h-0.77c-0.199,0-0.359,0.161-0.359,0.36s0.16,0.359,0.359,0.359
		h0.762l-0.039,4.6c0.02,0.088,0.035,0.18,0.047,0.275l0,0c0.008,0.096,0.014,0.195,0.014,0.293s-0.006,0.191-0.016,0.286
		c-0.002,0.016-0.004,0.031-0.006,0.047c-0.012,0.093-0.027,0.183-0.049,0.268c-0.068,0.28-0.188,0.512-0.357,0.616l-0.012,1.3
		h-0.098c-0.133,0-0.24,0.106-0.24,0.24c0,0.017,0.006,0.03,0.008,0.046c-0.244,0.034-0.434,0.243-0.434,0.498
		c0,0.277,0.227,0.504,0.506,0.504h0.246l-0.031,3.566c-0.053,0.117-0.143,0.373-0.246,0.967c-0.02,0.117-0.041,0.251-0.061,0.396
		h-0.006c-0.098,0-0.184,0.036-0.25,0.097c0,0-0.008-0.004-0.016-0.004c-0.154,0-0.279,0.125-0.279,0.281
		c0,0.155,0.125,0.281,0.279,0.281c0.008,0,0.01-0.002,0.01-0.002c0.053,0.041,0.107,0.071,0.172,0.086
		c-0.031,0.303-0.063,0.647-0.092,1.038l-0.771-0.716V59.945z M91.306,73.719l0.316,0.312h-0.236
		c-0.023-0.031-0.051-0.058-0.08-0.081V73.719z"/>
	<path fill="#FFFFFF" d="M99.897,101.821c-0.121-0.047-0.242-0.102-0.367-0.162v0.276c0.129,0.097,0.252,0.198,0.367,0.302V101.821z
		"/>
	<path fill="#FFFFFF" d="M99.351,101.807v-0.237c-0.121-0.063-0.24-0.133-0.359-0.209v0.219c0.053,0.031,0.105,0.061,0.156,0.094
		C99.216,101.716,99.284,101.761,99.351,101.807z"/>
	<path fill="#FFFFFF" d="M98.241,100.804v0.402c0.119,0.049,0.238,0.1,0.359,0.16v-0.271
		C98.474,101.001,98.354,100.903,98.241,100.804z"/>
	<path fill="#FFFFFF" d="M96.083,100.968c-0.553-0.291-1.102-0.445-1.498-0.445c-0.281,0-0.486,0.076-0.57,0.233
		c-0.199,0.38,0.402,1.089,1.344,1.586c0.553,0.292,1.102,0.446,1.5,0.446c0.141,0,0.262-0.02,0.359-0.057
		c-0.152-0.146-0.287-0.292-0.396-0.437c-0.313-0.411-0.402-0.777-0.254-1.033C96.421,101.159,96.257,101.06,96.083,100.968z"/>
	<path fill="#FFFFFF" d="M97.435,99.333c-0.201-0.247-0.521-0.504-0.916-0.712c-0.445-0.235-0.891-0.356-1.227-0.356
		c-0.256,0-0.449,0.071-0.527,0.221c-0.18,0.34,0.314,0.954,1.104,1.369c0.447,0.236,0.893,0.357,1.229,0.357
		c0.223,0,0.395-0.059,0.486-0.17C97.427,99.771,97.374,99.528,97.435,99.333z"/>
	<path fill="#FFFFFF" d="M100.556,99.995v-0.598c0.182-0.084,0.307-0.264,0.307-0.477c0-0.289-0.234-0.523-0.523-0.523
		c-0.291,0-0.525,0.234-0.525,0.523c0,0.195,0.107,0.362,0.264,0.453v0.281C100.243,99.759,100.403,99.874,100.556,99.995z"/>
	<path fill="#FFFFFF" d="M100.077,101.892v0.516c0.139,0.139,0.26,0.277,0.361,0.419v-0.831
		C100.321,101.97,100.2,101.935,100.077,101.892z"/>
	<path fill="#FFFFFF" d="M99.964,99.794c-0.689-0.434-1.379-0.676-1.836-0.676c-0.234,0-0.406,0.063-0.488,0.193
		c-0.246,0.389,0.396,1.234,1.436,1.891c0.555,0.35,1.107,0.572,1.543,0.647v1.277c0.117,0.255,0.143,0.493,0.021,0.685
		c-0.006,0.009-0.016,0.016-0.021,0.025v2.775c0,0.133,0.107,0.24,0.238,0.24c0.133,0,0.24-0.107,0.24-0.24v-4.751
		c0.139-0.026,0.244-0.084,0.303-0.177C101.644,101.296,101.001,100.45,99.964,99.794z"/>
	<path fill="#FFFFFF" d="M96.728,101.341c-0.244,0.389,0.398,1.236,1.436,1.891c0.555,0.35,1.109,0.574,1.543,0.648v4.762
		c0,0.133,0.107,0.24,0.238,0.24c0.133,0,0.24-0.107,0.24-0.24v-4.75c0.139-0.025,0.246-0.084,0.305-0.178
		c0.244-0.389-0.398-1.234-1.438-1.889c-0.688-0.436-1.379-0.677-1.836-0.677C96.983,101.148,96.812,101.21,96.728,101.341z"/>
	<path fill="#FFFFFF" d="M91.872,117.096c0,1.286,1.043,2.328,2.328,2.328c1.146,0,2.098-0.827,2.293-1.917h-2.277
		c-0.232,0-0.42-0.188-0.42-0.42c0-0.23,0.188-0.419,0.42-0.419h2.273c-0.201-1.081-1.148-1.901-2.289-1.901
		C92.915,114.767,91.872,115.808,91.872,117.096z"/>
	<path fill="#FFFFFF" d="M100.56,116.907h-6.344c-0.102,0-0.182,0.082-0.182,0.18c0,0.1,0.08,0.18,0.182,0.18h6.344
		c0.098,0,0.18-0.08,0.18-0.18C100.739,116.989,100.657,116.907,100.56,116.907z"/>
	<path fill="#FFFFFF" d="M100.56,118.456h-3.398c-0.098,0-0.178,0.08-0.178,0.18s0.08,0.18,0.178,0.18h3.398
		c0.098,0,0.18-0.08,0.18-0.18S100.657,118.456,100.56,118.456z"/>
	<rect x="97.474" y="117.507" fill="#FFFFFF" width="0.359" height="0.71"/>
	<path fill="#FFFFFF" d="M94.532,104.434c0.41,0.233,1.338,0.509,2.27,0.509c0.225,0,0.453-0.016,0.672-0.054v11.779h0.359v-11.866
		l0.053-0.018l0.027-0.012c0.086-0.045,0.078-0.195,0-0.203c-0.023-0.002-0.051-0.004-0.08-0.004v-0.051
		c0.195-0.078,0.334-0.266,0.334-0.488c0-0.29-0.234-0.523-0.523-0.523s-0.523,0.233-0.523,0.523c0,0.229,0.146,0.422,0.354,0.494
		v0.033c-0.271-0.02-0.609-0.205-0.895-0.509c-0.467-0.497-0.621-0.701-1.24-1.052c-0.521-0.297-1.006-0.439-1.367-0.439
		c-0.277,0-0.482,0.086-0.576,0.248C93.185,103.175,93.606,103.908,94.532,104.434z"/>
	<rect x="98.241" y="117.507" fill="#FFFFFF" width="0.359" height="0.71"/>
	<path fill="#FFFFFF" d="M98.241,116.668h0.359v-12.987c-0.119-0.061-0.238-0.125-0.359-0.195v0.176
		c0.066,0.105,0.105,0.23,0.105,0.365c0,0.133-0.037,0.258-0.105,0.365V116.668z"/>
	<rect x="98.991" y="117.507" fill="#FFFFFF" width="0.359" height="0.71"/>
	<path fill="#FFFFFF" d="M98.991,103.854v12.814h0.359v-12.691C99.233,103.942,99.114,103.901,98.991,103.854z"/>
	<rect x="99.765" y="117.507" fill="#FFFFFF" width="0.361" height="0.71"/>
	<path fill="#FFFFFF" d="M99.944,109.062c-0.063,0-0.125-0.016-0.18-0.041v7.647h0.361v-7.647
		C100.071,109.046,100.011,109.062,99.944,109.062z"/>
	<path fill="#FFFFFF" d="M94.2,127.892c1.146,0,2.098-0.827,2.293-1.916h-2.277c-0.232,0-0.42-0.188-0.42-0.42
		c0-0.23,0.188-0.42,0.42-0.42h2.273c-0.201-1.082-1.148-1.9-2.289-1.9c-1.285,0-2.328,1.041-2.328,2.328
		S92.915,127.892,94.2,127.892z"/>
	<path fill="#FFFFFF" d="M100.739,125.556c0-0.099-0.082-0.18-0.18-0.18h-6.344c-0.102,0-0.182,0.081-0.182,0.18
		c0,0.1,0.08,0.18,0.182,0.18h6.344C100.657,125.735,100.739,125.655,100.739,125.556z"/>
	<rect x="97.474" y="119.056" fill="#FFFFFF" width="0.359" height="6.08"/>
	<rect x="98.241" y="119.056" fill="#FFFFFF" width="0.359" height="6.08"/>
	<rect x="98.991" y="119.056" fill="#FFFFFF" width="0.359" height="6.08"/>
	<rect x="99.765" y="119.056" fill="#FFFFFF" width="0.361" height="6.08"/>
	<path fill="#FFFFFF" d="M100.479,127.847c0-0.23-0.15-0.424-0.354-0.494v-1.377h-0.361v1.383c-0.193,0.076-0.334,0.265-0.334,0.488
		c0,0.289,0.234,0.523,0.525,0.523C100.245,128.37,100.479,128.136,100.479,127.847z"/>
	<rect x="97.474" y="125.976" fill="#FFFFFF" width="0.359" height="7.31"/>
	<path fill="#FFFFFF" d="M94.2,136.042c1.146,0,2.098-0.828,2.293-1.918h-2.277c-0.232,0-0.42-0.188-0.42-0.42
		c0-0.23,0.188-0.419,0.42-0.419h2.273c-0.201-1.082-1.148-1.902-2.289-1.902c-1.285,0-2.328,1.043-2.328,2.329
		S92.915,136.042,94.2,136.042z"/>
	<path fill="#FFFFFF" d="M100.021,133.704c0-0.1-0.08-0.18-0.18-0.18h-5.625c-0.102,0-0.182,0.08-0.182,0.18s0.08,0.18,0.182,0.18
		h5.625C99.94,133.884,100.021,133.804,100.021,133.704z"/>
	<path fill="#FFFFFF" d="M99.351,125.976h-0.359v7.31h0.359V128.2c-0.063-0.104-0.1-0.225-0.1-0.354c0-0.131,0.037-0.254,0.1-0.36
		V125.976z"/>
	<path fill="#FFFFFF" d="M99.706,134.365c0-0.087-0.021-0.169-0.061-0.241h-0.924c-0.039,0.074-0.066,0.152-0.066,0.241
		c0,0.29,0.236,0.524,0.525,0.524S99.706,134.655,99.706,134.365z"/>
	<rect x="97.474" y="134.124" fill="#FFFFFF" width="0.359" height="10.146"/>
	<path fill="#FFFFFF" d="M99.573,145.95c0.098-0.021,0.16-0.116,0.139-0.214c-0.021-0.097-0.115-0.159-0.213-0.139l-1.666,0.351
		v-0.84h-0.359v0.916l-0.195,0.041c-0.098,0.02-0.158,0.115-0.141,0.213c0.021,0.098,0.117,0.159,0.215,0.139l0.121-0.025v0.115
		h-0.002c-0.197,0.076-0.336,0.265-0.336,0.488c0,0.288,0.234,0.523,0.523,0.523s0.525-0.235,0.525-0.523
		c0-0.23-0.148-0.422-0.352-0.493v-0.187L99.573,145.95z"/>
	<path fill="#FFFFFF" d="M96.493,145.108h-2.277c-0.232,0-0.42-0.189-0.42-0.419c0-0.231,0.188-0.419,0.42-0.419h2.273
		c-0.201-1.083-1.148-1.903-2.289-1.903c-1.285,0-2.328,1.044-2.328,2.329c0,1.287,1.043,2.33,2.328,2.33
		C95.347,147.026,96.298,146.198,96.493,145.108z"/>
	<path fill="#FFFFFF" d="M98.341,144.689c0-0.101-0.08-0.181-0.178-0.181h-3.947c-0.102,0-0.182,0.08-0.182,0.181
		c0,0.099,0.08,0.179,0.182,0.179h3.947C98.261,144.868,98.341,144.788,98.341,144.689z"/>
	<path fill="#FFFFFF" d="M92.905,171.667c-0.619,0-1.119-0.162-1.119-0.364c0,0.099,0,2.472,0,2.552c0,0.201,0.5,0.363,1.119,0.363
		c0.617,0,1.115-0.162,1.115-0.363c0-0.08,0-2.444,0-2.552C94.021,171.505,93.522,171.667,92.905,171.667z"/>
	<path fill="#FFFFFF" d="M99.479,149.1c-0.354,0-0.682,0.12-0.92,0.37c-0.137,0.143-0.23,0.317-0.279,0.506l-1.119-0.336
		c-0.059-0.088-0.152-0.148-0.264-0.148c-0.176,0-0.32,0.143-0.32,0.319s0.145,0.319,0.32,0.319c0.047,0,0.092-0.011,0.131-0.029
		l1.211,0.365c0.035,0.428,0.248,0.879,0.623,1.238c0.391,0.375,0.877,0.567,1.324,0.567c0.354,0,0.684-0.12,0.922-0.369
		c0.535-0.562,0.4-1.563-0.301-2.235C100.415,149.294,99.927,149.1,99.479,149.1z"/>
	<path fill="#FFFFFF" d="M90.626,149.811c0-0.429,0.158-0.796,0.387-0.97c-0.061-0.043-0.125-0.069-0.188-0.069
		c-0.268,0-0.564,0.427-0.564,1.039s0.297,1.038,0.564,1.038c0.063,0,0.127-0.025,0.188-0.067
		C90.784,150.606,90.626,150.239,90.626,149.811z"/>
	<path fill="#FFFFFF" d="M92.431,146.548v24.846c0,0,0.205,0.076,0.475,0.076c0.266,0,0.482-0.079,0.482-0.079v-18.964
		c-0.217-0.115-0.357-0.265-0.357-0.46v-4.114c0-0.046,0.01-0.09,0.025-0.131c-0.324-0.105-0.525-0.236-0.525-0.393v-0.687
		C92.495,146.613,92.464,146.579,92.431,146.548z"/>
	<path fill="#FFFFFF" d="M92.53,142.75v-7.093c-0.035-0.028-0.066-0.063-0.1-0.094v7.281C92.464,142.813,92.495,142.78,92.53,142.75
		z"/>
	<path fill="#FFFFFF" d="M92.53,131.767v-2.018c-0.063,0.082-0.1,0.181-0.1,0.289v1.822
		C92.464,131.829,92.495,131.796,92.53,131.767z"/>
	<path fill="#FFFFFF" d="M97.034,150.29c-0.045,0.013-0.092,0.021-0.137,0.021c-0.275,0-0.498-0.225-0.498-0.5
		s0.223-0.499,0.498-0.499c0.141,0,0.275,0.063,0.369,0.172l0.898,0.271c0.027-0.07,0.064-0.135,0.102-0.197
		c0-0.857,0-1.632,0-1.705c0-0.031-0.012-0.063-0.033-0.095c-0.617,0.173-1.59,0.263-2.529,0.263c-0.883,0-1.799-0.08-2.418-0.233
		c-0.01,0.022-0.016,0.044-0.016,0.065c0,0.115,0,4.04,0,4.114c0,0.331,1.117,0.6,2.498,0.6s2.498-0.269,2.498-0.6
		c0-0.033,0-0.339,0-0.771c-0.094-0.191-0.162-0.391-0.191-0.594L97.034,150.29z"/>
	
		<ellipse transform="matrix(0.5895 -0.8078 0.8078 0.5895 -62.992 144.2651)" fill="#FFFFFF" cx="110.446" cy="134.11" rx="4.161" ry="8.526"/>
	<path fill="#FFFFFF" d="M98.101,18.976V18.39c-0.244-0.08-1.064-0.195-2.396-0.195c-1.33,0-2.148,0.115-2.396,0.195v0.586
		c0.393-0.104,1.104-0.182,2.396-0.182C96.999,18.794,97.71,18.872,98.101,18.976z"/>
	<path fill="#FFFFFF" d="M76.21,17.937c-0.23,0-0.529,0.086-0.863,0.242l-0.045,0.014l0,0l-0.039-0.006
		c-0.021-0.004-0.049-0.007-0.078-0.01c-0.061-0.01-0.121-0.018-0.17-0.029l0,0c-0.357-0.104-0.586-0.426-0.586-0.766l0,0v-0.001
		l0,0v-0.01l0,0c0.002-0.067,0.01-0.134,0.029-0.202l0,0l0,0c0.029-0.102,0.08-0.191,0.143-0.269
		c0.262-0.108,0.494-0.167,0.682-0.167c0.119,0,0.221,0.025,0.295,0.074c-0.27-0.349-0.477-0.611-0.512-0.652
		c-0.08-0.092-0.205-0.136-0.369-0.136c-0.506,0-1.355,0.424-2.174,1.125c-1.08,0.927-1.689,1.984-1.363,2.364
		c0.033,0.038,0.24,0.324,0.506,0.699c-0.24-0.416,0.369-1.434,1.418-2.332c0.201-0.174,0.404-0.329,0.604-0.468
		c0.01,0.538,0.305,1.03,0.773,1.3c-0.156,0.113-0.314,0.236-0.471,0.369c-1.102,0.94-1.723,2.014-1.391,2.398
		c0.033,0.04,0.244,0.33,0.518,0.709c-0.248-0.422,0.375-1.453,1.443-2.365c0.846-0.721,1.725-1.158,2.242-1.158
		c0.123,0,0.227,0.023,0.303,0.075c-0.275-0.353-0.486-0.62-0.521-0.661C76.503,17.98,76.374,17.937,76.21,17.937z"/>
</g>
</svg>
