<?xml version="1.0" encoding="utf-8"?>
<!-- Generator: Adobe Illustrator 15.0.0, SVG Export Plug-In . SVG Version: 6.00 Build 0)  -->
<!DOCTYPE svg PUBLIC "-//W3C//DTD SVG 1.1//EN" "http://www.w3.org/Graphics/SVG/1.1/DTD/svg11.dtd">
<svg version="1.1" id="Ebene_1" xmlns="http://www.w3.org/2000/svg" xmlns:xlink="http://www.w3.org/1999/xlink" x="0px" y="0px"
	 width="190px" height="190px" viewBox="0 0 190 190" enable-background="new 0 0 190 190" xml:space="preserve">
<g id="Orientierungskreise" display="none">
	<g id="Weißer_Kreis_x5F_Violin_9_" display="inline">
		<g>
			<path fill="#4D4D4F" d="M-1122.268,9.917c47.365,0,85.898,38.534,85.898,85.899s-38.534,85.897-85.898,85.897
				c-47.365,0-85.899-38.534-85.899-85.897C-1208.167,48.451-1169.633,9.917-1122.268,9.917 M-1122.268,9.69
				c-47.566,0-86.126,38.559-86.126,86.126c0,47.564,38.56,86.125,86.126,86.125s86.125-38.561,86.125-86.125
				C-1036.143,48.249-1074.702,9.69-1122.268,9.69L-1122.268,9.69z"/>
		</g>
	</g>
	<g id="Weißer_Kreis_x5F_Violin_10_" display="inline">
		<g>
			<path fill="#4D4D4F" d="M-1122.268,12.492c45.944,0,83.322,37.378,83.322,83.322s-37.378,83.322-83.322,83.322
				c-45.945,0-83.323-37.378-83.323-83.322C-1205.591,49.871-1168.212,12.492-1122.268,12.492 M-1122.268,12.272
				c-46.139,0-83.543,37.402-83.543,83.542c0,46.14,37.404,83.543,83.543,83.543c46.139,0,83.542-37.403,83.542-83.543
				S-1076.128,12.272-1122.268,12.272L-1122.268,12.272z"/>
		</g>
	</g>
	<g id="Weißer_Kreis_x5F_Violin_2_" display="inline">
		<g>
			<path fill="#4D4D4F" d="M-1122.268,232.007c47.365,0,85.898,38.534,85.898,85.899s-38.534,85.898-85.898,85.898
				c-47.365,0-85.899-38.535-85.899-85.898C-1208.167,270.542-1169.633,232.007-1122.268,232.007 M-1122.268,231.781
				c-47.566,0-86.126,38.559-86.126,86.125s38.56,86.125,86.126,86.125s86.125-38.559,86.125-86.125
				C-1036.143,270.339-1074.702,231.781-1122.268,231.781L-1122.268,231.781z"/>
		</g>
	</g>
	<g id="Weißer_Kreis_x5F_Violin_1_" display="inline">
		<g>
			<path fill="#4D4D4F" d="M-1122.268,234.583c45.944,0,83.322,37.378,83.322,83.323c0,45.943-37.378,83.322-83.322,83.322
				c-45.945,0-83.323-37.379-83.323-83.322C-1205.591,271.961-1168.212,234.583-1122.268,234.583 M-1122.268,234.363
				c-46.139,0-83.543,37.402-83.543,83.543c0,46.139,37.404,83.541,83.543,83.541c46.139,0,83.542-37.402,83.542-83.541
				C-1038.726,271.766-1076.128,234.363-1122.268,234.363L-1122.268,234.363z"/>
		</g>
	</g>
	<g id="Weißer_Kreis_x5F_Violin_6_" display="inline">
		<g>
			<path fill="#4D4D4F" d="M-1122.268,676.191c47.365,0,85.898,38.535,85.898,85.9c0,47.363-38.534,85.896-85.898,85.896
				c-47.365,0-85.899-38.533-85.899-85.896C-1208.167,714.727-1169.633,676.191-1122.268,676.191 M-1122.268,675.967
				c-47.566,0-86.126,38.559-86.126,86.125c0,47.564,38.56,86.125,86.126,86.125s86.125-38.561,86.125-86.125
				C-1036.143,714.523-1074.702,675.967-1122.268,675.967L-1122.268,675.967z"/>
		</g>
	</g>
	<g id="Weißer_Kreis_x5F_Violin_5_" display="inline">
		<g>
			<path fill="#4D4D4F" d="M-1122.268,678.768c45.944,0,83.322,37.379,83.322,83.324c0,45.943-37.378,83.32-83.322,83.32
				c-45.945,0-83.323-37.377-83.323-83.32C-1205.591,716.146-1168.212,678.768-1122.268,678.768 M-1122.268,678.549
				c-46.139,0-83.543,37.4-83.543,83.543c0,46.139,37.404,83.541,83.543,83.541c46.139,0,83.542-37.402,83.542-83.541
				C-1038.726,715.949-1076.128,678.549-1122.268,678.549L-1122.268,678.549z"/>
		</g>
	</g>
	<g id="Weißer_Kreis_x5F_Violin_8_" display="inline">
		<g>
			<path fill="#4D4D4F" d="M-1122.268,898.285c47.365,0,85.898,38.533,85.898,85.898s-38.534,85.898-85.898,85.898
				c-47.365,0-85.899-38.533-85.899-85.898S-1169.633,898.285-1122.268,898.285 M-1122.268,898.059
				c-47.566,0-86.126,38.559-86.126,86.127c0,47.564,38.56,86.125,86.126,86.125s86.125-38.561,86.125-86.125
				C-1036.143,936.617-1074.702,898.059-1122.268,898.059L-1122.268,898.059z"/>
		</g>
	</g>
	<g id="Weißer_Kreis_x5F_Violin_7_" display="inline">
		<g>
			<path fill="#4D4D4F" d="M-1122.268,900.859c45.944,0,83.322,37.379,83.322,83.324c0,45.943-37.378,83.322-83.322,83.322
				c-45.945,0-83.323-37.379-83.323-83.322C-1205.591,938.238-1168.212,900.859-1122.268,900.859 M-1122.268,900.641
				c-46.139,0-83.543,37.402-83.543,83.543c0,46.139,37.404,83.543,83.543,83.543c46.139,0,83.542-37.404,83.542-83.543
				C-1038.726,938.043-1076.128,900.641-1122.268,900.641L-1122.268,900.641z"/>
		</g>
	</g>
	<g id="Weißer_Kreis_x5F_Violin_4_" display="inline">
		<g>
			<path fill="#4D4D4F" d="M-1122.268,454.102c47.365,0,85.898,38.533,85.898,85.898c0,47.363-38.534,85.898-85.898,85.898
				c-47.365,0-85.899-38.535-85.899-85.898C-1208.167,492.635-1169.633,454.102-1122.268,454.102 M-1122.268,453.873
				c-47.566,0-86.126,38.561-86.126,86.127c0,47.564,38.56,86.125,86.126,86.125s86.125-38.561,86.125-86.125
				C-1036.143,492.434-1074.702,453.873-1122.268,453.873L-1122.268,453.873z"/>
		</g>
	</g>
	<g id="Weißer_Kreis_x5F_Violin_3_" display="inline">
		<g>
			<path fill="#4D4D4F" d="M-1122.267,456.676c45.944,0,83.322,37.379,83.322,83.324c0,45.943-37.378,83.322-83.322,83.322
				c-45.945,0-83.323-37.379-83.323-83.322C-1205.59,494.055-1168.212,456.676-1122.267,456.676 M-1122.267,456.457
				c-46.139,0-83.543,37.402-83.543,83.543c0,46.139,37.404,83.543,83.543,83.543c46.139,0,83.542-37.404,83.542-83.543
				C-1038.725,493.859-1076.128,456.457-1122.267,456.457L-1122.267,456.457z"/>
		</g>
	</g>
</g>
<path d="M120.126,133.01c-1.055-2.561-0.393-6.117-0.326-6.447c0.014-0.051,0.02-0.105,0.02-0.162c0-0.375-0.301-0.674-0.674-0.676
	h-0.002h-0.018h-0.002l0,0c-0.133,0.004-0.256,0.045-0.359,0.117c-0.023,0.014-0.4,0.238-0.91,0.238
	c-1.016,0-3.471-1.006-4.326-10.326c-0.6-6.51,0.408-9.117,1.357-10.158c0.451-0.494,0.994-0.746,1.611-0.746
	c0.42,0,0.723,0.119,0.729,0.121c0.082,0.035,0.17,0.053,0.258,0.053c0.209,0,0.41-0.098,0.541-0.273
	c0.186-0.248,0.176-0.594-0.021-0.832c-0.713-0.873-0.189-3.786,0.408-5.576c1.008-3.021,2.49-9.159,1.109-16.35
	c-2.076-10.644-9.688-12.292-14.105-12.313c0.012-0.283,0.039-0.762,0.109-1.328c0.115-0.918-0.803-1.262-0.803-1.262
	s-7.344-1.606-8.377-1.951c-1.033-0.344-0.803-1.721-0.803-1.721s3.672-26.964,3.824-27.728c0.154-0.765,0.613-0.688,0.613-0.688
	s2.156,1.144,2.906,0.994c0.859-0.173,0.764-2.677,0.764-2.677c0.699,0.181,0.658-0.768,0.658-0.768
	c0.115-1.478,0.646-4.611,1.807-6.464l0.773-0.109c-0.223,0.756-0.096,1.477,0.396,1.831c0.701,0.505,1.873,0.074,2.619-0.959
	c0.744-1.036,0.781-2.284,0.08-2.788c-0.629-0.453-1.633-0.154-2.371,0.656l-0.48,0.067c1.092-1.38,2.094-3.038,2.756-4.779
	l0.43-0.048c-0.02,0.475,0.133,0.887,0.461,1.122c0.646,0.466,1.727,0.069,2.412-0.882c0.686-0.953,0.719-2.104,0.074-2.567
	c-0.646-0.466-1.727-0.069-2.412,0.884c-0.061,0.081-0.113,0.165-0.16,0.25l-0.408,0.045c0.547-1.948,0.619-3.938-0.113-5.705
	c-1.664-4.016-4.42-3.493-4.42-3.493c-0.029,0.005-0.059,0.015-0.088,0.021c-0.201,0.012-0.236-0.012-0.365-0.109l-0.063-0.013
	c-0.412-0.054-0.822,0.064-1.201,0.313l-0.016-0.004c-1.334-0.256-2.756,1.299-3.174,3.475c-0.416,2.175,0.328,4.146,1.664,4.402
	c0.455,0.086,0.918-0.041,1.35-0.326c0.113,0.043,0.23,0.077,0.352,0.093c0.143,0.019,0.281,0.013,0.42-0.008
	c-0.852,0.821-1.99,1.922-3.498,3.425c-0.385,0.383-0.74,0.767-1.066,1.15c0.055-0.527-0.092-0.994-0.447-1.251
	c-0.641-0.462-1.713-0.069-2.395,0.877s-0.715,2.087-0.072,2.549c0.35,0.253,0.83,0.247,1.305,0.038
	c-1.141,1.858-1.689,3.561-1.953,4.777l-0.182,0.004c0.063-0.576-0.1-1.088-0.49-1.369c-0.701-0.504-1.873-0.075-2.619,0.959
	c-0.744,1.035-0.779,2.284-0.08,2.789c0.703,0.504,1.875,0.076,2.621-0.959c0.061-0.086,0.117-0.174,0.17-0.263l0.387-0.009
	c-0.014,0.127-0.016,0.051-0.025,0.146c0,0-0.092,0.46-0.26,1.279c0,0,0.049,0.101,0.045,0.119
	c-1.387,6.802-7.574,37.238-7.598,37.242c-3.709,0.701-6.76,2.541-8.914,5.462c-5.375,7.29-4.047,19.03-3.396,21.774
	c0.98,4.143-0.289,6.257-0.303,6.278c-0.088,0.145-0.059,0.334,0.07,0.443c0.064,0.057,0.145,0.082,0.223,0.082
	c0.08,0,0.16-0.027,0.225-0.082c0.004-0.002,0.424-0.355,0.881-0.355c0.248,0,0.461,0.105,0.652,0.318
	c0.682,0.768,1.328,3.113,0.539,9.947c-0.963,8.326-3.051,9.57-4.209,9.57c-0.912,0-1.623-0.699-1.631-0.709
	c-0.066-0.066-0.154-0.1-0.244-0.1c-0.053,0-0.105,0.012-0.156,0.037c-0.133,0.066-0.207,0.213-0.184,0.359
	c0.551,3.525-1.215,7.217-1.23,7.254l-0.014,0.031c-2.939,7.813-3.619,15.619-1.963,22.574c0.111,0.461,1.184,4.635,4.975,8.703
	c1.904,2.045,4.164,3.689,6.719,4.887c1.41,0.664,2.918,1.189,4.508,1.58c0.113,0.41,0.283,0.736,0.508,0.967
	c0.27,0.275,0.619,0.42,1.012,0.42c0.549,0,1.195-0.293,1.766-0.787c0.822,0.1,1.662,0.166,2.518,0.203
	c-0.094,0.221-0.15,0.457-0.154,0.709c-0.002,0.152,0.016,0.301,0.049,0.443c-0.287,0.004-0.652,0.313-0.891,0.785
	c-0.285,0.566-0.275,1.146,0.02,1.295c0.246,0.125,0.609-0.09,0.889-0.484l0.557,0.219c-0.004,0.223-0.008,0.436-0.008,0.51
	c-0.004,0.172,0.387,0.322,0.928,0.381l-0.281,9.133c-0.244,0.117-0.416,0.365-0.416,0.656c0,0.082,0.018,0.162,0.043,0.236
	c-0.189,0.176-0.307,0.424-0.307,0.699c0,0.533,0.43,0.963,0.963,0.963c0.531,0,0.963-0.43,0.963-0.963
	c0-0.254-0.102-0.484-0.264-0.654c0.035-0.088,0.057-0.184,0.057-0.281c0-0.266-0.141-0.492-0.352-0.621l0.279-9.145
	c0.627-0.027,1.102-0.176,1.105-0.365c0.002-0.148,0.012-0.754,0.016-1.045c0.635-0.346,1.063-0.973,1.074-1.695
	c0.004-0.299-0.064-0.584-0.189-0.84c1.867-0.143,3.578-0.449,5.123-0.92c0.656,0.018,1.326,0.029,2.014,0.029
	c0.201,0,0.408-0.002,0.615-0.002c0.18,0.002,0.354,0.002,0.529,0.002c7.076,0,12.27-2.152,15.438-6.396
	c2.713-3.635,3.23-7.938,3.453-9.775C122.628,146.07,122.452,138.666,120.126,133.01z M91.3,170.131
	c-0.002,0.031-0.002,0.09-0.004,0.162l-0.338-0.133c0.063-0.146,0.104-0.293,0.127-0.43c0.082,0.105,0.172,0.199,0.273,0.287
	C91.321,170.053,91.3,170.09,91.3,170.131z"/>
<g>
	<path fill="#FFFFFF" d="M106.112,17.55c0.572,0.015,0.479,0.055,0.422,0.102c-6.293,4.602-7.449,11.681-7.545,12.848
		c0.164,0.044,0.33,0.093,0.498,0.146c0.072-0.714,1.016-8.586,8.127-13.366c0,0-0.396,0.199-0.916,0.244
		c-0.855,0.074-2.088-0.313-2.723-3.004c-0.797-4.052,1.223-4.776,1.684-4.888c-0.115-0.051-0.236-0.085-0.361-0.108
		c-0.49,0.127-2.621,0.92-1.824,4.965C104.075,17.04,105.265,17.528,106.112,17.55z"/>
	<path fill="#FFFFFF" d="M101.993,20.933c1.461-1.453,2.572-2.531,3.416-3.343c-0.26-0.042-0.357-0.099-0.363-0.093
		c-0.85,0.818-1.982,1.916-3.482,3.408c-3.725,3.707-4.604,7.545-4.809,9.19c0.119,0.013,0.264,0.028,0.428,0.05
		C97.384,28.513,98.251,24.657,101.993,20.933z"/>
	<path fill="#FFFFFF" d="M97.19,114.051c-1.531-1.93-3.107-0.48-3.254,0.094c-0.08,0.307-0.059,0.584,0.018,0.803
		c0.043,0.145,0.129,0.309,0.197,0.391c0.275,0.361,0.676,0.473,0.959,0.279c0.332-0.229,0.385-0.826,0.119-1.336
		c-0.035-0.063-0.072-0.125-0.111-0.182c0.209-0.346,0.754-0.59,1.26,0.127c0.756,1.068,0.629,1.953,0.398,7.572
		c-0.232,5.621,1.365,7.336,2.109,8.094c0.746,0.758,2.102,0.93,2.922,0.146c0.717-0.682,0.584-1.51,0.383-2.08
		c-0.129-0.365-0.459-0.67-0.678-0.77c-0.236-0.133-0.52-0.123-0.727,0.02c-0.398,0.275-0.502,0.92-0.229,1.441
		c0.135,0.258,0.334,0.436,0.549,0.52c0,0-0.564,1.219-1.711,0.324c-1.721-1.537-1.172-6.473-1.086-7.494
		C98.46,120.518,98.724,115.979,97.19,114.051z"/>
	<path fill="#FFFFFF" d="M83.927,112.402c-0.369-0.201-0.869-0.178-1.443,0.441l1.117-5.799c-0.115-0.006-0.23-0.01-0.348-0.016
		l14.504-75.206c-0.137-0.025-0.266-0.049-0.391-0.07l-14.98,75.267c0.297-0.002,0.584,0.004,0.867,0.012l-1.248,6.471
		c-1.029,1.822-1.293,5.332-1.344,6.555c0,0.014-0.002,0.033-0.002,0.049l-0.881,0.018l2.607-13.104
		c-0.117,0.002-0.234,0.004-0.352,0.006l14.992-75.324c-0.148-0.021-0.285-0.038-0.406-0.053l-15.336,75.412
		c-0.119,0.008-0.238,0.016-0.357,0.025l-2.656,13.066l-0.803,0.018l-0.17,0.77l0.881,0.111l0.785,5.705
		c-0.809,0.529-1.053-0.5-1.053-0.5c0.162-0.059,0.322-0.203,0.443-0.422c0.248-0.447,0.248-1.031-0.004-1.305
		c-0.129-0.145-0.328-0.174-0.508-0.074c-0.166,0.074-0.432,0.322-0.563,0.639c-0.203,0.496-0.387,1.223,0.043,1.885
		c0.406,0.629,1.137,0.703,1.721,0.361l1.439,10.475c-0.074-0.053-0.094-0.092-0.094-0.092c-0.141,3.135,3.482,11.463,4.311,17.49
		c0.434,3.148,0.516,6.535,0.439,10.143c-0.078,3.609,1.975,3.02,3.135,1.9c1.16-1.121-0.268-6.834-1.32-11.879
		c-1.055-5.047,0.117-15.859,0.025-16.535s-0.561-0.574-0.561-0.574c-0.582,0.039-1.104,0.064-1.58,0.078l-1.996-16.709l1.018,0.129
		l9.061,0.641l0.113-2.107l-9.148-0.256l-0.99,0.02l0.967-5.363c0.146-0.006,0.311-0.102,0.451-0.283
		c0.057-0.072,0.133-0.211,0.182-0.338c0.074-0.188,0.121-0.434,0.1-0.713c-0.016-0.188-0.145-0.484-0.363-0.721l0.986-5.465
		c-0.111-0.014-0.225-0.025-0.342-0.039L83.927,112.402z M80.126,124.463l-0.457-3.225l0.908,0.115l0.004,0.023
		C80.511,122.27,80.382,123.428,80.126,124.463z M80.989,124.24l2.006,14.096c-0.346-0.016-0.648-0.043-0.908-0.072l-1.766-12.43
		C80.546,125.43,80.776,124.91,80.989,124.24z M81.284,107.061c0.063-0.002,0.408-0.021,0.75-0.033l-2.609,13.102l-0.803,0.016
		L81.284,107.061z M79.315,121.193l0.576,4.068c-0.166,0.482-0.369,0.902-0.619,1.209l-0.74-5.377L79.315,121.193z M79.358,127.104
		c0.012-0.014,0.025-0.023,0.037-0.035c0.17-0.176,0.396-0.412,0.645-0.775l1.693,11.922c-0.396-0.063-0.678-0.137-0.877-0.209
		L79.358,127.104z M84.493,138.354c-0.426,0.008-0.807,0.006-1.148-0.006L81.22,123.42c0.139-0.557,0.266-1.199,0.371-1.939
		l0.9,0.113L84.493,138.354z M81.755,120.086c0.002-0.033,0.006-0.061,0.008-0.094c0.449-5.039,0.455-5.838,1.105-6.738
		c0.434-0.602,0.789-0.344,0.898-0.018c-0.033,0.047-0.066,0.098-0.098,0.152c-0.215,0.389-0.26,0.855-0.121,1.113l-1.004,5.566
		L81.755,120.086z"/>
	<path fill="#FFFFFF" d="M96.022,31.595L88.39,68.628c-3.828,0.705-6.887,2.576-9.109,5.59c-5.455,7.396-4.113,19.281-3.455,22.059
		c0.941,3.975-0.248,5.999-0.26,6.019c-0.182,0.287-0.123,0.666,0.135,0.887c0.129,0.109,0.287,0.166,0.447,0.166
		c0.162,0,0.324-0.057,0.455-0.17c0.08-0.068,0.385-0.271,0.654-0.271c0.1,0,0.232,0.023,0.395,0.205
		c0.42,0.471,1.303,2.354,0.455,9.68c-0.967,8.359-3.027,9.262-3.867,9.262c-0.746,0-1.381-0.6-1.389-0.605
		c-0.131-0.133-0.309-0.201-0.486-0.201c-0.105,0-0.213,0.023-0.311,0.074c-0.266,0.135-0.416,0.424-0.369,0.719
		c0.533,3.42-1.184,7.016-1.201,7.053l-0.025,0.057c-2.963,7.879-3.646,15.756-1.977,22.777c0.113,0.471,1.209,4.725,5.057,8.857
		c1.936,2.076,4.232,3.746,6.826,4.965c1.496,0.703,3.1,1.254,4.791,1.656c-0.094-0.221-0.168-0.473-0.221-0.76
		c-11.783-2.982-15.287-12.795-15.783-14.879c-0.572-2.41-2.41-10.785,1.951-22.373c0,0,1.836-3.789,1.262-7.459
		c0,0,0.811,0.809,1.875,0.809c1.535,0,3.604-1.678,4.551-9.873c1.051-9.082-0.402-10.652-1.533-10.652
		c-0.598,0-1.105,0.441-1.105,0.441s1.377-2.18,0.344-6.54c-0.982-4.146-2.688-23.852,11.744-26.764l-7.785,37.776
		c0.158-0.016,0.316-0.029,0.473-0.045l15.35-75.472C96.114,31.6,96.022,31.595,96.022,31.595z"/>
	<path fill="#FFFFFF" d="M108.804,132.699c-1.018-2.621-0.275-6.24-0.203-6.572c0.014-0.057,0.021-0.117,0.021-0.178
		c0-0.381-0.307-0.688-0.688-0.688l0,0c-0.139,0-0.268,0.039-0.375,0.111c-0.027,0.014-0.396,0.225-0.898,0.225
		c-1.043,0-3.541-1.031-4.238-10.6c-0.477-6.605,0.586-9.244,1.564-10.295c0.461-0.496,1.01-0.748,1.631-0.748
		c0.449,0,0.777,0.135,0.781,0.137c0.088,0.039,0.182,0.059,0.275,0.059c0.207,0,0.41-0.094,0.543-0.266
		c0.193-0.25,0.191-0.602-0.006-0.85c-0.707-0.902-0.119-3.858,0.525-5.669c1.084-3.055,2.717-9.277,1.449-16.625
		c-1.955-11.154-9.977-12.82-14.582-12.82h-0.002c-0.197,0-0.389,0.005-0.576,0.01l5.15-35.746
		c-0.139-0.045-0.273-0.084-0.408-0.122L85.218,107.18c1.846,0.219,3.07,0.584,3.07,0.584l5.639-39.141
		c0.219-0.008,0.443-0.013,0.676-0.013c4.689,0,12.064,1.74,13.904,12.248c1.256,7.281-0.42,13.465-1.418,16.277
		c0,0-1.68,4.718-0.416,6.325c0,0-0.438-0.193-1.055-0.193c-1.662,0-4.635,1.402-3.881,11.781
		c0.703,9.693,3.326,11.238,4.924,11.238c0.748,0,1.273-0.338,1.273-0.338s-0.928,4.029,0.229,6.998
		c2.219,5.699,2.83,13.273,2.295,19.047c-0.521,5.621-2.529,15.514-18.068,15.514c-0.432,0-0.869-0.008-1.322-0.021
		c-0.852-0.031-1.67-0.094-2.461-0.182c-0.041,0.057-0.084,0.109-0.131,0.156c-0.18,0.174-0.367,0.32-0.561,0.451
		c1.016,0.135,2.059,0.223,3.129,0.26c0.453,0.016,0.906,0.025,1.346,0.025c6.99,0,12.107-1.99,15.205-5.912
		c2.641-3.34,3.291-7.438,3.549-10.227C111.628,146.846,111.267,139.023,108.804,132.699z"/>
	<path fill="#FFFFFF" d="M98.433,31.975c-0.113-0.028-0.227-0.056-0.34-0.08l-14.492,75.15c0.447,0.021,0.873,0.055,1.275,0.096
		L98.433,31.975z"/>
</g>
</svg>
