<?xml version="1.0" encoding="utf-8"?>
<!-- Generator: Adobe Illustrator 15.0.0, SVG Export Plug-In . SVG Version: 6.00 Build 0)  -->
<!DOCTYPE svg PUBLIC "-//W3C//DTD SVG 1.1//EN" "http://www.w3.org/Graphics/SVG/1.1/DTD/svg11.dtd">
<svg version="1.1" id="Ebene_1" xmlns="http://www.w3.org/2000/svg" xmlns:xlink="http://www.w3.org/1999/xlink" x="0px" y="0px"
	 width="190px" height="190px" viewBox="0 0 190 190" enable-background="new 0 0 190 190" xml:space="preserve">
<g id="Orientierungskreise" display="none">
	<g id="Weißer_Kreis_x5F_Violin_9_" display="inline">
		<g>
			<path fill="#4D4D4F" d="M-1122.268,9.917c47.365,0,85.898,38.534,85.898,85.899s-38.534,85.897-85.898,85.897
				c-47.365,0-85.899-38.534-85.899-85.897C-1208.167,48.451-1169.633,9.917-1122.268,9.917 M-1122.268,9.69
				c-47.566,0-86.126,38.559-86.126,86.126c0,47.564,38.56,86.125,86.126,86.125s86.125-38.561,86.125-86.125
				C-1036.143,48.249-1074.702,9.69-1122.268,9.69L-1122.268,9.69z"/>
		</g>
	</g>
	<g id="Weißer_Kreis_x5F_Violin_10_" display="inline">
		<g>
			<path fill="#4D4D4F" d="M-1122.268,12.492c45.944,0,83.322,37.378,83.322,83.322s-37.378,83.322-83.322,83.322
				c-45.945,0-83.323-37.378-83.323-83.322C-1205.591,49.871-1168.212,12.492-1122.268,12.492 M-1122.268,12.272
				c-46.139,0-83.543,37.402-83.543,83.542c0,46.14,37.404,83.543,83.543,83.543c46.139,0,83.542-37.403,83.542-83.543
				S-1076.128,12.272-1122.268,12.272L-1122.268,12.272z"/>
		</g>
	</g>
	<g id="Weißer_Kreis_x5F_Violin_2_" display="inline">
		<g>
			<path fill="#4D4D4F" d="M-1122.268,232.007c47.365,0,85.898,38.534,85.898,85.899s-38.534,85.898-85.898,85.898
				c-47.365,0-85.899-38.535-85.899-85.898C-1208.167,270.542-1169.633,232.007-1122.268,232.007 M-1122.268,231.781
				c-47.566,0-86.126,38.559-86.126,86.125s38.56,86.125,86.126,86.125s86.125-38.559,86.125-86.125
				C-1036.143,270.339-1074.702,231.781-1122.268,231.781L-1122.268,231.781z"/>
		</g>
	</g>
	<g id="Weißer_Kreis_x5F_Violin_1_" display="inline">
		<g>
			<path fill="#4D4D4F" d="M-1122.268,234.583c45.944,0,83.322,37.378,83.322,83.323c0,45.943-37.378,83.322-83.322,83.322
				c-45.945,0-83.323-37.379-83.323-83.322C-1205.591,271.961-1168.212,234.583-1122.268,234.583 M-1122.268,234.363
				c-46.139,0-83.543,37.402-83.543,83.543c0,46.139,37.404,83.541,83.543,83.541c46.139,0,83.542-37.402,83.542-83.541
				C-1038.726,271.766-1076.128,234.363-1122.268,234.363L-1122.268,234.363z"/>
		</g>
	</g>
	<g id="Weißer_Kreis_x5F_Violin_6_" display="inline">
		<g>
			<path fill="#4D4D4F" d="M-1122.268,676.191c47.365,0,85.898,38.535,85.898,85.9c0,47.363-38.534,85.896-85.898,85.896
				c-47.365,0-85.899-38.533-85.899-85.896C-1208.167,714.727-1169.633,676.191-1122.268,676.191 M-1122.268,675.967
				c-47.566,0-86.126,38.559-86.126,86.125c0,47.564,38.56,86.125,86.126,86.125s86.125-38.561,86.125-86.125
				C-1036.143,714.523-1074.702,675.967-1122.268,675.967L-1122.268,675.967z"/>
		</g>
	</g>
	<g id="Weißer_Kreis_x5F_Violin_5_" display="inline">
		<g>
			<path fill="#4D4D4F" d="M-1122.268,678.768c45.944,0,83.322,37.379,83.322,83.324c0,45.943-37.378,83.32-83.322,83.32
				c-45.945,0-83.323-37.377-83.323-83.32C-1205.591,716.146-1168.212,678.768-1122.268,678.768 M-1122.268,678.549
				c-46.139,0-83.543,37.4-83.543,83.543c0,46.139,37.404,83.541,83.543,83.541c46.139,0,83.542-37.402,83.542-83.541
				C-1038.726,715.949-1076.128,678.549-1122.268,678.549L-1122.268,678.549z"/>
		</g>
	</g>
	<g id="Weißer_Kreis_x5F_Violin_8_" display="inline">
		<g>
			<path fill="#4D4D4F" d="M-1122.268,898.285c47.365,0,85.898,38.533,85.898,85.898s-38.534,85.898-85.898,85.898
				c-47.365,0-85.899-38.533-85.899-85.898S-1169.633,898.285-1122.268,898.285 M-1122.268,898.059
				c-47.566,0-86.126,38.559-86.126,86.127c0,47.564,38.56,86.125,86.126,86.125s86.125-38.561,86.125-86.125
				C-1036.143,936.617-1074.702,898.059-1122.268,898.059L-1122.268,898.059z"/>
		</g>
	</g>
	<g id="Weißer_Kreis_x5F_Violin_7_" display="inline">
		<g>
			<path fill="#4D4D4F" d="M-1122.268,900.859c45.944,0,83.322,37.379,83.322,83.324c0,45.943-37.378,83.322-83.322,83.322
				c-45.945,0-83.323-37.379-83.323-83.322C-1205.591,938.238-1168.212,900.859-1122.268,900.859 M-1122.268,900.641
				c-46.139,0-83.543,37.402-83.543,83.543c0,46.139,37.404,83.543,83.543,83.543c46.139,0,83.542-37.404,83.542-83.543
				C-1038.726,938.043-1076.128,900.641-1122.268,900.641L-1122.268,900.641z"/>
		</g>
	</g>
	<g id="Weißer_Kreis_x5F_Violin_4_" display="inline">
		<g>
			<path fill="#4D4D4F" d="M-1122.268,454.102c47.365,0,85.898,38.533,85.898,85.898c0,47.363-38.534,85.898-85.898,85.898
				c-47.365,0-85.899-38.535-85.899-85.898C-1208.167,492.635-1169.633,454.102-1122.268,454.102 M-1122.268,453.873
				c-47.566,0-86.126,38.561-86.126,86.127c0,47.564,38.56,86.125,86.126,86.125s86.125-38.561,86.125-86.125
				C-1036.143,492.434-1074.702,453.873-1122.268,453.873L-1122.268,453.873z"/>
		</g>
	</g>
	<g id="Weißer_Kreis_x5F_Violin_3_" display="inline">
		<g>
			<path fill="#4D4D4F" d="M-1122.267,456.676c45.944,0,83.322,37.379,83.322,83.324c0,45.943-37.378,83.322-83.322,83.322
				c-45.945,0-83.323-37.379-83.323-83.322C-1205.59,494.055-1168.212,456.676-1122.267,456.676 M-1122.267,456.457
				c-46.139,0-83.543,37.402-83.543,83.543c0,46.139,37.404,83.543,83.543,83.543c46.139,0,83.542-37.404,83.542-83.543
				C-1038.725,493.859-1076.128,456.457-1122.267,456.457L-1122.267,456.457z"/>
		</g>
	</g>
</g>
<path d="M101.841,171.506c-1.511-3.414-2.313-11.421-2.7-18.302c0.006-0.007,0.014-0.014,0.019-0.022
	c0.071-0.116,0.116-0.251,0.116-0.392c0-0.318,0-1.362,0-1.681c0-0.142-0.045-0.276-0.116-0.393
	c-0.042-0.066-0.094-0.127-0.149-0.184c-0.168-3.855-0.2-7.04-0.157-8.354c0.294-0.4,0.524-1.002,0.638-1.698
	c0.043-0.272,0.063-0.539,0.063-0.79c0-0.456-0.067-0.86-0.195-1.17c-0.064-0.155-0.145-0.286-0.244-0.388
	c-0.061-0.063-0.131-0.11-0.207-0.146c0.006-1.573,0.008-3.56,0.007-5.866c0.051-0.102,0.086-0.219,0.087-0.349l0,0l0.001-0.004l0,0
	v-0.002l0,0v-0.002c-0.001-0.132-0.036-0.254-0.089-0.357c-0.001-1.634-0.003-3.416-0.007-5.318c0.44-0.107,0.813-0.232,1.112-0.395
	l0,0c0.161-0.089,0.309-0.191,0.432-0.327c0.123-0.137,0.229-0.331,0.229-0.563v-0.002v-0.001v-0.001l0,0
	c0-0.14-0.039-0.269-0.098-0.379c-0.089-0.16-0.213-0.277-0.343-0.374h-0.001h0.001c-0.031-0.021-0.104-0.084-0.166-0.138
	c-0.028-0.024-0.054-0.047-0.075-0.064v-0.304v-0.668c0.15-0.058,0.292-0.119,0.418-0.187l0,0c0.179-0.098,0.339-0.209,0.475-0.359
	c0.135-0.148,0.25-0.362,0.25-0.616l0,0v-0.002l0,0v-0.001v-0.001v-0.003c0-0.151-0.043-0.294-0.107-0.413
	c-0.096-0.179-0.232-0.307-0.374-0.412c-0.075-0.053-0.155-0.103-0.239-0.148c-0.057-0.059-0.117-0.11-0.181-0.155l-0.001-0.001
	h0.001c-0.031-0.021-0.104-0.083-0.166-0.137c-0.028-0.024-0.054-0.047-0.075-0.065v-0.305v-3.739l0,0c0,0,0-0.026,0-0.074
	c0-0.532,0.027-3.923,0.658-7.498c0.208-1.183,0.359-2.288,0.473-3.28c0.045-0.405,0.313-1.774,0.586-2.796
	c0.026-0.1,0.096-0.264,0.187-0.459c0.272-0.593,0.735-1.492,0.835-2.261h0.001c0.062-0.325,0.116-0.755,0.116-1.193
	c-0.001-0.407-0.047-0.822-0.186-1.162c-0.068-0.17-0.163-0.324-0.289-0.445s-0.285-0.209-0.475-0.247l-0.024-0.002
	c-0.066,0.001-0.18-0.027-0.321-0.028c-0.119,0-0.262,0.025-0.406,0.113c-0.133,0.08-0.268,0.213-0.404,0.413v-0.003
	c-0.097-0.344-0.23-0.658-0.408-0.923c0.001,0,0.002,0,0.002,0c0.457-0.057,0.91-0.151,1.266-0.32
	c0.377-0.181,0.654-0.442,0.84-0.702c0.184-0.263,0.278-0.521,0.28-0.726l-0.001-0.013v-0.001c-0.008-0.362-0.168-0.607-0.32-0.741
	c-0.191-0.168-0.488-0.328-0.901-0.326c-0.222,0-0.478,0.045-0.767,0.154l0,0c-0.002,0-0.004,0-0.006,0.002l0,0
	c-0.441,0.145-0.98,0.563-1.428,0.949c-0.09,0.077-0.175,0.153-0.254,0.225c0-0.197,0-0.372,0-0.471
	c0-0.048-0.007-0.093-0.018-0.139c0.426-0.061,0.834-0.158,1.152-0.311c0.838-0.401,1.201-1.15,1.191-1.555
	c-0.011-0.454-0.232-0.715-0.363-0.831c-0.266-0.233-0.606-0.356-0.981-0.356c-0.254,0-0.528,0.055-0.815,0.165
	c-0.143,0.054-0.275,0.126-0.402,0.202c-0.016-5.277-0.029-10.404-0.037-15.051c0.029,0.053,0.059,0.102,0.09,0.145
	c0.134,0.182,0.288,0.287,0.431,0.342s0.273,0.06,0.363,0.06c0.087,0,0.228-0.001,0.384-0.048c0.237-0.07,0.514-0.253,0.717-0.653
	c0.201-0.401,0.34-1.011,0.342-1.967c0-1.266-0.107-2.233-0.304-2.978c-0.194-0.741-0.48-1.263-0.837-1.619
	c-0.648-0.649-0.761-1.316-0.762-1.723c0-0.43,0-1.779,0-2.823c0-0.373-0.082-0.622-0.207-0.784c-0.07-0.092-0.149-0.15-0.228-0.188
	c0-0.006,0-0.012,0-0.019c0.06-0.106,0.097-0.229,0.097-0.359c0-0.132-0.037-0.252-0.096-0.36c0.004-3.209,0.015-5.587,0.037-6.797
	c0.138-7.521,0.195-9.196,0.211-9.54c0.031-0.024,0.064-0.048,0.092-0.077c0.08-0.082,0.146-0.197,0.146-0.335
	c0-0.204,0-1.584,0-1.789c0-0.137-0.066-0.251-0.145-0.333c0.347-3.559-0.068-7.575-0.273-8.684
	c-0.057-0.306-0.132-1.583-0.211-3.336c0.008-0.006,0.017-0.011,0.024-0.018c0.038-0.035,0.073-0.074,0.103-0.126
	c0.028-0.051,0.049-0.114,0.049-0.182c0-0.155,0-1.441,0-1.598c0-0.066-0.021-0.13-0.049-0.182c-0.055-0.097-0.129-0.155-0.21-0.205
	c-0.004-0.003-0.009-0.005-0.013-0.007c-0.045-1.176-0.091-2.441-0.133-3.706c0.013-0.007,0.027-0.013,0.038-0.02
	c0.038-0.026,0.075-0.056,0.11-0.1c0.034-0.045,0.066-0.113,0.064-0.19c0-0.015,0-0.039,0-0.09
	c-0.009-0.376-0.047-1.917-0.084-3.373c-0.018-0.728-0.035-1.435-0.047-1.965c-0.008-0.265-0.013-0.482-0.017-0.639
	c-0.002-0.078-0.004-0.141-0.005-0.184v-0.052v-0.013v-0.004h-0.002c0.002-0.076-0.029-0.144-0.064-0.188
	c-0.059-0.074-0.119-0.109-0.185-0.141c-0.019-1.019-0.026-1.769-0.015-2.094c0.062-1.84-0.491-4.417-0.859-5.275
	c-0.309-0.723-1.701-0.881-2.138-0.913c-0.085-0.006-0.216-0.006-0.3,0c-0.438,0.032-1.826,0.191-2.136,0.913
	c-0.368,0.858-0.921,3.436-0.858,5.275c0.01,0.325,0.004,1.077-0.016,2.097c-0.025,0.014-0.051,0.025-0.074,0.04
	c-0.037,0.023-0.074,0.053-0.107,0.098c-0.034,0.044-0.064,0.112-0.064,0.188c-0.002,0.082-0.041,1.641-0.079,3.185
	c-0.019,0.771-0.038,1.541-0.052,2.123c-0.008,0.292-0.014,0.536-0.018,0.712c-0.002,0.088-0.004,0.158-0.006,0.208
	c0,0.05-0.001,0.075-0.001,0.09c0,0.077,0.03,0.146,0.065,0.19c0.047,0.058,0.096,0.093,0.146,0.12
	c-0.042,1.264-0.086,2.53-0.132,3.706c-0.043,0.025-0.082,0.052-0.118,0.084c-0.039,0.035-0.075,0.076-0.104,0.127
	c-0.028,0.052-0.048,0.115-0.048,0.182c0,0.156,0,1.442,0,1.598c0,0.067,0.02,0.131,0.048,0.182
	c0.034,0.061,0.077,0.105,0.126,0.144c-0.08,1.753-0.155,3.03-0.211,3.336c-0.205,1.108-0.621,5.127-0.273,8.686
	c-0.078,0.081-0.143,0.197-0.143,0.331c0,0.205,0,1.585,0,1.789c0,0.138,0.066,0.253,0.146,0.335
	c0.027,0.028,0.059,0.053,0.09,0.077c0.012,0.288,0.055,1.497,0.147,6.226h-0.246c-0.507,0-0.888,0.687-0.888,1.597
	c0,0.119,0.008,0.237,0.021,0.354c-0.206,0.706-0.777,2.429-1.881,4.238c-0.26,0.338-0.217,0.723-0.196,0.839v2.555
	c0,0.038,0.011,0.388,0.379,0.755c0.274,0.274,1.086,1.891,0.684,2.829c-0.11,0.258-0.245,0.562-0.388,0.882
	c-0.592,1.33-0.981,2.229-0.981,2.558v6.32c0,0.457-0.124,1.119-0.181,1.226l-0.031,0.053c-0.074,0.117-0.125,0.204-0.125,0.378
	v14.29c-0.01,0.051-0.014,0.101-0.014,0.149c0,0.144-0.029,0.288-0.242,0.3c-0.09-0.044-0.184-0.066-0.274-0.066
	c-0.034,0-0.067,0.004-0.1,0.01c-0.441,0.079-0.697,0.632-0.585,1.258c0.076,0.425,0.301,0.762,0.577,0.906
	c-0.397,0.248-0.622,0.762-0.525,1.297c0.092,0.511,0.442,0.902,0.876,1.02c-0.093,0.221-0.122,0.501-0.068,0.797
	c0.051,0.279,0.168,0.53,0.33,0.71l-0.004,0.03c-0.229,0.14-0.354,0.413-0.347,0.753c0.007,0.296,0.111,0.628,0.294,0.93
	c0.305,0.5,0.763,0.823,1.167,0.823c0.13,0,0.249-0.032,0.353-0.097c0.031-0.018,0.283-0.101,0.369-0.153
	c0.229-0.139,0.355-0.413,0.348-0.753c-0.006-0.298-0.111-0.628-0.295-0.931c-0.07-0.117-0.154-0.227-0.246-0.327
	c0.141-0.302,0.18-0.732,0.097-1.188c-0.042-0.235-0.116-0.461-0.212-0.658c0.201-0.497,0.307-1.358,0.312-2.564
	c0.166-0.218,0.522-0.855,0.522-2.299c0-0.199,0.029-0.307,0.056-0.359l0.035,0.048v5.343c0,0.27,0.221,0.49,0.491,0.49
	c0.204,0,0.379-0.125,0.453-0.303c0.088,0.035,0.184,0.056,0.283,0.056c0.076,0,0.148-0.015,0.219-0.035
	c-0.004,1.276-0.008,2.554-0.012,3.829c-0.051,0.001-0.1,0.004-0.151,0.004c-0.105-0.006-0.204-0.014-0.302-0.021v-1.018
	c0-0.132-0.057-0.25-0.146-0.334c-0.089-0.083-0.211-0.134-0.344-0.134s-0.255,0.051-0.345,0.134
	c-0.089,0.084-0.146,0.202-0.146,0.334v0.958c-0.265,0.068-0.46,0.306-0.465,0.592l0,0v0.047l0,0v0.002
	c0.005,0.285,0.2,0.522,0.465,0.591v2.476c-0.198,0.126-0.333,0.344-0.335,0.594v0.05c0.002,0.25,0.137,0.47,0.335,0.596v5.264
	c-0.198,0.127-0.333,0.344-0.335,0.595v0.051c0.002,0.25,0.137,0.469,0.335,0.595v4.406c-0.198,0.125-0.333,0.343-0.335,0.593v0.049
	c0.002,0.252,0.137,0.472,0.335,0.597v0.38c0,0.115,0.047,0.222,0.119,0.302c-0.265-0.063-0.532-0.111-0.802-0.141h-0.001
	c-0.129-0.013-0.249-0.018-0.36-0.018c-0.098,0-0.189,0.004-0.277,0.013c-0.363,0.033-0.62,0.184-0.776,0.388
	c-0.155,0.202-0.21,0.45-0.211,0.675c0,0.092,0.011,0.181,0.026,0.263l0,0c0,0.001,0,0.002,0,0.002c0,0.002,0,0.004,0,0.006h0.002
	c0.057,0.369,0.324,0.703,0.576,0.914c0.455,0.373,1.18,0.706,1.908,0.989c0.041,0.121,0.111,0.246,0.223,0.367
	c0.021,0.023,0.042,0.045,0.064,0.066c-0.582-0.23-1.175-0.4-1.744-0.46h-0.001h-0.001c-0.148-0.014-0.283-0.021-0.406-0.021
	c-0.491,0-0.791,0.104-0.977,0.269c-0.183,0.165-0.228,0.373-0.244,0.518l0,0v0.001c0,0.001,0,0.002,0,0.002l0,0
	c-0.01,0.056-0.014,0.112-0.014,0.168c0,0.256,0.086,0.498,0.227,0.717c0.248,0.389,0.668,0.717,1.162,1.006
	c0.247,0.144,0.514,0.276,0.788,0.399c0.04,0.068,0.087,0.137,0.147,0.203c0.21,0.23,0.555,0.45,1.113,0.644c0,0,0,0,0.002,0.001
	l-0.002-0.001l0,0c0.145,0.051,0.45,0.161,0.826,0.298c0,0.765-0.002,1.511-0.002,2.233c-0.008,0.001-0.017,0-0.023,0.002
	c-0.01,0.002-0.049,0.005-0.096,0.006c-0.072,0.004-0.169,0.006-0.26,0.01c-0.089,0.003-0.17,0.007-0.229,0.015
	c-0.137,0.023-0.258,0.092-0.357,0.195c-0.148,0.153-0.256,0.372-0.328,0.637c-0.074,0.267-0.112,0.579-0.112,0.922
	c0,0.25,0.021,0.517,0.065,0.789c0.096,0.607,0.285,1.144,0.525,1.536c0.121,0.196,0.254,0.359,0.398,0.474
	c0.126,0.103,0.267,0.167,0.412,0.182c0,4.709,0.014,7.839,0.049,8.476c0.03,0.549,0.039,1.705,0.016,3.258
	c-0.027,0-0.057,0.002-0.084,0.006c-0.01,0.002-0.049,0.005-0.096,0.007c-0.072,0.003-0.169,0.005-0.26,0.009
	c-0.089,0.003-0.17,0.007-0.229,0.016c-0.137,0.021-0.258,0.093-0.357,0.194c-0.148,0.152-0.256,0.372-0.328,0.637
	c-0.074,0.267-0.112,0.58-0.112,0.922c0,0.251,0.021,0.517,0.065,0.789c0.096,0.607,0.285,1.145,0.525,1.536
	c0.121,0.197,0.254,0.359,0.398,0.476c0.105,0.084,0.222,0.146,0.344,0.172c-0.01,0.208-0.018,0.417-0.027,0.63
	c-0.056,0.056-0.105,0.116-0.146,0.183c-0.073,0.116-0.117,0.251-0.117,0.393c0,0.318,0,1.362,0,1.681
	c0,0.141,0.044,0.275,0.117,0.392c0.004,0.008,0.01,0.014,0.015,0.021c-0.386,6.883-1.19,14.891-2.7,18.305
	c-1.64,0.752-2.649,1.771-2.649,2.896c0,2.305,4.229,4.173,9.448,4.173c5.218,0,9.449-1.868,9.449-4.173
	C104.494,173.278,103.482,172.258,101.841,171.506z M99.445,124.846v-0.158c0.058,0.027,0.111,0.055,0.15,0.079
	C99.557,124.791,99.503,124.817,99.445,124.846z M98.884,101.32c0.298,0.219,0.571,0.38,0.732,0.626l0.003,0.004
	c0.057,0.074,0.109,0.222,0.141,0.422c0.033,0.199,0.049,0.453,0.049,0.745c0,1.338-0.322,3.479-0.653,5.386
	c-0.113,0.556-0.208,1.105-0.288,1.642c-0.008-2.899-0.018-5.871-0.026-8.857C98.855,101.299,98.869,101.31,98.884,101.32z
	 M98.766,70.259c0.132,0.085,0.223,0.184,0.283,0.291c0.088,0.153,0.121,0.326,0.121,0.498c0,0.307-0.104,0.6-0.148,0.73
	c-0.014,0.047-0.063,0.131-0.127,0.247c-0.039,0.073-0.083,0.163-0.127,0.264c0-0.39-0.001-0.776-0.001-1.156
	c0.058-0.106,0.095-0.228,0.095-0.357s-0.037-0.247-0.096-0.353C98.766,70.366,98.766,70.313,98.766,70.259z M91.19,59.332
	c0-0.427,0.028-1.809,0.044-2.587h0.084c0,0.042,0.002,0.08,0.002,0.123c0.012,0.642,0.021,1.615,0.027,2.861h-0.205
	C91.172,59.625,91.19,59.494,91.19,59.332z M91.161,62.923h0.159c0,0.181,0.002,0.364,0.002,0.552h-0.279
	C91.074,63.168,91.125,63.005,91.161,62.923z M89.627,61.756c0-0.839,0.127-1.406,0.702-1.556c-0.272,0.401-0.499,1.041-0.485,1.774
	c-0.002,0.229-0.002,0.622-0.002,0.976C89.713,62.6,89.627,62.136,89.627,61.756z M91.039,70.366c-0.117,0-0.227,0.029-0.326,0.078
	c-0.088-0.134-0.238-0.223-0.41-0.223c-0.18,0-0.336,0.099-0.421,0.244c-0.04-0.086-0.07-0.161-0.07-0.213
	c0-0.602,0.321-0.906,0.952-0.906c0.12,0,0.203,0.014,0.205,0.014c0,0,0.238,0.012,0.246-0.11c0-0.077,0.039-3.261,0.039-3.261h0.07
	c0,1.371-0.002,2.855-0.002,4.434C91.234,70.386,91.139,70.366,91.039,70.366z M90.793,102.537c0.099-0.008,0.2-0.016,0.307-0.021
	h0.002h0.002c0.049-0.004,0.092-0.006,0.139-0.008c-0.002,0.851-0.004,1.7-0.008,2.547c-0.156-0.01-0.307-0.021-0.441-0.034V102.537
	z M90.793,106.361c0.133-0.014,0.283-0.025,0.438-0.034c-0.005,1.765-0.011,3.512-0.015,5.229c-0.15-0.007-0.294-0.019-0.424-0.032
	V106.361z M90.793,112.863c0.128-0.013,0.271-0.022,0.42-0.032c-0.004,1.483-0.008,2.943-0.012,4.369
	c-0.144-0.008-0.282-0.02-0.408-0.031V112.863z M90.451,119.282c0.074-0.022,0.141-0.06,0.195-0.11
	c0.09-0.083,0.146-0.202,0.146-0.333v-0.33c0.124-0.013,0.261-0.023,0.404-0.032c0,0.364-0.001,0.721-0.002,1.081
	C90.954,119.455,90.706,119.361,90.451,119.282z"/>
<g>
	<path fill="#FFFFFF" d="M95.045,152.195c-1.481-0.001-2.842-0.262-3.642-0.696c-0.04-0.021-0.077-0.043-0.114-0.064v1.355
		c0,0.045,0.016,0.093,0.046,0.142c0.069,0.112,0.209,0.226,0.41,0.336c0.698,0.38,1.933,0.607,3.3,0.609
		c1.041,0,2.018-0.134,2.748-0.376c0.34-0.113,0.604-0.241,0.784-0.384c0.079-0.062,0.139-0.124,0.177-0.186
		c0.029-0.049,0.045-0.097,0.045-0.141v-1.357c-0.215,0.13-0.476,0.249-0.781,0.349C97.216,152.048,96.161,152.195,95.045,152.195z"
		/>
	<path fill="#FFFFFF" d="M102.516,97.935c-0.063-0.251-0.166-0.459-0.309-0.596c-0.096-0.092-0.208-0.154-0.352-0.185
		c-0.105-0.004-0.201-0.026-0.299-0.025c-0.088,0-0.174,0.015-0.279,0.077c-0.104,0.063-0.225,0.178-0.359,0.387
		c-0.024,0.037-0.055,0.112-0.081,0.214c0.11,0.555,0.151,1.162,0.153,1.758c0,0.455-0.023,0.902-0.057,1.311
		c-0.036,0.439-0.072,1.434-0.184,2.805c-0.111,1.37-0.303,3.118-0.647,5.078c-0.632,3.575-0.659,6.966-0.659,7.498
		c0,0.048,0.002,0.073,0.002,0.073v0.001v4.657l0.045,0.014l0.006,0.003c0.1,0.043,0.184,0.089,0.251,0.13
		c0.026,0.018,0.054,0.04,0.078,0.071c0.024,0.033,0.05,0.074,0.05,0.139c0.002,0.034-0.01,0.072-0.03,0.104
		c-0.019,0.027-0.044,0.046-0.071,0.063l0.001,0.001c-0.003,0.002-0.006,0.003-0.009,0.005l-0.001,0.001h-0.001
		c-0.144,0.095-0.368,0.194-0.66,0.284c-0.449,0.139-1.045,0.257-1.738,0.339c-0.642,0.075-1.365,0.119-2.132,0.126
		c0.009,0.007,0.021,0.015,0.028,0.021c0.184,0.151,0.334,0.307,0.448,0.462c1.17-0.032,2.22-0.157,3.025-0.341
		c0.479-0.112,0.87-0.241,1.165-0.401h0.001l-0.002,0.002c0.147-0.081,0.269-0.166,0.367-0.276c0.093-0.102,0.166-0.245,0.165-0.398
		v-0.001v-0.002c0.001-0.092-0.026-0.187-0.068-0.262c-0.064-0.12-0.157-0.21-0.271-0.294l0.001,0.001
		c-0.046-0.033-0.118-0.096-0.183-0.151c-0.063-0.055-0.117-0.102-0.117-0.102l-0.041-0.037v-4.154c0-0.001-0.002-0.026-0.002-0.075
		c0.002-0.541,0.027-3.941,0.662-7.542c0.209-1.176,0.359-2.276,0.471-3.265c0.05-0.433,0.316-1.794,0.594-2.833
		c0.035-0.13,0.109-0.296,0.201-0.497c0.092-0.199,0.204-0.431,0.315-0.679c0.224-0.494,0.442-1.051,0.499-1.518l0.002-0.007
		c0.059-0.311,0.111-0.73,0.111-1.147C102.605,98.477,102.58,98.188,102.516,97.935z"/>
	<path fill="#FFFFFF" d="M100.674,121.255c0.002,0.024,0.004,0.049,0.004,0.075l0,0l0,0v0.002v0.001
		c0,0.232-0.105,0.427-0.229,0.563s-0.271,0.237-0.432,0.326l0,0c-0.325,0.175-0.734,0.309-1.228,0.423
		c-0.794,0.184-1.806,0.304-2.932,0.345c0.04,0.083,0.073,0.173,0.103,0.266c1.174-0.047,2.227-0.177,3.047-0.365
		c0.526-0.122,0.956-0.265,1.278-0.439h-0.001c0.162-0.089,0.295-0.183,0.404-0.302c0.102-0.113,0.182-0.269,0.181-0.438v-0.002
		v-0.003c0.001-0.099-0.029-0.202-0.074-0.285C100.761,121.359,100.719,121.305,100.674,121.255z"/>
	<path fill="#FFFFFF" d="M95.093,125.742v0.038c0.058,0.046,0.11,0.09,0.161,0.136c-0.014-0.061-0.027-0.12-0.039-0.176
		C95.173,125.74,95.134,125.742,95.093,125.742z"/>
	<path fill="#FFFFFF" d="M100.092,124.249L100.092,124.249c-0.045-0.034-0.117-0.096-0.182-0.15
		c-0.063-0.057-0.117-0.104-0.117-0.104l-0.041-0.038v-0.991c-0.1,0.031-0.201,0.063-0.307,0.092v0.605v0.378v0.037v0.384
		l0.045,0.014l0.006,0.003c0.1,0.043,0.184,0.088,0.251,0.129c0.026,0.019,0.054,0.04,0.078,0.071s0.05,0.074,0.05,0.137
		c0.002,0.034-0.01,0.073-0.03,0.104c-0.019,0.026-0.044,0.046-0.071,0.062l0.001,0.002c-0.003,0.002-0.006,0.004-0.009,0.005
		c-0.001,0.001-0.001,0.001-0.001,0.001h-0.001c-0.144,0.095-0.368,0.195-0.66,0.285c-0.449,0.139-1.045,0.256-1.738,0.339
		c-0.255,0.029-0.525,0.054-0.805,0.075v0.493c0.827-0.059,1.568-0.163,2.175-0.301c0.479-0.11,0.87-0.242,1.165-0.401h0.001
		c0.147-0.08,0.268-0.166,0.365-0.274c0.093-0.104,0.166-0.245,0.165-0.398v-0.002v-0.002c0.001-0.093-0.026-0.185-0.068-0.261
		C100.299,124.421,100.206,124.332,100.092,124.249z"/>
	<path fill="#FFFFFF" d="M90.188,82.41h0.005c0.008,0.001,0.055-0.004,0.115-0.011c0.063-0.007,0.143-0.016,0.238-0.027
		c0.191-0.021,0.439-0.043,0.708-0.059c0.301-0.023,0.57-0.035,0.813-0.035c0.656,0,1.112,0.08,1.447,0.198l0.049,0.017l0.021,0.048
		c0.217,0.46,0.681,0.779,1.224,0.779c0.373,0,0.709-0.15,0.954-0.396c0.244-0.245,0.396-0.582,0.396-0.954
		c0-0.373-0.151-0.709-0.396-0.955c-0.245-0.245-0.581-0.395-0.954-0.395c-0.511,0-0.952,0.282-1.184,0.699l-0.021,0.038
		l-0.041,0.017c-0.532,0.217-1.27,0.408-2.304,0.408h-0.003l-0.004-0.001c-0.4-0.021-0.759-0.065-0.945-0.086
		c-0.061-0.008-0.107-0.012-0.115-0.012h-0.005c-0.188,0-0.343,0.152-0.345,0.344v0.038C89.846,82.258,90.001,82.411,90.188,82.41z"
		/>
	<path fill="#FFFFFF" d="M89.721,77.365c0.003,0.259,0.215,0.466,0.474,0.464c0.085-0.002,0.536-0.069,1.066-0.098
		c0.618-0.011,1.351,0.044,1.793,0.331c0.022,0.014,0.083,0.084,0.093,0.104c0.02,0.039,0.043,0.075,0.064,0.111
		c0.01,0.015,0.018,0.031,0.027,0.046c0.042,0.065,0.088,0.128,0.137,0.188c0.004,0.005,0.007,0.01,0.011,0.014
		c0.28,0.329,0.671,0.558,1.12,0.621c0.018,0.003,0.036,0.002,0.055,0.005c0.059,0.006,0.117,0.013,0.178,0.014
		c0.011,0,0.02-0.001,0.03-0.001c0.007,0,0.013,0.001,0.019,0.001c0.028,0,0.057-0.004,0.084-0.005
		c0.023-0.002,0.045-0.002,0.067-0.005c0.051-0.004,0.101-0.012,0.149-0.021c0.007-0.002,0.014-0.002,0.02-0.004
		c0.766-0.146,1.355-0.775,1.451-1.56c0.002-0.009,0.004-0.019,0.004-0.027c0.006-0.041,0.008-0.083,0.008-0.123
		c0.002-0.019,0.004-0.036,0.004-0.056c0-0.006,0-0.033,0-0.041c0-0.019-0.002-0.036-0.004-0.055c0-0.042-0.002-0.084-0.008-0.122
		c0-0.011-0.002-0.02-0.004-0.028c-0.096-0.785-0.686-1.414-1.451-1.562c-0.006-0.001-0.013-0.002-0.02-0.003
		c-0.049-0.01-0.099-0.017-0.149-0.021c-0.022-0.002-0.044-0.003-0.067-0.003c-0.027-0.002-0.056-0.006-0.084-0.006
		c-0.006,0-0.012,0-0.019,0c-0.011,0-0.02,0-0.03,0c-0.061,0-0.119,0.008-0.178,0.015c-0.019,0.002-0.037,0.002-0.055,0.004
		c-0.449,0.063-0.84,0.292-1.12,0.621c-0.004,0.005-0.007,0.01-0.011,0.015c-0.049,0.059-0.095,0.121-0.137,0.187
		c-0.01,0.014-0.018,0.031-0.027,0.045c-0.021,0.038-0.045,0.074-0.064,0.113c-0.01,0.019-0.07,0.09-0.093,0.104
		c-0.442,0.285-1.175,0.34-1.793,0.33c-0.53-0.028-0.981-0.096-1.066-0.097c-0.259-0.003-0.471,0.204-0.474,0.464
		C89.721,77.33,89.721,77.358,89.721,77.365z M94.745,76.063c0.704-0.008,1.283,0.559,1.292,1.267
		c0.01,0.707-0.553,1.287-1.257,1.295s-1.282-0.56-1.292-1.267S94.041,76.07,94.745,76.063z"/>
	<path fill="#FFFFFF" d="M89.721,85.771c0.003,0.261,0.215,0.468,0.474,0.465c0.085-0.001,0.536-0.07,1.066-0.098
		c0.618-0.01,1.351,0.045,1.793,0.329c0.022,0.016,0.083,0.086,0.093,0.104c0.02,0.039,0.043,0.074,0.064,0.111
		c0.01,0.016,0.018,0.029,0.027,0.045c0.042,0.066,0.088,0.129,0.137,0.188c0.004,0.005,0.007,0.01,0.011,0.014
		c0.28,0.329,0.671,0.559,1.12,0.621c0.018,0.003,0.036,0.003,0.055,0.005c0.059,0.007,0.117,0.015,0.178,0.016
		c0.011,0,0.02-0.002,0.03-0.002c0.007,0,0.013,0.002,0.019,0.002c0.028-0.001,0.057-0.004,0.084-0.006
		c0.023-0.001,0.045-0.002,0.067-0.004c0.051-0.005,0.101-0.013,0.149-0.021c0.007,0,0.014-0.002,0.02-0.002
		c0.766-0.147,1.355-0.779,1.451-1.562c0.002-0.009,0.004-0.019,0.004-0.028c0.006-0.04,0.008-0.08,0.008-0.123
		c0.002-0.018,0.004-0.037,0.004-0.056c0-0.007,0-0.034,0-0.041c0-0.019-0.002-0.036-0.004-0.055c0-0.041-0.002-0.082-0.008-0.123
		c0-0.01-0.002-0.019-0.004-0.028c-0.096-0.783-0.686-1.413-1.451-1.559c-0.006-0.002-0.013-0.002-0.02-0.004
		c-0.049-0.009-0.099-0.017-0.149-0.021c-0.022-0.003-0.044-0.003-0.067-0.004c-0.027-0.002-0.056-0.005-0.084-0.005
		c-0.006-0.001-0.012,0.001-0.019,0.001c-0.011,0-0.02-0.002-0.03-0.001c-0.061,0-0.119,0.007-0.178,0.014
		c-0.019,0.002-0.037,0.002-0.055,0.005c-0.449,0.063-0.84,0.292-1.12,0.621c-0.004,0.005-0.007,0.01-0.011,0.014
		c-0.049,0.061-0.095,0.123-0.137,0.188c-0.01,0.016-0.018,0.031-0.027,0.046c-0.021,0.037-0.045,0.073-0.064,0.111
		c-0.01,0.02-0.07,0.089-0.093,0.104c-0.442,0.286-1.175,0.341-1.793,0.329c-0.53-0.027-0.981-0.097-1.066-0.097
		c-0.259-0.003-0.471,0.206-0.474,0.464C89.721,85.735,89.721,85.763,89.721,85.771z M94.745,84.47
		c0.704-0.008,1.283,0.559,1.292,1.265c0.01,0.707-0.553,1.287-1.257,1.296c-0.704,0.008-1.282-0.56-1.292-1.267
		S94.041,84.478,94.745,84.47z"/>
	<path fill="#FFFFFF" d="M95.045,32.795c0.93,0,1.801-0.066,2.453-0.186c0.308-0.057,0.545-0.121,0.708-0.191
		c0.048-0.021,0.08-0.037,0.101-0.051v-1.298c-0.187,0.063-0.41,0.119-0.679,0.169c-0.693,0.126-1.61,0.196-2.583,0.197
		c-1.287-0.001-2.469-0.126-3.16-0.333c-0.035-0.012-0.07-0.021-0.102-0.033v1.298c0.045,0.028,0.135,0.073,0.309,0.126
		C92.721,32.682,93.824,32.795,95.045,32.795z"/>
	<path fill="#FFFFFF" d="M98.245,26.422c-0.002-0.117-0.017-0.713-0.036-1.479c-0.287,0.045-0.631,0.089-1.024,0.125
		c-0.257,0.024-1.046-0.417-1.046-1.454c0-0.881,0.787-1.29,1.04-1.317c0.37-0.035,0.694-0.09,0.962-0.143
		c-0.021-0.86-0.037-1.481-0.044-1.795c-0.68,0.295-2.603,0.313-3.052,0.313s-2.373-0.018-3.053-0.313
		c-0.008,0.315-0.023,0.942-0.045,1.812c0.268,0.046,0.586,0.091,0.953,0.126c0.254,0.027,1.041,0.437,1.041,1.317
		c0,1.037-0.791,1.479-1.048,1.454c-0.388-0.036-0.728-0.079-1.015-0.124c-0.019,0.764-0.033,1.36-0.035,1.478
		c0.154,0.144,1.352,0.343,3.201,0.343S98.091,26.565,98.245,26.422z"/>
	<path fill="#FFFFFF" d="M95.045,47.487c1.049,0,2.032-0.087,2.771-0.245c0.348-0.075,0.617-0.158,0.8-0.252
		c0.101-0.05,0.146-0.089,0.162-0.108v-1.448c-0.217,0.091-0.484,0.17-0.814,0.241c-0.784,0.166-1.82,0.259-2.918,0.261
		c-1.455-0.002-2.789-0.165-3.569-0.44c-0.06-0.019-0.113-0.039-0.165-0.062v1.448c0.037,0.038,0.138,0.114,0.4,0.208
		C92.42,47.338,93.666,47.487,95.045,47.487z"/>
	<path fill="#FFFFFF" d="M89.967,72.211c-0.197,0-0.359,0.159-0.363,0.359v0.041c0.004,0.2,0.166,0.36,0.365,0.36h0.003
		c0.009,0,0.058-0.004,0.121-0.012c0.065-0.008,0.151-0.017,0.251-0.028c0.199-0.021,0.46-0.047,0.742-0.063
		c0.316-0.025,0.6-0.037,0.854-0.037c0.689,0,1.169,0.085,1.521,0.209l0.05,0.018l0.023,0.048c0.127,0.271,0.34,0.496,0.598,0.64
		c-0.023-0.144-0.037-0.288-0.039-0.42c0-0.024,0.002-0.048,0.002-0.071c0.033-0.981,0.654-1.768,0.801-1.941v-0.216
		c-0.025-0.002-0.051-0.004-0.077-0.004c-0.536,0-0.999,0.295-1.241,0.732l-0.022,0.04l-0.042,0.018
		c-0.561,0.229-1.334,0.429-2.419,0.429h-0.004h-0.003c-0.423-0.022-0.797-0.068-0.993-0.09c-0.063-0.008-0.112-0.012-0.121-0.012
		H89.967z"/>
	<path fill="#FFFFFF" d="M90.058,73.223v3.403c0.046-0.006,0.092-0.012,0.14-0.012c0.039,0,0.1,0.008,0.231,0.021
		c0.034,0.004,0.077,0.008,0.12,0.014v-3.48c-0.178,0.018-0.325,0.035-0.427,0.047C90.096,73.219,90.078,73.221,90.058,73.223z"/>
	<path fill="#FFFFFF" d="M90.058,78.062v3.396c0.042-0.011,0.086-0.018,0.131-0.018h0.008c0.034,0.001,0.075,0.006,0.14,0.014
		c0.057,0.006,0.129,0.015,0.213,0.023v-3.438c-0.043,0.004-0.086,0.009-0.121,0.014c-0.131,0.016-0.191,0.021-0.239,0.021
		C90.145,78.074,90.1,78.07,90.058,78.062z"/>
	<path fill="#FFFFFF" d="M90.196,82.655L90.196,82.655h-0.002h-0.006c-0.045,0-0.089-0.006-0.131-0.017v2.394
		c0.046-0.009,0.092-0.014,0.14-0.014c0.039,0,0.1,0.007,0.231,0.022c0.034,0.004,0.077,0.008,0.12,0.013V82.62
		c-0.084,0.009-0.156,0.017-0.213,0.022C90.271,82.65,90.23,82.655,90.196,82.655z"/>
	<path fill="#FFFFFF" d="M90.058,86.466v10.938c0,0.136,0.11,0.244,0.245,0.244s0.244-0.108,0.246-0.244V86.445
		c-0.043,0.004-0.086,0.009-0.121,0.013c-0.131,0.015-0.191,0.021-0.239,0.022C90.145,86.48,90.1,86.475,90.058,86.466z"/>
	<path fill="#FFFFFF" d="M90.371,71.994c0.055,0.006,0.113,0.012,0.178,0.018v-1.298c-0.002-0.136-0.111-0.246-0.246-0.246
		s-0.245,0.11-0.245,0.246v1.245c0.021,0.002,0.038,0.005,0.064,0.006C90.188,71.973,90.271,71.982,90.371,71.994z"/>
	<path fill="#FFFFFF" d="M87.506,97.077c0.045-0.008,0.086-0.023,0.128-0.038c0,0.016,0,0.034,0,0.05
		c-0.284,0.074-0.444,0.496-0.36,0.965c0.053,0.291,0.189,0.532,0.354,0.668c-0.009,0.045-0.027,0.151-0.044,0.285
		c-0.032,0.011-0.066,0.02-0.096,0.038c-0.318,0.193-0.307,0.797,0.027,1.347c0.336,0.549,0.865,0.839,1.184,0.645
		c0.041-0.024,0.291-0.106,0.369-0.152c0.317-0.194,0.305-0.796-0.03-1.348c-0.101-0.166-0.222-0.304-0.346-0.417
		c0.182-0.219,0.256-0.678,0.165-1.183c-0.048-0.268-0.137-0.504-0.244-0.691c0.178-0.354,0.34-1.104,0.34-2.665
		c0,0,0.521-0.49,0.521-2.208c0-0.577,0.226-0.651,0.337-0.652v-5.35c-0.198-0.126-0.333-0.345-0.335-0.596v-0.05
		c0.002-0.249,0.137-0.468,0.335-0.594v-2.615c-0.128-0.107-0.212-0.266-0.213-0.445l0,0v-0.002v-0.043v-0.001
		c0.001-0.18,0.085-0.338,0.213-0.444v-3.616c-0.198-0.127-0.333-0.345-0.335-0.595v-0.05c0.002-0.249,0.137-0.468,0.335-0.594
		v-3.52c-0.265-0.068-0.46-0.306-0.465-0.592l0,0v-0.002v-0.045v-0.001c0.005-0.286,0.2-0.523,0.465-0.592v-1.105
		c-0.132-0.219-0.248-0.425-0.245-0.616c0.021-1.381,1.441-1.134,1.441-1.134v-3.377h0.461c0,0,0.646,0.016,0.646-0.944
		c0-0.962-0.615-1.078-0.615-1.078s-0.328,0-0.724,0c0.039-0.675,0.155-0.943,0.251-1.044c0.1,0,0.283,0,0.342,0
		c0.354,0,0.641-0.604,0.641-1.352c0-0.743-0.287-1.349-0.641-1.349c-0.07,0-0.324,0-0.394,0c-0.304,0-0.907,0.839-0.888,1.994
		c-0.002,0.49,0,1.715,0,1.715c-0.477-0.202-0.705-1.316-0.705-1.929c0-0.649,0.027-1.748,1.143-1.835
		c0.047-0.004,0.227-0.143,0.391-0.191c0.036-0.086,0.062-0.213,0.062-0.397c0-0.459,0.03-1.988,0.049-2.833
		c0.101,0,0.284,0,0.343,0c0.354,0,0.641-0.604,0.641-1.349c0-0.745-0.287-1.351-0.641-1.351c-0.07,0-0.324,0-0.394,0
		c-0.354,0-0.643,0.605-0.643,1.351c0,0.13,0.009,0.255,0.025,0.374c-0.183,0.639-0.767,2.458-1.927,4.36
		c-0.246,0.307-0.154,0.674-0.154,0.674v2.578c0,0,0,0.276,0.308,0.583c0.307,0.306,1.196,2.022,0.736,3.097
		c-0.461,1.075-1.351,2.946-1.351,3.344c0,0.401,0,5.86,0,6.32s-0.122,1.196-0.214,1.349c-0.092,0.154-0.123,0.185-0.123,0.308
		c0,0.079,0,8.295,0,14.313c-0.009,0.038-0.013,0.079-0.013,0.126c0,0.053-0.008,0.095-0.016,0.138
		c0.277-0.307,0.6-0.94,0.601-2.242v-0.001c0-1.796,0-5.982,0-7.965c0-0.661,0-1.074,0-1.074c0-0.053,0.042-0.093,0.093-0.093
		s0.092,0.04,0.092,0.092c0,0,0,0.414,0,1.075c0,0.66,0,1.566,0,2.547c0,1.961,0,4.22,0,5.418v0.001
		c0.001,1.422-0.381,2.106-0.711,2.432l-0.006,0.005c-0.006,0.003-0.254,0.221-0.602,0.212c-0.087-0.052-0.18-0.076-0.271-0.06
		c-0.301,0.054-0.474,0.49-0.386,0.974c0.086,0.483,0.4,0.832,0.7,0.777c0.013-0.002,0.024-0.009,0.035-0.013
		c0.022,0.101,0.03,0.2,0.032,0.288c-0.012,0.001-0.023,0.001-0.035,0.003c-0.476,0.085-0.78,0.6-0.681,1.148
		C86.565,96.788,87.031,97.163,87.506,97.077z"/>
	<path fill="#FFFFFF" d="M100.03,91.568c-0.224,0-0.468,0.051-0.729,0.148c-0.842,0.32-1.415,1.192-1.681,1.683L97.6,93.438
		l-0.043,0.018c-1.256,0.485-2.53,0.731-3.786,0.731c-0.485-0.001-0.896-0.077-1.219-0.228c-1.235-0.579-1.434-2.476-1.465-3.044
		l-0.002-0.037l-0.005-0.054v1.819c0,0.021-0.002,0.039-0.002,0.068c0,0.118,0.012,0.306,0.064,0.531l0.014,0.055
		c0.077,0.334,0.149,0.647,0.566,1c0.484,0.408,1.189,0.624,2.039,0.624c1.338-0.002,2.585-0.227,3.82-0.688l0.021-0.008h0.021
		c0.767-0.005,1.814-0.075,2.454-0.382c0.756-0.361,1.058-1.044,1.051-1.328c-0.009-0.359-0.178-0.562-0.279-0.65
		C100.626,91.668,100.35,91.568,100.03,91.568z"/>
	<path fill="#FFFFFF" d="M93.096,96.011c0.584,0.112,1.254,0.174,1.949,0.175c1.047,0,2.037-0.14,2.774-0.384
		c0.279-0.093,0.517-0.199,0.702-0.313c0.016-0.014,0.041-0.04,0.076-0.074v-0.593c-0.203,0.122-0.451,0.233-0.74,0.33
		c-0.758,0.251-1.757,0.389-2.813,0.389c-1.402-0.001-2.69-0.247-3.447-0.657c-0.037-0.021-0.07-0.041-0.105-0.062v0.62l0.013,0.007
		l0.155,0.094C92.014,95.735,92.512,95.9,93.096,96.011z"/>
	<path fill="#FFFFFF" d="M98.686,95.674l-0.011,0.012l-0.015,0.008c-0.207,0.128-0.465,0.243-0.764,0.341
		c-0.771,0.256-1.783,0.397-2.852,0.397c-1.422-0.002-2.731-0.253-3.506-0.675l-0.162-0.099v0.637
		c0.242,0.159,1.438,0.845,4.004,0.845c0.83,0,1.844-0.201,3.01-0.593c0.086-0.158,0.172-0.288,0.256-0.395l0.005-0.006
		c0.214-0.244,0.479-0.325,0.694-0.324c0.168,0.001,0.308,0.045,0.401,0.096c0.156,0.088,0.292,0.205,0.411,0.338
		c0.484-0.05,0.982-0.142,1.34-0.313c0.705-0.339,0.986-0.959,0.98-1.214c-0.007-0.299-0.133-0.47-0.236-0.563
		c-0.201-0.176-0.451-0.266-0.739-0.266c-0.209,0-0.439,0.047-0.687,0.141C100.042,94.286,98.699,95.659,98.686,95.674z"/>
	<path fill="#FFFFFF" d="M91.261,106.099c0.618-0.012,1.351,0.044,1.793,0.33c0.022,0.015,0.083,0.085,0.093,0.104
		c0.02,0.039,0.043,0.075,0.064,0.11c0.01,0.016,0.018,0.031,0.027,0.047c0.042,0.065,0.088,0.128,0.137,0.188
		c0.004,0.005,0.007,0.01,0.011,0.014c0.28,0.329,0.671,0.559,1.12,0.621c0.018,0.003,0.036,0.003,0.055,0.005
		c0.059,0.007,0.117,0.014,0.178,0.015c0.011,0,0.02-0.001,0.03-0.001c0.007,0,0.013,0.001,0.019,0.001
		c0.028,0,0.057-0.004,0.084-0.005c0.023-0.002,0.045-0.002,0.067-0.005c0.051-0.005,0.101-0.013,0.149-0.021
		c0.007-0.002,0.014-0.002,0.02-0.004c0.766-0.146,1.355-0.776,1.451-1.56c0.002-0.009,0.004-0.019,0.004-0.028
		c0.006-0.04,0.008-0.081,0.008-0.124c0.002-0.018,0.004-0.035,0.004-0.055c0-0.006,0-0.034,0-0.041
		c0-0.019-0.002-0.036-0.004-0.056c0-0.041-0.002-0.081-0.008-0.122c0-0.01-0.002-0.019-0.004-0.028
		c-0.096-0.783-0.686-1.413-1.451-1.561c-0.006-0.001-0.013-0.002-0.02-0.002c-0.049-0.01-0.099-0.018-0.149-0.022
		c-0.022-0.002-0.044-0.002-0.067-0.003c-0.027-0.002-0.056-0.006-0.084-0.006c-0.006,0-0.012,0.001-0.019,0.001
		c-0.011,0-0.02-0.001-0.03-0.001c-0.061,0.001-0.119,0.008-0.178,0.014c-0.019,0.002-0.037,0.002-0.055,0.006
		c-0.449,0.062-0.84,0.291-1.12,0.621c-0.004,0.005-0.007,0.01-0.011,0.014c-0.049,0.061-0.095,0.123-0.137,0.188
		c-0.01,0.014-0.018,0.03-0.027,0.046c-0.021,0.037-0.045,0.073-0.064,0.111c-0.01,0.02-0.07,0.09-0.093,0.104
		c-0.442,0.285-1.175,0.339-1.793,0.328c-0.271-0.014-0.521-0.037-0.712-0.06V102.3c0.161-0.016,0.343-0.03,0.537-0.04
		c0.316-0.026,0.6-0.037,0.854-0.037c0.689,0,1.169,0.083,1.521,0.207l0.05,0.018l0.023,0.05c0.227,0.483,0.715,0.819,1.284,0.819
		c0.394,0,0.745-0.159,1.002-0.415c0.257-0.257,0.415-0.61,0.415-1.002c0-0.393-0.158-0.746-0.415-1.002
		c-0.257-0.258-0.608-0.415-1.002-0.415c-0.536-0.001-0.999,0.296-1.241,0.733l-0.022,0.04l-0.042,0.018
		c-0.561,0.228-1.334,0.429-2.419,0.429h-0.004h-0.003c-0.194-0.01-0.376-0.025-0.537-0.042v-1.254
		c-0.002-0.058-0.025-0.112-0.07-0.153c-0.043-0.043-0.105-0.069-0.176-0.069s-0.133,0.026-0.176,0.069
		c-0.045,0.041-0.069,0.096-0.069,0.153v1.2c-0.045-0.005-0.079-0.008-0.086-0.008h-0.005c-0.197,0-0.359,0.16-0.363,0.361v0.041
		c0.004,0.2,0.166,0.359,0.365,0.359h0.005c0.01,0,0.042-0.004,0.084-0.007v2.894c-0.192,0.056-0.334,0.23-0.337,0.441
		c0,0.007,0,0.036,0,0.044c0.003,0.21,0.145,0.386,0.337,0.442v5.544c-0.192,0.057-0.334,0.231-0.337,0.444c0,0.006,0,0.033,0,0.041
		c0.003,0.212,0.145,0.388,0.337,0.444v4.746c-0.192,0.057-0.334,0.23-0.337,0.443c0,0.005,0,0.033,0,0.041
		c0.003,0.212,0.145,0.389,0.337,0.445v0.515c0,0.06,0.024,0.113,0.069,0.153c0.043,0.042,0.105,0.068,0.176,0.068
		s0.133-0.026,0.176-0.068c0.045-0.04,0.068-0.094,0.07-0.153v-0.531c0.191-0.021,0.44-0.046,0.712-0.061
		c0.618-0.01,1.351,0.045,1.793,0.331c0.022,0.014,0.083,0.083,0.093,0.102c0.02,0.039,0.043,0.075,0.064,0.112
		c0.01,0.015,0.018,0.031,0.027,0.046c0.042,0.065,0.088,0.127,0.137,0.187c0.004,0.005,0.007,0.01,0.011,0.015
		c0.28,0.329,0.671,0.56,1.12,0.622c0.018,0.002,0.036,0.002,0.055,0.004c0.059,0.008,0.117,0.015,0.178,0.017
		c0.011,0,0.02-0.002,0.03-0.002c0.007,0,0.013,0.002,0.019,0.002c0.028-0.001,0.057-0.005,0.084-0.006
		c0.023-0.003,0.045-0.003,0.067-0.005c0.051-0.006,0.101-0.012,0.149-0.021c0.007,0,0.014-0.002,0.02-0.004
		c0.766-0.146,1.355-0.776,1.451-1.559c0.002-0.01,0.004-0.02,0.004-0.03c0.006-0.039,0.008-0.082,0.008-0.123
		c0.002-0.019,0.004-0.036,0.004-0.056c0-0.007,0-0.034,0-0.04c0-0.019-0.002-0.036-0.004-0.056c0-0.041-0.002-0.082-0.008-0.123
		c0-0.009-0.002-0.019-0.004-0.028c-0.096-0.781-0.686-1.413-1.451-1.56c-0.006-0.001-0.013-0.002-0.02-0.003
		c-0.049-0.01-0.099-0.017-0.149-0.021c-0.022-0.002-0.044-0.003-0.067-0.004c-0.027-0.002-0.056-0.005-0.084-0.006
		c-0.006,0-0.012,0.001-0.019,0.001c-0.011,0-0.02-0.001-0.03-0.001c-0.061,0.001-0.119,0.009-0.178,0.016
		c-0.019,0.001-0.037,0.001-0.055,0.004c-0.449,0.063-0.84,0.292-1.12,0.622c-0.004,0.006-0.007,0.01-0.011,0.016
		c-0.049,0.059-0.095,0.12-0.137,0.187c-0.01,0.014-0.018,0.03-0.027,0.045c-0.021,0.037-0.045,0.073-0.064,0.111
		c-0.01,0.019-0.07,0.09-0.093,0.104c-0.442,0.286-1.175,0.34-1.793,0.33c-0.271-0.015-0.521-0.039-0.712-0.061v-4.777
		c0.191-0.021,0.44-0.047,0.712-0.062c0.618-0.009,1.351,0.045,1.793,0.331c0.022,0.013,0.083,0.083,0.093,0.103
		c0.02,0.039,0.043,0.074,0.064,0.111c0.01,0.016,0.018,0.031,0.027,0.046c0.042,0.065,0.088,0.127,0.137,0.187
		c0.004,0.005,0.007,0.01,0.011,0.015c0.28,0.331,0.671,0.56,1.12,0.623c0.018,0.002,0.036,0.002,0.055,0.004
		c0.059,0.007,0.117,0.014,0.178,0.016c0.011,0,0.02-0.002,0.03-0.002c0.007,0,0.013,0.002,0.019,0.002
		c0.028-0.002,0.057-0.004,0.084-0.006c0.023-0.001,0.045-0.002,0.067-0.004c0.051-0.005,0.101-0.013,0.149-0.021
		c0.007-0.001,0.014-0.002,0.02-0.003c0.766-0.147,1.355-0.778,1.451-1.561c0.002-0.01,0.004-0.02,0.004-0.028
		c0.006-0.04,0.008-0.081,0.008-0.123c0.002-0.019,0.004-0.036,0.004-0.056c0-0.008,0-0.035,0-0.041c0-0.02-0.002-0.037-0.004-0.056
		c0-0.041-0.002-0.082-0.008-0.123c0-0.009-0.002-0.019-0.004-0.028c-0.096-0.782-0.686-1.413-1.451-1.56
		c-0.006-0.001-0.013-0.003-0.02-0.003c-0.049-0.01-0.099-0.018-0.149-0.021c-0.022-0.002-0.044-0.002-0.067-0.004
		c-0.027-0.002-0.056-0.006-0.084-0.006c-0.006,0-0.012,0.002-0.019,0.002c-0.011,0-0.02-0.002-0.03-0.002
		c-0.061,0-0.119,0.008-0.178,0.014c-0.019,0.002-0.037,0.002-0.055,0.006c-0.449,0.063-0.84,0.293-1.12,0.621
		c-0.004,0.006-0.007,0.01-0.011,0.016c-0.049,0.059-0.095,0.121-0.137,0.187c-0.01,0.015-0.018,0.03-0.027,0.046
		c-0.021,0.036-0.045,0.072-0.064,0.11c-0.01,0.02-0.07,0.09-0.093,0.104c-0.442,0.286-1.175,0.341-1.793,0.33
		c-0.271-0.015-0.521-0.039-0.712-0.061v-5.575C90.74,106.138,90.989,106.112,91.261,106.099z M94.745,104.43
		c0.704-0.007,1.283,0.56,1.292,1.266c0.01,0.708-0.553,1.287-1.257,1.295c-0.704,0.009-1.282-0.559-1.292-1.266
		S94.041,104.438,94.745,104.43z M94.745,116.577c0.704-0.007,1.283,0.56,1.292,1.266c0.01,0.71-0.553,1.289-1.257,1.296
		c-0.704,0.009-1.282-0.558-1.292-1.266C93.479,117.166,94.041,116.586,94.745,116.577z M94.745,110.903
		c0.704-0.008,1.283,0.558,1.292,1.266c0.01,0.707-0.553,1.287-1.257,1.294c-0.704,0.01-1.282-0.558-1.292-1.265
		C93.479,111.49,94.041,110.911,94.745,110.903z"/>
	<path fill="#FFFFFF" d="M99.445,121.41c0.058-0.026,0.111-0.054,0.15-0.079c-0.039-0.024-0.093-0.052-0.15-0.079V121.41z"/>
	<path fill="#FFFFFF" d="M98.34,121.738v-20.8c0.033-0.019,0.076-0.04,0.094-0.061c-0.484-0.6-0.506-1.34-0.512-1.34
		c-0.398,0.018-0.703,0.344-0.703,0.749c0,0.28,0.156,0.523,0.386,0.651v20.924C97.868,121.826,98.113,121.784,98.34,121.738z"/>
	<path fill="#FFFFFF" d="M100.506,103.658c0.112-1.365,0.146-2.351,0.184-2.803c0.033-0.403,0.055-0.845,0.055-1.291
		c0-0.728-0.061-1.472-0.234-2.09c-0.174-0.621-0.457-1.105-0.885-1.343c-0.047-0.028-0.156-0.064-0.279-0.064
		c-0.16,0.002-0.342,0.054-0.51,0.239c-0.313,0.404-0.721,1.208-0.722,2.691c0.001,0.808,0.171,1.285,0.396,1.612
		c0.227,0.326,0.521,0.512,0.805,0.716c0.186,0.134,0.367,0.276,0.504,0.479l0.001-0.001c0,0,0,0.002,0.001,0.002
		c0,0.001,0.001,0.002,0.001,0.002v0.001c0.091,0.131,0.145,0.306,0.181,0.522c0.036,0.222,0.051,0.485,0.051,0.785
		c0,1.373-0.324,3.517-0.656,5.429l-0.001,0.004c-0.63,3.077-0.69,6.031-0.69,7.043c0,0.238,0.003,0.366,0.003,0.366v0.003v5.694
		c0.115-0.028,0.224-0.058,0.323-0.089c0.06-0.019,0.115-0.037,0.168-0.056v-5.181c0-0.001-0.001-0.026-0.001-0.075
		c0.001-0.541,0.026-3.941,0.663-7.542C100.205,106.766,100.395,105.023,100.506,103.658z"/>
	<path fill="#FFFFFF" d="M97.604,123.397v1.937c0.264-0.036,0.509-0.078,0.735-0.122v-1.918
		C98.105,123.333,97.859,123.367,97.604,123.397z"/>
	<path fill="#FFFFFF" d="M99.199,123.119c-0.044,0.012-0.084,0.023-0.131,0.033c-0.115,0.027-0.236,0.052-0.36,0.076v1.899
		c0.115-0.028,0.224-0.059,0.323-0.089c0.06-0.019,0.115-0.038,0.168-0.057V123.119z"/>
	<path fill="#FFFFFF" d="M94.848,125.589v-0.847c-0.047-0.063-0.097-0.125-0.152-0.183c-0.156-0.165-0.337-0.296-0.484-0.359
		c-0.119-0.053-0.333-0.129-0.594-0.218c0.029,0.085,0.061,0.188,0.098,0.311c0.054,0.191,0.118,0.423,0.184,0.668
		C94.245,125.167,94.567,125.38,94.848,125.589z"/>
	<path fill="#FFFFFF" d="M90.375,121.016c0.185-0.146,0.447-0.23,0.807-0.23c0.111,0,0.232,0.009,0.363,0.025
		c0.696,0.089,1.381,0.278,1.996,0.518c-0.047-0.045-0.096-0.09-0.147-0.137c-0.308-0.271-0.699-0.559-1.146-0.826
		c-0.895-0.537-2.016-1.001-3.144-1.121c-0.122-0.012-0.233-0.017-0.337-0.017c-0.092,0-0.175,0.004-0.253,0.012
		c-0.312,0.03-0.491,0.146-0.604,0.293c-0.115,0.148-0.161,0.34-0.161,0.525c0,0.077,0.009,0.154,0.022,0.223v0.003l0.002,0.004
		c0.033,0.271,0.27,0.585,0.49,0.766c0.371,0.309,0.989,0.611,1.633,0.87c0.023,0.01,0.045,0.018,0.066,0.025
		c0-0.005-0.001-0.011-0.001-0.016c0-0.167,0.044-0.304,0.07-0.392C90.09,121.354,90.188,121.159,90.375,121.016z"/>
	<path fill="#FFFFFF" d="M89.379,123.896c0.191-0.145,0.468-0.238,0.854-0.237c0.096,0,0.201,0.006,0.313,0.018
		c0.732,0.082,1.576,0.38,2.378,0.765c-0.409-0.313-0.896-0.642-1.427-0.938c-0.938-0.523-2.002-0.953-2.962-1.055
		c-0.142-0.013-0.269-0.02-0.384-0.02c-0.46,0-0.693,0.099-0.813,0.206c-0.119,0.109-0.148,0.238-0.165,0.367v0.002l-0.001,0.001
		c-0.006,0.046-0.01,0.09-0.01,0.136c0,0.352,0.201,0.687,0.551,1.002c0.325,0.294,0.774,0.56,1.263,0.796
		c-0.008-0.049-0.013-0.095-0.011-0.14c0-0.166,0.042-0.304,0.069-0.392C89.086,124.236,89.187,124.043,89.379,123.896z"/>
	<path fill="#FFFFFF" d="M91.55,133.04c0.071-0.073,0.138-0.179,0.194-0.312c0.11-0.267,0.177-0.645,0.177-1.076
		c0-0.236-0.021-0.489-0.062-0.751c-0.135-0.869-0.486-1.583-0.835-1.857c-0.113-0.089-0.219-0.13-0.313-0.131l-0.026,0.001
		l-0.029,0.003v-0.001l-0.046,0.002c-0.077,0.012-0.15,0.051-0.221,0.123c-0.07,0.071-0.138,0.177-0.193,0.311
		c-0.111,0.267-0.178,0.645-0.178,1.076c0,0.236,0.02,0.49,0.062,0.751c0.136,0.868,0.487,1.583,0.835,1.855
		c0.115,0.094,0.223,0.135,0.318,0.135l0.051-0.005l0,0c0.018-0.002,0.037-0.004,0.06-0.006
		C91.414,133.145,91.482,133.108,91.55,133.04z"/>
	<path fill="#FFFFFF" d="M98.938,138.305c-0.061-0.061-0.122-0.093-0.186-0.11l-0.051-0.004c-0.095-0.001-0.202,0.042-0.318,0.133
		c-0.113,0.092-0.232,0.231-0.341,0.409c-0.22,0.358-0.401,0.869-0.493,1.447c-0.041,0.261-0.061,0.515-0.061,0.751
		c-0.002,0.324,0.036,0.617,0.102,0.855c0.065,0.24,0.162,0.425,0.268,0.532c0.061,0.061,0.122,0.093,0.186,0.11l0.051,0.004
		c0.096,0,0.204-0.04,0.318-0.133c0.113-0.091,0.231-0.23,0.34-0.411c0.22-0.355,0.404-0.865,0.496-1.446
		c0.04-0.261,0.061-0.513,0.061-0.751c0-0.322-0.037-0.616-0.104-0.855C99.141,138.597,99.045,138.413,98.938,138.305z"/>
	<path fill="#FFFFFF" d="M90.434,125.879h0.002c0.276,0.099,1.123,0.404,1.961,0.713s1.664,0.618,1.912,0.727
		c0.189,0.083,0.389,0.23,0.564,0.415c0.177,0.186,0.33,0.407,0.41,0.644c0.055,0.159,0.145,0.532,0.244,0.975
		s0.209,0.952,0.294,1.363l0.003,0.013v1.831c-0.045,0.006-0.09,0.012-0.137,0.018c-0.266,0.031-0.551,0.056-0.842,0.076
		l0.002-4.568c-0.047-0.063-0.097-0.124-0.152-0.182c-0.156-0.164-0.337-0.295-0.484-0.358c-0.102-0.044-0.318-0.13-0.6-0.234
		c0.064,0.19,0.152,0.496,0.248,0.851c0.12,0.442,0.25,0.951,0.352,1.364l0.004,0.014l0.001,3.148
		c-0.276,0.011-0.558,0.019-0.849,0.019h-0.031l-0.917-0.52l0.011-0.082c0.019-0.149,0.029-0.313,0.029-0.482
		c0-0.236-0.021-0.488-0.063-0.749c-0.135-0.87-0.486-1.583-0.834-1.856c-0.114-0.092-0.224-0.133-0.318-0.133l-0.031,0.003
		c0.13,0.112,0.252,0.261,0.362,0.44c0.239,0.393,0.43,0.931,0.526,1.537c0.044,0.273,0.064,0.538,0.064,0.789
		c0,0.343-0.039,0.655-0.111,0.92c-0.063,0.23-0.154,0.421-0.271,0.569c0.035-0.002,0.068-0.005,0.084-0.008
		c0.074-0.012,0.143-0.049,0.213-0.115c0.067-0.066,0.133-0.164,0.188-0.287l0.055-0.122l1.076,0.586
		c0.279,0,0.551-0.007,0.817-0.018l0.008,15.791l-1.771-0.632l0.004-0.09c0-0.039,0.002-0.079,0.002-0.119
		c0-0.237-0.021-0.49-0.063-0.751c-0.135-0.87-0.486-1.583-0.834-1.858c-0.114-0.092-0.224-0.132-0.318-0.132l-0.052,0.005
		c-0.021,0.002-0.042,0.004-0.067,0.005c0.133,0.114,0.257,0.267,0.369,0.449c0.238,0.392,0.43,0.929,0.525,1.536
		c0.044,0.272,0.064,0.538,0.064,0.789c0,0.341-0.039,0.655-0.111,0.922c-0.061,0.222-0.149,0.41-0.264,0.558
		c0.071-0.003,0.131-0.007,0.158-0.012c0.099-0.017,0.192-0.077,0.281-0.196c0.088-0.117,0.165-0.288,0.219-0.5l0.033-0.129
		l1.824,0.635v1.286c0,0.169,0.137,0.308,0.308,0.308c0.169,0,0.306-0.139,0.306-0.308l0.004-8.437l2.086-0.725l0.032,0.129
		c0.054,0.211,0.13,0.385,0.218,0.501c0.088,0.118,0.182,0.18,0.281,0.196c0.025,0.003,0.09,0.007,0.162,0.011
		c-0.07-0.089-0.133-0.189-0.184-0.309c-0.129-0.311-0.195-0.715-0.195-1.171c0-0.25,0.021-0.517,0.063-0.789
		c0.146-0.892,0.482-1.628,0.898-1.984c-0.025-0.002-0.05-0.003-0.07-0.007l-0.051-0.004c-0.096,0-0.203,0.042-0.318,0.134
		c-0.113,0.091-0.232,0.231-0.342,0.409c-0.217,0.356-0.402,0.869-0.493,1.447c-0.042,0.261-0.061,0.514-0.061,0.751
		c0,0.04,0,0.081,0.002,0.12l0.002,0.089l-2.03,0.725l0.003-8.676c0.343-0.023,0.67-0.053,0.979-0.092v1.093l-0.055,0.037
		c-0.152,0.099-0.252,0.268-0.252,0.462s0.1,0.363,0.252,0.462l0.055,0.037v1.948l-0.055,0.035
		c-0.152,0.099-0.252,0.269-0.252,0.462c0.001,0.307,0.248,0.553,0.553,0.553s0.551-0.246,0.552-0.553
		c0-0.193-0.1-0.363-0.251-0.462l-0.056-0.035v-1.948l0.056-0.037c0.151-0.099,0.251-0.268,0.251-0.462s-0.1-0.363-0.251-0.462
		l-0.056-0.037v-1.162c0.266-0.042,0.515-0.089,0.743-0.142c0.199-0.046,0.377-0.097,0.546-0.149v0.233
		c0,0.203,0.165,0.369,0.368,0.369s0.367-0.166,0.367-0.369v-0.557c0.095-0.061,0.18-0.124,0.25-0.201
		c0.093-0.104,0.166-0.245,0.166-0.399v-0.002v-0.002c0-0.093-0.027-0.187-0.07-0.262l0,0c-0.016-0.032-0.053-0.086-0.091-0.141
		c-0.017,0.053-0.038,0.102-0.063,0.146c-0.051,0.091-0.117,0.169-0.181,0.233c-0.004,0.003-0.007,0.005-0.011,0.009v-5.542
		c-0.232,0.044-0.479,0.081-0.735,0.114v5.854c-0.058,0.02-0.114,0.04-0.179,0.06c-0.305,0.094-0.682,0.179-1.11,0.25v-4.105
		l0.094-0.022c0.174-0.044,0.305-0.199,0.305-0.387c0-0.187-0.131-0.342-0.305-0.385l-0.094-0.023v-2.802l0.094-0.023
		c0.174-0.043,0.305-0.199,0.305-0.385c0-0.222-0.179-0.4-0.399-0.401c-0.096,0-0.181,0.035-0.252,0.093l-0.172,0.144l-0.027-0.223
		c-0.041-0.325-0.113-0.646-0.23-0.885c-0.091-0.185-0.279-0.387-0.527-0.607c-0.137-0.119-0.954-0.606-0.954-0.606
		c-0.747-0.382-1.687-0.692-2.638-0.816c-0.121-0.014-0.232-0.021-0.332-0.021c-0.322,0-0.522,0.075-0.656,0.179
		c-0.134,0.104-0.211,0.244-0.26,0.403c-0.025,0.086-0.059,0.195-0.059,0.319c0.002,0.147,0.042,0.313,0.212,0.502
		c0.171,0.188,0.479,0.392,1.014,0.577l0.001,0.001c0.271,0.095,0.869,0.283,1.456,0.473c0.589,0.189,1.166,0.379,1.419,0.489
		c0.189,0.082,0.389,0.23,0.564,0.415c0.177,0.186,0.33,0.407,0.41,0.644c0.033,0.095,0.076,0.26,0.128,0.473
		c0.051,0.215,0.109,0.474,0.17,0.743l0.095,0.428l-0.303-0.317c-0.417-0.434-1.223-1.006-2.127-1.482
		c-0.904-0.479-1.913-0.867-2.729-0.957c-0.104-0.011-0.199-0.016-0.285-0.016c-0.348,0-0.563,0.081-0.705,0.19
		c-0.142,0.106-0.215,0.246-0.258,0.385c-0.027,0.087-0.059,0.196-0.059,0.32c0.001,0.147,0.041,0.314,0.211,0.502
		c0.171,0.186,0.479,0.392,1.014,0.577H90.434z"/>
	<path fill="#FFFFFF" d="M91.662,149.247c0.111-0.268,0.178-0.645,0.176-1.076c0-0.236-0.02-0.49-0.06-0.751
		c-0.135-0.869-0.487-1.583-0.836-1.856c-0.114-0.093-0.222-0.135-0.317-0.135l-0.051,0.004c-0.064,0.019-0.125,0.051-0.186,0.112
		c-0.07,0.071-0.138,0.178-0.193,0.311c-0.111,0.268-0.178,0.646-0.178,1.076c0,0.236,0.02,0.49,0.062,0.751
		c0.136,0.869,0.487,1.583,0.835,1.857c0.115,0.092,0.223,0.134,0.318,0.134l0.051-0.004c0.063-0.019,0.125-0.05,0.186-0.112
		C91.539,149.487,91.606,149.38,91.662,149.247z"/>
	<path fill="#FFFFFF" d="M98.541,64.582l-0.227-0.041l0.16-0.168c0.088-0.091,0.143-0.213,0.143-0.348
		c-0.002-0.275-0.225-0.5-0.503-0.501c-0.044-0.001-0.073-0.01-0.116-0.021c-0.041-0.012-0.088-0.025-0.141-0.043
		c-0.102-0.032-0.221-0.07-0.32-0.095c-0.067-0.016-0.128-0.025-0.158-0.025c-0.276,0.001-0.5,0.225-0.5,0.5
		c0,0.276,0.224,0.501,0.5,0.501c0.049,0,0.118,0.006,0.189,0.016c0.07,0.01,0.14,0.021,0.195,0.042
		c0.018,0.008,0.034,0.012,0.057,0.029l0.05,0.037v2.742l-0.085,0.027c-0.063,0.021-0.129,0.04-0.201,0.061
		c-0.518,0.145-1.223,0.259-1.822,0.301l-0.131,0.01v-1.869l0.079-0.03c0.467-0.173,0.8-0.62,0.8-1.146
		c0-0.342-0.138-0.647-0.359-0.869c-0.224-0.222-0.529-0.359-0.867-0.359c-0.34,0-0.646,0.138-0.868,0.359s-0.359,0.527-0.359,0.869
		c0,0.593,0.425,1.089,0.985,1.201l0.098,0.019v1.831l-0.135-0.014c-0.281-0.026-0.585-0.089-0.875-0.162l-0.131-0.033l0.045-0.129
		c0.047-0.13,0.074-0.269,0.074-0.414c0-0.339-0.137-0.644-0.359-0.867s-0.529-0.359-0.868-0.359c-0.34,0-0.645,0.136-0.868,0.359
		c-0.221,0.224-0.359,0.528-0.359,0.867s0.139,0.646,0.359,0.869c0.224,0.222,0.528,0.358,0.868,0.358
		c0.319,0,0.607-0.122,0.827-0.321l0.049-0.046l0.066,0.019c0.377,0.104,0.797,0.198,1.194,0.23l0.112,0.01v1.109h-1.36
		l-0.036-0.063c-0.088-0.154-0.247-0.257-0.433-0.257c-0.276,0.001-0.501,0.227-0.502,0.502c0.001,0.276,0.226,0.501,0.502,0.502
		c0.186,0,0.345-0.104,0.433-0.255l0.036-0.063h1.36v1.949l-0.031,0.034l-0.007,0.008l-0.023,0.026
		c-0.019,0.024-0.048,0.061-0.083,0.106c-0.07,0.093-0.164,0.228-0.258,0.395c-0.191,0.332-0.383,0.792-0.398,1.287v0.064
		c0,0.243,0.041,0.527,0.139,0.782c0.097,0.255,0.248,0.478,0.466,0.611c0.144,0.091,0.32,0.146,0.542,0.146
		c0.209,0,0.374-0.05,0.512-0.13c0.137-0.08,0.245-0.193,0.33-0.33c0.17-0.271,0.242-0.637,0.242-0.954
		c0-0.064-0.002-0.125-0.008-0.184c-0.08-0.921-0.801-1.729-0.887-1.817l-0.01-0.009l-0.033-0.034v-1.952h0.799l0.035,0.063
		c0.088,0.151,0.248,0.255,0.434,0.255c0.276-0.001,0.5-0.226,0.5-0.502c0-0.275-0.224-0.501-0.5-0.502
		c-0.186,0-0.346,0.103-0.434,0.257l-0.035,0.063h-0.799v-1.114l0.114-0.008c0.448-0.029,0.946-0.098,1.398-0.188
		c0.202-0.04,0.396-0.087,0.569-0.137l0.157-0.043v2.735l-0.05,0.038c-0.125,0.094-0.205,0.238-0.205,0.403
		c0,0.276,0.224,0.5,0.499,0.5c0.278,0,0.501-0.224,0.503-0.5c0-0.165-0.082-0.31-0.207-0.403l-0.049-0.038v-0.495l0.154,0.044
		c0.043,0.012,0.083,0.023,0.133,0.037l0.008,0.002l0.008,0.004c0.289,0.122,0.482,0.3,0.598,0.499
		c0.115,0.203,0.154,0.422,0.152,0.623c0,0.359-0.117,0.679-0.16,0.809c-0.031,0.092-0.082,0.173-0.143,0.287
		c-0.061,0.111-0.131,0.253-0.199,0.443c-0.137,0.385-0.266,0.977-0.266,1.931c0,0.91,0.113,1.484,0.261,1.835
		c0.15,0.355,0.325,0.485,0.476,0.544c0.103,0.039,0.197,0.044,0.276,0.044c0.082,0,0.192-0.002,0.313-0.039
		c0.12-0.035,0.252-0.104,0.381-0.248c0.258-0.287,0.502-0.893,0.502-2.136c0-1.252-0.107-2.2-0.295-2.914
		c-0.188-0.715-0.455-1.192-0.772-1.51c-0.702-0.699-0.835-1.444-0.835-1.896c0-0.43,0-1.779,0-2.823
		c0-0.338-0.074-0.529-0.156-0.636C98.714,64.631,98.619,64.596,98.541,64.582z M98.429,69.244c0,0.051-0.042,0.093-0.093,0.093
		c-0.05,0-0.092-0.042-0.092-0.093v-1.843c0-0.054,0.042-0.094,0.092-0.094c0.051,0,0.093,0.04,0.093,0.094V69.244z M98.429,66.878
		c0,0.052-0.042,0.092-0.093,0.092c-0.05,0-0.092-0.04-0.092-0.092v-1.976c0-0.049,0.042-0.091,0.092-0.091
		c0.051,0,0.093,0.042,0.093,0.091V66.878z"/>
</g>
</svg>
