<?xml version="1.0" encoding="utf-8"?>
<!-- Generator: Adobe Illustrator 15.0.0, SVG Export Plug-In . SVG Version: 6.00 Build 0)  -->
<!DOCTYPE svg PUBLIC "-//W3C//DTD SVG 1.1//EN" "http://www.w3.org/Graphics/SVG/1.1/DTD/svg11.dtd">
<svg version="1.1" xmlns="http://www.w3.org/2000/svg" xmlns:xlink="http://www.w3.org/1999/xlink" x="0px" y="0px" width="190px"
	 height="190px" viewBox="0 0 190 190" enable-background="new 0 0 190 190" xml:space="preserve">
<g id="Kreise">
	<path d="M122.17,134.98c-0.049-0.14-0.186-0.233-0.334-0.223c-0.15,0.009-0.297,0.014-0.443,0.014c-1.1,0-1.998-0.259-2.768-0.775
		c-0.576-0.393-1.082-0.936-1.529-1.655c-0.672-1.076-1.203-2.545-1.619-4.425c-0.418-1.88-0.719-4.165-0.943-6.877
		c-0.053-0.643-0.078-1.235-0.078-1.783c0-1.538,0.195-2.722,0.5-3.622c0.457-1.355,1.148-2.081,1.84-2.493
		c0.689-0.411,1.396-0.503,1.877-0.501c0.176,0,0.32,0.015,0.42,0.025c0.049,0.006,0.086,0.011,0.111,0.016l0.025,0.005l0.004,0.001
		v-0.001c0.182,0.038,0.357-0.076,0.398-0.256c0.402-1.854,0.584-3.619,0.584-5.29c0-4.311-1.209-8.003-2.895-11.102
		c-1.688-3.099-3.85-5.605-5.76-7.567c-0.063-0.064-0.158-0.156-0.287-0.275c-0.443-0.412-1.258-1.141-2.068-1.86
		s-1.613-1.429-2.031-1.796c-0.885-0.785-2-1.942-2.908-3.443c-0.906-1.501-1.604-3.338-1.67-5.5l0,0
		c0-0.029-0.008-0.356-0.078-0.734c-0.037-0.195-0.09-0.403-0.176-0.6c-0.043-0.098-0.098-0.191-0.168-0.279
		c-0.07-0.09-0.158-0.172-0.271-0.229c-0.035-0.02-0.08-0.039-0.121-0.06c-0.107-0.186-0.123-0.458-0.074-0.918
		c0.074-0.713-0.713-1.013-0.713-1.013s-5.441-1.651-6.754-2.177c-1.314-0.525-1.576-2.176-1.502-3.152
		c0.076-0.975,3.604-28.553,3.791-29.19c0.188-0.637,0.711-0.413,0.711-0.413s0.75,1.275,2.102,0.864
		c1.291-0.396,1.109-3.012,1.09-3.246c0.057,0.017,0.17,0.046,0.375,0.093c0.637,0.151,0.637-0.412,0.637-0.412
		c-0.031-2.008,0.324-3.743,0.74-5.079l0.438,0.398c0.201,0.501,0.107,1.838,0.697,2.306c0.42,0.327,1.279-0.072,1.75-0.678
		c0.471-0.606,0.646-1.537,0.227-1.865c-0.6-0.437-2.076,0.013-2.271-0.139l-0.635-0.576c0.002-0.018-0.002-0.035-0.002-0.051
		c0.092-0.258,0.186-0.497,0.275-0.715c0.17-0.409,1.01-1.811,1.365-2.276c0.299-0.394,0.678-0.939,1.061-1.603
		c0.033,0.014,0.07,0.025,0.107,0.031l0.418,0.721c0.039,0.552-0.471,1.827-0.041,2.468c0.311,0.452,1.273,0.328,1.924-0.116
		c0.648-0.446,1.109-1.3,0.801-1.751c-0.449-0.613-2.031-0.634-2.174-0.843l-0.441-0.761c0.047-0.122,0.043-0.263-0.029-0.386
		l-0.117-0.203c0.75-1.515,1.393-3.472,1.311-5.654c-0.186-4.99-3.479-7.54-3.479-7.54V9.82c-0.543-0.468-1.15-0.691-1.74-0.572
		c-0.031,0.006-0.061,0.019-0.092,0.026c-0.207,0.026-0.244,0.005-0.385-0.091c-0.016-0.005-0.051-0.008-0.064-0.009
		c-0.434-0.029-0.852,0.121-1.229,0.404c-0.006-0.001-0.012-0.003-0.018-0.003c-1.406-0.182-2.785,1.526-3.078,3.814
		c-0.297,2.287,0.604,4.29,2.008,4.471c0.48,0.063,0.955-0.101,1.385-0.426c0.121,0.037,0.244,0.066,0.373,0.074
		c0.146,0.01,0.291-0.004,0.436-0.035c-0.836,0.909-1.947,2.127-3.422,3.785c-4.016,4.518-4.412,8.98-4.432,10.322
		c-0.049,0.037-0.094,0.079-0.131,0.129c-0.271,0.36-0.57,0.863-0.666,1.448l0.002-0.007L82.307,84.574
		c-2.357,2.345-4.352,4.822-5.939,7.403c-1.82,2.96-3.121,6.058-3.867,9.211c-1.275,5.385-0.496,9.017-0.461,9.167
		c0.045,0.208,0.23,0.354,0.438,0.354l0.055-0.003l0,0c0,0,0.041-0.005,0.111-0.005c0.367,0,1.313,0.099,2.184,1.018
		c0.572,0.604,1.191,1.659,1.516,3.5l-2.432,12.485c-0.004,0.027-0.004,0.056,0.002,0.083l0.469,2.087
		c-1.217,2.355-2.68,2.871-3.727,2.871c-0.836,0-1.439-0.328-1.445-0.331c-0.068-0.037-0.145-0.058-0.221-0.058
		c-0.053,0-0.104,0.011-0.154,0.029c-0.123,0.044-0.221,0.14-0.266,0.263c-0.021,0.051-1.977,5.259-2.924,12.014
		c-0.559,3.975-0.664,7.705-0.314,11.084c0.436,4.249,1.598,7.958,3.447,11.026c3.107,5.148,8.158,8.53,15.041,10.081
		c0.088,0.439,0.197,0.832,0.336,1.166c0.449,1.066,1.102,1.605,1.945,1.605c0.891,0,1.939-0.646,3.031-1.869l0.031-0.036
		l0.008-0.008c0.031-0.035,0.158-0.046,0.186-0.086c0.539,0.019,0.969-0.001,1.488-0.001c0.059,0,0.113-0.005,0.17-0.005
		c-0.045,0.163-0.068,0.331-0.068,0.506c0,0.757,0.441,1.418,1.102,1.785h-0.922c-0.004-0.05-0.012-0.099-0.033-0.145
		c-0.117-0.273-0.508-0.366-0.871-0.209c-0.361,0.156-0.559,0.506-0.439,0.779s0.51,0.366,0.871,0.21
		c0.107-0.047,0.197-0.113,0.273-0.185h1.115c0,0.205,0,0.437,0,0.506c0,0.077,0.109,0.146,0.285,0.197c0,0.57,0,1.954,0,2.036
		c0,0.113,0.318,0.204,0.711,0.204s0.711-0.091,0.711-0.204c0-0.076,0-1.464,0-2.036c0.176-0.052,0.285-0.12,0.285-0.197
		c0-0.111,0-0.576,0-0.781c0.875-0.294,1.502-1.059,1.502-1.961c0-0.282-0.063-0.553-0.172-0.797
		c1.865-0.253,15.746-1.917,18.678-3.22c4.4-1.952,7.203-5.159,8.883-8.897c1.684-3.739,2.262-8.005,2.262-12.125
		C125.186,143.681,122.176,135.001,122.17,134.98z M76.531,119.466c-0.268,4.739-0.984,7.826-1.867,9.816l-0.348-1.543l2.188-11.237
		C76.576,117.355,76.592,118.335,76.531,119.466z M83.789,83.203l-0.977,0.887l9.9-50.86l0.002-0.007
		c0.025-0.16,0.057-0.292,0.092-0.41c-0.063,0.342-0.045,0.602-0.045,0.602l0.115,0.11L83.789,83.203z"/>
	<g>
		<path fill="#FFFFFF" d="M97.033,120.563c-1.766-2.077-3.457-0.419-3.598,0.224c-0.076,0.341-0.043,0.646,0.047,0.886
			c0.055,0.16,0.156,0.338,0.232,0.428c0.318,0.389,0.766,0.499,1.072,0.273c0.359-0.265,0.396-0.93,0.082-1.483
			c-0.039-0.068-0.082-0.135-0.129-0.194c0.219-0.395,0.814-0.681,1.398,0.092c0.877,1.159,0.768,2.139,0.713,8.366
			c-0.057,6.227,1.771,8.069,2.625,8.882c0.852,0.811,2.357,0.95,3.24,0.056c0.768-0.778,0.59-1.688,0.348-2.313
			c-0.158-0.401-0.531-0.727-0.779-0.828c-0.264-0.139-0.578-0.117-0.805,0.05c-0.43,0.316-0.52,1.032-0.199,1.602
			c0.158,0.278,0.385,0.469,0.627,0.555c0,0-0.582,1.37-1.881,0.421c-1.961-1.642-1.531-7.121-1.473-8.258
			C98.67,127.675,98.797,122.642,97.033,120.563z"/>
		<path fill="#FFFFFF" d="M94.021,31.217c0.094-1.668,0.717-5.791,4.42-9.957c1.426-1.604,2.514-2.797,3.34-3.693
			c-0.273-0.027-0.379-0.079-0.383-0.074c-0.834,0.905-1.941,2.12-3.408,3.768c-3.723,4.189-4.334,8.332-4.42,9.984
			C93.793,31.205,94.021,31.229,94.021,31.217z"/>
		<path fill="#FFFFFF" d="M76.178,91.859c-1.836,2.979-3.145,6.102-3.896,9.275c-1.287,5.438-0.498,9.117-0.463,9.271
			c0.068,0.313,0.346,0.528,0.658,0.528c0.027,0,0.053-0.002,0.08-0.005l0,0c0.002,0,0.033-0.002,0.086-0.002
			c0.338,0,1.209,0.093,2.021,0.949c0.609,0.643,1.275,1.827,1.551,3.999l0.342-1.762c-0.99-3.602-3.281-3.861-3.914-3.861
			c-0.105,0-0.164,0.006-0.164,0.006s-2.721-12.211,9.676-24.896l0.229-1.184C79.908,86.604,77.826,89.178,76.178,91.859z"/>
		<path fill="#FFFFFF" d="M102.51,17.479c0.594-0.021,0.5,0.027,0.445,0.079c-6.371,5.286-6.58,12.722-6.58,13.719
			c0.209,0.059,0.529,0.113,0.529,0.113s-0.281-8.604,7.148-14.288c0,0-0.398,0.231-0.938,0.312
			c-0.885,0.132-2.188-0.192-3.021-2.951c-1.086-4.162,0.967-5.044,1.439-5.189c-0.125-0.044-0.252-0.073-0.383-0.09
			c-0.504,0.165-2.668,1.124-1.582,5.279C100.359,17.08,101.625,17.512,102.51,17.479z"/>
		<path fill="#FFFFFF" d="M68.988,132.809c0,0,0.689,0.387,1.666,0.387c1.115,0,2.607-0.512,3.873-2.68l-0.232-1.029
			c-0.943,1.978-2.174,3.032-3.641,3.032c-0.773,0-1.334-0.299-1.34-0.303c-0.1-0.054-0.213-0.082-0.324-0.082
			c-0.08,0-0.16,0.016-0.234,0.041c-0.184,0.069-0.33,0.213-0.4,0.394c-0.078,0.212-1.982,5.283-2.934,12.063
			c-0.561,3.992-0.666,7.739-0.316,11.14c0.441,4.28,1.611,8.021,3.479,11.116c3.154,5.229,8.289,8.648,15.285,10.204
			c-0.051-0.226-0.096-0.465-0.135-0.721C54.99,169.727,68.988,132.809,68.988,132.809z"/>
		<path fill="#FFFFFF" d="M81.898,119.309c-0.477-0.471-1.279-0.806-2.125-0.015l1.357-7.964c0.619-0.056,1.301-0.089,2-0.079
			l11.93-78.039c-0.188-0.011-0.389-0.013-0.602-0.011L81.131,111.33c-0.143,0.013-0.281,0.025-0.418,0.041l-1.463,8.577
			c-0.719,1.24-0.91,3.533-0.928,5.437l-0.27,1.583l-1.713,0.108l2.83-15.49c0.4-0.067,0.932-0.151,1.543-0.215l13.332-78.152
			c-0.184,0.012-0.377,0.031-0.57,0.059L79.17,111.586c-0.168,0.03-0.311,0.057-0.428,0.081c0,0-1.121,6.007-2.01,10.784
			c0.104-0.911,0.188-1.895,0.248-2.963c0.096-1.788,0.006-3.227-0.203-4.39l5.889-30.252c0.268-0.267,0.539-0.532,0.82-0.798
			c0.02-0.019-5.102,27.693-5.102,27.693s0.129-0.03,0.357-0.075L93.049,33.35c-0.096,0.02-0.189,0.041-0.287,0.064
			c0,0-9.037,49.494-9.064,49.52c-0.273,0.249-0.541,0.5-0.805,0.752l-0.227,1.159c-0.174,0.172-0.346,0.345-0.512,0.517
			l-5.598,28.752c0,0,0,0,0,0.001c0.084,0.303,0.158,0.632,0.221,0.983l-0.447,2.296c0.023,0.624,0.016,1.307-0.025,2.058
			c-0.172,3.074-0.564,5.66-1.146,7.701l-0.43,0.028c0,0-0.15,0.034-0.32,0.091l-0.092,0.468l0.014,0.054
			c0.08,0.021,0.174,0.042,0.287,0.063c0.086,0.015,0.191,0.032,0.309,0.049c-0.111,0.337-0.23,0.656-0.355,0.96l0.252,1.115
			c0.283-0.562,0.553-1.222,0.799-1.985c0.027,0.004,0.053,0.006,0.08,0.009c-0.027,0.14-0.041,0.217-0.039,0.218l1.313,7.226
			c-0.383,0.227-0.68,0.168-0.898,0.019l-0.174-0.757c0.084-0.077,0.158-0.177,0.219-0.296c0.252-0.49,0.174-1.132-0.176-1.436
			c-0.133-0.114-0.305-0.164-0.469-0.138l-0.654-2.859c-0.082,0.162-0.166,0.313-0.248,0.459v-0.001
			c-0.016,0.027-0.029,0.056-0.047,0.083l0,0l0.574,2.502c-0.162,0.131-0.33,0.334-0.414,0.575c-0.188,0.548-0.32,1.349,0.303,2.076
			c0.238,0.282,0.533,0.459,0.844,0.55l2.813,12.283c0.82,4.146,3.939,11.524,4.807,17.112c0.451,2.919,0.244,6.827,0.494,9.664
			c0.002,0.027,0.004,0.054,0.006,0.079c0.016,0.161,0.031,0.32,0.051,0.476c0.004,0.03,0.006,0.063,0.012,0.095
			c0.02,0.172,0.043,0.341,0.07,0.5c0.045,0.278,0.098,0.539,0.16,0.779c0.025,0.102,0.053,0.196,0.082,0.289
			c0.008,0.024,0.016,0.05,0.023,0.073c0.035,0.11,0.072,0.217,0.115,0.314c0.031,0.077,0.066,0.15,0.1,0.221
			c0.01,0.021,0.021,0.042,0.031,0.063c0.025,0.047,0.051,0.095,0.078,0.142c0.01,0.02,0.021,0.039,0.033,0.057
			c0.031,0.056,0.064,0.107,0.098,0.156c0.006,0.006,0.008,0.012,0.014,0.018c0.037,0.053,0.074,0.103,0.113,0.147
			c0.012,0.017,0.025,0.029,0.037,0.045c0.027,0.031,0.055,0.062,0.082,0.091c0.014,0.014,0.027,0.027,0.041,0.041
			c0.033,0.03,0.066,0.059,0.1,0.087c0.008,0.007,0.016,0.015,0.023,0.021c0.039,0.031,0.08,0.059,0.121,0.085
			c0.016,0.01,0.031,0.02,0.047,0.029c0.027,0.017,0.055,0.03,0.082,0.043c0.018,0.01,0.033,0.021,0.051,0.028
			c0.029,0.013,0.061,0.024,0.09,0.037c0.014,0.005,0.027,0.01,0.041,0.015c0.039,0.016,0.082,0.025,0.123,0.035
			c0.018,0.005,0.037,0.007,0.055,0.011c0.025,0.004,0.053,0.011,0.078,0.013c0.02,0.003,0.041,0.005,0.059,0.007
			c0.027,0.003,0.055,0.004,0.08,0.005c0.02,0.001,0.037,0.002,0.055,0.002c0.002,0,0.002,0,0.002,0
			c0.074,0,0.146-0.006,0.221-0.015c0.008-0.002,0.02-0.003,0.027-0.005c0.074-0.012,0.148-0.027,0.221-0.046
			c0.006-0.002,0.014-0.004,0.02-0.007c0.072-0.019,0.143-0.043,0.213-0.07c0.006-0.002,0.01-0.004,0.014-0.006
			c0.074-0.026,0.146-0.06,0.217-0.094c0.01-0.005,0.02-0.01,0.029-0.014c0.143-0.071,0.281-0.152,0.416-0.243
			c0.01-0.007,0.02-0.012,0.029-0.018c0.064-0.045,0.131-0.09,0.195-0.136c0-0.002,0.004-0.006,0.006-0.006
			c0.063-0.048,0.121-0.092,0.18-0.14c0.008-0.007,0.018-0.015,0.027-0.021c0.057-0.05,0.113-0.097,0.166-0.142
			c0.012-0.009,0.021-0.018,0.031-0.027c0.045-0.041,0.092-0.082,0.135-0.122c0.01-0.007,0.018-0.016,0.027-0.023
			c0.047-0.043,0.09-0.085,0.131-0.126c0.016-0.015,0.029-0.028,0.045-0.041c0.031-0.031,0.061-0.063,0.088-0.091
			c0.021-0.022,0.043-0.044,0.064-0.064c0.152-0.158,0.264-0.284,0.311-0.338c0.082-0.098,0.146-0.219,0.197-0.359l0,0
			c0.014-0.039,0.025-0.08,0.035-0.12c0.008-0.023,0.016-0.047,0.02-0.071c0.012-0.044,0.021-0.09,0.029-0.137
			c0.006-0.027,0.01-0.056,0.014-0.086c0.012-0.083,0.021-0.172,0.025-0.263c0.002-0.032,0.006-0.066,0.008-0.101
			c0.002-0.05,0.002-0.103,0.002-0.156c0.002-0.041,0-0.082,0-0.125c-0.002-0.054-0.002-0.106-0.006-0.16
			c-0.002-0.053-0.006-0.107-0.01-0.161c-0.006-0.087-0.014-0.175-0.021-0.269c-0.006-0.054-0.012-0.111-0.02-0.169
			c-0.264-2.249-1.391-5.767-2.242-9.528c-1.238-5.46-0.17-17.223-0.283-17.954c-0.111-0.732-0.619-0.614-0.619-0.614
			c-0.504,0.087-0.973,0.155-1.414,0.211l-3.672-18.928c1.359,0.115,2.385,0.196,2.385,0.196l9.398,0.507l0.113-1.914
			c0,0-7.428,0-8.779-0.282l-2.309-0.281l-0.594,0.038l0.836-5.479c0.043-0.037,0.084-0.08,0.121-0.131
			c0.059-0.077,0.139-0.229,0.182-0.369c0.068-0.208,0.094-0.478,0.029-0.785c-0.016-0.07-0.049-0.153-0.098-0.244l1.299-8.497
			c-0.137-0.006-0.273-0.009-0.408-0.011L81.898,119.309z M78.414,128.277c0.012,0.217,0.008,0.59,0.016,0.956l-0.184-0.97
			C78.295,128.268,78.367,128.273,78.414,128.277z M76.121,128.272l0.041-0.218c0.508,0.054,1.084,0.113,1.688,0.17
			c0.002,0.003,0,0.005,0,0.007l0.561,2.871c-0.092,1.503-0.359,3.15-1.059,4.006L76.121,128.272z M78.699,146.931l-2.434-10.639
			c0.287,0.009,0.572-0.053,0.83-0.179l2.004,11.033C78.928,147.071,78.797,146.996,78.699,146.931z M79.547,147.309l-2.061-11.45
			c0.031-0.028,0.064-0.055,0.096-0.085c0.355-0.363,0.891-0.955,1.299-2.256l2.744,14.086
			C80.695,147.576,80.023,147.454,79.547,147.309z M84.225,147.48c-0.842,0.096-1.564,0.134-2.186,0.133l-2.924-15.006
			c0.221-1.038,0.361-2.407,0.346-4.233c0.367,0.032,0.727,0.063,1.072,0.093L84.225,147.48z M80.756,126.794l-1.318,0.085
			c-0.063-4.616,0.098-6.083,0.736-7c0.461-0.662,0.938-0.378,1.117-0.018c-0.035,0.051-0.07,0.108-0.102,0.169
			c-0.246,0.478-0.209,1.07,0.08,1.322c0.09,0.075,0.193,0.114,0.299,0.118L80.756,126.794z"/>
		<path fill="#FFFFFF" d="M113.021,147.984c-0.787-6.999-2.664-12.599-2.684-12.652c-0.094-0.276-0.352-0.46-0.639-0.46
			l-0.041,0.002c-0.143,0.007-0.285,0.012-0.42,0.012c-3.945,0-5.713-3.721-6.52-13.726c-0.301-3.701,0.303-6.419,1.797-8.076
			c1.346-1.496,2.932-1.549,2.949-1.549c0.313-0.009,0.578-0.229,0.643-0.536c1.371-6.43,0.477-12.714-2.656-18.68
			c-2.563-4.878-5.953-8.335-7.98-10.401l-0.121-0.123c-3.555-3.623-2.971-9.827-2.963-9.889c0.02-0.191-0.045-0.384-0.174-0.525
			c-2.158-2.348-2.076-5.442-2.053-5.867l4.125-32.154c0,0-0.318-0.072-0.82-0.119l-11.926,78.021
			c0.918,0.037,1.85,0.156,2.701,0.413l5.564-43.394c0.299,1.123,0.859,2.414,1.91,3.557c0,0-0.676,6.527,3.15,10.43
			c3.828,3.902,13.732,13.808,10.582,28.59c0,0-6.229,0.151-5.404,10.357c0.799,9.882,2.586,14.347,7.195,14.347
			c0.15,0,0.305-0.004,0.461-0.015c0,0,14.092,41.626-18.855,41.626c-0.453,0-0.916-0.012-1.387-0.026
			c-0.084,0.3-0.357,0.644-0.373,0.66c0.598,0.025,1.189,0.042,1.76,0.042c8.357,0,14.498-2.65,18.246-7.877
			c2.029-2.83,3.354-6.425,3.936-10.686C113.484,155.911,113.484,152.107,113.021,147.984z"/>
	</g>
</g>
<g id="Orientierungskreise" display="none">
	<g id="Weißer_Kreis_x5F_Violin_9_" display="inline">
		<g>
			<path fill="#4D4D4F" d="M-1122.268,9.917c47.365,0,85.898,38.534,85.898,85.899c0,47.365-38.534,85.898-85.898,85.898
				c-47.365,0-85.899-38.534-85.899-85.898C-1208.167,48.451-1169.633,9.917-1122.268,9.917 M-1122.268,9.69
				c-47.566,0-86.126,38.559-86.126,86.126c0,47.565,38.56,86.125,86.126,86.125s86.125-38.56,86.125-86.125
				C-1036.143,48.249-1074.702,9.69-1122.268,9.69L-1122.268,9.69z"/>
		</g>
	</g>
	<g id="Weißer_Kreis_x5F_Violin_10_" display="inline">
		<g>
			<path fill="#4D4D4F" d="M-1122.268,12.492c45.944,0,83.322,37.378,83.322,83.323c0,45.944-37.378,83.322-83.322,83.322
				c-45.945,0-83.323-37.378-83.323-83.322C-1205.591,49.871-1168.212,12.492-1122.268,12.492 M-1122.268,12.272
				c-46.139,0-83.543,37.402-83.543,83.543c0,46.139,37.404,83.542,83.543,83.542s83.542-37.403,83.542-83.542
				C-1038.726,49.675-1076.128,12.272-1122.268,12.272L-1122.268,12.272z"/>
		</g>
	</g>
	<g id="Weißer_Kreis_x5F_Violin_2_" display="inline">
		<g>
			<path fill="#4D4D4F" d="M-1122.268,232.007c47.365,0,85.898,38.534,85.898,85.899c0,47.365-38.534,85.898-85.898,85.898
				c-47.365,0-85.899-38.534-85.899-85.898C-1208.167,270.542-1169.633,232.007-1122.268,232.007 M-1122.268,231.781
				c-47.566,0-86.126,38.559-86.126,86.126c0,47.565,38.56,86.125,86.126,86.125s86.125-38.56,86.125-86.125
				C-1036.143,270.339-1074.702,231.781-1122.268,231.781L-1122.268,231.781z"/>
		</g>
	</g>
	<g id="Weißer_Kreis_x5F_Violin_1_" display="inline">
		<g>
			<path fill="#4D4D4F" d="M-1122.268,234.583c45.944,0,83.322,37.378,83.322,83.323c0,45.944-37.378,83.322-83.322,83.322
				c-45.945,0-83.323-37.378-83.323-83.322C-1205.591,271.961-1168.212,234.583-1122.268,234.583 M-1122.268,234.363
				c-46.139,0-83.543,37.402-83.543,83.543c0,46.139,37.404,83.542,83.543,83.542s83.542-37.403,83.542-83.542
				C-1038.726,271.765-1076.128,234.363-1122.268,234.363L-1122.268,234.363z"/>
		</g>
	</g>
	<g id="Weißer_Kreis_x5F_Violin_6_" display="inline">
		<g>
			<path fill="#4D4D4F" d="M-1122.268,676.192c47.365,0,85.898,38.534,85.898,85.899c0,47.364-38.534,85.898-85.898,85.898
				c-47.365,0-85.899-38.534-85.899-85.898C-1208.167,714.727-1169.633,676.192-1122.268,676.192 M-1122.268,675.966
				c-47.566,0-86.126,38.559-86.126,86.126c0,47.565,38.56,86.125,86.126,86.125s86.125-38.56,86.125-86.125
				C-1036.143,714.524-1074.702,675.966-1122.268,675.966L-1122.268,675.966z"/>
		</g>
	</g>
	<g id="Weißer_Kreis_x5F_Violin_5_" display="inline">
		<g>
			<path fill="#4D4D4F" d="M-1122.268,678.768c45.944,0,83.322,37.379,83.322,83.323s-37.378,83.322-83.322,83.322
				c-45.945,0-83.323-37.378-83.323-83.322S-1168.212,678.768-1122.268,678.768 M-1122.268,678.548
				c-46.139,0-83.543,37.402-83.543,83.543c0,46.139,37.404,83.542,83.543,83.542s83.542-37.403,83.542-83.542
				C-1038.726,715.95-1076.128,678.548-1122.268,678.548L-1122.268,678.548z"/>
		</g>
	</g>
	<g id="Weißer_Kreis_x5F_Violin_8_" display="inline">
		<g>
			<path fill="#4D4D4F" d="M-1122.268,898.285c47.365,0,85.898,38.534,85.898,85.899c0,47.364-38.534,85.898-85.898,85.898
				c-47.365,0-85.899-38.534-85.899-85.898C-1208.167,936.819-1169.633,898.285-1122.268,898.285 M-1122.268,898.059
				c-47.566,0-86.126,38.559-86.126,86.126c0,47.565,38.56,86.125,86.126,86.125s86.125-38.56,86.125-86.125
				C-1036.143,936.617-1074.702,898.059-1122.268,898.059L-1122.268,898.059z"/>
		</g>
	</g>
	<g id="Weißer_Kreis_x5F_Violin_7_" display="inline">
		<g>
			<path fill="#4D4D4F" d="M-1122.268,900.86c45.944,0,83.322,37.379,83.322,83.323s-37.378,83.322-83.322,83.322
				c-45.945,0-83.323-37.378-83.323-83.322S-1168.212,900.86-1122.268,900.86 M-1122.268,900.641
				c-46.139,0-83.543,37.402-83.543,83.543c0,46.139,37.404,83.542,83.543,83.542s83.542-37.403,83.542-83.542
				C-1038.726,938.043-1076.128,900.641-1122.268,900.641L-1122.268,900.641z"/>
		</g>
	</g>
	<g id="Weißer_Kreis_x5F_Violin_4_" display="inline">
		<g>
			<path fill="#4D4D4F" d="M-1122.268,454.101c47.365,0,85.898,38.534,85.898,85.899c0,47.364-38.534,85.898-85.898,85.898
				c-47.365,0-85.899-38.534-85.899-85.898C-1208.167,492.635-1169.633,454.101-1122.268,454.101 M-1122.268,453.874
				c-47.566,0-86.126,38.559-86.126,86.126c0,47.565,38.56,86.125,86.126,86.125s86.125-38.56,86.125-86.125
				C-1036.143,492.433-1074.702,453.874-1122.268,453.874L-1122.268,453.874z"/>
		</g>
	</g>
	<g id="Weißer_Kreis_x5F_Violin_3_" display="inline">
		<g>
			<path fill="#4D4D4F" d="M-1122.267,456.676c45.944,0,83.322,37.378,83.322,83.323c0,45.944-37.378,83.323-83.322,83.323
				c-45.945,0-83.323-37.379-83.323-83.323C-1205.59,494.055-1168.212,456.676-1122.267,456.676 M-1122.267,456.457
				c-46.139,0-83.543,37.402-83.543,83.543c0,46.139,37.404,83.542,83.543,83.542s83.542-37.403,83.542-83.542
				C-1038.725,493.859-1076.128,456.457-1122.267,456.457L-1122.267,456.457z"/>
		</g>
	</g>
</g>
</svg>
