<?xml version="1.0" encoding="utf-8"?>
<!-- Generator: Adobe Illustrator 15.0.0, SVG Export Plug-In . SVG Version: 6.00 Build 0)  -->
<!DOCTYPE svg PUBLIC "-//W3C//DTD SVG 1.1//EN" "http://www.w3.org/Graphics/SVG/1.1/DTD/svg11.dtd">
<svg version="1.1" id="Ebene_1" xmlns="http://www.w3.org/2000/svg" xmlns:xlink="http://www.w3.org/1999/xlink" x="0px" y="0px"
	 width="190px" height="190px" viewBox="0 0 190 190" enable-background="new 0 0 190 190" xml:space="preserve">
<g id="Orientierungskreise" display="none">
	<g id="Weißer_Kreis_x5F_Violin_9_" display="inline">
		<g>
			<path fill="#4D4D4F" d="M-1122.268,9.917c47.365,0,85.898,38.534,85.898,85.899s-38.534,85.897-85.898,85.897
				c-47.365,0-85.899-38.534-85.899-85.897C-1208.167,48.451-1169.633,9.917-1122.268,9.917 M-1122.268,9.69
				c-47.566,0-86.126,38.559-86.126,86.126c0,47.564,38.56,86.125,86.126,86.125s86.125-38.561,86.125-86.125
				C-1036.143,48.249-1074.702,9.69-1122.268,9.69L-1122.268,9.69z"/>
		</g>
	</g>
	<g id="Weißer_Kreis_x5F_Violin_10_" display="inline">
		<g>
			<path fill="#4D4D4F" d="M-1122.268,12.492c45.944,0,83.322,37.378,83.322,83.322s-37.378,83.322-83.322,83.322
				c-45.945,0-83.323-37.378-83.323-83.322C-1205.591,49.871-1168.212,12.492-1122.268,12.492 M-1122.268,12.272
				c-46.139,0-83.543,37.402-83.543,83.542c0,46.14,37.404,83.543,83.543,83.543c46.139,0,83.542-37.403,83.542-83.543
				S-1076.128,12.272-1122.268,12.272L-1122.268,12.272z"/>
		</g>
	</g>
	<g id="Weißer_Kreis_x5F_Violin_2_" display="inline">
		<g>
			<path fill="#4D4D4F" d="M-1122.268,232.007c47.365,0,85.898,38.534,85.898,85.899s-38.534,85.898-85.898,85.898
				c-47.365,0-85.899-38.535-85.899-85.898C-1208.167,270.542-1169.633,232.007-1122.268,232.007 M-1122.268,231.781
				c-47.566,0-86.126,38.559-86.126,86.125s38.56,86.125,86.126,86.125s86.125-38.559,86.125-86.125
				C-1036.143,270.339-1074.702,231.781-1122.268,231.781L-1122.268,231.781z"/>
		</g>
	</g>
	<g id="Weißer_Kreis_x5F_Violin_1_" display="inline">
		<g>
			<path fill="#4D4D4F" d="M-1122.268,234.583c45.944,0,83.322,37.378,83.322,83.323c0,45.943-37.378,83.322-83.322,83.322
				c-45.945,0-83.323-37.379-83.323-83.322C-1205.591,271.961-1168.212,234.583-1122.268,234.583 M-1122.268,234.363
				c-46.139,0-83.543,37.402-83.543,83.543c0,46.139,37.404,83.541,83.543,83.541c46.139,0,83.542-37.402,83.542-83.541
				C-1038.726,271.766-1076.128,234.363-1122.268,234.363L-1122.268,234.363z"/>
		</g>
	</g>
	<g id="Weißer_Kreis_x5F_Violin_6_" display="inline">
		<g>
			<path fill="#4D4D4F" d="M-1122.268,676.191c47.365,0,85.898,38.535,85.898,85.9c0,47.363-38.534,85.896-85.898,85.896
				c-47.365,0-85.899-38.533-85.899-85.896C-1208.167,714.727-1169.633,676.191-1122.268,676.191 M-1122.268,675.967
				c-47.566,0-86.126,38.559-86.126,86.125c0,47.564,38.56,86.125,86.126,86.125s86.125-38.561,86.125-86.125
				C-1036.143,714.523-1074.702,675.967-1122.268,675.967L-1122.268,675.967z"/>
		</g>
	</g>
	<g id="Weißer_Kreis_x5F_Violin_5_" display="inline">
		<g>
			<path fill="#4D4D4F" d="M-1122.268,678.768c45.944,0,83.322,37.379,83.322,83.324c0,45.943-37.378,83.32-83.322,83.32
				c-45.945,0-83.323-37.377-83.323-83.32C-1205.591,716.146-1168.212,678.768-1122.268,678.768 M-1122.268,678.549
				c-46.139,0-83.543,37.4-83.543,83.543c0,46.139,37.404,83.541,83.543,83.541c46.139,0,83.542-37.402,83.542-83.541
				C-1038.726,715.949-1076.128,678.549-1122.268,678.549L-1122.268,678.549z"/>
		</g>
	</g>
	<g id="Weißer_Kreis_x5F_Violin_8_" display="inline">
		<g>
			<path fill="#4D4D4F" d="M-1122.268,898.285c47.365,0,85.898,38.533,85.898,85.898s-38.534,85.898-85.898,85.898
				c-47.365,0-85.899-38.533-85.899-85.898S-1169.633,898.285-1122.268,898.285 M-1122.268,898.059
				c-47.566,0-86.126,38.559-86.126,86.127c0,47.564,38.56,86.125,86.126,86.125s86.125-38.561,86.125-86.125
				C-1036.143,936.617-1074.702,898.059-1122.268,898.059L-1122.268,898.059z"/>
		</g>
	</g>
	<g id="Weißer_Kreis_x5F_Violin_7_" display="inline">
		<g>
			<path fill="#4D4D4F" d="M-1122.268,900.859c45.944,0,83.322,37.379,83.322,83.324c0,45.943-37.378,83.322-83.322,83.322
				c-45.945,0-83.323-37.379-83.323-83.322C-1205.591,938.238-1168.212,900.859-1122.268,900.859 M-1122.268,900.641
				c-46.139,0-83.543,37.402-83.543,83.543c0,46.139,37.404,83.543,83.543,83.543c46.139,0,83.542-37.404,83.542-83.543
				C-1038.726,938.043-1076.128,900.641-1122.268,900.641L-1122.268,900.641z"/>
		</g>
	</g>
	<g id="Weißer_Kreis_x5F_Violin_4_" display="inline">
		<g>
			<path fill="#4D4D4F" d="M-1122.268,454.102c47.365,0,85.898,38.533,85.898,85.898c0,47.363-38.534,85.898-85.898,85.898
				c-47.365,0-85.899-38.535-85.899-85.898C-1208.167,492.635-1169.633,454.102-1122.268,454.102 M-1122.268,453.873
				c-47.566,0-86.126,38.561-86.126,86.127c0,47.564,38.56,86.125,86.126,86.125s86.125-38.561,86.125-86.125
				C-1036.143,492.434-1074.702,453.873-1122.268,453.873L-1122.268,453.873z"/>
		</g>
	</g>
	<g id="Weißer_Kreis_x5F_Violin_3_" display="inline">
		<g>
			<path fill="#4D4D4F" d="M-1122.267,456.676c45.944,0,83.322,37.379,83.322,83.324c0,45.943-37.378,83.322-83.322,83.322
				c-45.945,0-83.323-37.379-83.323-83.322C-1205.59,494.055-1168.212,456.676-1122.267,456.676 M-1122.267,456.457
				c-46.139,0-83.543,37.402-83.543,83.543c0,46.139,37.404,83.543,83.543,83.543c46.139,0,83.542-37.404,83.542-83.543
				C-1038.725,493.859-1076.128,456.457-1122.267,456.457L-1122.267,456.457z"/>
		</g>
	</g>
</g>
<path d="M155.905,155.048l-0.018-0.014c-0.025-0.136-0.088-0.219-0.141-0.268c-0.066-0.061-0.219-0.131-0.822-0.375
	c-0.16-0.065-0.357-0.146-0.412-0.172c-0.061-0.05-0.139-0.076-0.229-0.076c-0.041,0-0.086,0.006-0.133,0.019l-15.398-14.24
	c0.34-0.274,0.652-0.559,0.893-0.81c0.568-0.594,1.01-1.248,1.311-1.945c0.313-0.719,0.479-1.508,0.477-2.279
	c0-0.482-0.063-0.971-0.184-1.449c-0.17-0.667-0.455-1.32-0.852-1.943c-0.15-0.239-0.322-0.473-0.506-0.701
	c0.074-0.316,0.043-0.602-0.168-0.805c-0.08-0.076-2.975-2.861-3.004-2.889c-0.049-0.047-0.121-0.096-0.217-0.133
	c0.156-0.174,0.195-0.427,0.107-0.711c-0.074-0.25-0.244-0.501-0.473-0.709c-0.293-0.268-0.65-0.428-0.957-0.428
	c-0.203,0-0.375,0.068-0.492,0.199c-0.041,0.045-0.072,0.096-0.098,0.149c-0.014,0.032-0.023,0.069-0.031,0.104l-8.664-8.287
	c0.178,0.043,0.316,0.029,0.393-0.052c0.23-0.247-0.186-1.008-0.928-1.7c-0.742-0.693-1.529-1.055-1.76-0.809
	c-0.064,0.07-0.076,0.183-0.045,0.322l-10.082-9.645c0.197-0.233,0.221-0.608,0.1-0.729c-0.129-0.13-3.209-3.073-4.176-3.998
	c0.416-0.155,0.887-0.332,0.947-0.396c0.146-0.158-0.236-0.753-0.854-1.332c-0.619-0.576-1.24-0.917-1.389-0.759
	c-0.082,0.089-0.418,1.312-0.52,1.579l-1.258-1.203c0.217-0.047,0.41-0.156,0.563-0.315c0.443-0.472,0.387-1.249-0.127-1.735
	l-4.863-4.585c-0.254-0.24-0.578-0.373-0.91-0.373c-0.189,0-0.371,0.044-0.531,0.126l-9.682-9.221
	c-0.014-0.336-0.289-0.604-0.627-0.604h-0.006l-2.969-2.828c-0.01-0.338-0.287-0.609-0.627-0.609h-0.014l-0.191-0.183
	c0-0.345-0.281-0.624-0.627-0.624s-0.625,0.28-0.625,0.626c0,0.004,0,0.008,0,0.012l-0.635-0.606
	c-0.014-0.287-0.266-0.644-0.564-0.915l-0.514-0.463l2.574-2.731l0.551,0.498c0.234,0.21,0.52,0.336,0.795,0.352l6.201,5.591
	c-0.051,0.294-0.01,0.585,0.232,0.806c0.023,0.02,0.4,0.36,0.92,0.828c1.094,0.986,2.924,2.637,3.201,2.889
	c0.098,0.089,0.27,0.196,0.529,0.196c0.24,0,0.527-0.11,0.828-0.284c2.25,1.996,9.645,8.262,14.84,9.301
	c2.201,0.416,3.295,1.05,3.838,1.6c0.162,1.565,0.553,2.586,1.123,2.658c1.074,0.138,2.379-3.139,2.914-7.318
	c0.533-4.18,0.098-7.68-0.977-7.816c-0.627-0.08-1.328,0.996-1.912,2.733c-5.547,1.36-12.236-3.458-15.457-6.17
	c0.098-0.347,0.094-0.712-0.195-0.976c-0.021-0.02-0.354-0.319-0.824-0.743c-1.125-1.015-3.012-2.716-3.295-2.974
	c-0.1-0.09-0.271-0.197-0.531-0.197c-0.092,0-0.191,0.021-0.293,0.049L80.763,58.62c0.211-0.379,0.281-0.832,0.195-1.309
	c-0.104-0.584-0.432-1.135-0.92-1.551c-0.504-0.43-1.115-0.668-1.725-0.668l0,0c-0.416,0-0.795,0.114-1.105,0.322L61.679,41.411
	c0.201-0.375,0.268-0.82,0.184-1.287c-0.105-0.584-0.434-1.135-0.922-1.551c-0.502-0.431-1.115-0.668-1.725-0.668l0,0
	c-0.375,0-0.723,0.094-1.016,0.264c0.002-0.141-0.045-0.259-0.154-0.355c-0.084-0.074-3.314-2.873-3.473-3.012
	c-0.082-0.073-0.189-0.113-0.307-0.113l0,0c-0.059,0-0.129,0.021-0.201,0.049c-1.057-0.734-2.176-1.346-3.352-1.819
	c-1.85-0.748-3.734-1.127-5.602-1.129l0,0c-1.623,0.001-3.162,0.29-4.578,0.862c-2.389,0.889-6.395,4.318-7.482,7.881
	c-0.441,1.232-0.664,2.561-0.664,3.941c0.002,2.074,0.49,4.154,1.455,6.181c0.393,0.823,1.105,1.877,2.121,3.141
	c-0.096,0.22-0.08,0.388,0.08,0.548c0.08,0.079,3.08,3.128,3.279,3.328c0.08,0.079,0.184,0.125,0.301,0.133
	c0.047,0.002,0.098,0,0.16-0.014c0.244,0.224,0.512,0.469,0.795,0.73c0.076,0.016,0.119,0.056,0.193,0.197
	c0.084,0.162,0.322,0.564,0.393,0.705c0.152,0.293,0.254,0.51,0.305,0.646c0.035,0.092,0.07,0.184,0.107,0.278
	c0.318,0.816,0.676,1.505,0.676,2.739c0,0.86-0.076,1.3-0.273,2.313c-0.6,1.638-1.814,4.573-2.66,6.567
	c-0.477,1.131-0.916,2.152-1.201,2.811c-0.156,0.361-0.283,0.652-0.369,0.855c-0.084,0.189-0.131,0.299-0.137,0.311l-0.182,0.377
	c-0.152,0.347-0.113,0.668,0.234,0.818c0.086,0.039,0.203,0.079,0.299,0.079c0.273,0,0.527-0.231,0.637-0.481l-0.131,0.195
	l0.184-0.402c0.137-0.317,0.855-1.871,1.676-3.861c1.287-3.121,2.084-5.034,2.574-6.371c0.408-1.108,0.535-2.137,0.533-3.146
	c0.002-0.984-0.268-1.781-0.494-2.47c2.678,2.45,6.398,5.858,10.574,9.673c-0.016,0-0.031-0.003-0.047-0.003
	c-0.15,0-0.295,0.063-0.396,0.175c-0.098,0.106-0.146,0.243-0.141,0.388c0.006,0.144,0.07,0.275,0.176,0.372l4.008,3.661
	L56.97,75.11c-0.078,0.088-0.117,0.199-0.111,0.317s0.059,0.226,0.145,0.304c0.08,0.072,0.186,0.113,0.295,0.113
	c0.125,0,0.244-0.055,0.328-0.146l0.143-0.157l1.451,1.326l-0.125,0.139c-0.078,0.087-0.117,0.2-0.111,0.318
	c0.006,0.116,0.059,0.225,0.145,0.304c0.082,0.072,0.186,0.112,0.295,0.112c0.125,0,0.244-0.053,0.328-0.147l0.119-0.133
	l39.701,36.25l-0.23,0.246c-0.078,0.086-0.121,0.197-0.117,0.316c0.004,0.116,0.055,0.227,0.141,0.306
	c0.08,0.075,0.188,0.118,0.301,0.118c0.121,0,0.238-0.051,0.322-0.141l0.234-0.252l0.129,0.117c0.1,0.092,0.229,0.142,0.363,0.142
	c0.15,0,0.297-0.063,0.398-0.176c0.08-0.089,0.127-0.202,0.135-0.321c0.084,0.035,0.168,0.068,0.254,0.096
	c6.398,5.84,12.234,11.162,16.877,15.399c0.092,1.103,1.018,1.973,2.143,1.973l0.02-0.001c2.109,1.923,3.898,3.557,5.291,4.824
	c-0.043,0.282,0.01,0.535,0.203,0.721c1.02,0.938,2.967,2.732,3.072,2.832c0.09,0.086,0.252,0.188,0.508,0.188
	c0.096,0,0.195-0.014,0.301-0.039c0.535,0.41,1.121,0.745,1.746,0.994c0.861,0.345,1.762,0.52,2.678,0.52
	c0.91,0,1.793-0.173,2.621-0.513c0.252-0.103,0.533-0.256,0.82-0.438l15.588,14.415c-0.018,0.135,0.014,0.252,0.092,0.334
	c0.031,0.056,0.113,0.254,0.182,0.413c0.234,0.556,0.328,0.755,0.412,0.833c0.086,0.08,0.205,0.121,0.342,0.121
	c0.07,0.057,0.164,0.088,0.268,0.088c0.268,0,0.621-0.205,0.922-0.533C155.964,155.876,156.196,155.314,155.905,155.048z
	 M84.255,71.678c0.055,0.261,0.205,0.513,0.426,0.713l0.543,0.489l-2.574,2.732l-0.582-0.525c-0.25-0.227-0.521-0.385-0.75-0.443
	l-6.283-6.01c0.002-0.031,0.004-0.061,0.004-0.092c0-0.266-0.063-0.516-0.17-0.738l1.574-1.691c0.018,0.002,0.035,0.006,0.053,0.006
	c0.16,0,0.32-0.063,0.443-0.186l0.459-0.471l6.852,6.178C84.251,71.651,84.253,71.665,84.255,71.678z M71.017,61.097
	c0.16,0,0.322-0.063,0.443-0.186l0.418-0.428l4.6,4.147l-0.426,0.435c-0.119,0.12-0.176,0.277-0.176,0.434
	c0,0.063,0.012,0.124,0.031,0.186l-1.463,1.57c-0.277-0.234-0.633-0.377-1.02-0.377c-0.07,0-0.141,0.007-0.209,0.017l-4.049-3.872
	l1.799-1.93C70.981,61.094,70.999,61.097,71.017,61.097z M56.956,47.393c0.23,0.21,0.516,0.335,0.791,0.352l13.209,11.911
	l-0.381,0.389c-0.119,0.121-0.178,0.277-0.178,0.433c0,0.063,0.012,0.126,0.031,0.187l-1.756,1.887l-7.922-7.578
	c0.004-0.041,0.006-0.081,0.006-0.123c0-0.92-0.723-1.662-1.613-1.662c-0.082,0-0.16,0.008-0.238,0.02l-4.43-4.238l1.93-2.072
	L56.956,47.393z M51.454,45.612c0,0-0.002-0.002-0.002-0.004c-0.031-0.03-0.055-0.061-0.086-0.085
	c-0.111-0.11-0.32-0.317-0.566-0.556c-0.66-0.65-1.586-1.563-1.623-1.598c-0.072-0.069-0.203-0.153-0.408-0.153
	c-0.09,0-0.189,0.019-0.299,0.052c-0.467-0.375-0.967-0.684-1.488-0.923c-0.34-0.155-0.547-0.237-1.09-0.378
	c-0.521-0.137-1.145-0.188-1.416-0.189h-0.01c-1.09,0-2.166,0.467-2.957,1.277c-1.504,1.547-0.951,4.598,0.51,6.092l0.443,0.43
	c-0.01,0.053-0.018,0.103-0.021,0.15c-0.453-0.447-0.801-0.793-0.85-0.84c-0.078-0.08-0.182-0.126-0.299-0.134l0,0
	c-0.037-0.002-0.076,0.003-0.121,0.011c-0.285-0.385-0.551-0.792-0.742-1.193c-0.617-1.289-0.707-2.494-0.705-3.098
	c0-0.55,0.125-1.129,0.24-1.487c0.297-0.991,2.068-3.739,5.154-3.861c0.906,0,1.889,0.204,2.844,0.593
	c0.428,0.173,0.852,0.385,1.264,0.627c-0.01,0.157,0.035,0.286,0.156,0.391c0.084,0.074,3.287,2.793,3.5,2.979
	c0.084,0.074,0.189,0.112,0.307,0.112c0.053,0,0.109-0.007,0.18-0.029L54.702,45c0.002,0.013,0.004,0.024,0.006,0.037
	c0.055,0.259,0.205,0.513,0.426,0.712l0.545,0.492l-1.91,2.051l-2.158-2.064C51.663,45.96,51.61,45.76,51.454,45.612z
	 M105.069,108.774c0.766-0.748,0.777-1.688,0.574-2.556c1.496,1.456,8.805,8.547,10.715,10.398l-1.35,1.448
	C111.909,115.167,108.562,112.037,105.069,108.774z M130.649,132.165c-0.096-0.079-0.244-0.158-0.469-0.158
	c-0.074,0-0.152,0.012-0.23,0.027c-3.227-3.016-8.328-7.786-14.441-13.502l1.219-1.309c0.094,0.23,0.318,0.395,0.582,0.395
	c0.322,0,0.586-0.246,0.619-0.561c1.207,1.154,2.625,2.51,3.793,3.627c-0.209,0.057-0.412,0.119-0.553,0.201
	c-0.254,0.146-0.34,0.588-0.258,0.893c0.08,0.296,0.307,0.471,0.607,0.471c0.08,0,0.166-0.011,0.258-0.035
	c0.311-0.081,0.631-0.32,0.92-0.599c3.725,3.564,7.234,6.924,9.609,9.196c-0.025,0.146-0.025,0.283,0.006,0.408
	C131.646,131.78,131.05,132.042,130.649,132.165z"/>
<g>
	<path fill="#FFFFFF" d="M133.962,135.532c0.207-0.057,1.004-0.3,1.777-0.945c-0.119-0.036-0.205-0.093-0.262-0.146
		c-0.111-0.104-2.797-2.752-2.91-2.864c-0.012-0.011-0.02-0.024-0.031-0.036c-0.604,0.502-1.16,0.781-1.586,0.935
		c0.627,0.576,2.645,2.426,2.795,2.569C133.884,135.177,133.95,135.344,133.962,135.532z"/>
	<path fill="#FFFFFF" d="M132.335,126.849c0,0.238,0.191,0.431,0.43,0.431c0.031,0,0.061-0.003,0.09-0.01l1.313,1.262
		c-0.004,0.024-0.006,0.05-0.006,0.077c0,0.238,0.191,0.432,0.43,0.432s0.432-0.193,0.432-0.432c0-0.188-0.121-0.346-0.291-0.404
		l0.092-0.102l0.326-0.363l0.521-0.596c0.064,0.014,0.129,0.021,0.188,0.021c0.018,0,0.033-0.002,0.049-0.004
		c-0.281-0.03-0.594-0.182-0.855-0.42c-0.223-0.201-0.373-0.434-0.453-0.66c0.045,0.229,0.195,0.49,0.438,0.71
		c0.109,0.099,0.225,0.179,0.342,0.24l-0.445,0.509l-0.326,0.365l-0.178,0.197l-1.238-1.188c0.002-0.021,0.006-0.042,0.006-0.065
		c0-0.238-0.193-0.432-0.432-0.432c-0.027,0-0.057,0.004-0.084,0.009l-10.525-10.093c0.012-0.039,0.02-0.08,0.02-0.124
		c0-0.237-0.193-0.431-0.432-0.431c-0.049,0-0.096,0.01-0.141,0.024L99.599,94.704c0.01-0.114-0.029-0.231-0.119-0.316l-0.014-0.014
		c0.068-0.041,0.137-0.094,0.201-0.162c0.207-0.217,0.279-0.48,0.164-0.59l-0.295-0.282c-0.055-0.052-0.143-0.058-0.24-0.026
		c0.1-0.182,0.121-0.355,0.031-0.441l-1.398-1.318c-0.1-0.096-0.307-0.046-0.504,0.104c0.029-0.106,0.02-0.199-0.039-0.252
		l-0.295-0.282c-0.033-0.032-0.078-0.045-0.131-0.045l-7.545-7.235c0.004-0.025,0.008-0.051,0.008-0.076
		c0-0.058-0.012-0.111-0.033-0.162l0.654-0.701c0.033,0.008,0.066,0.014,0.104,0.014c0.033,0,0.066-0.006,0.1-0.014l9.881,9.414
		c-0.154,0.378-0.051,0.852,0.293,1.177l4.863,4.587c0.436,0.412,1.09,0.428,1.461,0.033c0.371-0.393,0.316-1.044-0.119-1.457
		l-4.861-4.586c-0.391-0.369-0.955-0.418-1.336-0.143l-9.855-9.389c0.002-0.019,0.006-0.037,0.006-0.055
		c0-0.238-0.193-0.431-0.432-0.431c-0.025,0-0.051,0.004-0.076,0.008l-3.1-2.954c0.002-0.02,0.006-0.04,0.006-0.062
		c0-0.237-0.193-0.431-0.432-0.431c-0.027,0-0.057,0.002-0.084,0.008l-0.324-0.309c0.006-0.024,0.008-0.049,0.008-0.075
		c0-0.237-0.193-0.432-0.432-0.432c-0.236,0-0.43,0.194-0.43,0.432c0,0.058,0.012,0.112,0.031,0.163l-0.137,0.146
		c-0.031-0.016-0.066-0.028-0.102-0.028c-0.057,0-0.115,0.022-0.158,0.065l-0.551,0.551c-0.02,0.021-0.025,0.037-0.029,0.049
		c-0.012,0.035-0.01,0.059-0.01,0.09c0,0.114,0.025,0.31,0.049,0.484c0.025,0.173,0.051,0.32,0.051,0.32
		c0.008,0.047,0.043,0.082,0.09,0.087c0,0,0.127,0.017,0.281,0.034c0.154,0.016,0.334,0.031,0.451,0.031
		c0.021,0,0.039,0,0.057-0.002c0,0.008-0.002,0.015-0.002,0.023c0.002,0.114,0.025,0.31,0.051,0.482
		c0.025,0.174,0.049,0.321,0.049,0.321c0.01,0.046,0.047,0.081,0.092,0.087c0,0,0.127,0.018,0.281,0.033
		c0.154,0.017,0.334,0.033,0.451,0.033c0.027,0,0.053,0,0.076-0.004l0.039-0.008c0.014-0.004,0.031-0.008,0.055-0.032l0.549-0.55
		c0.045-0.043,0.066-0.102,0.066-0.158s-0.021-0.115-0.064-0.158l-0.723-0.722l0.131-0.146c0.057,0.027,0.121,0.044,0.188,0.044
		c0.031,0,0.063-0.003,0.092-0.011l3.086,2.938c-0.004,0.026-0.008,0.052-0.008,0.079c0,0.094,0.031,0.18,0.082,0.251l-0.605,0.651
		c-0.061-0.032-0.129-0.053-0.201-0.053c-0.238,0-0.43,0.193-0.43,0.432s0.191,0.432,0.43,0.432c0.027,0,0.053-0.004,0.078-0.008
		l6.609,6.338l-0.4,0.389c0,0-0.881,0.783-1.248,1.438c-0.068,0.124-0.252,0.497,0.01,0.983c0.316,0.519,0.947,0.855,1.313,0.522
		c0.473-0.427-0.002-1.019-0.238-1.251c-0.299-0.307,0.068-0.92,0.43-1.365l0.436-0.43l0.529,0.508
		c-0.098,0.106-0.162,0.221-0.191,0.324c-0.059,0.02-0.111,0.051-0.158,0.099c-0.148,0.156-0.143,0.404,0.012,0.554l2.768,2.652
		c0.09,0.086,0.207,0.119,0.32,0.104l0.172,0.164c-0.445,0.356-1.043,0.707-1.344,0.414c-0.232-0.235-0.826-0.711-1.252-0.238
		c-0.332,0.366,0.004,0.996,0.523,1.312c0.484,0.262,0.859,0.079,0.98,0.009c0.568-0.316,1.229-1.017,1.398-1.201l21.576,20.688
		c0,0.002,0,0.003,0,0.006c0,0.238,0.191,0.432,0.43,0.432c0.008,0,0.014-0.002,0.023-0.003l2.322,2.229l-0.6,0.821
		c-0.422,0.572-0.805,0.848-1.082,0.982c-0.275,0.133-0.873,0.229-1.141,0.384c-0.27,0.155-0.357,1.185,0.459,0.971
		c0.818-0.215,1.779-1.708,1.779-1.708l0.865-1.183l7.973,7.644C132.339,126.802,132.335,126.825,132.335,126.849z M85.989,79.351
		c-0.006-0.008-0.01-0.019-0.018-0.027l-0.551-0.549l0.123-0.139c0.053,0.022,0.109,0.035,0.17,0.035
		c0.027,0,0.055-0.003,0.08-0.008l0.328,0.313c-0.004,0.023-0.008,0.047-0.008,0.071c0,0.05,0.012,0.097,0.027,0.142L85.989,79.351z
		"/>
	<path fill="#FFFFFF" d="M136.009,126.969c0.141,0,0.264-0.044,0.346-0.134c0.227-0.248,0.07-0.758-0.35-1.141
		c-0.268-0.242-0.576-0.375-0.824-0.375c-0.141,0-0.264,0.043-0.346,0.135c-0.227,0.248-0.07,0.758,0.35,1.141
		C135.452,126.837,135.761,126.969,136.009,126.969z"/>
	<path fill="#FFFFFF" d="M123.048,127.255c-0.037,0-0.072,0.006-0.105,0.014l-8.424-7.958l2.324-2.495l0.055,0.053
		c-0.012,0.039-0.02,0.08-0.02,0.123c0,0.238,0.193,0.432,0.432,0.432s0.432-0.193,0.432-0.432c0-0.237-0.193-0.431-0.432-0.431
		c-0.008,0-0.016,0.001-0.016,0.001l-12.682-12.301c0,0,0.836,1.332,0.908,1.563c0.072,0.081,11.111,10.786,11.111,10.786
		l-2.326,2.498l-0.588-0.557c0.002-0.02,0.006-0.039,0.006-0.061c0-0.238-0.193-0.432-0.432-0.432s-0.432,0.193-0.432,0.432
		s0.193,0.432,0.432,0.432c0.031,0,0.063-0.004,0.094-0.01l8.988,8.49l-0.395,0.422c-0.332-0.309-0.773-0.498-1.264-0.498
		c-0.031,0-0.064,0.003-0.098,0.005c1.055,0.05,1.902,0.896,1.951,1.952c0.002-0.033,0.006-0.065,0.006-0.1
		c0-0.432-0.148-0.828-0.396-1.144l0.408-0.436l0.035,0.034c-0.002,0.016-0.006,0.03-0.006,0.046c0,0.238,0.193,0.431,0.432,0.431
		s0.432-0.192,0.432-0.431C123.479,127.448,123.286,127.255,123.048,127.255z"/>
	<circle fill="#FFFFFF" cx="120.521" cy="129.381" r="1.858"/>
	<path fill="#FFFFFF" d="M96.353,95.603c0.234-0.259,0.238-0.637,0.01-0.847l-0.471-0.427c-0.23-0.211-0.605-0.172-0.84,0.086
		c-0.236,0.258-0.242,0.637-0.012,0.846l0.471,0.428C95.741,95.899,96.116,95.859,96.353,95.603z"/>
	<path fill="#FFFFFF" d="M98.368,84.304c0.605,0,1.896-1.121,2.908-2.231c0.641-0.704,1.189-1.419,1.545-2.013
		c0.424-0.709,0.516-1.138,0.285-1.347c-0.047-0.044-3.988-3.608-4.107-3.717c0.229,0.21,0.139,0.638-0.285,1.347
		c-0.355,0.594-0.904,1.309-1.547,2.014c-1.012,1.11-2.303,2.23-2.906,2.23c-0.135,0-0.221-0.051-0.268-0.095
		c0.047,0.044,3.967,3.591,4.107,3.717C98.147,84.253,98.233,84.304,98.368,84.304z"/>
	<path fill="#FFFFFF" d="M87.813,95.341l-1.895-1.783c-0.266,0.425-0.604,0.87-0.996,1.283c-0.727,0.761-1.52,1.357-2.109,1.615
		c-0.154,0.067-0.295,0.111-0.424,0.128c0.197,0.179,0.486,0.446,0.814,0.747c0.576,0.525,1.26,1.152,1.727,1.579
		c0.313,0.284,0.523,0.479,0.547,0.501c0.029,0.029,0.076,0.048,0.156,0.049c0.107,0,0.264-0.04,0.445-0.12
		c0.184-0.08,0.393-0.198,0.617-0.349c0.447-0.299,0.953-0.725,1.428-1.223c0.385-0.405,0.713-0.828,0.969-1.223l-1.275-1.201
		L87.813,95.341z"/>
	<path fill="#FFFFFF" d="M53.308,57.774c0.189-0.208,0.053-0.642-0.305-0.971s-0.803-0.428-0.992-0.221l-0.92,1.002
		c0,0.002-0.002,0.004-0.002,0.005l1.281,1.201c0.006-0.006,0.014-0.009,0.02-0.015L53.308,57.774z"/>
	<path fill="#FFFFFF" d="M49.968,58.81l-0.918,1.002c-0.189,0.207-0.055,0.641,0.305,0.97c0.357,0.328,0.803,0.428,0.992,0.22
		L51.267,60c0.004-0.003,0.004-0.009,0.008-0.015l-1.275-1.2C49.989,58.794,49.978,58.801,49.968,58.81z"/>
	<path fill="#FFFFFF" d="M57.085,47.247c0.395,0.354,0.924,0.408,1.184,0.12s0.152-0.81-0.24-1.163l-1.82-1.645
		c-0.395-0.354-0.922-0.407-1.184-0.119c-0.26,0.289-0.152,0.809,0.242,1.164l0.691,0.623l-2.25,2.418l-0.725-0.654
		c-0.393-0.355-0.824-0.516-0.963-0.361c-0.141,0.155,0.064,0.568,0.457,0.922l1.82,1.645c0.395,0.354,0.824,0.516,0.965,0.361
		c0.141-0.156-0.064-0.567-0.457-0.922l-0.662-0.598l2.25-2.417L57.085,47.247z"/>
	<path fill="#FFFFFF" d="M50.966,41.569c0.66,0.563,1.42,1.209,1.955,1.664c0.127-0.311,0.328-0.607,0.482-0.838
		c0.396-0.582,0.965-1.306,1.607-2.038c0.596-0.681,1.199-1.308,1.703-1.768c0.363-0.331,0.637-0.544,0.855-0.677
		c-0.258-0.223-0.568-0.492-0.893-0.773c-1.064-0.922-2.27-1.965-2.361-2.043c-0.008-0.008-0.02-0.016-0.047-0.016
		c-0.227,0.017-1.109,0.669-2.623,2.396c-0.625,0.715-1.178,1.416-1.557,1.975c-0.512,0.756-0.502,0.943-0.449,0.989
		C49.675,40.474,50.302,41.005,50.966,41.569z"/>
	<path fill="#FFFFFF" d="M77.562,58.661c0.465,0.396,1.018,0.596,1.533,0.596c0.488,0,0.939-0.179,1.246-0.537
		c0.631-0.74,0.41-1.965-0.494-2.736c-0.465-0.397-1.02-0.597-1.533-0.597c-0.488,0-0.939,0.178-1.246,0.538
		C76.437,56.664,76.657,57.89,77.562,58.661z"/>
	<path fill="#FFFFFF" d="M58.464,41.474c0.465,0.396,1.02,0.597,1.533,0.597c0.488,0,0.939-0.178,1.246-0.537
		c0.633-0.74,0.412-1.966-0.492-2.737c-0.465-0.396-1.02-0.596-1.535-0.596c-0.486,0-0.939,0.178-1.244,0.537
		C57.339,39.478,57.56,40.702,58.464,41.474z"/>
	<path fill="#FFFFFF" d="M61.345,70.968c-0.936-0.801-2.234-0.826-2.98-0.09c0.289-0.139,0.617-0.213,0.965-0.213
		c0.631,0,1.258,0.238,1.766,0.674c0.516,0.438,0.85,1.025,0.945,1.654c0.035,0.227,0.035,0.449,0.006,0.664
		C62.464,72.817,62.196,71.694,61.345,70.968z"/>
	<path fill="#FFFFFF" d="M103.649,109.847c-0.955-0.816-2.291-0.825-3.029-0.039c0.313-0.171,0.674-0.264,1.063-0.264
		c0.629,0,1.256,0.24,1.766,0.676c0.514,0.438,0.85,1.025,0.945,1.654c0.027,0.177,0.031,0.352,0.02,0.521
		C104.735,111.573,104.452,110.532,103.649,109.847z"/>
	<path fill="#FFFFFF" d="M58.319,41.976c0.426,0.306,0.908,0.459,1.361,0.459c0.336,0,0.656-0.087,0.924-0.259
		c-0.189,0.06-0.393,0.089-0.607,0.089c-0.584,0-1.174-0.227-1.66-0.643c-0.471-0.402-0.787-0.933-0.889-1.494
		c-0.043-0.242-0.043-0.477-0.004-0.697c-0.316,0.672-0.121,1.564,0.508,2.223l-0.844,0.906l-0.77-0.693v-0.001
		c-0.012-0.184-0.164-0.324-0.346-0.324l-0.021,0.001c-0.189,0.012-0.334,0.175-0.322,0.364c0.01,0.183,0.162,0.323,0.344,0.323
		h0.018l10.684,9.609l-1.154,1.24c-0.094,0.098-0.088,0.252,0.012,0.346c0.047,0.043,0.105,0.064,0.166,0.064
		c0.066,0,0.131-0.026,0.18-0.078l1.16-1.246l6.203,5.578l-1.111,1.194c0.086,0.028,0.166,0.074,0.236,0.142
		c0.055,0.055,0.096,0.117,0.127,0.184l1.111-1.193l2.365,2.127l0.027,0.039l0.047,0.029l2.713,2.44l-1.156,1.242
		c-0.002,0.003-0.004,0.005-0.006,0.007c0.092,0.027,0.176,0.076,0.248,0.146l0,0c0.053,0.051,0.092,0.111,0.121,0.174l1.156-1.243
		l3.482,3.132l-1.158,1.242c-0.09,0.1-0.086,0.254,0.014,0.346c0.047,0.044,0.107,0.066,0.166,0.066c0.066,0,0.131-0.027,0.18-0.078
		l1.158-1.245l-0.002,0.046c0.014,0.219,0.193,0.387,0.41,0.387l0.025-0.002c0.227-0.014,0.4-0.207,0.387-0.436
		c-0.014-0.218-0.195-0.387-0.412-0.387l-0.023,0.002c-0.023,0.001-0.045,0.006-0.066,0.01l-6.762-6.081l0.84-0.902
		c0.436,0.325,0.936,0.491,1.4,0.491c0.338,0,0.656-0.088,0.922-0.26c-0.188,0.059-0.393,0.09-0.605,0.09
		c-0.586,0-1.176-0.227-1.66-0.643c-0.473-0.402-0.787-0.934-0.889-1.494c-0.043-0.242-0.043-0.477-0.006-0.697
		c-0.309,0.66-0.125,1.531,0.475,2.186l-0.84,0.902l-8.961-8.059l-0.004-0.006l-0.006-0.004l-9.732-8.752L58.319,41.976z"/>
	<path fill="#FFFFFF" d="M77.81,64.358c-0.021-0.043-0.049-0.082-0.084-0.117l0,0c-0.049-0.049-0.105-0.08-0.164-0.1
		c-0.021-0.006-0.043-0.012-0.064-0.016s-0.045-0.007-0.068-0.007c-0.109,0-0.219,0.042-0.303,0.128l-0.934,0.955
		c-0.082,0.082-0.121,0.188-0.121,0.297c0,0.035,0.006,0.071,0.016,0.105c0,0.008,0.004,0.014,0.004,0.021
		c0.012,0.034,0.025,0.067,0.045,0.099c0.02,0.027,0.039,0.054,0.063,0.078c0.051,0.049,0.109,0.081,0.174,0.101
		c0.02,0.005,0.039,0.011,0.059,0.014s0.043,0.007,0.064,0.007c0.109,0,0.219-0.044,0.303-0.127l0.934-0.956
		c0.082-0.083,0.121-0.19,0.121-0.297c0-0.032-0.004-0.063-0.012-0.094c0-0.001,0-0.002,0-0.002
		C77.833,64.417,77.823,64.387,77.81,64.358z"/>
	<path fill="#FFFFFF" d="M72.249,59.22L72.249,59.22c-0.059-0.059-0.129-0.094-0.203-0.109c-0.031-0.008-0.063-0.014-0.094-0.014
		c-0.111,0.002-0.219,0.043-0.305,0.129l-0.934,0.955c-0.08,0.084-0.121,0.189-0.121,0.296c0,0.036,0.006,0.072,0.016,0.107
		c0.002,0.007,0.004,0.013,0.006,0.021c0.012,0.033,0.025,0.067,0.045,0.098c0.018,0.027,0.037,0.053,0.063,0.078
		c0.049,0.05,0.109,0.082,0.174,0.102c0.02,0.006,0.037,0.01,0.057,0.013c0.021,0.003,0.043,0.007,0.064,0.007
		c0.111,0,0.221-0.043,0.303-0.128l0.936-0.954c0.082-0.084,0.121-0.189,0.121-0.297c0-0.024-0.004-0.049-0.008-0.072
		c-0.004-0.022-0.01-0.045-0.018-0.068C72.331,59.323,72.298,59.267,72.249,59.22z"/>
	<path fill="#FFFFFF" d="M104.493,104.484L91.716,92.41c0.066-0.161,0.086-0.273,0.061-0.317c-0.102-0.095-0.988-0.948-1.443-1.388
		c-0.172,0.501-0.648,1.183-1.143,1.7c-0.162,0.17-0.326,0.324-0.486,0.464l0.83,0.779l0.668,0.626
		c0.012-0.011,0.025-0.021,0.037-0.032l1.754,1.638l-0.17,0.183l-1.121-1.05l-1.301-1.222l0,0l-10.607-9.948
		c0.613-0.16,2.064-1.68,2.064-2.192l8.459,8.124c0.086-0.011,0.164-0.028,0.232-0.048L70.884,71.798l5.346-5.742
		c-0.061-0.028-0.117-0.065-0.168-0.114c-0.023-0.022-0.041-0.048-0.061-0.073l-5.33,5.727l-5.148-4.944l5.229-5.616
		c-0.059-0.027-0.117-0.064-0.168-0.113c-0.021-0.023-0.041-0.048-0.059-0.072l-5.213,5.598l-3.074-2.95l0.314-0.338l0.389,0.376
		c0.082,0.112,0.213,0.188,0.361,0.188c0.246,0,0.445-0.199,0.445-0.446c0-0.244-0.199-0.442-0.445-0.442
		c-0.105,0-0.201,0.037-0.279,0.102l-6.004-5.783l0.744-0.797c0.053-0.059,0.051-0.152-0.008-0.207
		c-0.029-0.026-0.064-0.039-0.1-0.039c-0.041,0-0.08,0.015-0.107,0.045l-0.74,0.795l-6.164-5.937
		c0.047-0.071,0.076-0.159,0.076-0.25c0-0.246-0.199-0.445-0.443-0.445c-0.1,0-0.189,0.033-0.264,0.087l-1.076-1.035
		c0.045-0.069,0.072-0.152,0.072-0.242c0-0.246-0.197-0.444-0.443-0.444s-0.445,0.198-0.445,0.444c0,0.192,0.123,0.354,0.293,0.416
		l0.127,0.123l-0.332,0.356l-1.557-1.495c0.156-0.174,0.316-0.348,0.482-0.521c0.814-0.855,2.324-2.268,3.381-2.77
		c-0.148-0.146-0.309-0.303-0.471-0.463c-0.516-0.508-1.102-1.086-1.137-1.119c-0.031-0.03-0.078-0.045-0.139-0.045
		c-0.59,0-2.207,1.326-3.43,2.607c-0.15,0.158-0.936,0.991-1.592,1.861c-1.146,1.518-0.902,1.826-0.871,1.855
		c0.029,0.029,0.178,0.182,0.639,0.658c0.215,0.224,0.439,0.458,0.592,0.614l0.018,0.019c0.115,0.118,0.229,0.236,0.336,0.346
		c0.15-0.357,0.393-0.723,0.611-1.052c0.365-0.552,0.869-1.19,1.449-1.847l1.555,1.494l-0.994,1.066
		c-0.129-0.064-0.271-0.104-0.422-0.104c-0.525,0-0.951,0.432-0.951,0.965s0.426,0.967,0.951,0.967c0.523,0,0.949-0.434,0.949-0.967
		c0-0.27-0.109-0.514-0.287-0.688l0.965-1.037l13.607,13.068l-1.492,1.6l-0.074-0.068c0.006-0.029,0.01-0.059,0.01-0.09
		c0-0.245-0.199-0.443-0.445-0.443c-0.244,0-0.443,0.198-0.443,0.443c0,0.246,0.199,0.445,0.443,0.445
		c0.031,0,0.063-0.004,0.09-0.01l5.367,5.168l-0.373,0.401l-9.033-8.471l0.002-0.035c0.002-0.309-0.143-0.712-0.613-1.147
		c-0.018-0.018-0.039-0.025-0.061-0.031c0.037-0.078,0.059-0.162,0.059-0.252c0-0.326-0.264-0.588-0.588-0.588
		c-0.26,0-0.477,0.17-0.555,0.404l-5.191-4.868c0.02-0.062,0.037-0.134,0.033-0.173c-0.008-0.074-0.203-0.32-0.229-0.352
		c-0.002-0.002-0.006-0.005-0.008-0.007c-0.006-0.009-0.01-0.017-0.018-0.024c-0.006-0.008-0.041-0.048-0.102-0.115
		c-0.289-0.318-1.074-1.138-2.123-1.891c-0.613-0.439-1.223-0.787-1.814-1.037c-0.133-0.056-0.266-0.104-0.398-0.15
		c-0.234-0.232-0.51-0.504-0.799-0.789c-1.002-0.988-2.139-2.107-2.223-2.192c-0.008-0.008-0.02-0.018-0.047-0.019
		c-0.227,0.002-1.15,0.596-2.771,2.223c-0.67,0.672-1.268,1.335-1.684,1.869c-0.559,0.721-0.541,0.779-0.492,0.828
		c0.033,0.033,0.604,0.734,1.23,1.34c0.623,0.605,1.338,1.299,1.842,1.787c0.094-0.188,0.211-0.365,0.33-0.528
		c0.248,0.646,0.559,1.275,0.84,1.825c0.086,0.166,0.17,0.327,0.25,0.479c0.086,0.161,0.164,0.314,0.236,0.455
		c0.15,0.293,0.252,0.51,0.305,0.646c0.035,0.092,0.07,0.184,0.107,0.278c0.318,0.816,0.68,1.742,0.68,2.976
		c0,0.861-0.174,1.752-0.529,2.723c-0.602,1.637-1.734,4.356-2.58,6.352c-0.479,1.129-0.918,2.152-1.203,2.811
		c-0.154,0.36-0.281,0.652-0.369,0.854c-0.082,0.191-0.131,0.3-0.135,0.313l-0.002,0.002c-0.15,0.347,0.008,0.75,0.354,0.901
		c0.088,0.038,0.18,0.058,0.273,0.058c0.273,0,0.52-0.162,0.629-0.411v-0.001l0.006-0.014c0.137-0.316,0.867-1.996,1.709-3.979
		c1.236-2.92,2.113-5.077,2.604-6.414c0.406-1.108,0.615-2.184,0.615-3.193c0-1.488-0.443-2.623-0.768-3.453
		c-0.039-0.1-0.076-0.195-0.111-0.287c-0.123-0.32-0.314-0.689-0.518-1.08l-0.084-0.158c-0.301-0.574-0.641-1.227-0.914-1.877
		c-0.158-0.378-0.279-0.723-0.361-1.03c-0.002-0.005-0.002-0.012-0.004-0.018c0.281-0.31,0.588-0.636,0.914-0.961
		c0.453-0.455,0.906-0.878,1.322-1.239c0.387,0.048,0.791,0.16,1.215,0.339c0.885,0.372,1.693,0.97,2.215,1.404
		c0.625,0.521,1.074,0.999,1.238,1.181c0,0,0.209,0.247,0.277,0.34c0.004,0.059,0.025,0.114,0.072,0.156l6.504,6.124l-0.385,0.413
		c-0.057,0.059-0.035,0.162,0.014,0.202c0.021,0.022,0.105,0.09,0.127,0.108l9.377,8.827l-1.369,1.472
		c-0.02,0.012-0.037,0.027-0.049,0.049l-0.02,0.033l-0.012,0.021l-0.93,1.614c-0.357-0.041-0.787-0.031-1.207,0.13
		c0,0-0.412,0.139-0.643,0.352l-1.342-1.225l0.209-0.232l0.051,0.047c0.484,0.415,1.068,0.623,1.623,0.623
		c0.564,0,1.096-0.215,1.461-0.644c0.725-0.848,0.518-2.214-0.463-3.05c-0.486-0.416-1.07-0.622-1.625-0.622
		c-0.563,0-1.096,0.214-1.461,0.643c-0.654,0.767-0.545,1.955,0.207,2.795l-0.219,0.243l-3.102-2.832l0.35-0.375
		c0.039,0.014,0.082,0.023,0.127,0.023c0.217,0,0.391-0.177,0.391-0.393c0-0.217-0.174-0.393-0.391-0.393s-0.391,0.176-0.391,0.393
		c0,0.063,0.016,0.122,0.043,0.176l-0.346,0.37l-0.902-0.824c-0.047-0.043-0.107-0.063-0.166-0.063c-0.064,0-0.131,0.027-0.18,0.079
		c-0.092,0.101-0.084,0.255,0.016,0.345l4.225,3.857l-0.342,0.38c-0.055,0.06-0.049,0.153,0.012,0.208
		c0.027,0.023,0.063,0.036,0.098,0.036c0.041,0,0.08-0.017,0.109-0.049l0.34-0.378l1.887,1.723l-0.32,0.355
		c-0.055,0.061-0.049,0.152,0.012,0.207c0.027,0.025,0.063,0.037,0.098,0.037c0.041,0,0.08-0.017,0.109-0.049l0.316-0.352
		l40.139,36.647l-0.43,0.462c-0.057,0.061-0.053,0.153,0.006,0.208c0.029,0.026,0.064,0.039,0.102,0.039
		c0.039,0,0.078-0.016,0.105-0.046l0.434-0.465l0.346,0.314c0.045,0.041,0.105,0.063,0.164,0.063c0.066,0,0.133-0.025,0.18-0.079
		c0.092-0.101,0.084-0.254-0.016-0.346l-0.34-0.312l0.105-0.114l0.041,0.038c0.484,0.414,1.07,0.621,1.623,0.621
		c0.344,0,0.674-0.08,0.963-0.238l0.469,0.439c0.158,0.146,0.406,0.139,0.555-0.02c0.146-0.158,0.139-0.404-0.02-0.553l-0.416-0.388
		c0.613-0.853,0.385-2.134-0.553-2.933c-0.484-0.416-1.07-0.622-1.623-0.622c-0.443,0-0.865,0.135-1.205,0.398l-0.559-0.522
		c-0.16-0.148-0.406-0.139-0.555,0.019c-0.146,0.159-0.139,0.406,0.02,0.554l0.6,0.559c-0.371,0.75-0.195,1.725,0.453,2.441
		l-0.115,0.123l-36.66-33.473c0.096-0.029,0.186-0.083,0.26-0.164c0.209-0.225,0.209-0.561,0.002-0.752l-0.57-0.525
		c-0.092-0.084-0.209-0.123-0.326-0.123c-0.02-0.101-0.068-0.191-0.146-0.264l-0.57-0.525c-0.158-0.146-0.393-0.164-0.586-0.063
		c-0.041-0.094-0.111-0.188-0.207-0.268l-0.664-0.555c-0.152-0.127-0.326-0.186-0.469-0.174l0.252-0.281
		c0.271,0.018,0.568,0.084,0.764,0.271c0.051,0.049,0.172,0.281,0.318,0.393c0.361,0.274,0.813,0.287,1.01,0.029
		c0.195-0.259,0.063-0.691-0.299-0.965c-0.094-0.07-0.193-0.121-0.293-0.156l0.871-0.908c0.021-0.008,1.561-1.648,1.561-1.648
		l0.766,0.723l-1.576,1.693c-0.031-0.01-0.066-0.016-0.102-0.016c-0.217,0-0.393,0.174-0.393,0.391s0.176,0.392,0.393,0.392
		c0.215,0,0.391-0.175,0.391-0.392c0-0.072-0.02-0.139-0.055-0.197l1.557-1.67l0.473,0.445l-1.924,2.068
		c-0.004,0.003-0.004,0.006-0.006,0.009c-0.143,0.095-0.238,0.255-0.238,0.438c0,0.291,0.236,0.525,0.525,0.525
		c0.291,0,0.525-0.234,0.525-0.525c0-0.119-0.041-0.229-0.109-0.316c-0.016-0.146,0.004-0.376,0.186-0.648l1.254-1.35l0.955,0.898
		c-0.779,0.664-1.416,1.324-1.695,1.646c-0.398,0.461-0.564,0.97-0.371,1.138c0.193,0.166,0.674-0.071,1.072-0.53
		c0.27-0.314,0.84-1.074,1.367-1.902l20.391,19.197v0.001l1.604,1.509l0.887,0.836c-0.049,0.059-0.045,0.146,0.012,0.199
		c0.057,0.054,0.143,0.051,0.199-0.002l2.58,2.429l-0.271,0.291l-1.891-1.857c-0.154-0.151-0.402-0.149-0.555,0.005
		c-0.15,0.153-0.148,0.4,0.006,0.553l1.506,1.479c-0.107,0.108-0.174,0.256-0.174,0.422c0,0.328,0.266,0.594,0.594,0.594
		c0.168,0,0.32-0.07,0.428-0.182l1.898,1.865c0.092,0.091,0.221,0.125,0.34,0.104c0.072,0.053,0.158,0.107,0.258,0.15
		c0.102,0.044,0.219,0.077,0.348,0.077c0.152,0.002,0.324-0.055,0.461-0.178c0.266-0.232,0.537-0.483,0.701-0.638l4.281,4.03
		c0.09,0.082,0.205,0.114,0.316,0.102l0.293,0.276c-0.129,0.007-0.236,0.097-0.264,0.221c-0.047-0.036-0.105-0.059-0.17-0.059
		c-0.158,0-0.285,0.129-0.285,0.285c0,0.136,0.096,0.249,0.223,0.277c0.129,0.131,0.365,0.358,0.67,0.589
		c0.232,0.176,0.502,0.354,0.799,0.487c0.293,0.137,0.615,0.232,0.947,0.233c0.225,0,0.453-0.046,0.672-0.152
		c0.117-0.057,0.229-0.133,0.336-0.225c0.053-0.031,0.105-0.069,0.154-0.116c1.205-1.345,0.58-2.857,0.057-3.729
		C104.698,104.722,104.493,104.484,104.493,104.484z M59.96,76.483l-0.213-0.193c0.105-0.034,0.223-0.072,0.336-0.101
		c0.041-0.005,0.096-0.012,0.156-0.017L59.96,76.483z M91.229,93.208c0.465,0.436,1.061,0.992,1.738,1.623l-0.084,0.092
		c-0.689-0.645-1.285-1.199-1.73-1.615C91.181,93.273,91.204,93.241,91.229,93.208z M92.54,95.724l0.225-0.243
		c1.385,1.293,3.102,2.896,4.723,4.409c1.373,1.283,2.676,2.5,3.646,3.408c0.342,0.318,0.639,0.597,0.887,0.829
		c-0.025,0.007-0.051,0.019-0.07,0.04l-0.174,0.187L92.54,95.724z M101.442,104.712l-0.186,0.199l-7.623-7.15l0.172-0.186
		L101.442,104.712z M93.591,97.374l-0.172,0.186l-1.383-1.297l0.17-0.182L93.591,97.374z M90.603,93.913
		c0.055-0.053,0.107-0.107,0.164-0.164c0.023-0.024,0.043-0.049,0.066-0.072c0.445,0.415,1.035,0.966,1.719,1.604l-0.227,0.242
		L90.603,93.913z M93.085,97.917l-0.244,0.264l-1.379-1.3l0.242-0.259L93.085,97.917z M89.06,94.142l1.309,1.228l1.121,1.052
		l-0.242,0.259l-0.914-0.86l-1.549-1.459l0,0L68.296,75.071l0.201-0.215L89.06,94.142z M65.901,71.751l0.361-0.388l2.611,2.513
		l-0.328,0.354L65.901,71.751z M68.212,74.588l-0.201,0.215L67.04,73.89l0.199-0.213L68.212,74.588z M67.026,73.476l-0.199,0.213
		l-0.475-0.447l0.199-0.211L67.026,73.476z M66.337,72.829l-0.197,0.212l-0.768-0.722l0.197-0.211L66.337,72.829z M65.894,70.327
		l0.426-0.457l0.492,0.474L66.384,70.8L65.894,70.327z M70.749,71.94l8.65,8.309c-0.262,0.537-1.516,1.869-2.117,2.176l-8.451-7.928
		l0.324-0.348l0.904,0.869c-0.006,0.029-0.01,0.059-0.01,0.09c0,0.246,0.199,0.444,0.445,0.444s0.443-0.198,0.443-0.444
		s-0.197-0.445-0.443-0.445c-0.029,0-0.061,0.004-0.09,0.01l-3.809-3.668l0.426-0.457l2.529,2.436
		c-0.01,0.037-0.018,0.075-0.018,0.115c0,0.246,0.199,0.445,0.445,0.445s0.445-0.199,0.445-0.445c0-0.213-0.15-0.389-0.35-0.434
		L70.749,71.94z M65.39,66.794l5.148,4.945l-0.744,0.797l-5.143-4.951L65.39,66.794z M48.419,50.225l0.332-0.356l13.59,13.086
		l-0.314,0.338L48.419,50.225z M60.612,65.241l1.492-1.603l3.074,2.952l-0.738,0.791l-0.07-0.066c0.008-0.029,0.01-0.059,0.01-0.09
		c0-0.245-0.199-0.444-0.445-0.444c-0.244,0-0.443,0.199-0.443,0.444c0,0.246,0.199,0.445,0.443,0.445
		c0.031,0,0.063-0.004,0.092-0.01l2.082,2.005l-0.426,0.458L60.612,65.241z M65.562,70.685l0.49,0.474l-0.363,0.392l-0.498-0.467
		L65.562,70.685z M64.856,71.441l0.498,0.468l-0.195,0.209l-0.496-0.468L64.856,71.441z M64.642,71.241l-0.193,0.209l-9.391-8.844
		l0.178-0.189L64.642,71.241z M55.104,61.405c0.008,0.014,0.016,0.027,0.027,0.039c0.131,0.121,0.227,0.234,0.301,0.341
		l-0.033,0.024l-0.047,0.049l-0.393-0.369C55.013,61.468,55.06,61.439,55.104,61.405z M47.882,56.101L47.882,56.101l-0.004-0.004
		l-0.014-0.016c-0.014-0.016-0.033-0.039-0.061-0.069c-0.176-0.194-0.633-0.677-1.26-1.198c-0.625-0.522-1.422-1.082-2.264-1.435
		c-0.361-0.153-0.73-0.267-1.096-0.328h-0.002c-0.09-0.016-0.18-0.026-0.27-0.036c-0.018-0.002-0.035-0.004-0.055-0.005
		c-0.09-0.007-0.182-0.013-0.273-0.013h-0.002c-0.572,0.002-1.127,0.146-1.68,0.515c-0.178,0.126-0.283,0.263-0.359,0.43
		c-0.076,0.169-0.115,0.376-0.115,0.622c0,0.271,0.049,0.588,0.139,0.925s0.221,0.695,0.371,1.054
		c0.301,0.72,0.686,1.443,1.004,2.052c0.211,0.407,0.393,0.758,0.508,1.058c0.326,0.857,0.865,2.045,0.865,3.672
		c0,0.902-0.166,1.938-0.602,3.126c-0.594,1.617-1.67,4.209-2.602,6.405c-0.93,2.195-1.713,3.989-1.713,3.991
		c-0.08,0.184-0.26,0.293-0.449,0.293c-0.064,0-0.131-0.013-0.195-0.042c-0.246-0.107-0.359-0.395-0.252-0.643
		c0,0,0.049-0.111,0.137-0.314c0.088-0.201,0.215-0.494,0.369-0.855c0.313-0.721,0.74-1.717,1.203-2.812
		c0.928-2.188,2.004-4.78,2.584-6.36c0.4-1.092,0.541-2.004,0.541-2.789c0-1.412-0.455-2.42-0.801-3.323
		c-0.059-0.158-0.172-0.392-0.313-0.667c-0.139-0.274-0.309-0.591-0.486-0.934c-0.301-0.588-0.627-1.248-0.875-1.922
		c-0.043-0.113-0.084-0.227-0.121-0.341c-0.172-0.528-0.289-1.057-0.291-1.573c0-0.35,0.057-0.696,0.199-1.02
		c0.143-0.322,0.379-0.615,0.695-0.835l0.006-0.006c0.09-0.06,0.18-0.115,0.271-0.167c0.031-0.018,0.063-0.032,0.094-0.049
		c0.061-0.033,0.119-0.065,0.18-0.094c0.037-0.018,0.072-0.03,0.109-0.047c0.057-0.023,0.111-0.051,0.168-0.072
		c0.041-0.014,0.08-0.025,0.119-0.039c0.055-0.019,0.107-0.039,0.162-0.055c0.043-0.012,0.086-0.021,0.127-0.033
		c0.053-0.014,0.104-0.027,0.154-0.038c0.045-0.011,0.09-0.017,0.133-0.024c0.051-0.008,0.1-0.02,0.148-0.026
		c0.047-0.007,0.094-0.009,0.139-0.015c0.047-0.005,0.096-0.012,0.145-0.015c0.047-0.003,0.092-0.003,0.137-0.005
		c0.051-0.002,0.1-0.005,0.146-0.005c0.125,0,0.246,0.008,0.369,0.019c0.027,0.002,0.057,0.004,0.084,0.007
		c0.123,0.013,0.242,0.028,0.361,0.049c0.002,0.001,0.006,0.002,0.006,0.002c0.121,0.022,0.238,0.049,0.357,0.078
		c0.021,0.007,0.045,0.012,0.066,0.019c0.119,0.031,0.238,0.065,0.357,0.105c0.16,0.053,0.32,0.113,0.475,0.179
		c0.65,0.273,1.248,0.638,1.777,1.017c1.055,0.756,1.826,1.57,2.092,1.861c0.061,0.068,0.094,0.107,0.098,0.111
		c0.055,0.063,0.094,0.161,0.105,0.213c0.01,0.049-0.057,0.197-0.084,0.226c-0.248,0.329-0.539,0.319-0.568,0.333
		C48.005,56.209,47.937,56.164,47.882,56.101z M48.491,56.425c0.074-0.027,0.145-0.068,0.207-0.121
		c0.004-0.002,0.006-0.006,0.01-0.01l6.313,5.922l-0.178,0.189L48.491,56.425z M54.601,63.132l-0.02-0.014l0.143-0.154l9.393,8.844
		l-0.141,0.15L54.601,63.132z M62.864,74.56l-1.021,1.063c-0.076-0.021-0.166-0.046-0.268-0.068l0.885-1.537l1.396-1.5l0.496,0.467
		L62.864,74.56z M64.687,72.626l-0.498-0.467l0.141-0.151l0.496,0.468L64.687,72.626z M65.667,73.549l-0.768-0.722l0.139-0.15
		l0.768,0.723L65.667,73.549z M66.354,74.196l-0.475-0.445l0.141-0.151l0.473,0.446L66.354,74.196z M67.538,75.312l-0.971-0.914
		l0.141-0.149l0.971,0.913L67.538,75.312z M90.774,97.188l-0.883-0.832l-1.604-1.51h-0.002L67.823,75.581
		c0.002-0.002,0.002-0.004,0.002-0.004l0.139-0.147l20.512,19.313l1.521,1.433l0.916,0.863L90.774,97.188z M92.368,98.689
		l-1.381-1.3l0.141-0.15l1.381,1.299L92.368,98.689z M92.581,98.89l0.141-0.15l0.984,0.928l-0.141,0.149L92.581,98.89z
		 M95.856,103.13c-0.053,0.046-0.088,0.054-0.137,0.056c-0.041,0.001-0.096-0.011-0.152-0.037c-0.043-0.019-0.088-0.044-0.131-0.071
		c0.004-0.106-0.033-0.214-0.115-0.293l-2.15-2.114l0.275-0.294l0.547,0.514c0.014,0.176,0.16,0.314,0.34,0.314
		c0.188,0,0.34-0.152,0.34-0.341c0-0.035-0.006-0.067-0.016-0.099l1.869,1.758C96.36,102.677,96.104,102.913,95.856,103.13z
		 M93.778,100.017l0.141-0.149l0.48,0.454c-0.006,0.076,0.012,0.154,0.051,0.223c-0.037-0.015-0.076-0.022-0.117-0.022l-0.016,0.001
		L93.778,100.017z M100.765,105.439l-5.707-5.374c-0.09-0.084-0.209-0.116-0.322-0.101l-0.506-0.478
		c0.004-0.044-0.01-0.089-0.043-0.121c-0.035-0.031-0.08-0.042-0.125-0.035l-1.008-0.949l0.246-0.264l7.623,7.15L100.765,105.439z
		 M101.341,105.98l-0.363-0.341l0.16-0.17l0.41,0.385C101.47,105.906,101.399,105.948,101.341,105.98z M101.944,105.556
		l-0.473-0.443l0.186-0.201l0.303,0.283l0.004,0.004c0,0,0.016,0.014,0.043,0.039c0.033,0.029,0.082,0.075,0.143,0.131
		C102.081,105.437,102.013,105.499,101.944,105.556z M102.306,107.771L102.306,107.771L102.306,107.771L102.306,107.771z
		 M102.468,104.996c-0.104-0.096-0.17-0.155-0.178-0.161l-0.301-0.281l0.176-0.188c0.02-0.021,0.029-0.047,0.033-0.072
		c0.037,0.035,0.078,0.072,0.111,0.104c0.141,0.132,0.254,0.239,0.336,0.313C102.589,104.813,102.53,104.907,102.468,104.996z
		 M102.847,104.231c-1.26-1.184-6.449-6.029-9.748-9.108l0.084-0.091c1.35,1.259,2.982,2.785,4.527,4.229
		c1.375,1.281,2.678,2.5,3.65,3.408c0.484,0.454,0.887,0.832,1.174,1.101c0.143,0.134,0.258,0.241,0.34,0.317
		c0.004,0.005,0.006,0.008,0.01,0.011C102.874,104.144,102.858,104.187,102.847,104.231z"/>
	<path fill="#FFFFFF" d="M93.192,86.278c-0.051,0.145-0.137,0.316-0.256,0.512c-0.02,0.032-0.041,0.065-0.063,0.1l2.592,2.485
		c0.207-0.335,0.297-0.567,0.281-0.655c-0.096-0.09-0.689-0.658-1.314-1.256C93.974,87.024,93.497,86.569,93.192,86.278z"/>
	<path fill="#FFFFFF" d="M90.989,91.054c0.627,0.598,1.227,1.172,1.324,1.266h0.004c0.234,0,1.014-0.471,2.01-1.517
		c0.238-0.25,0.443-0.487,0.621-0.706l-2.598-2.49c-0.189,0.232-0.398,0.473-0.623,0.709c-0.629,0.658-1.426,1.336-1.971,1.561
		l0.049,0.043l0.145,0.141L90.989,91.054z"/>
	<path fill="#FFFFFF" d="M135.163,129.848c-0.943,0.989-1.934,1.599-2.32,1.45c0,0,2.795,2.756,2.904,2.859
		c0.311,0.297,1.391-0.335,2.414-1.407s1.602-2.182,1.293-2.478c-0.082-0.077-3.006-2.891-3.006-2.891
		C136.757,127.677,136.183,128.78,135.163,129.848z"/>
	<path fill="#FFFFFF" d="M132.218,135.499c-0.039-0.037-0.041-0.098-0.004-0.137c0.035-0.037,0.096-0.039,0.135-0.004l0.002,0.001
		l0.018,0.001l0,0h0.002l0,0c0.025,0,0.08-0.014,0.139-0.049c0.063-0.037,0.131-0.092,0.195-0.16
		c0.061-0.064,0.109-0.135,0.141-0.195s0.047-0.117,0.045-0.146l-0.002-0.022l-0.002-0.004c-0.002-0.001-0.002-0.001-0.002-0.003
		c-0.813-0.745-2.182-2.001-2.379-2.184c-0.018-0.016-0.025-0.023-0.025-0.023c0.004,0.01,0.008,0.018,0.01,0.027
		c0.143,0.447-0.479,1.555-1.504,2.63c-1.137,1.19-2.336,1.892-2.682,1.562c0,0,2.939,2.706,3.072,2.834
		c0.344,0.326,1.539-0.371,2.672-1.557c0.541-0.566,0.967-1.142,1.227-1.625l-1.027-0.929
		C132.237,135.51,132.226,135.507,132.218,135.499z"/>
	<path fill="#FFFFFF" d="M133.015,135.043c-0.041,0.08-0.1,0.161-0.172,0.239c-0.074,0.082-0.156,0.146-0.236,0.193
		c-0.025,0.016-0.049,0.024-0.074,0.035l0.158,0.146c0.004,0.002,0.01,0.004,0.014,0.008l0.002,0.001l0.016,0.003
		c0.027,0,0.082-0.016,0.143-0.052s0.131-0.091,0.193-0.159c0.063-0.066,0.109-0.135,0.143-0.196
		c0.031-0.062,0.045-0.117,0.045-0.146v-0.002c-0.055-0.051-0.119-0.108-0.188-0.173
		C133.046,134.974,133.032,135.009,133.015,135.043z"/>
	<path fill="#FFFFFF" d="M85.503,72.869l-2.844,3.017l-0.723-0.652c-0.393-0.355-0.824-0.518-0.963-0.361
		c-0.141,0.154,0.063,0.566,0.457,0.92l1.82,1.645c0.395,0.355,0.824,0.518,0.965,0.361c0.139-0.154-0.066-0.568-0.457-0.922
		l-0.664-0.597l2.846-3.017l0.691,0.626c0.393,0.354,0.922,0.407,1.182,0.12c0.26-0.288,0.154-0.811-0.238-1.164l-1.822-1.644
		c-0.393-0.354-0.922-0.408-1.182-0.12c-0.26,0.289-0.152,0.809,0.24,1.163L85.503,72.869z"/>
	<path fill="#FFFFFF" d="M155.517,155.021l-0.002-0.002l-0.029-0.016c-0.023-0.013-0.061-0.029-0.104-0.049
		c-0.086-0.039-0.199-0.087-0.318-0.137c-0.238-0.098-0.498-0.201-0.637-0.262c-0.041-0.018-0.068-0.03-0.094-0.046l-0.031-0.021
		l0,0l-0.018-0.002c-0.021-0.001-0.066,0.009-0.117,0.032l-0.09,0.041l-20.623-19.07c-0.041,0.068-0.09,0.136-0.148,0.2
		c-0.059,0.062-0.121,0.112-0.186,0.159l0.459,0.422l0,0l20.172,18.653l-0.029,0.091c-0.012,0.038-0.018,0.07-0.018,0.092
		l0.004,0.023l0.002,0.007c0.021,0.022,0.027,0.034,0.037,0.048l0.023,0.043c0.016,0.029,0.033,0.066,0.053,0.109
		c0.037,0.086,0.084,0.197,0.135,0.315c0.098,0.235,0.213,0.504,0.287,0.642c0.02,0.037,0.037,0.064,0.043,0.07
		c0.016,0.015,0.045,0.027,0.096,0.029c0.146-0.067,0.385-0.194,0.613-0.401c0.234-0.212,0.453-0.503,0.553-0.896
		C155.542,155.058,155.53,155.033,155.517,155.021z"/>
</g>
</svg>
