<?xml version="1.0" encoding="utf-8"?>
<!-- Generator: Adobe Illustrator 15.0.0, SVG Export Plug-In . SVG Version: 6.00 Build 0)  -->
<!DOCTYPE svg PUBLIC "-//W3C//DTD SVG 1.1//EN" "http://www.w3.org/Graphics/SVG/1.1/DTD/svg11.dtd">
<svg version="1.1" xmlns="http://www.w3.org/2000/svg" xmlns:xlink="http://www.w3.org/1999/xlink" x="0px" y="0px" width="190px"
	 height="190px" viewBox="0 0 190 190" enable-background="new 0 0 190 190" xml:space="preserve">
<g id="Kreise">
	<path d="M178.313,92.532c-0.059-0.164-0.154-0.25-0.283-0.25h-0.76c-0.166,0-0.273,0.127-0.348,0.311l-6.588,0.012
		c0.033-0.109,0.051-0.219,0.049-0.336c-0.002-0.061-0.002-0.209,0-0.361c0-0.162,0.002-0.328,0-0.402
		c-0.002-0.104-0.021-0.207-0.055-0.307c-0.236-0.698-1.203-1.206-2.385-1.206h-0.002c-0.027,0-0.059,0-0.088,0.002
		c-0.645,0.012-1.252,0.176-1.711,0.459c-0.492,0.307-0.76,0.72-0.75,1.159c0.002,0.063,0,0.211,0,0.361
		c-0.002,0.162-0.002,0.33,0,0.402c0.002,0.08,0.016,0.16,0.035,0.24l-3.375,0.006c0.039-0.115,0.059-0.232,0.057-0.354
		c-0.002-0.061-0.002-0.209,0-0.361c0-0.162,0-0.328,0-0.402c-0.002-0.104-0.021-0.207-0.055-0.307
		c-0.236-0.698-1.205-1.206-2.385-1.206l0,0c-0.031,0-0.061,0-0.09,0.002c-0.645,0.012-1.252,0.176-1.709,0.459
		c-0.494,0.307-0.762,0.72-0.752,1.159c0.002,0.063,0,0.211,0,0.361c0,0.162-0.002,0.33,0,0.402
		c0.002,0.086,0.018,0.172,0.041,0.256l-3.158,0.008c0.043-0.121,0.064-0.244,0.063-0.371c-0.002-0.061,0-0.209,0-0.361
		c0-0.162,0-0.328,0-0.402c-0.004-0.104-0.021-0.207-0.055-0.307c-0.236-0.698-1.205-1.206-2.387-1.206l0,0
		c-0.029,0-0.059,0-0.088,0.002c-0.645,0.012-1.254,0.176-1.709,0.459c-0.494,0.307-0.762,0.72-0.752,1.159
		c0.002,0.063,0,0.211,0,0.361c0,0.162-0.002,0.33,0,0.402c0.002,0.094,0.018,0.184,0.045,0.273h-0.283l-0.17-1.59
		c0.002-0.066-0.004-0.133-0.02-0.199c-0.098-0.399-0.498-0.679-0.973-0.679c-0.102,0-0.201,0.012-0.301,0.035
		c-0.277,0.068-0.518,0.223-0.672,0.436c-0.041,0.057-0.076,0.119-0.111,0.185c-0.43-0.142-0.846-0.356-1.23-0.554
		c-0.551-0.285-1.072-0.553-1.539-0.553c-0.553,0-0.982,0.178-1.279,0.525c-0.18,0.213-0.287,0.465-0.35,0.712
		c-0.201-0.644-0.803-1.11-1.512-1.11c-0.803,0-1.656,0.66-1.725,1.335c-0.055,0.551-0.012,0.857,0.172,1.172h-0.662
		c-0.084,0-0.197,0.002-0.289,0.303c0-0.107,0-0.207,0-0.266c0-0.08-0.021-0.152-0.051-0.219c0.029-0.066,0.051-0.141,0.051-0.221
		c0-0.045-0.006-0.09-0.018-0.131c0.139-0.135,0.23-0.322,0.23-0.531c0-0.412-0.332-0.749-0.746-0.749
		c-0.221,0-0.416,0.1-0.549,0.254h-0.365c-0.086-0.066-0.176-0.113-0.221-0.133c-0.031-0.014-0.063-0.021-0.094-0.021
		s-0.064,0.008-0.094,0.021c-0.045,0.02-0.133,0.066-0.223,0.133h-1.191c0.006-0.033,0.012-0.066,0.012-0.1
		c0-0.35-0.285-0.635-0.633-0.635c-0.209,0-0.391,0.104-0.506,0.258h-0.689v-0.074c0-0.08-0.035-0.146-0.074-0.197
		c-0.063-0.076-0.139-0.129-0.203-0.17c-0.064-0.039-0.113-0.063-0.113-0.063c-0.033-0.014-0.068-0.014-0.098,0
		c-0.004,0.002-0.092,0.041-0.184,0.107c-0.045,0.033-0.094,0.074-0.135,0.125s-0.076,0.117-0.078,0.197v0.074h-5.787v-0.074
		c0-0.08-0.035-0.146-0.076-0.197c-0.061-0.076-0.139-0.129-0.201-0.17c-0.064-0.039-0.115-0.063-0.115-0.063
		c-0.031-0.014-0.066-0.014-0.096,0c-0.004,0.002-0.09,0.041-0.184,0.107c-0.047,0.033-0.094,0.074-0.137,0.125
		c-0.039,0.051-0.074,0.117-0.074,0.197v0.074h-0.561v-0.385c0-0.34-0.277-0.617-0.619-0.617c-0.17,0-0.326,0.068-0.439,0.186
		h-7.355c-0.113-0.117-0.271-0.186-0.439-0.186c-0.342,0-0.617,0.277-0.617,0.617v0.385h-10.432v-0.385
		c0-0.34-0.277-0.617-0.619-0.617c-0.168,0-0.326,0.068-0.439,0.186h-7.355c-0.113-0.117-0.271-0.186-0.439-0.186
		c-0.34,0-0.619,0.277-0.619,0.617v0.385H79.356v-0.006c0-0.217-0.389-0.391-0.389-0.391s-0.391,0.174-0.391,0.391v0.006h-3.301
		v-0.006c0-0.217-0.389-0.391-0.389-0.391s-0.389,0.174-0.389,0.391v0.006h-0.215c-0.115-0.154-0.297-0.258-0.506-0.258
		c-0.35,0-0.631,0.285-0.631,0.635c0,0.216,0.107,0.407,0.273,0.521c-0.041,0.064-0.066,0.141-0.066,0.223
		c0,0.08,0.025,0.154,0.064,0.219c-0.039,0.064-0.064,0.139-0.064,0.219c0,0.121,0,0.398,0,0.588h-0.926l-0.049,0.006l-0.516,0.115
		c-0.1,0.021-0.172,0.107-0.178,0.207l-5.664,0.014c-0.02-0.254-0.234-0.453-0.498-0.453H65.22c-0.266,0-0.479,0.201-0.498,0.453
		l-8.275,0.018c-0.012-0.262-0.23-0.471-0.5-0.471h-0.305c-0.273,0-0.492,0.209-0.502,0.473l-20.078,0.039
		c-0.412-0.619-1.15-1.033-1.994-1.033h-0.336h-0.002h-8.08h-0.002h-0.336c-0.854,0-1.602,0.426-2.012,1.059l-9.029,0.02
		c-0.078-0.227-0.176-0.23-0.262-0.23h-0.486c-0.102,0-0.217,0.004-0.299,0.355c-0.418,0.281-0.715,0.978-0.715,1.79
		s0.297,1.507,0.715,1.79c0.082,0.354,0.197,0.355,0.299,0.355c0.018,0.002,0.115,0.01,0.213,0.02
		c0.205,0.02,0.248,0.021,0.273,0.021c0.082,0,0.176-0.002,0.252-0.203c1.52,0.107,5.344,0.191,10.863,0.256
		c0.316,0.105,0.635,0.17,0.932,0.17h0.506h0.004h6.248h0.004h0.506c0.211,0,0.434-0.033,0.656-0.09
		c6.383,0.045,13.936,0.074,22.186,0.094c0.068,0.195,0.254,0.336,0.477,0.336h0.305c0.221,0,0.404-0.141,0.473-0.334
		c2.711,0.008,5.494,0.01,8.332,0.014c0.072,0.188,0.254,0.32,0.469,0.32h0.305c0.215,0,0.398-0.133,0.469-0.318
		c9.15,0.012,18.844,0.012,28.541,0.004c0.266,0.105,0.555,0.162,0.855,0.162c0.303,0,0.594-0.057,0.859-0.162
		c1.074-0.002,2.148-0.002,3.221-0.004c0.271,0.107,0.563,0.166,0.867,0.166c0.307,0,0.602-0.059,0.871-0.168
		c0.795,0,1.588,0,2.381-0.002c0.43,0.631,1.152,1.049,1.973,1.049s1.545-0.42,1.973-1.053c0.09,0,0.18,0,0.268,0
		c-0.037,0.182-0.096,0.365-0.174,0.531c-0.072,0.158-0.162,0.301-0.262,0.408s-0.207,0.178-0.32,0.205l-0.008,0.002
		c0,0.002-0.027,0.008-0.061,0.01c-0.035,0.002-0.078,0.002-0.127,0.002c-0.111,0-0.244-0.004-0.342-0.008
		c-0.063-0.004-0.156-0.006-0.27-0.006c-0.209,0-0.473,0.012-0.705,0.068c-0.43,0.105-0.803,0.299-1.072,0.536
		c-0.268,0.238-0.438,0.523-0.439,0.824c0,0.059,0.006,0.119,0.021,0.178c0.061,0.25,0.242,0.441,0.484,0.566
		c0.242,0.127,0.545,0.191,0.881,0.191c0.213,0,0.439-0.027,0.668-0.084c0.525-0.129,1.162-0.559,1.678-1.227
		c0.439-0.569,0.785-1.317,0.877-2.198c0.113,0,0.225,0,0.338,0c0.428,0.633,1.154,1.053,1.977,1.053
		c0.824,0,1.551-0.422,1.98-1.061c1.018-0.002,2.033-0.002,3.043-0.004c0.285,0.121,0.596,0.186,0.924,0.186
		c0.33,0,0.645-0.066,0.93-0.189c1.416-0.002,2.822-0.004,4.215-0.006c0.291,0.127,0.609,0.195,0.947,0.195s0.66-0.07,0.951-0.199
		c1.617-0.002,3.217-0.006,4.795-0.01c0.299,0.133,0.627,0.209,0.973,0.209c0.35,0,0.68-0.076,0.98-0.213
		c1.604-0.004,3.184-0.006,4.738-0.01c0.305,0.143,0.643,0.223,1.002,0.223c0.361,0,0.703-0.082,1.01-0.229c0.27,0,0.537,0,0.805,0
		c0.076,0.145,0.16,0.146,0.227,0.146h1.17c0.066,0,0.15-0.002,0.227-0.15c0.357-0.002,0.709-0.004,1.061-0.004v0.41
		c0,0.822,1.146,1.466,2.611,1.466s2.613-0.644,2.613-1.466v-0.422c17.852-0.047,30.32-0.092,30.861-0.094
		c0.068,0.09,0.15,0.146,0.262,0.146h0.76c0.129,0,0.225-0.086,0.283-0.252c0.166-0.344,0.271-1.214,0.271-2.224
		C178.585,93.747,178.479,92.88,178.313,92.532z M74.499,91.317c-0.109,0.016-0.209,0.035-0.305,0.061
		c-0.01-0.055-0.029-0.105-0.059-0.152c0.049-0.033,0.092-0.074,0.129-0.119h0.234V91.317z M77.565,92.79l-0.256,0.002
		c-0.014-0.061-0.053-0.113-0.109-0.145l-0.258-0.145c-0.033-0.02-0.072-0.029-0.111-0.029h-0.609c0-0.139,0-0.43,0-0.531h1.373
		c0,0.115,0,0.475,0,0.58c0,0.072,0.025,0.139,0.07,0.203L77.565,92.79z M78.577,91.317c-0.416,0.057-0.75,0.205-0.898,0.396H76.14
		c-0.145-0.188-0.463-0.332-0.863-0.391v-0.217h3.301V91.317z M83.642,91.812h2.715v0.016h-2.715V91.812z M80.608,92.341h-0.307
		c0-0.15,0-0.338,0-0.408c0-0.285-0.398-0.529-0.945-0.609v-0.217h1.066c-0.018,0.063-0.029,0.125-0.029,0.193
		c0,0.207,0.09,0.393,0.227,0.525c-0.012,0.045-0.02,0.09-0.02,0.137c0,0.08,0.021,0.154,0.053,0.221
		C80.63,92.231,80.616,92.284,80.608,92.341z M82.528,92.341h-0.863c-0.006-0.057-0.021-0.109-0.043-0.158
		c0.018-0.041,0.031-0.082,0.039-0.127h0.867V92.341z M82.528,91.827h-0.871c0.006-0.004,0.012-0.01,0.018-0.016h0.854V91.827z
		 M83.642,92.341v-0.285h2.717c0.006,0.074,0.064,0.133,0.141,0.133c0.078,0,0.143-0.064,0.143-0.143v-0.234h1.617
		c-0.016,0.043-0.027,0.086-0.027,0.131c0,0.143,0.092,0.277,0.25,0.398H83.642z M99.712,92.188h-1.029v-0.377h1.061
		C99.735,91.935,99.726,92.063,99.712,92.188z M100.938,92.188c-0.012-0.125-0.021-0.254-0.029-0.377h0.813
		c-0.016,0.059-0.025,0.121-0.025,0.186c0,0.066,0.01,0.129,0.029,0.191H100.938z M122.362,92.147h-2.379
		c-0.023-0.029-0.051-0.061-0.078-0.092h2.465C122.368,92.087,122.366,92.118,122.362,92.147z M124.208,92.341v-0.199
		c0.049,0.014,0.098,0.021,0.148,0.021c0.129,0,0.25-0.039,0.348-0.107h0.836c0.004,0.051,0.012,0.1,0.025,0.16
		c0.01,0.039,0.021,0.082,0.031,0.125H124.208z M126.587,92.341c-0.037-0.057-0.074-0.113-0.102-0.162
		c-0.023-0.039-0.041-0.076-0.051-0.105c-0.004-0.008-0.004-0.012-0.006-0.018h1.24c0.004,0.074,0.064,0.133,0.141,0.133
		c0,0,0.012-0.004,0.02-0.006c0.012,0.057,0.033,0.109,0.057,0.158H126.587z M133.862,92.341h-0.602
		c-0.039-0.057-0.076-0.113-0.104-0.162c-0.021-0.039-0.041-0.076-0.053-0.105c-0.002-0.008-0.004-0.012-0.004-0.018h0.762
		C133.862,92.144,133.862,92.245,133.862,92.341z M133.872,91.827h-0.781c0-0.004,0-0.01,0-0.016h0.783
		C133.872,91.817,133.872,91.823,133.872,91.827z M135.782,92.341h-1.074c0-0.096,0-0.197,0-0.285h1.104
		C135.802,92.151,135.792,92.249,135.782,92.341z M135.829,91.827H134.7c-0.002-0.004-0.002-0.01-0.004-0.016h1.133
		C135.829,91.817,135.829,91.823,135.829,91.827z M136.995,91.812h0.115c0.004,0.004,0.01,0.01,0.014,0.014v0.002h-0.127
		C136.997,91.823,136.995,91.817,136.995,91.812z M137.112,92.341h-0.07c-0.012-0.092-0.02-0.189-0.029-0.285h0.104
		c0.01,0.045,0.021,0.086,0.041,0.127C137.134,92.231,137.118,92.284,137.112,92.341z"/>
	<g>
		<path fill="#FFFFFF" d="M65.524,92.591H65.22c-0.15,0-0.271,0.117-0.271,0.262v4.24c0,0.145,0.121,0.262,0.271,0.262h0.305
			c0.152,0,0.275-0.117,0.275-0.262v-4.24C65.8,92.708,65.677,92.591,65.524,92.591z"/>
		<path fill="#FFFFFF" d="M55.946,92.591h-0.305c-0.152,0-0.273,0.117-0.273,0.262v4.24c0,0.145,0.121,0.262,0.273,0.262h0.305
			c0.15,0,0.273-0.117,0.273-0.262v-4.24C56.22,92.708,56.097,92.591,55.946,92.591z"/>
		<path fill="#FFFFFF" d="M13.009,92.917c-0.041,0-0.447,0-0.486,0c-0.104,0-0.186,0.86-0.186,1.917
			c0,1.059,0.082,1.917,0.186,1.917c0.031,0,0.451,0.043,0.486,0.043c-0.104,0-0.186-0.87-0.186-1.938
			C12.823,93.785,12.905,92.917,13.009,92.917z"/>
		<path fill="#FFFFFF" d="M32.729,92.067h-8.08c-1.074,0-1.943,0.871-1.943,1.946v0.826c0,1.074,1.785,2.173,2.859,2.173h6.248
			c1.074,0,2.861-1.099,2.861-2.173v-0.826C34.675,92.938,33.804,92.067,32.729,92.067z M30.181,95.078
			c0,0.568-0.459,1.028-1.027,1.028c-0.174,0-0.785,0-0.959,0c-0.568,0-1.027-0.46-1.027-1.028v-0.549
			c0-0.566,0.459-1.028,1.027-1.028c0.174,0,0.785,0,0.959,0c0.568,0,1.027,0.462,1.027,1.028V95.078z"/>
		<path fill="#FFFFFF" d="M74.19,92.704c-0.041,0.188-0.211,0.33-0.412,0.33s-0.369-0.143-0.412-0.33h-0.938l-0.516,0.115
			l0.889,0.299h3.543l0.744-0.271l-0.258-0.143H74.19z"/>
		<path fill="#FFFFFF" d="M80.601,92.569h-2.281l-0.83,0.545l0.916,0.398h2.363c-0.104-0.098-0.168-0.234-0.168-0.389
			C80.601,93.011,80.601,92.759,80.601,92.569z"/>
		<path fill="#FFFFFF" d="M83.642,92.579c0,0.045-0.008,0.135-0.02,0.25c0.279,0.111,0.52,0.301,0.689,0.543
			c0.041,0.043,0.08,0.092,0.115,0.141h5.096c0.207-0.18,0.453-0.316,0.727-0.395v-0.539v-0.01h-1.346h-5.262V92.579z"/>
		<path fill="#FFFFFF" d="M81.819,93.372c0.178-0.254,0.432-0.447,0.727-0.557c-0.01-0.107-0.018-0.193-0.018-0.236v-0.01h-0.854
			c0,0.189,0,0.441,0,0.555c0,0.154-0.064,0.291-0.168,0.389h0.199C81.741,93.464,81.778,93.415,81.819,93.372z"/>
		<path fill="#FFFFFF" d="M81.54,91.624l0.035-0.041h0.953v-0.375c0-0.064,0.018-0.121,0.045-0.174h-0.986l-0.035-0.047
			c-0.096-0.125-0.244-0.206-0.412-0.206c-0.285,0-0.516,0.231-0.518,0.519c0,0.164,0.078,0.307,0.199,0.404l0.068,0.055
			l-0.035,0.082c-0.018,0.037-0.025,0.078-0.025,0.121c0,0.059,0.018,0.111,0.047,0.16l0.035,0.061l-0.035,0.059
			c-0.029,0.047-0.047,0.102-0.047,0.16c0,0.152,0,0.568,0,0.723c0,0.172,0.139,0.309,0.309,0.309c0.168,0,0.307-0.137,0.309-0.309
			c0-0.154,0-0.57,0-0.723c-0.002-0.059-0.018-0.113-0.047-0.16l-0.037-0.059l0.037-0.061c0.029-0.049,0.045-0.102,0.047-0.16
			c0-0.043-0.01-0.082-0.025-0.119l-0.035-0.082l0.07-0.053C81.485,91.685,81.515,91.657,81.54,91.624z"/>
		<path fill="#FFFFFF" d="M83.642,91.583h6.607v-0.375c0-0.064,0.018-0.121,0.045-0.174h-6.697c0.025,0.053,0.045,0.109,0.045,0.174
			V91.583z"/>
		<path fill="#FFFFFF" d="M83.065,95.771c-0.605,0-1.129-0.355-1.375-0.867c0.182,0.586,0.729,1.01,1.375,1.01
			s1.193-0.424,1.377-1.01C84.194,95.416,83.673,95.771,83.065,95.771z"/>
		<path fill="#FFFFFF" d="M81.769,94.248c0,0.715,0.582,1.295,1.297,1.295s1.297-0.58,1.297-1.295c0-0.528-0.314-0.981-0.768-1.183
			c-0.014,0.115-0.031,0.24-0.053,0.359c-0.096,0.562-0.197,0.864-0.457,0.864c-0.262,0-0.361-0.303-0.457-0.864
			c-0.021-0.127-0.041-0.256-0.057-0.375C82.103,93.243,81.769,93.706,81.769,94.248z"/>
		<path fill="#FFFFFF" d="M83.085,94.063c0.18,0,0.328-1.302,0.328-1.483v-1.371c0-0.18-0.328-0.326-0.328-0.326
			s-0.326,0.146-0.326,0.326v1.371C82.759,92.761,82.903,94.063,83.085,94.063z"/>
		<path fill="#FFFFFF" d="M100.985,92.569c0.014,0.074,0.027,0.143,0.041,0.201c0.33,0.098,0.627,0.266,0.875,0.482
			c0-0.063,0-0.117,0-0.154c0-0.08,0.023-0.154,0.053-0.221c-0.029-0.066-0.053-0.139-0.053-0.219c0-0.029,0.004-0.061,0.01-0.09
			H100.985z"/>
		<path fill="#FFFFFF" d="M97.569,92.569h-0.648h-0.984v0.01c0,0.025-0.002,0.078-0.006,0.15c0.508,0.117,0.953,0.398,1.279,0.783
			h0.275h0.088c0-0.008-0.004-0.012-0.004-0.02V92.569z"/>
		<path fill="#FFFFFF" d="M93.571,93.513c0.32-0.381,0.76-0.658,1.26-0.779c-0.004-0.074-0.006-0.129-0.006-0.154v-0.01h-1.414
			c0,0.189,0,0.441,0,0.555c0,0.154-0.064,0.291-0.166,0.389H93.571z"/>
		<path fill="#FFFFFF" d="M92.339,92.569H91.36v0.01v0.549c0.258,0.082,0.49,0.213,0.688,0.385h0.457
			c-0.102-0.098-0.166-0.234-0.166-0.389C92.339,93.011,92.339,92.759,92.339,92.569z"/>
		<path fill="#FFFFFF" d="M98.683,93.337c0.258-0.252,0.578-0.445,0.939-0.559c0.014-0.061,0.027-0.131,0.041-0.209h-0.98V93.337z"
			/>
		<path fill="#FFFFFF" d="M99.772,91.208c0-0.064,0.018-0.121,0.043-0.174h-1.178c0.025,0.053,0.045,0.109,0.045,0.174v0.375h1.074
			C99.765,91.431,99.771,91.298,99.772,91.208z"/>
		<path fill="#FFFFFF" d="M94.825,91.583v-0.375c0-0.064,0.018-0.121,0.043-0.174h-1.295c0.033,0.082,0.051,0.17,0.051,0.266
			c0,0.102-0.023,0.195-0.061,0.283H94.825z"/>
		<path fill="#FFFFFF" d="M96.837,91.546c0,0.012-0.002,0.023-0.004,0.037h0.736v-0.375c0-0.064,0.018-0.121,0.045-0.174h-0.777
			V91.546z"/>
		<path fill="#FFFFFF" d="M91.36,91.583h0.832c-0.037-0.088-0.061-0.182-0.061-0.283c0-0.096,0.02-0.184,0.051-0.266h-0.865
			c0.025,0.053,0.043,0.109,0.043,0.174V91.583z"/>
		<path fill="#FFFFFF" d="M95.937,91.812c0.07,0.074,0.17,0.123,0.283,0.123c0.215,0,0.389-0.174,0.389-0.389v-1.028h7.457v0.991
			h0.779v-1.565c0-0.215-0.176-0.389-0.391-0.389c-0.139,0-0.262,0.074-0.33,0.188H96.55c-0.068-0.113-0.189-0.188-0.33-0.188
			c-0.215,0-0.389,0.174-0.389,0.389v0.989c0.061,0.078,0.105,0.168,0.105,0.275V91.812z"/>
		<path fill="#FFFFFF" d="M91.134,93.306v-0.727V91.78v-0.572c0-0.18-0.328-0.326-0.328-0.326s-0.326,0.146-0.326,0.326v0.572v0.799
			v0.717c-0.791,0.146-1.391,0.835-1.391,1.667c0,0.936,0.76,1.696,1.697,1.696s1.697-0.761,1.697-1.696
			C92.483,94.145,91.903,93.466,91.134,93.306z M90.786,96.233c-0.699,0-1.27-0.569-1.27-1.271s0.57-1.271,1.27-1.271
			c0.701,0,1.271,0.569,1.271,1.271S91.487,96.233,90.786,96.233z"/>
		<circle fill="#FFFFFF" cx="90.786" cy="94.963" r="1.096"/>
		<path fill="#FFFFFF" d="M94.095,95.049c0,0.715,0.58,1.296,1.295,1.296c0.717,0,1.297-0.581,1.297-1.296
			c0-0.555-0.352-1.029-0.844-1.213c0,0.01-0.002,0.021-0.004,0.033c-0.117,1.152-0.213,1.336-0.459,1.336
			c-0.244,0-0.34-0.184-0.457-1.336c-0.002-0.01-0.002-0.018-0.004-0.027C94.437,94.031,94.095,94.5,94.095,95.049z"/>
		<path fill="#FFFFFF" d="M95.917,92.962c-0.014,0.18-0.029,0.404-0.051,0.639c0.607,0.2,1.049,0.772,1.049,1.448
			c0,0.84-0.684,1.524-1.525,1.524c-0.84,0-1.525-0.685-1.525-1.524c0-0.668,0.434-1.236,1.033-1.442
			c-0.023-0.234-0.039-0.459-0.051-0.641c-0.926,0.242-1.609,1.083-1.609,2.083c0,1.188,0.963,2.153,2.152,2.153
			s2.154-0.965,2.154-2.153C97.544,94.041,96.853,93.196,95.917,92.962z"/>
		<path fill="#FFFFFF" d="M95.38,94.977c0.182,0,0.328-2.216,0.328-2.397v-1.371c0-0.18-0.328-0.326-0.328-0.326
			s-0.326,0.146-0.326,0.326v1.371C95.054,92.761,95.2,94.977,95.38,94.977z"/>
		<path fill="#FFFFFF" d="M93.396,91.3c0-0.287-0.232-0.519-0.518-0.519S92.36,91.013,92.36,91.3c0,0.164,0.078,0.307,0.199,0.404
			c0.041,0.031,0.055,0.088,0.033,0.137c-0.018,0.037-0.025,0.078-0.025,0.121c0,0.059,0.016,0.111,0.045,0.16
			c0.023,0.035,0.023,0.082,0,0.119c-0.029,0.047-0.045,0.102-0.045,0.16c0,0.152,0,0.568,0,0.723c0,0.172,0.139,0.309,0.307,0.309
			c0.172,0,0.309-0.137,0.309-0.309c0-0.154,0-0.57,0-0.723c0-0.059-0.016-0.113-0.047-0.16c-0.02-0.037-0.02-0.084,0-0.119
			c0.031-0.049,0.047-0.102,0.047-0.16c0-0.043-0.008-0.082-0.023-0.119c-0.021-0.047-0.006-0.104,0.035-0.135
			C93.317,91.61,93.396,91.466,93.396,91.3z"/>
		<path fill="#FFFFFF" d="M102.976,93.822c0,0.238-0.154,0.436-0.367,0.508c0.02,0.059,0.035,0.117,0.049,0.18
			c0.217-0.088,0.373-0.301,0.373-0.551c0-0.086-0.02-0.166-0.055-0.243C102.976,93.757,102.976,93.795,102.976,93.822z"/>
		<path fill="#FFFFFF" d="M102.747,93.822c0-0.155,0-0.571,0-0.724c0-0.061-0.016-0.113-0.045-0.16
			c-0.023-0.037-0.023-0.084,0-0.119c0.029-0.049,0.045-0.104,0.045-0.16c0-0.039-0.008-0.078-0.021-0.115
			c-0.02-0.047-0.006-0.102,0.035-0.133c0.031-0.025,0.061-0.053,0.086-0.082c0.021-0.025,0.055-0.043,0.09-0.043h2.051
			c0.004-0.076,0.008-0.148,0.008-0.201c0-0.143,0.078-0.258,0.172-0.346h-2.211c-0.033,0-0.063-0.012-0.084-0.037l-0.021-0.023
			l-0.006-0.004c-0.02-0.023-0.037-0.045-0.057-0.063l-0.016-0.012l0,0c-0.027-0.023-0.057-0.043-0.088-0.061h0.002h-0.004
			c-0.074-0.041-0.154-0.063-0.24-0.063c-0.285,0-0.518,0.232-0.518,0.52c0,0.096,0.029,0.186,0.082,0.268l0.025,0.039l0.025,0.031
			c0.02,0.023,0.041,0.045,0.064,0.064l0.008,0.004l0.002,0.004c0.035,0.031,0.043,0.084,0.025,0.127
			c-0.018,0.039-0.027,0.08-0.027,0.125c0,0.057,0.018,0.111,0.047,0.16c0.023,0.035,0.023,0.082,0,0.119
			c-0.029,0.047-0.047,0.1-0.047,0.16c0,0.078,0,0.23,0,0.379c0.166,0.189,0.301,0.403,0.4,0.634
			C102.655,94.072,102.747,93.961,102.747,93.822z"/>
		<path fill="#FFFFFF" d="M100.337,93.753c-0.715,0-1.295,0.581-1.295,1.296s0.58,1.296,1.295,1.296
			c0.717,0,1.297-0.581,1.297-1.296S101.054,93.753,100.337,93.753z M100.337,95.914c-0.479,0-0.867-0.387-0.867-0.865
			s0.389-0.867,0.867-0.867s0.867,0.389,0.867,0.867S100.815,95.914,100.337,95.914z"/>
		<path fill="#FFFFFF" d="M100.845,92.958c-0.168-0.434-0.189-1.75-0.189-1.75c0-0.18-0.328-0.326-0.328-0.326
			s-0.326,0.146-0.326,0.326c0,0-0.029,1.297-0.197,1.756c-0.932,0.238-1.621,1.079-1.621,2.085c0,1.188,0.965,2.153,2.154,2.153
			s2.154-0.965,2.154-2.153C102.491,94.035,101.79,93.185,100.845,92.958z M100.337,96.573c-0.842,0-1.525-0.685-1.525-1.524
			c0-0.842,0.684-1.526,1.525-1.526s1.525,0.685,1.525,1.526C101.862,95.889,101.179,96.573,100.337,96.573z"/>
		<path fill="#FFFFFF" d="M98.454,91.78v-0.572c0-0.18-0.328-0.326-0.328-0.326s-0.328,0.146-0.328,0.326v0.572v1.713h0.656V91.78z"
			/>
		<path fill="#FFFFFF" d="M117.798,91.265c0.012,0,0.023,0.002,0.037,0.002v-0.059c0-0.064,0.018-0.121,0.043-0.174h-0.482
			c0.027,0.053,0.045,0.109,0.045,0.174v0.074C117.562,91.272,117.683,91.265,117.798,91.265z"/>
		<path fill="#FFFFFF" d="M107.978,92.569h-0.402v0.068v0.875h0.283c0-0.08,0-0.135,0-0.16c-0.004-0.029-0.006-0.07-0.006-0.125l0,0
			C107.854,93.093,107.894,92.796,107.978,92.569z"/>
		<path fill="#FFFFFF" d="M108.657,93.513h1.725c0-0.025-0.002-0.045-0.002-0.057v-0.887h-1.529
			c-0.016,0.021-0.033,0.047-0.049,0.08c-0.031,0.063-0.057,0.143-0.078,0.223c-0.041,0.164-0.061,0.334-0.066,0.398l-0.002,0.018
			l0.002,0.008v0.016v0.021C108.657,93.333,108.657,93.397,108.657,93.513z"/>
		<path fill="#FFFFFF" d="M106.464,93.513v-0.875v-0.068h-0.338c0.018,0.314,0.047,0.682,0.096,0.943H106.464z"/>
		<path fill="#FFFFFF" d="M104.974,92.569h-2.006c0.004,0.029,0.008,0.059,0.008,0.09c0,0.08-0.021,0.152-0.053,0.219
			c0.031,0.066,0.053,0.141,0.053,0.221c0,0.043,0,0.113,0,0.189c0.078,0.064,0.146,0.139,0.199,0.225h1.699
			C104.923,93.247,104.956,92.88,104.974,92.569z"/>
		<path fill="#FFFFFF" d="M111.913,92.569h-0.42v0.887c0,0.012-0.002,0.031-0.002,0.057h0.303c0.047-0.078,0.105-0.145,0.174-0.203
			c0-0.086,0-0.162,0-0.211c0-0.08,0.023-0.154,0.053-0.221c-0.029-0.066-0.053-0.139-0.053-0.219c0-0.029,0.004-0.061,0.01-0.09
			H111.913z"/>
		<path fill="#FFFFFF" d="M116.218,92.569c-0.121,0.107-0.27,0.232-0.443,0.377c0.174-0.094,0.363-0.164,0.561-0.213
			c-0.004-0.074-0.006-0.129-0.006-0.154v-0.01H116.218z"/>
		<path fill="#FFFFFF" d="M114.536,92.569h-1.504c0.006,0.029,0.01,0.061,0.01,0.09c0,0.08-0.023,0.152-0.053,0.219
			c0.029,0.066,0.053,0.141,0.053,0.221c0,0.039,0,0.1,0,0.166c0.092,0.068,0.166,0.15,0.227,0.248h0.398
			c0.018-0.049,0.037-0.098,0.059-0.141c0.074-0.148,0.178-0.281,0.328-0.422C114.185,92.829,114.345,92.708,114.536,92.569z"/>
		<path fill="#FFFFFF" d="M117.44,92.569v0.01c0,0.025-0.002,0.078-0.008,0.15c0.139,0.031,0.273,0.076,0.402,0.131v-0.291H117.44z"
			/>
		<path fill="#FFFFFF" d="M116.329,92.081c-0.066,0.012-0.139,0.021-0.23,0.035L115.44,92.2c-0.068,0.057-0.143,0.113-0.23,0.176
			c-0.463,0.324-0.773,0.531-1,0.742c-0.113,0.105-0.209,0.219-0.279,0.355c-0.07,0.139-0.104,0.3-0.102,0.45
			c0,0.42,0,2.556,0,2.556c0,0.189,0.139,0.342,0.309,0.342c0.172,0,0.311-0.152,0.311-0.342c0,0,0-2.136,0-2.556
			c0-0.141,0.082-0.239,0.127-0.288c0.121-0.131,1.342-1.064,1.754-1.48V92.081z"/>
		<path fill="#FFFFFF" d="M102.94,91.442c0.023,0.021,0.045,0.043,0.064,0.066h0.832v-0.475h-2.996
			c0.023,0.051,0.043,0.109,0.043,0.17c0.002,0.092,0.006,0.227,0.012,0.379h0.926c0.133-0.201,0.361-0.334,0.621-0.334
			c0.127,0,0.246,0.033,0.346,0.088l0.004,0.002h0.002c0.045,0.023,0.086,0.053,0.125,0.086v-0.002l0.018,0.016L102.94,91.442z"/>
		<path fill="#FFFFFF" d="M112.509,91.249c0.156,0,0.303,0.051,0.424,0.133l0,0l0,0l0,0l0,0c0.078,0.053,0.143,0.123,0.195,0.201
			h0.857l0,0l-0.002-0.023v-0.525h-8.91v0.475h6.875C112.085,91.353,112.282,91.249,112.509,91.249z"/>
		<path fill="#FFFFFF" d="M114.819,91.583h0.482l0.203-0.027c0-0.004,0-0.006,0-0.01v-0.512h-0.73v0.455
			c0.006,0.039,0.018,0.068,0.035,0.086C114.812,91.577,114.815,91.579,114.819,91.583z"/>
		<path fill="#FFFFFF" d="M116.329,91.444v-0.236c0-0.148,0.084-0.266,0.182-0.354v-0.337h7.457v1.028
			c0,0.215,0.174,0.389,0.389,0.389s0.391-0.174,0.391-0.389v-1.603c0-0.215-0.176-0.389-0.391-0.389
			c-0.141,0-0.262,0.074-0.33,0.188h-7.574c-0.068-0.113-0.189-0.188-0.33-0.188c-0.215,0-0.389,0.174-0.389,0.389v1.583
			l0.283-0.037C116.147,91.472,116.245,91.458,116.329,91.444z"/>
		<path fill="#FFFFFF" d="M118.696,93.493h0.021v-0.107c-0.178-0.115-0.33-0.271-0.432-0.457c-0.1-0.184-0.117-0.42-0.127-0.525
			l-0.002-0.027c-0.002-0.045-0.01-0.145-0.02-0.182c-0.016-0.029-0.043-0.059-0.074-0.086v0.867
			C118.304,93.11,118.517,93.286,118.696,93.493z"/>
		<path fill="#FFFFFF" d="M118.063,91.208v0.066c0.238,0.016,0.457,0.053,0.654,0.104v-0.17c0-0.18-0.326-0.326-0.326-0.326
			S118.063,91.028,118.063,91.208z"/>
		<path fill="#FFFFFF" d="M116.423,93.842c-0.482,0.189-0.826,0.658-0.826,1.207c0,0.715,0.582,1.296,1.297,1.296
			s1.297-0.581,1.297-1.296c0-0.555-0.352-1.029-0.844-1.213c-0.002,0.01-0.002,0.021-0.004,0.033
			c-0.117,1.152-0.213,1.336-0.459,1.336c-0.244,0-0.34-0.184-0.459-1.336C116.425,93.859,116.423,93.852,116.423,93.842z"/>
		<path fill="#FFFFFF" d="M117.419,92.962c-0.012,0.18-0.029,0.404-0.051,0.639c0.609,0.2,1.051,0.772,1.051,1.448
			c0,0.84-0.686,1.524-1.525,1.524c-0.842,0-1.525-0.685-1.525-1.524c0-0.668,0.434-1.236,1.031-1.442
			c-0.021-0.234-0.039-0.459-0.051-0.641c-0.926,0.242-1.609,1.083-1.609,2.083c0,1.188,0.965,2.153,2.154,2.153
			s2.154-0.965,2.154-2.153C119.048,94.041,118.354,93.196,117.419,92.962z"/>
		<path fill="#FFFFFF" d="M116.884,94.977c0.182,0,0.328-2.216,0.328-2.397v-0.641c-0.299,0.039-0.451,0.068-0.596,0.094
			c-0.021,0.004-0.041,0.008-0.059,0.012v0.535C116.558,92.761,116.702,94.977,116.884,94.977z"/>
		<path fill="#FFFFFF" d="M116.558,91.208v0.195c0.146-0.027,0.311-0.057,0.623-0.096c0.012-0.002,0.021-0.002,0.031-0.004v-0.096
			c0-0.18-0.328-0.326-0.328-0.326S116.558,91.028,116.558,91.208z"/>
		<path fill="#FFFFFF" d="M119.944,92.405c-0.215-0.395-0.896-0.965-2.146-0.965c-0.186,0-0.383,0.012-0.594,0.039
			c-0.641,0.084-0.658,0.117-1.164,0.184c-0.508,0.066-0.855,0.111-0.855,0.111l-0.016,0.002l-0.016,0.004l-0.012,0.002
			l-0.037,0.006c-0.033,0.004-0.076,0.008-0.121,0.008c-0.059,0-0.119-0.006-0.17-0.021c-0.047-0.016-0.092-0.037-0.129-0.076
			c-0.039-0.041-0.072-0.102-0.086-0.195v-0.535h-0.008c-0.012-0.025-0.104-0.045-0.217-0.045c-0.121,0-0.217,0.021-0.221,0.047l0,0
			v0.002h-0.002l0.006,0.002v0.586c0.018,0.127,0.066,0.229,0.143,0.307c0.113,0.121,0.287,0.182,0.447,0.201
			c0.064,0.01,0.125,0.014,0.182,0.014c0.084,0,0.156-0.008,0.211-0.014c0.043-0.006,0.074-0.012,0.094-0.016
			c0.061-0.008,0.383-0.051,0.842-0.109c0.508-0.066,0.525-0.1,1.166-0.184c0.072-0.008,0.143-0.014,0.211-0.014
			c0.393,0,0.719,0.148,0.838,0.367c0.027,0.037,0.037,0.188,0.043,0.277c0.008,0.088,0.021,0.301,0.107,0.455
			c0.189,0.348,0.582,0.576,0.947,0.576c0.074,0,0.15-0.012,0.223-0.031C120.024,93.269,120.175,92.829,119.944,92.405z"/>
		<path fill="#FFFFFF" d="M113.042,93.822c0,0.227-0.141,0.42-0.34,0.498c0.045,0.047,0.086,0.098,0.127,0.15
			c0.176-0.104,0.295-0.293,0.295-0.512c0-0.107-0.031-0.208-0.082-0.296C113.042,93.728,113.042,93.783,113.042,93.822z"/>
		<path fill="#FFFFFF" d="M108.202,92.626L108.202,92.626c-0.076,0.172-0.123,0.502-0.121,0.604c0,0.049,0.002,0.084,0.004,0.107
			v0.012c0,0.076,0,0.497,0,1.093c0,0.656,0,1.521,0,2.353c0,0.25-0.049,0.543-0.143,0.82s-0.227,0.541-0.408,0.738
			c-0.119,0.127-0.26,0.225-0.424,0.27l0,0h-0.004c0,0.002-0.002,0.002-0.002,0.002h-0.002c-0.037,0.01-0.068,0.012-0.109,0.016
			c-0.043,0.004-0.09,0.004-0.143,0.004c-0.117,0-0.254-0.006-0.35-0.008c-0.063-0.002-0.154-0.006-0.262-0.006
			c-0.199,0-0.449,0.012-0.65,0.061c-0.398,0.098-0.738,0.275-0.975,0.487c-0.238,0.209-0.365,0.443-0.363,0.652
			c0,0.041,0.004,0.084,0.016,0.123c0.041,0.17,0.166,0.314,0.367,0.418s0.471,0.166,0.775,0.164c0.193,0,0.402-0.023,0.611-0.076
			c0.457-0.109,1.066-0.51,1.553-1.145c0.488-0.632,0.855-1.491,0.855-2.521c0-0.831,0-1.696,0-2.353c0-0.33,0-0.605,0-0.802
			c0-0.195,0-0.307,0-0.307v-0.014l-0.002-0.012v-0.025c0-0.002,0.006-0.104,0.029-0.242c0.021-0.137,0.059-0.309,0.123-0.455
			c0.01-0.023,0.021-0.047,0.033-0.068h-0.346C108.243,92.546,108.222,92.579,108.202,92.626z"/>
		<path fill="#FFFFFF" d="M110.38,92.085c0-0.143,0.08-0.258,0.174-0.346h-3.133c0.086,0.086,0.154,0.193,0.154,0.326v0.221h2.805
			V92.085z"/>
		<path fill="#FFFFFF" d="M106.464,92.065c0-0.133,0.068-0.24,0.152-0.326h-0.682c0.094,0.088,0.172,0.201,0.172,0.342
			c0.002,0.055,0.004,0.127,0.006,0.205h0.352V92.065z"/>
		<path fill="#FFFFFF" d="M113.034,92.001c0-0.178-0.092-0.336-0.23-0.43v-0.002c-0.086-0.059-0.186-0.092-0.295-0.092
			c-0.172,0-0.324,0.084-0.418,0.215c-0.021,0.029-0.057,0.047-0.092,0.047h-0.68c0.094,0.088,0.174,0.203,0.174,0.346v0.201h0.535
			c0.033,0,0.064,0.016,0.088,0.041c0.023,0.027,0.047,0.053,0.072,0.072c0.041,0.033,0.055,0.088,0.035,0.135
			c-0.018,0.039-0.027,0.08-0.027,0.125c0,0.057,0.018,0.111,0.045,0.16c0.023,0.035,0.023,0.082,0,0.119
			c-0.027,0.047-0.045,0.1-0.045,0.16c0,0.152,0,0.568,0,0.724c0,0.033,0.01,0.061,0.02,0.09c0.102,0.064,0.201,0.139,0.291,0.219
			c0.17-0.004,0.307-0.139,0.307-0.309c0-0.155,0-0.571,0-0.724c0-0.061-0.018-0.113-0.047-0.16c-0.021-0.037-0.021-0.084,0-0.119
			c0.029-0.049,0.047-0.104,0.047-0.16c0-0.039-0.01-0.078-0.023-0.113c-0.02-0.049-0.004-0.104,0.037-0.133
			C112.952,92.315,113.034,92.169,113.034,92.001z"/>
		<path fill="#FFFFFF" d="M109.649,95.924c0,0.718,0.58,1.298,1.297,1.298c0.715,0,1.295-0.58,1.295-1.298
			c0-0.557-0.352-1.027-0.842-1.211c-0.002,0.012-0.004,0.023-0.004,0.033c-0.119,1.15-0.213,1.335-0.459,1.335
			c-0.244,0-0.34-0.185-0.459-1.335c0-0.01-0.002-0.018-0.002-0.027C109.993,94.908,109.649,95.375,109.649,95.924z"/>
		<path fill="#FFFFFF" d="M111.472,93.838c-0.012,0.182-0.029,0.404-0.051,0.641c0.609,0.199,1.051,0.771,1.051,1.445
			c0,0.843-0.686,1.526-1.525,1.526c-0.842,0-1.525-0.684-1.525-1.526c0-0.666,0.432-1.232,1.031-1.438
			c-0.021-0.238-0.039-0.461-0.051-0.643c-0.926,0.24-1.609,1.08-1.609,2.08c0,1.192,0.965,2.153,2.154,2.153
			s2.154-0.961,2.154-2.153C113.101,94.916,112.407,94.074,111.472,93.838z"/>
		<path fill="#FFFFFF" d="M110.937,95.854c0.18,0,0.326-2.216,0.326-2.397v-1.371c0-0.18-0.326-0.326-0.326-0.326
			s-0.326,0.146-0.326,0.326v1.371C110.61,93.638,110.755,95.854,110.937,95.854z"/>
		<path fill="#FFFFFF" d="M106.692,92.065v0.572v1.194c0.25,0.133,0.471,0.309,0.652,0.514v-1.708v-0.572
			c0-0.18-0.326-0.326-0.326-0.326S106.692,91.886,106.692,92.065z"/>
		<path fill="#FFFFFF" d="M107.716,95.924c0-1.014-0.703-1.861-1.648-2.09c-0.168-0.435-0.189-1.749-0.189-1.749
			c0-0.18-0.326-0.326-0.326-0.326s-0.328,0.146-0.328,0.326c0,0-0.029,1.297-0.197,1.757c-0.932,0.236-1.621,1.078-1.621,2.082
			c0,1.192,0.967,2.153,2.156,2.153S107.716,97.116,107.716,95.924z M104.036,95.924c0-0.84,0.684-1.525,1.525-1.525
			c0.84,0,1.523,0.686,1.523,1.525c0,0.843-0.684,1.526-1.523,1.526C104.72,97.45,104.036,96.767,104.036,95.924z"/>
		<path fill="#FFFFFF" d="M106.856,95.924c0-0.715-0.58-1.295-1.295-1.295s-1.297,0.58-1.297,1.295c0,0.718,0.582,1.298,1.297,1.298
			S106.856,96.642,106.856,95.924z M104.694,95.924c0-0.477,0.387-0.867,0.867-0.867c0.477,0,0.867,0.391,0.867,0.867
			c0,0.481-0.391,0.87-0.867,0.87C105.081,96.794,104.694,96.405,104.694,95.924z"/>
		<path fill="#FFFFFF" d="M124.208,92.569h-0.229h-0.346c0.012,0.074,0.025,0.143,0.039,0.201c0.453,0.135,0.844,0.398,1.135,0.742
			h0.785c0.025-0.17,0.063-0.34,0.109-0.484c0.006-0.025,0.008-0.057,0.008-0.09c0-0.105-0.023-0.236-0.055-0.369H124.208z"/>
		<path fill="#FFFFFF" d="M135.708,92.778c0.016-0.061,0.029-0.131,0.041-0.209h-1.041h-0.846h-0.436
			c0.098,0.131,0.188,0.234,0.209,0.26c0.15,0.174,0.26,0.412,0.318,0.684h0.648C134.89,93.175,135.267,92.917,135.708,92.778z"/>
		<path fill="#FFFFFF" d="M128.989,92.778c0.014-0.061,0.027-0.131,0.039-0.209h-0.963h-1.311c0.098,0.131,0.186,0.234,0.209,0.26
			c0.15,0.174,0.26,0.412,0.318,0.684h0.602C128.169,93.175,128.548,92.917,128.989,92.778z"/>
		<path fill="#FFFFFF" d="M132.101,92.569v0.924c0,0.008-0.004,0.012-0.004,0.02h0.17c0.023-0.17,0.061-0.34,0.107-0.484
			c0.006-0.025,0.008-0.057,0.008-0.09c0-0.105-0.023-0.236-0.055-0.369H132.101z"/>
		<path fill="#FFFFFF" d="M122.269,92.778c0.014-0.061,0.027-0.131,0.041-0.209h-2.117c0.049,0.189,0.045,0.379-0.025,0.545
			c-0.074,0.182-0.217,0.316-0.398,0.398h1.395C121.448,93.175,121.827,92.917,122.269,92.778z"/>
		<path fill="#FFFFFF" d="M130.989,93.044v-0.475h-0.637c0.014,0.074,0.025,0.143,0.041,0.201
			C130.608,92.833,130.806,92.927,130.989,93.044z"/>
		<path fill="#FFFFFF" d="M126.528,92.651c-0.123-0.164-0.25-0.346-0.309-0.498c-0.016-0.043-0.029-0.086-0.029-0.135
			s0-0.123,0-0.207h-0.426c0,0.086,0,0.158,0,0.205c0,0.025,0.008,0.082,0.025,0.146c0.014,0.068,0.037,0.148,0.059,0.234
			c0.043,0.17,0.09,0.363,0.09,0.541c0,0.045-0.004,0.09-0.012,0.135l-0.004,0.016c-0.084,0.242-0.137,0.619-0.135,0.88
			c0,0.26,0.049,0.5,0.131,0.695s0.199,0.346,0.324,0.428c0.084,0.057,0.17,0.086,0.258,0.086c0.09,0,0.166-0.027,0.236-0.082
			c0.072-0.053,0.137-0.135,0.191-0.242c0.111-0.217,0.174-0.533,0.174-0.885c0.002-0.415-0.131-0.78-0.313-0.991
			C126.763,92.946,126.649,92.812,126.528,92.651z"/>
		<path fill="#FFFFFF" d="M126.19,90.254c0-0.008-0.004-0.023-0.02-0.047c-0.016-0.021-0.041-0.047-0.072-0.07
			c-0.039-0.033-0.086-0.063-0.121-0.08c-0.014,0.008-0.025,0.014-0.043,0.023c-0.053,0.031-0.111,0.078-0.143,0.119
			c-0.021,0.025-0.027,0.045-0.027,0.055v0.551h0.426V90.254z"/>
		<path fill="#FFFFFF" d="M132.862,90.254c0-0.008-0.004-0.023-0.02-0.047c-0.016-0.021-0.041-0.047-0.07-0.07
			c-0.041-0.033-0.088-0.063-0.123-0.08c-0.014,0.008-0.027,0.014-0.043,0.023c-0.053,0.031-0.111,0.078-0.143,0.119
			c-0.021,0.025-0.027,0.045-0.027,0.055v0.551h0.426V90.254z"/>
		<path fill="#FFFFFF" d="M133.2,92.651c-0.121-0.164-0.248-0.346-0.309-0.498c-0.016-0.043-0.027-0.086-0.029-0.135
			c0-0.049,0-0.123,0-0.207h-0.426c0,0.086,0,0.158,0,0.205c0,0.025,0.01,0.082,0.025,0.146c0.016,0.068,0.037,0.148,0.059,0.234
			c0.043,0.17,0.09,0.363,0.092,0.541c0,0.045-0.004,0.09-0.014,0.135l-0.004,0.016c-0.084,0.242-0.137,0.619-0.135,0.88
			c0,0.26,0.049,0.5,0.131,0.695c0.084,0.195,0.199,0.346,0.324,0.428c0.084,0.057,0.17,0.086,0.258,0.086
			c0.09,0,0.166-0.027,0.236-0.082c0.072-0.053,0.137-0.135,0.191-0.242c0.111-0.217,0.176-0.533,0.174-0.885
			c0.002-0.415-0.129-0.78-0.313-0.991C133.435,92.946,133.321,92.812,133.2,92.651z"/>
		<path fill="#FFFFFF" d="M119.267,91.583h3.139c0.008-0.152,0.012-0.285,0.014-0.375c0-0.064,0.018-0.121,0.045-0.174h-3.561
			c0.025,0.053,0.043,0.109,0.043,0.174v0.24C119.062,91.487,119.169,91.532,119.267,91.583z"/>
		<path fill="#FFFFFF" d="M130.265,91.583h0.725v-0.375c0-0.064,0.018-0.121,0.043-0.174h-0.824c0.025,0.051,0.043,0.109,0.043,0.17
			C130.253,91.296,130.257,91.431,130.265,91.583z"/>
		<path fill="#FFFFFF" d="M136.983,91.583h0.227l0.035,0.043c0.023,0.029,0.051,0.055,0.08,0.078l0.068,0.055l-0.035,0.082
			c-0.018,0.037-0.027,0.078-0.027,0.121c0,0.059,0.018,0.111,0.047,0.16l0.037,0.061l-0.037,0.059
			c-0.029,0.049-0.047,0.102-0.047,0.16c0,0.092,0,0.279,0,0.447c0.221,0.09,0.424,0.211,0.602,0.355
			c0.008-0.025,0.016-0.051,0.016-0.08c0-0.154,0-0.57,0-0.723c0-0.059-0.016-0.113-0.045-0.16l-0.037-0.059l0.037-0.061
			c0.029-0.049,0.045-0.102,0.045-0.16c0-0.043-0.008-0.082-0.023-0.119l-0.035-0.082l0.07-0.053
			c0.123-0.098,0.201-0.242,0.201-0.408c0-0.287-0.23-0.519-0.518-0.519c-0.168,0-0.316,0.081-0.41,0.206l-0.035,0.047h-0.271
			c0.025,0.051,0.043,0.109,0.043,0.17C136.972,91.296,136.976,91.431,136.983,91.583z"/>
		<path fill="#FFFFFF" d="M123.487,91.034c0.025,0.051,0.043,0.109,0.043,0.17c0.002,0.092,0.006,0.227,0.014,0.379h0.199
			c-0.002-0.014-0.004-0.025-0.004-0.037v-0.512H123.487z"/>
		<path fill="#FFFFFF" d="M132.101,91.583h3.742c0.01-0.152,0.014-0.285,0.016-0.375c0-0.064,0.018-0.121,0.045-0.174h-3.846
			c0.025,0.053,0.043,0.109,0.043,0.174V91.583z"/>
		<path fill="#FFFFFF" d="M129.14,91.208c0-0.064,0.018-0.121,0.043-0.174h-4.207v0.512c0,0.012-0.004,0.023-0.004,0.037h4.152
			C129.132,91.431,129.136,91.298,129.14,91.208z"/>
		<path fill="#FFFFFF" d="M131.544,90.882c0,0-0.326,0.146-0.326,0.326v0.572v1.428c0.105,0.086,0.205,0.184,0.293,0.285h0.361
			V91.78v-0.572C131.872,91.028,131.544,90.882,131.544,90.882z"/>
		<path fill="#FFFFFF" d="M122.985,93.753c-0.717,0-1.297,0.581-1.297,1.296s0.58,1.296,1.297,1.296
			c0.715,0,1.295-0.581,1.295-1.296S123.7,93.753,122.985,93.753z M122.985,95.914c-0.479,0-0.869-0.387-0.869-0.865
			s0.391-0.867,0.869-0.867s0.867,0.389,0.867,0.867S123.464,95.914,122.985,95.914z"/>
		<path fill="#FFFFFF" d="M123.493,92.958c-0.168-0.434-0.189-1.75-0.189-1.75c0-0.18-0.328-0.326-0.328-0.326
			s-0.328,0.146-0.328,0.326c0,0-0.027,1.297-0.197,1.756c-0.932,0.238-1.619,1.079-1.619,2.085c0,1.188,0.963,2.153,2.154,2.153
			c1.188,0,2.152-0.965,2.152-2.153C125.138,94.035,124.437,93.185,123.493,92.958z M122.985,96.573
			c-0.842,0-1.525-0.685-1.525-1.524c0-0.842,0.684-1.526,1.525-1.526c0.84,0,1.523,0.685,1.523,1.526
			C124.509,95.889,123.825,96.573,122.985,96.573z"/>
		<path fill="#FFFFFF" d="M130.212,92.958c-0.168-0.434-0.189-1.75-0.189-1.75c0-0.18-0.328-0.326-0.328-0.326
			s-0.326,0.146-0.326,0.326c0,0-0.029,1.297-0.199,1.756c-0.93,0.238-1.619,1.079-1.619,2.085c0,1.188,0.965,2.153,2.154,2.153
			s2.154-0.965,2.154-2.153C131.858,94.035,131.157,93.185,130.212,92.958z M129.704,96.573c-0.842,0-1.525-0.685-1.525-1.524
			c0-0.842,0.684-1.526,1.525-1.526s1.525,0.685,1.525,1.526C131.229,95.889,130.546,96.573,129.704,96.573z"/>
		<path fill="#FFFFFF" d="M129.704,93.753c-0.715,0-1.295,0.581-1.295,1.296s0.58,1.296,1.295,1.296
			c0.717,0,1.297-0.581,1.297-1.296S130.421,93.753,129.704,93.753z M129.704,95.914c-0.479,0-0.867-0.387-0.867-0.865
			s0.389-0.867,0.867-0.867s0.867,0.389,0.867,0.867S130.183,95.914,129.704,95.914z"/>
		<path fill="#FFFFFF" d="M136.425,93.753c-0.717,0-1.297,0.581-1.297,1.296s0.58,1.296,1.297,1.296
			c0.715,0,1.295-0.581,1.295-1.296S137.14,93.753,136.425,93.753z M136.425,95.914c-0.48,0-0.869-0.387-0.869-0.865
			s0.389-0.867,0.869-0.867c0.479,0,0.867,0.389,0.867,0.867S136.903,95.914,136.425,95.914z"/>
		<path fill="#FFFFFF" d="M136.933,92.958c-0.168-0.434-0.191-1.75-0.191-1.75c0-0.18-0.326-0.326-0.326-0.326
			s-0.328,0.146-0.328,0.326c0,0-0.027,1.297-0.197,1.756c-0.93,0.238-1.619,1.079-1.619,2.085c0,1.188,0.965,2.153,2.154,2.153
			s2.152-0.965,2.152-2.153C138.577,94.035,137.876,93.185,136.933,92.958z M136.425,96.573c-0.842,0-1.525-0.685-1.525-1.524
			c0-0.842,0.684-1.526,1.525-1.526c0.84,0,1.523,0.685,1.523,1.526C137.948,95.889,137.265,96.573,136.425,96.573z"/>
		<polygon fill="#FFFFFF" points="147.624,95.17 147.687,95.17 147.632,94.391 147.599,94.391 		"/>
		<path fill="#FFFFFF" d="M178.103,92.622c-0.023-0.072-0.047-0.109-0.072-0.109c-0.031,0-0.434,0-0.76,0
			c0.205,0,0.369,1.004,0.369,2.247c0,1.238-0.164,2.245-0.369,2.245c0.324,0,0.723,0,0.76,0c0.025,0,0.049-0.037,0.072-0.107
			c0.148-0.291,0.254-1.14,0.254-2.138C178.356,93.759,178.251,92.913,178.103,92.622z"/>
		<path fill="#FFFFFF" d="M139.042,94.77c0-0.457,0.359-0.828,0.809-0.855c-0.016-0.321-0.037-0.603-0.066-0.821
			c-0.23-0.16-0.395-0.344-0.516-0.512c-0.334,0-0.779,0-0.803,0c0.129,0,0.236,1.02,0.236,2.274c0,1.257-0.107,2.274-0.236,2.274
			c0.051,0,1.109,0,1.17,0c0.104,0,0.189-0.627,0.223-1.505C139.405,95.602,139.042,95.227,139.042,94.77z"/>
		<path fill="#FFFFFF" d="M146.29,94.391c-0.115-0.154-0.299-0.254-0.506-0.254s-0.389,0.1-0.504,0.254h-0.758
			c0.041,0.07,0.068,0.148,0.064,0.234c-0.008,0.121-0.016,0.32-0.02,0.545h0.732c0.117,0.141,0.289,0.23,0.484,0.23
			c0.197,0,0.369-0.09,0.486-0.23h0.209c-0.006-0.184-0.016-0.461-0.025-0.779H146.29z"/>
		<path fill="#FFFFFF" d="M153.218,94.391h-0.484l0.016,0.756c0,0.008-0.004,0.016-0.004,0.023h0.492
			c0.027,0.031,0.057,0.061,0.09,0.088h0.791c0.031-0.027,0.063-0.057,0.09-0.088h5.475l-0.018-0.779h-5.438
			c-0.117-0.154-0.299-0.254-0.506-0.254S153.333,94.236,153.218,94.391z"/>
		<path fill="#FFFFFF" d="M143.411,95.17c0.041-0.332,0.064-0.596,0.064-0.596c0.004-0.068,0.025-0.129,0.057-0.184h-1.266v0.236
			v0.047c0,0.24-0.002,0.396-0.006,0.496H143.411z"/>
		<path fill="#FFFFFF" d="M161.202,94.391h-0.426l0.018,0.756c0,0.008-0.004,0.016-0.004,0.023h0.432
			c0.027,0.031,0.057,0.061,0.09,0.088h0.791c0.031-0.027,0.063-0.057,0.088-0.088h0.469c0.004-0.076,0.006-0.154,0-0.236
			c-0.01-0.156-0.047-0.336-0.092-0.457c-0.01-0.027-0.014-0.057-0.014-0.086h-0.342c-0.115-0.154-0.297-0.254-0.506-0.254
			C161.499,94.137,161.317,94.236,161.202,94.391z"/>
		<path fill="#FFFFFF" d="M163.554,94.391c0.051,0.131,0.084,0.287,0.096,0.479c0.006,0.09,0.006,0.182-0.002,0.27
			c0.014,0.008,0.025,0.021,0.037,0.031h4.27l-0.016-0.779H163.554z"/>
		<polygon fill="#FFFFFF" points="151.636,95.17 151.62,94.391 149.021,94.391 149.103,95.17 		"/>
		<path fill="#FFFFFF" d="M169.931,94.137c-0.207,0-0.391,0.1-0.506,0.254h-0.373l0.016,0.756c0,0.008-0.002,0.016-0.002,0.023
			h0.379c0.117,0.141,0.289,0.23,0.486,0.23c0.35,0,0.633-0.283,0.633-0.631C170.563,94.418,170.28,94.137,169.931,94.137z"/>
		<path fill="#FFFFFF" d="M141.22,94.848c-0.023-0.17-0.031-0.336-0.033-0.457h-0.777c-0.115-0.154-0.297-0.254-0.506-0.254
			c-0.35,0-0.633,0.281-0.633,0.633c0,0.348,0.283,0.631,0.633,0.631c0.197,0,0.369-0.09,0.486-0.23h0.898
			C141.259,95.074,141.235,94.969,141.22,94.848z"/>
		<path fill="#FFFFFF" d="M140.563,93.198c0,0,0.852,0.236,0.852,1.021c0,0-0.039,1.189,0.363,1.203h0.031
			c0.08,0,0.18-0.01,0.215-0.18c0.018-0.088,0.014-0.52,0.014-0.615v-3.183c0-0.751-0.607-1.358-1.357-1.358
			c-0.672,0-1.439,0.553-1.496,1.128c-0.059,0.574-0.002,0.818,0.17,1.09S139.841,93.003,140.563,93.198z"/>
		<path fill="#FFFFFF" d="M142.372,92.017h0.252c0.092-0.059,0.201-0.094,0.32-0.094h2.439c0.119,0,0.229,0.035,0.32,0.094h0.678
			c-0.002-0.039-0.002-0.072-0.002-0.092c0-0.342,0.041-0.635,0.121-0.877c-1.043-0.347-1.969-1.091-2.68-1.091
			C142.028,89.957,142.372,92.017,142.372,92.017z"/>
		<path fill="#FFFFFF" d="M146.06,92.685h0.34c-0.004-0.119-0.008-0.229-0.01-0.324h-0.33c-0.037,0-0.068,0.016-0.096,0.035
			c0.008,0.037,0.012,0.076,0.012,0.117c0,0.045-0.008,0.09-0.018,0.133C145.987,92.669,146.021,92.685,146.06,92.685z"/>
		<path fill="#FFFFFF" d="M145.384,92.149h-2.439c-0.199,0.002-0.361,0.164-0.363,0.363c0.002,0.201,0.164,0.361,0.363,0.361h2.439
			c0.201,0,0.363-0.16,0.363-0.361C145.747,92.313,145.585,92.151,145.384,92.149z"/>
		<path fill="#FFFFFF" d="M146.261,93.655h0.168c-0.004-0.107-0.006-0.217-0.01-0.322h-0.158c-0.037,0-0.068,0.014-0.098,0.035
			c0.008,0.037,0.012,0.076,0.012,0.117c0,0.045-0.006,0.09-0.016,0.133C146.187,93.64,146.222,93.655,146.261,93.655z"/>
		<path fill="#FFFFFF" d="M143.144,93.122c-0.199,0-0.361,0.162-0.361,0.363c0,0.199,0.162,0.362,0.361,0.362h2.441
			c0.199,0,0.361-0.163,0.361-0.362c0-0.201-0.162-0.363-0.361-0.363H143.144z"/>
		<path fill="#FFFFFF" d="M151.515,93.661c0.027,0,0.057,0,0.084-0.002l0,0c-0.008-0.121-0.02-0.309-0.037-0.533
			c-0.016,0-0.031,0-0.047,0c-0.988,0-1.826-0.355-2.211-0.881c0,0.051,0,0.096,0,0.125
			C149.319,93.093,150.302,93.661,151.515,93.661z"/>
		<path fill="#FFFFFF" d="M153.837,92.272c0-0.018,0-0.045,0-0.08c-0.27,0.371-0.754,0.666-1.361,0.818
			c0.066,0.182,0.125,0.346,0.168,0.475C153.362,93.247,153.847,92.79,153.837,92.272z"/>
		<path fill="#FFFFFF" d="M141.151,96.917c0,0.018,0,0.045,0,0.074c0.367-0.463,1.145-0.791,2.104-0.846
			c0.031-0.138,0.061-0.298,0.086-0.462C142.116,95.734,141.151,96.267,141.151,96.917z"/>
		<path fill="#FFFFFF" d="M144.571,95.803c0.004,0.168,0.014,0.329,0.029,0.458c0.6,0.146,1.061,0.408,1.318,0.73
			c0-0.029,0-0.057,0-0.074C145.919,96.427,145.366,96.002,144.571,95.803z"/>
		<path fill="#FFFFFF" d="M144.399,96.45c-0.111-0.53-0.041-1.837-0.041-1.837c0.008-0.182-0.313-0.342-0.313-0.342
			s-0.334,0.131-0.342,0.313c0,0-0.107,1.227-0.27,1.782c-1.27,0.029-2.283,0.57-2.283,1.238c0,0.684,1.066,1.236,2.383,1.236
			s2.385-0.553,2.385-1.236C145.919,97.077,145.288,96.632,144.399,96.45z"/>
		<path fill="#FFFFFF" d="M147.813,92.017c-0.039,0.01-0.08,0.016-0.119,0.021l0.215,3.038l0.199,0.061l0.148-0.055l-0.064-0.877
			l-0.234-2.237C147.911,91.985,147.864,92.003,147.813,92.017z"/>
		<path fill="#FFFFFF" d="M148.177,91.862l0.336,3.208l0.188,0.051l0.162-0.045l-0.371-3.505
			C148.409,91.685,148.302,91.782,148.177,91.862z"/>
		<path fill="#FFFFFF" d="M151.515,92.897c0.01,0,0.02,0,0.031,0c-0.033-0.416-0.068-0.896-0.1-1.281
			c-0.01-0.113,0.066-0.215,0.176-0.24l0.053-0.008c0.092,0,0.176,0.057,0.213,0.145c0.168,0.42,0.354,0.881,0.506,1.281
			c0.854-0.209,1.455-0.709,1.443-1.283c-0.002-0.045-0.006-0.09-0.014-0.133c-0.125-0.657-1.061-1.157-2.199-1.157
			c-0.027,0-0.055,0-0.082,0c-1.252,0.027-2.254,0.649-2.238,1.386C149.319,92.331,150.302,92.897,151.515,92.897z"/>
		<path fill="#FFFFFF" d="M151.837,93.795l0.029,1.371c0,0.031,0.014,0.061,0.031,0.092h0.586c0.021-0.035,0.037-0.068,0.035-0.107
			l-0.027-1.369c-0.004-0.181-0.816-2.183-0.816-2.183S151.833,93.614,151.837,93.795z"/>
		<path fill="#FFFFFF" d="M159.56,93.661c0.027,0,0.057,0,0.084-0.002l0,0c-0.008-0.121-0.021-0.309-0.037-0.533
			c-0.016,0-0.031,0-0.047,0c-0.988,0-1.826-0.355-2.211-0.881c0,0.051,0,0.096,0,0.125
			C157.364,93.093,158.347,93.661,159.56,93.661z"/>
		<path fill="#FFFFFF" d="M161.882,92.272c0-0.018,0-0.045,0-0.08c-0.27,0.371-0.754,0.666-1.361,0.818
			c0.068,0.182,0.125,0.346,0.168,0.475C161.407,93.247,161.892,92.79,161.882,92.272z"/>
		<path fill="#FFFFFF" d="M159.56,92.897c0.01,0,0.02,0,0.029,0c-0.029-0.416-0.068-0.896-0.098-1.281
			c-0.01-0.113,0.066-0.215,0.176-0.24l0.053-0.008c0.092,0,0.178,0.057,0.211,0.145c0.17,0.42,0.355,0.881,0.508,1.281
			c0.854-0.209,1.455-0.709,1.443-1.283c0-0.045-0.006-0.09-0.014-0.133c-0.125-0.657-1.061-1.157-2.197-1.157
			c-0.029,0-0.057,0-0.086,0c-1.25,0.027-2.252,0.649-2.236,1.386C157.364,92.331,158.347,92.897,159.56,92.897z"/>
		<path fill="#FFFFFF" d="M159.882,93.795l0.029,1.371c0,0.031,0.014,0.061,0.031,0.092h0.586c0.021-0.035,0.037-0.068,0.037-0.107
			l-0.031-1.369c-0.004-0.181-0.814-2.183-0.814-2.183S159.878,93.614,159.882,93.795z"/>
		<path fill="#FFFFFF" d="M167.833,93.661c0.027,0,0.055,0,0.084-0.002l0,0c-0.008-0.121-0.021-0.309-0.037-0.533
			c-0.016,0-0.031,0-0.047,0c-0.988,0-1.826-0.355-2.211-0.881c0,0.051,0,0.096,0,0.125
			C165.638,93.093,166.62,93.661,167.833,93.661z"/>
		<path fill="#FFFFFF" d="M170.155,92.272c0-0.018-0.002-0.045-0.002-0.08c-0.266,0.371-0.752,0.666-1.361,0.818
			c0.07,0.182,0.129,0.346,0.17,0.475C169.681,93.247,170.167,92.79,170.155,92.272z"/>
		<path fill="#FFFFFF" d="M167.833,92.897c0.01,0,0.02,0,0.029,0c-0.031-0.416-0.066-0.896-0.098-1.281
			c-0.008-0.113,0.064-0.215,0.176-0.24l0.053-0.008c0.09,0,0.176,0.057,0.211,0.145c0.17,0.42,0.355,0.881,0.508,1.281
			c0.854-0.209,1.455-0.709,1.443-1.283c-0.002-0.045-0.006-0.09-0.014-0.133c-0.125-0.657-1.061-1.157-2.199-1.157
			c-0.027,0-0.055,0-0.082,0c-1.252,0.027-2.254,0.649-2.238,1.386C165.638,92.331,166.62,92.897,167.833,92.897z"/>
		<path fill="#FFFFFF" d="M167.993,91.599c0,0,0.158,2.016,0.16,2.196l0.029,1.371c0.004,0.18,0.336,0.32,0.336,0.32
			s0.324-0.154,0.32-0.336l-0.031-1.369C168.806,93.601,167.993,91.599,167.993,91.599z"/>
		<path fill="#FFFFFF" d="M163.399,95.27c0.021-0.115,0.031-0.246,0.021-0.385c-0.027-0.422-0.143-0.66-0.383-0.668h-0.021
			c-0.096,0-0.186,0.025-0.234,0.178c0.049,0.133,0.094,0.332,0.105,0.525c0.014,0.188,0,0.359-0.029,0.494
			c-0.021,0.023-0.043,0.045-0.059,0.072h-15.295c-0.027-0.045-0.063-0.088-0.104-0.123l-0.109-3.36
			c0.006-0.039,0.02-0.113,0.039-0.199c0.063,0.012,0.127,0.02,0.193,0.02c0.078,0,0.156-0.01,0.234-0.027
			c0.459-0.113,0.756-0.508,0.664-0.881c-0.074-0.308-0.387-0.505-0.748-0.505c-0.082,0-0.164,0.008-0.246,0.029
			c-0.232,0.057-0.424,0.186-0.543,0.35c-0.246,0.329-0.277,0.837-0.277,1.136c0,0.303,0.107,3.458,0.107,3.458
			c-0.1,0.096-0.162,0.229-0.162,0.377c0,0.285,0.232,0.517,0.518,0.517c0.176,0,0.328-0.086,0.422-0.219h15.32
			c0.096,0.133,0.248,0.219,0.424,0.219c0.285,0,0.518-0.231,0.518-0.517C163.755,95.531,163.606,95.338,163.399,95.27z"/>
	</g>
</g>
<g id="Orientierungskreise" display="none">
	<g id="Weißer_Kreis_x5F_Violin_9_" display="inline">
		<g>
			<path fill="#4D4D4F" d="M-1122.268,9.917c47.365,0,85.898,38.534,85.898,85.899c0,47.365-38.534,85.898-85.898,85.898
				c-47.365,0-85.899-38.534-85.899-85.898C-1208.167,48.451-1169.633,9.917-1122.268,9.917 M-1122.268,9.69
				c-47.566,0-86.126,38.559-86.126,86.126c0,47.565,38.56,86.125,86.126,86.125s86.125-38.56,86.125-86.125
				C-1036.143,48.249-1074.702,9.69-1122.268,9.69L-1122.268,9.69z"/>
		</g>
	</g>
	<g id="Weißer_Kreis_x5F_Violin_10_" display="inline">
		<g>
			<path fill="#4D4D4F" d="M-1122.268,12.492c45.944,0,83.322,37.378,83.322,83.323c0,45.944-37.378,83.322-83.322,83.322
				c-45.945,0-83.323-37.378-83.323-83.322C-1205.591,49.871-1168.212,12.492-1122.268,12.492 M-1122.268,12.272
				c-46.139,0-83.543,37.402-83.543,83.543c0,46.139,37.404,83.542,83.543,83.542s83.542-37.403,83.542-83.542
				C-1038.726,49.675-1076.128,12.272-1122.268,12.272L-1122.268,12.272z"/>
		</g>
	</g>
	<g id="Weißer_Kreis_x5F_Violin_2_" display="inline">
		<g>
			<path fill="#4D4D4F" d="M-1122.268,232.007c47.365,0,85.898,38.534,85.898,85.899c0,47.365-38.534,85.898-85.898,85.898
				c-47.365,0-85.899-38.534-85.899-85.898C-1208.167,270.542-1169.633,232.007-1122.268,232.007 M-1122.268,231.781
				c-47.566,0-86.126,38.559-86.126,86.126c0,47.565,38.56,86.125,86.126,86.125s86.125-38.56,86.125-86.125
				C-1036.143,270.339-1074.702,231.781-1122.268,231.781L-1122.268,231.781z"/>
		</g>
	</g>
	<g id="Weißer_Kreis_x5F_Violin_1_" display="inline">
		<g>
			<path fill="#4D4D4F" d="M-1122.268,234.583c45.944,0,83.322,37.378,83.322,83.323c0,45.944-37.378,83.322-83.322,83.322
				c-45.945,0-83.323-37.378-83.323-83.322C-1205.591,271.961-1168.212,234.583-1122.268,234.583 M-1122.268,234.363
				c-46.139,0-83.543,37.402-83.543,83.543c0,46.139,37.404,83.542,83.543,83.542s83.542-37.403,83.542-83.542
				C-1038.726,271.765-1076.128,234.363-1122.268,234.363L-1122.268,234.363z"/>
		</g>
	</g>
	<g id="Weißer_Kreis_x5F_Violin_6_" display="inline">
		<g>
			<path fill="#4D4D4F" d="M-1122.268,676.192c47.365,0,85.898,38.534,85.898,85.899c0,47.364-38.534,85.898-85.898,85.898
				c-47.365,0-85.899-38.534-85.899-85.898C-1208.167,714.727-1169.633,676.192-1122.268,676.192 M-1122.268,675.966
				c-47.566,0-86.126,38.559-86.126,86.126c0,47.565,38.56,86.125,86.126,86.125s86.125-38.56,86.125-86.125
				C-1036.143,714.524-1074.702,675.966-1122.268,675.966L-1122.268,675.966z"/>
		</g>
	</g>
	<g id="Weißer_Kreis_x5F_Violin_5_" display="inline">
		<g>
			<path fill="#4D4D4F" d="M-1122.268,678.768c45.944,0,83.322,37.379,83.322,83.323s-37.378,83.322-83.322,83.322
				c-45.945,0-83.323-37.378-83.323-83.322S-1168.212,678.768-1122.268,678.768 M-1122.268,678.548
				c-46.139,0-83.543,37.402-83.543,83.543c0,46.139,37.404,83.542,83.543,83.542s83.542-37.403,83.542-83.542
				C-1038.726,715.95-1076.128,678.548-1122.268,678.548L-1122.268,678.548z"/>
		</g>
	</g>
	<g id="Weißer_Kreis_x5F_Violin_8_" display="inline">
		<g>
			<path fill="#4D4D4F" d="M-1122.268,898.285c47.365,0,85.898,38.534,85.898,85.899c0,47.364-38.534,85.898-85.898,85.898
				c-47.365,0-85.899-38.534-85.899-85.898C-1208.167,936.819-1169.633,898.285-1122.268,898.285 M-1122.268,898.059
				c-47.566,0-86.126,38.559-86.126,86.126c0,47.565,38.56,86.125,86.126,86.125s86.125-38.56,86.125-86.125
				C-1036.143,936.617-1074.702,898.059-1122.268,898.059L-1122.268,898.059z"/>
		</g>
	</g>
	<g id="Weißer_Kreis_x5F_Violin_7_" display="inline">
		<g>
			<path fill="#4D4D4F" d="M-1122.268,900.86c45.944,0,83.322,37.379,83.322,83.323s-37.378,83.322-83.322,83.322
				c-45.945,0-83.323-37.378-83.323-83.322S-1168.212,900.86-1122.268,900.86 M-1122.268,900.641
				c-46.139,0-83.543,37.402-83.543,83.543c0,46.139,37.404,83.542,83.543,83.542s83.542-37.403,83.542-83.542
				C-1038.726,938.043-1076.128,900.641-1122.268,900.641L-1122.268,900.641z"/>
		</g>
	</g>
	<g id="Weißer_Kreis_x5F_Violin_4_" display="inline">
		<g>
			<path fill="#4D4D4F" d="M-1122.268,454.101c47.365,0,85.898,38.534,85.898,85.899c0,47.364-38.534,85.898-85.898,85.898
				c-47.365,0-85.899-38.534-85.899-85.898C-1208.167,492.635-1169.633,454.101-1122.268,454.101 M-1122.268,453.874
				c-47.566,0-86.126,38.559-86.126,86.126c0,47.565,38.56,86.125,86.126,86.125s86.125-38.56,86.125-86.125
				C-1036.143,492.433-1074.702,453.874-1122.268,453.874L-1122.268,453.874z"/>
		</g>
	</g>
	<g id="Weißer_Kreis_x5F_Violin_3_" display="inline">
		<g>
			<path fill="#4D4D4F" d="M-1122.267,456.676c45.944,0,83.322,37.378,83.322,83.323c0,45.944-37.378,83.323-83.322,83.323
				c-45.945,0-83.323-37.379-83.323-83.323C-1205.59,494.055-1168.212,456.676-1122.267,456.676 M-1122.267,456.457
				c-46.139,0-83.543,37.402-83.543,83.543c0,46.139,37.404,83.542,83.543,83.542s83.542-37.403,83.542-83.542
				C-1038.725,493.859-1076.128,456.457-1122.267,456.457L-1122.267,456.457z"/>
		</g>
	</g>
</g>
</svg>
