<?xml version="1.0" encoding="utf-8"?>
<!-- Generator: Adobe Illustrator 15.0.0, SVG Export Plug-In . SVG Version: 6.00 Build 0)  -->
<!DOCTYPE svg PUBLIC "-//W3C//DTD SVG 1.1//EN" "http://www.w3.org/Graphics/SVG/1.1/DTD/svg11.dtd">
<svg version="1.1" id="Ebene_1" xmlns="http://www.w3.org/2000/svg" xmlns:xlink="http://www.w3.org/1999/xlink" x="0px" y="0px"
	 width="190px" height="190px" viewBox="0 0 190 190" enable-background="new 0 0 190 190" xml:space="preserve">
<g id="Orientierungskreise" display="none">
	<g id="Weißer_Kreis_x5F_Violin_9_" display="inline">
		<g>
			<path fill="#4D4D4F" d="M-1122.268,9.917c47.365,0,85.898,38.534,85.898,85.899s-38.534,85.897-85.898,85.897
				c-47.365,0-85.899-38.534-85.899-85.897C-1208.167,48.451-1169.633,9.917-1122.268,9.917 M-1122.268,9.69
				c-47.566,0-86.126,38.559-86.126,86.126c0,47.564,38.56,86.125,86.126,86.125s86.125-38.561,86.125-86.125
				C-1036.143,48.249-1074.702,9.69-1122.268,9.69L-1122.268,9.69z"/>
		</g>
	</g>
	<g id="Weißer_Kreis_x5F_Violin_10_" display="inline">
		<g>
			<path fill="#4D4D4F" d="M-1122.268,12.492c45.944,0,83.322,37.378,83.322,83.322s-37.378,83.322-83.322,83.322
				c-45.945,0-83.323-37.378-83.323-83.322C-1205.591,49.871-1168.212,12.492-1122.268,12.492 M-1122.268,12.272
				c-46.139,0-83.543,37.402-83.543,83.542c0,46.14,37.404,83.543,83.543,83.543c46.139,0,83.542-37.403,83.542-83.543
				S-1076.128,12.272-1122.268,12.272L-1122.268,12.272z"/>
		</g>
	</g>
	<g id="Weißer_Kreis_x5F_Violin_2_" display="inline">
		<g>
			<path fill="#4D4D4F" d="M-1122.268,232.007c47.365,0,85.898,38.534,85.898,85.899s-38.534,85.898-85.898,85.898
				c-47.365,0-85.899-38.535-85.899-85.898C-1208.167,270.542-1169.633,232.007-1122.268,232.007 M-1122.268,231.781
				c-47.566,0-86.126,38.559-86.126,86.125s38.56,86.125,86.126,86.125s86.125-38.559,86.125-86.125
				C-1036.143,270.339-1074.702,231.781-1122.268,231.781L-1122.268,231.781z"/>
		</g>
	</g>
	<g id="Weißer_Kreis_x5F_Violin_1_" display="inline">
		<g>
			<path fill="#4D4D4F" d="M-1122.268,234.583c45.944,0,83.322,37.378,83.322,83.323c0,45.943-37.378,83.322-83.322,83.322
				c-45.945,0-83.323-37.379-83.323-83.322C-1205.591,271.961-1168.212,234.583-1122.268,234.583 M-1122.268,234.363
				c-46.139,0-83.543,37.402-83.543,83.543c0,46.139,37.404,83.541,83.543,83.541c46.139,0,83.542-37.402,83.542-83.541
				C-1038.726,271.766-1076.128,234.363-1122.268,234.363L-1122.268,234.363z"/>
		</g>
	</g>
	<g id="Weißer_Kreis_x5F_Violin_6_" display="inline">
		<g>
			<path fill="#4D4D4F" d="M-1122.268,676.191c47.365,0,85.898,38.535,85.898,85.9c0,47.363-38.534,85.896-85.898,85.896
				c-47.365,0-85.899-38.533-85.899-85.896C-1208.167,714.727-1169.633,676.191-1122.268,676.191 M-1122.268,675.967
				c-47.566,0-86.126,38.559-86.126,86.125c0,47.564,38.56,86.125,86.126,86.125s86.125-38.561,86.125-86.125
				C-1036.143,714.523-1074.702,675.967-1122.268,675.967L-1122.268,675.967z"/>
		</g>
	</g>
	<g id="Weißer_Kreis_x5F_Violin_5_" display="inline">
		<g>
			<path fill="#4D4D4F" d="M-1122.268,678.768c45.944,0,83.322,37.379,83.322,83.324c0,45.943-37.378,83.32-83.322,83.32
				c-45.945,0-83.323-37.377-83.323-83.32C-1205.591,716.146-1168.212,678.768-1122.268,678.768 M-1122.268,678.549
				c-46.139,0-83.543,37.4-83.543,83.543c0,46.139,37.404,83.541,83.543,83.541c46.139,0,83.542-37.402,83.542-83.541
				C-1038.726,715.949-1076.128,678.549-1122.268,678.549L-1122.268,678.549z"/>
		</g>
	</g>
	<g id="Weißer_Kreis_x5F_Violin_8_" display="inline">
		<g>
			<path fill="#4D4D4F" d="M-1122.268,898.285c47.365,0,85.898,38.533,85.898,85.898s-38.534,85.898-85.898,85.898
				c-47.365,0-85.899-38.533-85.899-85.898S-1169.633,898.285-1122.268,898.285 M-1122.268,898.059
				c-47.566,0-86.126,38.559-86.126,86.127c0,47.564,38.56,86.125,86.126,86.125s86.125-38.561,86.125-86.125
				C-1036.143,936.617-1074.702,898.059-1122.268,898.059L-1122.268,898.059z"/>
		</g>
	</g>
	<g id="Weißer_Kreis_x5F_Violin_7_" display="inline">
		<g>
			<path fill="#4D4D4F" d="M-1122.268,900.859c45.944,0,83.322,37.379,83.322,83.324c0,45.943-37.378,83.322-83.322,83.322
				c-45.945,0-83.323-37.379-83.323-83.322C-1205.591,938.238-1168.212,900.859-1122.268,900.859 M-1122.268,900.641
				c-46.139,0-83.543,37.402-83.543,83.543c0,46.139,37.404,83.543,83.543,83.543c46.139,0,83.542-37.404,83.542-83.543
				C-1038.726,938.043-1076.128,900.641-1122.268,900.641L-1122.268,900.641z"/>
		</g>
	</g>
	<g id="Weißer_Kreis_x5F_Violin_4_" display="inline">
		<g>
			<path fill="#4D4D4F" d="M-1122.268,454.102c47.365,0,85.898,38.533,85.898,85.898c0,47.363-38.534,85.898-85.898,85.898
				c-47.365,0-85.899-38.535-85.899-85.898C-1208.167,492.635-1169.633,454.102-1122.268,454.102 M-1122.268,453.873
				c-47.566,0-86.126,38.561-86.126,86.127c0,47.564,38.56,86.125,86.126,86.125s86.125-38.561,86.125-86.125
				C-1036.143,492.434-1074.702,453.873-1122.268,453.873L-1122.268,453.873z"/>
		</g>
	</g>
	<g id="Weißer_Kreis_x5F_Violin_3_" display="inline">
		<g>
			<path fill="#4D4D4F" d="M-1122.267,456.676c45.944,0,83.322,37.379,83.322,83.324c0,45.943-37.378,83.322-83.322,83.322
				c-45.945,0-83.323-37.379-83.323-83.322C-1205.59,494.055-1168.212,456.676-1122.267,456.676 M-1122.267,456.457
				c-46.139,0-83.543,37.402-83.543,83.543c0,46.139,37.404,83.543,83.543,83.543c46.139,0,83.542-37.404,83.542-83.543
				C-1038.725,493.859-1076.128,456.457-1122.267,456.457L-1122.267,456.457z"/>
		</g>
	</g>
</g>
<path d="M155.896,71.092l-0.811-0.526c-0.046-0.03-0.099-0.043-0.153-0.043V58.364l-0.09-0.077v-2.569l0.09-0.088l-6.275-3.147
	l-10.276,2.05v-0.463l10.278-2.029l0.213-10.976l-0.789-0.538l-0.008-0.002c0,0-0.087-0.027-0.252-0.078
	c-1.237-0.385-6.857-2.146-12.994-4.321c-6.138-2.172-12.794-4.759-16.097-6.786c-3.532-2.167-6.024-3.518-8.216-5.331
	c-2.189-1.813-4.078-4.09-6.408-8.119l-0.005-0.008l-0.679-0.572l-0.021,0.001l-6.332,0.439l-0.637-0.614l-7.092,0.511l-0.207,0.653
	l-19.787,1.371l-0.563-0.545l-4.509,0.329l-17.15,53.522l0.929,0.929l33.44-6.606v0.582l-6.773,1.352l0,0l-2.727,0.544h0.001
	l-13.529,2.7h-0.001l-1.764,0.352v0.001l-8.467,1.689h-0.014v19.422c-0.01,0.004-0.021,0.007-0.03,0.012l-0.967,0.518
	c-0.093,0.049-0.149,0.144-0.149,0.248v1.347c0,0.11,0.063,0.208,0.16,0.255l0.615,0.292c0.26,0.427,0.371,0.887,0.371,0.887v2.83
	v0.191c-0.033,0-0.063,0.004-0.093,0.009c-0.011,0.001-0.022,0.003-0.033,0.005c-0.017,0.005-0.033,0.009-0.05,0.014
	c-0.033,0.012-0.065,0.023-0.096,0.04c-0.001,0.001-0.002,0.001-0.004,0.001c-0.379,0.199-0.518,0.76-0.518,0.76l1.383,0.68
	l-1.341,0.395v0.324l-0.769,0.225v0.415l1.535,0.808v0.242l0.746,0.391l1.758,43.836l-1.229,0.641v0.168l-0.537,0.28v0.22
	l0.957,0.469v0.351l0.913,0.448l0.055,1.381l1.063,0.895l1.749-0.709l0.052-1.765l0.622-0.225v-0.409l1.002-0.361v-0.219
	l-0.537-0.297v-0.163l-1.023-0.565l1.256-43.69l29.145,14.321l-1.049,0.548v0.313l-1.014,0.529v0.414l1.803,0.885v0.663l0.693,0.341
	l1.227,51.058l-1.414,0.738v0.202l-0.652,0.343v0.268l1.162,0.569v0.428l0.977,0.479l0.046,1.882l1.481,1.048l1.968-1.035
	l0.081-2.032l0.865-0.311v-0.499l1.219-0.438v-0.27l-0.654-0.359V173l-1.316-0.727l2.045-51.197l0.673-0.243v-0.771l1.889-0.679
	v-0.415l-1.014-0.559v-0.308l-1.188-0.657l27.428-9.564l0.045,0.022v0.595l0.341,0.167l1.303,46.041l-1.188,0.621v0.182
	l-0.587,0.307v0.24l1.044,0.512v0.385l0.806,0.394l0.047,1.688l1.387,0.946l1.701-0.858l0.072-1.836l0.855-0.309v-0.445l1.092-0.395
	v-0.24l-0.586-0.324v-0.178l-1.262-0.697l1.804-45.901l0.718-0.257v-0.693l1.694-0.609v-0.373l-0.909-0.502v-0.277l-1.25-0.689
	l1.283-0.448c0,0-0.621-3.659,3.247-8.702c3.493-4.069,11.547-10.119,17.499-14.351l1.213,29.469l-0.486,0.019v0.203l-0.449,0.018
	v0.295l1.006,1.157l0.057,1.366l0.5,0.404l1.404-0.014l0.035-1.532l0.678-0.071v-0.184l0.502-0.056v-0.294l-0.381-0.363v-0.092
	l-0.76-0.725l0.733-32.437c1.878-1.293,3.072-2.084,3.072-2.084c-0.338-0.769-0.763-0.566-0.821-0.532h-0.001
	c-0.005,0.002-0.007,0.003-0.007,0.003v-0.208v-2.04c0-0.233,0.078-0.459,0.186-0.657c0.201-0.135,0.367-0.248,0.49-0.331
	c0.193-0.128,0.291-0.193,0.291-0.193c0.078-0.053,0.125-0.142,0.125-0.236V71.33C156.023,71.233,155.977,71.144,155.896,71.092z
	 M135.945,54.552v0.468l-28.158,5.62l-0.083-0.151l-0.087-0.165l-0.092-0.159L135.945,54.552z M83.93,64.823l22.238-4.391
	l0.252,0.479l-22.49,4.488V64.823z"/>
<g>
	<polygon fill="#FFFFFF" points="92.029,18.335 66.708,20.253 50.859,70.199 75.441,65.383 	"/>
	<polygon fill="#FFFFFF" points="87.473,107.929 49.981,91.271 48.583,91.53 87.473,109.1 	"/>
	<path fill="#FFFFFF" d="M154.954,76.402c0.017-0.091-0.022-0.173-0.026-0.17c-0.057,0.037-0.105,0.074-0.109,0.077
		c-0.336,0.211-4.795,3.03-9.947,6.718c-2.678,1.918-5.544,4.07-8.116,6.213c-2.572,2.145-4.851,4.276-6.358,6.167
		c-3.043,3.714-3.426,6.677-3.424,7.915c0,0.211,0.01,0.371,0.021,0.477l-39.508,13.65L48.344,98.389l-0.123-0.057
		c0,0-0.021,0.054-0.029,0.174c-0.038-0.012-0.172,0.018-0.232,0.08l0.216,0.111l39.287,19.131l39.776-13.74l0.004-0.002
		l0.145-0.049l-0.027-0.148c0-0.006-0.036-0.203-0.036-0.566c0.001-1.166,0.354-4.037,3.345-7.691l0.001-0.002h0.001
		c1.48-1.858,3.748-3.983,6.311-6.118c3.844-3.203,8.355-6.434,11.906-8.861c1.775-1.215,3.312-2.229,4.401-2.938
		c0.546-0.355,0.979-0.635,1.278-0.825c0.148-0.096,0.264-0.169,0.342-0.217c0.051-0.033,0.322-0.209,0.381-0.247
		C155.147,76.341,154.992,76.374,154.954,76.402z"/>
	<path fill="#FFFFFF" d="M154.932,70.803v0.679c0,0-6.908,4.504-17.336,11.707c-11.379,7.892-10.408,14.308-10.408,14.308
		l-39.714,12.683L48.322,92.203l-0.967,0.519v1.347l39.924,18.921v-0.001l40.543-13.463c0.094-0.228-1.071-7.063,11.207-15.351
		c10.427-7.203,16.713-11.396,16.713-11.396V71.33L154.932,70.803z"/>
</g>
<path fill="#FFFFFF" d="M152.51,56.896l-3.834-2.047l-39.426,8.477l0.176,0.323l39.199-8.428l3.508,1.872
	c-2.964,1.559-8.113,4.292-14.634,7.858l-0.114,0.063c-12.563,6.802-10.197,11.416-10.197,11.416l-9.482,2.436l-1.049,0.269
	l-10.465-19.803L91.139,30.851c-0.082,0.031-0.174,0.049-0.272,0.049c-0.349,0-0.631-0.22-0.631-0.491
	c0-0.272,0.282-0.492,0.631-0.492s0.63,0.22,0.63,0.492c0,0.069-0.019,0.135-0.051,0.194l15.547,28.574l40.58-7.968l0.168-8.744
	c-20.314-5.811-30.451-11.457-30.451-11.457c-7.063-4.333-9.98-5.405-14.643-13.467l-0.006-0.011l-9.365,0.71L76.742,65.114
	l28.9-5.672l2.191,4.188l-26.498,5.697l-6.66-2.104l-0.072-0.005l-2.637,0.527l-0.011,0.021l39.715,12.648l-1.235,0.318
	L72.004,68.529v1.346l2.714,0.875l-9.528,2.048l-6.746-2.334l-0.033-0.009l-1.677,0.334l-0.032,0.022v15.763l-5.477,1.243v1.105
	l36.248,15.813v-7.284L59.443,85.952l-2.152,0.487V71.035l38.736,13.399l-8.555,2.196l-0.004,4.143l40.08-11.094
	c0,0-2.189-3.906,10.1-11.667c7.887-4.809,17.287-9.643,17.287-9.643v-2.737C154.936,55.631,153.772,56.232,152.51,56.896z
	 M97.688,84.008L65.832,73.022l9.558-2.056l32.444,10.435L97.688,84.008z M114.286,79.744L82.016,69.542l25.997-5.59l8.033,15.34
	L114.286,79.744z"/>
</svg>
