<?xml version="1.0" encoding="utf-8"?>
<!-- Generator: Adobe Illustrator 15.0.0, SVG Export Plug-In . SVG Version: 6.00 Build 0)  -->
<!DOCTYPE svg PUBLIC "-//W3C//DTD SVG 1.1//EN" "http://www.w3.org/Graphics/SVG/1.1/DTD/svg11.dtd">
<svg version="1.1" id="Ebene_1" xmlns="http://www.w3.org/2000/svg" xmlns:xlink="http://www.w3.org/1999/xlink" x="0px" y="0px"
	 width="190px" height="190px" viewBox="0 0 190 190" enable-background="new 0 0 190 190" xml:space="preserve">
<g id="Kreise">
	<path fill="#FFFFFF" d="M56.112,58.132c0.084-0.056,0.165-0.121,0.24-0.194c0.604-0.612,0.554-2.374-0.063-2.982l-1.603-1.584
		c-0.613-0.609-1.605-0.605-2.211,0.007c-0.18,0.182-0.3,0.465-0.367,0.788L56.112,58.132z"/>
	<path d="M140.117,47.759c-4.5-0.095-12.906,7.935-16.674,10.675c-3.771,2.741-6.469-3.049-7.435-5.032
		C115.044,51.419,110.432,40,110.432,40C99.533,12.815,82.236,15.866,81.029,15.767c-0.537-0.043-0.857-0.13-1.057-0.216
		l-0.016-0.17c-0.012-0.126-0.031-0.315-3.375-0.097h-0.027c-0.943,0.063-2.029,0.151-3.141,0.256l-0.164,0.016l-0.076,0.007
		l-0.076,0.007l-0.029,0.003l-0.027,0.003l-0.078,0.007l-0.076,0.009l-0.164,0.016c-1.111,0.111-2.191,0.232-3.131,0.354
		l-0.025,0.004c-3.266,0.427-3.25,0.596-3.236,0.731l0.168,1.731c0.01,0.089,0.084,0.192,0.166,0.233
		c0.131,0.109,0.793,0.888,0.809,1.067l0.156,1.594c0.008,0.07,0.059,0.117,0.154,0.141c0.025,0.006,0.094,0.027,0.111,0.035
		c0.137,0.088,0.395,0.323,0.527,0.893c0.174,0.74,2.67,16.45,3.434,21.247c0.059,0.473,0.016,0.548-0.146,0.832l-0.039,0.067
		c-0.234,0.416-0.076,1.606,0.338,1.91c0.258,0.174,0.887,1.077,1.254,5.72c0.289,3.659,2.652,27.287,7.025,70.224
		c0.129,1.271,0.229,2.232,0.289,2.828c0.111,1.168-0.291,2.07-0.541,2.492c-0.311,0.145-0.424,0.307-0.402,0.523l0.082,0.844
		l0.035,0.371c0.021,0.205,0.137,0.354,0.537,0.443c0.252,0.226,0.545,0.539,0.559,0.838c0.016,0.379,0.857,17.645,1.293,26.565
		c-0.916,0.396-1.451,0.845-1.408,1.274c0.01,0.121,0.246,2.152,0.334,2.923c-1.982,0.21-4.707,0.618-6.025,1.358
		c-2.207,1.236-0.908,3.121-0.223,3.539c0,0,0.143,0.48-0.002,0.528l-0.023,5.599l-0.002,0.43l0.023,0.183
		c0,0-0.178,0.104-0.385,0.129c-0.014,0.003-0.021,0.011-0.031,0.019c-0.51,0.309-1.197,1.023,0.014,2.35
		c3.266,3.254,13.287,1.27,16.609,0.725c0.561-0.09,0.791-0.133,1.043-0.119c0.518,0.017,0.898,0.48,0.857,1.223l-0.039,1.688
		c0,0-0.002,0.045,0.043,0.047c0.041,0.002,4.218,0.008,4.697,0.008c0.041,0.003,0.078-0.024,0.078-0.024l2.473-2.021
		c0,0,0.019-0.021,0.019-0.055c-0.002-0.033-0.041-0.221-0.041-0.221c0.895-0.035,1.822-0.096,2.772-0.189
		c3.263-0.317,6.063-0.924,8.072-1.648c2.065-0.412,5.01-0.855,6.412-0.391c1.715,0.568,2.514,0.643,2.797,0.06
		c0.297-0.61,0.168-1.077-0.358-1.368c-0.507-0.277-2.593-1.355-5.195-1.83c-0.09,0.034-0.254,0.002-0.363-0.019
		c0-0.08,0.029-0.14,0.037-0.298c-0.01-2.088-0.068-6.934-0.068-6.934c-0.178-0.344-0.043-0.65-0.031-0.695
		c-0.002-0.02-0.002-0.037-0.004-0.055c-0.031-0.307-0.238-0.586-0.596-0.834c13.342-31.666,33.439-101.857,33.518-102.238
		c0.035-0.193,0.021-0.316-0.004-0.395c0.012-0.013,0.021-0.027,0.029-0.043c0.008-0.017,0.09-0.328,0.115-0.42
		C149.863,50.587,144.57,47.854,140.117,47.759z M139.404,57.354c0.072,0.201,0.119,0.441,0.143,0.695
		c0.047,0.464,0.02,0.969-0.021,1.354c-0.004,0.033-0.006,0.063-0.01,0.095l-0.66-1.175c0.229-0.327,0.398-0.684,0.508-1.069
		C139.377,57.288,139.393,57.319,139.404,57.354z M139.484,60.246c0.006,0.008,0.014,0.011,0.021,0.017
		c0.002,0.052-0.004,0.114-0.03,0.183c-0.002,0.008-0.121,0.226-0.343,0.629l-0.896-1.956c0.224-0.274,0.382-0.475,0.466-0.584
		l0.762,1.354c-0.008,0.05-0.017,0.092-0.021,0.12l-0.006,0.034l-0.002,0.011C139.424,60.123,139.439,60.191,139.484,60.246z
		 M125.547,70.066c0.25-0.114,0.502-0.238,0.75-0.367l0.871,13.176c-0.229,0.417-0.461,0.838-0.691,1.261L125.547,70.066z
		 M126.264,84.521c-0.248,0.452-0.498,0.906-0.75,1.364L124.5,70.496c0.271-0.099,0.543-0.207,0.816-0.328L126.264,84.521z
		 M126.527,69.58c0.275-0.148,0.549-0.304,0.824-0.467l0.801,11.969c-0.256,0.464-0.514,0.934-0.773,1.408L126.527,69.58z
		 M127.578,68.977c0.23-0.141,0.459-0.286,0.686-0.436L129,79.539c-0.209,0.383-0.422,0.77-0.637,1.158L127.578,68.977z
		 M128.49,68.39c0.281-0.19,0.563-0.386,0.84-0.588l0.664,9.925c-0.256,0.469-0.518,0.945-0.783,1.428L128.49,68.39z
		 M129.555,67.634c0.236-0.174,0.469-0.354,0.701-0.532l0.625,9.011c-0.221,0.405-0.447,0.814-0.676,1.229L129.555,67.634z
		 M130.48,66.923c0.244-0.194,0.483-0.391,0.723-0.591l0.566,8.163c-0.222,0.405-0.449,0.816-0.679,1.234L130.48,66.923z
		 M131.426,66.143c0.24-0.203,0.477-0.408,0.709-0.615l0.535,7.33c-0.227,0.41-0.455,0.828-0.689,1.256L131.426,66.143z
		 M132.357,65.328c0.229-0.206,0.451-0.413,0.672-0.618l0.529,6.529c-0.224,0.403-0.449,0.815-0.681,1.236L132.357,65.328z
		 M133.248,64.503c0.256-0.241,0.502-0.481,0.744-0.72l0.73,5.332c-0.308,0.562-0.627,1.144-0.959,1.748L133.248,64.503z
		 M134.201,63.576c0.221-0.219,0.434-0.438,0.643-0.65l0.797,4.52c-0.233,0.426-0.477,0.865-0.727,1.323L134.201,63.576z
		 M135.045,62.717c0.191-0.197,0.375-0.393,0.553-0.582l0.795,3.938c-0.184,0.335-0.373,0.684-0.572,1.043L135.045,62.717z
		 M135.795,61.922c0.23-0.249,0.451-0.49,0.658-0.723l0.785,3.332c-0.211,0.383-0.434,0.791-0.67,1.221L135.795,61.922z
		 M136.645,60.984c0.25-0.278,0.479-0.541,0.689-0.786l0.828,2.648c-0.225,0.411-0.475,0.869-0.754,1.376L136.645,60.984z
		 M137.514,59.988c0.211-0.248,0.396-0.471,0.56-0.667l0.92,2.012c-0.179,0.325-0.404,0.737-0.673,1.227L137.514,59.988z
		 M124.268,70.577l1.035,15.692c-0.26,0.474-0.521,0.951-0.785,1.432L123.42,70.83C123.703,70.76,123.984,70.674,124.268,70.577z
		 M124.305,88.086c-0.248,0.451-0.496,0.904-0.748,1.361l-1.193-18.408c0.273-0.037,0.548-0.089,0.824-0.152L124.305,88.086z
		 M121.783,71.098c0.088-0.006,0.18-0.013,0.27-0.021c0.023-0.002,0.049-0.006,0.074-0.009l1.219,18.765
		c-0.275,0.502-0.553,1.007-0.832,1.515l-1.313-20.22C121.395,71.121,121.588,71.113,121.783,71.098z M120.965,71.133l1.338,20.6
		c-0.271,0.493-0.545,0.988-0.818,1.488l-1.436-22.108C120.35,71.129,120.654,71.137,120.965,71.133z M119.813,71.094l1.459,22.513
		c-0.274,0.504-0.553,1.009-0.832,1.515l-1.567-24.141C119.18,71.03,119.494,71.068,119.813,71.094z M95.229,41.504
		c0.419,0.39,0.826,0.809,1.216,1.252l6.084,84.965c-0.336,0.612-0.67,1.219-0.997,1.814L95.229,41.504z M101.322,129.917
		c-0.293,0.532-0.582,1.06-0.867,1.579l-6.52-91.052c0.357,0.254,0.703,0.532,1.039,0.83L101.322,129.917z M96.705,43.052
		c0.381,0.451,0.746,0.926,1.1,1.416l5.818,81.262c-0.299,0.541-0.594,1.078-0.885,1.607L96.705,43.052z M98.066,44.84
		c0.488,0.7,0.949,1.429,1.387,2.171l5.164,76.908c-0.264,0.479-0.525,0.957-0.785,1.431L98.066,44.84z M99.719,47.472
		c0.467,0.813,0.902,1.636,1.311,2.449l4.82,71.757c-0.344,0.623-0.684,1.242-1.021,1.855L99.719,47.472z M101.305,50.469
		c0.455,0.927,0.879,1.832,1.273,2.681l4.457,66.368c-0.326,0.598-0.652,1.188-0.975,1.775L101.305,50.469z M102.855,53.75
		c0.414,0.899,0.807,1.747,1.158,2.45c0.004,0.005,0.006,0.01,0.008,0.016l4.117,61.298c-0.3,0.543-0.597,1.084-0.894,1.621
		L102.855,53.75z M104.295,56.761c0.428,0.848,0.941,1.846,1.549,2.918l3.6,55.458c-0.364,0.666-0.729,1.332-1.094,1.992
		L104.295,56.761z M106.109,60.145c0.396,0.683,0.832,1.389,1.303,2.1l3.287,50.608c-0.35,0.635-0.697,1.267-1.043,1.898
		L106.109,60.145z M107.674,62.633c0.307,0.448,0.629,0.896,0.967,1.341l3.055,47.063c-0.262,0.479-0.522,0.953-0.784,1.43
		L107.674,62.633z M108.896,64.309c0.379,0.482,0.776,0.959,1.192,1.42l2.802,43.134c-0.328,0.598-0.656,1.193-0.982,1.789
		L108.896,64.309z M110.344,66.006c0.289,0.309,0.582,0.609,0.889,0.9l2.611,40.221c-0.246,0.451-0.492,0.9-0.74,1.35
		L110.344,66.006z M111.484,67.145c0.348,0.322,0.707,0.631,1.078,0.926l2.403,37.013c-0.303,0.555-0.606,1.105-0.909,1.659
		L111.484,67.145z M112.813,68.266c0.304,0.231,0.613,0.454,0.933,0.664l2.229,34.324c-0.265,0.48-0.529,0.963-0.793,1.443
		L112.813,68.266z M113.99,69.088c0.334,0.211,0.678,0.41,1.029,0.594l2.051,31.574c-0.295,0.537-0.59,1.074-0.887,1.612
		L113.99,69.088z M115.266,69.808c0.338,0.17,0.687,0.325,1.041,0.468l1.881,28.945c-0.301,0.551-0.604,1.102-0.905,1.65
		L115.266,69.808z M116.551,70.368c0.299,0.11,0.604,0.212,0.914,0.301l1.734,26.711c-0.266,0.483-0.531,0.97-0.801,1.456
		L116.551,70.368z M117.705,70.734c0.305,0.08,0.613,0.15,0.928,0.206l1.596,24.566c-0.271,0.495-0.545,0.991-0.815,1.487
		L117.705,70.734z M85.512,38.946c0.355-0.102,0.734-0.185,1.135-0.242l7.979,103.399c-0.207,0.377-0.408,0.744-0.607,1.103
		L85.512,38.946z M93.813,143.582c-0.365,0.666-0.713,1.296-1.037,1.887L84.126,39.48c0.355-0.176,0.74-0.334,1.154-0.465
		L93.813,143.582z M86.881,38.675c0.064-0.007,0.125-0.016,0.188-0.022c0.336-0.033,0.682-0.047,1.033-0.046l7.699,101.358
		c-0.332,0.607-0.656,1.194-0.967,1.762L86.881,38.675z M88.338,38.611c0.322,0.009,0.65,0.03,0.984,0.067l7.459,99.501
		c-0.264,0.479-0.521,0.946-0.773,1.405L88.338,38.611z M89.561,38.709c0.203,0.026,0.408,0.056,0.611,0.092
		c0.143,0.026,0.285,0.059,0.424,0.092l7.191,97.455c-0.27,0.494-0.537,0.979-0.799,1.453L89.561,38.709z M90.838,38.951
		c0.441,0.116,0.869,0.271,1.287,0.456l6.793,94.884c-0.311,0.568-0.619,1.129-0.92,1.678L90.838,38.951z M90.578,149.467
		c-1.281-8.752-2.797-19.098-2.846-19.388c-0.049-0.298,0.182-0.673,0.389-0.95c0.334-0.148,0.455-0.313,0.434-0.538l-0.053-0.526
		l-0.066-0.688c-0.018-0.191-0.121-0.336-0.463-0.428c-0.34-0.377-0.93-1.186-1.043-2.35c-0.055-0.598-0.143-1.558-0.262-2.82
		c-3.998-42.975-6.24-66.614-6.664-70.261c-0.537-4.626-0.094-5.633,0.123-5.852c0.189-0.201,0.244-0.743,0.182-1.219
		c0.1-0.181,0.152-0.398,0.129-0.653c-0.045-0.456,0.92-2.823,3.461-4.198l8.67,106.25C91.75,147.334,91.078,148.559,90.578,149.467
		z M99.129,133.91l-6.758-94.395c0.453,0.217,0.891,0.473,1.316,0.759l6.557,91.601C99.865,132.566,99.494,133.244,99.129,133.91z"
		/>
	<g>
		<path fill="#FFFFFF" d="M80.027,128.443c-0.018-0.004-0.031-0.01-0.047-0.016l0.098,0.989c0.008,0.006,0.021,0.015,0.047,0.022
			c0.061,0.025,0.162,0.051,0.295,0.068c0.264,0.039,0.652,0.059,1.125,0.059c0.727,0,1.646-0.047,2.648-0.145
			c0.926-0.09,1.777-0.209,2.463-0.338c0.684-0.127,1.205-0.268,1.447-0.383c0.068-0.032,0.111-0.064,0.125-0.079l-0.096-0.99
			c-0.055,0.03-0.115,0.058-0.188,0.086c-0.219,0.085-0.525,0.169-0.904,0.251c-0.756,0.164-1.795,0.322-2.947,0.436
			c-1.008,0.099-1.936,0.146-2.67,0.146C80.793,128.551,80.309,128.518,80.027,128.443z"/>
		<path fill="#FFFFFF" d="M122.129,59.748c0.369-0.035,1.07-0.152,1.641-0.527c0.82-0.604,1.941-1.56,3.242-2.667
			c4.068-3.466,9.641-8.214,13.328-8.573c0.174-0.017,0.342-0.024,0.502-0.021c0.035,0.001,0.088,0.001,0.143,0.002
			c-0.237-0.035-0.526-0.062-0.827-0.058c-0.095,0.003-0.38,0.027-0.38,0.027c-3.651,0.396-8.836,4.797-12.625,8.016
			c-1.377,1.172-2.569,2.184-3.521,2.877c-0.659,0.48-1.301,0.756-2.014,0.867c0,0-0.261,0.032-0.312,0.044
			C121.436,59.763,121.721,59.787,122.129,59.748z"/>
		<path fill="#FFFFFF" d="M139.967,56.684c0.057,0.073,0.107,0.149,0.15,0.231c0.164,0.311,0.24,0.679,0.277,1.054
			c0.055,0.559,0.014,1.138-0.033,1.553l2.512,0.032c-0.25-1.214-0.766-1.88-1.232-2.311c-0.465-0.427-0.897-0.571-1.01-0.603
			L139.967,56.684z"/>
		<path fill="#FFFFFF" d="M73.252,17.157c2.494-0.243,4.781-0.394,5.969-0.394c0.141,0,0.273,0,0.395,0.004l-0.107-1.105
			c-0.096-0.006-0.242-0.012-0.465-0.012c-1.166,0-3.426,0.15-5.9,0.39c-3.523,0.343-5.691,0.687-6.318,0.856l0.109,1.107
			c0.336-0.084,0.838-0.169,1.576-0.281C69.775,17.532,71.457,17.332,73.252,17.157z"/>
		<path fill="#FFFFFF" d="M78.762,19.738c0.104,0,0.203,0,0.295,0.003l-0.086-0.878c-0.082-0.004-0.199-0.008-0.365-0.008
			c-1.018,0-2.994,0.131-5.156,0.341c-3.012,0.295-4.893,0.588-5.48,0.738l0.086,0.878c0.301-0.071,0.73-0.143,1.334-0.233
			c1.105-0.166,2.578-0.341,4.148-0.494C75.721,19.871,77.721,19.738,78.762,19.738z"/>
		<path fill="#FFFFFF" d="M80.01,45.091c0.029-0.158,0.061-0.483-0.061-0.84c-0.658,0.165-1.777,0.31-4.006,0.528
			c-1.689,0.164-3.123,0.262-3.84,0.262c-0.074,0-0.137-0.001-0.188-0.003c-0.037,0.347,0.049,0.669,0.104,0.832
			c0.035,0.001,0.08,0.002,0.141,0.002c0.645,0,2.162-0.107,3.865-0.273C78.281,45.379,79.65,45.179,80.01,45.091z"/>
		<path fill="#FFFFFF" d="M92.957,158.576c-1.188,0.813-3.504,1.363-5.732,1.58c-0.734,0.072-1.459,0.109-2.154,0.109
			c-0.91,0-2.615-0.068-3.73-0.527c0.016,0.146,0.033,0.291,0.049,0.436c0.107,0.93,0.172,1.498,0.178,1.563
			c0.018,0.176,0.988,0.797,3.873,0.797c0.662,0,1.357-0.035,2.063-0.104c1.635-0.16,3.152-0.482,4.268-0.91
			c1.195-0.457,1.426-0.845,1.42-0.914c-0.008-0.071-0.105-0.912-0.188-1.652C92.984,158.82,92.971,158.693,92.957,158.576z"/>
		<path fill="#FFFFFF" d="M85.459,164.363c0.736,0,1.504-0.037,2.281-0.113c4.018-0.393,6.627-1.564,6.545-2.416
			c-0.006-0.066-0.027-0.215-0.049-0.371c-0.727,1.016-3.676,1.852-6.59,2.137c-0.787,0.076-1.563,0.115-2.305,0.115
			c-2.229,0-3.875-0.344-4.531-0.908c0.021,0.146,0.039,0.274,0.043,0.336C80.924,163.861,82.818,164.363,85.459,164.363z"/>
		<path fill="#FFFFFF" d="M133.895,63.063l-0.08-0.58l-0.002-0.005l-0.504-5.369c-0.195,0.191-0.399,0.389-0.608,0.589l0.487,6.048
			C133.43,63.517,133.664,63.289,133.895,63.063z"/>
		<path fill="#FFFFFF" d="M134.922,62.018c0.186-0.191,0.365-0.381,0.537-0.566l-0.086-0.418v-0.012l-0.506-5.385
			c-0.166,0.149-0.344,0.312-0.525,0.483l0.527,5.594L134.922,62.018z"/>
		<path fill="#FFFFFF" d="M132.08,64.77l-0.443-6.067c-0.223,0.207-0.451,0.415-0.686,0.623l0.422,6.06
			C131.611,65.181,131.848,64.977,132.08,64.77z"/>
		<path fill="#FFFFFF" d="M132.969,63.953l-0.49-6.043c-0.201,0.192-0.408,0.388-0.619,0.585l0.443,6.073
			C132.527,64.363,132.75,64.159,132.969,63.953z"/>
		<path fill="#FFFFFF" d="M131.15,65.576l-0.422-6.054c-0.234,0.207-0.476,0.413-0.722,0.617l0.421,6.031
			C130.672,65.974,130.912,65.776,131.15,65.576z"/>
		<path fill="#FFFFFF" d="M118.344,62.863l0.477,7.309c0.31,0.072,0.623,0.129,0.941,0.17l-0.455-7.009
			C118.975,63.202,118.656,63.044,118.344,62.863z"/>
		<path fill="#FFFFFF" d="M122.316,70.33c0.272-0.038,0.549-0.09,0.826-0.155l-0.416-6.393c-0.275,0.028-0.556,0.038-0.834,0.034
			L122.316,70.33z"/>
		<path fill="#FFFFFF" d="M115.926,60.758l0.557,8.561c0.302,0.153,0.609,0.291,0.922,0.414l-0.516-7.96
			C116.561,61.468,116.24,61.13,115.926,60.758z"/>
		<path fill="#FFFFFF" d="M117.139,62l0.508,7.823c0.308,0.112,0.617,0.21,0.933,0.292l-0.479-7.4
			C117.77,62.506,117.451,62.268,117.139,62z"/>
		<path fill="#FFFFFF" d="M119.551,63.418L120,70.371c0.303,0.031,0.607,0.047,0.918,0.049l-0.438-6.748
			C120.16,63.608,119.852,63.521,119.551,63.418z"/>
		<path fill="#FFFFFF" d="M121.611,63.814c-0.307-0.016-0.604-0.053-0.891-0.102l0.436,6.705c0.186-0.004,0.375-0.012,0.563-0.025
			c0.121-0.008,0.242-0.018,0.361-0.033l-0.424-6.545C121.641,63.814,121.627,63.814,121.611,63.814z"/>
		<path fill="#FFFFFF" d="M129.102,60.861l0.404,6.022c0.234-0.175,0.465-0.353,0.697-0.536l-0.418-6.025
			C129.559,60.505,129.332,60.684,129.102,60.861z"/>
		<path fill="#FFFFFF" d="M136.49,60.32c0.234-0.263,0.449-0.512,0.646-0.743l-0.125-0.402l-0.007-0.023l-0.438-4.579
			c-0.119,0.017-0.276,0.053-0.455,0.13c-0.055,0.028-0.114,0.063-0.174,0.099l0.494,5.283L136.49,60.32z"/>
		<path fill="#FFFFFF" d="M134.102,62.854c0.213-0.211,0.418-0.42,0.619-0.625l-0.086-0.479l-0.002-0.01l-0.51-5.415
			c-0.189,0.181-0.391,0.374-0.594,0.571l0.52,5.557L134.102,62.854z"/>
		<path fill="#FFFFFF" d="M137.982,58.56c0.188-0.233,0.332-0.419,0.426-0.546l-0.127-0.229l-0.016-0.049l-0.22-2.839
			c-0.147-0.093-0.313-0.168-0.489-0.224l0.348,3.718L137.982,58.56z"/>
		<path fill="#FFFFFF" d="M137.318,59.364c0.186-0.22,0.352-0.419,0.498-0.599l-0.135-0.293l-0.011-0.039l-0.358-3.824
			c-0.16-0.031-0.33-0.05-0.508-0.05l0.438,4.558L137.318,59.364z"/>
		<path fill="#FFFFFF" d="M138.559,57.794c0.611-1.039,0.435-2.098-0.26-2.71l0.201,2.607L138.559,57.794z"/>
		<path fill="#FFFFFF" d="M127.125,62.206l0.404,6.03c0.229-0.143,0.457-0.289,0.686-0.441l-0.402-6.016
			C127.584,61.928,127.357,62.068,127.125,62.206z"/>
		<path fill="#FFFFFF" d="M126.479,68.846c0.275-0.149,0.549-0.307,0.824-0.471l-0.404-6.037c-0.272,0.154-0.545,0.299-0.821,0.434
			L126.479,68.846z"/>
		<path fill="#FFFFFF" d="M124.451,69.775c0.271-0.101,0.545-0.21,0.818-0.332l-0.408-6.157c-0.271,0.098-0.545,0.185-0.82,0.258
			L124.451,69.775z"/>
		<path fill="#FFFFFF" d="M128.441,67.645c0.281-0.191,0.561-0.391,0.838-0.594l-0.402-6.02c-0.275,0.206-0.555,0.403-0.84,0.595
			L128.441,67.645z"/>
		<path fill="#FFFFFF" d="M123.375,70.116c0.281-0.072,0.563-0.158,0.844-0.257l-0.412-6.26c-0.279,0.066-0.561,0.117-0.846,0.154
			L123.375,70.116z"/>
		<path fill="#FFFFFF" d="M125.094,63.203l0.404,6.135c0.252-0.115,0.502-0.238,0.75-0.369l-0.4-6.088
			C125.598,62.998,125.348,63.106,125.094,63.203z"/>
		<path fill="#FFFFFF" d="M135.658,61.239c0.223-0.243,0.438-0.478,0.639-0.702l-0.096-0.405l-0.002-0.015l-0.484-5.168
			c-0.193,0.136-0.402,0.299-0.629,0.495l0.523,5.548L135.658,61.239z"/>
		<path fill="#FFFFFF" d="M82.697,21.996l1.369,16.756c0.355-0.172,0.742-0.322,1.154-0.45l-1.324-16.229
			C83.482,22.037,83.084,22.013,82.697,21.996z"/>
		<path fill="#FFFFFF" d="M89.68,23.268l1.104,14.958c0.441,0.103,0.869,0.229,1.285,0.376l-1.064-14.848
			C90.561,23.577,90.117,23.414,89.68,23.268z"/>
		<path fill="#FFFFFF" d="M87.119,22.566l1.164,15.339c0.318,0.008,0.648,0.031,0.986,0.068L88.132,22.81
			C87.791,22.72,87.453,22.64,87.119,22.566z"/>
		<path fill="#FFFFFF" d="M85.615,22.285l1.213,15.684c0.387-0.044,0.793-0.068,1.221-0.066l-1.17-15.388
			C86.449,22.425,86.027,22.349,85.615,22.285z"/>
		<path fill="#FFFFFF" d="M88.377,22.874l1.133,15.125c0.215,0.028,0.434,0.061,0.658,0.1c0.127,0.023,0.25,0.052,0.377,0.079
			l-1.107-14.986C89.08,23.075,88.725,22.97,88.377,22.874z"/>
		<path fill="#FFFFFF" d="M84.135,22.096l1.318,16.136c0.357-0.099,0.738-0.176,1.141-0.233l-1.217-15.75
			C84.951,22.187,84.537,22.136,84.135,22.096z"/>
		<path fill="#FFFFFF" d="M94.064,25.237l1.07,14.954c0.414,0.289,0.812,0.6,1.193,0.928l-1.084-15.155
			C94.85,25.707,94.457,25.463,94.064,25.237z"/>
		<path fill="#FFFFFF" d="M99.27,44.279l-1.076-16.037c-0.463-0.416-0.93-0.806-1.397-1.169l1.117,15.579
			C98.391,43.173,98.842,43.717,99.27,44.279z"/>
		<path fill="#FFFFFF" d="M79.738,42.875c0.037,0.545,0.221,0.763,0.309,0.839c0.018,0.019,0.033,0.042,0.051,0.066
			c0.049-0.125,0.074-0.267,0.059-0.435c-0.055-0.55,0.986-3.064,3.684-4.476l-1.379-16.885c-1.422-0.047-2.607,0.028-3.447,0.118
			C79.098,25.41,79.578,38.545,79.738,42.875z"/>
		<path fill="#FFFFFF" d="M92.799,24.559l1.063,14.847c0.352,0.191,0.693,0.4,1.025,0.62l-1.068-14.928
			C93.479,24.908,93.137,24.728,92.799,24.559z"/>
		<path fill="#FFFFFF" d="M91.25,23.853l1.061,14.839c0.449,0.17,0.885,0.366,1.305,0.583l-1.063-14.838
			C92.117,24.225,91.682,24.032,91.25,23.853z"/>
		<path fill="#FFFFFF" d="M95.492,26.127l1.088,15.211c0.371,0.331,0.73,0.676,1.074,1.036L96.545,26.88
			C96.195,26.616,95.844,26.365,95.492,26.127z"/>
		<path fill="#FFFFFF" d="M109.133,47.333l1.053,16.221c0.291,0.398,0.597,0.79,0.904,1.17l-0.977-15.033
			C109.795,48.937,109.469,48.149,109.133,47.333z"/>
		<path fill="#FFFFFF" d="M113.166,56.413l0.729,11.187c0.338,0.281,0.687,0.547,1.041,0.795l-0.647-9.969
			C113.914,57.806,113.541,57.139,113.166,56.413z"/>
		<path fill="#FFFFFF" d="M99.529,44.626c0.449,0.61,0.873,1.236,1.271,1.865l-1.129-16.804c-0.405-0.428-0.813-0.833-1.228-1.215
			L99.529,44.626z"/>
		<path fill="#FFFFFF" d="M111.869,53.724l0.83,12.784c0.307,0.307,0.621,0.6,0.945,0.879l-0.748-11.51
			C112.557,55.201,112.215,54.485,111.869,53.724z"/>
		<path fill="#FFFFFF" d="M106.225,40.322l1.23,18.938c0.314,0.56,0.643,1.125,0.988,1.688l-1.178-18.134
			C106.93,42.005,106.586,41.178,106.225,40.322z"/>
		<path fill="#FFFFFF" d="M107.547,43.494l1.162,17.881c0.385,0.614,0.791,1.225,1.217,1.821l-1.076-16.543
			C108.434,45.645,108,44.592,107.547,43.494z"/>
		<path fill="#FFFFFF" d="M110.395,50.354l0.953,14.683c0.354,0.421,0.721,0.827,1.1,1.218l-0.854-13.145
			C111.205,52.245,110.807,51.326,110.395,50.354z"/>
		<path fill="#FFFFFF" d="M102.738,33.567l1.264,18.819c0.43,0.862,0.955,1.993,1.578,3.269l-1.26-19.439
			C103.813,35.274,103.285,34.392,102.738,33.567z"/>
		<path fill="#FFFFFF" d="M99.926,29.96l1.139,16.96c0.445,0.727,0.857,1.452,1.24,2.161l-1.191-17.743
			C100.725,30.854,100.328,30.396,99.926,29.96z"/>
		<path fill="#FFFFFF" d="M105.586,38.812c-0.32-0.725-0.654-1.417-0.996-2.082l1.264,19.48c0.406,0.816,0.851,1.681,1.334,2.565
			l-1.242-19.115C105.826,39.377,105.709,39.099,105.586,38.812z"/>
		<path fill="#FFFFFF" d="M101.371,31.668l1.205,17.919c0.416,0.787,0.799,1.546,1.152,2.253l-1.254-18.667
			C102.115,32.648,101.746,32.147,101.371,31.668z"/>
		<path fill="#FFFFFF" d="M114.553,58.857l0.631,9.705c0.344,0.229,0.693,0.439,1.055,0.631l-0.567-8.752
			C115.291,59.963,114.92,59.437,114.553,58.857z"/>
		<polygon fill="#FFFFFF" points="111.324,122.506 110.848,115.137 109.807,117.076 110.297,124.62 		"/>
		<polygon fill="#FFFFFF" points="110.088,125.051 109.596,117.471 108.508,119.498 109.027,127.229 		"/>
		<polygon fill="#FFFFFF" points="107.732,129.889 107.199,121.941 106.225,123.755 106.77,131.863 		"/>
		<polygon fill="#FFFFFF" points="108.818,127.656 108.297,119.891 107.408,121.548 107.939,129.46 		"/>
		<polygon fill="#FFFFFF" points="112.309,120.486 111.842,113.281 111.059,114.743 111.535,122.078 		"/>
		<polygon fill="#FFFFFF" points="114.428,116.132 113.984,109.286 113.246,110.666 113.697,117.637 		"/>
		<polygon fill="#FFFFFF" points="106.563,132.291 106.016,124.146 104.998,126.044 105.557,134.357 		"/>
		<polygon fill="#FFFFFF" points="117.611,109.596 117.201,103.285 116.318,104.932 116.736,111.391 		"/>
		<polygon fill="#FFFFFF" points="116.529,111.82 116.107,105.326 115.316,106.803 115.746,113.428 		"/>
		<polygon fill="#FFFFFF" points="113.488,118.064 113.033,111.061 112.053,112.889 112.52,120.059 		"/>
		<polygon fill="#FFFFFF" points="115.537,113.855 115.105,107.195 114.195,108.893 114.637,115.703 		"/>
		<polygon fill="#FFFFFF" points="103.332,138.93 102.713,130.305 101.721,132.159 102.348,140.945 		"/>
		<polygon fill="#FFFFFF" points="96.75,152.449 96.016,142.797 95.055,144.59 95.809,154.379 		"/>
		<polygon fill="#FFFFFF" points="97.703,150.488 96.99,140.977 96.223,142.41 96.953,152.029 		"/>
		<polygon fill="#FFFFFF" points="94.049,146.465 93.014,148.395 93.834,158.436 94.854,156.34 		"/>
		<polygon fill="#FFFFFF" points="141.58,60.361 140.229,60.342 140.111,60.561 140.846,61.867 		"/>
		<polygon fill="#FFFFFF" points="98.684,148.477 97.992,139.111 97.199,140.59 97.908,150.066 		"/>
		<polygon fill="#FFFFFF" points="105.348,134.785 104.787,126.438 104.014,127.881 104.615,136.291 		"/>
		<polygon fill="#FFFFFF" points="95.605,154.799 94.848,144.977 94.254,146.082 95.057,155.923 		"/>
		<polygon fill="#FFFFFF" points="118.715,107.33 118.318,101.206 117.414,102.893 117.82,109.166 		"/>
		<polygon fill="#FFFFFF" points="104.408,136.715 103.805,128.27 102.922,129.915 103.537,138.504 		"/>
		<polygon fill="#FFFFFF" points="99.773,146.236 99.113,137.018 98.201,138.723 98.889,148.053 		"/>
		<polygon fill="#FFFFFF" points="102.143,141.371 101.51,132.549 100.645,134.161 101.287,143.126 		"/>
		<polygon fill="#FFFFFF" points="101.08,143.55 100.438,134.551 99.322,136.629 99.98,145.813 		"/>
		<polygon fill="#FFFFFF" points="119.713,105.277 119.326,99.324 118.529,100.813 118.924,106.9 		"/>
		<polygon fill="#FFFFFF" points="135.295,73.275 134.887,70.305 133.871,72.197 134.148,75.625 		"/>
		<polygon fill="#FFFFFF" points="136.301,71.205 135.832,68.541 135.076,69.951 135.479,72.894 		"/>
		<polygon fill="#FFFFFF" points="120.729,103.195 120.352,97.41 119.537,98.93 119.922,104.85 		"/>
		<polygon fill="#FFFFFF" points="133.945,76.043 133.666,72.58 132.979,73.861 133.244,77.486 		"/>
		<polygon fill="#FFFFFF" points="133.037,77.909 132.771,74.25 132.08,75.539 132.344,79.335 		"/>
		<polygon fill="#FFFFFF" points="137.1,69.567 136.602,67.107 136.012,68.204 136.479,70.843 		"/>
		<polygon fill="#FFFFFF" points="140.721,62.127 139.98,60.807 139.457,61.781 140.152,63.297 		"/>
		<polygon fill="#FFFFFF" points="137.992,67.73 137.465,65.495 136.777,66.779 137.27,69.218 		"/>
		<path fill="#FFFFFF" d="M93.496,159.131l0.133-0.277l-0.82-10.076l-1.828,3.406l0.619,4.17c1.012,0.211,1.648,0.553,1.691,0.994
			C93.299,157.42,93.4,158.307,93.496,159.131z"/>
		<polygon fill="#FFFFFF" points="139.027,65.605 138.43,63.697 137.635,65.18 138.156,67.395 		"/>
		<polygon fill="#FFFFFF" points="140.016,63.572 139.316,62.043 138.586,63.406 139.178,65.296 		"/>
		<polygon fill="#FFFFFF" points="132.135,79.762 131.869,75.931 131.193,77.191 131.467,81.135 		"/>
		<polygon fill="#FFFFFF" points="123.803,96.877 123.461,91.611 122.633,93.158 122.982,98.563 		"/>
		<polygon fill="#FFFFFF" points="124.75,94.935 124.418,89.828 123.672,91.219 124.014,96.447 		"/>
		<polygon fill="#FFFFFF" points="122.773,98.992 122.422,93.553 121.605,95.074 121.967,100.648 		"/>
		<polygon fill="#FFFFFF" points="121.758,101.078 121.395,95.467 120.563,97.018 120.936,102.766 		"/>
		<polygon fill="#FFFFFF" points="125.74,92.898 125.414,87.968 124.629,89.435 124.957,94.506 		"/>
		<polygon fill="#FFFFFF" points="130.373,83.38 130.096,79.238 129.314,80.695 129.6,84.969 		"/>
		<polygon fill="#FFFFFF" points="131.26,81.56 130.984,77.582 130.307,78.845 130.582,82.953 		"/>
		<polygon fill="#FFFFFF" points="126.688,90.951 126.373,86.182 125.625,87.575 125.949,92.471 		"/>
		<polygon fill="#FFFFFF" points="129.393,85.396 129.104,81.088 128.469,82.273 128.764,86.686 		"/>
		<polygon fill="#FFFFFF" points="127.58,89.119 127.277,84.5 126.586,85.789 126.896,90.523 		"/>
		<polygon fill="#FFFFFF" points="128.557,87.113 128.26,82.665 127.486,84.105 127.789,88.69 		"/>
		<path fill="#FFFFFF" d="M82.381,20.998l-0.047-0.569c-0.006-0.064,0.043-0.121,0.107-0.126c0.066-0.005,0.123,0.043,0.129,0.107
			l0.045,0.569c0.244-0.071,0.422-0.292,0.422-0.56c0-0.323-0.262-0.584-0.586-0.584c-0.322,0-0.586,0.262-0.586,0.584
			C81.865,20.719,82.09,20.961,82.381,20.998z"/>
		<path fill="#FFFFFF" d="M86.793,21.379l-0.041-0.539c-0.006-0.064,0.045-0.121,0.107-0.126c0.066-0.006,0.123,0.044,0.127,0.107
			l0.041,0.539c0.229-0.07,0.396-0.279,0.396-0.53c0-0.306-0.248-0.556-0.557-0.556c-0.307,0-0.557,0.249-0.557,0.555
			C86.311,21.112,86.52,21.342,86.793,21.379z"/>
		<path fill="#FFFFFF" d="M133.217,54.464c-0.277,0.005-0.496,0.232-0.49,0.507c0.004,0.25,0.189,0.451,0.43,0.484l-0.047-0.497
			c-0.006-0.065,0.041-0.123,0.107-0.129c0.064-0.007,0.121,0.041,0.127,0.106l0.047,0.495c0.197-0.069,0.336-0.256,0.332-0.475
			C133.717,54.681,133.49,54.46,133.217,54.464z"/>
		<path fill="#FFFFFF" d="M83.813,21.038l-0.047-0.581c-0.006-0.065,0.041-0.122,0.107-0.127c0.064-0.006,0.121,0.042,0.127,0.108
			l0.047,0.585c0.25-0.067,0.434-0.292,0.434-0.562c0-0.323-0.262-0.585-0.586-0.585c-0.322,0-0.584,0.263-0.584,0.585
			C83.311,20.755,83.527,20.996,83.813,21.038z"/>
		<path fill="#FFFFFF" d="M85.293,21.17l-0.043-0.568c-0.004-0.065,0.043-0.123,0.109-0.127c0.064-0.005,0.121,0.044,0.127,0.109
			l0.043,0.567c0.242-0.071,0.422-0.294,0.422-0.56c0-0.323-0.264-0.585-0.586-0.585c-0.322,0-0.586,0.263-0.586,0.585
			C84.779,20.89,85.006,21.134,85.293,21.17z"/>
		<path fill="#FFFFFF" d="M88.045,21.623l-0.041-0.554c-0.006-0.065,0.043-0.122,0.107-0.126c0.064-0.005,0.123,0.043,0.127,0.109
			l0.041,0.552c0.219-0.069,0.379-0.271,0.379-0.512c0-0.3-0.24-0.542-0.539-0.543c-0.299,0-0.541,0.242-0.541,0.541
			C87.578,21.363,87.781,21.587,88.045,21.623z"/>
		<path fill="#FFFFFF" d="M89.346,21.945l-0.041-0.555c-0.006-0.065,0.043-0.122,0.109-0.126c0.064-0.004,0.121,0.044,0.127,0.109
			l0.039,0.552c0.219-0.069,0.379-0.271,0.381-0.512c0-0.299-0.24-0.542-0.539-0.543c-0.299-0.002-0.543,0.241-0.543,0.54
			C88.879,21.683,89.08,21.908,89.346,21.945z"/>
		<path fill="#FFFFFF" d="M90.912,22.46l-0.037-0.511c-0.004-0.065,0.045-0.122,0.109-0.127c0.064-0.004,0.123,0.045,0.127,0.11
			l0.035,0.509c0.199-0.065,0.342-0.249,0.342-0.468c0.002-0.276-0.219-0.5-0.496-0.502c-0.275-0.001-0.498,0.221-0.5,0.497
			C90.492,22.217,90.674,22.423,90.912,22.46z"/>
		<path fill="#FFFFFF" d="M92.455,23.065l-0.037-0.512c-0.006-0.065,0.045-0.122,0.111-0.126c0.063-0.004,0.119,0.043,0.123,0.109
			l0.039,0.509c0.195-0.066,0.34-0.248,0.342-0.469c0-0.275-0.223-0.5-0.496-0.501c-0.277-0.001-0.5,0.221-0.504,0.496
			C92.031,22.821,92.217,23.027,92.455,23.065z"/>
		<path fill="#FFFFFF" d="M93.715,23.666l-0.037-0.512c-0.004-0.066,0.045-0.122,0.109-0.127c0.066-0.004,0.121,0.045,0.127,0.109
			l0.035,0.51c0.197-0.066,0.342-0.25,0.344-0.468c0-0.276-0.221-0.5-0.498-0.502c-0.275-0.001-0.5,0.22-0.5,0.496
			C93.293,23.421,93.475,23.628,93.715,23.666z"/>
		<path fill="#FFFFFF" d="M95.131,24.417l-0.033-0.513c-0.006-0.065,0.041-0.122,0.107-0.126c0.064-0.005,0.121,0.044,0.125,0.11
			l0.037,0.51c0.197-0.067,0.342-0.25,0.342-0.469c0.002-0.275-0.219-0.5-0.496-0.502c-0.275-0.001-0.498,0.222-0.502,0.497
			C94.711,24.173,94.893,24.379,95.131,24.417z"/>
		<path fill="#FFFFFF" d="M96.428,25.242l-0.037-0.512c-0.004-0.065,0.045-0.122,0.109-0.126c0.066-0.004,0.123,0.044,0.127,0.109
			l0.037,0.51c0.195-0.066,0.34-0.25,0.342-0.468c0.002-0.276-0.223-0.5-0.496-0.502c-0.275-0.001-0.502,0.221-0.504,0.496
			C96.006,24.998,96.188,25.205,96.428,25.242z"/>
		<path fill="#FFFFFF" d="M98.074,26.485l-0.035-0.513c-0.004-0.065,0.045-0.122,0.111-0.126c0.063-0.004,0.121,0.045,0.125,0.11
			l0.035,0.509c0.196-0.065,0.34-0.248,0.342-0.466c0.004-0.275-0.217-0.501-0.492-0.504c-0.275-0.002-0.502,0.219-0.504,0.493
			C97.654,26.238,97.836,26.445,98.074,26.485z"/>
		<path fill="#FFFFFF" d="M99.537,27.691l-0.035-0.512c-0.004-0.066,0.045-0.122,0.111-0.126c0.064-0.005,0.121,0.044,0.125,0.11
			l0.035,0.509c0.197-0.064,0.34-0.249,0.342-0.467c0.004-0.274-0.217-0.5-0.492-0.503c-0.277-0.003-0.502,0.218-0.504,0.493
			C99.117,27.445,99.299,27.653,99.537,27.691z"/>
		<path fill="#FFFFFF" d="M100.969,29.188l-0.035-0.511c-0.004-0.064,0.045-0.122,0.109-0.126c0.066-0.004,0.123,0.046,0.127,0.11
			l0.035,0.509c0.197-0.065,0.342-0.247,0.344-0.467c0.002-0.274-0.219-0.5-0.494-0.502c-0.277-0.003-0.502,0.218-0.504,0.493
			C100.547,28.944,100.73,29.15,100.969,29.188z"/>
		<path fill="#FFFFFF" d="M102.313,30.767l-0.033-0.497c-0.004-0.066,0.046-0.123,0.109-0.127c0.066-0.004,0.123,0.045,0.127,0.11
			l0.033,0.496c0.197-0.064,0.342-0.247,0.346-0.466c0.002-0.275-0.219-0.5-0.496-0.504c-0.274-0.002-0.5,0.217-0.502,0.494
			C101.893,30.522,102.074,30.729,102.313,30.767z"/>
		<path fill="#FFFFFF" d="M104.129,33.303l-0.031-0.499c-0.004-0.064,0.045-0.121,0.109-0.125c0.066-0.004,0.121,0.045,0.125,0.111
			l0.033,0.496c0.199-0.064,0.342-0.247,0.346-0.466c0.002-0.275-0.217-0.5-0.492-0.504s-0.502,0.217-0.506,0.491
			C103.711,33.057,103.891,33.263,104.129,33.303z"/>
		<path fill="#FFFFFF" d="M105.719,36.158l-0.033-0.499c-0.004-0.065,0.045-0.122,0.111-0.126c0.064-0.004,0.121,0.045,0.125,0.111
			l0.031,0.496c0.199-0.063,0.344-0.246,0.348-0.464c0.002-0.277-0.219-0.502-0.494-0.506c-0.274-0.004-0.5,0.217-0.504,0.493
			C105.299,35.912,105.48,36.118,105.719,36.158z"/>
		<path fill="#FFFFFF" d="M107.014,38.946l-0.031-0.5c-0.004-0.065,0.045-0.122,0.111-0.126c0.063-0.004,0.119,0.046,0.123,0.111
			l0.031,0.497c0.201-0.064,0.344-0.247,0.348-0.466c0.002-0.276-0.217-0.502-0.492-0.505c-0.276-0.004-0.502,0.218-0.506,0.492
			C106.594,38.699,106.775,38.906,107.014,38.946z"/>
		<path fill="#FFFFFF" d="M108.596,42.741l-0.031-0.498c-0.004-0.065,0.045-0.122,0.109-0.126c0.066-0.004,0.123,0.045,0.127,0.111
			l0.031,0.497c0.199-0.064,0.344-0.248,0.348-0.467c0.002-0.275-0.219-0.5-0.494-0.504c-0.274-0.003-0.502,0.217-0.504,0.493
			C108.178,42.495,108.357,42.702,108.596,42.741z"/>
		<path fill="#FFFFFF" d="M109.863,45.834l-0.031-0.499c-0.004-0.065,0.045-0.122,0.109-0.125c0.065-0.004,0.121,0.045,0.125,0.11
			l0.033,0.497c0.198-0.064,0.342-0.246,0.346-0.466c0.002-0.275-0.217-0.502-0.492-0.505s-0.502,0.218-0.506,0.493
			C109.445,45.588,109.625,45.795,109.863,45.834z"/>
		<path fill="#FFFFFF" d="M111.359,49.536l-0.033-0.499c-0.004-0.065,0.047-0.12,0.111-0.124c0.065-0.004,0.121,0.043,0.125,0.109
			l0.033,0.497c0.196-0.064,0.344-0.246,0.346-0.466c0.004-0.274-0.219-0.501-0.492-0.505c-0.275-0.003-0.502,0.218-0.504,0.492
			C110.941,49.29,111.123,49.496,111.359,49.536z"/>
		<path fill="#FFFFFF" d="M112.688,52.685l-0.03-0.499c-0.005-0.065,0.045-0.122,0.11-0.126c0.064-0.004,0.121,0.046,0.125,0.111
			l0.031,0.496c0.197-0.064,0.342-0.248,0.346-0.466c0.002-0.277-0.217-0.501-0.492-0.505c-0.274-0.004-0.502,0.216-0.506,0.492
			C112.268,52.438,112.451,52.645,112.688,52.685z"/>
		<path fill="#FFFFFF" d="M114.111,55.716l-0.031-0.499c-0.004-0.063,0.045-0.121,0.109-0.125c0.063-0.004,0.121,0.045,0.125,0.11
			l0.033,0.497c0.198-0.063,0.344-0.247,0.346-0.467c0.004-0.275-0.217-0.5-0.492-0.504c-0.277-0.003-0.502,0.216-0.504,0.492
			C113.693,55.471,113.873,55.677,114.111,55.716z"/>
		<path fill="#FFFFFF" d="M115.529,58.293l-0.031-0.499c-0.004-0.065,0.043-0.122,0.109-0.126c0.063-0.004,0.121,0.046,0.125,0.111
			l0.033,0.496c0.196-0.064,0.342-0.247,0.346-0.466c0.002-0.275-0.219-0.501-0.494-0.505c-0.273-0.003-0.5,0.218-0.504,0.492
			C115.111,58.047,115.291,58.253,115.529,58.293z"/>
		<path fill="#FFFFFF" d="M116.775,60.056l-0.031-0.499c-0.004-0.065,0.045-0.121,0.109-0.125c0.065-0.004,0.123,0.045,0.127,0.111
			l0.031,0.496c0.196-0.064,0.344-0.247,0.346-0.466c0.004-0.275-0.217-0.502-0.492-0.505s-0.502,0.218-0.506,0.492
			C116.357,59.809,116.537,60.016,116.775,60.056z"/>
		<path fill="#FFFFFF" d="M118.006,61.289l-0.033-0.498c-0.004-0.066,0.047-0.123,0.111-0.127c0.066-0.004,0.121,0.045,0.127,0.111
			l0.031,0.496c0.197-0.064,0.342-0.247,0.346-0.466c0.002-0.275-0.219-0.502-0.494-0.505c-0.275-0.004-0.5,0.217-0.504,0.492
			C117.586,61.042,117.768,61.25,118.006,61.289z"/>
		<path fill="#FFFFFF" d="M119.227,62.106l-0.033-0.499c-0.004-0.066,0.048-0.123,0.111-0.127c0.066-0.004,0.123,0.046,0.127,0.111
			l0.031,0.497c0.197-0.065,0.344-0.247,0.346-0.466c0.004-0.275-0.217-0.502-0.492-0.506c-0.274-0.003-0.502,0.219-0.506,0.493
			C118.807,61.858,118.99,62.066,119.227,62.106z"/>
		<path fill="#FFFFFF" d="M120.408,62.564l-0.031-0.499c-0.004-0.065,0.045-0.122,0.109-0.126c0.066-0.004,0.121,0.045,0.125,0.111
			l0.033,0.496c0.196-0.064,0.342-0.247,0.346-0.467c0.002-0.275-0.217-0.501-0.494-0.504c-0.275-0.004-0.502,0.217-0.504,0.492
			C119.988,62.317,120.17,62.525,120.408,62.564z"/>
		<path fill="#FFFFFF" d="M121.59,62.791l-0.033-0.499c-0.004-0.065,0.045-0.121,0.111-0.125c0.064-0.004,0.121,0.046,0.125,0.109
			l0.031,0.497c0.199-0.064,0.344-0.246,0.348-0.467c0.002-0.275-0.219-0.502-0.494-0.505c-0.275-0.003-0.5,0.218-0.504,0.493
			C121.172,62.545,121.352,62.75,121.59,62.791z"/>
		<path fill="#FFFFFF" d="M122.752,61.813c-0.275-0.005-0.502,0.217-0.506,0.492c-0.004,0.25,0.178,0.455,0.416,0.496l-0.031-0.499
			c-0.006-0.065,0.045-0.122,0.109-0.126c0.066-0.004,0.123,0.045,0.127,0.109l0.031,0.498c0.197-0.064,0.342-0.246,0.346-0.467
			C123.248,62.041,123.025,61.814,122.752,61.813z"/>
		<path fill="#FFFFFF" d="M123.828,61.621c-0.275-0.004-0.5,0.217-0.504,0.492c-0.004,0.25,0.178,0.457,0.416,0.495l-0.031-0.498
			c-0.004-0.065,0.045-0.122,0.109-0.126c0.063-0.005,0.121,0.045,0.125,0.109l0.033,0.498c0.196-0.065,0.342-0.248,0.346-0.468
			C124.324,61.849,124.105,61.623,123.828,61.621z"/>
		<path fill="#FFFFFF" d="M124.883,61.273c-0.277-0.003-0.502,0.217-0.506,0.493c-0.002,0.248,0.18,0.455,0.418,0.495l-0.033-0.499
			c-0.004-0.065,0.045-0.122,0.111-0.126c0.064-0.004,0.119,0.045,0.123,0.111l0.033,0.495c0.199-0.063,0.344-0.247,0.346-0.466
			C125.379,61.502,125.156,61.276,124.883,61.273z"/>
		<path fill="#FFFFFF" d="M125.861,60.78c-0.275-0.003-0.5,0.218-0.504,0.493c-0.002,0.249,0.178,0.457,0.418,0.496l-0.033-0.499
			c-0.004-0.065,0.043-0.122,0.109-0.126c0.063-0.005,0.121,0.045,0.125,0.11l0.032,0.497c0.197-0.064,0.343-0.248,0.347-0.467
			C126.357,61.009,126.137,60.783,125.861,60.78z"/>
		<path fill="#FFFFFF" d="M126.9,60.098c-0.277-0.002-0.5,0.218-0.504,0.494c-0.004,0.249,0.178,0.455,0.418,0.495l-0.035-0.5
			c-0.004-0.063,0.047-0.12,0.111-0.124c0.063-0.004,0.121,0.045,0.125,0.109l0.032,0.495c0.197-0.063,0.343-0.245,0.347-0.466
			C127.396,60.326,127.176,60.101,126.9,60.098z"/>
		<path fill="#FFFFFF" d="M127.807,59.426c-0.274-0.003-0.5,0.219-0.504,0.494c-0.002,0.249,0.178,0.456,0.416,0.495l-0.033-0.499
			c-0.004-0.065,0.045-0.121,0.111-0.126c0.064-0.004,0.121,0.046,0.125,0.111l0.033,0.497c0.197-0.064,0.342-0.248,0.346-0.467
			C128.303,59.654,128.082,59.428,127.807,59.426z"/>
		<path fill="#FFFFFF" d="M128.857,58.49c-0.273-0.002-0.5,0.219-0.504,0.493c-0.002,0.25,0.18,0.457,0.418,0.496l-0.033-0.5
			c-0.004-0.065,0.045-0.121,0.109-0.125c0.065-0.004,0.123,0.045,0.127,0.109l0.032,0.497c0.197-0.065,0.343-0.247,0.345-0.466
			C129.355,58.719,129.135,58.493,128.857,58.49z"/>
		<path fill="#FFFFFF" d="M129.754,57.676c-0.277-0.002-0.502,0.22-0.504,0.495c-0.002,0.25,0.182,0.456,0.418,0.494l-0.033-0.499
			c-0.006-0.065,0.045-0.121,0.109-0.125s0.121,0.043,0.127,0.109l0.033,0.496c0.197-0.065,0.342-0.248,0.344-0.468
			C130.25,57.904,130.027,57.679,129.754,57.676z"/>
		<path fill="#FFFFFF" d="M130.691,56.78c-0.275-0.002-0.5,0.219-0.502,0.495c-0.002,0.25,0.178,0.456,0.418,0.495l-0.035-0.499
			c-0.004-0.065,0.045-0.121,0.109-0.125c0.065-0.005,0.12,0.044,0.127,0.109l0.032,0.497c0.199-0.065,0.345-0.248,0.347-0.467
			C131.188,57.007,130.967,56.783,130.691,56.78z"/>
		<path fill="#FFFFFF" d="M131.086,56.402c-0.002,0.249,0.182,0.454,0.42,0.491l-0.035-0.498c-0.006-0.065,0.043-0.122,0.107-0.126
			c0.064-0.005,0.123,0.044,0.127,0.109l0.035,0.495c0.199-0.064,0.342-0.249,0.344-0.468c0.002-0.276-0.223-0.5-0.498-0.501
			C131.311,55.904,131.088,56.126,131.086,56.402z"/>
		<path fill="#FFFFFF" d="M131.914,55.675c0,0.25,0.184,0.454,0.424,0.49l-0.039-0.499c-0.008-0.065,0.041-0.121,0.107-0.126
			c0.064-0.005,0.121,0.043,0.127,0.107l0.041,0.496c0.195-0.067,0.336-0.251,0.338-0.471c-0.004-0.275-0.227-0.499-0.5-0.497
			C132.135,55.176,131.912,55.4,131.914,55.675z"/>
		<path fill="#FFFFFF" d="M134.059,53.918c-0.254,0.005-0.455,0.214-0.449,0.466c0.002,0.222,0.162,0.404,0.373,0.443l-0.035-0.363
			c-0.006-0.065,0.041-0.123,0.107-0.128c0.063-0.006,0.121,0.042,0.129,0.106l0.033,0.365c0.182-0.063,0.311-0.235,0.309-0.438
			C134.52,54.115,134.313,53.915,134.059,53.918z"/>
		<path fill="#FFFFFF" d="M134.846,53.367c-0.252,0.005-0.453,0.213-0.449,0.466c0.002,0.21,0.148,0.384,0.342,0.435l-0.036-0.394
			c-0.005-0.066,0.043-0.124,0.106-0.129c0.064-0.005,0.123,0.042,0.127,0.106l0.041,0.415c0.195-0.055,0.34-0.234,0.336-0.448
			C135.309,53.564,135.1,53.363,134.846,53.367z"/>
		<path fill="#FFFFFF" d="M135.654,52.835c-0.254,0.004-0.455,0.214-0.451,0.467c0.004,0.229,0.176,0.417,0.4,0.445l-0.043-0.442
			c-0.006-0.065,0.043-0.124,0.106-0.129c0.063-0.006,0.121,0.042,0.127,0.107l0.041,0.435c0.17-0.071,0.287-0.237,0.285-0.43
			C136.115,53.033,135.906,52.831,135.654,52.835z"/>
		<path fill="#FFFFFF" d="M137.979,52.009c-0.188,0.003-0.344,0.137-0.383,0.313c-0.086-0.107-0.217-0.178-0.367-0.176
			c-0.217,0.004-0.395,0.157-0.438,0.36c-0.078-0.054-0.17-0.086-0.271-0.085c-0.254,0.006-0.455,0.214-0.451,0.467
			c0.004,0.224,0.166,0.408,0.382,0.444l-0.043-0.441c-0.007-0.064,0.043-0.123,0.106-0.128c0.064-0.005,0.123,0.042,0.129,0.106
			l0.041,0.442c0.146-0.053,0.258-0.178,0.291-0.331c0.055,0.039,0.123,0.061,0.193,0.072l-0.043-0.438
			c-0.004-0.065,0.043-0.123,0.107-0.128c0.063-0.007,0.123,0.041,0.129,0.107l0.041,0.438c0.149-0.059,0.262-0.195,0.287-0.358
			c0.051,0.056,0.119,0.098,0.194,0.117l-0.024-0.316c-0.006-0.065,0.043-0.122,0.108-0.126c0.063-0.005,0.121,0.043,0.125,0.109
			l0.027,0.323c0.153-0.057,0.267-0.205,0.264-0.38C138.381,52.181,138.199,52.005,137.979,52.009z"/>
		<path fill="#FFFFFF" d="M100.682,167.717c0.68-0.031,1.416-0.072,2.221-0.123c21.386-52.853,40.533-104.076,41.738-107.305
			l-1.432,0.098c-0.004,0-0.008-0.002-0.012-0.002c-0.002,0-0.004,0.002-0.008,0.002l-1.265-0.02L94.287,160.953
			c0.008,0.092,0.037,0.296,0.064,0.488c1.043,0.566,4.02,2.197,5.536,3.179c1.678,1.089,0.19,2.805-0.113,3.127
			c-0.234,0.106-0.471,0.181-0.678,0.202c-0.13,0.013-0.355,0.021-0.64,0.027c-0.283,0.006-0.623,0.008-0.99,0.008
			c-0.729,0-1.563-0.008-2.24-0.019c-0.676-0.01-1.193-0.021-1.307-0.021c-0.135,0.002-0.236-0.02-0.275-0.039l-0.018-0.012v-0.002
			c0.006-0.039,0.01-0.078,0.01-0.117c0-0.116-0.023-0.229-0.07-0.325s-0.117-0.19-0.229-0.245
			c-0.037-0.018-0.061-0.021-0.084-0.025c-0.068-0.013-0.141-0.015-0.234-0.015c-0.424,0-1.25,0.071-1.885,0.168
			c-1.059,0.159-4.137,0.657-8.094,0.657c-1.172,0-2.42-0.045-3.715-0.152c-2.283-0.193-3.67-0.816-4.514-1.445v0.517
			c0.928,0.61,2.344,1.175,4.479,1.354c1.307,0.108,2.568,0.152,3.75,0.152c3.99,0,7.1-0.503,8.158-0.662
			c0.607-0.093,1.438-0.164,1.82-0.163c0.053,0,0.098,0.001,0.127,0.005h0.014c0.006,0.008,0.018,0.022,0.027,0.051
			c0.014,0.033,0.023,0.08,0.023,0.131l-0.004,0.058c-0.004,0.022-0.006,0.045-0.006,0.067c0,0.084,0.027,0.174,0.078,0.24
			c0.076,0.104,0.182,0.155,0.287,0.188c0.109,0.031,0.225,0.041,0.354,0.043c0.102-0.002,0.627,0.008,1.301,0.02
			c0.677,0.01,1.511,0.02,2.246,0.02c0.369,0,0.711-0.003,1-0.008c0.287-0.008,0.52-0.018,0.672-0.032
			c0.479-0.052,0.963-0.283,1.377-0.543C100.574,167.792,100.627,167.754,100.682,167.717z"/>
		<path fill="#FFFFFF" d="M93.605,174.141c0,0-0.535,0.854-0.58,0.84c-0.211-0.061-0.438-0.082-0.674-0.082
			c-0.547,0-1.139,0.121-1.631,0.211c-0.51,0.095-1.496,0.298-2.832,0.478c-1.336,0.181-3.018,0.338-4.906,0.338
			c-1.105,0-2.281-0.054-3.5-0.188c-2.256-0.248-3.434-0.922-4.051-1.59c-0.398-0.432-0.57-0.865-0.643-1.203v0.15
			c0,0-0.162,0.051-0.357,0.164c0.109,0.357,0.314,0.773,0.689,1.178c0.705,0.765,1.994,1.469,4.314,1.725
			c1.236,0.136,2.428,0.189,3.547,0.189c1.914,0,3.613-0.16,4.963-0.342c1.35-0.182,2.35-0.389,2.854-0.48
			c0.494-0.092,1.066-0.205,1.553-0.205c0.348,0,0.637,0.062,0.82,0.191c0.092,0.065,0.164,0.148,0.217,0.26
			c0,0.004,0.002,0.008,0.002,0.012l0.514-1.674c0,0,0-4.178,0-4.258c-0.205-0.016-0.299-0.039-0.299-0.039V174.141z"/>
		<path fill="#FFFFFF" d="M112.99,164.725c-0.852,0.533-2.07,1.055-3.535,1.5s-3.178,0.818-5.02,1.067
			c-0.283,0.039-0.564,0.073-0.843,0.103c-0.004,0.002-0.151,0.444-0.151,0.444c0.346-0.036,0.695-0.077,1.049-0.126
			c2.842-0.383,5.377-1.059,7.215-1.852c0.92-0.398,1.666-0.824,2.195-1.271c0.131-0.11,0.25-0.226,0.354-0.338
			c-0.01-0.304-0.02-0.539-0.031-0.688c-0.018,0.037-0.037,0.074-0.061,0.111C113.959,164.006,113.559,164.369,112.99,164.725z"/>
		<path fill="#FFFFFF" d="M114.322,171.219c-0.01,0.133-0.066,0.285-0.166,0.441c-0.193,0.302-0.576,0.641-1.121,0.975
			c-0.82,0.506-2,1.008-3.443,1.448c-1.445,0.44-3.154,0.823-5.033,1.099c-1.463,0.209-2.861,0.338-4.143,0.396v-3.662h-0.268v4.056
			h0.043c1.358-0.05,2.854-0.187,4.422-0.412c2.893-0.42,5.385-1.096,7.166-1.858c0.891-0.384,1.604-0.785,2.107-1.197
			c0.252-0.206,0.448-0.417,0.59-0.633c0.076-0.117,0.131-0.237,0.17-0.358c-0.107-0.021-0.215-0.039-0.324-0.057
			C114.322,171.377,114.322,171.299,114.322,171.219z"/>
	</g>
</g>
<g id="Orientierungskreise" display="none">
	<g id="Weißer_Kreis_x5F_Violin_9_" display="inline">
		<g>
			<path fill="#4D4D4F" d="M-1122.268,9.917c47.365,0,85.898,38.534,85.898,85.899s-38.534,85.897-85.898,85.897
				c-47.365,0-85.899-38.534-85.899-85.897C-1208.167,48.451-1169.633,9.917-1122.268,9.917 M-1122.268,9.69
				c-47.566,0-86.126,38.559-86.126,86.126c0,47.564,38.56,86.125,86.126,86.125s86.125-38.561,86.125-86.125
				C-1036.143,48.249-1074.702,9.69-1122.268,9.69L-1122.268,9.69z"/>
		</g>
	</g>
	<g id="Weißer_Kreis_x5F_Violin_10_" display="inline">
		<g>
			<path fill="#4D4D4F" d="M-1122.268,12.492c45.944,0,83.322,37.378,83.322,83.322s-37.378,83.322-83.322,83.322
				c-45.945,0-83.323-37.378-83.323-83.322C-1205.591,49.871-1168.212,12.492-1122.268,12.492 M-1122.268,12.272
				c-46.139,0-83.543,37.402-83.543,83.542c0,46.14,37.404,83.543,83.543,83.543c46.139,0,83.542-37.403,83.542-83.543
				S-1076.128,12.272-1122.268,12.272L-1122.268,12.272z"/>
		</g>
	</g>
	<g id="Weißer_Kreis_x5F_Violin_2_" display="inline">
		<g>
			<path fill="#4D4D4F" d="M-1122.268,232.007c47.365,0,85.898,38.534,85.898,85.899s-38.534,85.898-85.898,85.898
				c-47.365,0-85.899-38.535-85.899-85.898C-1208.167,270.542-1169.633,232.007-1122.268,232.007 M-1122.268,231.781
				c-47.566,0-86.126,38.559-86.126,86.125s38.56,86.125,86.126,86.125s86.125-38.559,86.125-86.125
				C-1036.143,270.339-1074.702,231.781-1122.268,231.781L-1122.268,231.781z"/>
		</g>
	</g>
	<g id="Weißer_Kreis_x5F_Violin_1_" display="inline">
		<g>
			<path fill="#4D4D4F" d="M-1122.268,234.583c45.944,0,83.322,37.378,83.322,83.323c0,45.943-37.378,83.322-83.322,83.322
				c-45.945,0-83.323-37.379-83.323-83.322C-1205.591,271.961-1168.212,234.583-1122.268,234.583 M-1122.268,234.363
				c-46.139,0-83.543,37.402-83.543,83.543c0,46.139,37.404,83.541,83.543,83.541c46.139,0,83.542-37.402,83.542-83.541
				C-1038.726,271.766-1076.128,234.363-1122.268,234.363L-1122.268,234.363z"/>
		</g>
	</g>
	<g id="Weißer_Kreis_x5F_Violin_6_" display="inline">
		<g>
			<path fill="#4D4D4F" d="M-1122.268,676.191c47.365,0,85.898,38.535,85.898,85.9c0,47.363-38.534,85.896-85.898,85.896
				c-47.365,0-85.899-38.533-85.899-85.896C-1208.167,714.727-1169.633,676.191-1122.268,676.191 M-1122.268,675.967
				c-47.566,0-86.126,38.559-86.126,86.125c0,47.564,38.56,86.125,86.126,86.125s86.125-38.561,86.125-86.125
				C-1036.143,714.523-1074.702,675.967-1122.268,675.967L-1122.268,675.967z"/>
		</g>
	</g>
	<g id="Weißer_Kreis_x5F_Violin_5_" display="inline">
		<g>
			<path fill="#4D4D4F" d="M-1122.268,678.768c45.944,0,83.322,37.379,83.322,83.324c0,45.943-37.378,83.32-83.322,83.32
				c-45.945,0-83.323-37.377-83.323-83.32C-1205.591,716.146-1168.212,678.768-1122.268,678.768 M-1122.268,678.549
				c-46.139,0-83.543,37.4-83.543,83.543c0,46.139,37.404,83.541,83.543,83.541c46.139,0,83.542-37.402,83.542-83.541
				C-1038.726,715.949-1076.128,678.549-1122.268,678.549L-1122.268,678.549z"/>
		</g>
	</g>
	<g id="Weißer_Kreis_x5F_Violin_8_" display="inline">
		<g>
			<path fill="#4D4D4F" d="M-1122.268,898.285c47.365,0,85.898,38.533,85.898,85.898s-38.534,85.898-85.898,85.898
				c-47.365,0-85.899-38.533-85.899-85.898S-1169.633,898.285-1122.268,898.285 M-1122.268,898.059
				c-47.566,0-86.126,38.559-86.126,86.127c0,47.564,38.56,86.125,86.126,86.125s86.125-38.561,86.125-86.125
				C-1036.143,936.617-1074.702,898.059-1122.268,898.059L-1122.268,898.059z"/>
		</g>
	</g>
	<g id="Weißer_Kreis_x5F_Violin_7_" display="inline">
		<g>
			<path fill="#4D4D4F" d="M-1122.268,900.859c45.944,0,83.322,37.379,83.322,83.324c0,45.943-37.378,83.322-83.322,83.322
				c-45.945,0-83.323-37.379-83.323-83.322C-1205.591,938.238-1168.212,900.859-1122.268,900.859 M-1122.268,900.641
				c-46.139,0-83.543,37.402-83.543,83.543c0,46.139,37.404,83.543,83.543,83.543c46.139,0,83.542-37.404,83.542-83.543
				C-1038.726,938.043-1076.128,900.641-1122.268,900.641L-1122.268,900.641z"/>
		</g>
	</g>
	<g id="Weißer_Kreis_x5F_Violin_4_" display="inline">
		<g>
			<path fill="#4D4D4F" d="M-1122.268,454.102c47.365,0,85.898,38.533,85.898,85.898c0,47.363-38.534,85.898-85.898,85.898
				c-47.365,0-85.899-38.535-85.899-85.898C-1208.167,492.635-1169.633,454.102-1122.268,454.102 M-1122.268,453.873
				c-47.566,0-86.126,38.561-86.126,86.127c0,47.564,38.56,86.125,86.126,86.125s86.125-38.561,86.125-86.125
				C-1036.143,492.434-1074.702,453.873-1122.268,453.873L-1122.268,453.873z"/>
		</g>
	</g>
	<g id="Weißer_Kreis_x5F_Violin_3_" display="inline">
		<g>
			<path fill="#4D4D4F" d="M-1122.267,456.676c45.944,0,83.322,37.379,83.322,83.324c0,45.943-37.378,83.322-83.322,83.322
				c-45.945,0-83.323-37.379-83.323-83.322C-1205.59,494.055-1168.212,456.676-1122.267,456.676 M-1122.267,456.457
				c-46.139,0-83.543,37.402-83.543,83.543c0,46.139,37.404,83.543,83.543,83.543c46.139,0,83.542-37.404,83.542-83.543
				C-1038.725,493.859-1076.128,456.457-1122.267,456.457L-1122.267,456.457z"/>
		</g>
	</g>
</g>
</svg>
