<?xml version="1.0" encoding="utf-8"?>
<!-- Generator: Adobe Illustrator 15.0.0, SVG Export Plug-In . SVG Version: 6.00 Build 0)  -->
<!DOCTYPE svg PUBLIC "-//W3C//DTD SVG 1.1//EN" "http://www.w3.org/Graphics/SVG/1.1/DTD/svg11.dtd">
<svg version="1.1" id="Ebene_1" xmlns="http://www.w3.org/2000/svg" xmlns:xlink="http://www.w3.org/1999/xlink" x="0px" y="0px"
	 width="190px" height="190px" viewBox="0 0 190 190" enable-background="new 0 0 190 190" xml:space="preserve">
<g id="Orientierungskreise" display="none">
	<g id="Weißer_Kreis_x5F_Violin_9_" display="inline">
		<g>
			<path fill="#4D4D4F" d="M-1122.268,9.917c47.365,0,85.898,38.534,85.898,85.899s-38.534,85.897-85.898,85.897
				c-47.365,0-85.899-38.534-85.899-85.897C-1208.167,48.451-1169.633,9.917-1122.268,9.917 M-1122.268,9.69
				c-47.566,0-86.126,38.559-86.126,86.126c0,47.564,38.56,86.125,86.126,86.125s86.125-38.561,86.125-86.125
				C-1036.143,48.249-1074.702,9.69-1122.268,9.69L-1122.268,9.69z"/>
		</g>
	</g>
	<g id="Weißer_Kreis_x5F_Violin_10_" display="inline">
		<g>
			<path fill="#4D4D4F" d="M-1122.268,12.492c45.944,0,83.322,37.378,83.322,83.322s-37.378,83.322-83.322,83.322
				c-45.945,0-83.323-37.378-83.323-83.322C-1205.591,49.871-1168.212,12.492-1122.268,12.492 M-1122.268,12.272
				c-46.139,0-83.543,37.402-83.543,83.542c0,46.14,37.404,83.543,83.543,83.543c46.139,0,83.542-37.403,83.542-83.543
				S-1076.128,12.272-1122.268,12.272L-1122.268,12.272z"/>
		</g>
	</g>
	<g id="Weißer_Kreis_x5F_Violin_2_" display="inline">
		<g>
			<path fill="#4D4D4F" d="M-1122.268,232.007c47.365,0,85.898,38.534,85.898,85.899s-38.534,85.898-85.898,85.898
				c-47.365,0-85.899-38.535-85.899-85.898C-1208.167,270.542-1169.633,232.007-1122.268,232.007 M-1122.268,231.781
				c-47.566,0-86.126,38.559-86.126,86.125s38.56,86.125,86.126,86.125s86.125-38.559,86.125-86.125
				C-1036.143,270.339-1074.702,231.781-1122.268,231.781L-1122.268,231.781z"/>
		</g>
	</g>
	<g id="Weißer_Kreis_x5F_Violin_1_" display="inline">
		<g>
			<path fill="#4D4D4F" d="M-1122.268,234.583c45.944,0,83.322,37.378,83.322,83.323c0,45.943-37.378,83.322-83.322,83.322
				c-45.945,0-83.323-37.379-83.323-83.322C-1205.591,271.961-1168.212,234.583-1122.268,234.583 M-1122.268,234.363
				c-46.139,0-83.543,37.402-83.543,83.543c0,46.139,37.404,83.541,83.543,83.541c46.139,0,83.542-37.402,83.542-83.541
				C-1038.726,271.766-1076.128,234.363-1122.268,234.363L-1122.268,234.363z"/>
		</g>
	</g>
	<g id="Weißer_Kreis_x5F_Violin_6_" display="inline">
		<g>
			<path fill="#4D4D4F" d="M-1122.268,676.191c47.365,0,85.898,38.535,85.898,85.9c0,47.363-38.534,85.896-85.898,85.896
				c-47.365,0-85.899-38.533-85.899-85.896C-1208.167,714.727-1169.633,676.191-1122.268,676.191 M-1122.268,675.967
				c-47.566,0-86.126,38.559-86.126,86.125c0,47.564,38.56,86.125,86.126,86.125s86.125-38.561,86.125-86.125
				C-1036.143,714.523-1074.702,675.967-1122.268,675.967L-1122.268,675.967z"/>
		</g>
	</g>
	<g id="Weißer_Kreis_x5F_Violin_5_" display="inline">
		<g>
			<path fill="#4D4D4F" d="M-1122.268,678.768c45.944,0,83.322,37.379,83.322,83.324c0,45.943-37.378,83.32-83.322,83.32
				c-45.945,0-83.323-37.377-83.323-83.32C-1205.591,716.146-1168.212,678.768-1122.268,678.768 M-1122.268,678.549
				c-46.139,0-83.543,37.4-83.543,83.543c0,46.139,37.404,83.541,83.543,83.541c46.139,0,83.542-37.402,83.542-83.541
				C-1038.726,715.949-1076.128,678.549-1122.268,678.549L-1122.268,678.549z"/>
		</g>
	</g>
	<g id="Weißer_Kreis_x5F_Violin_8_" display="inline">
		<g>
			<path fill="#4D4D4F" d="M-1122.268,898.285c47.365,0,85.898,38.533,85.898,85.898s-38.534,85.898-85.898,85.898
				c-47.365,0-85.899-38.533-85.899-85.898S-1169.633,898.285-1122.268,898.285 M-1122.268,898.059
				c-47.566,0-86.126,38.559-86.126,86.127c0,47.564,38.56,86.125,86.126,86.125s86.125-38.561,86.125-86.125
				C-1036.143,936.617-1074.702,898.059-1122.268,898.059L-1122.268,898.059z"/>
		</g>
	</g>
	<g id="Weißer_Kreis_x5F_Violin_7_" display="inline">
		<g>
			<path fill="#4D4D4F" d="M-1122.268,900.859c45.944,0,83.322,37.379,83.322,83.324c0,45.943-37.378,83.322-83.322,83.322
				c-45.945,0-83.323-37.379-83.323-83.322C-1205.591,938.238-1168.212,900.859-1122.268,900.859 M-1122.268,900.641
				c-46.139,0-83.543,37.402-83.543,83.543c0,46.139,37.404,83.543,83.543,83.543c46.139,0,83.542-37.404,83.542-83.543
				C-1038.726,938.043-1076.128,900.641-1122.268,900.641L-1122.268,900.641z"/>
		</g>
	</g>
	<g id="Weißer_Kreis_x5F_Violin_4_" display="inline">
		<g>
			<path fill="#4D4D4F" d="M-1122.268,454.102c47.365,0,85.898,38.533,85.898,85.898c0,47.363-38.534,85.898-85.898,85.898
				c-47.365,0-85.899-38.535-85.899-85.898C-1208.167,492.635-1169.633,454.102-1122.268,454.102 M-1122.268,453.873
				c-47.566,0-86.126,38.561-86.126,86.127c0,47.564,38.56,86.125,86.126,86.125s86.125-38.561,86.125-86.125
				C-1036.143,492.434-1074.702,453.873-1122.268,453.873L-1122.268,453.873z"/>
		</g>
	</g>
	<g id="Weißer_Kreis_x5F_Violin_3_" display="inline">
		<g>
			<path fill="#4D4D4F" d="M-1122.267,456.676c45.944,0,83.322,37.379,83.322,83.324c0,45.943-37.378,83.322-83.322,83.322
				c-45.945,0-83.323-37.379-83.323-83.322C-1205.59,494.055-1168.212,456.676-1122.267,456.676 M-1122.267,456.457
				c-46.139,0-83.543,37.402-83.543,83.543c0,46.139,37.404,83.543,83.543,83.543c46.139,0,83.542-37.404,83.542-83.543
				C-1038.725,493.859-1076.128,456.457-1122.267,456.457L-1122.267,456.457z"/>
		</g>
	</g>
</g>
<g id="graue_Fläche_6_">
	<path d="M159.088,131.962c-4.332-2.536-9.857-6.57-13.159-12.015c-11.319-16.906-10.778-34.929-11.319-41.96
		c-1.592-28.415-19.112-49.611-44.676-49.658c-6.527-0.012-13.205,1.184-18.971,3.846c-0.043,0.017-0.085,0.034-0.126,0.053
		c-7.183,3.026-13.292,8.072-17.618,14.425L27.096,68.998c-0.01-0.006-0.02-0.012-0.029-0.015c-0.051-0.02-0.103-0.038-0.176-0.039
		c-0.029,0-0.063,0.004-0.099,0.014c-0.034,0.012-0.073,0.03-0.104,0.058c-0.037,0.03-1.7,1.451-2.314,1.977
		c-0.264,0.224-0.447,0.383-0.456,0.39c-0.045,0.038-0.073,0.088-0.089,0.132c-0.014,0.041-0.019,0.081-0.019,0.115
		c0.001,0.06,0.013,0.109,0.027,0.16c0.024,0.086,0.065,0.172,0.117,0.265c0.011,0.017,0.021,0.036,0.029,0.053
		c-1.495,1.314-5.882,4.879-10.463,5.852c-0.013,0.002-0.056,0.007-0.065,0.008c-0.047,0.005-0.094,0.021-0.131,0.052
		c-0.031,0.027-0.053,0.064-0.065,0.1c-0.013,0.036-0.018,0.076-0.018,0.115c0,0.067,0.015,0.143,0.04,0.228
		c0.088,0.293,0.312,0.704,0.639,1.194c0.324,0.489,0.752,1.054,1.248,1.631c0.586,0.686,1.166,1.273,1.651,1.693
		c0.243,0.212,0.464,0.378,0.65,0.496c0.094,0.059,0.181,0.104,0.257,0.139c0.08,0.032,0.151,0.052,0.221,0.052
		c0.055,0,0.139-0.029,0.156-0.05c0.006-0.006,0.01-0.014,0.012-0.02c1.602-4.319,5.934-8.282,7.483-9.604
		c0.062,0.049,0.121,0.093,0.177,0.127c0.048,0.029,0.095,0.056,0.144,0.076c0.05,0.021,0.101,0.04,0.176,0.041
		c0.029,0,0.062-0.005,0.099-0.015c0.035-0.012,0.072-0.031,0.105-0.057h-0.002h0.002l0,0l0,0l0,0l0,0l0,0l0,0l0,0v-0.002
		c0.037-0.032,1.854-1.584,2.389-2.039c0.223-0.19,0.373-0.319,0.381-0.325v-0.001c0.043-0.038,0.073-0.086,0.088-0.132
		c0.016-0.042,0.019-0.083,0.019-0.116c0-0.057-0.011-0.107-0.025-0.153l9.384-8.027c2.449,0.534,4.234,1.513,5.433,2.385
		c0.657,0.48,1.136,0.931,1.448,1.253c0.149,0.154,0.261,0.283,0.334,0.369c-0.086,0.911-0.127,1.794-0.127,2.637
		c0,3.726,0.753,6.735,1.511,8.814c0.406,1.119,0.813,1.967,1.104,2.521c0.365,1.124,0.775,2.228,1.234,3.307
		c3.049,7.178,8.139,13.284,14.546,17.594c1.946,1.312,4.016,2.455,6.187,3.413c0.135,0.42,0.309,0.841,0.523,1.264
		c0.408,0.797,0.876,1.532,1.417,2.189c0.404,0.494,0.851,0.944,1.337,1.342c0.732,0.592,1.562,1.065,2.469,1.384
		c0.911,0.32,1.896,0.479,2.938,0.479c1.077,0,2.214-0.168,3.408-0.509c1.197-0.342,2.454-0.85,3.783-1.534l0.023-0.012l0.023-0.014
		c0.666-0.374,1.267-0.774,1.806-1.197c1.02-0.036,2.029-0.11,3.026-0.222c3.15-0.35,6.193-1.065,9.082-2.098
		c0.594-0.081,1.492-0.242,2.531-0.537c0.932-0.262,1.979-0.643,3.023-1.175c1.044-0.536,2.086-1.23,3.006-2.131
		c0.709-0.696,1.385-1.137,2.012-1.409c0.627-0.268,1.207-0.37,1.732-0.37c0.743,0,1.38,0.205,1.857,0.424
		c0.238,0.11,0.437,0.227,0.588,0.316c0.074,0.048,0.139,0.091,0.191,0.126c0.052,0.037,0.091,0.065,0.131,0.091
		c0.025,0.014,0.053,0.03,0.086,0.051c0.119,0.069,0.314,0.182,0.543,0.348c0.343,0.247,0.756,0.61,1.076,1.088
		c0.162,0.239,0.3,0.51,0.398,0.807c0.1,0.302,0.158,0.634,0.158,1.003c0,0.304-0.041,0.638-0.135,1.002
		c-0.054,0.155-0.509,1.531-0.967,3.361c-0.241,0.972-0.484,2.077-0.666,3.198c-0.061,0.364-0.113,0.73-0.158,1.098
		c-1.016,1.978-2.169,3.958-3.484,5.923c-3.494,5.765-9.983,9.875-14.835,12.318c-4.528,0.954-7.19,2.12-7.19,3.38
		c0,3.224,17.436,5.836,38.943,5.836s38.942-2.612,38.942-5.836C167.823,134.249,164.549,132.966,159.088,131.962z M46.393,66.581
		c-0.322-0.362-0.922-0.972-1.833-1.637c-1.169-0.855-2.852-1.792-5.083-2.384l9.68-8.279C47.618,58.124,46.66,62.264,46.393,66.581
		z M115.741,54.512c0.665,1.003,1.297,2.099,1.868,3.305c1.674,3.538,2.849,7.985,2.85,13.595c0,1.084-0.045,2.217-0.139,3.394
		c-0.085,0.614-0.182,1.176-0.285,1.681c-0.242,1.183-0.533,2.077-0.828,2.737c-0.219,0.501-0.439,0.868-0.643,1.136
		c-0.152,0.198-0.293,0.346-0.417,0.45c-0.007,0.005-0.012,0.01-0.019,0.016c0.135-1.258,0.2-2.47,0.2-3.632
		c0-1.175-0.067-2.301-0.194-3.378c-0.069-1.832-0.279-3.393-0.531-4.673c-0.154-0.786-0.326-1.462-0.49-2.033
		c-0.162-0.571-0.32-1.032-0.439-1.383c-0.086-0.236-0.201-0.509-0.355-0.826c-0.268-0.551-0.653-1.227-1.17-1.947
		c-0.389-0.54-0.85-1.101-1.396-1.649c-0.817-0.818-1.824-1.603-3.039-2.186c-0.176-0.086-0.357-0.166-0.541-0.24
		c0.161-0.899,0.24-1.797,0.239-2.675c0-1.014-0.103-2.007-0.288-2.979c0.219-0.016,0.439-0.021,0.661-0.021
		c0.935,0,1.881,0.128,2.812,0.397C114.322,53.814,115.041,54.115,115.741,54.512z M84.77,81.53l-0.523,0.271l-0.57-1.133
		l0.366-0.191l0.065,0.13l0.014,0.026v0.002l0.014,0.026c0.16,0.315,0.367,0.6,0.608,0.841C84.752,81.514,84.762,81.521,84.77,81.53
		z M60.465,66.072l-0.001,0.002c0.01-0.006,1.543-0.798,3.433-1.636c0.607-0.267,1.25-0.54,1.889-0.794
		c0.197,0.495,0.492,0.937,0.863,1.306c0.048,0.049,0.096,0.097,0.148,0.141c-0.01,0.098-0.013,0.193-0.013,0.293v0.006
		c0,0.521,0.118,1.057,0.368,1.551l0.598,1.189c-0.269,0.201-0.522,0.423-0.755,0.657c-0.738,0.75-1.293,1.655-1.659,2.637
		c-0.074,0.196-0.139,0.396-0.197,0.599l-1.254,0.65l-0.006,0.003c-0.576,0.294-1.182,0.435-1.779,0.435
		c-0.684,0-1.354-0.185-1.93-0.523s-1.056-0.831-1.384-1.466l0,0c-0.277-0.536-0.406-1.102-0.407-1.667
		c0-0.677,0.189-1.354,0.545-1.945C59.281,66.92,59.798,66.416,60.465,66.072L60.465,66.072z M74.31,48.956
		c0.081,0.162,0.343,0.545,0.701,1.05l-0.771,0.397l-0.863-1.842l0.769-0.396C74.131,48.426,74.183,48.7,74.31,48.956z
		 M73.787,53.426c0,0,0.125,0.229,0.198,0.37c0.177,0.346,0.603,0.482,0.948,0.303l1.254-0.647c0.074,0.278,0.202,0.534,0.369,0.763
		c-0.742,0.16-1.407,0.533-1.926,1.051c-0.252,0.255-0.471,0.539-0.646,0.856c-0.365,0.003-0.732,0.039-1.094,0.108
		c-0.056-0.371-0.24-0.7-0.508-0.942c0.141-0.205,0.168-0.481,0.045-0.72c-0.067-0.129-0.186-0.346-0.186-0.346L73.787,53.426z
		 M97.925,54.404c-0.116-0.419-0.29-0.841-0.522-1.266c-0.611-1.118-1.096-2.076-1.471-2.851c0.253-0.485,0.396-1.033,0.396-1.616
		c0-0.365-0.055-0.717-0.159-1.05c0.334-0.147,0.692-0.301,1.081-0.455c1.07-0.422,2.33-0.84,3.705-1.15
		c0.729-0.164,1.492-0.297,2.276-0.388c0.821,1.048,1.562,2.135,2.183,3.255c0.389,0.699,0.73,1.406,1.018,2.126
		c-0.006,0.003-0.015,0.005-0.021,0.008c-2.073,0.713-3.934,1.905-5.369,3.46c-0.718,0.777-1.327,1.651-1.797,2.6
		c-0.469,0.948-0.797,1.974-0.945,3.052c-0.061,0.429-0.088,0.853-0.088,1.274c0,0.089,0.004,0.182,0.006,0.272
		c-0.291,0.399-0.52,0.83-0.679,1.275c-0.202,0.566-0.292,1.15-0.292,1.72c0,0.766,0.156,1.504,0.4,2.209
		c0.145,0.414,0.322,0.817,0.52,1.21c-0.05,0.283-0.09,0.566-0.12,0.85l-4.254-8.438l1.229-0.637
		c0.089-0.039,0.238-0.104,0.427-0.208c0.207-0.112,0.46-0.267,0.735-0.47c0.409-0.308,0.87-0.729,1.25-1.316
		c0.189-0.294,0.356-0.631,0.477-1.008c0.117-0.379,0.188-0.792,0.188-1.229C98.098,55.234,98.039,54.821,97.925,54.404z
		 M113.225,74.872c-0.08-0.043-0.907-0.47-2.092-1.205c-0.892-0.549-1.982-1.274-3.109-2.136c-0.848-0.646-1.713-1.37-2.531-2.154
		c-0.221-0.21-0.437-0.424-0.648-0.644c1.541-1.651,2.732-3.312,3.613-4.975c0.078,0.02,0.158,0.039,0.236,0.061
		c0.892,0.246,1.738,0.7,2.529,1.379c0.594,0.508,1.153,1.144,1.658,1.905c0.756,1.144,1.392,2.574,1.835,4.265
		c0.216,0.827,0.387,1.716,0.504,2.666c0.013,0.341,0.019,0.695,0.019,1.063c0,0.426-0.009,0.87-0.027,1.326
		c-0.462-0.461-0.908-0.818-1.25-1.07c-0.365-0.268-0.615-0.417-0.65-0.438l-0.078-0.042l0,0L113.225,74.872z M102.961,66.471
		c-0.206-0.296-0.398-0.595-0.572-0.896c0.053-0.062,0.107-0.121,0.164-0.181c0.48-0.491,1.09-0.918,1.915-1.247
		c0.153-0.063,0.306-0.117,0.457-0.166C104.375,64.798,103.725,65.629,102.961,66.471z M107.33,58.193
		c-0.279-0.024-0.561-0.036-0.85-0.036c-0.822,0-1.688,0.1-2.588,0.312c-0.775,0.185-1.578,0.452-2.408,0.814
		c0.185-0.55,0.436-1.078,0.748-1.582c0.818-1.31,2.065-2.446,3.559-3.242c0.469-0.249,0.963-0.468,1.473-0.647
		c0.15,0.787,0.229,1.584,0.229,2.391C107.492,56.857,107.44,57.521,107.33,58.193z M90.204,73.978l-4.647-9.22l0.615-0.319
		c1.373,2.729,3.045,6.051,4.642,9.219L90.204,73.978z M88.06,79.498c-0.014,0.006-0.026,0.011-0.04,0.017
		c-0.02,0.008-0.037,0.014-0.057,0.02c-0.018,0.006-0.033,0.012-0.05,0.017c-0.016,0.006-0.03,0.01-0.046,0.016
		c-0.016,0.005-0.031,0.009-0.046,0.013c-0.017,0.005-0.034,0.009-0.05,0.014c-0.014,0.004-0.028,0.006-0.043,0.009
		c-0.018,0.004-0.032,0.008-0.049,0.012c-0.016,0.002-0.031,0.004-0.047,0.006c-0.016,0.004-0.031,0.006-0.046,0.008
		c-0.015,0-0.028,0.002-0.044,0.004c-0.014,0.002-0.029,0.002-0.043,0.002c-0.014,0.002-0.027,0.002-0.041,0.002
		c-0.015,0-0.03,0.002-0.045,0.002c-0.014,0-0.027-0.002-0.041-0.002c-0.012,0-0.025,0-0.037,0
		c-0.014-0.002-0.025-0.002-0.039-0.002c-0.012-0.002-0.021-0.002-0.033-0.004c-0.014-0.002-0.026-0.004-0.039-0.006
		c-0.01-0.002-0.02-0.003-0.029-0.005c-0.013-0.001-0.025-0.005-0.037-0.008c-0.009-0.002-0.017-0.003-0.025-0.006
		c-0.014-0.003-0.025-0.006-0.039-0.011c-0.006-0.001-0.014-0.003-0.02-0.005c-0.012-0.004-0.023-0.008-0.035-0.013
		c-0.006-0.001-0.012-0.003-0.019-0.005c-0.009-0.005-0.017-0.009-0.026-0.012c-0.008-0.003-0.015-0.006-0.021-0.009
		c-0.016-0.008-0.03-0.015-0.043-0.019c-0.054-0.029-0.092-0.06-0.121-0.09c-0.029-0.029-0.051-0.059-0.068-0.095l-0.006-0.013
		l-0.104-0.208l2.16-1.125l0.121,0.239l0.004,0.011c0.027,0.051,0.039,0.1,0.041,0.175c0,0.059-0.01,0.132-0.038,0.218
		c-0.041,0.123-0.123,0.274-0.251,0.418c-0.129,0.143-0.301,0.281-0.512,0.39C88.124,79.468,88.092,79.482,88.06,79.498z
		 M74.84,70.294l1.314,2.611l-1.168,0.615l-1.327-2.614L74.84,70.294z M76.606,73.801l2.899,5.751l-1.152,0.6l-2.911-5.734
		L76.606,73.801z M74.826,63.114l-0.016-0.031l0,0c-0.168-0.333-0.386-0.628-0.638-0.878c-0.272-0.276-0.581-0.493-0.91-0.661
		c-0.089-0.543-0.291-1.049-0.581-1.494c0.08-0.053,0.162-0.104,0.254-0.152c0.154-0.081,0.332-0.145,0.52-0.188
		c0.126-0.031,0.254-0.048,0.384-0.059c0.181,0.394,0.421,0.752,0.715,1.061c-0.015,0.131-0.022,0.263-0.022,0.396v0.004
		c0,0.521,0.119,1.06,0.367,1.554v0.002l0.65,1.286l-0.237,0.125L74.826,63.114z M82.309,48.002
		c-0.121-0.234-0.426-0.527-0.426-0.527l0.592-0.308l2.398,2.855c-0.811,0.139-1.535,0.527-2.092,1.083
		c-0.225,0.229-0.424,0.48-0.589,0.754c-0.048-0.002-0.097-0.004-0.146-0.004c-0.464,0-0.929,0.056-1.384,0.163
		c-0.04,0.01-0.081,0.022-0.12,0.033c-0.095-0.25-0.229-0.475-0.398-0.673c0.234-0.21,0.309-0.556,0.158-0.847
		c-0.072-0.143-0.222-0.359-0.222-0.359l1.839-0.95C82.365,48.992,82.538,48.447,82.309,48.002z M82.557,58.808L82.557,58.808
		L82.557,58.808l-0.012-0.024h-0.002c-0.164-0.323-0.377-0.612-0.621-0.856c-0.207-0.207-0.434-0.381-0.672-0.525
		c-0.092-0.573-0.309-1.104-0.623-1.566c0.102-0.072,0.207-0.14,0.326-0.198c0.154-0.081,0.331-0.146,0.52-0.19
		c0.151-0.036,0.311-0.057,0.469-0.063c0.198,0.469,0.485,0.893,0.84,1.247c0.004,0.004,0.008,0.008,0.011,0.01
		c-0.005,0.081-0.009,0.162-0.009,0.239v0.006c0,0.507,0.109,1.028,0.346,1.512c0.008,0.014,0.021,0.04,0.021,0.04
		s0.012,0.024,0.031,0.063c0.074,0.146,0.281,0.556,0.589,1.171l-0.616,0.32L82.557,58.808z M86.627,58.181
		c-0.094-0.184-0.178-0.349-0.25-0.493c0.723-0.157,1.371-0.513,1.883-1.009l0.26,0.515L86.627,58.181z M80.018,60.924l0.281,0.557
		l-1.894,0.986l-0.302-0.597C78.834,61.736,79.492,61.402,80.018,60.924z M80.799,67.216l1.896-0.981l4.652,9.229l-1.893,0.988
		L80.799,67.216z M90.022,64.935c-0.343-0.681-0.675-1.344-0.991-1.973l1.9-0.982l1.328,2.636l-1.895,0.999
		C90.25,65.386,90.137,65.159,90.022,64.935z M91.375,55.705l-0.555-1.101l-0.012-0.024c-0.168-0.33-0.385-0.63-0.637-0.88
		c-0.24-0.241-0.511-0.44-0.797-0.6c-0.07-0.354-0.188-0.688-0.347-1.001c0.411-0.342,0.856-0.662,1.312-0.957
		c0.002,0.002,0.003,0.003,0.005,0.006c0.552,0.552,1.29,0.922,2.111,1.008l1.3,2.221c0.01,0.026,0.02,0.05,0.027,0.072
		L91.375,55.705z M90.345,46.191c-0.372,0.372-0.661,0.83-0.837,1.341c-0.971,0.545-2.012,1.229-2.975,2.063l-1.809-3.589
		l5.939-3.068l1.192,2.363C91.275,45.469,90.759,45.777,90.345,46.191z M85.938,49.982c-0.129-0.014-0.26-0.02-0.393-0.02
		c-0.064,0-0.129,0-0.191,0.004l-2.512-2.987l1.256-0.65L85.938,49.982z M80.783,47.023l-0.914-1.816l2.908-1.501l0.914,1.814
		L80.783,47.023z M80.425,47.206l-1.099,0.567l-0.863-1.841l1.048-0.54L80.425,47.206z M77.221,48.864
		c-0.178-0.572-0.317-0.994-0.396-1.154c-0.135-0.271-0.334-0.489-0.566-0.635l0.934-0.484l0.94,1.802L77.221,48.864z M67.732,73.97
		l2.35-1.213l4.568,9.06c-0.186,0.024-0.375,0.037-0.566,0.037c-0.484,0-0.988-0.08-1.496-0.243
		c-0.76-0.241-1.521-0.672-2.213-1.271c-0.691-0.601-1.309-1.367-1.785-2.281l0,0c-0.605-1.159-0.887-2.379-0.887-3.503
		C67.703,74.356,67.715,74.163,67.732,73.97z M70.279,65.997c0.722-0.168,1.368-0.526,1.875-1.027l0.302,0.598l-1.894,0.985
		L70.279,65.997z M77.955,88.37l0.176,0.354l0.082,0.16l0.004,0.012c0.021,0.039,0.07,0.063,0.145,0.069
		c0.108,0.297,0.191,0.574,0.25,0.825c0.102,0.423,0.143,0.789,0.143,1.106c0,0.294-0.035,0.551-0.092,0.785
		c-0.053,0.203-0.121,0.392-0.209,0.571c-0.154,0.313-0.365,0.607-0.631,0.895c-0.398,0.428-0.92,0.831-1.479,1.219
		c-0.279,0.193-0.568,0.383-0.855,0.582c-0.281,0.188-0.563,0.386-0.832,0.601c-0.208-0.703-0.31-1.404-0.31-2.076
		c-0.001-1.016,0.229-1.951,0.635-2.711c0.204-0.379,0.45-0.719,0.737-1.009c0.285-0.287,0.609-0.534,0.98-0.724L77.955,88.37z
		 M76.46,97.842c0.154-0.124,0.35-0.266,0.571-0.416c0.098-0.068,0.199-0.138,0.309-0.211c0.024,0.121,0.052,0.24,0.082,0.359
		c0.162,0.605,0.418,1.241,0.793,1.878c0.184,0.312,0.377,0.618,0.586,0.917c-0.615-0.256-1.223-0.627-1.783-1.113
		c-0.354-0.31-0.689-0.66-0.996-1.055C76.172,98.074,76.32,97.956,76.46,97.842z M78.926,83.146l1.893-0.989l0.572,1.135
		l-1.894,0.985L78.926,83.146z M77.699,68.817l0.238-0.123l4.66,9.244l-0.236,0.126L77.699,68.817z M88.844,83.298
		c0.465-0.464,1.1-0.751,1.806-0.752c0.707,0.001,1.343,0.288,1.806,0.752c0.463,0.461,0.748,1.098,0.748,1.804
		c0,0.707-0.285,1.342-0.748,1.806c-0.463,0.463-1.099,0.748-1.806,0.748c-0.706,0-1.341-0.285-1.806-0.748
		c-0.462-0.464-0.746-1.099-0.746-1.806C88.098,84.396,88.382,83.759,88.844,83.298z M91.824,77.852L91.824,77.852
		c-0.012-0.069-0.027-0.141-0.045-0.213c-0.004-0.018-0.009-0.038-0.014-0.056c-0.014-0.053-0.029-0.106-0.046-0.157
		c-0.007-0.021-0.015-0.044-0.021-0.064c-0.017-0.053-0.036-0.105-0.056-0.155c-0.008-0.021-0.016-0.04-0.022-0.058
		c-0.03-0.07-0.06-0.138-0.095-0.201l0.004,0.006l-0.004-0.008l-0.146-0.292l0.746-0.39c0.194,0.385,0.386,0.762,0.572,1.135
		L91.824,77.852z M90.818,66.513l1.896-1l2.855,5.664l-1.902,0.994C92.713,70.273,91.731,68.329,90.818,66.513z M96.883,73.785
		l0.572,1.133l-1.902,0.992c-0.188-0.372-0.377-0.75-0.571-1.134L96.883,73.785z M97.08,78.941L97.08,78.941l-0.039-0.083
		c-0.059-0.112-0.115-0.227-0.174-0.344l1.901-0.992l0.198,0.395l0.002,0.006c0.027,0.052,0.098,0.075,0.203,0.075l0,0l2.968,5.889
		l0.021,0.04c0.019,0.033,0.193,0.353,0.51,0.822c0.239,0.353,0.561,0.789,0.959,1.252c0.298,0.349,0.645,0.712,1.035,1.067
		c0.115,0.103,0.236,0.207,0.359,0.31c-0.076,0.004-0.154,0.006-0.231,0.006c-0.374,0-0.751-0.038-1.147-0.145
		c-0.299-0.08-0.611-0.192-0.943-0.363c-0.5-0.256-1.048-0.637-1.65-1.213c-0.59-0.563-1.229-1.313-1.906-2.299
		c-0.012-0.024-0.027-0.053-0.045-0.086c-0.145-0.286-0.463-0.911-0.904-1.787c-0.33-0.653-0.729-1.445-1.18-2.339
		C97.077,79.068,97.102,78.995,97.08,78.941z M104.04,80.438c-0.62-0.938-1.149-1.954-1.514-2.722
		c-0.185-0.384-0.327-0.707-0.423-0.933c-0.049-0.112-0.084-0.199-0.108-0.257c-0.011-0.028-0.02-0.05-0.024-0.063l-0.004-0.007
		c-0.031-0.084-0.295-0.811-0.553-1.879c-0.18-0.737-0.352-1.64-0.449-2.595c0.965,1.06,1.945,1.976,2.729,2.66
		c0.91,0.793,1.549,1.275,1.568,1.291c0.07,0.051,0.141,0.096,0.215,0.132v0.002h0.002l0,0c0.028,0.013,0.303,0.157,0.693,0.409
		c0.293,0.185,0.646,0.434,1.01,0.724c0.271,0.218,0.545,0.463,0.798,0.721c0.382,0.391,0.712,0.818,0.929,1.234
		c0.111,0.211,0.193,0.418,0.248,0.619s0.083,0.397,0.083,0.598c-0.001,0.28-0.052,0.569-0.194,0.91
		c-0.143,0.336-0.381,0.729-0.771,1.164c-0.145,0.159-0.277,0.286-0.399,0.383c-0.181,0.144-0.333,0.225-0.456,0.272
		c-0.127,0.047-0.227,0.063-0.334,0.063c-0.082,0-0.172-0.012-0.274-0.039c-0.191-0.05-0.433-0.162-0.702-0.351
		c-0.236-0.166-0.492-0.385-0.75-0.651C104.906,81.66,104.451,81.064,104.04,80.438z M107.166,90.013
		c0.323-0.068,0.607-0.132,0.842-0.174c0.181-0.032,0.332-0.051,0.441-0.057c-0.018,0.024-0.035,0.048-0.055,0.073
		c-0.109,0.143-0.264,0.305-0.431,0.458c-0.251,0.23-0.53,0.446-0.742,0.593c-0.104,0.075-0.192,0.134-0.251,0.172
		c-0.021,0.014-0.035,0.022-0.049,0.029c-0.02,0.011-0.045,0.025-0.074,0.04c-0.406-0.148-0.801-0.329-1.188-0.54
		c-0.179-0.099-0.354-0.202-0.528-0.313C105.916,90.263,106.602,90.127,107.166,90.013z M108.146,85.931
		c0.4-0.115,0.789-0.296,1.152-0.533c0.41-0.268,0.789-0.605,1.146-1.004c0.574-0.641,1.004-1.3,1.291-1.979
		c0.286-0.679,0.422-1.377,0.42-2.042c0.002-0.58-0.1-1.136-0.27-1.643c-0.145-0.445-0.342-0.859-0.567-1.241
		c-0.106-0.177-0.221-0.352-0.338-0.518c0.448,0.254,0.759,0.418,0.878,0.479c0.07,0.043,0.266,0.171,0.52,0.367
		c0.215,0.163,0.471,0.377,0.728,0.626c0.386,0.377,0.771,0.841,1.042,1.335c0.135,0.247,0.24,0.501,0.315,0.757
		c0.072,0.258,0.112,0.519,0.112,0.792c0,0.21-0.023,0.428-0.079,0.665c-0.083,0.353-0.238,0.744-0.513,1.185
		c-0.271,0.441-0.663,0.931-1.214,1.456c-0.67,0.641-1.276,1.043-1.81,1.283c-0.535,0.241-0.998,0.326-1.429,0.328
		c-0.312,0-0.608-0.047-0.903-0.134C108.467,86.063,108.306,86.002,108.146,85.931z M111.199,90.849
		c0.084-0.177,0.158-0.371,0.214-0.582c0.054-0.209,0.089-0.441,0.089-0.683c0-0.187-0.02-0.381-0.064-0.571
		c-0.01-0.049-0.025-0.098-0.04-0.146c0.253-0.081,0.509-0.174,0.763-0.29c0.887-0.399,1.766-1.007,2.631-1.837
		c0.27-0.263,0.518-0.521,0.746-0.781c0.026,0.032,0.055,0.065,0.084,0.097c0.179,0.204,0.423,0.398,0.707,0.528
		c0.144,0.064,0.295,0.113,0.447,0.145c0.152,0.033,0.306,0.046,0.454,0.046c0.147,0,0.29-0.013,0.427-0.037
		c-0.363,0.411-0.725,0.794-1.078,1.146c-1.424,1.417-2.752,2.345-3.961,2.918c-0.605,0.285-1.184,0.484-1.734,0.611
		c-0.006,0.001-0.012,0.003-0.018,0.003C110.986,91.245,111.1,91.056,111.199,90.849z M112.337,50.376
		c-0.521-0.063-1.038-0.094-1.553-0.094c-0.496,0-0.987,0.028-1.473,0.082c-0.492-1.313-1.125-2.572-1.858-3.774
		c0.162,0.096,0.332,0.198,0.508,0.311c1.055,0.659,2.366,1.596,3.734,2.861C111.908,49.959,112.121,50.165,112.337,50.376z
		 M100.488,36.445c3.713,1.581,7.107,3.777,10.059,6.457c-1.77-0.513-3.527-0.719-5.208-0.719c-0.391,0-0.777,0.012-1.158,0.032
		c-0.767-0.865-1.572-1.692-2.394-2.476c-1.98-1.891-4.057-3.537-5.963-4.903C97.426,35.268,98.982,35.806,100.488,36.445z
		 M86.538,33.612c0.702,0,1.397,0.021,2.091,0.063c0.639,0.363,1.477,0.859,2.444,1.472c1.483,0.94,3.271,2.158,5.11,3.606
		c1.379,1.084,2.787,2.295,4.117,3.611c0.109,0.108,0.218,0.216,0.327,0.326c-0.165,0.035-0.328,0.07-0.49,0.107
		c-2.391,0.55-4.421,1.364-5.87,2.042c-0.287,0.138-0.551,0.265-0.791,0.388c-0.212-0.04-0.43-0.063-0.654-0.062
		c-0.082,0-0.16,0.003-0.242,0.009l-1.283-2.551c0.039-0.077,0.063-0.163,0.063-0.258c0-0.32-0.261-0.582-0.582-0.582
		c-0.237,0-0.442,0.145-0.533,0.35l-5.928,3.063l-0.914-1.813l0.926-0.48c0.222-0.114,0.311-0.388,0.195-0.61
		c-0.115-0.221-0.389-0.309-0.611-0.193l-5.832,3.011l-0.014-0.024l-0.001-0.002c-0.273-0.554-0.575-1.345-0.876-2.23
		c-0.451-1.326-0.904-2.867-1.281-4.147c-0.188-0.644-0.357-1.219-0.498-1.673c-0.07-0.23-0.133-0.425-0.189-0.585
		c-0.055-0.162-0.102-0.282-0.145-0.37c-0.087-0.176-0.196-0.332-0.321-0.47C78.445,34.316,82.407,33.613,86.538,33.612z
		 M71.186,37.082c0.013,0.276,0.08,0.554,0.211,0.82c0.029,0.055,0.069,0.124,0.121,0.207c0.193,0.304,0.547,0.797,0.992,1.405
		c0.667,0.91,1.533,2.076,2.328,3.21c0.795,1.131,1.522,2.235,1.907,3.013l0.001,0.004l0.025,0.047l-3.779,1.952l-0.006-0.013
		l-0.002-0.004c-0.273-0.553-0.574-1.343-0.875-2.227c-0.453-1.327-0.906-2.869-1.281-4.15c-0.189-0.64-0.357-1.218-0.499-1.673
		c-0.07-0.226-0.134-0.425-0.189-0.582c-0.056-0.162-0.103-0.284-0.146-0.37c-0.145-0.297-0.354-0.537-0.598-0.724
		C69.982,37.677,70.58,37.372,71.186,37.082z M66.14,40.024c0.034,0.175,0.093,0.348,0.175,0.517
		c0.029,0.059,0.069,0.128,0.121,0.209c0.191,0.304,0.547,0.799,0.993,1.404c0.667,0.911,1.532,2.075,2.327,3.21
		c0.797,1.133,1.523,2.238,1.908,3.014l0.002,0.003l1.377,2.639l-3.938,2.036l-1.252-2.678l-0.002-0.004
		c-0.273-0.552-0.574-1.344-0.875-2.228c-0.452-1.328-0.904-2.868-1.283-4.15c-0.187-0.639-0.355-1.216-0.496-1.671
		c-0.07-0.227-0.135-0.425-0.189-0.586c-0.057-0.159-0.103-0.28-0.145-0.369c-0.051-0.101-0.109-0.195-0.172-0.284
		C65.165,40.72,65.646,40.364,66.14,40.024z M61.574,43.804c0.192,0.274,0.439,0.615,0.721,1.001
		c0.668,0.912,1.535,2.076,2.328,3.209c0.797,1.134,1.524,2.236,1.908,3.015l0.002,0.002l1.379,2.642l-5.326,2.751
		c-1.174-3.411-2.961-5.591-4.485-6.92c-0.285-0.248-0.562-0.47-0.823-0.659C58.555,47.032,59.994,45.346,61.574,43.804z
		 M50.716,71.015c-0.016-0.442-0.023-0.884-0.023-1.327c0-4.987,1.003-9.731,2.815-14.045c0.923-2.191,2.055-4.273,3.369-6.221
		c0.27,0.199,0.555,0.427,0.849,0.69c1.489,1.325,3.237,3.507,4.345,6.99c0.012,0.042,0.033,0.08,0.059,0.111
		c0.125,0.196,0.377,0.271,0.586,0.162v-0.001l0.014-0.006h0.001c0,0,2.888-1.04,3.007-0.807c0.23,0.444,0.776,0.618,1.221,0.39
		c0,0,2.031-0.771,2.098-0.644c0.137,0.268,0.422,0.411,0.703,0.379c0.045,0.326,0.189,0.619,0.403,0.851
		c-0.267,0.225-0.507,0.476-0.729,0.743c-0.007,0-0.015-0.001-0.021-0.001c-1.077,0-2.058,0.438-2.763,1.143
		c-0.164,0.166-0.314,0.344-0.445,0.535c-0.342,0.12-0.717,0.256-1.13,0.416c-1.306,0.501-2.937,1.197-4.659,2.108
		c-1.292,0.683-2.637,1.487-3.937,2.423c-1.946,1.405-3.8,3.111-5.192,5.186C51.086,70.391,50.896,70.696,50.716,71.015z
		 M72.341,97.688c-0.485,0.541-0.958,1.152-1.364,1.841c-0.324,0.552-0.606,1.155-0.809,1.813c-0.039,0.123-0.074,0.257-0.107,0.39
		c-5.338-2.786-9.896-6.885-13.246-11.873c-1.58-2.354-2.891-4.902-3.889-7.606c-0.064-0.175-0.475-1.396-0.563-1.704
		c-0.326-1.118-0.469-2.16-0.469-3.133c0-1.272,0.242-2.439,0.672-3.536c0.376-0.96,0.898-1.865,1.536-2.72
		c0.409-0.545,0.866-1.069,1.36-1.572c0.02,0.972,0.256,1.961,0.73,2.874c0.586,1.135,1.466,2.034,2.494,2.641
		c1.029,0.606,2.207,0.929,3.412,0.929c0.914,0.001,1.845-0.188,2.727-0.576c0.121,1.325,0.51,2.672,1.177,3.954h-0.001
		c0.859,1.646,2.072,2.979,3.473,3.908c0.699,0.461,1.446,0.824,2.223,1.075c0.775,0.248,1.58,0.381,2.387,0.382
		c0.645,0,1.293-0.089,1.922-0.266l0.635,1.262l-1.291,0.671c-0.645,0.336-1.219,0.766-1.712,1.267
		c-0.737,0.748-1.292,1.654-1.659,2.635c-0.367,0.982-0.55,2.043-0.55,3.132C71.429,94.867,71.73,96.307,72.341,97.688z
		 M81.498,109.003c-0.977,0.278-1.843,0.399-2.611,0.399c-0.658-0.001-1.244-0.089-1.775-0.252
		c-0.397-0.122-0.768-0.286-1.117-0.491c-0.522-0.31-1.004-0.713-1.448-1.224c-0.059-0.064-0.114-0.134-0.173-0.202
		c2.46,0.773,5.021,1.313,7.66,1.604C81.851,108.897,81.672,108.953,81.498,109.003z M81.314,104.051
		c-0.729,0.164-1.439,0.234-2.127,0.234c-1.013,0-1.977-0.152-2.855-0.388c-1.318-0.354-2.446-0.889-3.229-1.337
		c-0.074-0.045-0.144-0.083-0.212-0.125c0.054-0.215,0.124-0.429,0.21-0.64c0.16-0.401,0.377-0.794,0.632-1.169
		c0.074-0.109,0.152-0.217,0.233-0.324c0.637,0.757,1.364,1.409,2.15,1.929c0.699,0.463,1.447,0.827,2.223,1.077
		c0.775,0.248,1.58,0.382,2.39,0.382c0.646,0,1.295-0.086,1.926-0.267c0.106,0.031,0.212,0.061,0.319,0.087
		C82.412,103.751,81.857,103.927,81.314,104.051z M82.715,100.259c-0.018-0.01-0.034-0.021-0.052-0.031
		c-0.347-0.229-0.683-0.538-1.006-0.919c-0.323-0.382-0.632-0.832-0.925-1.33c-0.244-0.417-0.395-0.8-0.488-1.15
		c-0.094-0.353-0.127-0.67-0.127-0.961c0-0.454,0.086-0.838,0.18-1.124c0.01-0.012,0.02-0.021,0.027-0.032
		c0.384-0.48,0.726-1.037,0.967-1.679c0.054-0.139,0.1-0.28,0.141-0.426l3.383,6.56L82.715,100.259z M87.633,105.255
		c-0.127,0.166-0.264,0.328-0.412,0.495c-0.242,0.005-0.484,0.009-0.729,0.009c-0.462-0.001-0.922-0.014-1.379-0.031
		c0.938-0.471,2.037-1.027,3.238-1.645C88.162,104.478,87.926,104.868,87.633,105.255z M85.707,98.701l-4.035-7.827
		c-0.002-0.559-0.074-1.147-0.22-1.758c-0.114-0.475-0.272-0.968-0.476-1.48c0.074-0.098,0.108-0.179,0.089-0.235l0.001-0.002
		l-0.006-0.013v-0.002l0,0l-0.006-0.01l-0.014-0.031l-0.001-0.004l-0.229-0.454l1.894-0.989l0.235,0.468l0.02,0.039l0.004,0.008
		l0.016,0.021c0.035,0.035,0.099,0.053,0.188,0.053l4.912,9.75c0.084,0.232,0.182,0.504,0.281,0.807
		c0.025,0.077,0.051,0.154,0.076,0.237L85.707,98.701z M90.762,95.074l-5.016-9.954c0.058-0.083,0.082-0.152,0.064-0.205
		l0.003-0.001l-0.006-0.015l0,0l-0.001-0.001l-0.246-0.49l2.526-1.315c-0.435,0.553-0.694,1.25-0.694,2.009
		c0,0.897,0.365,1.716,0.953,2.305c0.59,0.588,1.406,0.95,2.304,0.95s1.716-0.362,2.304-0.95c0.59-0.589,0.955-1.407,0.955-2.305
		c0-0.9-0.365-1.716-0.955-2.303c-0.588-0.59-1.406-0.956-2.304-0.956c-0.06,0-0.12,0.003-0.179,0.006l3.539-1.846
		c0.053,0.104,0.104,0.205,0.154,0.305l0.068,0.134v0.002c0.027,0.052,0.099,0.076,0.203,0.076l0,0
		c0.002,0.006,0.005,0.011,0.008,0.016c0.628,1.244,1.154,2.288,1.531,3.03c0.188,0.373,0.337,0.665,0.443,0.876
		c0.053,0.104,0.096,0.187,0.126,0.246c0.017,0.031,0.029,0.057,0.041,0.077c0.005,0.01,0.009,0.019,0.015,0.027
		c0.026,0.053,0.06,0.12,0.105,0.207c0.207,0.391,0.635,1.156,1.27,2.094c0.476,0.704,1.068,1.505,1.775,2.32
		c0.383,0.438,0.8,0.881,1.251,1.316l-9.942,5.185c-0.101-0.298-0.193-0.553-0.268-0.76L90.762,95.074z M106.574,99.603
		c-4.582,3.111-9.91,5.184-15.666,5.891c0.314-0.625,0.549-1.258,0.713-1.883c0.119-0.455,0.201-0.902,0.257-1.343
		c5.857-3.032,12.629-6.591,15.292-7.99c0.68,0.151,1.391,0.237,2.129,0.237c0.969,0,1.98-0.146,3.01-0.466
		c0.327-0.103,0.656-0.224,0.988-0.359C111.311,95.929,109.053,97.919,106.574,99.603z M119.566,103.907
		c-0.534,0.515-0.992,1.065-1.379,1.634c-0.044,0.063-0.086,0.126-0.128,0.192c0.011-0.126,0.018-0.248,0.018-0.368
		c0-0.635-0.146-1.19-0.37-1.666c-0.336-0.71-0.839-1.231-1.284-1.594c-0.223-0.185-0.431-0.325-0.601-0.432
		c-0.084-0.054-0.158-0.098-0.215-0.132c-0.061-0.035-0.106-0.063-0.125-0.075c-0.012-0.007-0.055-0.034-0.109-0.072
		c-0.098-0.063-0.24-0.158-0.424-0.265c-0.551-0.313-1.46-0.719-2.605-0.719c-0.479,0-0.997,0.072-1.541,0.248
		c3.153-2.593,5.865-5.702,8.243-9.212c1.534-2.263,2.843-4.687,3.892-7.248C122.615,89.411,121.911,96.368,119.566,103.907z"/>
	<polygon points="74.811,63.083 74.811,63.083 74.811,63.085 	"/>
	<polygon points="74.811,63.083 74.811,63.083 74.811,63.083 	"/>
</g>
<g id="weisse_Fläche_1_">
	<g>
		<path fill="#FFFFFF" d="M101.857,76.381l-0.01-0.025l-0.021-0.044L90.871,54.58l-0.013-0.026
			c-0.166-0.328-0.384-0.633-0.646-0.895c-0.37-0.369-0.814-0.653-1.321-0.845c-0.09-0.035-0.186-0.065-0.289-0.096
			c-0.475-1.263-1.695-2.108-3.047-2.108c-1.797,0-3.258,1.462-3.258,3.259c0,0.68,0.209,1.331,0.604,1.883
			c-0.115,0.375-0.174,0.751-0.174,1.128c0,0.539,0.123,1.07,0.352,1.543l0.021,0.04l0.032,0.063
			c1.045,2.077,7.506,14.911,10.982,21.809l0.066,0.126l0,0l0.004,0.01c0.035,0.07,0.121,0.105,0.252,0.105
			c0.305,0,0.865-0.195,1.428-0.494c0.676-0.357,1.307-0.846,1.279-1.116l0.008-0.007l-0.02-0.044l-0.04-0.082l-0.279-0.553
			c-1.911-3.788-4.605-9.134-6.737-13.371c-1.119-2.223-2.119-4.211-2.838-5.639l-0.35-0.695l-0.5-0.994l-0.06-0.117l-0.171-0.34
			l-0.025-0.052c0.677-0.12,1.305-0.459,1.78-0.957l11.002,21.821v0.002l0.005,0.012c0.037,0.068,0.123,0.105,0.254,0.105
			c0.307,0,0.855-0.191,1.428-0.494c0.635-0.337,1.307-0.83,1.28-1.114C101.877,76.422,101.861,76.386,101.857,76.381z
			 M99.227,77.638l-10.975-21.77c-0.018-0.037-0.037-0.066-0.059-0.094c0.404-0.556,0.617-1.215,0.617-1.905
			c0-0.226-0.022-0.449-0.068-0.667l0.004,0.001c0.449,0.171,0.845,0.422,1.173,0.749c0.231,0.234,0.423,0.497,0.569,0.787
			l0.012,0.026l10.938,21.694c-0.106,0.13-0.43,0.416-1.032,0.735C99.883,77.473,99.447,77.614,99.227,77.638z M85.727,57.19
			l0.061,0.118l0.165,0.331l0.065,0.127l0.848,1.688l0.883,1.754l1.955,3.889c1.91,3.795,4.313,8.559,6.131,12.165l0.721,1.433
			l0.146,0.287c-0.119,0.141-0.469,0.438-1.031,0.734c-0.525,0.278-0.961,0.42-1.18,0.441l-0.006-0.01
			C90.82,72.88,84.064,59.458,83.502,58.34l-0.03-0.062l-0.019-0.039c-0.204-0.416-0.313-0.884-0.313-1.354
			c0-0.247,0.028-0.495,0.085-0.74c0.61,0.625,1.454,0.979,2.329,0.979c0.045,0,0.092-0.001,0.138-0.003l0.013,0.027l0.029-0.007
			c0,0.003,0.001,0.004,0.002,0.007l-0.025,0.012L85.727,57.19z"/>
		<path fill="#FFFFFF" d="M85.863,84.887v-0.004l-0.012-0.019L74.877,63.089l-0.012-0.021l-0.005-0.01
			c-0.167-0.333-0.386-0.633-0.647-0.895c-0.369-0.369-0.813-0.654-1.322-0.846c-0.123-0.047-0.254-0.09-0.388-0.126
			c-0.435-1.352-1.677-2.258-3.101-2.258c-1.797,0-3.258,1.462-3.258,3.257c0,0.76,0.267,1.498,0.752,2.084
			c-0.111,0.368-0.169,0.74-0.169,1.109c0,0.555,0.13,1.1,0.374,1.583l10.979,21.78l0.082,0.162l0,0l0.001,0.008l0.003,0.006
			c0.037,0.067,0.121,0.104,0.253,0.104c0.308,0,0.855-0.19,1.429-0.494c0.658-0.35,1.282-0.826,1.279-1.103l0.014-0.006
			l-0.023-0.051l-0.003-0.008l0,0l-0.003-0.007l-0.005-0.01l-0.014-0.029L70.078,65.47l-0.014-0.035
			c-0.002-0.013-0.004-0.028-0.004-0.053l0,0c0.646-0.134,1.229-0.455,1.687-0.934l0.026,0.011l0,0l0.008,0.005
			c0.031,0.016,0.055,0.034,0.072,0.052l0.029,0.042l11.006,21.831l0.02,0.039l0.002,0.005l0.006,0.009l0.016,0.023
			c0.051,0.051,0.128,0.075,0.234,0.075c0.309,0,0.855-0.188,1.428-0.492c0.654-0.348,1.273-0.821,1.279-1.096l0.018-0.006
			L85.863,84.887L85.863,84.887z M83.219,86.122L72.252,64.366c-0.03-0.055-0.058-0.093-0.101-0.137
			c-0.041-0.041-0.082-0.074-0.13-0.104c0.417-0.563,0.637-1.23,0.637-1.936c0-0.176-0.015-0.354-0.045-0.53
			c0.047,0.015,0.09,0.029,0.132,0.046c0.453,0.17,0.848,0.422,1.175,0.751c0.23,0.231,0.423,0.495,0.568,0.787l0.004,0.008l0,0
			l0.012,0.021L85.43,84.948c-0.106,0.128-0.428,0.415-1.03,0.732C83.879,85.959,83.435,86.101,83.219,86.122z M78.475,88.61
			l-0.023-0.051L67.472,66.781c-0.216-0.427-0.329-0.908-0.329-1.392c0-0.254,0.031-0.514,0.09-0.769
			c0.6,0.536,1.365,0.828,2.17,0.828c0.078,0,0.158-0.004,0.246-0.011c0.002,0.033,0.007,0.062,0.013,0.091
			c0.011,0.039,0.024,0.077,0.046,0.124l10.979,21.777c-0.117,0.143-0.467,0.436-1.031,0.737
			C79.131,88.444,78.695,88.586,78.475,88.61z"/>
		<path fill="#FFFFFF" d="M91.688,76.919l-0.017-0.037l-0.007-0.013l-0.48-0.953c0.01-0.033,0.012-0.065,0.007-0.092l-0.017-0.05
			l-0.008-0.018l-8.559-16.974l-0.014-0.026l-0.027-0.054l-0.002,0.001c-0.16-0.303-0.363-0.578-0.604-0.817
			c-0.368-0.369-0.813-0.654-1.32-0.846c-0.054-0.021-0.107-0.04-0.162-0.058c-0.448-1.32-1.685-2.205-3.082-2.205
			c-1.798,0-3.257,1.461-3.257,3.258c0,0.651,0.191,1.278,0.555,1.814l-0.005,0.012l-0.021,0.058l0.008,0.003l-0.008-0.003
			c-0.129,0.39-0.193,0.791-0.193,1.188c0,0.554,0.129,1.102,0.375,1.584l8.568,16.999c0.018,0.035,0.049,0.061,0.092,0.08
			l0.471,0.937l0.015,0.027c0.163,0.323,0.378,0.622,0.636,0.878c0.365,0.368,0.804,0.647,1.305,0.836
			c0.464,0.174,0.961,0.264,1.479,0.264c0.721,0,1.457-0.18,2.127-0.517c0.729-0.367,1.346-0.903,1.786-1.552
			c0.222-0.33,0.396-0.682,0.513-1.044c0.128-0.387,0.192-0.78,0.192-1.173C92.032,77.899,91.912,77.383,91.688,76.919
			L91.688,76.919z M85.936,78.203c-0.107,0.128-0.43,0.418-1.032,0.735c-0.52,0.274-0.964,0.418-1.179,0.441
			c-0.735-1.459-8.42-16.705-8.506-16.877c-0.215-0.426-0.328-0.906-0.328-1.392c0-0.285,0.037-0.574,0.115-0.864
			c0.617,0.666,1.481,1.043,2.39,1.043h0.024c0.009,0.03,0.02,0.057,0.033,0.085L85.936,78.203z M87.414,82.396
			c-0.48,0-0.939-0.081-1.369-0.243c-0.457-0.171-0.859-0.43-1.191-0.761c-0.234-0.235-0.43-0.505-0.578-0.803l-0.014-0.026
			l-0.396-0.786c0.32-0.056,0.773-0.229,1.234-0.473c0.449-0.24,0.84-0.512,1.068-0.744l0.427,0.847l0.005,0.012
			c0.027,0.053,0.058,0.096,0.098,0.133l0.016,0.017h0.002c0.039,0.038,0.088,0.071,0.141,0.101c0,0,0.105,0.055,0.248,0.088
			c0.055,0.016,0.199,0.036,0.307,0.036c0.273,0,0.554-0.069,0.816-0.202c0.217-0.107,0.41-0.256,0.559-0.425v0.001
			c0.169-0.188,0.246-0.362,0.283-0.475c0.029-0.092,0.045-0.182,0.046-0.262c0-0.09-0.017-0.165-0.05-0.235l0,0l-0.007-0.013
			l-0.38-0.755c0.32-0.056,0.773-0.231,1.234-0.473c0.449-0.241,0.84-0.513,1.068-0.745l0.396,0.787l0.006,0.014
			c0.219,0.43,0.334,0.918,0.334,1.411c0,0.365-0.058,0.724-0.174,1.082c-0.109,0.333-0.271,0.657-0.477,0.961
			c-0.41,0.605-0.986,1.108-1.668,1.452C88.773,82.231,88.087,82.396,87.414,82.396z M89.717,76.586
			c-0.52,0.278-0.964,0.421-1.179,0.441l-8.53-16.921l-0.006-0.012c-0.012-0.021-0.024-0.041-0.037-0.061
			c0.449-0.578,0.688-1.267,0.688-1.998c0-0.19-0.017-0.379-0.049-0.563c0.406,0.168,0.764,0.405,1.063,0.705
			c0.224,0.225,0.411,0.483,0.558,0.765l0.043,0.085l8.482,16.822C90.641,75.982,90.317,76.266,89.717,76.586z M88.322,77.42
			l0.451,0.896l0.004,0.008c0.015,0.032,0.021,0.052,0.023,0.105c0,0.033-0.007,0.09-0.031,0.166
			c-0.039,0.118-0.118,0.251-0.22,0.364l0.009,0.009l-0.01-0.009c-0.123,0.139-0.283,0.26-0.463,0.352
			c-0.215,0.112-0.453,0.169-0.668,0.169c-0.236,0-0.375-0.064-0.412-0.086l-0.014,0.025l0,0l0.014-0.027
			c-0.036-0.02-0.064-0.041-0.088-0.063c-0.018-0.017-0.026-0.03-0.039-0.053l-0.005-0.014l-0.503-0.997
			c0.01-0.033,0.012-0.065,0.005-0.095c-0.005-0.021-0.019-0.048-0.019-0.048l-0.008-0.02l-8.49-16.847
			c0.68-0.098,1.318-0.411,1.813-0.895l8.54,16.944l0.012,0.023l0.005,0.009l0.019,0.03C88.27,77.392,88.293,77.408,88.322,77.42z"
			/>
	</g>
	<polygon fill="#FFFFFF" points="26.572,74.026 26.572,74.026 26.572,74.026 	"/>
	<polygon fill="#FFFFFF" points="23.908,71.376 23.908,71.376 23.909,71.376 	"/>
	<path fill="#FFFFFF" d="M26.531,73.966L26.531,73.966L26.531,73.966c-0.035,0.028-0.072,0.048-0.105,0.059
		c-0.038,0.012-0.07,0.016-0.099,0.016c-0.075-0.002-0.127-0.021-0.177-0.041c-0.049-0.02-0.096-0.047-0.144-0.078
		c-0.095-0.061-0.197-0.14-0.31-0.24c-0.223-0.193-0.486-0.46-0.75-0.771c-0.17-0.195-0.32-0.39-0.449-0.565
		c-0.129-0.18-0.234-0.345-0.312-0.488c-0.052-0.096-0.093-0.181-0.118-0.267c-0.016-0.047-0.027-0.095-0.027-0.157
		c0-0.034,0.004-0.075,0.02-0.118c0.016-0.044,0.045-0.095,0.088-0.133l0,0l0,0l0,0c-0.07,0.042-0.233,0.189-0.239,0.194h-0.001
		l-0.01,0.01l0.01-0.01l0,0c-0.045,0.038-0.082,0.098-0.098,0.142c-0.016,0.041-0.012,0.087-0.013,0.119
		c0.001,0.062,0.015,0.11,0.029,0.162c0.024,0.084,0.065,0.172,0.117,0.266c0.078,0.146,0.185,0.309,0.313,0.486
		c0.13,0.181,0.28,0.369,0.446,0.569c0.268,0.309,0.528,0.573,0.753,0.77c0.112,0.1,0.214,0.18,0.31,0.239
		c0.049,0.031,0.094,0.056,0.144,0.076s0.118,0.044,0.194,0.046c0.029,0,0.063-0.01,0.099-0.021
		c0.035-0.011,0.072-0.031,0.104-0.058l0,0l0,0l0,0l0,0h0.001c0.007-0.006,0.169-0.14,0.224-0.209V73.966L26.531,73.966z"/>
	<polygon fill="#FFFFFF" points="24.148,71.181 24.148,71.182 24.15,71.181 	"/>
	<polygon fill="#FFFFFF" points="29.083,71.785 29.083,71.784 29.083,71.784 	"/>
	<polygon fill="#FFFFFF" points="29.083,71.785 29.083,71.785 29.083,71.785 	"/>
	<polygon fill="#FFFFFF" points="29.083,71.784 29.083,71.784 29.084,71.783 	"/>
	<polygon fill="#FFFFFF" points="29.083,71.785 29.083,71.785 29.082,71.785 	"/>
	<path fill="#FFFFFF" d="M28.879,71.856c-0.075,0-0.127-0.019-0.178-0.037c-0.048-0.022-0.094-0.048-0.143-0.079
		c-0.094-0.06-0.197-0.14-0.309-0.235c-0.224-0.196-0.485-0.463-0.752-0.775c-0.168-0.195-0.318-0.389-0.447-0.563
		c-0.129-0.181-0.234-0.344-0.313-0.486c-0.051-0.097-0.092-0.184-0.119-0.269c-0.014-0.05-0.025-0.1-0.027-0.161
		c0-0.033,0.004-0.072,0.02-0.116c0.012-0.033,0.032-0.072,0.059-0.104c0.01-0.014,0.018-0.021-0.005-0.002
		c-0.065,0.056-0.194,0.166-0.196,0.168c-0.043,0.037-0.074,0.091-0.089,0.137c-0.015,0.044-0.019,0.083-0.019,0.118
		c0,0.06,0.012,0.11,0.026,0.159c0.026,0.085,0.067,0.173,0.118,0.266c0.078,0.145,0.185,0.311,0.313,0.487
		c0.129,0.178,0.281,0.369,0.447,0.566c0.268,0.309,0.527,0.579,0.752,0.771c0.111,0.099,0.215,0.179,0.31,0.239
		c0.048,0.031,0.095,0.055,0.144,0.076c0.049,0.021,0.102,0.037,0.176,0.038c0.029,0,0.07,0.005,0.105-0.007
		c0.06-0.006,0.325-0.249,0.33-0.262c-0.032,0.027-0.07,0.047-0.105,0.059C28.941,71.853,28.908,71.856,28.879,71.856z"/>
	<g>
		<path fill="#FFFFFF" d="M67.908,50.351c-0.25-0.508-0.543-1.254-0.873-2.226c-0.461-1.353-0.935-2.966-1.28-4.146l-0.046-0.154
			c-0.174-0.589-0.323-1.1-0.453-1.518c-0.074-0.243-0.139-0.437-0.191-0.589c-0.061-0.175-0.107-0.292-0.146-0.377
			c-0.359-0.725-1.086-1.174-1.896-1.174c-0.323,0-0.646,0.076-0.938,0.219c-0.726,0.362-1.178,1.087-1.176,1.896
			c0,0.325,0.074,0.643,0.22,0.937c0.028,0.059,0.068,0.128,0.123,0.214c0.188,0.3,0.535,0.781,0.995,1.409
			c0.138,0.188,0.283,0.386,0.436,0.593c0.59,0.804,1.261,1.715,1.893,2.614c0.943,1.344,1.566,2.327,1.902,3.005l2.188,4.19
			c0.017,0.031,0.043,0.061,0.074,0.083c0.016,0.01,0.076,0.05,0.166,0.092c0.088,0.038,0.221,0.091,0.383,0.092
			c0.081,0,0.156-0.013,0.227-0.042c0.121-0.048,0.225-0.144,0.293-0.271c0.066-0.121,0.105-0.276,0.118-0.473
			c0.003-0.036-0.005-0.077-0.021-0.11L67.908,50.351z M69.284,55.084v-0.028c-0.05,0-0.124-0.02-0.192-0.052
			c-0.021-0.009-0.04-0.019-0.055-0.027l-2.155-4.128c-0.262-0.527-0.675-1.208-1.264-2.084c-0.801-1.192-1.762-2.499-2.534-3.551
			l-0.113-0.154c-0.356-0.484-0.665-0.903-0.911-1.251c-0.141-0.196-0.256-0.363-0.343-0.492c-0.088-0.136-0.152-0.243-0.182-0.301
			c-0.113-0.229-0.172-0.477-0.172-0.733c0-0.636,0.354-1.206,0.922-1.487c0.232-0.114,0.48-0.175,0.736-0.175
			c0.635,0,1.205,0.354,1.488,0.926c0.018,0.036,0.045,0.1,0.076,0.184c0.126,0.338,0.318,0.976,0.507,1.617
			c0.064,0.213,0.131,0.44,0.2,0.678c0.284,0.967,0.605,2.063,0.943,3.124c0.51,1.611,0.91,2.687,1.262,3.399l1.968,4.201
			c-0.007,0.067-0.019,0.125-0.034,0.172c-0.018,0.057-0.041,0.097-0.07,0.115c-0.014,0.01-0.031,0.02-0.074,0.02L69.284,55.084
			C69.285,55.084,69.285,55.084,69.284,55.084z"/>
		<path fill="#FFFFFF" d="M73.041,47.702c-0.252-0.509-0.543-1.254-0.875-2.224c-0.457-1.347-0.913-2.902-1.279-4.149
			c-0.182-0.615-0.355-1.21-0.499-1.673c-0.077-0.244-0.138-0.438-0.19-0.587c-0.061-0.176-0.107-0.293-0.148-0.375
			c-0.359-0.729-1.085-1.179-1.896-1.179l0,0c-0.322,0-0.646,0.076-0.937,0.22c-0.726,0.359-1.176,1.087-1.175,1.896
			c0,0.327,0.072,0.644,0.219,0.936c0.027,0.06,0.068,0.13,0.124,0.216c0.183,0.29,0.504,0.737,0.995,1.406
			c0.143,0.199,0.297,0.405,0.455,0.624c0.584,0.795,1.247,1.696,1.873,2.587c0.942,1.343,1.564,2.323,1.9,3.005l2.189,4.189
			c0.018,0.031,0.042,0.059,0.073,0.082c0.052,0.032,0.108,0.064,0.165,0.09c0.088,0.04,0.225,0.093,0.385,0.094
			c0.08,0,0.156-0.014,0.227-0.042c0.12-0.048,0.225-0.146,0.291-0.269c0.067-0.124,0.107-0.281,0.12-0.478
			c0.003-0.036-0.005-0.073-0.021-0.109L73.041,47.702z M74.418,52.434v-0.029c-0.051,0-0.127-0.02-0.193-0.051
			c-0.021-0.009-0.039-0.019-0.055-0.027L72.014,48.2c-0.264-0.529-0.678-1.211-1.265-2.088c-0.799-1.188-1.76-2.496-2.533-3.548
			c-0.433-0.589-0.759-1.033-1.024-1.406c-0.14-0.198-0.256-0.362-0.343-0.493c-0.085-0.129-0.15-0.236-0.181-0.299
			c-0.115-0.229-0.174-0.478-0.174-0.734c0-0.637,0.355-1.207,0.924-1.488c0.231-0.115,0.479-0.174,0.734-0.174
			c0.637,0,1.207,0.355,1.488,0.926c0.021,0.04,0.049,0.104,0.077,0.184c0.128,0.343,0.328,1.008,0.507,1.617
			c0.07,0.236,0.145,0.491,0.223,0.755c0.277,0.943,0.592,2.013,0.92,3.048c0.512,1.609,0.912,2.686,1.262,3.398l1.969,4.202
			c-0.008,0.066-0.019,0.124-0.033,0.168c-0.029,0.089-0.062,0.11-0.072,0.118c-0.014,0.011-0.03,0.019-0.072,0.019L74.418,52.434
			L74.418,52.434z"/>
		<path fill="#FFFFFF" d="M80.118,49.319l-1.995-4.258c-0.25-0.504-0.543-1.253-0.875-2.226c-0.455-1.335-0.912-2.895-1.281-4.146
			c-0.172-0.589-0.352-1.201-0.498-1.673c-0.072-0.236-0.136-0.432-0.189-0.589c-0.063-0.179-0.107-0.292-0.148-0.375
			c-0.359-0.727-1.086-1.179-1.896-1.179l0,0c-0.322,0-0.646,0.076-0.938,0.221c-0.725,0.358-1.175,1.087-1.175,1.898
			c0,0.325,0.073,0.64,0.219,0.935c0.028,0.057,0.066,0.122,0.124,0.213c0.19,0.3,0.535,0.782,0.994,1.411
			c0.137,0.186,0.281,0.38,0.432,0.585c0.592,0.806,1.264,1.72,1.898,2.622c0.943,1.345,1.566,2.328,1.901,3.006l2.188,4.188
			c0.017,0.034,0.042,0.063,0.073,0.084c0.002,0.001,0.066,0.047,0.166,0.092c0.088,0.037,0.223,0.089,0.385,0.089
			c0.08,0,0.158-0.013,0.225-0.04c0.121-0.047,0.225-0.143,0.293-0.27c0.068-0.124,0.107-0.279,0.118-0.475
			C80.141,49.393,80.134,49.356,80.118,49.319z M79.498,49.792v-0.028c-0.049,0-0.125-0.021-0.193-0.052
			c-0.02-0.01-0.037-0.018-0.053-0.026l-2.156-4.128c-0.262-0.524-0.674-1.208-1.266-2.088c-0.797-1.185-1.76-2.495-2.533-3.548
			l-0.02-0.026c-0.395-0.537-0.734-1-1.004-1.38c-0.141-0.196-0.257-0.364-0.343-0.493c-0.087-0.128-0.151-0.235-0.182-0.296
			c-0.114-0.23-0.173-0.479-0.173-0.733c0-0.64,0.355-1.21,0.924-1.492c0.232-0.111,0.479-0.169,0.734-0.171
			c0.637,0.002,1.207,0.354,1.488,0.921c0.021,0.043,0.049,0.109,0.076,0.186c0.129,0.348,0.329,1.014,0.508,1.617
			c0.072,0.251,0.152,0.514,0.232,0.793c0.275,0.933,0.586,1.991,0.91,3.01c0.512,1.611,0.913,2.693,1.262,3.399l1.969,4.202
			c-0.007,0.067-0.018,0.126-0.033,0.171c-0.03,0.085-0.063,0.107-0.072,0.116c-0.016,0.011-0.035,0.018-0.072,0.019L79.5,49.792
			H79.498z"/>
	</g>
	<circle fill="#FFFFFF" cx="92.82" cy="48.664" r="2.795"/>
</g>
</svg>
