<?xml version="1.0" encoding="utf-8"?>
<!-- Generator: Adobe Illustrator 16.0.0, SVG Export Plug-In . SVG Version: 6.00 Build 0)  -->
<!DOCTYPE svg PUBLIC "-//W3C//DTD SVG 1.1//EN" "http://www.w3.org/Graphics/SVG/1.1/DTD/svg11.dtd">
<svg version="1.1" id="Layer_1" xmlns="http://www.w3.org/2000/svg" xmlns:xlink="http://www.w3.org/1999/xlink" x="0px" y="0px"
	 width="189.92px" height="189.92px" viewBox="0 0 189.92 189.92" enable-background="new 0 0 189.92 189.92" xml:space="preserve">
<path fill="#010101" d="M116.725,146.196c-4.386-9.978-2.413-10.306,0.658-18.53c3.07-8.225-0.219-14.911-3.071-14.144
	c-2.851,0.766-1.973,2.629-3.399,5.48c-1.425,2.851-2.851,4.607-6.468,4.607c-3.62,0-5.045-2.085-5.045-2.085l-0.768-78.62
	c1.425-4.059,6.359-5.483,6.471-5.812c-0.439-6.799-1.646-8.005-2.961-10.637c-1.317-2.631-1.099-4.824,1.315-5.701
	c2.412-0.877,4.165-6.031,0.876-8.553c-3.29-2.522-7.127-0.329-7.894,1.974c-0.123,0.368-0.389,1.263-0.747,2.504l-0.966-0.544
	c0,0,0.143-0.391-0.433-0.864s-1.276-0.576-1.564-0.33c-0.215,0.187-0.767,0.972,0.392,1.562c0.966,0.495,1.399,0.138,1.399,0.138
	l1.021,0.558c-0.291,1.008-0.631,2.199-1,3.501l-0.804-0.454c0,0,0.144-0.391-0.432-0.863c-0.577-0.473-1.274-0.576-1.563-0.33
	c-0.217,0.188-0.768,0.972,0.392,1.564c0.966,0.493,1.399,0.137,1.399,0.137l0.861,0.471c-0.336,1.187-0.693,2.452-1.055,3.741
	l-0.711-0.401c0,0,0.144-0.39-0.432-0.864c-0.576-0.473-1.275-0.576-1.564-0.329c-0.217,0.187-0.768,0.972,0.392,1.562
	c0.966,0.495,1.397,0.138,1.397,0.138l0.769,0.42c-0.333,1.19-0.671,2.394-1,3.57l-0.757-0.426c0,0,0.144-0.391-0.431-0.864
	s-1.275-0.576-1.562-0.329c-0.219,0.187-0.769,0.971,0.391,1.562c0.966,0.493,1.397,0.138,1.397,0.138l0.814,0.444
	c-0.349,1.251-0.688,2.463-1,3.583l-0.677-0.382c0,0,0.144-0.391-0.432-0.864c-0.576-0.474-1.276-0.576-1.562-0.33
	c-0.22,0.187-0.77,0.971,0.389,1.563c0.966,0.494,1.398,0.137,1.398,0.137l0.738,0.402c-0.386,1.379-0.726,2.601-0.99,3.553
	l-0.693-0.391c0,0,0.145-0.39-0.431-0.862c-0.576-0.474-1.276-0.577-1.562-0.33c-0.22,0.187-0.77,0.971,0.389,1.562
	c0.966,0.494,1.398,0.137,1.398,0.137l0.752,0.41c-0.283,1.016-0.449,1.618-0.449,1.618l2.192,3.619l-1.314,70.508
	c0,0-1.866,3.068-5.704,2.301c-3.836-0.768-5.481-5.043-5.59-9.43c-0.111-4.386-5.155-5.373-7.238,2.412s1.644,15.022,2.522,19.189
	c0.875,4.166,1.534,6.908,1.096,11.075c-0.439,4.166-2.961,6.25-5.374,13.924c-2.412,7.677-2.74,13.487,0.768,18.422
	c3.51,4.937,8.882,6.908,12.721,8.115c3.837,1.205,11.184,1.316,11.184,1.316c8.114,0.656,20.241,1.233,25.878-9.102
	C124.401,164.507,121.11,156.176,116.725,146.196z"/>
</svg>
