<?xml version="1.0" encoding="utf-8"?>
<!-- Generator: Adobe Illustrator 16.0.0, SVG Export Plug-In . SVG Version: 6.00 Build 0)  -->
<!DOCTYPE svg PUBLIC "-//W3C//DTD SVG 1.1//EN" "http://www.w3.org/Graphics/SVG/1.1/DTD/svg11.dtd">
<svg version="1.1" id="Layer_1" xmlns="http://www.w3.org/2000/svg" xmlns:xlink="http://www.w3.org/1999/xlink" x="0px" y="0px"
	 width="189.92px" height="189.92px" viewBox="0 0 189.92 189.92" enable-background="new 0 0 189.92 189.92" xml:space="preserve">
<g>
	<circle fill="#010101" cx="25.788" cy="135.845" r="9.314"/>
	<circle fill="#010101" cx="26.312" cy="77.489" r="9.313"/>
	<circle fill="#010101" cx="64.617" cy="76.724" r="9.315"/>
	<circle fill="#010101" cx="65.654" cy="135.845" r="9.312"/>
	<path fill="#010101" d="M114.306,135.845c0,5.142-4.171,9.311-9.312,9.311c-5.14,0-9.313-4.169-9.313-9.311
		c0-5.144,4.173-9.313,9.313-9.313C110.135,126.531,114.306,130.701,114.306,135.845z"/>
	<path fill="#010101" d="M153.649,134.302c0,5.146-4.173,9.313-9.315,9.313c-5.144,0-9.313-4.167-9.313-9.313
		c0-5.141,4.17-9.312,9.313-9.312C149.477,124.989,153.649,129.161,153.649,134.302z"/>
	<path fill="#010101" d="M145.374,70.397l-7.519,6.454c0.077,3.626,2.833,6.626,6.479,6.626c3.69,0,6.68-2.988,6.68-6.68
		C151.014,73.492,148.527,70.936,145.374,70.397z"/>
	<path fill="#010101" d="M93.826,61.621c4.686-4.019,10.865-6.038,16.994-5.572l2.172-1.863H95.155
		c-3.608,0-6.552,2.946-6.552,6.556v7.436C89.922,65.768,91.623,63.518,93.826,61.621z"/>
	<path fill="#010101" d="M156.119,61.144l-11.441,9.816c3.276,0.183,5.897,2.851,5.897,6.171c0,3.437-2.797,6.239-6.241,6.239
		c-3.446,0-6.247-2.802-6.247-6.239c0-0.225,0.113-0.417,0.137-0.64l-5.68,4.872c-0.368,4.404-1.978,8.615-4.604,12.154v52.46
		c0,3.614,2.945,6.558,6.559,6.558h19.665c3.617,0,6.558-2.943,6.558-6.558V67.299C160.721,64.382,158.762,61.982,156.119,61.144z
		 M144.334,142.38c-3.446,0-6.247-2.804-6.247-6.241c0-3.439,2.801-6.244,6.247-6.244c3.444,0,6.241,2.805,6.241,6.244
		C150.575,139.576,147.778,142.38,144.334,142.38z"/>
	<path fill="#010101" d="M36.147,41.075H16.478c-3.607,0-6.557,2.943-6.557,6.556v118.018c0,3.612,2.95,6.558,6.557,6.558h19.669
		c3.61,0,6.556-2.945,6.556-6.558V47.631C42.703,44.018,39.758,41.075,36.147,41.075z M26.312,142.38
		c-3.442,0-6.243-2.804-6.243-6.241c0-3.439,2.801-6.244,6.243-6.244c3.443,0,6.246,2.805,6.246,6.244
		C32.558,139.576,29.756,142.38,26.312,142.38z M26.312,83.371c-3.442,0-6.243-2.802-6.243-6.239c0-3.445,2.801-6.244,6.243-6.244
		c3.443,0,6.246,2.799,6.246,6.244C32.558,80.569,29.756,83.371,26.312,83.371z"/>
	<path fill="#010101" d="M75.49,47.631H55.818c-3.611,0-6.558,2.948-6.558,6.556v104.904c0,3.614,2.947,6.558,6.558,6.558H75.49
		c3.612,0,6.555-2.943,6.555-6.558V54.187C82.045,50.579,79.102,47.631,75.49,47.631z M65.653,142.38
		c-3.439,0-6.243-2.804-6.243-6.241c0-3.439,2.803-6.244,6.243-6.244c3.443,0,6.242,2.805,6.242,6.244
		C71.895,139.576,69.096,142.38,65.653,142.38z M65.653,83.371c-3.439,0-6.243-2.802-6.243-6.239c0-3.445,2.803-6.244,6.243-6.244
		c3.443,0,6.242,2.799,6.242,6.244C71.895,80.569,69.096,83.371,65.653,83.371z"/>
	<path fill="#010101" d="M109.168,102.978c-6.887,0-13.379-2.997-17.866-8.209c-1.047-1.224-1.947-2.522-2.699-3.88v61.647
		c0,3.609,2.944,6.555,6.552,6.555h19.675c3.608,0,6.552-2.945,6.552-6.555V99.515C117.722,101.747,113.505,102.978,109.168,102.978
		z M104.994,142.38c-3.448,0-6.246-2.804-6.246-6.241c0-3.439,2.798-6.244,6.246-6.244c3.442,0,6.24,2.805,6.24,6.244
		C111.234,139.576,108.437,142.38,104.994,142.38z"/>
	<g>
		<g>
			<path fill="#010101" d="M122.567,76.977l55.054-47.235c2.872-2.457,3.182-6.783,0.722-9.645
				c-2.435-2.854-6.773-3.197-9.648-0.737l-55.057,47.233c-4.458-1.539-9.568-0.8-13.409,2.491
				c-5.73,4.925-6.391,13.552-1.462,19.289c4.916,5.731,13.557,6.396,19.297,1.479C121.901,86.561,123.401,81.62,122.567,76.977z"/>
		</g>
	</g>
</g>
</svg>
