<?xml version="1.0" encoding="utf-8"?>
<!-- Generator: Adobe Illustrator 15.0.0, SVG Export Plug-In . SVG Version: 6.00 Build 0)  -->
<!DOCTYPE svg PUBLIC "-//W3C//DTD SVG 1.1//EN" "http://www.w3.org/Graphics/SVG/1.1/DTD/svg11.dtd">
<svg version="1.1" id="Ebene_1" xmlns="http://www.w3.org/2000/svg" xmlns:xlink="http://www.w3.org/1999/xlink" x="0px" y="0px"
	 width="190px" height="190px" viewBox="0 0 190 190" enable-background="new 0 0 190 190" xml:space="preserve">
<g id="Orientierungskreise" display="none">
	<g id="Weißer_Kreis_x5F_Violin_9_" display="inline">
		<g>
			<path fill="#4D4D4F" d="M-1122.268,9.917c47.365,0,85.898,38.534,85.898,85.899s-38.534,85.897-85.898,85.897
				c-47.365,0-85.899-38.534-85.899-85.897C-1208.167,48.451-1169.633,9.917-1122.268,9.917 M-1122.268,9.69
				c-47.566,0-86.126,38.559-86.126,86.126c0,47.564,38.56,86.125,86.126,86.125s86.125-38.561,86.125-86.125
				C-1036.143,48.249-1074.702,9.69-1122.268,9.69L-1122.268,9.69z"/>
		</g>
	</g>
	<g id="Weißer_Kreis_x5F_Violin_10_" display="inline">
		<g>
			<path fill="#4D4D4F" d="M-1122.268,12.492c45.944,0,83.322,37.378,83.322,83.322s-37.378,83.322-83.322,83.322
				c-45.945,0-83.323-37.378-83.323-83.322C-1205.591,49.871-1168.212,12.492-1122.268,12.492 M-1122.268,12.272
				c-46.139,0-83.543,37.402-83.543,83.542c0,46.14,37.404,83.543,83.543,83.543c46.139,0,83.542-37.403,83.542-83.543
				S-1076.128,12.272-1122.268,12.272L-1122.268,12.272z"/>
		</g>
	</g>
	<g id="Weißer_Kreis_x5F_Violin_2_" display="inline">
		<g>
			<path fill="#4D4D4F" d="M-1122.268,232.007c47.365,0,85.898,38.534,85.898,85.899s-38.534,85.898-85.898,85.898
				c-47.365,0-85.899-38.535-85.899-85.898C-1208.167,270.542-1169.633,232.007-1122.268,232.007 M-1122.268,231.781
				c-47.566,0-86.126,38.559-86.126,86.125s38.56,86.125,86.126,86.125s86.125-38.559,86.125-86.125
				C-1036.143,270.339-1074.702,231.781-1122.268,231.781L-1122.268,231.781z"/>
		</g>
	</g>
	<g id="Weißer_Kreis_x5F_Violin_1_" display="inline">
		<g>
			<path fill="#4D4D4F" d="M-1122.268,234.583c45.944,0,83.322,37.378,83.322,83.323c0,45.943-37.378,83.322-83.322,83.322
				c-45.945,0-83.323-37.379-83.323-83.322C-1205.591,271.961-1168.212,234.583-1122.268,234.583 M-1122.268,234.363
				c-46.139,0-83.543,37.402-83.543,83.543c0,46.139,37.404,83.541,83.543,83.541c46.139,0,83.542-37.402,83.542-83.541
				C-1038.726,271.766-1076.128,234.363-1122.268,234.363L-1122.268,234.363z"/>
		</g>
	</g>
	<g id="Weißer_Kreis_x5F_Violin_6_" display="inline">
		<g>
			<path fill="#4D4D4F" d="M-1122.268,676.191c47.365,0,85.898,38.535,85.898,85.9c0,47.363-38.534,85.896-85.898,85.896
				c-47.365,0-85.899-38.533-85.899-85.896C-1208.167,714.727-1169.633,676.191-1122.268,676.191 M-1122.268,675.967
				c-47.566,0-86.126,38.559-86.126,86.125c0,47.564,38.56,86.125,86.126,86.125s86.125-38.561,86.125-86.125
				C-1036.143,714.523-1074.702,675.967-1122.268,675.967L-1122.268,675.967z"/>
		</g>
	</g>
	<g id="Weißer_Kreis_x5F_Violin_5_" display="inline">
		<g>
			<path fill="#4D4D4F" d="M-1122.268,678.768c45.944,0,83.322,37.379,83.322,83.324c0,45.943-37.378,83.32-83.322,83.32
				c-45.945,0-83.323-37.377-83.323-83.32C-1205.591,716.146-1168.212,678.768-1122.268,678.768 M-1122.268,678.549
				c-46.139,0-83.543,37.4-83.543,83.543c0,46.139,37.404,83.541,83.543,83.541c46.139,0,83.542-37.402,83.542-83.541
				C-1038.726,715.949-1076.128,678.549-1122.268,678.549L-1122.268,678.549z"/>
		</g>
	</g>
	<g id="Weißer_Kreis_x5F_Violin_8_" display="inline">
		<g>
			<path fill="#4D4D4F" d="M-1122.268,898.285c47.365,0,85.898,38.533,85.898,85.898s-38.534,85.898-85.898,85.898
				c-47.365,0-85.899-38.533-85.899-85.898S-1169.633,898.285-1122.268,898.285 M-1122.268,898.059
				c-47.566,0-86.126,38.559-86.126,86.127c0,47.564,38.56,86.125,86.126,86.125s86.125-38.561,86.125-86.125
				C-1036.143,936.617-1074.702,898.059-1122.268,898.059L-1122.268,898.059z"/>
		</g>
	</g>
	<g id="Weißer_Kreis_x5F_Violin_7_" display="inline">
		<g>
			<path fill="#4D4D4F" d="M-1122.268,900.859c45.944,0,83.322,37.379,83.322,83.324c0,45.943-37.378,83.322-83.322,83.322
				c-45.945,0-83.323-37.379-83.323-83.322C-1205.591,938.238-1168.212,900.859-1122.268,900.859 M-1122.268,900.641
				c-46.139,0-83.543,37.402-83.543,83.543c0,46.139,37.404,83.543,83.543,83.543c46.139,0,83.542-37.404,83.542-83.543
				C-1038.726,938.043-1076.128,900.641-1122.268,900.641L-1122.268,900.641z"/>
		</g>
	</g>
	<g id="Weißer_Kreis_x5F_Violin_4_" display="inline">
		<g>
			<path fill="#4D4D4F" d="M-1122.268,454.102c47.365,0,85.898,38.533,85.898,85.898c0,47.363-38.534,85.898-85.898,85.898
				c-47.365,0-85.899-38.535-85.899-85.898C-1208.167,492.635-1169.633,454.102-1122.268,454.102 M-1122.268,453.873
				c-47.566,0-86.126,38.561-86.126,86.127c0,47.564,38.56,86.125,86.126,86.125s86.125-38.561,86.125-86.125
				C-1036.143,492.434-1074.702,453.873-1122.268,453.873L-1122.268,453.873z"/>
		</g>
	</g>
	<g id="Weißer_Kreis_x5F_Violin_3_" display="inline">
		<g>
			<path fill="#4D4D4F" d="M-1122.267,456.676c45.944,0,83.322,37.379,83.322,83.324c0,45.943-37.378,83.322-83.322,83.322
				c-45.945,0-83.323-37.379-83.323-83.322C-1205.59,494.055-1168.212,456.676-1122.267,456.676 M-1122.267,456.457
				c-46.139,0-83.543,37.402-83.543,83.543c0,46.139,37.404,83.543,83.543,83.543c46.139,0,83.542-37.404,83.542-83.543
				C-1038.725,493.859-1076.128,456.457-1122.267,456.457L-1122.267,456.457z"/>
		</g>
	</g>
</g>
<g>
	<polygon points="92.723,92.057 92.723,92.058 92.723,92.057 	"/>
	<path d="M172.213,61.423c0-0.565-0.885-0.7-1.75-0.7h-0.088l-0.094-0.001c-0.457,0-0.898,0.008-1.373,0.219
		c-0.057,0.027-0.244,0.159-2.23,1.444l-3.045-0.163v-1.381l-0.002,0.004c0.006-0.015,0.012-0.03,0.012-0.048l-0.029-1.563
		c0-0.063-0.049-0.114-0.111-0.118l-4.701-0.341c-0.023-0.002-0.049,0.003-0.07,0.016l-1.135,0.772l0.016-0.581
		c0-0.063-0.047-0.113-0.109-0.117l-5.025-0.332c-0.025-0.002-0.051,0.004-0.072,0.018l-1.283,0.791l-0.053-0.884
		c-0.002-0.063-0.051-0.114-0.113-0.118l-4.615-0.249c-0.023-0.001-0.047,0.004-0.068,0.018l-0.781,0.469l-0.006-0.433
		c0-0.063-0.051-0.114-0.113-0.118l-4.061-0.259c-0.023,0-0.047,0.005-0.066,0.016l-0.979,0.54l-0.008-0.459
		c0-0.063-0.049-0.114-0.113-0.117l-4.037-0.231c-0.023-0.002-0.047,0.004-0.066,0.016l-1.219,0.686l-0.014-0.693
		c0-0.063-0.049-0.113-0.111-0.117l-3.881-0.232c-0.023-0.002-0.045,0.003-0.064,0.014l-0.734,0.386l-0.008-0.328
		c0-0.063-0.049-0.114-0.111-0.118l-3.576-0.229l-0.061,0.013l-1.014,0.489l-0.008-0.45c0-0.062-0.049-0.112-0.111-0.116
		l-3.707-0.23l-0.059,0.012l-0.463,0.216l-0.002-0.13c-0.002-0.062-0.051-0.113-0.111-0.118l-3.711-0.204l-0.053,0.01l-0.5,0.217
		l-0.004-0.172c0-0.063-0.049-0.113-0.111-0.117l-3.84-0.235l-0.059,0.012l-0.656,0.311l-0.004-0.249
		c0-0.063-0.049-0.116-0.111-0.119l-3.234-0.162l-0.053,0.008l-0.781,0.313l-0.004-0.308c0-0.062-0.049-0.115-0.111-0.118
		l-3.129-0.23l-0.051,0.009l-0.979,0.392l-0.006-0.303c0-0.063-0.051-0.114-0.111-0.118l-2.6-0.212l-0.051,0.007l-1.244,0.483
		l0.004-0.434c0-0.063-0.049-0.114-0.113-0.117l-2.668-0.14l-0.053,0.009l-0.82,0.33l-0.006-0.282c0-0.063-0.051-0.114-0.111-0.118
		l-2.406-0.081l-0.051,0.008l-0.809,0.315l-0.002-0.184c-0.002-0.063-0.051-0.114-0.113-0.117l-2.391-0.2l-0.051,0.01l-0.74,0.289
		l-0.006-0.316c-0.002-0.062-0.051-0.113-0.113-0.116l-2.721-0.184l-0.049,0.008l-0.814,0.302l-0.004-0.248
		c-0.002-0.062-0.051-0.113-0.115-0.117l-2.482-0.145l-0.049,0.007L81.85,54.58l-0.004-0.257c-0.002-0.063-0.051-0.114-0.113-0.117
		l-2.537-0.134l-0.047,0.006l-0.791,0.286l-0.004-0.23c-0.002-0.062-0.053-0.114-0.113-0.118l-1.867-0.113l-0.043,0.005
		l-0.814,0.246v-0.199c0-0.063-0.051-0.116-0.113-0.119l-2.121-0.164l-0.041,0.005l-0.574,0.171v-0.108
		c0.002-0.064-0.049-0.119-0.111-0.122l-2.291-0.092l-0.047,0.007l-0.369,0.128l-0.002-0.054c-0.002-0.063-0.051-0.113-0.113-0.117
		l-2.314-0.138l-0.047,0.007l-0.453,0.16l-0.004-0.1c-0.002-0.063-0.051-0.114-0.113-0.118l-2.424-0.173l-0.043,0.006l-0.439,0.144
		l-0.002-0.071c-0.002-0.063-0.051-0.113-0.111-0.117l-2.391-0.12l-0.043,0.005l-0.459,0.146l-0.002-0.092
		c-0.002-0.062-0.051-0.112-0.113-0.115l-2.361-0.129l-0.043,0.006l-0.449,0.143v-0.043c0-0.063-0.049-0.115-0.113-0.119
		l-1.975-0.145l-0.043,0.005l-0.455,0.138l-0.002-0.052c0-0.062-0.049-0.112-0.111-0.117l-1.859-0.104L53.318,52.5l-0.496,0.155
		l-0.002-0.082c-0.002-0.062-0.109-0.08-0.17-0.083l-2.129-0.129l-0.043,0.005l-0.768,0.237l-0.006-0.207
		c0-0.063-0.066-0.157-0.129-0.16l-2.166-0.107l-0.043,0.005l-0.406,0.131l-0.002-0.07c-0.002-0.063-0.051-0.112-0.115-0.116
		l-2.133-0.134l-0.045,0.005l-0.398,0.129v-0.026c0-0.063-0.049-0.114-0.111-0.119l-1.801-0.125l-0.045,0.005l-0.404,0.123v-0.033
		c-0.002-0.064-0.051-0.115-0.113-0.118l-1.596-0.141l-0.041,0.004l-0.963,0.304l-0.102-0.01l-0.045,0.004l-0.686,0.2l-0.002-0.088
		c0-0.063-0.045-0.113-0.109-0.118l-1.996-0.213l-0.041,0.003l-1.344,0.319c-1.197,0.037-2.5,0.071-3.758,0.133
		c-0.002,0-0.002,0-0.004,0c-0.068,0.005-0.139,0.008-0.205,0.011c-0.012,0-0.023,0.003-0.035,0.003
		c-0.063,0.003-0.123,0.007-0.182,0.009c-0.01,0.001-0.021,0.002-0.031,0.002c-0.061,0.005-0.119,0.007-0.176,0.011
		c-0.012,0.002-0.025,0.002-0.039,0.002c-0.055,0.004-0.109,0.006-0.164,0.01c-0.012,0-0.025,0.002-0.039,0.002
		c-0.051,0.003-0.1,0.008-0.148,0.01c-0.018,0.001-0.033,0.002-0.051,0.004c-0.045,0.003-0.092,0.005-0.135,0.01
		c-0.018,0-0.033,0.001-0.047,0.002c-0.043,0.003-0.086,0.007-0.127,0.009c-0.02,0.002-0.035,0.002-0.053,0.005
		c-0.039,0.002-0.076,0.005-0.115,0.009c-0.016,0-0.033,0.002-0.047,0.003c-0.039,0.004-0.074,0.006-0.111,0.009
		c-0.016,0.001-0.029,0.003-0.045,0.003c-0.033,0.004-0.064,0.007-0.098,0.01c-0.016,0.002-0.031,0.003-0.047,0.004
		c-0.031,0.004-0.291,0.042-0.32,0.045c-0.012,0.001-0.025,0.002-0.037,0.004c-0.031,0.002-0.057,0.006-0.088,0.009
		c-0.01,0.001-0.021,0.002-0.033,0.005c-0.025,0.002-0.051,0.005-0.076,0.009c-0.01,0.001-0.018,0.002-0.027,0.004
		c-0.033,0.005-0.064,0.009-0.092,0.015l-0.051,0.012c-0.145,0.048-1.512,0.399-3,0.771c-2.916,0.731-5.004,1.257-5.271,1.355
		l-0.02,0.009c-0.18,0.086-0.43,0.145-0.422,0.466c0.004,0.101,0.332,8.381,0.346,8.732c0.043,0.528,0.498,0.772,1.297,0.772
		c0.309,0,0.822-0.173,1.135-0.272c0.004-0.001,0.014-0.005,0.025-0.008c0.006-0.003,0.012-0.004,0.018-0.006
		c0.008-0.001,0.016-0.003,0.023-0.006c0.131-0.039,0.719-0.255,0.826-0.113l4.83,6.083l0.199,3.319h0.201l0.119,3.029l-0.959,0.749
		v1.559c0,0-0.66,0.359-0.66,0.841c0,0-1.469,1.169-0.658,3.927l-0.871,2.101l-0.09,0.419l0.732,0.439l-3.537,8.517l-0.914,0.21
		l-1.08,1.239l0.359,0.359l0.482-0.119l0.146,0.734l-1.23,2.961l-0.598,0.023l-1.279,3.159l0.746,2.788
		c-0.223,0.11-0.664,0.354-0.727,0.591c-0.01,0.034-0.014,0.068-0.014,0.104c0,0.078-0.061,0.282-0.098,0.45
		c-0.043,0.199-0.082,0.311-0.082,0.415c0,0.029,0.006,0.059,0.012,0.086c0.004,0.018,0.014,0.035,0.02,0.053
		c0.006,0.009,0.008,0.017,0.012,0.026c0.012,0.022,0.025,0.043,0.041,0.064c0.002,0.002,0.004,0.006,0.006,0.008
		c0.018,0.022,0.047,0.062,0.07,0.083c0.002,0,0.002,0.001,0.002,0.001l0,0c-0.01,0.084-0.016,0.191-0.016,0.32
		c-0.002,0.766,0.201,2.227,1.859,3.452c-0.096,0.536-0.039,1.162,0.207,1.735c0.541,1.255,1.773,1.95,2.852,1.657
		c0.082-0.024,1.906-0.858,2.021-0.944c0.844-0.624,1.125-1.921,0.611-3.112c-0.111-0.256-0.268-0.501-0.428-0.708
		c0.043-0.027,0.078-0.118,0.115-0.153c0.059-0.056,0.105-0.127,0.127-0.206l0.053,0.041c0,0.046,0.004,0.099,0.033,0.182
		c0.016,0.042,0.037,0.084,0.072,0.121c0.033,0.034,0.084,0.057,0.143,0.057c0.061-0.001,0.127-0.022,0.205-0.071
		c0.393-0.24,1.865-1.224,1.865-1.224l0.043-0.027l-0.02-0.047c-0.002-0.003-0.021-0.046-0.059-0.094
		c-0.035-0.045-0.029-0.031-0.117-0.032c-0.025,0-0.049,0.006-0.076,0.016c-0.115,0.046-0.219,0.114-0.277,0.142l-2.041-1.264
		h-0.006c0,0-0.068-0.032-0.152-0.063c-0.086-0.03-0.184-0.063-0.26-0.063l-0.004-0.001c-0.041-0.004-0.328-0.056-0.625-0.113
		c-0.447-0.085-1.121-0.211-1.639-0.315c-0.318-0.063-0.449-0.09-0.613-0.122c-0.004-0.021-0.064-0.101-0.068-0.121
		c0-0.003,0-0.006-0.002-0.009c-0.004-0.025-0.01-0.05-0.014-0.074c0-0.007-0.002-0.014-0.004-0.021
		c-0.004-0.021-0.008-0.04-0.01-0.059c0-0.007-0.002-0.016-0.002-0.021c-0.004-0.023-0.006-0.044-0.006-0.06
		c0-0.042-0.006-0.084-0.02-0.124c-0.092-0.279-0.457-0.474-1.041-0.579l0.184-2.284l1.078-2.68l-0.695-0.381l2.98-7.176h0.354
		l4.32-5.606h1.037l1.5-0.541v-2.729l0,0l0.182,2.911l0.057,0.217c0.063,0.438,0.559,0.539,1.416,0.539
		c0.027,0,0.059-0.001,0.088-0.001c0.775-0.021,1.393-0.155,1.412-0.686v-0.04h0.002l0.035-0.695
		c0.229,0.067,0.596,0.141,0.895,0.141c0.051,0,0.109,0.017,0.16,0.014c0.096-0.004,0.225,0.021,0.293,0.098l3.547,3.947
		l-0.471,0.692l1.43,1.646l0.365,1.46c-0.031,0.01-0.064,0.018-0.092,0.027c-0.139,0.052-0.254,0.115-0.332,0.188
		c-0.082,0.073-0.086,0.102-0.084,0.198c0,0.064-0.033,0.226-0.068,0.385c-0.033,0.161-0.07,0.318-0.07,0.411l0.006,0.028
		c-0.002,0.015-0.006,0.033-0.008,0.056c-0.002,0.008-0.002,0.017-0.002,0.025c-0.002,0.023-0.004,0.051-0.006,0.082
		c0,0.011,0,0.021-0.002,0.034c0,0.043-0.002,0.09-0.002,0.144c0,0.556,0.09,1.588,0.973,2.625c0.084,0.1,0.137,0.191,0.213,0.281
		c0,0,0.002,0.063,0.004,0.063c-0.098,0.57-0.02,1.205,0.258,1.801c0.537,1.152,1.65,1.793,2.662,1.619
		c0.178-0.032,1.816-0.759,1.895-0.813c0.932-0.647,1.229-2.062,0.646-3.312c-0.426-0.908-1.234-1.494-2.039-1.619l-0.121-1.092
		l-1.166-0.232l-0.033-0.194c-0.033-0.151-0.088-0.195-0.088-0.261c0-0.098-0.018-0.163-0.098-0.238
		c-0.133-0.124-0.293-0.2-0.58-0.267l0.059-2.831l-1.395-1.716l-0.516,0.035l-1.412-1.57l0.182-1.282c0,0,0.006-0.151-0.02-0.213
		c-0.037-0.08-0.1-0.195-0.209-0.293c-0.188-0.174-0.518-0.488-0.518-0.488l-0.32-0.874l0,0c-0.012,0.001-0.113-0.23-0.051-0.234
		c0,0,0.082-0.01,0.123-0.015h0.002l0.018-0.002c0.035-0.005,0.072-0.01,0.109-0.016h0.002l0.029-0.005
		c0.033-0.005,0.066-0.012,0.1-0.02l0,0l0.039-0.008c0.029-0.006,0.061-0.014,0.092-0.021l0.041-0.012
		c0.027-0.007,0.057-0.016,0.084-0.023l0,0l0.047-0.014c0.023-0.009,0.049-0.017,0.072-0.027l0.049-0.016
		c0.021-0.01,0.043-0.02,0.066-0.028l0.047-0.022l0.059-0.029l0.047-0.024l0.051-0.029l0.043-0.029l0.045-0.031l0.037-0.032
		l0.035-0.029l0.037-0.037l0.025-0.03l0.029-0.039l0.021-0.028l0.021-0.043l0.014-0.028l0.016-0.052l0.008-0.023
		c0.004-0.024,0.008-0.049,0.008-0.074v-0.037c0-0.001,0-0.002,0-0.004l-0.021-0.502c0-0.038,0.016-0.075,0.045-0.099
		s0.068-0.031,0.105-0.022c0.207,0.051,0.439,0.083,0.701,0.083c0.049,0,0.098-0.001,0.146-0.004
		c0.295-0.012,0.592-0.063,0.846-0.151c0.252-0.086,0.459-0.209,0.576-0.347c0.078-0.094,0.117-0.188,0.121-0.296l-0.002-0.036
		c0-0.002,0-0.002,0-0.004L43.1,83.382c-0.002-0.037,0.016-0.075,0.045-0.1c0.031-0.023,0.07-0.031,0.109-0.02
		c0.279,0.083,0.621,0.13,1,0.13c0.063,0,0.125-0.001,0.188-0.004c0.369-0.016,0.742-0.078,1.059-0.186
		c0.32-0.106,0.582-0.256,0.73-0.43c0.1-0.115,0.154-0.236,0.158-0.37l-0.002-0.044c0-0.003,0-0.004,0-0.006v-0.009
		c-0.002-0.038,0.016-0.074,0.045-0.098c0.029-0.024,0.068-0.032,0.107-0.023c0.207,0.055,0.443,0.093,0.701,0.108
		c0.102,0.007,0.203,0.012,0.309,0.012c0.049,0,0.098-0.001,0.146-0.002c0.459-0.015,0.928-0.1,1.299-0.246
		c0.371-0.145,0.641-0.353,0.732-0.58c0.021-0.051,0.072-0.081,0.127-0.074c0.193,0.027,0.393,0.041,0.59,0.041
		c0.039,0,0.08,0,0.121-0.002c0.664-0.016,1.344-0.184,1.736-0.458c0.027-0.019,0.059-0.025,0.09-0.02
		c0.238,0.04,0.488,0.061,0.738,0.061c0.025,0,0.053,0,0.08-0.001c0.395-0.006,0.793-0.063,1.137-0.168
		c0.344-0.103,0.629-0.254,0.795-0.435c0.031-0.032,0.076-0.044,0.119-0.033c0.172,0.047,0.355,0.082,0.547,0.106l0.002,0.001
		l0.016,0.002c0.043,0.006,0.092,0.009,0.143,0.015c0.152,0.014,0.305,0.023,0.457,0.023c0.027,0,0.057,0,0.086-0.001
		c0.535-0.011,1.08-0.106,1.5-0.279c0.025-0.01,0.053-0.012,0.08-0.004c0.369,0.108,0.803,0.165,1.232,0.165h0.057l0,0
		c0.111-0.002,0.225-0.007,0.338-0.016c0.334-0.027,0.664-0.089,0.953-0.18c0.033-0.011,0.07-0.007,0.098,0.011
		c0.27,0.163,0.641,0.292,1.07,0.364c0.262,0.043,0.543,0.066,0.84,0.066h0.025c0.369-0.002,0.713-0.041,1.021-0.107
		c0.031-0.005,0.063,0,0.088,0.016c0.434,0.27,1.131,0.449,1.943,0.451h0.014c0.451,0,0.908-0.057,1.301-0.169
		c0.031-0.009,0.066-0.003,0.096,0.015c0.324,0.203,0.799,0.356,1.359,0.422c0.188,0.021,0.385,0.032,0.588,0.033h0.014
		c0.336,0,0.676-0.033,0.99-0.096c0.059-0.012,0.115,0.02,0.135,0.076c0.094,0.252,0.381,0.5,0.818,0.678
		c0.436,0.176,1.012,0.285,1.656,0.287h0.016c0.311,0,0.623-0.026,0.918-0.077c0.057-0.01,0.113,0.022,0.133,0.075
		c0.072,0.189,0.25,0.375,0.52,0.531c0.271,0.155,0.631,0.279,1.047,0.353c0.281,0.05,0.586,0.076,0.906,0.077h0.016
		c0.271,0,0.545-0.021,0.809-0.061c0.033-0.005,0.068,0.006,0.094,0.027c0.027,0.023,0.043,0.057,0.043,0.092v0.162l0.004,0.045l0,0
		c0.016,0.143,0.084,0.281,0.207,0.413c0.123,0.133,0.301,0.257,0.525,0.36c0.447,0.209,1.072,0.339,1.781,0.341h0.016
		c0.479,0,0.963-0.063,1.377-0.185c0.035-0.01,0.076-0.003,0.104,0.021c0.033,0.022,0.051,0.058,0.051,0.095v1.033l0.004,0.043
		v0.001c0.016,0.15,0.086,0.296,0.215,0.435c0.131,0.139,0.316,0.267,0.551,0.376c0.469,0.218,1.125,0.354,1.867,0.356h0.012
		c0.371,0,0.721-0.034,1.035-0.095c0.035-0.008,0.07,0.002,0.098,0.024c0.029,0.023,0.045,0.057,0.045,0.093v0.306l0.006,0.043
		v0.001c0.014,0.151,0.084,0.295,0.215,0.434c0.129,0.139,0.316,0.268,0.551,0.377c0.469,0.216,1.123,0.354,1.863,0.355h0.016
		c0.301,0,0.586-0.023,0.854-0.064c0.033-0.005,0.068,0.005,0.094,0.028c0.027,0.022,0.045,0.056,0.045,0.09v0.938l0.004,0.043
		v0.001c0.016,0.15,0.086,0.295,0.215,0.434s0.316,0.268,0.551,0.376c0.469,0.218,1.123,0.354,1.865,0.356h0.014
		c0.52,0,0.994-0.067,1.396-0.183c0.035-0.011,0.074-0.003,0.104,0.019c0.031,0.023,0.049,0.06,0.049,0.097v1.495l0.006,0.044v0.001
		c0.014,0.15,0.084,0.296,0.215,0.435c0.127,0.138,0.316,0.267,0.551,0.375c0.469,0.218,1.123,0.354,1.863,0.356h0.016
		c0.572,0,1.094-0.082,1.518-0.219c0.037-0.014,0.078-0.007,0.109,0.016c0.031,0.024,0.049,0.06,0.049,0.098l-0.008,1.692
		l0.004,0.045v0.002c0.016,0.148,0.086,0.294,0.215,0.434c0.129,0.138,0.316,0.267,0.551,0.376c0.469,0.217,1.123,0.353,1.867,0.355
		h0.014c0.523,0,1.004-0.068,1.408-0.187c0.035-0.01,0.076-0.004,0.104,0.02c0.031,0.022,0.049,0.059,0.049,0.098l-0.014,2.696
		l0.006,0.045v0.001c0.014,0.149,0.084,0.295,0.215,0.433c0.129,0.14,0.316,0.268,0.551,0.376c0.469,0.218,1.123,0.354,1.863,0.356
		h0.018c0.824,0.001,1.545-0.168,2.018-0.432c0.037-0.021,0.082-0.02,0.119,0.001c0.035,0.022,0.059,0.063,0.059,0.104l-0.029,3.242
		l0.004,0.045v0.001c0.016,0.15,0.086,0.295,0.215,0.435c0.127,0.138,0.314,0.269,0.549,0.378c0.467,0.22,1.123,0.358,1.863,0.363
		h0.039c0.672,0,1.266-0.106,1.713-0.285c0.037-0.014,0.08-0.01,0.113,0.014c0.033,0.022,0.051,0.06,0.051,0.101l-0.064,3.844
		l0.004,0.045v0.001c0.012,0.15,0.082,0.294,0.209,0.436c0.127,0.14,0.314,0.271,0.547,0.382c0.467,0.225,1.121,0.367,1.861,0.379
		c0.029,0,0.059,0,0.088,0c0.83,0,1.543-0.166,2-0.429c0.037-0.022,0.082-0.021,0.119,0.001c0.039,0.022,0.061,0.063,0.061,0.106
		l-0.041,1.463v0.001l-0.1,3.08l0.004,0.024l0.002,0.012c0.004,0.073,0.023,0.143,0.059,0.212l0.004,0.009
		c0.012,0.03,0.027,0.062,0.047,0.093h0.002l0.004,0.01c0.018,0.028,0.037,0.058,0.061,0.086l0.008,0.012l0,0
		c0.021,0.028,0.047,0.056,0.074,0.084l0.01,0.012c0.029,0.029,0.061,0.056,0.092,0.082l0.01,0.007v0.001
		c0.141,0.115,0.318,0.22,0.531,0.311l0.002,0.001l0.02,0.01c0.037,0.015,0.076,0.029,0.119,0.045
		c0.027,0.01,0.049,0.019,0.07,0.026l0,0c0.033,0.012,0.07,0.024,0.109,0.035c0.033,0.012,0.064,0.021,0.094,0.03
		c0.035,0.01,0.072,0.02,0.109,0.028c0.035,0.009,0.072,0.019,0.107,0.026l0,0c0.037,0.009,0.072,0.016,0.107,0.023l0,0
		c0.041,0.009,0.082,0.017,0.127,0.024c0.033,0.007,0.066,0.013,0.104,0.018c0.043,0.008,0.094,0.014,0.143,0.021l0,0
		c0.033,0.004,0.066,0.009,0.096,0.013c0.055,0.006,0.113,0.01,0.17,0.016l0,0c0.031,0.002,0.057,0.006,0.082,0.008
		c0.086,0.006,0.172,0.01,0.26,0.012c0.051,0.001,0.1,0.003,0.148,0.003c0.697,0,1.309-0.122,1.752-0.319
		c0.039-0.018,0.082-0.013,0.115,0.011c0.035,0.021,0.055,0.061,0.053,0.103l-0.135,4.193l0.002,0.045v0.001
		c0.012,0.149,0.078,0.296,0.205,0.438c0.125,0.143,0.309,0.276,0.539,0.392c0.461,0.231,1.113,0.384,1.855,0.407
		c0.061,0.002,0.121,0.002,0.18,0.002c0.652,0,1.229-0.105,1.66-0.283c0.037-0.016,0.08-0.011,0.113,0.013s0.053,0.061,0.051,0.103
		l-0.047,1.495v0.003c0,0.057,0.041,0.106,0.098,0.118l5.596,1.049l0.023,0.004l0.012,0.001l0.014-0.001
		c0.023-0.003,0.043-0.012,0.063-0.024l0.033-0.035l0.158-0.174c0.033-0.037,0.086-0.049,0.133-0.03s0.076,0.064,0.076,0.114
		l-0.047,1.454v0.003c0,0.058,0.041,0.107,0.098,0.119l5.596,1.049l0.023,0.004l0.012,0.001l0.014-0.001
		c0.023-0.003,0.043-0.012,0.061-0.024l0.033-0.037l0.156-0.169c0.033-0.039,0.088-0.05,0.133-0.031
		c0.047,0.018,0.076,0.064,0.074,0.115l-0.043,1.371v0.004c0,0.056,0.041,0.106,0.1,0.117l5.594,1.05l0.023,0.003l0.012,0.001
		l0.016-0.001c0.021-0.002,0.043-0.011,0.061-0.024l0.033-0.036l1.875-2.058l0.014-0.016l0.008-0.011
		c0.016-0.019,0.021-0.042,0.023-0.065l0.348-10.72c0.002-0.034,0.018-0.066,0.045-0.088c0.029-0.023,0.064-0.031,0.098-0.025
		l3.863,0.725l0.023,0.004h0.01h0.014c0.023-0.002,0.043-0.012,0.063-0.025l0.033-0.035l0.393-0.432
		c0.035-0.036,0.088-0.049,0.135-0.03c0.045,0.02,0.076,0.064,0.074,0.114l-0.139,4.458v0.003c0,0.058,0.039,0.107,0.098,0.117
		l5.25,0.986l-1.365,5.743l-0.77-0.038l-1.141,4.139l0.199,3.365c-0.154,0.025-0.293,0.059-0.414,0.105
		c-0.139,0.052-0.254,0.117-0.346,0.203c-0.09,0.082-0.1,0.2-0.117,0.321c-0.004,0.036-0.027,0.117-0.059,0.21
		c-0.047,0.142-0.115,0.318-0.174,0.481c-0.059,0.166-0.111,0.31-0.127,0.423l-0.004,0.059c0,0.082,0.02,0.015,0.061,0.086
		l0.002,0.076c-0.012,0.154-0.016,0.454-0.016,0.788c0,0.749,0.09,1.716,0.543,2.388c0.041,0.062,0.09,0.129,0.143,0.197
		c0.016,0.021,0.031,0.04,0.047,0.061c0.043,0.056,0.09,0.112,0.139,0.171c0.014,0.019,0.029,0.036,0.045,0.054
		c0.055,0.067,0.115,0.137,0.178,0.208c0.035,0.04,0.07,0.08,0.107,0.122c0.029,0.032,0.059,0.063,0.09,0.097
		c0.158,0.174,0.438,0.497,0.43,0.574c-0.408,1.044-0.293,2.361,0.42,3.504c0.871,1.397,2.371,2.113,3.701,1.895
		c0.334-0.057,2.02-0.661,2.398-0.897c1.367-0.854,1.75-2.752,0.971-4.423l-0.018-0.04c0.08,0.008,0.191-0.004,0.268,0
		c0.01,0.001,0.021,0.001,0.031,0.002c0.08,0.003,0.184,0.006,0.26,0.006c0.199,0,0.355-0.015,0.5-0.053
		c0.109-0.028,0.297-0.171,0.365-0.235c-0.031,0.058-0.074,0.253-0.076,0.325c0,0.027,0.008,0.061,0.027,0.09
		c0.047,0.068,0.072,0.061,0.127,0.084c0.055,0.021,0.07,0.047,0.072,0.047l0.074-0.011l0.926-0.011l1.305-1.409l-0.006-0.035
		c0-0.004-0.014-0.113-0.063-0.229c-0.025-0.058-0.059-0.118-0.107-0.168c-0.049-0.049-0.17-0.007-0.252-0.007l-0.035,0.003
		c-0.123,0.015-0.295,0.021-0.52,0.033c-0.17,0.009-0.32,0.016-0.385,0.018c-0.197-0.194-1.646-1.552-5.148-2.829
		c-0.498-0.18-1.047-0.361-1.633-0.539c-0.01-0.122-0.025-0.313-0.025-0.401c0-0.045,0.002-0.082,0.006-0.103v-0.019
		c0.004-0.022,0.004-0.026,0.004-0.05c0-0.156-0.066-0.237-0.18-0.365c-0.168-0.189-0.373-0.336-0.721-0.478
		c-0.025-0.01-0.047,0.002-0.072-0.008l0.297-2.788l0.959-3.539l-0.625-1.201l4.123-16.159l1.445,0.228v-0.646l0.914,0.076v-2.512
		h0.381l0.268-0.076l1.701,4.598l-0.229,1.546l0.355,1.599l0.117,1.752l-0.002,0.047c-0.469,0.108-0.688,0.304-0.707,0.576
		c-0.006,0.084-0.068,0.258-0.121,0.434c-0.061,0.208-0.119,0.402-0.127,0.513c-0.004,0.058,0.006,0.114,0.029,0.172
		c-0.021,0.139-0.045,0.347-0.045,0.627c0,0.743,0.166,1.864,1.012,3.026c0.096,0.133,0.219,0.317,0.221,0.406
		c-0.313,0.974-0.109,2.183,0.641,3.188c0.877,1.177,2.236,1.723,3.387,1.47c0.787-0.142,1.828-0.915,2.084-1.107
		c1.25-0.931,1.348-2.91,0.221-4.424c-0.473-0.632-1.086-1.081-1.73-1.322c0,0.001,0.002,0.001,0.002,0.001l-0.045-0.051
		l-0.012-1.607l0.002-0.011c-0.006-0.022-0.023-0.04-0.043-0.045l-1.434-0.382c-0.004-0.023-0.037-0.118-0.039-0.132
		c-0.041-0.23-0.07-0.441-0.064-0.524c0.02-0.241-0.182-0.353-0.559-0.535c-0.111-0.055-0.133-0.072-0.27-0.116l-0.049-0.025
		l0.373-3.409l-0.592-1.836l-0.576,0.029l-2.096-7.08l0.646-1.79l-0.531-2.093l0.494-1.181l-0.229-1.255l0.838-2.36l-0.496-0.494
		h-0.684l-0.609-0.647h-0.496v-3.538l0.42-0.381v-4.873l2.619-10.517c1.406-1.251,2.639-2.361,3.633-3.26
		c2.871-2.599,2.713-2.502,2.713-2.648L172.213,61.423z M29.545,86.775l-3.465,4.242l1.627-3.919l0.668-0.033l0.631-0.659
		l0.539,0.089V86.775z M29.994,67.844c0,0-0.42-0.06-0.66,0.209l-2.338-3.058l0.93-1.92l0.18-0.06l0.025-0.008
		c0.16,0.318,0.529,0.557,0.98,0.621v0.181c-0.211,0.063-0.355,0.185-0.355,0.327c0,0.04,0,0.189,0,0.23
		c0,0.206,0.305,0.375,0.678,0.375s0.676-0.169,0.676-0.375c0-0.041,0-0.19,0-0.23c0-0.14-0.139-0.259-0.342-0.323v-0.22
		c0.516-0.133,0.887-0.501,0.887-0.935v-0.378l0.195-0.057l0.594,0.751l0.176,0.686l-0.135,0.669L29.994,67.844z M31.436,75.97
		l-0.152-2.999l0.121-0.06l-0.15-3.448l0.439-0.661l0.227,7.214L31.436,75.97z M38.658,87.515l-0.715-0.795
		c0.012-0.042-0.115-0.175-0.016-0.126l-0.043-0.259l0.008-0.692l0.072,0.027c0.008,0.004,0.025,0.063,0.035,0.064l0.717,1.39
		L38.658,87.515z M157.566,109.24l0.066-2.054l0.205,0.916L157.566,109.24z M158.828,100.263l-1.182,5.448l0.201-6.726l1.158,0.228
		L158.828,100.263z M159.652,95.414l-1.662-0.271l0.416-13.546c0.162-0.142,0.43-0.361,0.592-0.503l1.391,5.544v4.72l0.15,0.038
		l0.016,3.139L159.652,95.414z M159.525,62.024c0.027-0.011,0.135-0.167,0.162-0.176c0.041-0.018,0.1,0.015,0.141,0
		c0.051-0.02,0.104-0.038,0.152-0.054c0.074-0.026,0.082-0.035,0.127-0.049c0.076-0.025,0.109-0.012,0.182-0.029
		c0.029-0.009,0.068-0.028,0.098-0.035c0.043-0.011,0.1-0.035,0.141-0.044c0.029-0.006,0.041,0.005,0.068,0
		c0.039-0.007,0.061-0.042,0.098-0.049c0.023-0.004,0.061-0.001,0.082-0.005c0.041-0.004,0.082,0.038,0.117,0.034
		c0.02-0.001,0.033-0.009,0.049-0.01c0.055-0.003,0.107-0.053,0.152-0.053c0.275,0,0.438,0.061,0.539,0.111
		c0.051,0.025,0.123,0.028,0.143,0.043l0.018,0.09l0.031,0.024l-0.016,0.029c0.01,0.014,0.016,0.019,0.006,0.037v0.241
		L159.525,62.024z M161.986,82.224l-0.236-0.024l-0.354-1.872l0.895,0.146L161.986,82.224z M162.697,62.175l-0.277-0.015v-0.647
		l0.277-0.17V62.175z"/>
	<polygon points="76.992,83.556 76.992,83.557 76.992,83.556 	"/>
</g>
<g>
	<polygon fill="#FFFFFF" points="157.967,99.018 157.729,98.972 157.486,106.367 157.77,105.083 	"/>
	<polygon fill="#FFFFFF" points="157.367,110.076 157.645,108.913 157.691,107.485 157.48,106.599 	"/>
	<path fill="#FFFFFF" d="M163.838,138.328c-0.025-0.058-0.059-0.117-0.107-0.167c-0.047-0.05-0.115-0.088-0.197-0.088l-0.037,0.003
		c-0.123,0.015-0.381,0.031-0.604,0.043c-0.172,0.01-0.322,0.016-0.385,0.02c-0.227-0.224-2.07-1.932-6.766-3.345
		c-0.008-0.122-0.016-0.237-0.014-0.325c-0.002-0.046,0-0.082,0.004-0.102v-0.001c0.004-0.022,0.006-0.045,0.006-0.067
		c0-0.156-0.074-0.3-0.188-0.428c-0.17-0.189-0.434-0.355-0.781-0.498c-0.025-0.012-0.053-0.021-0.078-0.03l-0.016,0.152
		c0.609,0.242,0.951,0.563,0.91,0.851c-0.033,0.224,0.064,0.902,0.033,1.126c-0.064,0.439-1.193,0.641-2.525,0.45
		s-2.361-0.699-2.299-1.138c0.031-0.224,0.328-0.889,0.361-1.111c0.033-0.237,0.324-0.413,0.791-0.496l-0.008-0.147
		c-0.154,0.026-0.293,0.061-0.414,0.105c-0.139,0.053-0.254,0.118-0.346,0.202c-0.09,0.085-0.154,0.191-0.172,0.314
		c-0.004,0.035-0.027,0.117-0.059,0.21c-0.047,0.142-0.115,0.318-0.174,0.481c-0.061,0.166-0.111,0.309-0.127,0.421l-0.004,0.059
		c0,0.084,0.023,0.163,0.063,0.235c0,0.002,0.004,0.003,0.004,0.003c-0.014,0.154-0.031,0.428-0.031,0.762
		c0.002,0.749,0.086,1.794,0.539,2.465c0.377,0.558,1.205,1.418,1.969,2.164c0.762,0.746,1.451,1.372,1.551,1.456
		c0.09,0.073,0.24,0.249,0.465,0.401c0.227,0.156,0.533,0.292,0.936,0.291c0.211,0.001,0.377-0.08,0.498-0.197
		c0.18-0.176,0.262-0.426,0.307-0.632c0.041-0.203,0.041-0.363,0.041-0.371l0.029-2.035v-0.003l0.008-0.014
		c0.012-0.01,0.051-0.029,0.146-0.029c0.01-0.001,0.064,0.007,0.135,0.021c0.516,0.098,2.137,0.494,3.156,0.494
		c0.203,0,0.381-0.014,0.529-0.054c0.107-0.028,0.203-0.07,0.271-0.136c-0.029,0.059-0.059,0.122-0.061,0.194
		c0,0.028,0.006,0.061,0.025,0.091c0.047,0.068,0.115,0.104,0.17,0.127s0.1,0.032,0.102,0.033l0.008,0.001h1.039l1.363-1.498
		l-0.004-0.034C163.902,138.554,163.887,138.444,163.838,138.328z M162.477,139.94h-0.955c-0.016-0.003-0.049-0.012-0.086-0.028
		s-0.07-0.042-0.086-0.066l0,0l-0.002-0.008c-0.002-0.028,0.027-0.103,0.061-0.159c0.018-0.027,0.033-0.053,0.047-0.073l0.02-0.028
		l0.09-0.117h-0.311h-0.041l-0.021,0.035c-0.033,0.057-0.113,0.108-0.242,0.142c-0.127,0.033-0.295,0.049-0.49,0.049
		c-0.563,0-1.336-0.128-1.988-0.258c-0.328-0.064-0.627-0.127-0.854-0.176c-0.113-0.025-0.211-0.046-0.285-0.06
		c-0.076-0.014-0.125-0.022-0.164-0.023c-0.115,0.001-0.189,0.023-0.242,0.065c-0.051,0.041-0.063,0.097-0.063,0.127l0.002,0.01
		l-0.027,2.027v0.001c0,0,0,0.015-0.004,0.046c-0.004,0.102-0.027,0.364-0.129,0.593c-0.051,0.112-0.117,0.218-0.209,0.292
		c-0.092,0.073-0.205,0.121-0.357,0.121c-0.369,0-0.643-0.123-0.852-0.265c-0.209-0.143-0.348-0.305-0.453-0.394
		c-0.092-0.077-0.785-0.705-1.543-1.447c-0.76-0.742-1.588-1.604-1.949-2.142c-0.42-0.618-0.516-1.646-0.514-2.382
		c0-0.232,0.01-0.434,0.018-0.585c0.055,0.054,0.119,0.105,0.189,0.155c0.432,0.302,1.172,0.553,2.037,0.677
		c0.348,0.05,0.682,0.074,0.988,0.074c0.449-0.002,0.838-0.05,1.135-0.146c0.148-0.05,0.275-0.109,0.375-0.19
		c0.102-0.079,0.178-0.186,0.195-0.313c0.006-0.045,0.008-0.091,0.008-0.145c0-0.111-0.01-0.253-0.02-0.396
		c2.451,0.742,4.115,1.563,5.164,2.202c0.537,0.326,0.914,0.604,1.156,0.802c0.121,0.097,0.211,0.176,0.266,0.229
		c0.029,0.026,0.051,0.047,0.064,0.06l0.018,0.02l0.025,0.025l0.033-0.003c0.002,0,0.77-0.03,1.035-0.063l0.018-0.001
		c0.035,0,0.063,0.014,0.094,0.043c0.041,0.043,0.078,0.124,0.1,0.191c0.012,0.034,0.018,0.066,0.021,0.088l0,0L162.477,139.94z"/>
	<path fill="#FFFFFF" d="M151.977,133.677l-0.014-0.226c-0.311,0.068-0.514,0.189-0.535,0.35c-0.049,0.352,0.773,0.759,1.838,0.91
		c1.064,0.152,1.971-0.009,2.02-0.36c0.029-0.198-0.223-0.415-0.639-0.593l-0.02,0.192c0.178,0.11,0.275,0.231,0.26,0.343
		c-0.039,0.278-0.756,0.407-1.602,0.286c-0.846-0.12-1.498-0.442-1.457-0.722C151.838,133.787,151.891,133.726,151.977,133.677z"/>
	<path fill="#FFFFFF" d="M44.213,96.119c-0.002-0.012-0.004-0.021-0.008-0.033c-0.033-0.151-0.064-0.307-0.064-0.372
		c0-0.096-0.049-0.187-0.129-0.262c-0.133-0.125-0.354-0.224-0.641-0.291l-0.002,0.124c0.096,0.023,0.186,0.049,0.266,0.08
		c0.129,0.051,0.229,0.112,0.295,0.174c0.064,0.063,0.092,0.121,0.092,0.175c0,0.093,0.035,0.243,0.068,0.397
		c0.033,0.15,0.064,0.306,0.064,0.37c0,0.05-0.031,0.107-0.109,0.167c-0.23,0.184-0.826,0.328-1.512,0.326
		c-0.459,0-0.873-0.061-1.17-0.158c-0.148-0.05-0.266-0.107-0.342-0.168c-0.078-0.06-0.109-0.117-0.109-0.167
		c0-0.064,0.033-0.227,0.068-0.384c0.033-0.161,0.068-0.318,0.07-0.411c0-0.056,0.027-0.111,0.09-0.172
		c0.076-0.07,0.205-0.135,0.371-0.188l-0.027-0.114c-0.029,0.009-0.064,0.017-0.092,0.026c-0.139,0.052-0.252,0.115-0.332,0.189
		c-0.08,0.072-0.131,0.161-0.131,0.259c0,0.063-0.033,0.226-0.066,0.385c-0.035,0.16-0.07,0.317-0.072,0.41
		c0,0.01,0.006,0.019,0.006,0.028c-0.008,0.056-0.018,0.173-0.018,0.342c-0.002,0.557,0.131,1.645,1.012,2.682
		c0.619,0.73,1,1.137,1.26,1.387c0.26,0.247,0.398,0.342,0.527,0.439c0.131,0.101,0.453,0.246,0.777,0.247
		c0.182,0,0.365-0.049,0.502-0.188c0.139-0.139,0.223-0.362,0.223-0.695c0-0.021,0-0.042,0-0.064v-0.002l-0.338-3.475l0.502-0.469
		l0.055,0.749l0.117,0.028l0.07,0.018l-0.111-1.149L44.213,96.119z M44.635,97.141l0.344,3.523v0.059
		c0,0.316-0.08,0.509-0.193,0.623s-0.266,0.158-0.43,0.158c-0.291,0.001-0.609-0.142-0.715-0.225
		c-0.133-0.102-0.264-0.188-0.52-0.434c-0.256-0.246-0.633-0.649-1.252-1.378c-0.861-1.015-0.988-2.075-0.988-2.616
		c0-0.063,0.002-0.116,0.006-0.163c0.018,0.019,0.037,0.037,0.061,0.055c0.277,0.215,0.881,0.35,1.586,0.353
		c0.469,0,0.895-0.063,1.207-0.166c0.156-0.051,0.285-0.113,0.379-0.187c0.092-0.07,0.154-0.159,0.156-0.262
		c-0.002-0.063-0.02-0.153-0.039-0.254l1.045,0.217l0.008,0.086L44.635,97.141z"/>
	<path fill="#FFFFFF" d="M41.578,95.595l-0.037-0.146c-0.217,0.079-0.354,0.184-0.354,0.3c0,0.245,0.604,0.442,1.346,0.442
		s1.346-0.197,1.346-0.442c0-0.142-0.201-0.267-0.514-0.347l-0.002,0.128c0.146,0.061,0.236,0.135,0.236,0.219
		c0,0.193-0.479,0.352-1.066,0.352c-0.59,0-1.066-0.158-1.066-0.352C41.467,95.692,41.508,95.642,41.578,95.595z"/>
	<polygon fill="#FFFFFF" points="160.559,94.912 159.705,95.772 162.035,95.875 163,94.579 162.791,94.582 162.791,94.633 
		161.967,95.67 160.197,95.611 160.563,95.248 	"/>
	<path fill="#FFFFFF" d="M164.43,116.861l-0.014-0.202c-0.26,0.076-0.426,0.191-0.436,0.328c-0.023,0.304,0.705,0.605,1.625,0.675
		s1.686-0.12,1.707-0.425c0.014-0.175-0.225-0.349-0.602-0.478l-0.018,0.156c0.18,0.088,0.281,0.193,0.275,0.296
		c-0.018,0.24-0.625,0.391-1.355,0.336c-0.727-0.054-1.307-0.294-1.289-0.534C164.33,116.957,164.367,116.905,164.43,116.861z"/>
	<path fill="#FFFFFF" d="M169.242,118.205c-0.004-0.023-0.02-0.04-0.039-0.045l-1.459-0.414c-0.004-0.023-0.008-0.044-0.01-0.067
		c-0.025-0.174-0.051-0.37-0.047-0.453c0.018-0.241-0.18-0.476-0.557-0.659c-0.113-0.056-0.244-0.103-0.383-0.146l-0.014,0.119
		c0.539,0.172,0.854,0.429,0.834,0.677c-0.014,0.193,0.107,0.769,0.092,0.962c-0.023,0.326-0.734,0.547-1.666,0.547
		c-0.15,0-0.307-0.006-0.469-0.018c-1.148-0.086-2.057-0.463-2.029-0.843c0.014-0.193,0.23-0.779,0.244-0.973
		c0.016-0.207,0.258-0.374,0.66-0.47l-0.01-0.122c-0.469,0.107-0.748,0.311-0.77,0.583c-0.006,0.085-0.066,0.284-0.117,0.461
		c-0.063,0.207-0.119,0.402-0.127,0.511c-0.004,0.06,0.006,0.116,0.029,0.172c-0.021,0.142-0.045,0.359-0.045,0.64
		c0,0.743,0.17,1.901,1.016,3.064c0.699,0.964,1.133,1.501,1.432,1.835c0.299,0.332,0.463,0.46,0.611,0.594
		c0.166,0.147,0.6,0.379,1.027,0.381c0.217,0.001,0.436-0.063,0.602-0.239c0.166-0.175,0.273-0.453,0.293-0.868v-0.004l-0.096-4.338
		l0.879-0.746v1.516c0.045,0.015,0.088,0.031,0.129,0.047v-1.667c0-0.01-0.006-0.019-0.012-0.026
		C169.242,118.211,169.246,118.207,169.242,118.205z M168.146,119.019l-0.02,0.048l0.094,4.363c-0.018,0.396-0.119,0.645-0.26,0.789
		c-0.139,0.147-0.318,0.201-0.514,0.201c-0.381,0.004-0.811-0.224-0.945-0.348c-0.154-0.139-0.309-0.258-0.604-0.587
		c-0.293-0.327-0.725-0.862-1.424-1.824c-0.828-1.138-0.994-2.269-0.994-2.994c-0.002-0.195,0.012-0.359,0.025-0.488
		c0.109,0.119,0.281,0.231,0.518,0.328c0.395,0.164,0.926,0.278,1.494,0.321c0.16,0.012,0.32,0.018,0.477,0.018
		c0.801,0,1.75-0.173,1.787-0.658c0.006-0.073-0.004-0.186-0.021-0.312l1.301,0.369L168.146,119.019z"/>
	<path fill="#FFFFFF" d="M18.938,107.161c0,0.288,0.703,0.519,1.572,0.519s1.574-0.23,1.574-0.519c0-0.188-0.311-0.354-0.77-0.444
		l-0.012,0.129c0.275,0.077,0.455,0.188,0.455,0.315c0,0.227-0.559,0.412-1.248,0.412s-1.248-0.186-1.248-0.412
		c0-0.091,0.096-0.176,0.25-0.243l-0.039-0.146C19.145,106.867,18.938,107.007,18.938,107.161z"/>
	<path fill="#FFFFFF" d="M28.404,109.318c-0.039-0.046-0.098-0.103-0.186-0.104c-0.023,0-0.051,0.005-0.076,0.015
		c-0.115,0.048-0.246,0.109-0.305,0.138l-2.014-1.245l-0.004-0.001c0,0-0.068-0.03-0.154-0.061c-0.084-0.031-0.182-0.063-0.26-0.064
		h-0.002c-0.043-0.003-0.266-0.044-0.563-0.101c-0.447-0.085-1.076-0.21-1.592-0.313c-0.318-0.064-0.594-0.12-0.76-0.151
		c-0.025-0.126-0.049-0.248-0.049-0.308c0-0.339-0.434-0.61-1.104-0.731l-0.008,0.121c0.613,0.113,0.99,0.353,0.99,0.61
		c0,0.183,0.156,0.714,0.156,0.896c0,0.357-0.881,0.647-1.967,0.647s-1.967-0.29-1.967-0.647c0-0.183,0.16-0.747,0.16-0.93
		c0-0.216,0.266-0.408,0.713-0.525l-0.031-0.118c-0.502,0.132-0.799,0.358-0.799,0.644c0,0.078-0.043,0.27-0.08,0.438
		c-0.043,0.199-0.082,0.387-0.082,0.491c0,0.113,0.055,0.215,0.15,0.304l0,0c-0.008,0.083-0.014,0.189-0.014,0.32
		c-0.004,0.866,0.314,2.667,2.633,3.953c0.033,0.061,0.168,0.296,0.379,0.536c0.244,0.272,0.594,0.556,1.02,0.558
		c0.131,0,0.27-0.028,0.412-0.093c0.221-0.101,0.369-0.249,0.457-0.418c0.09-0.168,0.121-0.354,0.121-0.534
		c0-0.467-0.207-0.898-0.219-0.923l-0.262-0.813l0.021-0.033c0.018-0.017,0.043-0.031,0.094-0.031c0.01,0,0.068,0.005,0.148,0.015
		c0.248,0.028,0.744,0.087,1.238,0.087c0.34,0,0.68-0.026,0.943-0.113c0.131-0.043,0.244-0.101,0.328-0.184
		c0.057-0.057,0.096-0.127,0.117-0.205l0.014,0.01c0,0.045,0.004,0.132,0.031,0.214c0.014,0.044,0.037,0.086,0.072,0.12
		c0.033,0.034,0.084,0.059,0.143,0.058c0.063,0,0.129-0.023,0.205-0.07c0.393-0.241,1.98-1.29,1.982-1.29l0.041-0.028l-0.02-0.046
		C28.459,109.408,28.441,109.365,28.404,109.318z M27.529,109.94c-0.447,0.292-0.941,0.615-1.135,0.733
		c-0.064,0.041-0.111,0.053-0.143,0.053c-0.027,0-0.043-0.008-0.061-0.024c-0.023-0.022-0.045-0.07-0.053-0.12
		c-0.012-0.051-0.014-0.103-0.014-0.131l0.002-0.023v-0.03l-0.145-0.109l-0.096-0.072v0.119c0,0.096-0.035,0.166-0.098,0.23
		c-0.094,0.095-0.264,0.163-0.477,0.204c-0.209,0.041-0.457,0.057-0.709,0.057c-0.322,0-0.65-0.025-0.904-0.05
		c-0.127-0.012-0.236-0.025-0.318-0.034c-0.084-0.01-0.135-0.018-0.164-0.018c-0.092,0-0.156,0.04-0.189,0.081
		c-0.037,0.041-0.047,0.079-0.049,0.085l-0.004,0.018l0.277,0.859l0.002,0.003c0,0,0.012,0.025,0.031,0.073
		c0.061,0.142,0.178,0.47,0.178,0.803c0,0.167-0.029,0.333-0.105,0.479c-0.078,0.144-0.203,0.271-0.404,0.363
		c-0.127,0.058-0.248,0.082-0.361,0.082c-0.367,0.001-0.695-0.253-0.93-0.519c-0.117-0.131-0.211-0.264-0.273-0.363
		c-0.031-0.048-0.057-0.089-0.072-0.118c-0.018-0.028-0.025-0.045-0.025-0.045l-0.008-0.016l-0.016-0.009
		c-2.291-1.268-2.586-3.016-2.588-3.857c0-0.088,0.002-0.165,0.008-0.231c0.377,0.247,1.102,0.375,1.822,0.375
		c1.037,0,2.086-0.263,2.086-0.768c0-0.103-0.039-0.277-0.078-0.462c0.275,0.055,0.777,0.155,1.289,0.258
		c0.377,0.074,0.76,0.148,1.055,0.205c0.148,0.028,0.273,0.052,0.367,0.067c0.047,0.01,0.086,0.016,0.115,0.021
		c0.029,0.004,0.047,0.007,0.063,0.007c0.043-0.002,0.141,0.026,0.221,0.057c0.074,0.027,0.133,0.053,0.143,0.057l2.063,1.275
		l0.031-0.016c0,0,0.043-0.022,0.107-0.052c0.061-0.03,0.145-0.066,0.217-0.096l0.031-0.006c0.029-0.002,0.063,0.021,0.09,0.057
		l0.018,0.023C28.209,109.493,27.889,109.705,27.529,109.94z"/>
	<path fill="#FFFFFF" d="M170.438,60.613h-0.088h-0.094c-0.457,0-0.945,0.018-1.418,0.229c-0.061,0.027-0.418,0.256-2.715,1.742
		l-2.49-0.124v0.23c0,0.03-0.012,0.058-0.031,0.078c-0.021,0.021-0.049,0.032-0.078,0.032h-0.715c-0.031,0-0.059-0.012-0.08-0.032
		c-0.02-0.021-0.031-0.048-0.031-0.078v-0.276L162.42,62.4v0.532l-0.021,0.052l-0.053,0.021h-0.459l-0.053-0.021l-0.02-0.052V62.37
		l-2.693-0.134c0.941-0.448,1.57-0.574,1.977-0.573c0.275,0,0.447,0.058,0.549,0.108c0.051,0.024,0.084,0.049,0.104,0.066
		l0.018,0.018l0.004,0.002l0,0c0.037,0.049,0.104,0.061,0.156,0.029l1.77-1.086c0.037-0.022,0.059-0.063,0.059-0.104l-0.029-1.563
		c0-0.063-0.051-0.114-0.113-0.117l-4.855-0.291c-0.023-0.001-0.047,0.004-0.066,0.017l-0.947,0.557l-0.008-0.421
		c-0.002-0.062-0.049-0.113-0.111-0.118l-5.154-0.362c-0.025-0.002-0.051,0.005-0.072,0.019l-1.221,0.779l-0.016-0.828
		c-0.002-0.062-0.051-0.113-0.113-0.117l-4.635-0.277c-0.023-0.003-0.049,0.004-0.068,0.017l-0.783,0.471l-0.006-0.435
		c0-0.062-0.049-0.112-0.111-0.117l-4.051-0.248c-0.021-0.002-0.043,0.004-0.064,0.015l-0.979,0.54l-0.006-0.458
		c-0.002-0.063-0.053-0.114-0.113-0.118l-4.049-0.247c-0.023-0.002-0.047,0.003-0.066,0.016l-1.217,0.687l-0.014-0.693
		c0-0.063-0.049-0.114-0.111-0.118l-3.857-0.244c-0.021,0-0.043,0.004-0.061,0.015l-0.736,0.386l-0.006-0.329
		c-0.002-0.062-0.051-0.112-0.113-0.115l-3.621-0.222l-0.059,0.011l-1.016,0.491l-0.008-0.447c-0.002-0.064-0.051-0.115-0.111-0.119
		l-3.684-0.221l-0.059,0.011l-0.463,0.217l-0.002-0.129c0-0.063-0.049-0.113-0.113-0.118l-3.684-0.22l-0.053,0.009l-0.5,0.217
		l-0.006-0.173c0-0.063-0.049-0.113-0.111-0.116l-3.857-0.232l-0.061,0.011l-0.658,0.312v-0.249
		c-0.002-0.063-0.051-0.115-0.113-0.119l-3.189-0.195l-0.053,0.008l-0.781,0.313l-0.002-0.306c0-0.063-0.051-0.115-0.113-0.119
		l-3.189-0.195l-0.053,0.008l-0.979,0.392l-0.006-0.301c-0.002-0.063-0.051-0.114-0.113-0.118l-2.605-0.177l-0.049,0.007
		l-1.236,0.438l-0.006-0.388c-0.002-0.062-0.051-0.112-0.113-0.118l-2.66-0.159l-0.053,0.008l-0.822,0.329l-0.004-0.281
		c-0.002-0.063-0.049-0.115-0.113-0.118l-2.387-0.142l-0.049,0.008l-0.807,0.314l-0.002-0.184c-0.002-0.062-0.053-0.112-0.113-0.117
		l-2.387-0.143l-0.051,0.008l-0.74,0.291l-0.004-0.316c-0.002-0.063-0.051-0.113-0.113-0.117l-2.734-0.17l-0.049,0.008l-0.816,0.302
		l-0.004-0.247c0-0.063-0.049-0.114-0.111-0.118l-2.49-0.15l-0.047,0.007l-0.854,0.308l-0.004-0.259
		c0-0.063-0.051-0.114-0.113-0.117l-2.488-0.15l-0.047,0.006l-0.791,0.287l-0.006-0.231c-0.002-0.063-0.051-0.114-0.111-0.117
		l-1.928-0.116l-0.041,0.005l-0.814,0.247v-0.199c0-0.063-0.051-0.115-0.113-0.119l-2.117-0.12l-0.041,0.004l-0.572,0.172v-0.109
		c0.002-0.064-0.049-0.117-0.113-0.122l-2.307-0.125l-0.047,0.007L69.9,53.544V53.49c-0.002-0.063-0.051-0.113-0.113-0.116
		l-2.309-0.126l-0.047,0.007l-0.455,0.161l-0.002-0.1c0-0.062-0.049-0.112-0.111-0.117l-2.43-0.145l-0.045,0.005l-0.438,0.145
		l-0.002-0.073c-0.002-0.063-0.051-0.112-0.113-0.116l-2.383-0.145l-0.043,0.006l-0.459,0.147l-0.002-0.092
		c0-0.062-0.049-0.113-0.111-0.117l-2.383-0.145l-0.043,0.006l-0.449,0.145v-0.045c0-0.062-0.049-0.113-0.111-0.118l-1.947-0.129
		l-0.043,0.005l-0.455,0.139l-0.002-0.052c-0.002-0.063-0.049-0.114-0.113-0.117l-1.871-0.114l-0.041,0.004l-0.498,0.156
		l-0.002-0.082c0-0.063-0.049-0.112-0.111-0.115l-2.146-0.123l-0.041,0.005l-0.77,0.236l-0.006-0.207
		c0-0.063-0.049-0.114-0.111-0.117l-2.186-0.133l-0.045,0.006l-0.406,0.13l-0.004-0.069c-0.002-0.063-0.051-0.113-0.111-0.117
		l-2.186-0.133l-0.045,0.006l-0.398,0.128v-0.025c0-0.064-0.049-0.116-0.111-0.12l-1.787-0.118l-0.045,0.005l-0.404,0.122v-0.033
		c0-0.063-0.051-0.113-0.113-0.119l-1.715-0.104l-0.045,0.006l-0.963,0.302l-0.102-0.009l-0.043,0.004l-0.514,0.145V51.93
		c0-0.063-0.047-0.114-0.109-0.119l-2.189-0.189l-0.041,0.004l-1.078,0.297c-2.201,0.068-5.42,0.191-6.295,0.332l-0.051,0.013
		c-0.145,0.047-1.684,0.433-3.17,0.806c-2.914,0.73-5.168,1.297-5.434,1.397l-0.02,0.009c-0.18,0.086-0.4,0.192-0.393,0.513
		c0.002,0.102,0.311,8.396,0.324,8.749c0.043,0.528,0.609,0.877,1.408,0.877c0.307,0,0.756-0.132,1.068-0.231
		c0.059-0.019,0.736-0.215,1.674-0.485c1.684-0.485,4.449-1.286,7.242-2.102l0.422,14.305l-0.391-0.02l0.006,0.136l-1.443,0.909
		l-1.184-0.073l-0.014-0.329l-0.008,0.003l-0.65,0.489l1.975,0.145l1.713-1.142l0.348,11.819l0.008,0.046
		c0.059,0.437,0.686,0.739,1.539,0.739c0.031,0,0.061-0.001,0.092-0.001c0.773-0.021,1.568-0.319,1.592-0.85l-0.002-0.039h0.002
		l-0.014-0.49c0.23,0.065,0.5,0.105,0.799,0.105c0.051,0,0.102-0.002,0.152-0.004c0.814-0.036,1.645-0.359,1.658-0.912l-0.002-0.042
		h0.002l-0.035-0.867c0.254,0.091,0.568,0.145,0.924,0.145c0.051,0,0.1-0.001,0.154-0.004c0.811-0.034,1.643-0.358,1.656-0.911
		l-0.002-0.042l0,0l-0.02-0.508c0.215,0.053,0.461,0.086,0.73,0.086c0.051,0,0.1-0.001,0.15-0.003
		c0.814-0.036,1.645-0.359,1.658-0.912v-0.043l0,0l-0.006-0.156c0.295,0.086,0.646,0.136,1.035,0.136
		c0.064,0,0.127-0.001,0.191-0.005c1.014-0.044,2.047-0.437,2.063-1.104l-0.002-0.05l0,0V82.34l0,0
		c0.303,0.08,0.654,0.124,1.043,0.124c0.051,0,0.102-0.001,0.15-0.002c0.945-0.03,1.908-0.346,2.139-0.901
		c0.199,0.026,0.402,0.041,0.605,0.041c0.041,0,0.082,0,0.123-0.001c0.682-0.018,1.377-0.184,1.803-0.479
		c0.246,0.042,0.502,0.063,0.76,0.063c0.027,0,0.053,0,0.082-0.001c0.809-0.014,1.637-0.234,2.018-0.642l0,0
		c0.365,0.101,0.781,0.151,1.195,0.151c0.029,0,0.059,0,0.088-0.001c0.549-0.009,1.105-0.107,1.545-0.286
		c0.383,0.11,0.824,0.169,1.266,0.169h0.057c0.461-0.006,0.93-0.075,1.328-0.202c0.459,0.276,1.16,0.449,1.971,0.449h0.027
		c0.375-0.003,0.727-0.041,1.045-0.111l0,0c0.459,0.286,1.176,0.468,2.006,0.471h0.014c0.461,0,0.928-0.058,1.332-0.174l0,0
		c0.461,0.289,1.18,0.471,2.012,0.475h0.014c0.344,0,0.691-0.034,1.014-0.099c0.227,0.603,1.27,1.039,2.586,1.044h0.016
		c0.316,0,0.637-0.026,0.938-0.081l0,0c0.23,0.603,1.271,1.035,2.586,1.04h0.016c0.277,0,0.557-0.022,0.826-0.063v0.168l0.006,0.052
		c0.068,0.695,1.186,1.216,2.631,1.222h0.016c0.488,0,0.982-0.064,1.41-0.189v1.04l0.006,0.05c0.07,0.725,1.238,1.269,2.75,1.273
		h0.014c0.379,0,0.734-0.034,1.059-0.097v0.312l0.004,0.051c0.07,0.724,1.24,1.269,2.75,1.273h0.016c0.309,0,0.6-0.023,0.871-0.066
		v0.944l0.006,0.051c0.068,0.723,1.238,1.269,2.75,1.272h0.014c0.529,0,1.016-0.068,1.43-0.187v1.502l0.004,0.05
		c0.07,0.724,1.24,1.269,2.75,1.273h0.016c0.584,0,1.117-0.082,1.555-0.225l-0.008,1.698l0.006,0.053
		c0.07,0.724,1.238,1.269,2.75,1.272h0.016c0.535,0,1.025-0.069,1.441-0.189l-0.014,2.702l0.004,0.053
		c0.072,0.724,1.24,1.27,2.75,1.273h0.018c0.84,0,1.576-0.17,2.076-0.447l-0.029,3.249l0.004,0.051
		c0.068,0.725,1.234,1.274,2.746,1.285h0.039c0.684,0,1.291-0.107,1.758-0.293l-0.066,3.851l0.004,0.051
		c0.064,0.726,1.225,1.283,2.736,1.306c0.031,0,0.061,0.002,0.09,0.002c0.846,0,1.574-0.17,2.059-0.446l-0.123,4.571l0.004,0.052
		c0.057,0.726,1.211,1.296,2.721,1.334c0.053,0.001,0.102,0.002,0.152,0.002c0.711,0,1.336-0.122,1.801-0.329l-0.137,4.199
		l0.004,0.053c0.049,0.726,1.203,1.303,2.715,1.348c0.063,0.003,0.123,0.004,0.184,0.004c0.666,0,1.254-0.108,1.705-0.293
		l-0.047,1.495c-0.004,0.117,0.08,0.221,0.195,0.243l5.596,1.049l0.033,0.006l0.023,0.001l0.025-0.002
		c0.047-0.005,0.09-0.022,0.127-0.052l0.045-0.046l0.158-0.174l-0.047,1.453c-0.002,0.118,0.08,0.222,0.197,0.244l5.596,1.048
		l0.033,0.006l0.023,0.001l0.025-0.002c0.045-0.005,0.088-0.022,0.127-0.051l0.043-0.047l0.158-0.171l-0.045,1.37
		c-0.004,0.118,0.08,0.222,0.195,0.244l5.596,1.05l0.033,0.004l0.023,0.002l0.027-0.002c0.045-0.004,0.088-0.022,0.127-0.052
		l0.043-0.045l1.879-2.061l0.018-0.022l0.01-0.014c0.027-0.038,0.043-0.085,0.045-0.132l0.35-10.719l3.861,0.725l0.033,0.005
		l0.023,0.002l0.027-0.002c0.043-0.005,0.088-0.021,0.125-0.051l0.045-0.047l0.395-0.433l-0.141,4.456
		c-0.004,0.119,0.078,0.222,0.195,0.244l5.25,0.984l0.057-0.233l-5.262-0.987l0.668-21.188l-0.238-0.045l-0.518,16.4l-0.6,0.656
		v0.005l-0.002-0.001l-0.002,0.001v-0.001l-3.91-0.733l-0.006,0.168l1.146-35.174l-0.24-0.036l-1.496,45.995l-0.01,0.013
		l-1.773,1.941l1.57-48.216l-0.238-0.036l-1.574,48.37l-5.492-1.028l1.52-48.206l-0.238-0.036l-1.467,46.495l-0.236,0.259
		l1.521-46.784l-0.236-0.036l-1.529,46.938l-5.492-1.03l1.475-46.771l-0.238-0.037l-1.418,44.979l-0.24,0.264l1.465-45.273
		l-0.238-0.036l-1.471,45.427l-5.492-1.029l1.428-45.259l-0.238-0.037l-1.373,43.531c-0.43,0.196-1.035,0.315-1.713,0.315
		c-0.059,0-0.117-0.001-0.176-0.002c-1.375-0.043-2.477-0.557-2.482-1.154h-0.004l1.414-43.366l-0.24-0.036l-1.27,38.93
		c-0.438,0.219-1.084,0.354-1.809,0.354c-0.049,0-0.096-0.001-0.145-0.002c-1.375-0.034-2.479-0.542-2.49-1.139h-0.002l1.049-38.87
		l-0.236-0.037l-0.922,34.039c-0.432,0.3-1.193,0.496-2.066,0.496c-0.029,0-0.059,0-0.086-0.001c-1.375-0.021-2.484-0.518-2.5-1.114
		h-0.002l0.58-34.197l-0.242-0.037l-0.51,30.115c-0.451,0.196-1.07,0.318-1.762,0.318h-0.037c-1.375-0.01-2.49-0.497-2.51-1.095
		l-0.002,0.001l0.271-30.049l-0.24-0.037l-0.24,26.56c-0.451,0.29-1.211,0.483-2.078,0.483h-0.016
		c-1.375-0.006-2.49-0.488-2.514-1.085h-0.002l0.133-26.692l-0.24-0.037l-0.119,23.775c-0.408,0.126-0.904,0.2-1.441,0.2h-0.014
		c-1.375-0.005-2.492-0.488-2.516-1.085h-0.002l0.117-23.509l-0.24-0.037l-0.105,21.596c-0.43,0.147-0.969,0.237-1.559,0.237h-0.014
		c-1.377-0.006-2.492-0.489-2.516-1.085h-0.002V70.593l-0.238-0.037v19.688c-0.404,0.124-0.896,0.196-1.43,0.196h-0.014
		c-1.375-0.005-2.49-0.488-2.514-1.084h-0.002V69.939l-0.24-0.037V88.17c-0.271,0.043-0.563,0.068-0.871,0.068h-0.014
		c-1.377-0.004-2.492-0.488-2.514-1.084h-0.004l0.002-17.782l-0.24-0.037v17.263c-0.322,0.064-0.68,0.102-1.059,0.102h-0.012
		c-1.375-0.004-2.492-0.488-2.516-1.084l-0.002,0.001v-16.84l-0.24-0.037v15.584c-0.395,0.127-0.881,0.202-1.41,0.202h-0.014
		c-1.311-0.004-2.375-0.465-2.396-1.033h-0.002V68.145l-0.24-0.039v14.976c-0.26,0.042-0.535,0.065-0.826,0.065h-0.014
		c-1.313-0.005-2.375-0.466-2.396-1.034l-0.002,0.001v-14.51l-0.24-0.037v14.547v-0.001c-0.273,0.048-0.572,0.074-0.887,0.074
		h-0.014c-1.311-0.004-2.375-0.465-2.396-1.033H70.33V67.052l-0.24-0.037v14.139v-0.004c-0.293,0.059-0.619,0.092-0.963,0.092
		h-0.012c-1.264-0.005-2.289-0.448-2.311-0.996h-0.002V66.504l-0.24-0.038v13.779l0.006,0.052c0.02,0.191,0.125,0.369,0.291,0.525
		c-0.324,0.076-0.695,0.12-1.09,0.12h-0.014c-1.264-0.005-2.289-0.449-2.309-0.998l-0.002,0.002V65.98l-0.24-0.036v14.002
		l0.004,0.052c0.021,0.188,0.121,0.362,0.283,0.518l0,0c-0.244,0.041-0.512,0.065-0.789,0.066h-0.025
		c-1.25,0-2.266-0.435-2.293-0.979l-0.002,0.002l-0.109-14.117l-0.24-0.038l0.109,14.157l0.008,0.052
		c0.021,0.197,0.133,0.378,0.311,0.535c-0.32,0.085-0.689,0.137-1.086,0.141l-0.053,0.001c-1.166,0-2.109-0.401-2.137-0.909h-0.002
		L56.98,64.974l-0.24-0.037l0.203,14.493l0.008,0.05c0.037,0.347,0.328,0.613,0.748,0.798c-0.342,0.104-0.75,0.168-1.191,0.176
		c-0.027,0-0.057,0-0.084,0c-1.152,0-2.082-0.393-2.111-0.896h-0.002l-0.299-15.045l-0.242-0.038l0.301,15.088l0.008,0.048
		c0.043,0.382,0.396,0.665,0.887,0.847c-0.338,0.277-0.996,0.473-1.758,0.487c-0.027,0-0.053,0-0.078,0
		c-1.066,0-1.924-0.362-1.951-0.828h-0.002l-0.32-16.096l-0.24-0.037l0.32,16.138l0.006,0.047c0.049,0.423,0.496,0.716,1.08,0.876
		c-0.363,0.181-0.881,0.302-1.459,0.316c-0.041,0.001-0.08,0.001-0.119,0.001c-1.047,0-1.887-0.352-1.918-0.813l-0.004,0.002
		l-0.479-16.968l-0.242-0.038l0.482,17.012l0.006,0.048c0.061,0.47,0.617,0.777,1.303,0.915c-0.213,0.377-0.979,0.676-1.898,0.705
		c-0.049,0.002-0.098,0.003-0.145,0.003c-1.02,0-1.84-0.342-1.873-0.792l-0.002,0.001l-0.629-18.32l-0.238-0.037l0.633,18.365
		l0.006,0.049c0.045,0.328,0.346,0.601,0.818,0.771l0,0l0.004,0.101v0.034c-0.01,0.439-0.818,0.826-1.83,0.87
		c-0.063,0.002-0.123,0.003-0.184,0.003c-0.936,0-1.682-0.308-1.717-0.724l-0.002,0.002l-0.906-19.968l-0.242-0.036l0.908,20.016
		l0.008,0.048c0.043,0.284,0.289,0.521,0.672,0.681l0.01,0.254v0.026c-0.008,0.343-0.637,0.644-1.428,0.678
		c-0.047,0.002-0.094,0.003-0.141,0.003c-0.73,0-1.313-0.241-1.34-0.563v0.001l-0.979-21.5l-0.24-0.037l0.979,21.547l0.006,0.047
		c0.039,0.247,0.262,0.45,0.602,0.581l0,0l0.023,0.597v0.025c-0.01,0.343-0.639,0.646-1.428,0.679
		c-0.049,0.003-0.096,0.004-0.143,0.004c-0.73,0-1.311-0.24-1.34-0.564l0,0l-1.059-23.282l-0.242-0.037l1.061,23.33l0.006,0.047
		c0.031,0.196,0.18,0.363,0.404,0.491l0,0l0.041,0.987v0.026c-0.008,0.343-0.639,0.644-1.428,0.677
		c-0.047,0.004-0.096,0.004-0.143,0.004c-0.729,0-1.311-0.24-1.338-0.564l-0.002,0.001L33.701,61.35l-0.24-0.037l1.156,25.445
		l0.006,0.047c0.037,0.231,0.234,0.424,0.535,0.557l0,0l0.012,0.58v0.024c-0.012,0.324-0.611,0.599-1.355,0.618
		c-0.029,0.001-0.057,0.001-0.086,0.001c-0.711,0-1.283-0.238-1.305-0.552h-0.002l-0.795-27.006l-0.242-0.037l0.018,0.561
		c-4.438,1.297-8.813,2.553-8.982,2.605c-0.152,0.049-0.432,0.137-0.689,0.186l-0.313-8.693l2.969-0.805l-0.01-0.248l-3.061,0.833
		c-0.121,0.023-0.238,0.039-0.326,0.039h-0.012l0,0c-0.309-0.004-0.572-0.07-0.754-0.173c-0.182-0.102-0.273-0.229-0.285-0.367
		c0.018-0.114,0.1-0.162,0.246-0.233c0.479-0.178,8.486-2.143,8.609-2.204c0.734-0.117,3.195-0.224,5.264-0.295l-3.199,0.881
		l-1.473,0.225l-3.789,0.985l2.545,0.364l0.002,0.364l-3.527-0.505l0.162,5.209l125.584,19.549v5.337
		c0,0.208,0.09,0.402,0.246,0.569l-0.273,8.647l0.24,0.041l0.266-8.491c0.395,0.268,1.004,0.435,1.709,0.435
		c0.465,0,0.91-0.08,1.279-0.222c0.023-0.001,0.041-0.009,0.057-0.02c0.018-0.007,0.035-0.012,0.051-0.019
		c0.176-0.077,2.219-1.84,4.35-3.7l-0.434,13.262l0.24,0.039l0.441-13.517c2.332-2.038,4.688-4.117,4.732-4.157
		c2.426-2.142,4.617-4.097,6.176-5.506c2.871-2.598,2.871-2.671,2.871-2.816V61.38C172.314,60.814,171.303,60.613,170.438,60.613z
		 M136.525,124.536L136.525,124.536L136.525,124.536L136.525,124.536z M130.367,122.059L130.367,122.059L130.367,122.059
		L130.367,122.059z M20.105,55.504c0.229,0.129,0.529,0.199,0.869,0.203l0,0h0.016c0.059,0,0.123-0.004,0.189-0.014l0.313,8.679
		c-0.023,0.003-0.047,0.005-0.068,0.005c-0.646,0-1.137-0.258-1.168-0.646c0,0-0.246-6.607-0.311-8.337
		C19.994,55.436,20.049,55.471,20.105,55.504z M164.889,63.385c-1.244,0.803-2.662,1.72-4.115,2.654l-5.463-0.534
		c0.047-0.184,0.15-0.436,0.381-0.749c0.359-0.491,1.029-1.128,2.246-1.87L164.889,63.385z M159.535,66.834
		c-2.229,1.428-4.436,2.83-6.115,3.865l-10.592-1.397l-0.018-0.021c0.031-0.119,0.137-0.408,0.381-0.782
		c0.385-0.588,1.104-1.353,2.439-2.234c0.498-0.328,0.918-0.565,1.117-0.669l0.023-0.007L159.535,66.834z M158.779,58.967
		l4.709,0.282l0.025,1.382l-1.635,1.004c-0.113-0.086-0.352-0.213-0.781-0.212c-0.611,0.001-1.604,0.248-3.193,1.201
		c-1.295,0.778-2.01,1.453-2.404,1.989c-0.262,0.355-0.379,0.648-0.432,0.868l-5.063-0.495l1.449-0.979
		c0.035-0.022,0.055-0.061,0.055-0.101v-0.662L158.779,58.967z M152.492,58.641l5.006,0.352l0.01,0.446l-5.998,3.527v-0.89
		c0-0.062-0.047-0.113-0.109-0.118l-3.604-0.323L152.492,58.641z M146.438,58.214l4.486,0.27l0.016,0.864l-3.533,2.253l-0.959-0.086
		c-0.025-0.002-0.051,0.005-0.074,0.019l-10.844,6.805l-5.375-0.71c0.043-0.069,0.096-0.145,0.16-0.228
		c0.002-0.002,0.004-0.002,0.004-0.004c0.063-0.082,0.137-0.17,0.219-0.264c0.004-0.003,0.006-0.007,0.01-0.01
		c0.035-0.04,0.074-0.081,0.113-0.123c0.012-0.011,0.021-0.022,0.031-0.033c0.039-0.039,0.078-0.078,0.119-0.119
		c0.01-0.01,0.018-0.019,0.029-0.028c0.049-0.048,0.102-0.097,0.158-0.147c0.01-0.012,0.021-0.021,0.033-0.031
		c0.043-0.041,0.092-0.082,0.141-0.123c0.02-0.018,0.039-0.035,0.059-0.052c0.045-0.037,0.094-0.077,0.141-0.117
		c0.021-0.016,0.039-0.031,0.061-0.048c0.066-0.054,0.137-0.108,0.211-0.163c0.016-0.012,0.031-0.024,0.045-0.034
		c0.063-0.047,0.125-0.094,0.189-0.14c0.027-0.019,0.055-0.038,0.082-0.059c0.059-0.041,0.121-0.083,0.184-0.126
		c0.027-0.018,0.053-0.037,0.082-0.057c0.09-0.059,0.18-0.119,0.279-0.18c0.01-0.01,0.023-0.016,0.037-0.025
		c0.084-0.053,0.174-0.107,0.268-0.163c0.031-0.02,0.064-0.039,0.098-0.059c0.078-0.047,0.158-0.093,0.24-0.141
		c0.035-0.02,0.068-0.039,0.105-0.059c0.113-0.064,0.23-0.131,0.355-0.195c0.098-0.053,0.195-0.103,0.287-0.148
		c0.061-0.03,0.117-0.058,0.176-0.087c0.031-0.014,0.063-0.029,0.092-0.044c0.076-0.038,0.154-0.074,0.229-0.108
		c0.006-0.002,0.01-0.005,0.016-0.008c0.078-0.035,0.156-0.071,0.229-0.104c0-0.001,0.002-0.001,0.004-0.001l6.197,0.604
		l1.266-0.792l-4.814-0.47l1.693-1.012c0.014-0.007,0.023-0.019,0.029-0.031c0.008-0.009,0.014-0.02,0.02-0.031L146.438,58.214z
		 M134.639,64.4c0.018-0.008,0.035-0.015,0.051-0.022h0.004C134.676,64.386,134.658,64.393,134.639,64.4z M141.416,57.902
		l3.902,0.239l0.008,0.46l-6.287,3.781v-1.426c0-0.062-0.047-0.112-0.109-0.118l-2.443-0.22L141.416,57.902z M136.203,57.633
		l3.904,0.239l0.006,0.475l-4.055,2.233l-1.855-0.166c-0.023-0.002-0.049,0.004-0.068,0.015l-0.906,0.506l0.002-0.497
		c0-0.063-0.045-0.115-0.109-0.119l-1.742-0.159l0.299,0.027L136.203,57.633z M130.938,57.28l3.711,0.233l0.014,0.714l-3.404,1.92
		l-2.264-0.205c-0.025-0.003-0.049,0.002-0.07,0.013l-4.701,2.512l-2.668-0.262L130.938,57.28z M122.771,63.242l-5.125,2.735
		l-4.469-0.591c0.063-0.1,0.156-0.221,0.299-0.365c0.422-0.434,1.26-1.059,2.895-1.838c0.395-0.189,0.732-0.342,1.025-0.467
		L122.771,63.242z M126.396,57.015l3.479,0.21l0.006,0.339l-8.762,4.6l-0.846-0.083l1.76-0.908c0.041-0.02,0.066-0.061,0.066-0.105
		v-1.63c0-0.062-0.049-0.114-0.109-0.119l-0.299-0.026L126.396,57.015z M121.52,56.729l3.543,0.212l0.008,0.449l-3.846,1.86
		l-2.951-0.268l-0.063,0.012l-0.979,0.476v-0.473c0-0.062-0.049-0.113-0.109-0.119l-0.158-0.015L121.52,56.729z M117.199,56.488
		l3.543,0.213l0.004,0.126l-4.256,1.993l-3.061-0.276l-0.063,0.011l-1.045,0.49v-0.442L117.199,56.488z M112.672,56.193l3.717,0.223
		l0.004,0.161l-4.283,1.856l-3.508-0.314L112.672,56.193z M108.646,55.952l3.051,0.187l0.002,0.249l-8.465,4.008l-2.227-0.227
		l2.398-1.062c0.043-0.021,0.07-0.063,0.07-0.11v-0.979L108.646,55.952z M101.611,61.172l-4.615,2.08l-2.629-0.346
		c0.039-0.038,0.086-0.082,0.137-0.128c0.02-0.018,0.043-0.037,0.066-0.057c0.018-0.016,0.037-0.033,0.059-0.051
		c0.043-0.036,0.088-0.073,0.137-0.112c0.016-0.012,0.035-0.024,0.051-0.037c0.041-0.033,0.088-0.066,0.135-0.103
		c0.02-0.014,0.039-0.027,0.059-0.042c0.064-0.046,0.133-0.094,0.207-0.144c0.014-0.009,0.025-0.018,0.039-0.026
		c0.066-0.044,0.137-0.089,0.209-0.136c0.023-0.014,0.043-0.027,0.066-0.04c0.088-0.055,0.182-0.109,0.279-0.167
		c0.01-0.007,0.021-0.013,0.031-0.018c0.092-0.052,0.189-0.105,0.289-0.16c0.027-0.015,0.053-0.029,0.082-0.045
		c0.113-0.06,0.232-0.12,0.357-0.183c0.008-0.004,0.016-0.008,0.023-0.011c0.117-0.059,0.242-0.118,0.371-0.178
		c0.037-0.016,0.072-0.032,0.107-0.049c0.141-0.065,0.287-0.13,0.439-0.194h0.002c0.125-0.057,0.244-0.103,0.359-0.149
		c0.051-0.02,0.1-0.039,0.146-0.056L101.611,61.172z M104.508,55.651l3.051,0.187l0.002,0.29l-4.084,1.633v-0.002
		c-0.002-0.028-0.014-0.056-0.033-0.076l0,0c-0.01-0.011-0.02-0.019-0.033-0.024c-0.012-0.007-0.027-0.011-0.043-0.012l-3.141-0.282
		L104.508,55.651z M100.748,55.456l2.473,0.166l0.004,0.284l-3.525,1.409l-0.266-0.023l-0.059,0.009l-0.658,0.278l0.002-0.237
		c0-0.075-0.055-0.137-0.131-0.144l-2.182-0.199L100.748,55.456z M96.688,55.235l2.523,0.153l0.006,0.357l-3.381,1.2L95.334,56.9
		c-0.023-0.001-0.045,0.001-0.066,0.011l-4.461,1.822l-0.881,0.313l-1.963-0.198l2.01-0.806c0.047-0.019,0.076-0.063,0.076-0.111
		v-0.029L96.688,55.235z M93.311,55.03l2.248,0.136l0.006,0.262l-5.516,2.214v-1.084c0-0.061-0.047-0.111-0.109-0.118l-0.176-0.018
		L93.311,55.03z M89.953,54.91l2.248,0.136l0.002,0.161l-2.965,1.163l-1.957-0.191l-0.055,0.008l-1.268,0.486v-0.195L89.953,54.91z
		 M86.307,54.607l2.598,0.16l0.006,0.294l-2.951,1.157v-0.021c0-0.062-0.047-0.112-0.107-0.118l-2.715-0.245l-0.053,0.006
		l-0.848,0.316V56.11L86.307,54.607z M82.836,54.4l2.354,0.143l0.004,0.218l-2.959,1.094c-0.002-0.06-0.047-0.108-0.107-0.114
		l-2.41-0.215L82.836,54.4z M79.332,54.187l2.352,0.143l0.006,0.229l-7.906,2.851l-0.051-0.005l1.639-0.593
		c0.049-0.017,0.08-0.063,0.08-0.113v-1.111L79.332,54.187z M76.445,54.016l1.795,0.108l0.002,0.201l-2.791,1.005v-0.076
		c0-0.062-0.047-0.115-0.109-0.119l-1.977-0.182L76.445,54.016z M73.359,53.828l1.982,0.113v0.159l-2.609,0.794l-0.178-0.017
		l-0.051,0.007l-0.842,0.293v-0.267c0-0.062-0.047-0.112-0.109-0.118l-1.092-0.099L73.359,53.828z M70.328,53.649l2.17,0.117v0.068
		l-2.68,0.801l-0.803-0.073l-0.051,0.007l-5.32,1.812l-0.635-0.064l1.482-0.501c0.049-0.015,0.082-0.062,0.082-0.112v-0.045
		L70.328,53.649z M67.488,53.49l2.174,0.117v0.02l0.006-0.001l-5.094,1.777v-0.883L67.488,53.49z M64.441,53.294l2.295,0.139
		l0.002,0.067l-2.166,0.768c-0.004-0.06-0.049-0.107-0.107-0.113L62.5,53.978l-0.047,0.007l-0.836,0.272v-0.034L64.441,53.294z
		 M61.463,53.111l2.25,0.137v0.033l-2.096,0.69c-0.014-0.049-0.055-0.087-0.105-0.091l-1.924-0.166L61.463,53.111z M58.463,52.911
		l2.25,0.137l0.002,0.051l-1.992,0.643v-0.003c0-0.064-0.047-0.119-0.109-0.123l-1.859-0.154L58.463,52.911z M55.908,52.77
		l1.816,0.12v0.007l-6.518,2.098l-0.303,0.094l-0.152-0.016l2.008-0.622c0.051-0.016,0.084-0.063,0.084-0.116v-0.636L55.908,52.77z
		 M53.428,52.63l1.74,0.104v0.009l-2.324,0.704v-0.225c0-0.063-0.047-0.114-0.109-0.12L52.1,53.046L53.428,52.63z M50.629,52.468
		l2.016,0.118v0.037l-1.168,0.367l-1.219-0.109l-0.045,0.004l-0.535,0.162l-0.002-0.108c0-0.061-0.047-0.113-0.109-0.117
		l-0.063-0.007L50.629,52.468z M47.516,52.254l2.053,0.124l0.004,0.164l-0.699,0.215l-1.734-0.156l-0.045,0.005l-3.469,1.025
		l-0.037-0.005c0.031-0.021,0.055-0.051,0.055-0.088V53.5L47.516,52.254z M44.764,52.071l2.053,0.124l0.002,0.031l-3.174,1.021
		l0.01-0.82L44.764,52.071z M42.418,51.939l1.629,0.109l-0.662,0.214l-1.535-0.149L42.418,51.939z M40.143,51.812l1.561,0.095
		l-0.672,0.202c-0.018-0.035-0.053-0.063-0.096-0.067l-1.184-0.107L40.143,51.812z M30.744,54.295l0.002,0.894l-0.553,0.159
		l-1.809-0.262l-0.004-1.079c0,0,7.807-2.142,7.803-2.149l2.049,0.184v0.045l-7.4,2.093C30.779,54.193,30.744,54.24,30.744,54.295z
		 M33.057,54.617l0.004,1.031l-0.264,0.079l-1.811-0.262l-0.002-1.081l8.043-2.276l1.777,0.162v0.022l-7.662,2.208
		C33.092,54.516,33.057,54.562,33.057,54.617z M33.299,55.797l-0.002-1.091l8.262-2.381l1.854,0.18l-0.01,0.941l-2.338,0.692
		c-0.033-0.003-0.092-0.006-0.184-0.006c-0.328,0-1.037,0.043-2.057,0.342c-0.719,0.209-1.098,0.402-1.303,0.554
		c-0.125,0.089-0.188,0.167-0.219,0.223l-2.561,0.757L33.299,55.797z M35.428,56.057l0.553-0.163l2.201,0.313v0.243L35.428,56.057z
		 M38.18,55.332v0.159L37.492,55.4c0.002-0.007,0.008-0.014,0.01-0.021l0.004,0.001c0-0.004,0.033-0.083,0.227-0.207
		c0.094-0.06,0.225-0.129,0.4-0.204l0.73,0.07l-0.598,0.179C38.215,55.232,38.18,55.279,38.18,55.332z M41.063,55.74l0.002,0.945
		l-0.523,0.161l-2.119-0.313l-0.002-1.112l8.719-2.581l2.299,0.209v0.068l-8.291,2.507C41.096,55.64,41.063,55.688,41.063,55.74z
		 M41.305,56.952l-0.004-1.124l8.959-2.707l2.344,0.211l0.002,0.914l-2.557,0.795c-0.135,0.001-1.029,0.021-2.193,0.407
		c-1.17,0.39-1.969,0.856-2.076,0.919l-2.705,0.842L41.305,56.952z M43.758,57.247l0.535-0.165l2.338,0.334l0.002,0.242
		L43.758,57.247z M46.629,56.517v0.089l-0.637-0.084c0.205-0.115,0.703-0.381,1.395-0.648l0.775,0.075l-1.447,0.454
		C46.664,56.42,46.629,56.465,46.629,56.517z M49.24,58.031l0.252-0.081v0.118L49.24,58.031z M49.49,56.93v0.77l-0.943,0.307
		l-1.676-0.249l-0.002-1.151l9.393-2.944l2.217,0.183l-0.002,0.122l-8.904,2.85C49.523,56.831,49.488,56.878,49.49,56.93z
		 M52.471,57.33l-0.002,0.93l-0.623,0.217l-2.113-0.309l-0.004-1.151l9.629-3.081l2.021,0.174l-0.002,0.226l-8.824,2.881
		C52.504,57.231,52.471,57.276,52.471,57.33z M52.705,58.604l0.004-1.188l9.795-3.195l1.83,0.163v1.231l-1.908,0.646
		c-0.057-0.015-0.168-0.033-0.355-0.033c-0.395,0-1.113,0.085-2.316,0.492h0.002c-1.223,0.401-1.846,0.715-2.176,0.94
		c-0.166,0.113-0.256,0.204-0.309,0.279c-0.02,0.026-0.033,0.051-0.043,0.075l-2.572,0.868L52.705,58.604z M58.588,59.368
		l-3.246-0.464l0.502-0.171l2.744,0.393V59.368z M58.588,58.184l-1.09-0.144c0.053-0.059,0.15-0.146,0.34-0.261
		c0.297-0.181,0.807-0.423,1.666-0.722l1.674,0.163l-2.51,0.854C58.621,58.091,58.59,58.135,58.588,58.184z M61.914,59.844
		l-0.348-0.049l0.348-0.124V59.844z M61.914,58.661v0.756l-1.029,0.362l-2.057-0.299v-1.205l10.191-3.471l2.402,0.217v0.24
		l-9.428,3.286C61.945,58.564,61.914,58.609,61.914,58.661z M62.154,59.968v-1.221l10.404-3.628l2.652,0.244v1.252l-2.053,0.741
		c-0.018,0-0.041-0.001-0.074-0.001c-0.271,0-1.076,0.057-2.555,0.605c-2.205,0.816-2.934,1.356-3.051,1.45l-2.605,0.942
		L62.154,59.968z M68.699,60.814l-3.15-0.45l0.48-0.174l2.67,0.382V60.814z M68.734,59.523l-0.832-0.11
		c0.379-0.231,1.182-0.662,2.709-1.228c0.033-0.012,0.063-0.021,0.094-0.033l1.375,0.134l-3.303,1.203
		C68.76,59.496,68.748,59.51,68.734,59.523z M71.988,60.062v0.991l-0.641,0.243l-2.408-0.349v-1.261l10.76-3.922l2.297,0.205v0.276
		l-9.93,3.703C72.02,59.968,71.988,60.012,71.988,60.062z M75.916,61.847l-0.654-0.093l0.453-0.178l0.201,0.028V61.847z
		 M75.916,60.615v0.626l-1.33,0.517l-2.357-0.335v-1.277l10.914-4.07l2.578,0.232v0.458l-9.727,3.739
		C75.947,60.522,75.916,60.567,75.916,60.615z M76.156,61.996v-1.298l11.131-4.276l2.521,0.245v1.183l-2.33,0.934
		c-0.059-0.013-0.17-0.032-0.354-0.032c-0.457,0.001-1.322,0.116-2.75,0.717c-2.488,0.997-3.076,1.664-3.199,1.839l-2.566,1.029
		L76.156,61.996z M83.756,62.968l-4.48-0.641l0.443-0.178l4.037,0.576V62.968z M81.59,61.22c0.332-0.29,1.113-0.826,2.873-1.53
		h0.002c0.137-0.057,0.264-0.105,0.389-0.154l3.219,0.313l-4.117,1.683L81.59,61.22z M87.77,62.266v0.902l-0.809,0.348l-2.918-0.412
		v-1.297l11.301-4.615l3.086,0.28l-0.002,0.229l-10.584,4.455C87.801,62.174,87.77,62.218,87.77,62.266z M88.086,63.712
		l-0.051-0.655v-0.721l1.85-0.778l9.557-4.023l3.773,0.339l0.021,0.063l0.002,0.982l-2.66,1.176
		c-0.049-0.007-0.145-0.017-0.289-0.017c-0.473,0-1.447,0.101-2.871,0.729l0,0c-2.582,1.1-3.354,2.046-3.484,2.226l-2.602,1.15
		L88.086,63.712z M96.617,64.809l-4.615-0.661l0.416-0.183l4.199,0.601V64.809z M101.525,65.51l-0.74-0.104l-0.039-0.009
		l0.391-0.189l0.037,0.011l0.352,0.049V65.51z M101.525,64.186v0.568l-1.424,0.687l-3.238-0.464v-1.401l11.602-5.227l3.617,0.324
		v0.485l-10.486,4.918C101.553,64.096,101.525,64.139,101.525,64.186z M106.252,64.887v0.938l-0.771,0.393l-3.715-0.54v-1.416
		l11.676-5.475l3.551,0.321v0.479l-10.672,5.191C106.277,64.798,106.252,64.84,106.252,64.887z M106.492,66.363v-1.402l11.791-5.735
		l3.576,0.321v1.447l-1.971,1.013c-0.004-0.006-0.008-0.011-0.016-0.018c-0.078-0.071-0.209-0.12-0.42-0.12
		c-0.457,0.003-1.344,0.221-3.188,1.099c-1.648,0.787-2.508,1.422-2.963,1.886c-0.379,0.39-0.473,0.66-0.492,0.796l-2.471,1.273
		L106.492,66.363z M117.016,67.726l-6.037-0.862l0.369-0.191l5.668,0.812V67.726z M122.311,67.102v1.327l-0.295,0.174l-4.762-0.682
		v-1.463l11.754-6.273l3.982,0.362l-0.002,0.522l-10.617,5.927C122.334,67.018,122.311,67.059,122.311,67.102z M122.549,68.676
		v-0.108v-1.396l11.67-6.515l4.58,0.411v1.492l-1.936,1.157c-0.01-0.007-0.018-0.014-0.027-0.021
		c-0.08-0.043-0.201-0.077-0.383-0.077c-0.449,0.003-1.293,0.202-2.957,1.068l-0.002,0.001c-3.119,1.666-3.709,3.028-3.803,3.311
		l-2.301,1.376L122.549,68.676z M134.832,70.273l-6.84-0.979l0.328-0.195l6.512,0.932V70.273z M135.07,70.48v-1.571l11.396-7.151
		l4.803,0.43v1.657l-1.689,1.141c-0.033-0.03-0.072-0.063-0.131-0.097c-0.145-0.086-0.375-0.166-0.705-0.166
		c-0.635,0.001-1.641,0.283-3.244,1.341c-1.357,0.896-2.102,1.681-2.51,2.304c-0.406,0.62-0.473,1.079-0.473,1.308
		c0,0.031,0.002,0.056,0.002,0.078l-2.201,1.485L135.07,70.48z M150.475,72.512l-9.582-1.371l0.295-0.2l9.518,1.361
		C150.619,72.361,150.537,72.43,150.475,72.512z M153.701,85.377c-0.322,0.117-0.717,0.189-1.15,0.189
		c-1.074,0-1.947-0.432-1.947-0.962c0,0,0-10.497,0-11.676c0.061,0.066,0.139,0.124,0.23,0.178c0.385,0.222,1.027,0.367,1.717,0.37
		c0.432,0,0.777-0.027,1.15-0.134V85.377z M153.854,73.037l-0.041,0.023l-0.012,0.004v0.002c-0.416,0.141-0.758,0.17-1.25,0.17
		c-0.498,0-0.975-0.085-1.32-0.21c-0.17-0.063-0.307-0.135-0.395-0.207c-0.045-0.035-0.074-0.071-0.092-0.1
		c-0.021-0.028-0.025-0.053-0.025-0.073l0.002-0.025c0.002-0.009,0.002-0.018,0.002-0.027c0.072-0.067,0.174-0.135,0.307-0.203
		c2.771-1.456,17.699-11.236,17.906-11.329c0.439-0.196,0.896-0.207,1.32-0.207c0.063,0,0.121,0,0.182,0
		c0.65,0,1.262,0.118,1.514,0.317c-0.086,0.059-0.34,0.226-0.73,0.484c-1.709,1.129-5.98,3.955-9.871,6.513
		c-1.945,1.279-3.795,2.49-5.18,3.391c-0.693,0.45-1.27,0.821-1.684,1.084c-0.207,0.132-0.373,0.235-0.492,0.31
		C153.936,72.988,153.889,73.018,153.854,73.037z M172.072,61.38v7.771c0,0.312-16.646,14.961-18.131,16.105V73.263
		c0.066-0.037,0.184-0.107,0.352-0.212C156.867,71.442,171.174,61.975,172.072,61.38L172.072,61.38z"/>
</g>
</svg>
