<?xml version="1.0" encoding="utf-8"?>
<!-- Generator: Adobe Illustrator 15.0.0, SVG Export Plug-In . SVG Version: 6.00 Build 0)  -->
<!DOCTYPE svg PUBLIC "-//W3C//DTD SVG 1.1//EN" "http://www.w3.org/Graphics/SVG/1.1/DTD/svg11.dtd">
<svg version="1.1" id="Ebene_1" xmlns="http://www.w3.org/2000/svg" xmlns:xlink="http://www.w3.org/1999/xlink" x="0px" y="0px"
	 width="190px" height="190px" viewBox="0 0 190 190" enable-background="new 0 0 190 190" xml:space="preserve">
<g id="Orientierungskreise" display="none">
	<g id="Weißer_Kreis_x5F_Violin_9_" display="inline">
		<g>
			<path fill="#4D4D4F" d="M-1122.268,9.917c47.365,0,85.898,38.534,85.898,85.899s-38.534,85.897-85.898,85.897
				c-47.365,0-85.899-38.534-85.899-85.897C-1208.167,48.451-1169.633,9.917-1122.268,9.917 M-1122.268,9.69
				c-47.566,0-86.126,38.559-86.126,86.126c0,47.564,38.56,86.125,86.126,86.125s86.125-38.561,86.125-86.125
				C-1036.143,48.249-1074.702,9.69-1122.268,9.69L-1122.268,9.69z"/>
		</g>
	</g>
	<g id="Weißer_Kreis_x5F_Violin_10_" display="inline">
		<g>
			<path fill="#4D4D4F" d="M-1122.268,12.492c45.944,0,83.322,37.378,83.322,83.322s-37.378,83.322-83.322,83.322
				c-45.945,0-83.323-37.378-83.323-83.322C-1205.591,49.871-1168.212,12.492-1122.268,12.492 M-1122.268,12.272
				c-46.139,0-83.543,37.402-83.543,83.542c0,46.14,37.404,83.543,83.543,83.543c46.139,0,83.542-37.403,83.542-83.543
				S-1076.128,12.272-1122.268,12.272L-1122.268,12.272z"/>
		</g>
	</g>
	<g id="Weißer_Kreis_x5F_Violin_2_" display="inline">
		<g>
			<path fill="#4D4D4F" d="M-1122.268,232.007c47.365,0,85.898,38.534,85.898,85.899s-38.534,85.898-85.898,85.898
				c-47.365,0-85.899-38.535-85.899-85.898C-1208.167,270.542-1169.633,232.007-1122.268,232.007 M-1122.268,231.781
				c-47.566,0-86.126,38.559-86.126,86.125s38.56,86.125,86.126,86.125s86.125-38.559,86.125-86.125
				C-1036.143,270.339-1074.702,231.781-1122.268,231.781L-1122.268,231.781z"/>
		</g>
	</g>
	<g id="Weißer_Kreis_x5F_Violin_1_" display="inline">
		<g>
			<path fill="#4D4D4F" d="M-1122.268,234.583c45.944,0,83.322,37.378,83.322,83.323c0,45.943-37.378,83.322-83.322,83.322
				c-45.945,0-83.323-37.379-83.323-83.322C-1205.591,271.961-1168.212,234.583-1122.268,234.583 M-1122.268,234.363
				c-46.139,0-83.543,37.402-83.543,83.543c0,46.139,37.404,83.541,83.543,83.541c46.139,0,83.542-37.402,83.542-83.541
				C-1038.726,271.766-1076.128,234.363-1122.268,234.363L-1122.268,234.363z"/>
		</g>
	</g>
	<g id="Weißer_Kreis_x5F_Violin_6_" display="inline">
		<g>
			<path fill="#4D4D4F" d="M-1122.268,676.191c47.365,0,85.898,38.535,85.898,85.9c0,47.363-38.534,85.896-85.898,85.896
				c-47.365,0-85.899-38.533-85.899-85.896C-1208.167,714.727-1169.633,676.191-1122.268,676.191 M-1122.268,675.967
				c-47.566,0-86.126,38.559-86.126,86.125c0,47.564,38.56,86.125,86.126,86.125s86.125-38.561,86.125-86.125
				C-1036.143,714.523-1074.702,675.967-1122.268,675.967L-1122.268,675.967z"/>
		</g>
	</g>
	<g id="Weißer_Kreis_x5F_Violin_5_" display="inline">
		<g>
			<path fill="#4D4D4F" d="M-1122.268,678.768c45.944,0,83.322,37.379,83.322,83.324c0,45.943-37.378,83.32-83.322,83.32
				c-45.945,0-83.323-37.377-83.323-83.32C-1205.591,716.146-1168.212,678.768-1122.268,678.768 M-1122.268,678.549
				c-46.139,0-83.543,37.4-83.543,83.543c0,46.139,37.404,83.541,83.543,83.541c46.139,0,83.542-37.402,83.542-83.541
				C-1038.726,715.949-1076.128,678.549-1122.268,678.549L-1122.268,678.549z"/>
		</g>
	</g>
	<g id="Weißer_Kreis_x5F_Violin_8_" display="inline">
		<g>
			<path fill="#4D4D4F" d="M-1122.268,898.285c47.365,0,85.898,38.533,85.898,85.898s-38.534,85.898-85.898,85.898
				c-47.365,0-85.899-38.533-85.899-85.898S-1169.633,898.285-1122.268,898.285 M-1122.268,898.059
				c-47.566,0-86.126,38.559-86.126,86.127c0,47.564,38.56,86.125,86.126,86.125s86.125-38.561,86.125-86.125
				C-1036.143,936.617-1074.702,898.059-1122.268,898.059L-1122.268,898.059z"/>
		</g>
	</g>
	<g id="Weißer_Kreis_x5F_Violin_7_" display="inline">
		<g>
			<path fill="#4D4D4F" d="M-1122.268,900.859c45.944,0,83.322,37.379,83.322,83.324c0,45.943-37.378,83.322-83.322,83.322
				c-45.945,0-83.323-37.379-83.323-83.322C-1205.591,938.238-1168.212,900.859-1122.268,900.859 M-1122.268,900.641
				c-46.139,0-83.543,37.402-83.543,83.543c0,46.139,37.404,83.543,83.543,83.543c46.139,0,83.542-37.404,83.542-83.543
				C-1038.726,938.043-1076.128,900.641-1122.268,900.641L-1122.268,900.641z"/>
		</g>
	</g>
	<g id="Weißer_Kreis_x5F_Violin_4_" display="inline">
		<g>
			<path fill="#4D4D4F" d="M-1122.268,454.102c47.365,0,85.898,38.533,85.898,85.898c0,47.363-38.534,85.898-85.898,85.898
				c-47.365,0-85.899-38.535-85.899-85.898C-1208.167,492.635-1169.633,454.102-1122.268,454.102 M-1122.268,453.873
				c-47.566,0-86.126,38.561-86.126,86.127c0,47.564,38.56,86.125,86.126,86.125s86.125-38.561,86.125-86.125
				C-1036.143,492.434-1074.702,453.873-1122.268,453.873L-1122.268,453.873z"/>
		</g>
	</g>
	<g id="Weißer_Kreis_x5F_Violin_3_" display="inline">
		<g>
			<path fill="#4D4D4F" d="M-1122.267,456.676c45.944,0,83.322,37.379,83.322,83.324c0,45.943-37.378,83.322-83.322,83.322
				c-45.945,0-83.323-37.379-83.323-83.322C-1205.59,494.055-1168.212,456.676-1122.267,456.676 M-1122.267,456.457
				c-46.139,0-83.543,37.402-83.543,83.543c0,46.139,37.404,83.543,83.543,83.543c46.139,0,83.542-37.404,83.542-83.543
				C-1038.725,493.859-1076.128,456.457-1122.267,456.457L-1122.267,456.457z"/>
		</g>
	</g>
</g>
<path d="M84.76,73.836c-0.48,0.004-0.872,0.813-0.944,1.877c-0.007,0,0.019,0.096,0.013,0.097c-0.076,0.001-0.184-0.033-0.252-0.01
	c0.009-0.125,0.018-0.301,0.016-0.433c-0.01-1.252-0.457-2.264-0.998-2.258c-0.541,0.005-0.97,1.022-0.958,2.276
	c0.007,0.819,0.347,1.672,0.749,2.354c-0.038,0.134-0.195-0.068-0.256-0.121c-0.055-0.072-0.229-0.173-0.285-0.229
	c-0.318-0.312-0.564-0.523-0.953-0.549l-0.82-0.793c0.045-0.043,0.09-0.085,0.135-0.132c1.17-1.189,1.625-2.505,1.06-3.059
	c-0.563-0.557-1.872-0.076-3.039,1.111c-0.051,0.051-0.099,0.104-0.147,0.158l-3.129-3.019l0.134-0.138
	c0.129-0.129,0.127-0.342-0.004-0.47c-0.132-0.129-0.343-0.127-0.472,0.004l-0.137,0.14l-0.76-0.732l0.143-0.146
	c0.13-0.131,0.127-0.344-0.004-0.473s-0.342-0.127-0.471,0.004L73.23,69.45l-5.915-5.71l0.201-0.203
	c0.129-0.133,0.126-0.342-0.005-0.473c-0.131-0.128-0.342-0.126-0.471,0.004l-0.206,0.208l-5.821-5.618l0.178-0.18
	c0.168-0.171,0.2-0.424,0.104-0.627c1.191,0.827,2.043,1.248,2.224,1.04c0.321-0.364-1.601-2.571-4.294-4.93
	c-2.088-1.829-4.732-3.988-4.863-4.119c-0.132-0.128-0.344-0.126-0.473,0.005l-1.375,1.399l-5.766-5.666
	c0.141-0.217,0.115-0.511-0.076-0.698c-0.192-0.188-0.486-0.208-0.7-0.065l-1.602-1.572c0.142-0.216,0.116-0.51-0.075-0.699
	c-0.191-0.188-0.486-0.207-0.701-0.063l-0.314-0.312c0.001-0.126-0.047-0.253-0.144-0.35c-0.189-0.185-0.493-0.183-0.682,0.008
	c-0.056,0.057-0.092,0.125-0.113,0.196l-0.45,0.459c-0.781-0.755-1.43-1.38-1.926-1.858c0.08-0.173,0.1-0.297,0.046-0.35
	c-0.056-0.056-0.181-0.033-0.354,0.053c-0.198-0.192-0.362-0.351-0.493-0.476c0.228-0.498,0.135-1.103-0.277-1.509
	c-0.464-0.454-1.175-0.502-1.691-0.149c-0.069,0.048-0.447,0.177-0.736,0.181c-0.397,0.007-0.867,0.002-0.867-0.053
	c-0.002-0.096-0.037-0.19-0.112-0.263c-0.147-0.144-0.382-0.141-0.526,0.005l-0.289,0.294l-0.885,0.899l-0.289,0.294
	c-0.145,0.146-0.143,0.384,0.005,0.528c0.073,0.072,0.17,0.108,0.265,0.106c0.056,0,0.068,0.468,0.068,0.865
	c0.001,0.289-0.121,0.668-0.168,0.739c-0.346,0.522-0.285,1.234,0.18,1.689c0.412,0.404,1.019,0.486,1.512,0.252
	c0.127,0.127,0.289,0.29,0.483,0.484c-0.081,0.174-0.101,0.301-0.046,0.353c0.055,0.056,0.178,0.033,0.35-0.051
	c1.709,1.713,5.25,5.253,9.862,9.868l-0.646,0.658c-0.181-0.091-0.408-0.062-0.558,0.093c-0.15,0.15-0.176,0.379-0.082,0.558
	c-0.12,0.132-0.116,0.336,0.013,0.462c0.131,0.129,0.341,0.127,0.472-0.004l0.21,0.209l-0.103,0.104
	c-0.216,0.219-0.213,0.572,0.006,0.787c0.219,0.212,0.571,0.21,0.785-0.008l0.104-0.105l0.449,0.44l-0.155,0.158
	c-0.13,0.131-0.129,0.342,0.003,0.471c0.132,0.131,0.343,0.129,0.471-0.002l0.156-0.16l0.8,0.787
	c-0.076,0.198-0.033,0.435,0.129,0.594c0.09,0.088,0.202,0.137,0.318,0.15c0.017,0.117,0.066,0.228,0.157,0.317
	c0.162,0.159,0.398,0.197,0.597,0.117l2.7,2.655c-0.128,0.131-0.127,0.343,0.005,0.47c0.131,0.132,0.342,0.128,0.471-0.003
	l0.871,0.857c-0.128,0.13-0.127,0.341,0.004,0.471c0.123,0.121,0.314,0.126,0.444,0.019c0.001,0.001,0.001,0.003,0.003,0.004
	c0.188,0.187,0.493,0.185,0.68-0.006c0.078-0.082,0.121-0.182,0.133-0.284l0.086,0.086c-0.047,0.2,0.006,0.419,0.164,0.574
	c0.154,0.151,0.369,0.203,0.565,0.158l0.409,0.409l-0.507,0.515c-0.128,0.132-0.126,0.344,0.005,0.472
	c0.131,0.129,0.342,0.127,0.471-0.004l0.502-0.509l1.285,1.287c-0.179,0.225-0.166,0.55,0.037,0.756l0.026,0.026
	c0.198,0.187,0.498,0.208,0.716,0.063c-0.004,0.161,0.051,0.324,0.177,0.449c0.138,0.134,0.322,0.188,0.501,0.167l1.227,1.229l0,0
	c-0.032,0.016-0.063,0.031-0.092,0.053c-0.029,0.021-0.059,0.045-0.087,0.072c-0.258,0.262-0.251,0.569,0.012,0.829l1.153,1.152
	c-0.044,0.026-0.16,0.104-0.197,0.14c-0.236,0.241-0.231,0.627,0.008,0.866c0.126,0.12,0.291,0.179,0.453,0.171
	c-0.003,0.162,0.056,0.328,0.182,0.449c0.239,0.237,0.627,0.233,0.863-0.006c0.031-0.033,0.11-0.121,0.133-0.156l11.869,11.908
	l0.24,0.237c0.004,0.006,0.34,0.242,0.344,0.777c-0.006,1.17,0.34,2.066,0.609,2.649c0.025,0.053,0.049,0.103,0.07,0.148
	c0.056,0.75,0.93,2.103,2.188,3.339c1.467,1.444,3.179,2.499,3.758,1.844c0.525-0.597-0.586-2.154-2.053-3.596
	c-0.828-0.813-1.699-1.494-2.423-1.854c-0.894-0.97-0.945-2.118-0.935-2.398c0.008-0.076,0.068-0.204-0.002-0.195
	c-0.105,0.011-0.02-0.109-0.02-0.117c-0.002-0.067,0.041-0.094,0.034-0.155l2.879,2.885c0.068,0.069,0.16,0.1,0.251,0.096
	c-0.004,0.09,0.026,0.183,0.096,0.253l3.129,3.138c-0.158,0.159-0.275,0.278-0.292,0.296c-0.255,0.258-0.253,0.669-0.003,0.921
	l0.029,0.03c0.26,0.248,0.67,0.242,0.919-0.012c0.021-0.021,0.135-0.138,0.286-0.291l2.717,2.721
	c-0.051,0.219,0.009,0.458,0.18,0.628c0.169,0.166,0.402,0.22,0.617,0.172l2.449,2.457c-0.121,0.124-0.209,0.212-0.223,0.226
	c-0.253,0.258-0.252,0.67-0.002,0.922l0.029,0.027c0.26,0.249,0.671,0.244,0.919-0.01c0.017-0.018,0.101-0.104,0.218-0.221
	l0.383,0.384l-1.28,1.304c-0.13,0.132-0.128,0.344,0.005,0.473c0.131,0.128,0.341,0.126,0.471-0.006l5.609,5.513
	c-0.018,0.018-0.035,0.034-0.054,0.052c-0.536,0.545-0.685,1.354-0.381,2.055l0,0l0.007,0.021c0.021,0.047,0.041,0.086,0.062,0.123
	l0.003,0.008l0.021,0.041l0.023,0.041l0.025,0.037l0.008,0.011c0.02,0.031,0.043,0.066,0.066,0.102l0.004,0.003l0.008,0.01v0.002
	l0.008,0.008c0.495,0.653,1.344,0.905,2.111,0.638l0.006-0.002l0.012-0.006c0.05-0.018,0.098-0.038,0.146-0.06l0.048-0.022
	l0.015-0.009l0.018-0.009c0.019-0.009,0.039-0.019,0.06-0.03l0.012-0.006l0.01-0.008l0.026-0.012
	c0.046-0.029,0.091-0.062,0.13-0.091l0.018-0.013l0.01-0.01l0.041-0.029c0.057-0.044,0.115-0.096,0.168-0.149
	c0.019-0.019,0.033-0.041,0.051-0.06l0.473,0.465c0.012,0.038,0.02,0.077,0.033,0.112c-0.25-0.029-0.536-0.031-0.778,0.045
	l-0.041,0.016l-0.003,0.002l-0.01,0.004l-0.024,0.006c-0.05,0.018-0.097,0.036-0.146,0.059l-0.025,0.015l-0.027,0.011
	c-0.016,0.008-0.035,0.02-0.056,0.031l-0.017,0.01l-0.012,0.006l-0.047,0.025c-0.045,0.03-0.087,0.059-0.129,0.089l-0.023,0.017
	c-0.07,0.054-0.145,0.116-0.211,0.183c-0.499,0.509-0.666,1.244-0.435,1.922l0.008,0.023c0.017,0.046,0.032,0.085,0.05,0.124
	l0.004,0.011l0.016,0.039l0.023,0.046l0.02,0.037l0.006,0.01c0.018,0.034,0.038,0.07,0.061,0.105l0.002,0.006l0.008,0.011L97,113.01
	c0.259,0.403,0.655,0.688,1.117,0.806c0.737,0.187,1.707-0.483,1.906-0.659c0.047-0.04,0.098-0.084,0.15-0.127
	c0.006-0.004,0.011-0.008,0.018-0.013c0.527-0.434,1.295-0.927,2.108-1.411l1.061,1.042c0.306,0.302,0.798,0.298,1.099-0.01
	c0.161-0.162,0.231-0.378,0.219-0.59c0.106,0.104,0.189,0.188,0.25,0.245c0.465,0.458,1.633,1.599,3.289,3.23l-0.391,0.397
	c-0.502,0.511-0.199,1.597,0.689,2.469c0.889,0.873,1.979,1.156,2.479,0.647l0.384-0.392c2.861,2.841,6.392,6.369,10.069,10.119
	l-0.271,0.276c-0.501,0.51-0.198,1.595,0.688,2.47c0.889,0.872,1.979,1.157,2.482,0.646l0.204-0.21
	c0.224,0.232,0.449,0.463,0.675,0.696c-0.018,0.05-0.032,0.097-0.042,0.149c-0.009,0.057-0.015,0.118-0.002,0.193
	c0.012,0.073,0.05,0.164,0.12,0.232c0.08,0.08,0.344,0.354,0.602,0.622c0.262,0.27,0.518,0.536,0.617,0.635
	c0.071,0.07,0.162,0.106,0.236,0.116c0.07,0.012,0.129,0.006,0.184-0.004c0.043-0.01,0.084-0.02,0.124-0.033
	c0.638,0.664,1.274,1.332,1.902,1.992c-0.017,0.015-0.036,0.03-0.052,0.047l-0.545,0.556c-0.504,0.511-0.2,1.594,0.688,2.466
	c0.891,0.874,1.979,1.157,2.48,0.646l0.472-0.479c5.402,5.804,9.958,11.048,11.726,13.981c0.225,0.374,0.328,0.846,0.381,1.271
	c0.369,0.702,0.131,1.07,0.133,1.131c0.125,0.124,1.662,1.7,2.756,2.016c1.412,0.404,4.064-0.839,6.414-3.232
	c2.344-2.384,3.553-5.051,3.121-6.455c-0.459-1.505-1.939-2.611-2.064-2.735c-0.127,0.082-0.469,0.245-1.141-0.113
	c-0.414-0.051-0.881-0.152-1.295-0.375c-2.285-1.244-5.9-4.092-10.076-7.695c0.029-0.05,0.053-0.101,0.07-0.154
	c0.002-0.003,0.003-0.007,0.004-0.011c0.018-0.053,0.029-0.105,0.037-0.163c0.001-0.005,0.001-0.008,0.002-0.014
	c0.006-0.057,0.008-0.112,0.004-0.173c0-0.002,0-0.004,0-0.006c-0.004-0.062-0.014-0.121-0.026-0.184
	c-0.001-0.001-0.001-0.002-0.001-0.003c-0.014-0.059-0.032-0.119-0.055-0.178c-0.004-0.008-0.007-0.016-0.01-0.024
	c-0.022-0.055-0.051-0.111-0.082-0.166c-0.004-0.009-0.01-0.018-0.016-0.028c-0.033-0.053-0.068-0.105-0.108-0.162
	c-0.006-0.006-0.012-0.014-0.019-0.02c-0.043-0.056-0.09-0.107-0.141-0.159c-0.063-0.062-0.127-0.115-0.193-0.164
	c-0.002,0-0.003-0.002-0.005-0.003c-0.064-0.047-0.132-0.09-0.2-0.124c-0.002-0.001-0.004-0.003-0.006-0.004
	c-0.068-0.034-0.139-0.063-0.209-0.088c0,0-0.002-0.001-0.004-0.001c-0.07-0.022-0.141-0.04-0.209-0.049l-0.002-0.001
	c-0.282-0.039-0.549,0.027-0.742,0.21l0,0c-2.428-2.142-4.996-4.479-7.57-6.875c0.01-0.033,0.023-0.068,0.029-0.106
	c0.01-0.058,0.016-0.118,0.003-0.194c-0.013-0.072-0.049-0.162-0.12-0.231c-0.107-0.107-0.378-0.356-0.649-0.609
	c-0.269-0.251-0.54-0.502-0.628-0.59c-0.071-0.07-0.164-0.105-0.236-0.114c-0.068-0.012-0.129-0.006-0.182,0.004
	c-0.053,0.008-0.101,0.022-0.146,0.04l0,0c-0.225-0.21-0.449-0.419-0.672-0.63l0.551-0.559c0.26,0.17,0.48,0.119,0.706-0.111
	c0.128-0.133,0.116-0.145,0.17-0.301c0.06-0.166-0.075-0.344-0.202-0.467c-1.165-1.131-4.445-4.324-8.793-8.55l0.52-1.18
	c0.049-0.126,0.02-0.269-0.077-0.36l-4.093-4.024c-0.072-0.069-0.17-0.104-0.269-0.095c-0.101,0.012-0.188,0.066-0.244,0.149
	l-0.56,0.845c-8.711-8.466-19.63-19.067-27.066-26.269c0.178-0.181,0.492-0.518,0.924-0.959c0.529-0.536,0.683-0.937,0.688-1.215
	l0,0l-0.223-0.36l-6.221-6.209c0.037-0.244,0.067-0.567,0.065-0.841C85.748,74.844,85.301,73.831,84.76,73.836z M99.014,108.376
	c-0.101,0.138-0.179,0.288-0.236,0.444l-0.072-0.072c0.004-0.02,0.012-0.042,0.018-0.061c0.032-0.055,0.117-0.192,0.237-0.363
	L99.014,108.376z M97.071,106.469c-0.199-0.016-0.436-0.014-0.655,0.031l-0.933-0.916c0.212,0.128,0.479,0.126,0.688,0
	L97.071,106.469z M92.55,101.419c-0.087,0.271-0.026,0.581,0.192,0.795l2.508,2.464c-0.126,0.212-0.123,0.477,0.007,0.684
	l-4.648-4.567l0.653-0.667L92.55,101.419z M45.82,54.522l0.183-0.186l0.211,0.207l-0.181,0.185L45.82,54.522z M46.824,55.508
	l0.182-0.185l1.689,1.661l-0.18,0.184L46.824,55.508z M93.491,100.914c-0.159-0.043-0.327-0.039-0.481,0.021l-1.331-1.335
	c0.162,0.063,0.341,0.078,0.515,0.039L93.491,100.914z M91.154,98.547c-0.051,0.182-0.044,0.376,0.025,0.554l-0.305-0.305
	l0.262-0.267C91.143,98.534,91.148,98.541,91.154,98.547z M88.111,95.504c0.011,0.214,0.084,0.422,0.245,0.601
	c0.202,0.226,0.451,0.295,0.661,0.306c0.398,0.397,0.789,0.789,1.176,1.177l-0.258,0.265l-2.377-2.383l0.257-0.26
	C87.914,95.309,88.014,95.406,88.111,95.504z M86.871,94.267l-0.253,0.26l-2.646-2.653l0.251-0.256
	C85.121,92.517,86.007,93.399,86.871,94.267z M75.13,82.522c-0.114,0.134-0.108,0.332,0.018,0.455
	c0.125,0.122,0.32,0.126,0.45,0.014c1.27,1.271,2.529,2.532,3.771,3.773l1.307,1.307c0.879,0.88,1.748,1.745,2.604,2.604
	l-0.249,0.255l-3.123-3.133c-0.07-0.069-0.162-0.102-0.252-0.099c0.004-0.09-0.027-0.183-0.096-0.251l-8.003-8.023l0.233-0.238
	C72.907,80.303,74.022,81.416,75.13,82.522z M70.969,78.363l-0.172,0.173c-0.021,0.021-0.041,0.043-0.061,0.063l-2.057-2.062
	l0.23-0.233C69.596,76.99,70.282,77.677,70.969,78.363z M67.967,75.36l-0.229,0.231l-2.683-2.688l0.226-0.229
	C66.173,73.567,67.067,74.463,67.967,75.36z M64.459,71.851l-0.224,0.229l-2.118-2.125l0.219-0.224
	C63.041,70.433,63.748,71.142,64.459,71.851z M61.395,68.787l-0.22,0.223l-1.79-1.795c0.053-0.176,0.023-0.369-0.086-0.525
	C59.99,67.383,60.691,68.084,61.395,68.787z M59.16,66.552c-0.11-0.078-0.239-0.114-0.367-0.112l0.125-0.128
	C59,66.392,59.079,66.473,59.16,66.552z M58.095,65.486l-0.215,0.22l-1.28-1.283l0.214-0.218
	C57.236,64.629,57.665,65.057,58.095,65.486z M56.342,63.734l-0.213,0.217l-0.412-0.414c0.035-0.195-0.021-0.402-0.173-0.551
	c-0.147-0.146-0.351-0.2-0.54-0.164l-0.365-0.366l0.211-0.217C55.342,62.733,55.84,63.231,56.342,63.734z M54.379,61.769
	l-0.212,0.215l-0.862-0.866l0.209-0.214C53.8,61.19,54.088,61.48,54.379,61.769z M53.043,60.433l-0.209,0.214l-0.572-0.574
	c-0.131-0.131-0.342-0.131-0.473-0.001c-0.061,0.062-0.093,0.141-0.096,0.222l-1.91-1.877l0.615-0.629
	C51.258,58.647,52.141,59.53,53.043,60.433z M49.143,56.53l-0.291,0.295l-1.689-1.66l0.305-0.31
	C48.013,55.4,48.571,55.959,49.143,56.53z M46.682,54.069l-0.313,0.316l-0.211-0.206l0.313-0.321
	C46.541,53.93,46.612,54,46.682,54.069z M42.369,41.946l0.311-0.313c0.043,0.011,0.087,0.018,0.133,0.016l0.307,0.302l-0.363,0.37
	C42.625,42.194,42.495,42.07,42.369,41.946z M43.555,43.092l0.357-0.362l1.584,1.557l-0.343,0.349
	C44.588,44.089,44.055,43.574,43.555,43.092z M45.953,45.408l0.336-0.343l5.758,5.657l-0.285,0.291
	C49.615,48.942,47.66,47.055,45.953,45.408z M52.242,51.477l0.279-0.285l0.752,0.738L53,52.208
	C52.745,51.962,52.492,51.718,52.242,51.477z M56.704,55.783l0.46-0.467c0.057,0.021,0.117,0.032,0.178,0.033l0.277,0.269
	l-0.529,0.541C56.961,56.032,56.832,55.908,56.704,55.783z M57.891,56.928l0.527-0.54l0.107,0.104l-0.53,0.539
	C57.961,56.997,57.924,56.963,57.891,56.928z M58.476,57.494l0.529-0.539l0.586,0.566l-0.529,0.538
	C58.866,57.871,58.67,57.683,58.476,57.494z M59.86,58.83l0.531-0.538l5.821,5.618l-0.531,0.54
	C63.693,62.53,61.744,60.651,59.86,58.83z M66.16,64.915l0.533-0.539l5.916,5.706l-0.533,0.543
	C70.087,68.703,68.106,66.792,66.16,64.915z M72.555,71.088l0.533-0.543l0.759,0.733l-0.532,0.541
	C73.062,71.576,72.809,71.332,72.555,71.088z M73.795,72.283l0.531-0.541l3.229,3.113c-0.135,0.229-0.256,0.468-0.36,0.712
	C76.063,74.474,74.929,73.379,73.795,72.283z M78.699,77.021c0.226-0.103,0.455-0.24,0.684-0.399l0.494,0.479
	c-0.029,0.025-0.061,0.052-0.089,0.081c-0.161,0.165-0.268,0.363-0.324,0.579C79.229,77.531,78.937,77.249,78.699,77.021z
	 M98.371,96.02c0.105-0.03,0.203-0.084,0.285-0.166c0.057-0.06,0.177-0.205,0.208-0.276l0.872,0.841l-0.465,0.472
	C98.975,96.605,98.676,96.316,98.371,96.02z M100.461,97.105l8.148,7.877c-0.303-0.096-0.813-0.164-1.053-0.077
	c-1.76-1.706-4.372-4.232-7.566-7.32L100.461,97.105z M114.465,111.621l-1.346-1.323l0.481-0.49l1.358,1.311L114.465,111.621z
	 M115.688,111.803l1.173,1.133l-0.519,0.528l-1.164-1.142L115.688,111.803z M112.406,109.597l-2.399-2.358
	c0.063-0.24,0.002-0.665-0.104-0.956l2.97,2.84L112.406,109.597z M116.896,114.094c-0.02-0.056-0.048-0.108-0.086-0.157l0.53-0.537
	l3.89,3.755l-0.534,0.543c-0.032,0.006-0.062,0.01-0.093,0.016C119.285,116.434,118.041,115.216,116.896,114.094z M121.652,117.68
	l0.255,0.269c-0.109-0.06-0.251-0.124-0.362-0.165L121.652,117.68z M124.399,121.383l-1.382-1.358
	c0.069-0.404-0.146-1.095-0.388-1.496l3.433,3.27l-0.609,0.597C125.098,122.053,124.747,121.719,124.399,121.383z M126.763,122.484
	l1.359,1.313l-0.116,0.116l-1.348-1.322L126.763,122.484z M128.904,125.422l-0.105,0.154c-0.177-0.166-0.354-0.333-0.53-0.501
	l0.14-0.145L128.904,125.422z M127.693,124.231l-0.15,0.154c-0.459-0.437-0.916-0.871-1.368-1.302l0.173-0.177L127.693,124.231z
	 M129.158,125.048l-0.439-0.431l0.117-0.122l0.434,0.42L129.158,125.048z M57.959,54.709c-0.012-0.133-0.066-0.266-0.172-0.369
	c-0.234-0.231-0.609-0.228-0.839,0.007c-0.112,0.115-0.167,0.263-0.169,0.409l-0.555,0.564c-0.939-0.905-1.854-1.789-2.745-2.648
	l0.214-0.218c0.16,0.043,0.337,0,0.463-0.126c0.187-0.191,0.183-0.495-0.007-0.682c-0.098-0.096-0.224-0.141-0.351-0.137
	l-0.811-0.796l0.869-0.885c0.453,0.848,2.092,2.605,4.206,4.458c0.159,0.144,0.32,0.278,0.479,0.412
	c-0.034,0.023-0.067,0.047-0.098,0.079l-0.202,0.206L57.959,54.709z M59.041,55.756l0.195-0.198
	c0.053-0.056,0.092-0.117,0.118-0.181c0.052,0.042,0.104,0.086,0.157,0.127c-0.023,0.014-0.045,0.03-0.065,0.052l-0.299,0.305
	L59.041,55.756z M59.627,56.321l0.295-0.299c0.037-0.038,0.062-0.083,0.078-0.13c0.299,0.232,0.584,0.448,0.859,0.646
	c-0.164-0.018-0.335,0.032-0.459,0.162l-0.187,0.188L59.627,56.321z"/>
<g>
	<g>
		<path fill="#FFFFFF" d="M141.841,137.297c0.073-0.307-0.062-0.701-0.373-1.008c-0.415-0.408-0.987-0.502-1.278-0.205
			c-0.289,0.297-0.188,0.866,0.228,1.274c0.415,0.407,0.986,0.499,1.276,0.208c0-0.002,0.002-0.004,0.002-0.004
			C141.768,137.487,141.815,137.397,141.841,137.297z"/>
	</g>
	<g>
		<path fill="#FFFFFF" d="M153.346,145.65c0.404,0.397-1.334,2.82-3.881,5.412c-2.547,2.591-4.939,4.371-5.342,3.974
			c-0.002-0.002-0.005-0.002-0.006-0.002c0.069,0.568,0.057,1.055,0.133,1.131c0.447,0.438,3.098-1.533,5.922-4.407
			c2.824-2.872,4.752-5.561,4.305-6c-0.078-0.076-0.557-0.047-1.137-0.113C153.344,145.645,153.344,145.648,153.346,145.65z"/>
	</g>
	<g>
		
			<ellipse transform="matrix(-0.7129 -0.7012 0.7012 -0.7129 105.0364 277.9567)" fill="#FFFFFF" cx="109.412" cy="117.479" rx="2.001" ry="1.054"/>
	</g>
	<g>
		<path fill="#FFFFFF" d="M116.611,114.509c0.131-0.129,0.129-0.341-0.004-0.471l-6.869-6.752c0.141-0.503-0.057-1.146-0.549-1.63
			c-0.656-0.645-1.59-0.758-2.084-0.254c-0.494,0.503-0.363,1.433,0.294,2.077c0.604,0.593,1.44,0.737,1.956,0.364l0.431,0.423
			l-0.167,0.997l-2.574,2.618c-0.129,0.131-0.127,0.345,0.004,0.471c0.131,0.131,0.343,0.129,0.472-0.004l2.647-2.692
			c0.047-0.048,0.079-0.113,0.09-0.18l0.107-0.64l1.432,1.407c-0.02,0.035-0.035,0.072-0.042,0.115l-0.044,0.261l-1.055,1.075
			c-0.129,0.129-0.127,0.341,0.004,0.469c0.133,0.129,0.342,0.127,0.471-0.004l1.13-1.147c0.048-0.05,0.079-0.11,0.091-0.18
			l0.006-0.035l1.759,1.726l-0.87,1.052l-2.551,2.596c-0.787-0.774-1.757-1.063-2.166-0.647c-0.029,0.03-0.086,0.086-0.15,0.15
			c0.553-0.052,1.291,0.267,1.928,0.893c0.635,0.627,0.97,1.359,0.926,1.912c0.064-0.066,0.121-0.122,0.15-0.15
			c0.322-0.331,0.197-0.999-0.255-1.645l2.651-2.7c0.039-0.037,0.066-0.087,0.082-0.14l0.699-0.882l1.58,1.55
			C116.272,114.644,116.483,114.642,116.611,114.509z"/>
	</g>
	<g>
		<circle fill="#FFFFFF" cx="80.316" cy="82.552" r="1.106"/>
	</g>
	<g>
		<path fill="#FFFFFF" d="M100.381,100.276c-0.027-0.025-0.057-0.049-0.085-0.074c-0.007-0.004-0.015-0.01-0.021-0.016
			c-0.57-0.438-1.357-0.456-1.942-0.052c-0.005,0.002-0.01,0.007-0.015,0.011c-0.037,0.027-0.074,0.053-0.111,0.086
			c-0.016,0.011-0.029,0.025-0.044,0.039c-0.021,0.016-0.039,0.034-0.058,0.052c-0.004,0.004-0.007,0.008-0.012,0.012
			c-0.006,0.008-0.013,0.014-0.02,0.02c-0.038,0.04-0.071,0.084-0.105,0.126c-0.01,0.013-0.021,0.024-0.031,0.037
			c-0.244,0.333-0.348,0.733-0.311,1.128c0,0.006-0.33,1.237-0.906,1.825c0,0-1.162,1.183-1.217,1.237
			c-0.167,0.166-0.168,0.438-0.002,0.605c0.005,0.004,0.023,0.023,0.028,0.027c0.171,0.162,0.442,0.158,0.604-0.01
			c0.055-0.059,1.217-1.241,1.217-1.241c0.588-0.558,1.621-0.942,1.811-0.938c0.189,0.006,0.793-0.079,1.121-0.33
			c0.012-0.011,0.023-0.022,0.037-0.032c0.041-0.034,0.084-0.068,0.122-0.107c0.007-0.006,0.013-0.014,0.02-0.021
			c0.004-0.004,0.009-0.006,0.013-0.011c0.018-0.018,0.033-0.038,0.051-0.057c0.014-0.017,0.027-0.031,0.04-0.046
			c0.029-0.036,0.056-0.073,0.083-0.112c0.002-0.004,0.006-0.01,0.01-0.014c0.394-0.594,0.36-1.379-0.088-1.942
			c-0.006-0.006-0.01-0.013-0.016-0.02c-0.023-0.028-0.051-0.057-0.075-0.083c-0.013-0.012-0.022-0.025-0.034-0.039
			c-0.004-0.004-0.021-0.021-0.026-0.025C100.406,100.298,100.394,100.288,100.381,100.276z"/>
	</g>
	<g>
		<path fill="#FFFFFF" d="M51.891,57.565c0.289-0.294,0.206-0.849-0.188-1.235c-0.395-0.388-0.949-0.463-1.239-0.165
			c-0.02,0.019-0.032,0.042-0.049,0.063l-0.468-0.031c-0.098-0.008-0.193,0.027-0.262,0.098l-1.479,1.506
			c-0.128,0.131-0.126,0.342,0.005,0.471c0.131,0.128,0.342,0.128,0.472-0.004l1.37-1.396l0.284,0.021
			c0.054,0.177,0.16,0.354,0.315,0.506C51.045,57.785,51.6,57.859,51.891,57.565z"/>
	</g>
	<g>
		<path fill="#FFFFFF" d="M39.745,42.919l1.629,1.601c0.063,0.062,0.149,0.095,0.235,0.095c0.088-0.001,0.174-0.037,0.236-0.101
			l2.297-2.335c0.129-0.132,0.127-0.342-0.004-0.473c-0.133-0.128-0.343-0.126-0.471,0.003l-2.064,2.103l-1.392-1.369
			c0.174-0.37,0.108-0.827-0.201-1.133c-0.394-0.387-1.027-0.381-1.415,0.013c-0.387,0.393-0.381,1.029,0.013,1.414
			C38.92,43.043,39.375,43.099,39.745,42.919z"/>
	</g>
	<g>
		<path fill="#FFFFFF" d="M45.938,56.094l3.543-3.606l0.41,0.403c-0.184,0.374-0.121,0.84,0.193,1.149
			c0.394,0.389,1.026,0.383,1.413-0.013c0.388-0.395,0.383-1.027-0.012-1.414c-0.305-0.299-0.754-0.359-1.119-0.191l-0.656-0.643
			l-2.27-2.232l0.396-0.407c0.195,0.04,0.406-0.016,0.557-0.167c0.201-0.207,0.227-0.518,0.08-0.751
			c-0.017-0.047-0.042-0.088-0.078-0.125c-0.035-0.034-0.078-0.059-0.123-0.075c-0.238-0.144-0.549-0.113-0.751,0.095
			c-0.151,0.151-0.204,0.364-0.16,0.558l-0.398,0.404l-2.351-2.311l-0.158-0.153l2.064-2.103c0.129-0.131,0.127-0.344-0.004-0.471
			s-0.342-0.125-0.471,0.005l-2.299,2.339c-0.061,0.063-0.096,0.148-0.096,0.235c0.002,0.089,0.037,0.173,0.101,0.236l0.157,0.153
			l2.588,2.545l-0.613,0.625c-0.195-0.038-0.406,0.017-0.557,0.17c-0.197,0.201-0.225,0.503-0.089,0.738
			c0.015,0.05,0.042,0.099,0.083,0.139c0.042,0.04,0.092,0.068,0.144,0.082c0.235,0.132,0.537,0.099,0.733-0.103
			c0.15-0.153,0.205-0.364,0.16-0.558l0.615-0.627l2.034,1.999l-3.543,3.605c-0.129,0.13-0.127,0.34,0.004,0.472
			C45.6,56.225,45.811,56.223,45.938,56.094z"/>
	</g>
	<g>
		<path fill="#FFFFFF" d="M54.426,54.723c0.021-0.238-0.057-0.485-0.242-0.666c-0.328-0.323-0.855-0.319-1.18,0.01
			c-0.321,0.329-0.316,0.855,0.012,1.179c0.295,0.286,0.747,0.313,1.07,0.079l2.104,2.066l-1.012,1.029
			c-0.068,0.071-0.104,0.165-0.095,0.264l0.095,1.039c-0.062,0.041-0.118,0.085-0.17,0.14c-0.389,0.392-0.383,1.026,0.012,1.414
			c0.393,0.387,1.025,0.38,1.414-0.013c0.387-0.395,0.381-1.027-0.014-1.414c-0.165-0.163-0.373-0.251-0.588-0.276l-0.071-0.795
			l0.904-0.922l1.479,1.454l-1.014,1.031c-0.067,0.068-0.102,0.165-0.094,0.261l0.088,0.966c-0.078,0.044-0.151,0.096-0.217,0.16
			c-0.387,0.395-0.382,1.027,0.012,1.417c0.395,0.388,1.027,0.381,1.414-0.013c0.388-0.395,0.382-1.027-0.012-1.414
			c-0.153-0.15-0.344-0.24-0.541-0.272l-0.066-0.749l0.904-0.919l0.207,0.203c-0.228,0.329-0.196,0.782,0.099,1.071
			c0.329,0.321,0.856,0.316,1.179-0.013c0.322-0.326,0.317-0.853-0.011-1.176c-0.185-0.182-0.431-0.257-0.67-0.231l-0.337-0.33
			l1.947-1.979c0.129-0.133,0.127-0.342-0.004-0.472c-0.133-0.131-0.342-0.129-0.472,0.004l-1.946,1.979l-1.48-1.452l1.947-1.981
			c0.129-0.132,0.129-0.343-0.004-0.47c-0.131-0.131-0.342-0.129-0.471,0.003l-1.947,1.98L54.426,54.723z"/>
	</g>
	<g>
		<path fill="#FFFFFF" d="M58.146,66.819c0.047-0.05,1.063-1.082,1.063-1.082c0.514-0.487,1.417-0.824,1.58-0.819
			c0.166,0.003,0.693-0.069,0.979-0.289c0.012-0.009,0.022-0.02,0.034-0.028c0.036-0.03,0.073-0.06,0.106-0.094
			c0.007-0.007,0.012-0.012,0.018-0.019c0.003-0.004,0.008-0.007,0.01-0.011c0.016-0.015,0.031-0.033,0.045-0.05
			c0.011-0.014,0.023-0.026,0.034-0.039c0.026-0.034,0.05-0.065,0.073-0.099c0.003-0.004,0.006-0.009,0.009-0.013
			c0.343-0.517,0.315-1.204-0.077-1.695c-0.005-0.006-0.01-0.013-0.014-0.018c-0.021-0.025-0.042-0.05-0.064-0.072
			c-0.011-0.011-0.019-0.022-0.031-0.033c-0.002-0.004-0.018-0.02-0.022-0.023c-0.011-0.01-0.022-0.018-0.034-0.027
			c-0.023-0.023-0.049-0.045-0.072-0.066c-0.008-0.004-0.014-0.008-0.02-0.012c-0.498-0.383-1.186-0.4-1.697-0.047
			c-0.004,0.004-0.008,0.006-0.012,0.01c-0.033,0.023-0.064,0.047-0.096,0.072c-0.014,0.012-0.025,0.023-0.039,0.037
			c-0.018,0.014-0.035,0.028-0.051,0.045c-0.003,0.003-0.006,0.006-0.01,0.01c-0.006,0.006-0.012,0.011-0.018,0.017
			c-0.033,0.035-0.061,0.072-0.091,0.108c-0.01,0.012-0.021,0.021-0.028,0.034c-0.215,0.291-0.303,0.642-0.271,0.983
			c0,0.006-0.287,1.082-0.793,1.597c0,0-1.014,1.032-1.061,1.08c-0.147,0.145-0.147,0.38,0,0.526
			c0.003,0.005,0.019,0.021,0.022,0.026C57.769,66.971,58.004,66.967,58.146,66.819z"/>
	</g>
	<g>
		<path fill="#FFFFFF" d="M81.668,93.487c0.613-0.623-0.55-2.412-2.018-3.852c-0.828-0.815-1.713-1.482-2.437-1.841
			c-0.895-0.972-0.929-1.963-0.917-2.244c0.084-0.986-0.48-1.553-0.505-1.578l-4.521-4.537c0.288-0.293,0.923-0.939,0.923-0.939
			c0.514-0.487,1.417-0.822,1.582-0.817c0.163,0.004,0.691-0.07,0.977-0.29c0.012-0.008,0.022-0.02,0.033-0.027
			c0.037-0.031,0.074-0.063,0.107-0.096c0.007-0.004,0.012-0.012,0.018-0.017c0.004-0.003,0.008-0.006,0.01-0.009
			c0.017-0.018,0.03-0.034,0.045-0.053c0.012-0.013,0.023-0.024,0.035-0.038c0.025-0.031,0.049-0.065,0.072-0.099
			c0.004-0.004,0.007-0.01,0.01-0.014c0.344-0.515,0.314-1.203-0.078-1.694c-0.004-0.005-0.008-0.011-0.014-0.018
			c-0.021-0.023-0.041-0.051-0.064-0.074c-0.01-0.01-0.019-0.021-0.029-0.033c-0.005-0.004-0.02-0.021-0.023-0.023
			c-0.011-0.01-0.022-0.019-0.033-0.028c-0.024-0.022-0.051-0.043-0.075-0.064c-0.006-0.003-0.013-0.008-0.019-0.013
			c-0.497-0.382-1.185-0.399-1.695-0.046c-0.004,0.003-0.008,0.007-0.013,0.01c-0.033,0.021-0.065,0.047-0.095,0.071
			c-0.016,0.013-0.027,0.023-0.041,0.035c-0.016,0.016-0.034,0.028-0.049,0.044c-0.004,0.005-0.007,0.011-0.01,0.013
			c-0.007,0.008-0.013,0.014-0.02,0.018c-0.033,0.036-0.062,0.072-0.09,0.111c-0.01,0.01-0.02,0.021-0.029,0.031
			c-0.214,0.291-0.303,0.642-0.271,0.982c0.001,0.005-0.286,1.083-0.792,1.595c0,0-0.626,0.641-0.917,0.937l-2.35-2.358l2.252-2.291
			c0.396,0.151,0.865,0.07,1.184-0.254c0.429-0.438,0.422-1.141-0.014-1.57c-0.438-0.43-1.141-0.423-1.571,0.015
			c-0.319,0.322-0.392,0.791-0.234,1.187l-0.772,0.786c-0.011-0.074-0.021-0.148-0.037-0.222c-0.021-0.083-0.047-0.166-0.082-0.247
			c-0.037-0.08-0.084-0.162-0.16-0.237c-0.138-0.138-0.523-0.518-0.877-0.862c-0.352-0.346-0.668-0.656-0.668-0.656
			c-0.131-0.13-0.342-0.128-0.471,0.004c-0.13,0.13-0.129,0.342,0.004,0.471c0,0,1.264,1.242,1.543,1.517
			c0.002,0.002,0.015,0.024,0.027,0.058c0.024,0.061,0.049,0.162,0.063,0.272c0.022,0.168,0.028,0.358,0.028,0.505
			c0,0.014-0.001,0.026-0.001,0.041L67.748,75.9l-2.978-2.986c0.31-0.314,0.856-0.87,0.856-0.87
			c0.514-0.486,1.416-0.824,1.581-0.819c0.163,0.003,0.691-0.07,0.978-0.289c0.012-0.009,0.022-0.02,0.033-0.029
			c0.037-0.029,0.073-0.058,0.107-0.092c0.008-0.007,0.012-0.012,0.018-0.018c0.004-0.004,0.008-0.008,0.011-0.012
			c0.015-0.016,0.03-0.032,0.044-0.05c0.012-0.015,0.023-0.026,0.035-0.041c0.025-0.031,0.049-0.065,0.071-0.098
			c0.002-0.005,0.005-0.008,0.009-0.013c0.344-0.518,0.315-1.204-0.076-1.694c-0.004-0.007-0.008-0.013-0.014-0.02
			c-0.021-0.024-0.042-0.049-0.064-0.072c-0.01-0.011-0.019-0.021-0.03-0.033c-0.003-0.003-0.019-0.019-0.022-0.021
			c-0.012-0.013-0.023-0.02-0.034-0.03c-0.024-0.021-0.048-0.043-0.074-0.064c-0.006-0.003-0.013-0.008-0.019-0.012
			c-0.498-0.383-1.185-0.399-1.696-0.045c-0.004,0.002-0.008,0.006-0.012,0.009c-0.034,0.021-0.065,0.045-0.097,0.071
			c-0.015,0.012-0.025,0.024-0.039,0.035c-0.018,0.016-0.034,0.03-0.051,0.046c-0.004,0.003-0.007,0.007-0.01,0.011
			c-0.006,0.006-0.012,0.011-0.018,0.016c-0.033,0.034-0.062,0.074-0.091,0.11c-0.009,0.012-0.021,0.021-0.028,0.034
			c-0.215,0.289-0.302,0.64-0.271,0.982c0.001,0.006-0.287,1.081-0.792,1.597c0,0-0.539,0.548-0.851,0.864l-2.412-2.421l2.184-2.221
			c0.4,0.149,0.865,0.07,1.184-0.253c0.43-0.439,0.424-1.142-0.014-1.573c-0.438-0.431-1.141-0.423-1.57,0.013
			c-0.318,0.327-0.392,0.795-0.232,1.188L62.59,67.89c-0.01-0.075-0.021-0.148-0.039-0.224c-0.02-0.084-0.045-0.166-0.082-0.246
			c-0.035-0.082-0.083-0.162-0.158-0.237c-0.139-0.136-0.525-0.516-0.877-0.86c-0.351-0.347-0.668-0.658-0.668-0.659
			c-0.132-0.128-0.342-0.127-0.471,0.004c-0.13,0.134-0.128,0.343,0.004,0.473c0,0,1.264,1.239,1.543,1.517
			c0.002,0.002,0.016,0.021,0.029,0.058c0.023,0.062,0.047,0.161,0.061,0.273c0.021,0.168,0.028,0.358,0.027,0.503
			c0,0.016,0,0.025,0,0.041l-0.773,0.786l-0.391-0.393c-0.264-0.259-0.686-0.255-0.943,0.007c-0.258,0.263-0.254,0.686,0.008,0.944
			L74.346,84.41l0.013,0.012c0.005,0.004,0.452,0.399,0.458,0.936c-0.008,1.17,0.445,2.144,0.713,2.727
			c0.025,0.053,0.047,0.102,0.07,0.148c0.056,0.75,0.924,2.066,2.184,3.303C79.249,92.979,81.054,94.111,81.668,93.487z
			 M75.818,88.182c-0.246-0.552-0.788-1.57-0.78-2.828c-0.006-0.647-0.534-1.101-0.534-1.101L60.015,69.718
			c-0.175-0.173-0.177-0.455-0.005-0.629c0.172-0.179,0.453-0.18,0.629-0.006l0.392,0.392l-0.178,0.181
			c-0.171,0.178-0.169,0.456,0.005,0.629c0.176,0.172,0.457,0.17,0.629-0.004l0.172-0.175l2.412,2.421
			c-0.031,0.029-0.052,0.05-0.058,0.057c-0.146,0.146-0.146,0.381-0.001,0.529c0.004,0.004,0.02,0.019,0.024,0.022
			c0.15,0.143,0.386,0.139,0.528-0.01c0.005-0.004,0.023-0.025,0.05-0.051l2.978,2.985l-0.109,0.112
			c-0.172,0.174-0.17,0.455,0.005,0.628c0.175,0.172,0.458,0.168,0.629-0.006l0.103-0.105l2.352,2.359
			c-0.135,0.146-0.133,0.374,0.01,0.517c0.004,0.004,0.02,0.02,0.023,0.022c0.143,0.137,0.366,0.137,0.508,0.006l4.523,4.54
			c0,0,0.516,0.505,0.439,1.41c-0.025,0.66,0.227,1.603,1.004,2.432c0.682,0.333,1.559,0.977,2.418,1.818
			c1.541,1.516,2.444,3.102,2.014,3.537c-0.431,0.439-2.029-0.435-3.572-1.95C76.671,90.135,75.838,88.844,75.818,88.182z"/>
	</g>
	<g>
		<path fill="#FFFFFF" d="M87.48,87.61c-0.023-0.028-0.049-0.057-0.074-0.084c-0.012-0.014-0.021-0.026-0.033-0.037
			c-0.005-0.005-0.023-0.022-0.027-0.028c-0.014-0.01-0.025-0.02-0.038-0.031c-0.027-0.024-0.057-0.05-0.085-0.075
			c-0.008-0.004-0.015-0.008-0.021-0.014c-0.57-0.438-1.356-0.457-1.941-0.054c-0.005,0.004-0.011,0.008-0.016,0.01
			c-0.038,0.026-0.074,0.056-0.109,0.085c-0.016,0.014-0.03,0.027-0.045,0.04c-0.02,0.02-0.04,0.033-0.059,0.053
			c-0.004,0.004-0.006,0.008-0.01,0.013c-0.008,0.007-0.014,0.012-0.021,0.018c-0.037,0.041-0.07,0.084-0.104,0.125
			c-0.011,0.014-0.023,0.026-0.032,0.039c-0.245,0.334-0.347,0.733-0.312,1.126c0.001,0.005-0.328,1.24-0.906,1.826
			c0,0-1.161,1.184-1.217,1.239c-0.167,0.166-0.167,0.437-0.002,0.604c0.006,0.005,0.023,0.023,0.028,0.026
			c0.171,0.164,0.442,0.16,0.606-0.011c0.053-0.057,1.215-1.238,1.215-1.238c0.59-0.558,1.623-0.943,1.81-0.939
			c0.189,0.006,0.794-0.078,1.121-0.33c0.013-0.009,0.024-0.021,0.038-0.031c0.042-0.033,0.085-0.07,0.124-0.107
			c0.007-0.007,0.012-0.016,0.019-0.021c0.004-0.004,0.009-0.006,0.014-0.01c0.017-0.02,0.032-0.039,0.05-0.058
			c0.013-0.017,0.026-0.03,0.039-0.047c0.03-0.035,0.057-0.074,0.083-0.111c0.004-0.004,0.008-0.01,0.01-0.015
			c0.394-0.592,0.361-1.381-0.087-1.942C87.491,87.624,87.486,87.616,87.48,87.61z"/>
	</g>
	<g>
		<path fill="#FFFFFF" d="M93.062,97.155c0.188,0.006,0.792-0.078,1.12-0.329c0.013-0.009,0.023-0.022,0.037-0.034
			c0.041-0.035,0.084-0.068,0.123-0.105c0.007-0.007,0.014-0.015,0.02-0.021c0.004-0.003,0.009-0.007,0.013-0.01
			c0.017-0.02,0.034-0.041,0.05-0.059c0.014-0.016,0.027-0.031,0.041-0.047c0.029-0.037,0.055-0.072,0.082-0.111
			c0.002-0.005,0.006-0.011,0.01-0.015c0.395-0.591,0.361-1.38-0.088-1.942c-0.004-0.006-0.01-0.012-0.016-0.018
			c-0.023-0.031-0.048-0.059-0.074-0.085c-0.012-0.013-0.021-0.026-0.034-0.04c-0.004-0.004-0.021-0.021-0.026-0.023
			c-0.013-0.013-0.025-0.021-0.037-0.033c-0.029-0.026-0.059-0.051-0.087-0.073c-0.007-0.006-0.014-0.01-0.021-0.017
			c-0.571-0.439-1.356-0.458-1.941-0.053c-0.006,0.003-0.01,0.007-0.016,0.01c-0.037,0.027-0.074,0.056-0.109,0.086
			c-0.016,0.011-0.031,0.025-0.045,0.039c-0.02,0.018-0.039,0.033-0.058,0.052c-0.003,0.004-0.007,0.009-0.011,0.013
			c-0.008,0.006-0.016,0.012-0.021,0.02c-0.039,0.039-0.07,0.081-0.104,0.125c-0.012,0.014-0.023,0.025-0.032,0.039
			c-0.246,0.329-0.348,0.733-0.312,1.126c0.002,0.006-0.328,1.237-0.906,1.827c0,0-1.162,1.183-1.218,1.236
			c-0.167,0.166-0.167,0.438-0.001,0.604c0.006,0.004,0.023,0.023,0.028,0.029c0.171,0.16,0.442,0.156,0.605-0.014
			c0.053-0.055,1.217-1.238,1.217-1.238C91.839,97.537,92.873,97.151,93.062,97.155z"/>
	</g>
	<g>
		<path fill="#FFFFFF" d="M90.877,92.725c0.432-0.438,0.426-1.139-0.012-1.569c-0.438-0.43-1.142-0.426-1.57,0.015
			c-0.319,0.321-0.393,0.791-0.233,1.187l-2.511,2.553c-0.172,0.175-0.17,0.457,0.006,0.63c0.175,0.173,0.457,0.169,0.629-0.006
			l2.51-2.554C90.094,93.129,90.561,93.051,90.877,92.725z"/>
	</g>
	<g>
		<polygon fill="#FFFFFF" points="85.219,78.55 85.219,78.55 85.217,78.549 		"/>
	</g>
	<g>
		
			<rect x="107.761" y="113.01" transform="matrix(-0.7131 -0.7011 0.7011 -0.7131 108.988 271.2918)" fill="#FFFFFF" width="4.499" height="0.665"/>
	</g>
	<g>
		<path fill="#FFFFFF" d="M112.174,115.935l7.021,6.9c-0.099,0.279-0.037,0.601,0.188,0.821c0.31,0.305,0.808,0.301,1.113-0.01
			c0.305-0.309,0.299-0.808-0.011-1.111c-0.225-0.222-0.547-0.276-0.825-0.174l-7.021-6.901L112.174,115.935z"/>
	</g>
	<g>
		<path fill="#FFFFFF" d="M107.38,111.225l0.466-0.477l-1.566-1.538c0.018-0.01,0.032-0.016,0.034-0.018
			c0.048-0.022,0.089-0.052,0.124-0.088c0.122-0.122,0.16-0.314,0.082-0.483l-0.018-0.035c-0.107-0.21-0.361-0.296-0.572-0.19
			c-0.01,0.007-0.136,0.059-0.332,0.144l-0.977-0.958c0.042-0.026,0.072-0.046,0.081-0.05c0.035-0.021,0.066-0.045,0.095-0.073
			c0.129-0.134,0.162-0.339,0.065-0.512l-0.02-0.034c-0.122-0.2-0.384-0.268-0.587-0.146c-0.02,0.012-0.135,0.082-0.285,0.173
			l-0.095-0.091c0.099-0.277,0.037-0.601-0.188-0.82c-0.309-0.307-0.807-0.301-1.111,0.01s-0.301,0.808,0.009,1.113
			c0.192,0.187,0.456,0.255,0.702,0.206c-0.129,0.078-0.218,0.136-0.218,0.136c-0.716,0.383-1.813,0.483-1.994,0.431
			c-0.181-0.058-0.785-0.133-1.168,0.024l-0.044,0.021c-0.05,0.021-0.1,0.044-0.146,0.07l-0.023,0.016l-0.017,0.007
			c-0.022,0.014-0.042,0.029-0.063,0.043l-0.051,0.035c-0.037,0.026-0.074,0.057-0.109,0.085l-0.014,0.011
			c-0.031,0.028-0.061,0.058-0.09,0.086c-0.463,0.472-0.604,1.189-0.336,1.811l0.01,0.023c0.016,0.035,0.033,0.066,0.051,0.101
			l0.023,0.045l0.02,0.032l0.027,0.043c0.021,0.032,0.041,0.063,0.063,0.093l0.017,0.021c0.435,0.573,1.19,0.8,1.858,0.563
			l0.018-0.008c0.045-0.017,0.088-0.033,0.13-0.052l0.054-0.029c0.023-0.012,0.045-0.021,0.068-0.035l0.016-0.008l0.024-0.012
			c0.046-0.03,0.091-0.063,0.133-0.094l0.04-0.03c0.029-0.021,0.059-0.048,0.085-0.072c0.024-0.022,0.046-0.043,0.067-0.063
			c0.236-0.24,0.388-0.543,0.443-0.868c0.001-0.004,0.357-0.618,0.834-1.101c0.163-0.168,0.34-0.317,0.521-0.425
			c0,0,0.251-0.151,0.519-0.316l0.904,0.887c-0.756,0.326-1.793,0.775-2.586,1.117c-0.08,0.325-0.239,0.624-0.475,0.863
			c-0.025,0.023-0.05,0.05-0.076,0.07c-0.031,0.032-0.063,0.058-0.094,0.081l-0.041,0.031l-0.008,0.006l-0.02,0.015
			c-0.039,0.028-0.084,0.061-0.129,0.088l-0.027,0.015l-0.008,0.007l-0.014,0.006c-0.02,0.012-0.039,0.021-0.059,0.031l-0.019,0.007
			l-0.015,0.01l-0.048,0.023c-0.047,0.02-0.095,0.042-0.146,0.061l-0.012,0.004l-0.007,0.002c-0.767,0.271-1.616,0.015-2.112-0.638
			l-0.007-0.01l0,0l-0.009-0.01l-0.004-0.004c-0.023-0.034-0.047-0.071-0.066-0.102l-0.008-0.011l-0.024-0.037l-0.023-0.04
			l-0.011-0.02c-0.251-0.042-0.574-0.062-0.82,0.019l-0.047,0.016c-0.051,0.02-0.102,0.037-0.152,0.059l-0.023,0.013l-0.017,0.009
			c-0.022,0.01-0.046,0.023-0.067,0.038l-0.054,0.028c-0.039,0.024-0.077,0.05-0.115,0.076l-0.014,0.012
			c-0.069,0.05-0.132,0.104-0.19,0.166c-0.431,0.438-0.587,1.089-0.383,1.69l0.008,0.022c0.012,0.038,0.027,0.071,0.041,0.106
			l0.02,0.047l0.018,0.034l0.024,0.044c0.017,0.032,0.035,0.065,0.055,0.099l0.014,0.02c0.233,0.363,0.589,0.608,0.985,0.711
			c0.64,0.162,1.549-0.478,1.702-0.611c1.278-1.124,4.402-2.768,5.773-3.465L107.38,111.225z"/>
	</g>
	<g>
		<path fill="#FFFFFF" d="M97.434,109.878c0.007-0.002,0.012-0.003,0.017-0.005c0.044-0.016,0.087-0.033,0.128-0.054
			c0.018-0.01,0.037-0.02,0.055-0.029c0.023-0.01,0.047-0.02,0.07-0.033c0.004-0.002,0.008-0.009,0.014-0.011
			c0.008-0.006,0.016-0.008,0.023-0.013c0.047-0.028,0.092-0.06,0.135-0.093c0.012-0.01,0.027-0.018,0.039-0.028
			c0.324-0.255,0.528-0.617,0.597-1.007c0.001-0.004,0.644-1.107,1.354-1.521c0,0,1.872-1.078,3.08-1.775l0.283,0.281
			c0.225,0.02,0.443,0.107,0.615,0.28c0.166,0.164,0.264,0.379,0.289,0.606l0.07,0.069c0.297-0.139,0.656-0.032,0.832,0.257
			l0.021,0.034c0.103,0.183,0.108,0.395,0.03,0.576l0.782,0.77c0.312-0.132,0.679-0.002,0.835,0.309l0.017,0.038
			c0.077,0.166,0.079,0.346,0.018,0.508l1.421,1.395l0.467-0.474l-5.08-4.993c0.236-0.137,0.387-0.223,0.4-0.23
			c0.205-0.116,0.275-0.377,0.16-0.582c-0.004-0.006-0.018-0.029-0.021-0.033c-0.122-0.203-0.384-0.27-0.587-0.148
			c-0.016,0.01-0.254,0.148-0.607,0.35l-0.295-0.289c0.098-0.277,0.035-0.601-0.189-0.82c-0.31-0.307-0.809-0.302-1.112,0.01
			c-0.304,0.309-0.3,0.805,0.01,1.111c0.226,0.221,0.548,0.278,0.824,0.176l0.162,0.16c-1.203,0.691-2.872,1.65-2.872,1.65
			c-0.714,0.384-1.813,0.485-1.992,0.431c-0.181-0.055-0.785-0.131-1.168,0.024c-0.016,0.006-0.03,0.016-0.046,0.021
			c-0.048,0.022-0.099,0.043-0.146,0.07c-0.008,0.006-0.016,0.011-0.023,0.015c-0.005,0.003-0.011,0.005-0.016,0.008
			c-0.021,0.013-0.043,0.028-0.064,0.043c-0.018,0.012-0.033,0.023-0.051,0.034c-0.038,0.025-0.072,0.059-0.107,0.088
			c-0.004,0.002-0.01,0.008-0.015,0.012c-0.536,0.467-0.711,1.233-0.425,1.895c0.003,0.006,0.007,0.015,0.01,0.023
			c0.014,0.033,0.031,0.064,0.05,0.1c0.007,0.015,0.015,0.03,0.022,0.046c0.004,0.006,0.016,0.027,0.02,0.033
			c0.008,0.015,0.018,0.027,0.027,0.041c0.02,0.033,0.041,0.063,0.063,0.093c0.006,0.007,0.012,0.015,0.016,0.021
			C96.008,109.889,96.764,110.115,97.434,109.878z"/>
	</g>
	<g>
		<path fill="#FFFFFF" d="M110.393,111.695l-0.976-0.961l-0.467,0.475l3.21,3.156l0.467-0.475l-1.49-1.467
			c-0.206,0.102-0.461,0.068-0.633-0.1C110.332,112.155,110.297,111.898,110.393,111.695z"/>
	</g>
	<g>
		<path fill="#FFFFFF" d="M84.282,75.807c-0.173-0.063-0.337-0.1-0.485-0.095c-0.148,0.004-0.287,0.051-0.387,0.152
			c-0.102,0.101-0.145,0.241-0.146,0.388c-0.003,0.226,0.082,0.479,0.229,0.748c0.15,0.267,0.363,0.549,0.631,0.813
			c0.359,0.351,0.746,0.605,1.092,0.736l0.002,0.001c0.004,0.002,0.111,0.044,0.281,0.114c0.262,0.106,0.668,0.28,1.06,0.479
			c0.392,0.199,0.769,0.425,0.965,0.617l3.517,3.455c-0.069,0.124-0.255,0.409-0.656,0.818c-0.296,0.298-0.543,0.551-0.713,0.724
			c-4.256-4.117-7.194-6.946-7.612-7.318c-0.056-0.07-0.109-0.134-0.166-0.188c-0.642-0.63-1.61-0.687-2.161-0.125
			c-0.282,0.289-0.4,0.682-0.363,1.081l-1.455,1.479l-0.199-0.196c-0.354-0.571-0.446-1.449,0.742-2.604
			c0.494-0.199,1.064-0.593,1.59-1.125c1.047-1.065,1.521-2.295,1.063-2.747c-0.46-0.451-1.681,0.047-2.728,1.11
			c-1.25,1.274-1.676,3.579-1.564,4.485l-0.274-0.27c0.075-0.266,0.011-0.561-0.199-0.766c-0.306-0.303-0.799-0.299-1.099,0.009
			c-0.302,0.307-0.297,0.799,0.009,1.1c0.231,0.228,0.567,0.278,0.849,0.16l1.344,1.319l-2.303,2.344
			c-0.13,0.131-0.129,0.344,0.003,0.472c0.132,0.13,0.343,0.128,0.472-0.006l2.304-2.344l0.089,0.089
			c-0.115,0.283-0.058,0.619,0.176,0.847c0.305,0.301,0.797,0.297,1.098-0.01c0.301-0.306,0.298-0.798-0.01-1.099
			c-0.199-0.196-0.478-0.261-0.731-0.198l-0.138-0.12l1.201-1.22c0.077,0.13,0.172,0.254,0.287,0.366
			c0.615,0.604,1.529,0.681,2.09,0.192c0.021,0.012,0.051,0.028,0.09,0.051l2.123,2.05c-0.147,0.497-1.114,1.734-2.416,3.058
			c-1.004,1.021-1.959,1.842-2.57,2.239c0,0,0.807,0.63,1.357,1.272c0.619-0.414,1.553-1.221,2.529-2.217
			c1.293-1.314,2.259-2.544,2.436-3.063l8.052,7.77c-0.038,0.02-0.074,0.043-0.104,0.076l-3.601,3.665
			c-0.399-0.151-0.866-0.072-1.185,0.255c-0.354,0.359-0.516,0.945-0.174,1.325c0.34,0.379,0.869,0.187,0.869,0.187l4.723-4.809
			c0.033-0.034,0.059-0.071,0.08-0.111l3.139,3.026c-0.107,0.006-0.212,0.049-0.293,0.131c0,0-2.012,2.047-2.414,2.457
			c-0.313,0.319-0.027,0.8,0.111,0.994c-0.736,0.752-1.602,1.631-1.602,1.631l-0.502-0.532c0.049-0.215-0.009-0.45-0.179-0.616
			c-0.257-0.253-0.673-0.249-0.927,0.008c-0.254,0.26-0.249,0.675,0.01,0.928c0.193,0.193,0.479,0.236,0.716,0.135l1.606,1.58
			c-0.096,0.24-0.047,0.521,0.148,0.715c0.26,0.254,0.673,0.25,0.928-0.009c0.254-0.258,0.25-0.673-0.008-0.928
			c-0.177-0.174-0.428-0.223-0.65-0.155l-0.776-0.765c0.767,0.08,2.522-0.489,3.575-1.564c0.883-0.896,1.283-1.933,0.896-2.313
			c-0.27-0.268-0.855-0.142-1.486,0.268l1.187-1.209c0.083-0.084,0.124-0.193,0.126-0.303l10.596,10.226
			c0.242,0.075,0.494,0.209,0.729,0.395l-26.911-25.97c-0.163-0.103-0.271-0.143-0.315-0.097c-0.465,0.471-1.292,0.415-1.846-0.129
			c-0.555-0.545-0.627-1.37-0.16-1.846c0.465-0.475,1.293-0.418,1.848,0.13c0.057,0.055,0.106,0.114,0.154,0.179
			c0.439,0.274,49.146,47.646,49.146,47.646c0.177,0.169,0.182,0.451,0.012,0.628l-0.003,0.002c-0.171,0.173-0.45,0.179-0.626,0.008
			l-0.455-0.439l0.248-0.368c0.104-0.152,0.063-0.358-0.09-0.463c-0.152-0.104-0.359-0.061-0.463,0.091l-0.182,0.271l-19.967-19.268
			c0.195,0.23,0.34,0.477,0.426,0.72l19.414,18.735L128.781,126l-6.008-5.902c0.141-0.505-0.059-1.146-0.55-1.631
			c-0.655-0.646-1.589-0.762-2.084-0.258c-0.493,0.504-0.362,1.436,0.294,2.079c0.603,0.595,1.439,0.736,1.955,0.364l2.444,2.401
			c-0.021,0.034-0.037,0.073-0.044,0.114l-0.043,0.262l-1.056,1.073c-0.048,0.048-0.078,0.109-0.089,0.17l-10.183-10.005
			l-0.466,0.474l7.072,6.954c0.229,0.021,0.448,0.116,0.616,0.281c0.171,0.168,0.267,0.385,0.291,0.609l4.737,4.654l-1.623,1.65
			c-0.787-0.771-1.757-1.064-2.166-0.65c-0.03,0.033-0.086,0.088-0.15,0.155c0.552-0.057,1.29,0.269,1.927,0.893
			c0.637,0.625,0.97,1.355,0.925,1.911c0.064-0.066,0.121-0.125,0.151-0.153c0.322-0.327,0.198-0.998-0.255-1.645l1.666-1.693
			l0.324,0.318c-0.096,0.278-0.035,0.601,0.189,0.823c0.311,0.303,0.809,0.299,1.113-0.01c0.305-0.313,0.3-0.81-0.01-1.114
			c-0.225-0.221-0.548-0.275-0.824-0.174l-0.326-0.32l0.52-0.528c0.037-0.039,0.066-0.088,0.082-0.139l0.586-0.997l0.584,0.575
			c0.007,0.007,0.016,0.013,0.021,0.019l-0.099,0.147c-0.09,0.134-0.071,0.311,0.043,0.424l1.797,1.766
			c-0.401,0.509-0.935,1.112-1.55,1.737c-1.479,1.504-2.847,2.556-3.059,2.347c0.178,0.174,1.037,1.076,1.219,1.257
			c0.215,0.21,1.599-0.853,3.092-2.37c0.02-0.021,0.039-0.043,0.061-0.064l0.574,0.564c-0.059,0.145-0.01,0.313,0.127,0.402
			c0.095,0.063,0.211,0.069,0.311,0.027l2.461,2.42l-2.141,2.18c-0.789-0.774-1.758-1.063-2.166-0.649
			c-0.03,0.031-0.086,0.088-0.151,0.152c0.554-0.054,1.291,0.269,1.927,0.894c0.637,0.625,0.972,1.357,0.926,1.911
			c0.064-0.066,0.121-0.125,0.151-0.155c0.321-0.324,0.197-0.994-0.255-1.641l2.184-2.225l4.407,4.33
			c0.003,0.098,0.048,0.192,0.13,0.256c0.061,0.044,0.127,0.063,0.195,0.065l0.244,0.237c-0.1,0.278-0.037,0.601,0.188,0.821
			c0.31,0.305,0.809,0.301,1.113-0.01c0.304-0.311,0.299-0.808-0.01-1.114c-0.226-0.219-0.549-0.275-0.824-0.173l-0.207-0.203
			l1.355-1.801c0.313,0.12,0.627,0.099,0.821-0.098c0.009-0.012,0.022-0.025,0.038-0.038c-0.34,0.019-0.729-0.131-1.046-0.442
			c-0.317-0.313-0.475-0.698-0.46-1.038c-0.016,0.015-0.029,0.028-0.039,0.04c-0.27,0.274-0.197,0.785,0.146,1.183l-1.296,1.725
			l-7.272-7.147l1.125-1.659c0.088-0.132,0.07-0.308-0.045-0.418l-0.618-0.609c0.312-0.451,0.453-0.766,0.361-0.857
			c-0.2-0.193-1.086-1.007-1.278-1.197c0.09,0.091-0.045,0.392-0.338,0.821l-1.535-1.507l0.83-1.23l0.426,0.412
			c0.263,0.253,0.683,0.249,0.939-0.014c0.127-0.132,0.193-0.3,0.189-0.479c-0.002-0.178-0.074-0.344-0.203-0.466
			c-3.678-3.578-28.438-27.654-41.361-40.164c0.168-0.172,0.417-0.425,0.709-0.724c0.571-0.579,0.732-0.936,0.739-0.947l0.031-0.072
			l-3.634-3.566c-0.152-0.152-0.377-0.301-0.627-0.445c-0.752-0.434-1.753-0.813-1.756-0.813l0,0
			c-0.309-0.115-0.676-0.356-1.014-0.688c-0.34-0.334-0.584-0.693-0.707-0.999c-0.06-0.152-0.09-0.292-0.088-0.399
			c0.002-0.11,0.031-0.185,0.081-0.236c0.052-0.052,0.126-0.08,0.235-0.085c0.163-0.006,0.393,0.058,0.642,0.191
			c0.248,0.13,0.517,0.328,0.771,0.577l6.922,6.802l-0.09-0.401l-6.676-6.56C85.013,76.194,84.627,75.939,84.282,75.807z
			 M127.322,125.502l-0.727,1.194l-0.459,0.47l-2.141-2.103c0.063-0.014,0.121-0.045,0.169-0.095l1.13-1.148
			c0.047-0.049,0.08-0.111,0.09-0.176l0.009-0.04L127.322,125.502z M131.759,130.485l-0.901,1.319l-0.49-0.48
			c0.398-0.428,0.747-0.834,1.032-1.193L131.759,130.485z"/>
	</g>
	<g>
		
			<ellipse transform="matrix(0.7008 -0.7133 0.7133 0.7008 -56.4327 126.6384)" fill="#FFFFFF" cx="122.762" cy="130.598" rx="1.056" ry="1.999"/>
	</g>
	<g>
		
			<ellipse transform="matrix(-0.7004 0.7138 -0.7138 -0.7004 319.9782 143.09)" fill="#FFFFFF" cx="129.956" cy="138.706" rx="1.055" ry="2"/>
	</g>
</g>
</svg>
