<?xml version="1.0" encoding="utf-8"?>
<!-- Generator: Adobe Illustrator 15.0.0, SVG Export Plug-In . SVG Version: 6.00 Build 0)  -->
<!DOCTYPE svg PUBLIC "-//W3C//DTD SVG 1.1//EN" "http://www.w3.org/Graphics/SVG/1.1/DTD/svg11.dtd">
<svg version="1.1" id="Ebene_1" xmlns="http://www.w3.org/2000/svg" xmlns:xlink="http://www.w3.org/1999/xlink" x="0px" y="0px"
	 width="190px" height="190px" viewBox="0 0 190 190" enable-background="new 0 0 190 190" xml:space="preserve">
<g id="Orientierungskreise" display="none">
	<g id="Weißer_Kreis_x5F_Violin_9_" display="inline">
		<g>
			<path fill="#4D4D4F" d="M-1122.268,9.917c47.365,0,85.898,38.534,85.898,85.899s-38.534,85.897-85.898,85.897
				c-47.365,0-85.899-38.534-85.899-85.897C-1208.167,48.451-1169.633,9.917-1122.268,9.917 M-1122.268,9.69
				c-47.566,0-86.126,38.559-86.126,86.126c0,47.564,38.56,86.125,86.126,86.125s86.125-38.561,86.125-86.125
				C-1036.143,48.249-1074.702,9.69-1122.268,9.69L-1122.268,9.69z"/>
		</g>
	</g>
	<g id="Weißer_Kreis_x5F_Violin_10_" display="inline">
		<g>
			<path fill="#4D4D4F" d="M-1122.268,12.492c45.944,0,83.322,37.378,83.322,83.322s-37.378,83.322-83.322,83.322
				c-45.945,0-83.323-37.378-83.323-83.322C-1205.591,49.871-1168.212,12.492-1122.268,12.492 M-1122.268,12.272
				c-46.139,0-83.543,37.402-83.543,83.542c0,46.14,37.404,83.543,83.543,83.543c46.139,0,83.542-37.403,83.542-83.543
				S-1076.128,12.272-1122.268,12.272L-1122.268,12.272z"/>
		</g>
	</g>
	<g id="Weißer_Kreis_x5F_Violin_2_" display="inline">
		<g>
			<path fill="#4D4D4F" d="M-1122.268,232.007c47.365,0,85.898,38.534,85.898,85.899s-38.534,85.898-85.898,85.898
				c-47.365,0-85.899-38.535-85.899-85.898C-1208.167,270.542-1169.633,232.007-1122.268,232.007 M-1122.268,231.781
				c-47.566,0-86.126,38.559-86.126,86.125s38.56,86.125,86.126,86.125s86.125-38.559,86.125-86.125
				C-1036.143,270.339-1074.702,231.781-1122.268,231.781L-1122.268,231.781z"/>
		</g>
	</g>
	<g id="Weißer_Kreis_x5F_Violin_1_" display="inline">
		<g>
			<path fill="#4D4D4F" d="M-1122.268,234.583c45.944,0,83.322,37.378,83.322,83.323c0,45.943-37.378,83.322-83.322,83.322
				c-45.945,0-83.323-37.379-83.323-83.322C-1205.591,271.961-1168.212,234.583-1122.268,234.583 M-1122.268,234.363
				c-46.139,0-83.543,37.402-83.543,83.543c0,46.139,37.404,83.541,83.543,83.541c46.139,0,83.542-37.402,83.542-83.541
				C-1038.726,271.766-1076.128,234.363-1122.268,234.363L-1122.268,234.363z"/>
		</g>
	</g>
	<g id="Weißer_Kreis_x5F_Violin_6_" display="inline">
		<g>
			<path fill="#4D4D4F" d="M-1122.268,676.191c47.365,0,85.898,38.535,85.898,85.9c0,47.363-38.534,85.896-85.898,85.896
				c-47.365,0-85.899-38.533-85.899-85.896C-1208.167,714.727-1169.633,676.191-1122.268,676.191 M-1122.268,675.967
				c-47.566,0-86.126,38.559-86.126,86.125c0,47.564,38.56,86.125,86.126,86.125s86.125-38.561,86.125-86.125
				C-1036.143,714.523-1074.702,675.967-1122.268,675.967L-1122.268,675.967z"/>
		</g>
	</g>
	<g id="Weißer_Kreis_x5F_Violin_5_" display="inline">
		<g>
			<path fill="#4D4D4F" d="M-1122.268,678.768c45.944,0,83.322,37.379,83.322,83.324c0,45.943-37.378,83.32-83.322,83.32
				c-45.945,0-83.323-37.377-83.323-83.32C-1205.591,716.146-1168.212,678.768-1122.268,678.768 M-1122.268,678.549
				c-46.139,0-83.543,37.4-83.543,83.543c0,46.139,37.404,83.541,83.543,83.541c46.139,0,83.542-37.402,83.542-83.541
				C-1038.726,715.949-1076.128,678.549-1122.268,678.549L-1122.268,678.549z"/>
		</g>
	</g>
	<g id="Weißer_Kreis_x5F_Violin_8_" display="inline">
		<g>
			<path fill="#4D4D4F" d="M-1122.268,898.285c47.365,0,85.898,38.533,85.898,85.898s-38.534,85.898-85.898,85.898
				c-47.365,0-85.899-38.533-85.899-85.898S-1169.633,898.285-1122.268,898.285 M-1122.268,898.059
				c-47.566,0-86.126,38.559-86.126,86.127c0,47.564,38.56,86.125,86.126,86.125s86.125-38.561,86.125-86.125
				C-1036.143,936.617-1074.702,898.059-1122.268,898.059L-1122.268,898.059z"/>
		</g>
	</g>
	<g id="Weißer_Kreis_x5F_Violin_7_" display="inline">
		<g>
			<path fill="#4D4D4F" d="M-1122.268,900.859c45.944,0,83.322,37.379,83.322,83.324c0,45.943-37.378,83.322-83.322,83.322
				c-45.945,0-83.323-37.379-83.323-83.322C-1205.591,938.238-1168.212,900.859-1122.268,900.859 M-1122.268,900.641
				c-46.139,0-83.543,37.402-83.543,83.543c0,46.139,37.404,83.543,83.543,83.543c46.139,0,83.542-37.404,83.542-83.543
				C-1038.726,938.043-1076.128,900.641-1122.268,900.641L-1122.268,900.641z"/>
		</g>
	</g>
	<g id="Weißer_Kreis_x5F_Violin_4_" display="inline">
		<g>
			<path fill="#4D4D4F" d="M-1122.268,454.102c47.365,0,85.898,38.533,85.898,85.898c0,47.363-38.534,85.898-85.898,85.898
				c-47.365,0-85.899-38.535-85.899-85.898C-1208.167,492.635-1169.633,454.102-1122.268,454.102 M-1122.268,453.873
				c-47.566,0-86.126,38.561-86.126,86.127c0,47.564,38.56,86.125,86.126,86.125s86.125-38.561,86.125-86.125
				C-1036.143,492.434-1074.702,453.873-1122.268,453.873L-1122.268,453.873z"/>
		</g>
	</g>
	<g id="Weißer_Kreis_x5F_Violin_3_" display="inline">
		<g>
			<path fill="#4D4D4F" d="M-1122.267,456.676c45.944,0,83.322,37.379,83.322,83.324c0,45.943-37.378,83.322-83.322,83.322
				c-45.945,0-83.323-37.379-83.323-83.322C-1205.59,494.055-1168.212,456.676-1122.267,456.676 M-1122.267,456.457
				c-46.139,0-83.543,37.402-83.543,83.543c0,46.139,37.404,83.543,83.543,83.543c46.139,0,83.542-37.404,83.542-83.543
				C-1038.725,493.859-1076.128,456.457-1122.267,456.457L-1122.267,456.457z"/>
		</g>
	</g>
</g>
<path d="M167.393,104.544V82.858c0-0.031-0.014-0.063-0.035-0.084c-0.023-0.023-0.053-0.036-0.086-0.036l-29.441-0.163
	c8.096-4.158,14.293-9.824,18.18-14.016c2.463-2.654,4.646-5.427,6.318-8.019c0.793-1.228,1.453-2.392,1.969-3.46
	c0.529-1.102,0.898-2.095,1.096-2.949c0.146-0.639,0.223-1.266,0.223-1.861c0.002-1.4-0.424-2.724-1.23-3.824
	c-0.977-1.333-2.471-2.373-4.568-3.18c-0.09-0.034-0.18-0.065-0.27-0.098l-0.068-0.023c-0.398-0.164-0.832-0.322-1.285-0.473
	c-1.162-0.384-2.348-0.675-3.393-0.932l-0.109-0.027c-0.096-0.021-2.352-0.576-4.918-1.232c-2.027-0.52-4.754-1.233-6.24-1.688
	c-7.754-2.37-13.34-5.033-16.6-7.912c-1.264-1.116-2.186-2.273-2.74-3.441c-0.447-0.947-0.666-1.912-0.666-2.947
	c0-0.832,0.145-1.727,0.443-2.735c0.311-1.054,0.469-2.051,0.469-2.965c0.002-1.179-0.258-2.254-0.77-3.194
	c-0.338-0.623-0.789-1.189-1.344-1.681c-0.639-0.569-1.398-1.036-2.328-1.43c-0.703-0.298-1.369-0.495-1.855-0.64l-0.059-0.018
	c-0.32-0.094-0.688-0.178-1.16-0.264c-1.148-0.209-2.824-0.404-4.979-0.582c-0.354-0.029-0.67-0.064-0.975-0.099
	c-0.314-0.034-0.611-0.067-0.891-0.087c-0.25-0.016-0.504-0.025-0.758-0.025c-0.148,0-0.262,0.004-0.32,0.005h-0.039
	c-0.557,0-1.086,0.241-1.451,0.663L62.703,65.134c-0.121,0.139-0.217,0.293-0.293,0.459c-3.873,0.324-8.023,0.857-12.299,1.688
	c-0.043,0.009-0.078,0.039-0.092,0.081c-1.826,5.506-4.111,9.157-5.941,11.433c-0.914,1.137-1.715,1.929-2.285,2.438
	c-0.283,0.254-0.51,0.436-0.666,0.555c-0.078,0.06-0.139,0.103-0.18,0.131l-0.029,0.021l-16.564-0.01
	c-0.172,0-0.311,0.141-0.311,0.313v4.201c0,0.095,0.031,0.188,0.09,0.264l0.006,0.01c0.018,0.024,1.818,2.803,1.02,6.028
	c-1.395,4.524-3.926,4.827-5.6,5.028c-1.314,0.158-3.637,0.163-4.754,0.165c-0.768,0.003-0.768,0.003-0.865,0.091
	c-0.064,0.059-0.102,0.143-0.102,0.23v8.301c0,0.163,0.127,0.299,0.289,0.312l0.408,0.03l0.02,0.047v2.629
	c0,0.063,0.049,0.115,0.109,0.121l9.771,0.805c-0.051,0.076-0.084,0.164-0.092,0.26c-0.012,0.146,0.035,0.289,0.131,0.4
	c0.029,0.035,0.064,0.064,0.1,0.09v0.426c0,0.064,0.053,0.118,0.119,0.119c4.143,0.061,6.537,1.443,7.904,2.801
	c0.684,0.678,1.109,1.354,1.363,1.858c0.127,0.253,0.213,0.461,0.266,0.606c0.025,0.072,0.043,0.129,0.055,0.169l0.014,0.042
	l0.004,0.013l0.002,0.009l0.174,0.525l1.619,25.04l-0.354,1.058l-0.006,0.045l0.281,5.141c0.002,0.047,0.031,0.088,0.074,0.105
	l1.484,0.57v0.209l-0.592,1.23c-0.697,0.311-1.188,1.023-1.188,1.857c0,0.559,0.219,1.064,0.574,1.432
	c0.354,0.367,0.846,0.594,1.389,0.594c0.016,0,0.107,0.014,0.217,0.034c0.166,0.032,0.396,0.079,0.617,0.12
	c0.225,0.04,0.438,0.072,0.588,0.072c0.541,0,1.033-0.227,1.389-0.595c0.354-0.366,0.574-0.872,0.574-1.431
	c0-0.105-0.012-0.209-0.027-0.309c0.139-0.184,0.311-0.371,0.498-0.518c0.201-0.156,0.416-0.264,0.615-0.281
	c0.063-0.006,0.109-0.059,0.109-0.121v-1.777c0-0.032-0.014-0.063-0.035-0.085c-0.023-0.022-0.055-0.035-0.086-0.035h-1.27v-0.417
	l2.777-0.224c0.059-0.005,0.105-0.054,0.109-0.114l0.301-5.579l-0.008-0.049l-0.352-0.935l1.857-24.973
	c0.994-2.182,2.176-3.607,3.338-4.545l3.623,0.344v0.691c0,0.063,0.049,0.114,0.111,0.119l5.568,0.448v3.193
	c0,0.062,0.047,0.113,0.111,0.118l6.77,0.607v29.865l-1.205,0.049c-0.057,0.002-0.104,0.043-0.113,0.098l-0.002,0.012
	c-0.014,0.066-0.088,0.391-0.295,0.764s-0.543,0.791-1.078,1.059c-0.041,0.021-0.066,0.063-0.066,0.107v1.16
	c0,0.048,0.027,0.092,0.072,0.11c0.008,0.003,0.066,0.032,0.115,0.082c0.051,0.052,0.092,0.116,0.092,0.208c0,0.178,0,1.37,0,2.219
	c-2.088,0.254-4.068,0.513-4.93,0.681l-0.014,0.003c-0.195,0.063-0.334,0.154-0.424,0.271c-0.088,0.117-0.119,0.254-0.119,0.381
	c0,0.102,0.018,0.2,0.043,0.293l0.006,0.014c0.031,0.082,0.098,0.137,0.168,0.174c0.105,0.055,0.232,0.082,0.367,0.102
	c0.137,0.018,0.281,0.021,0.414,0.023c0.268-0.002,0.49-0.023,0.494-0.023h0.002l1.922-0.236c-0.002,0.027-0.006,0.055-0.006,0.082
	c0,0.1,0.016,0.196,0.041,0.287l0.004,0.014c0.033,0.084,0.098,0.137,0.168,0.174c0.105,0.057,0.232,0.084,0.369,0.102
	c0.137,0.017,0.281,0.023,0.414,0.023c0.268,0,0.49-0.023,0.492-0.023h0.002l2.879-0.354c-0.035,0.085-0.053,0.173-0.051,0.258
	c0,0.099,0.018,0.196,0.043,0.288l0.004,0.014c0.033,0.082,0.1,0.137,0.168,0.174c0.105,0.055,0.232,0.082,0.369,0.102
	c0.135,0.018,0.279,0.022,0.414,0.023c0.268-0.001,0.49-0.023,0.492-0.023h0.002l2.469-0.305l5.328,1.341l0.041,0.003l5.039-0.52
	c0.063-0.006,0.107-0.057,0.107-0.119v-0.762l0.371-0.168c0.043-0.021,0.07-0.063,0.07-0.11v-2.354l0.289-0.325
	c0.02-0.022,0.029-0.051,0.029-0.081v-0.76l10.342-33.373c0.877,0.822,1.555,1.832,1.863,3.083c0.006,0.028,0.023,0.052,0.045,0.069
	l0.516,0.366l1.994,29.36l-0.473,1.416l-0.006,0.043l0.24,6.16c0.002,0.057,0.043,0.104,0.098,0.113l2.021,0.387v0.169l-0.553-0.033
	c-0.051-0.003-0.1,0.028-0.119,0.075l-0.629,1.605c-0.857,0.379-1.459,1.257-1.459,2.279c0,0.684,0.268,1.303,0.701,1.752
	s1.035,0.729,1.699,0.729c0.025-0.002,0.137,0.016,0.273,0.041c0.207,0.039,0.49,0.098,0.766,0.148
	c0.277,0.049,0.537,0.09,0.721,0.09c0.664,0,1.266-0.279,1.697-0.728c0.436-0.45,0.703-1.069,0.703-1.753
	c0-0.133-0.014-0.262-0.033-0.389c0.174-0.232,0.391-0.47,0.629-0.655c0.25-0.196,0.521-0.331,0.777-0.356
	c0.059-0.006,0.107-0.057,0.107-0.119v-2.2c0-0.03-0.014-0.063-0.037-0.084c-0.021-0.022-0.051-0.036-0.084-0.036h-1.6v-0.442
	l2.936-0.398c0.059-0.009,0.102-0.054,0.104-0.11l0.4-6.161l-0.002-0.034l-0.236-1.022l2.23-29.79h0.209
	c0.057,0,0.107-0.043,0.117-0.099l0.004-0.016c0.033-0.17,0.379-1.71,1.805-3.29s3.932-3.209,8.322-3.557
	c0.063-0.005,0.111-0.057,0.111-0.119v-2.092c0.176-0.098,0.295-0.285,0.289-0.5c-0.002-0.074-0.02-0.146-0.049-0.209l9.725-0.359
	c0.063-0.002,0.115-0.055,0.115-0.12v-2.837l0.389-0.012c0.271-0.008,0.484-0.234,0.479-0.505c-0.004-0.085-0.029-0.163-0.068-0.229
	v-0.767c2.266-0.079,3.645-0.128,3.717-0.136c0.432-0.045,0.742-0.15,1.002-0.345c0.363-0.27,0.535-0.618,0.615-0.862
	c0.01-0.031,0.018-0.063,0.027-0.095c0.027-0.009,0.045-0.013,0.045-0.013l0.115,0.229v1.572c0,0.061,0.047,0.113,0.107,0.119
	c0,0,0.02,0.002,0.061,0.006c0.305,0.039,1.713,0.262,3.178,1.088c1.463,0.83,2.979,2.256,3.535,4.726l1.518,23.024v0.025
	c-0.002,0.064-0.01,0.234-0.039,0.389c-0.016,0.077-0.039,0.149-0.063,0.199c-0.025,0.051-0.051,0.068-0.055,0.069
	c-0.051,0.017-0.084,0.062-0.084,0.114v5.199c0,0.057,0.039,0.104,0.096,0.117l1.828,0.4v0.27l-0.402-0.023
	c-0.037-0.002-0.072,0.02-0.086,0.055l-0.455,1.162c-0.621,0.275-1.057,0.911-1.057,1.652c0,0.496,0.193,0.944,0.508,1.27
	s0.748,0.527,1.23,0.527c0.018-0.002,0.098,0.012,0.197,0.03c0.15,0.028,0.357,0.071,0.555,0.106
	c0.201,0.035,0.391,0.065,0.523,0.065c0.48,0,0.916-0.202,1.229-0.526c0.316-0.326,0.51-0.775,0.51-1.27
	c0-0.098-0.01-0.191-0.023-0.282c0.125-0.168,0.283-0.34,0.455-0.474c0.182-0.144,0.586-0.354,0.77-0.371
	c0.045-0.005,0.08-0.041,0.08-0.087v-1.594c0-0.022-0.01-0.046-0.025-0.062c-0.018-0.017-0.041-0.026-0.063-0.026l-1.367,0.113
	v-0.349l2.834-0.346c0.057-0.008,0.102-0.056,0.104-0.114l0.242-4.88l-0.01-0.05l0,0c-0.008-0.023-0.135-0.398-0.135-1.567
	c0-0.624,0.035-1.473,0.145-2.617c0.313-3.388,1.635-19.631,1.678-20.148v-0.002c0.041-0.135,0.436-1.355,1.518-2.535
	c1.084-1.181,2.848-2.325,5.662-2.326c0.047,0,0.094,0,0.139,0.001c0.033,0,0.064-0.012,0.088-0.034
	c0.021-0.022,0.035-0.053,0.035-0.085v-1.817l0.457-0.064c0.059-0.008,0.102-0.059,0.102-0.119v-0.805
	c1.307,0.072,2.52,0.109,3.611,0.109c2.684,0,3.771-0.219,3.887-0.243c0.268-0.06,0.436-0.323,0.377-0.588
	c-0.02-0.085-0.059-0.159-0.113-0.221v-0.991c0.283-0.002,0.568-0.004,0.854-0.004c0.305,0,0.551-0.246,0.551-0.551
	C167.438,104.687,167.422,104.612,167.393,104.544z M71.574,149.345l-0.697-0.116l0.697-2.251V149.345z M71.574,144.138
	l-1.535,4.952l-0.166-0.028v-27.519l1.701,0.157V144.138z M71.574,119.893l-1.701-0.157v-0.448l1.701,0.151V119.893z
	 M72.633,149.642l-0.34-0.057v-5.337l0.34-1.098V149.642z M72.633,141.122l-0.34,1.098v-20.574l0.34,0.03V141.122z M72.633,120.11
	l-0.34-0.031v-0.695l0.34,0.029V120.11z M78.215,150.445l-1.381-0.228v-20.217l1.381-4.455V150.445z M78.215,122.708l-1.381,4.455
	v-5.225h1.381V122.708z M78.215,120.139h-1.381v-0.545l1.381-0.062V120.139z M79.652,152.036c-0.189-0.103-0.41-0.25-0.598-0.447
	v-28.753l0.277-0.897h1.182c0.033,0,0.063-0.014,0.086-0.036c0.021-0.021,0.035-0.053,0.035-0.085v-1.559
	c0-0.033-0.014-0.063-0.035-0.086c-0.023-0.022-0.053-0.034-0.086-0.034h-1.459v-0.644l2.625-0.118
	c0.063-0.002,0.113-0.056,0.113-0.119v-2.747c1.756,0.206,5.449,0.861,8.004,2.785L79.652,152.036z"/>
<g>
	<polygon fill="#FFFFFF" points="76.744,83.899 37.256,83.894 37.256,85.268 76.744,85.427 	"/>
	<path fill="#FFFFFF" d="M166.887,104.524c-16.996,0-31.41,1.625-34.539,1.994c-0.125,0.015-0.211,0.014-0.211,0.25
		c0,0.084,0.127,0.975-1.111,1.051l-52.232,1.756v-7.555c0-0.001,0-0.001,0-0.001c0.898-0.01,6.875-0.132,8.961-1.642
		c2.459-1.779,3.141-4.84,3.141-7.159c0-1.974-0.363-4.101-0.768-5.644v-4.956h-2.879v4.958c0.404,1.543,0.766,3.668,0.766,5.642
		c0,2.319,0.221,4.479-2.939,7.021c-1.625,1.305-6.182,1.515-8.219,1.541h-0.998c-0.004,0-0.012,0-0.012,0l0.008,0.001
		c-0.063,0.001-0.123,0.026-0.168,0.069c-0.043,0.045-0.07,0.107-0.07,0.17v8.753l-59.598-4.435l-0.023-0.003v-7.813
		c0,0,2.533,0.14,5.361-0.32c3.6-0.583,5.039-2.695,5.758-4.74c1.201-4.283-0.879-7.02-0.879-7.02v-4.201h-1.881v4.201
		c0,0.025,0.01,0.053,0.025,0.073l0.01,0.013c0.107,0.146,1.895,2.988,1.072,6.299c-1.426,4.631-4.066,5.04-5.867,5.256
		c-1.799,0.215-5.416,0.148-5.443,0.176v8.301l64.158,4.774c0.002,0.009,0.002,0.017,0.006,0.026v3.305l-53.402-4.1
		c-0.133-0.011-0.248,0.09-0.258,0.221c-0.01,0.133,0.09,0.248,0.221,0.258l53.66,4.119c0.004,0,0.008-0.002,0.014-0.002
		c0.004,0.001,0.008,0.004,0.012,0.004l37.537-1.121c0.133-0.004,0.236-0.115,0.232-0.248s-0.115-0.236-0.246-0.232l-37.291,1.113
		v-3.336l48.02-1.402c0.1-0.004,0.178-0.086,0.174-0.186c-0.002-0.1-0.084-0.178-0.184-0.176l-48.01,1.403v-0.925
		c0,0,51.695-1.709,52.123-1.754c0.428-0.043,0.662-0.146,0.85-0.285c0.279-0.208,0.43-0.48,0.504-0.709
		c0.037-0.115,0.059-0.221,0.07-0.307c1.334-0.154,4.246-0.48,8.26-0.826c2.4,0.07,11.301,0.344,16.654,0.703
		c1.904,0.129,3.428,0.172,4.629,0.172c2.748,0,3.805-0.232,3.822-0.236c0.098-0.021,0.158-0.117,0.137-0.215
		c-0.021-0.096-0.117-0.158-0.215-0.137l-0.01,0.002c-0.111,0.023-1.178,0.227-3.734,0.227c-1.191,0-2.709-0.045-4.604-0.172
		c-3.904-0.264-9.68-0.479-13.463-0.604c6.246-0.475,14.354-0.91,23.07-0.91c0.133,0,0.24-0.107,0.24-0.24
		S167.02,104.524,166.887,104.524z"/>
	<polygon fill="#FFFFFF" points="16.307,104.737 16.764,104.771 16.766,104.771 75.303,108.527 75.303,108.095 16.793,104.34 
		16.795,104.341 16.307,104.304 	"/>
	<polygon fill="#FFFFFF" points="75.303,103.997 27.648,101.337 19.115,101.579 19.115,103.259 73.693,106.798 75.303,106.658 	"/>
	<path fill="#FFFFFF" d="M101.094,30.468c0.361-0.141,0.768,0.018,0.973,0.356c0.008,0.013,0.049,0.093,0.049,0.093
		c0.008,0.016,0.031,0.079,0.037,0.096l0.172,0.447c0.07-0.147,0.109-0.309,0.109-0.473c0-0.127-0.023-0.256-0.07-0.381
		c-0.164-0.442-0.59-0.714-1.045-0.714c-0.137,0-0.273,0.024-0.41,0.075c-0.461,0.172-0.744,0.604-0.744,1.057
		c0,0.127,0.021,0.256,0.07,0.381c0.105,0.285,0.32,0.498,0.584,0.613l-0.154-0.467c-0.002-0.005-0.006-0.009-0.008-0.014
		c-0.006-0.018-0.01-0.035-0.014-0.053l-0.012-0.03l-0.014-0.058C100.525,30.979,100.727,30.611,101.094,30.468z"/>
	<path fill="#FFFFFF" d="M86.195,65.866c-0.299,0.395-1.496,2.02-2.697,4.208c-1.383,2.521-2.771,5.784-2.773,8.789
		c0,1.151,0.209,2.265,0.703,3.28c-0.107,0.168-0.336,0.558-0.494,1.071c-0.029,0.095,0.025,0.196,0.121,0.224
		c0.096,0.029,0.195-0.023,0.223-0.119c0.096-0.313,0.223-0.578,0.326-0.766c0.051-0.094,0.096-0.167,0.127-0.217
		c0.016-0.025,0.029-0.043,0.037-0.056l0.01-0.015l0.002-0.003c0.039-0.056,0.045-0.126,0.014-0.187
		c-0.498-0.98-0.709-2.068-0.709-3.214c-0.002-2.894,1.361-6.122,2.73-8.616c0.684-1.248,1.369-2.313,1.883-3.064
		c0.256-0.377,0.471-0.674,0.619-0.878c0.074-0.102,0.133-0.181,0.174-0.232c0.039-0.053,0.061-0.079,0.061-0.079
		c0.002-0.004,0.002-0.008,0.004-0.011l0.635,0.866c0.031,0.041,0.031,0.096,0.002,0.137c-4.25,6.313-5.205,10.29-5.205,12.582
		c0,1.875,0.635,2.628,0.639,2.633v0.002c0.021,0.023,0.031,0.057,0.027,0.09c-0.004,0.032-0.021,0.063-0.047,0.082
		c-0.023,0.017-0.066,0.068-0.107,0.139c-0.043,0.07-0.09,0.16-0.131,0.255c-0.084,0.187-0.16,0.394-0.207,0.53h4.775v-0.679
		c0-0.172,0.141-0.312,0.313-0.312h2.879c0.012,0,27.264,0.154,27.264,0.154L100.92,32.335c-0.416-0.111-0.773-0.406-0.936-0.836
		c-0.059-0.156-0.086-0.316-0.086-0.475c0-0.563,0.352-1.093,0.916-1.306c0.166-0.062,0.336-0.091,0.504-0.091
		c0.561,0,1.088,0.334,1.293,0.885c0.059,0.155,0.086,0.315,0.086,0.475c0,0.283-0.09,0.559-0.252,0.791l19.516,50.71l11.713,0.064
		c2.326-0.943,4.57-2.065,6.713-3.317c6.51-3.801,12.086-8.789,16.219-13.496c2.756-3.137,4.871-6.15,6.189-8.588
		c0.754-1.392,1.246-2.598,1.453-3.503c0.113-0.497,0.166-0.956,0.166-1.378c-0.002-1.022-0.299-1.841-0.813-2.548
		c-0.514-0.704-1.258-1.294-2.156-1.781c-1.793-0.979-4.178-1.531-6.332-1.888c-0.207-0.035-0.645-0.117-1.248-0.236
		c-0.604-0.117-1.369-0.271-2.221-0.445c-1.701-0.35-3.74-0.784-5.492-1.193c-1.168-0.275-2.207-0.536-2.941-0.758
		c-6.523-1.961-11.121-4.031-14.338-6.125c-3.215-2.09-5.055-4.212-6.01-6.266c-0.635-1.366-0.871-2.695-0.871-3.933
		c0-1.312,0.264-2.517,0.582-3.578c0.258-0.858,0.367-1.597,0.367-2.226c0-0.619-0.104-1.135-0.277-1.576
		c-0.172-0.441-0.416-0.809-0.709-1.127c-0.586-0.634-1.381-1.063-2.16-1.365c-0.521-0.203-1.027-0.35-1.455-0.474
		c-0.402-0.118-1.051-0.237-1.795-0.341c-0.746-0.104-1.596-0.197-2.43-0.276c-1.668-0.157-3.277-0.261-3.908-0.3
		c-0.018-0.002-0.029-0.002-0.047-0.003L67.18,65.284c2.1-0.096,4.086-0.137,5.924-0.137C80.135,65.147,85.051,65.72,86.195,65.866z
		"/>
	<path fill="#FFFFFF" d="M86.936,87.228v-0.433l-60.342-0.382c0.064,0.1,0.154,0.244,0.256,0.434L86.936,87.228z"/>
</g>
</svg>
