<?xml version="1.0" encoding="utf-8"?>
<!-- Generator: Adobe Illustrator 16.0.0, SVG Export Plug-In . SVG Version: 6.00 Build 0)  -->
<!DOCTYPE svg PUBLIC "-//W3C//DTD SVG 1.1//EN" "http://www.w3.org/Graphics/SVG/1.1/DTD/svg11.dtd">
<svg version="1.1" id="Layer_1" xmlns="http://www.w3.org/2000/svg" xmlns:xlink="http://www.w3.org/1999/xlink" x="0px" y="0px"
	 width="189.92px" height="189.92px" viewBox="0 0 189.92 189.92" enable-background="new 0 0 189.92 189.92" xml:space="preserve">
<g>
	<path fill="#FFFFFF" d="M95.375,64.132c0.074,0.137,0.104,0.289,0.097,0.439c-0.257-0.514-0.792-1.665-1.325-3.291
		C94.788,63.072,95.368,64.12,95.375,64.132z"/>
	<path fill-rule="evenodd" clip-rule="evenodd" fill="#010101" d="M12.864,62.352l164.058-0.944c1.582-0.01,2.884,1.4,2.892,3.133
		l0.257,55.403c0.007,1.734-1.28,3.158-2.862,3.168l-164.06,0.945c-1.582,0.01-2.882-1.402-2.89-3.136L10.003,65.52
		C9.995,63.788,11.282,62.361,12.864,62.352z"/>
	<path fill-rule="evenodd" clip-rule="evenodd" fill="#010101" d="M12.872,63.933l164.059-0.947
		c1.581-0.007,2.881,1.428,2.892,3.198l0.26,56.427c0.008,1.765-1.28,3.219-2.861,3.227l-164.059,0.947
		c-1.581,0.009-2.882-1.428-2.891-3.197l-0.26-56.427C10.002,65.395,11.289,63.943,12.872,63.933z"/>
	<path fill-rule="evenodd" clip-rule="evenodd" fill="#FFFFFF" d="M172.382,66.605c1.714,1.204,2.231,3.667,1.158,5.502
		c-1.071,1.838-3.328,2.346-5.041,1.143c-1.712-1.205-2.231-3.666-1.159-5.502C168.413,65.912,170.669,65.4,172.382,66.605z"/>
	<path fill-rule="evenodd" clip-rule="evenodd" fill="#FFFFFF" d="M172.062,67.15c1.434,1.01,1.865,3.065,0.97,4.601
		c-0.896,1.534-2.783,1.96-4.215,0.953c-1.433-1.006-1.865-3.065-0.968-4.598C168.745,66.571,170.633,66.143,172.062,67.15z"/>
	<path fill-rule="evenodd" clip-rule="evenodd" fill="#010101" d="M171.765,67.663c1.167,0.821,1.52,2.5,0.789,3.752
		c-0.731,1.251-2.269,1.598-3.436,0.777c-1.168-0.821-1.522-2.5-0.792-3.75C169.058,67.189,170.597,66.842,171.765,67.663z"/>
	<path fill-rule="evenodd" clip-rule="evenodd" fill="#FFFFFF" d="M173.369,72.379c-0.047,0.096-0.099,0.192-0.152,0.286
		c-1.072,1.834-3.33,2.347-5.043,1.142c-1.713-1.203-2.231-3.67-1.158-5.502c0.055-0.095,0.111-0.187,0.173-0.272
		c-0.864,1.799-0.315,4.074,1.311,5.218C170.124,74.393,172.24,73.992,173.369,72.379z"/>
	<polygon fill-rule="evenodd" clip-rule="evenodd" fill="#010101" points="175.068,125.85 15.313,126.771 15.085,77.25 
		174.84,76.329 	"/>
	<polygon fill-rule="evenodd" clip-rule="evenodd" fill="#FFFFFF" points="175.068,128.427 15.325,129.349 15.096,79.688 
		174.84,78.768 	"/>
	<polygon fill-rule="evenodd" clip-rule="evenodd" fill="#010101" points="20.75,79.656 26.108,79.625 26.257,111.931 
		20.901,111.96 	"/>
	<polygon fill-rule="evenodd" clip-rule="evenodd" fill="#010101" points="73.422,79.352 78.778,79.321 78.927,111.624 
		73.57,111.656 	"/>
	<polygon fill-rule="evenodd" clip-rule="evenodd" fill="#010101" points="126.567,79.045 131.927,79.013 132.076,111.319 
		126.718,111.349 	"/>
	<polygon fill-rule="evenodd" clip-rule="evenodd" fill="#010101" points="43.383,79.526 48.74,79.496 48.889,111.797 
		43.532,111.829 	"/>
	<polygon fill-rule="evenodd" clip-rule="evenodd" fill="#010101" points="96.053,79.222 101.41,79.19 101.559,111.495 
		96.202,111.525 	"/>
	<polygon fill-rule="evenodd" clip-rule="evenodd" fill="#010101" points="149.198,78.916 154.557,78.885 154.706,111.188 
		149.35,111.219 	"/>
	<polygon fill-rule="evenodd" clip-rule="evenodd" fill="#010101" points="28.242,79.614 33.6,79.582 33.749,111.885 
		28.391,111.917 	"/>
	<polygon fill-rule="evenodd" clip-rule="evenodd" fill="#010101" points="80.913,79.31 86.269,79.278 86.417,111.583 
		81.062,111.614 	"/>
	<polygon fill-rule="evenodd" clip-rule="evenodd" fill="#010101" points="134.061,79.003 139.416,78.973 139.566,111.276 
		134.208,111.307 	"/>
	<polygon fill-rule="evenodd" clip-rule="evenodd" fill="#010101" points="50.873,79.481 56.231,79.452 56.38,111.755 
		51.023,111.786 	"/>
	<polygon fill-rule="evenodd" clip-rule="evenodd" fill="#010101" points="103.544,79.178 108.901,79.147 109.049,111.451 
		103.694,111.482 	"/>
	<polygon fill-rule="evenodd" clip-rule="evenodd" fill="#010101" points="156.69,78.873 162.048,78.842 162.199,111.146 
		156.839,111.176 	"/>
	<polygon fill-rule="evenodd" clip-rule="evenodd" fill="#010101" points="58.612,79.438 63.97,79.408 64.118,111.712 
		58.76,111.741 	"/>
	<polygon fill-rule="evenodd" clip-rule="evenodd" fill="#010101" points="111.281,79.133 116.64,79.104 116.789,111.408 
		111.431,111.438 	"/>
	<polygon fill-rule="evenodd" clip-rule="evenodd" fill="#010101" points="164.43,78.827 169.787,78.797 169.935,111.101 
		164.578,111.133 	"/>
	<path fill="#010101" d="M167.533,78.809l0.229,49.662l-0.572,0.004l-0.229-49.662L167.533,78.809L167.533,78.809z M160.172,128.515
		l-0.231-49.66l-0.57,0.003l0.229,49.66L160.172,128.515L160.172,128.515z M152.578,128.559l-0.229-49.661l-0.572,0.002
		l0.229,49.662L152.578,128.559L152.578,128.559z M144.986,128.602l-0.23-49.659l-0.573,0.001l0.232,49.661L144.986,128.602
		L144.986,128.602z M137.393,128.645l-0.571,0.006l-0.229-49.661l0.572-0.004L137.393,128.645L137.393,128.645z M129.801,128.689
		l-0.571,0.004l-0.229-49.662l0.572-0.003L129.801,128.689L129.801,128.689z M122.21,128.733l-0.574,0.002l-0.229-49.659
		l0.573-0.003L122.21,128.733L122.21,128.733z M114.618,128.777l-0.231-49.661l-0.572,0.002l0.23,49.662L114.618,128.777
		L114.618,128.777z M107.024,128.821l-0.23-49.662l-0.572,0.003l0.23,49.661L107.024,128.821L107.024,128.821z M99.433,128.864
		l-0.229-49.66l-0.573,0.003l0.229,49.662L99.433,128.864L99.433,128.864z M91.84,128.908l-0.572,0.004l-0.23-49.663h0.571
		L91.84,128.908L91.84,128.908z M84.248,128.952l-0.573,0.003l-0.23-49.66l0.573-0.003L84.248,128.952L84.248,128.952z
		 M76.655,128.996L76.083,129l-0.23-49.662l0.572-0.002L76.655,128.996L76.655,128.996z M69.063,129.04l-0.23-49.66l-0.572,0.003
		l0.229,49.659L69.063,129.04L69.063,129.04z M61.47,129.084l-0.228-49.662l-0.574,0.005l0.229,49.661L61.47,129.084L61.47,129.084z
		 M53.878,129.128l-0.23-49.66l-0.573,0.001l0.229,49.661L53.878,129.128L53.878,129.128z M46.285,129.17l-0.573,0.006
		l-0.229-49.664l0.573-0.003L46.285,129.17L46.285,129.17z M38.693,129.216l-0.572,0.002l-0.229-49.663h0.572L38.693,129.216
		L38.693,129.216z M31.1,129.259l-0.572,0.003l-0.229-49.659l0.572-0.006L31.1,129.259L31.1,129.259z M23.509,129.303l-0.23-49.661
		l-0.573,0.004l0.23,49.659L23.509,129.303z"/>
	<path fill="#010101" d="M167.991,78.806l0.229,49.662l-0.573,0.004l-0.228-49.66L167.991,78.806L167.991,78.806z M160.629,128.513
		l-0.23-49.661l-0.571,0.003l0.229,49.66L160.629,128.513L160.629,128.513z M153.036,128.557l-0.229-49.66l-0.574,0.002l0.23,49.661
		L153.036,128.557L153.036,128.557z M145.444,128.6l-0.229-49.662l-0.572,0.004l0.229,49.66L145.444,128.6L145.444,128.6z
		 M137.852,128.644l-0.573,0.002l-0.229-49.659l0.573-0.007L137.852,128.644L137.852,128.644z M130.26,128.687l-0.572,0.003
		l-0.231-49.659l0.574-0.004L130.26,128.687L130.26,128.687z M122.668,128.731l-0.572,0.001l-0.231-49.659l0.573-0.004
		L122.668,128.731L122.668,128.731z M115.073,128.774l-0.229-49.661l-0.572,0.003l0.23,49.661L115.073,128.774L115.073,128.774z
		 M107.483,128.816l-0.23-49.658l-0.572,0.003l0.229,49.66L107.483,128.816L107.483,128.816z M99.889,128.862l-0.229-49.661
		l-0.571,0.004l0.229,49.659L99.889,128.862L99.889,128.862z M92.298,128.903l-0.572,0.008l-0.231-49.662l0.574-0.003
		L92.298,128.903L92.298,128.903z M84.705,128.95l-0.571,0.002l-0.23-49.662l0.573-0.001L84.705,128.95L84.705,128.95z
		 M77.113,128.994l-0.572,0.002l-0.229-49.658l0.572-0.005L77.113,128.994L77.113,128.994z M69.52,129.036l-0.23-49.661
		l-0.571,0.006l0.229,49.658L69.52,129.036L69.52,129.036z M61.928,129.082l-0.229-49.663l-0.572,0.004l0.229,49.662L61.928,129.082
		L61.928,129.082z M54.335,129.125l-0.23-49.662l-0.571,0.004l0.23,49.662L54.335,129.125L54.335,129.125z M46.742,129.169
		l-0.572,0.004l-0.228-49.662l0.571-0.001L46.742,129.169L46.742,129.169z M39.151,129.212l-0.572,0.004l-0.23-49.662l0.572-0.003
		L39.151,129.212L39.151,129.212z M31.558,129.256l-0.572,0.003l-0.229-49.66l0.572-0.004L31.558,129.256L31.558,129.256z
		 M23.967,129.3l-0.23-49.661l-0.573,0.005l0.231,49.658L23.967,129.3z"/>
	<polygon fill-rule="evenodd" clip-rule="evenodd" fill="#010101" points="20.75,79.656 25.512,79.628 25.656,110.471 
		20.893,110.498 	"/>
	<polygon fill-rule="evenodd" clip-rule="evenodd" fill="#010101" points="73.422,79.352 78.183,79.324 78.327,110.165 
		73.565,110.194 	"/>
	<polygon fill-rule="evenodd" clip-rule="evenodd" fill="#010101" points="126.567,79.045 131.329,79.019 131.473,109.86 
		126.71,109.887 	"/>
	<polygon fill-rule="evenodd" clip-rule="evenodd" fill="#010101" points="43.383,79.526 48.145,79.497 48.287,110.338 
		43.526,110.366 	"/>
	<polygon fill-rule="evenodd" clip-rule="evenodd" fill="#010101" points="96.053,79.222 100.814,79.194 100.957,110.034 
		96.197,110.063 	"/>
	<polygon fill-rule="evenodd" clip-rule="evenodd" fill="#010101" points="149.198,78.916 153.962,78.889 154.105,109.727 
		149.343,109.756 	"/>
	
		<rect x="21.517" y="78.863" transform="matrix(-1 0.0055 -0.0055 -1 46.8527 187.4906)" fill-rule="evenodd" clip-rule="evenodd" fill="#010101" width="3.306" height="29.892"/>
	<polygon fill-rule="evenodd" clip-rule="evenodd" fill="#010101" points="74.118,78.567 77.425,78.549 77.563,108.443 
		74.256,108.463 	"/>
	<polygon fill-rule="evenodd" clip-rule="evenodd" fill="#010101" points="127.265,78.262 130.571,78.243 130.711,108.136 
		127.402,108.155 	"/>
	<polygon fill-rule="evenodd" clip-rule="evenodd" fill="#010101" points="44.079,78.743 47.386,78.722 47.524,108.617 
		44.217,108.634 	"/>
	<polygon fill-rule="evenodd" clip-rule="evenodd" fill="#010101" points="96.75,78.439 100.057,78.418 100.194,108.312 
		96.888,108.33 	"/>
	<polygon fill-rule="evenodd" clip-rule="evenodd" fill="#010101" points="149.896,78.131 153.204,78.113 153.341,108.005 
		150.034,108.024 	"/>
	<rect x="21.517" y="78.872" fill-rule="evenodd" clip-rule="evenodd" fill="#010101" width="0.316" height="29.893"/>
	<rect x="74.188" y="78.567" fill-rule="evenodd" clip-rule="evenodd" fill="#010101" width="0.314" height="29.893"/>
	<rect x="127.333" y="78.26" fill-rule="evenodd" clip-rule="evenodd" fill="#010101" width="0.315" height="29.894"/>
	<rect x="44.148" y="78.742" fill-rule="evenodd" clip-rule="evenodd" fill="#010101" width="0.314" height="29.893"/>
	<rect x="96.818" y="78.438" fill-rule="evenodd" clip-rule="evenodd" fill="#010101" width="0.314" height="29.893"/>
	<rect x="149.965" y="78.131" fill-rule="evenodd" clip-rule="evenodd" fill="#010101" width="0.316" height="29.891"/>
	<rect x="24.787" y="78.852" fill-rule="evenodd" clip-rule="evenodd" fill="#010101" width="0.315" height="29.894"/>
	<rect x="77.457" y="78.548" fill-rule="evenodd" clip-rule="evenodd" fill="#010101" width="0.316" height="29.893"/>
	<rect x="130.603" y="78.242" fill-rule="evenodd" clip-rule="evenodd" fill="#010101" width="0.317" height="29.892"/>
	<rect x="47.647" y="78.72" fill-rule="evenodd" clip-rule="evenodd" fill="#010101" width="0.315" height="29.893"/>
	<rect x="100.32" y="78.418" fill-rule="evenodd" clip-rule="evenodd" fill="#010101" width="0.313" height="29.89"/>
	<rect x="153.465" y="78.111" fill-rule="evenodd" clip-rule="evenodd" fill="#010101" width="0.315" height="29.893"/>
	<polygon fill-rule="evenodd" clip-rule="evenodd" fill="#010101" points="28.242,79.614 33.004,79.586 33.147,110.426 
		28.385,110.454 	"/>
	<polygon fill-rule="evenodd" clip-rule="evenodd" fill="#010101" points="80.913,79.31 85.673,79.282 85.817,110.122 
		81.055,110.151 	"/>
	<polygon fill-rule="evenodd" clip-rule="evenodd" fill="#010101" points="134.061,79.003 138.821,78.976 138.963,109.815 
		134.202,109.844 	"/>
	<polygon fill-rule="evenodd" clip-rule="evenodd" fill="#010101" points="50.873,79.481 55.636,79.455 55.778,110.297 
		51.017,110.323 	"/>
	<polygon fill-rule="evenodd" clip-rule="evenodd" fill="#010101" points="103.544,79.178 108.306,79.151 108.448,109.993 
		103.688,110.021 	"/>
	<polygon fill-rule="evenodd" clip-rule="evenodd" fill="#010101" points="156.69,78.873 161.452,78.845 161.596,109.685 
		156.832,109.713 	"/>
	<polygon fill-rule="evenodd" clip-rule="evenodd" fill="#010101" points="58.612,79.438 63.374,79.411 63.516,110.252 
		58.755,110.279 	"/>
	<polygon fill-rule="evenodd" clip-rule="evenodd" fill="#010101" points="111.281,79.133 116.044,79.107 116.186,109.948 
		111.424,109.975 	"/>
	<polygon fill-rule="evenodd" clip-rule="evenodd" fill="#010101" points="164.43,78.827 169.19,78.8 169.334,109.641 
		164.571,109.67 	"/>
	<polygon fill-rule="evenodd" clip-rule="evenodd" fill="#010101" points="28.939,78.83 32.246,78.812 32.383,108.702 
		29.076,108.724 	"/>
	<polygon fill-rule="evenodd" clip-rule="evenodd" fill="#010101" points="81.608,78.524 84.916,78.506 85.053,108.398 
		81.746,108.42 	"/>
	<polygon fill-rule="evenodd" clip-rule="evenodd" fill="#010101" points="134.755,78.219 138.062,78.198 138.199,108.092 
		134.895,108.111 	"/>
	<polygon fill-rule="evenodd" clip-rule="evenodd" fill="#010101" points="51.57,78.697 54.876,78.679 55.015,108.573 
		51.709,108.593 	"/>
	<polygon fill-rule="evenodd" clip-rule="evenodd" fill="#010101" points="104.24,78.395 107.547,78.375 107.687,108.27 
		104.378,108.287 	"/>
	
		<rect x="157.457" y="78.079" transform="matrix(-1 0.0055 -0.0055 -1 318.7249 185.1801)" fill-rule="evenodd" clip-rule="evenodd" fill="#010101" width="3.305" height="29.893"/>
	<polygon fill-rule="evenodd" clip-rule="evenodd" fill="#010101" points="59.309,78.654 62.615,78.634 62.753,108.528 
		59.446,108.547 	"/>
	<polygon fill-rule="evenodd" clip-rule="evenodd" fill="#010101" points="111.979,78.35 115.285,78.332 115.424,108.225 
		112.117,108.244 	"/>
	<polygon fill-rule="evenodd" clip-rule="evenodd" fill="#010101" points="165.125,78.045 168.432,78.024 168.569,107.917 
		165.263,107.938 	"/>
	<rect x="29.008" y="78.828" fill-rule="evenodd" clip-rule="evenodd" fill="#010101" width="0.315" height="29.892"/>
	<rect x="81.678" y="78.524" fill-rule="evenodd" clip-rule="evenodd" fill="#010101" width="0.315" height="29.892"/>
	<rect x="134.824" y="78.218" fill-rule="evenodd" clip-rule="evenodd" fill="#010101" width="0.315" height="29.892"/>
	<rect x="51.639" y="78.696" fill-rule="evenodd" clip-rule="evenodd" fill="#010101" width="0.316" height="29.894"/>
	<rect x="104.31" y="78.394" fill-rule="evenodd" clip-rule="evenodd" fill="#010101" width="0.314" height="29.893"/>
	<rect x="157.457" y="78.087" fill-rule="evenodd" clip-rule="evenodd" fill="#010101" width="0.314" height="29.893"/>
	<rect x="59.377" y="78.653" fill-rule="evenodd" clip-rule="evenodd" fill="#010101" width="0.315" height="29.892"/>
	<rect x="112.047" y="78.348" fill-rule="evenodd" clip-rule="evenodd" fill="#010101" width="0.315" height="29.894"/>
	<rect x="165.194" y="78.043" fill-rule="evenodd" clip-rule="evenodd" fill="#010101" width="0.314" height="29.894"/>
	<rect x="32.277" y="78.809" fill-rule="evenodd" clip-rule="evenodd" fill="#010101" width="0.316" height="29.893"/>
	<rect x="84.947" y="78.505" fill-rule="evenodd" clip-rule="evenodd" fill="#010101" width="0.316" height="29.894"/>
	<rect x="138.096" y="78.2" fill-rule="evenodd" clip-rule="evenodd" fill="#010101" width="0.314" height="29.891"/>
	<rect x="54.909" y="78.678" fill-rule="evenodd" clip-rule="evenodd" fill="#010101" width="0.316" height="29.894"/>
	<rect x="107.578" y="78.374" fill-rule="evenodd" clip-rule="evenodd" fill="#010101" width="0.318" height="29.893"/>
	<rect x="160.724" y="78.069" fill-rule="evenodd" clip-rule="evenodd" fill="#010101" width="0.317" height="29.894"/>
	<rect x="62.648" y="78.634" fill-rule="evenodd" clip-rule="evenodd" fill="#010101" width="0.316" height="29.892"/>
	<rect x="115.318" y="78.33" fill-rule="evenodd" clip-rule="evenodd" fill="#010101" width="0.315" height="29.895"/>
	<rect x="168.463" y="78.024" fill-rule="evenodd" clip-rule="evenodd" fill="#010101" width="0.317" height="29.894"/>
	<polygon fill-rule="evenodd" clip-rule="evenodd" fill="#010101" points="175.068,128.427 15.325,129.349 15.316,127.041 
		175.058,126.12 	"/>
	<path fill-rule="evenodd" clip-rule="evenodd" fill="#010101" d="M167.762,128.471l-0.572,0.004l-0.009-2.309l0.57-0.003
		L167.762,128.471L167.762,128.471z M160.172,128.515l-0.573,0.003l-0.012-2.308l0.573-0.005L160.172,128.515L160.172,128.515z
		 M152.578,128.559l-0.573,0.004l-0.01-2.311l0.573-0.003L152.578,128.559L152.578,128.559z M144.986,128.602l-0.571,0.003
		l-0.012-2.308l0.573-0.001L144.986,128.602L144.986,128.602z M137.393,128.645l-0.571,0.006l-0.009-2.311l0.571-0.003
		L137.393,128.645L137.393,128.645z M129.801,128.689l-0.571,0.004l-0.01-2.311l0.57-0.001L129.801,128.689L129.801,128.689z
		 M122.21,128.733l-0.574,0.002l-0.009-2.307l0.573-0.004L122.21,128.733L122.21,128.733z M114.618,128.777l-0.573,0.004
		l-0.011-2.311l0.572-0.004L114.618,128.777L114.618,128.777z M107.024,128.821l-0.572,0.002l-0.012-2.307l0.572-0.005
		L107.024,128.821L107.024,128.821z M99.433,128.864l-0.574,0.005l-0.011-2.311l0.573-0.004L99.433,128.864L99.433,128.864z
		 M91.84,128.908l-0.572,0.004l-0.012-2.309l0.573-0.003L91.84,128.908L91.84,128.908z M84.248,128.952l-0.573,0.003l-0.009-2.31
		h0.571L84.248,128.952L84.248,128.952z M76.655,128.996L76.083,129l-0.011-2.309l0.572-0.005L76.655,128.996L76.655,128.996z
		 M69.063,129.04l-0.573,0.002l-0.01-2.308l0.572-0.003L69.063,129.04L69.063,129.04z M61.47,129.084l-0.572,0.004l-0.01-2.309
		l0.573-0.005L61.47,129.084L61.47,129.084z M53.878,129.128l-0.573,0.002l-0.01-2.307l0.571-0.003L53.878,129.128L53.878,129.128z
		 M46.285,129.17l-0.573,0.006l-0.009-2.31l0.572-0.005L46.285,129.17L46.285,129.17z M38.693,129.216l-0.572,0.002l-0.01-2.308
		l0.572-0.003L38.693,129.216L38.693,129.216z M31.1,129.259l-0.572,0.003l-0.01-2.309l0.572-0.003L31.1,129.259L31.1,129.259z
		 M23.509,129.303l-0.572,0.002l-0.011-2.306l0.572-0.004L23.509,129.303z"/>
	<path fill-rule="evenodd" clip-rule="evenodd" fill="#FFFFFF" d="M12.872,63.933l164.059-0.947
		c1.581-0.007,2.881,1.428,2.892,3.198l0.003,1.064c-0.009-1.77-1.31-3.204-2.892-3.198L12.876,64.998
		c-1.582,0.008-2.869,1.462-2.861,3.227l-0.004-1.064C10.002,65.395,11.289,63.943,12.872,63.933z"/>
	
		<ellipse transform="matrix(-0.0043 -1 1 -0.0043 -51.5525 89.7676)" fill-rule="evenodd" clip-rule="evenodd" fill="#FFFFFF" cx="18.914" cy="70.549" rx="2.653" ry="2.455"/>
	<path fill-rule="evenodd" clip-rule="evenodd" fill="#FFFFFF" d="M18.905,68.333c1.133-0.008,2.056,0.979,2.061,2.204
		c0.004,1.223-0.91,2.221-2.042,2.227c-1.135,0.007-2.057-0.982-2.062-2.206C16.856,69.334,17.771,68.336,18.905,68.333z"/>
	<path fill-rule="evenodd" clip-rule="evenodd" fill="#FFFFFF" d="M18.905,68.74c0.925-0.005,1.678,0.8,1.683,1.799
		c0.003,1-0.742,1.814-1.667,1.815c-0.925,0.007-1.678-0.798-1.681-1.797C17.237,69.56,17.982,68.744,18.905,68.74z"/>
	<path fill-rule="evenodd" clip-rule="evenodd" fill="#010101" d="M21.362,70.758c0.007,0.072,0.01,0.147,0.009,0.222
		c0.006,1.467-1.088,2.657-2.445,2.664c-1.356,0.005-2.46-1.173-2.466-2.639c0.001-0.072,0.003-0.149,0.007-0.22
		c0.11,1.358,1.169,2.423,2.458,2.417C20.212,73.193,21.262,72.119,21.362,70.758z"/>
	
		<ellipse transform="matrix(-0.0044 -1 1 -0.0044 -42.3515 99.2793)" fill-rule="evenodd" clip-rule="evenodd" fill="#FFFFFF" cx="28.247" cy="70.723" rx="2.454" ry="2.197"/>
	
		<ellipse transform="matrix(-0.0039 -1 1 -0.0039 -42.365 99.2484)" fill-rule="evenodd" clip-rule="evenodd" fill="#FFFFFF" cx="28.247" cy="70.724" rx="1.74" ry="1.558"/>
	
		<ellipse transform="matrix(-0.0043 -1 1 -0.0043 -33.6349 107.8666)" fill-rule="evenodd" clip-rule="evenodd" fill="#FFFFFF" cx="36.885" cy="70.679" rx="2.453" ry="2.197"/>
	
		<ellipse transform="matrix(-0.0038 -1 1 -0.0038 -33.6527 107.8325)" fill-rule="evenodd" clip-rule="evenodd" fill="#FFFFFF" cx="36.886" cy="70.679" rx="1.74" ry="1.557"/>
</g>
</svg>
