<?xml version="1.0" encoding="utf-8"?>
<!-- Generator: Adobe Illustrator 15.0.0, SVG Export Plug-In . SVG Version: 6.00 Build 0)  -->
<!DOCTYPE svg PUBLIC "-//W3C//DTD SVG 1.1//EN" "http://www.w3.org/Graphics/SVG/1.1/DTD/svg11.dtd">
<svg version="1.1" id="Ebene_1" xmlns="http://www.w3.org/2000/svg" xmlns:xlink="http://www.w3.org/1999/xlink" x="0px" y="0px"
	 width="190px" height="190px" viewBox="0 0 190 190" enable-background="new 0 0 190 190" xml:space="preserve">
<g id="Orientierungskreise" display="none">
	<g id="Weißer_Kreis_x5F_Violin_9_" display="inline">
		<g>
			<path fill="#4D4D4F" d="M-1122.268,9.917c47.365,0,85.898,38.534,85.898,85.899s-38.534,85.897-85.898,85.897
				c-47.365,0-85.899-38.534-85.899-85.897C-1208.167,48.451-1169.633,9.917-1122.268,9.917 M-1122.268,9.69
				c-47.566,0-86.126,38.559-86.126,86.126c0,47.564,38.56,86.125,86.126,86.125s86.125-38.561,86.125-86.125
				C-1036.143,48.249-1074.702,9.69-1122.268,9.69L-1122.268,9.69z"/>
		</g>
	</g>
	<g id="Weißer_Kreis_x5F_Violin_10_" display="inline">
		<g>
			<path fill="#4D4D4F" d="M-1122.268,12.492c45.944,0,83.322,37.378,83.322,83.322s-37.378,83.322-83.322,83.322
				c-45.945,0-83.323-37.378-83.323-83.322C-1205.591,49.871-1168.212,12.492-1122.268,12.492 M-1122.268,12.272
				c-46.139,0-83.543,37.402-83.543,83.542c0,46.14,37.404,83.543,83.543,83.543c46.139,0,83.542-37.403,83.542-83.543
				S-1076.128,12.272-1122.268,12.272L-1122.268,12.272z"/>
		</g>
	</g>
	<g id="Weißer_Kreis_x5F_Violin_2_" display="inline">
		<g>
			<path fill="#4D4D4F" d="M-1122.268,232.007c47.365,0,85.898,38.534,85.898,85.899s-38.534,85.898-85.898,85.898
				c-47.365,0-85.899-38.535-85.899-85.898C-1208.167,270.542-1169.633,232.007-1122.268,232.007 M-1122.268,231.781
				c-47.566,0-86.126,38.559-86.126,86.125s38.56,86.125,86.126,86.125s86.125-38.559,86.125-86.125
				C-1036.143,270.339-1074.702,231.781-1122.268,231.781L-1122.268,231.781z"/>
		</g>
	</g>
	<g id="Weißer_Kreis_x5F_Violin_1_" display="inline">
		<g>
			<path fill="#4D4D4F" d="M-1122.268,234.583c45.944,0,83.322,37.378,83.322,83.323c0,45.943-37.378,83.322-83.322,83.322
				c-45.945,0-83.323-37.379-83.323-83.322C-1205.591,271.961-1168.212,234.583-1122.268,234.583 M-1122.268,234.363
				c-46.139,0-83.543,37.402-83.543,83.543c0,46.139,37.404,83.541,83.543,83.541c46.139,0,83.542-37.402,83.542-83.541
				C-1038.726,271.766-1076.128,234.363-1122.268,234.363L-1122.268,234.363z"/>
		</g>
	</g>
	<g id="Weißer_Kreis_x5F_Violin_6_" display="inline">
		<g>
			<path fill="#4D4D4F" d="M-1122.268,676.191c47.365,0,85.898,38.535,85.898,85.9c0,47.363-38.534,85.896-85.898,85.896
				c-47.365,0-85.899-38.533-85.899-85.896C-1208.167,714.727-1169.633,676.191-1122.268,676.191 M-1122.268,675.967
				c-47.566,0-86.126,38.559-86.126,86.125c0,47.564,38.56,86.125,86.126,86.125s86.125-38.561,86.125-86.125
				C-1036.143,714.523-1074.702,675.967-1122.268,675.967L-1122.268,675.967z"/>
		</g>
	</g>
	<g id="Weißer_Kreis_x5F_Violin_5_" display="inline">
		<g>
			<path fill="#4D4D4F" d="M-1122.268,678.768c45.944,0,83.322,37.379,83.322,83.324c0,45.943-37.378,83.32-83.322,83.32
				c-45.945,0-83.323-37.377-83.323-83.32C-1205.591,716.146-1168.212,678.768-1122.268,678.768 M-1122.268,678.549
				c-46.139,0-83.543,37.4-83.543,83.543c0,46.139,37.404,83.541,83.543,83.541c46.139,0,83.542-37.402,83.542-83.541
				C-1038.726,715.949-1076.128,678.549-1122.268,678.549L-1122.268,678.549z"/>
		</g>
	</g>
	<g id="Weißer_Kreis_x5F_Violin_8_" display="inline">
		<g>
			<path fill="#4D4D4F" d="M-1122.268,898.285c47.365,0,85.898,38.533,85.898,85.898s-38.534,85.898-85.898,85.898
				c-47.365,0-85.899-38.533-85.899-85.898S-1169.633,898.285-1122.268,898.285 M-1122.268,898.059
				c-47.566,0-86.126,38.559-86.126,86.127c0,47.564,38.56,86.125,86.126,86.125s86.125-38.561,86.125-86.125
				C-1036.143,936.617-1074.702,898.059-1122.268,898.059L-1122.268,898.059z"/>
		</g>
	</g>
	<g id="Weißer_Kreis_x5F_Violin_7_" display="inline">
		<g>
			<path fill="#4D4D4F" d="M-1122.268,900.859c45.944,0,83.322,37.379,83.322,83.324c0,45.943-37.378,83.322-83.322,83.322
				c-45.945,0-83.323-37.379-83.323-83.322C-1205.591,938.238-1168.212,900.859-1122.268,900.859 M-1122.268,900.641
				c-46.139,0-83.543,37.402-83.543,83.543c0,46.139,37.404,83.543,83.543,83.543c46.139,0,83.542-37.404,83.542-83.543
				C-1038.726,938.043-1076.128,900.641-1122.268,900.641L-1122.268,900.641z"/>
		</g>
	</g>
	<g id="Weißer_Kreis_x5F_Violin_4_" display="inline">
		<g>
			<path fill="#4D4D4F" d="M-1122.268,454.102c47.365,0,85.898,38.533,85.898,85.898c0,47.363-38.534,85.898-85.898,85.898
				c-47.365,0-85.899-38.535-85.899-85.898C-1208.167,492.635-1169.633,454.102-1122.268,454.102 M-1122.268,453.873
				c-47.566,0-86.126,38.561-86.126,86.127c0,47.564,38.56,86.125,86.126,86.125s86.125-38.561,86.125-86.125
				C-1036.143,492.434-1074.702,453.873-1122.268,453.873L-1122.268,453.873z"/>
		</g>
	</g>
	<g id="Weißer_Kreis_x5F_Violin_3_" display="inline">
		<g>
			<path fill="#4D4D4F" d="M-1122.267,456.676c45.944,0,83.322,37.379,83.322,83.324c0,45.943-37.378,83.322-83.322,83.322
				c-45.945,0-83.323-37.379-83.323-83.322C-1205.59,494.055-1168.212,456.676-1122.267,456.676 M-1122.267,456.457
				c-46.139,0-83.543,37.402-83.543,83.543c0,46.139,37.404,83.543,83.543,83.543c46.139,0,83.542-37.404,83.542-83.543
				C-1038.725,493.859-1076.128,456.457-1122.267,456.457L-1122.267,456.457z"/>
		</g>
	</g>
</g>
<path d="M158.596,148.496L158.596,148.496c-0.053-0.055-1.342-1.342-1.393-1.393l0,0c-0.051-0.053-0.123-0.074-0.191-0.072
	l-0.051,0.006c-0.846-0.863-2.736-2.79-5.457-5.561c0.004-0.004,0.008-0.008,0.01-0.012c0.043-0.027,0.771-1.643-1.262-3.355
	c-1.289-1.257-2.381-1.518-3.287-1.294c-0.008,0.006-0.012,0.015-0.02,0.021c-5.369-5.466-12.535-12.773-20.594-20.961
	c0.196-0.214,0.35-0.39,0.441-0.514c0.031-0.042,0.182-0.256,0.229-0.33c0.278-0.416,0.363-0.802,0.363-1.34v-0.003
	c0-0.286-0.045-0.581-0.135-0.871c-0.363-1.155-1.193-1.856-2.252-1.858c-0.215,0-0.433,0.031-0.645,0.1
	c-0.688,0.217-1.139,0.734-1.389,1.398c-9.908-10.063-21.105-21.417-32.106-32.537c0.014-0.024,0.028-0.048,0.037-0.066
	c0.011-0.029,0.021-0.052,0.022-0.082c0-0.02-0.006-0.048-0.027-0.068l0,0c-0.021-0.023-10.565-10.603-10.617-10.657
	c-0.055-0.056-0.129-0.075-0.199-0.075l-0.012,0.002l0.002-0.026c0.002-0.067-0.017-0.139-0.07-0.193
	c-0.05-0.051-1.355-1.354-1.406-1.405c-0.054-0.058-0.129-0.076-0.199-0.076L78.34,67.28C65.868,54.708,54.223,43.025,45.463,34.353
	c-0.106-0.108-1.004-1-1.105-1.104c-0.082-0.087-0.197-0.131-0.323-0.146l-0.315-0.318c-0.029-0.034-0.18-0.183-0.26-0.261
	c-0.028-0.029-0.083-0.073-0.101-0.085c-1.214-0.894-3.416-0.364-5.11,1.294c-1.738,1.7-2.304,3.962-1.336,5.174
	c0,0,0.201,0.215,0.236,0.246l0.355,0.352c0.012,0.121,0.054,0.231,0.137,0.316c0.105,0.108,1.002,1,1.103,1.104
	c0.032,0.032,14.491,14.357,33.063,32.756l-0.005,0.047c-0.002,0.068,0.016,0.14,0.07,0.193c0.053,0.056,1.353,1.353,1.405,1.406
	c0.054,0.056,0.129,0.076,0.2,0.075l0.012-0.001l-0.004,0.024c0,0.068,0.018,0.141,0.071,0.194
	c0.052,0.053,10.655,10.578,10.675,10.599c0.023,0.022,0.051,0.027,0.07,0.027c0.03,0,0.055-0.009,0.082-0.021l0.055-0.029
	c0.262,0.26,0.525,0.52,0.786,0.779c-0.024,0.017-0.05,0.038-0.071,0.059c-0.172,0.175-0.172,0.457,0.004,0.63
	c0.738,0.732,1.492,1.479,2.254,2.234c-0.403,0.509-1.127,1.306-2.408,2.55c-0.079-0.079-0.158-0.158-0.238-0.236
	c-0.307-0.304-0.801-0.301-1.103,0.004c-0.303,0.306-0.301,0.8,0.005,1.103c0.076,0.076,0.153,0.152,0.23,0.228
	c-0.191,0.32-0.133,0.757,0.163,1.048c0.174,0.167,0.396,0.26,0.628,0.26c0.15,0,0.291-0.042,0.411-0.115
	c0.419,0.415,0.839,0.831,1.26,1.249c-0.083,0.135-0.124,0.295-0.114,0.465c0.012,0.221,0.111,0.432,0.275,0.593
	c0.17,0.167,0.395,0.259,0.626,0.259c0.153,0,0.298-0.043,0.422-0.119c0.429,0.424,0.858,0.85,1.288,1.275
	c-0.207,0.322-0.156,0.774,0.15,1.07c0.172,0.169,0.394,0.262,0.626,0.262c0.045,0,0.089-0.007,0.13-0.014
	c-0.025,0.257,0.063,0.529,0.269,0.732c0.173,0.168,0.396,0.26,0.628,0.26c0.15,0,0.291-0.043,0.412-0.115
	c0.156,0.154,0.313,0.309,0.471,0.465c-0.207,0.322-0.152,0.773,0.152,1.07c0.146,0.142,0.408,0.243,0.631,0.271
	c0.021,0.259,0.064,0.409,0.272,0.611c0.216,0.211,0.454,0.315,0.744,0.315c0.169,0,0.269-0.003,0.411-0.078
	c0.547,0.542,1.15,1.141,1.698,1.684c-0.201,0.322-0.145,0.77,0.157,1.063c0.172,0.167,0.395,0.262,0.627,0.262
	c0.156,0,0.301-0.045,0.428-0.124c1.116,1.108,2.295,2.276,3.408,3.38c-0.24,0.361-0.174,0.736,0.169,1.068
	c0.188,0.185,0.382,0.259,0.64,0.259c0.184,0,0.264-0.012,0.408-0.11c1.16,1.148,2.469,2.432,3.619,3.572
	c-0.23,0.358-0.178,0.646,0.157,0.975c0.19,0.185,0.302,0.268,0.557,0.268c0.178,0,0.313,0.02,0.456-0.072
	c0.956,0.947,2.059,2.031,3.006,2.969c-0.229,0.357-0.168,0.713,0.168,1.04c0.189,0.183,0.365,0.259,0.621,0.259
	c0.176,0,0.268-0.01,0.408-0.103c0.846,0.839,1.847,1.817,2.682,2.646c-0.223,0.357-0.147,0.706,0.186,1.029
	c0.189,0.186,0.292,0.242,0.549,0.242c0.172,0,0.27-0.031,0.407-0.121c1.165,1.155,2.5,2.465,3.638,3.592
	c-0.207,0.355-0.104,0.647,0.223,0.965c0.189,0.186,0.394,0.252,0.65,0.252c0.163,0,0.189,0.041,0.324-0.038
	c1.197,1.185,2.484,2.491,3.641,3.639c-0.232,0.358-0.125,0.709,0.211,1.038c0.189,0.186,0.309,0.223,0.566,0.223
	c0.176,0,0.284,0.001,0.426-0.092c0.357,0.352,0.808,0.789,1.16,1.139l-0.154,0.146c-0.453,0.432-0.529,1.088-0.167,1.467
	c0.36,0.377,1.02,0.336,1.474-0.098l0.191-0.184c0.379,0.375,0.844,0.824,1.217,1.194c-0.199,0.397-0.123,0.766,0.232,1.114
	c0.217,0.209,0.379,0.296,0.669,0.296c0.165,0,0.268-0.03,0.407-0.103c0.4,0.397,0.975,0.965,1.367,1.355l-0.152,0.145
	c-0.587,0.559-0.639,1.215-0.151,1.726c0.222,0.233,0.423,0.306,0.765,0.306c0.383,0,0.638-0.089,0.936-0.375l0.207-0.195
	c0.413,0.41,1.043,1.033,1.446,1.434c-0.211,0.4-0.108,0.748,0.251,1.1c0.216,0.211,0.308,0.279,0.6,0.279
	c0.172,0,0.201-0.131,0.347-0.209c0.284,0.28,0.767,0.757,1.043,1.031c-0.189,0.377-0.113,0.864,0.224,1.193
	c0.206,0.201,0.472,0.311,0.747,0.311c0.157,0,0.306-0.039,0.438-0.109c0.529,0.525,1.048,1.039,1.555,1.54
	c-0.196,0.378-0.121,0.87,0.218,1.203c0.206,0.2,0.47,0.311,0.747,0.311c0.259,0,0.498-0.099,0.674-0.278
	c0.029-0.03,0.091-0.1,0.182-0.197c1.85-2.01,2.807-2.802,3.301-3.091c0.537,0.532,1.065,1.056,1.572,1.56
	c0.176,0.172,0.457,0.171,0.629-0.003c0.025-0.024,0.045-0.052,0.061-0.077c0.395,0.393,0.77,0.764,1.131,1.121
	c-0.807-0.15-1.627,0.059-2.195,0.643c-0.02,0.018-0.035,0.04-0.052,0.06c-0.019,0.017-0.038,0.031-0.055,0.05
	c-0.907,0.928-0.735,2.563,0.378,3.648c1.115,1.089,2.754,1.219,3.66,0.291c0.016-0.018,0.029-0.039,0.049-0.057
	c0.018-0.018,0.039-0.034,0.057-0.053c0.559-0.572,0.75-1.378,0.6-2.164c0.885,0.879,1.559,1.547,1.986,1.969l-0.006,0.051
	c-0.002,0.066,0.018,0.135,0.068,0.186c0.053,0.055,1.342,1.342,1.391,1.393c0.053,0.053,0.125,0.072,0.193,0.072
	c0.146-0.003,0.32-0.07,0.537-0.184c0.643-0.342,1.646-1.137,2.691-2.16c0.701-0.686,1.301-1.356,1.725-1.914
	c0.215-0.279,0.385-0.529,0.502-0.741c0.117-0.214,0.188-0.384,0.189-0.532C158.664,148.615,158.646,148.546,158.596,148.496z
	 M121.229,123.4c-0.198,0.252-0.477,0.574-0.869,0.994c-0.418-0.416-0.926-0.916-1.351-1.334c0.224-0.209,0.558-0.521,0.962-0.903
	C120.362,122.547,120.84,123.016,121.229,123.4z M117.768,119.986c0.382,0.377,0.93,0.916,1.309,1.291
	c-0.227,0.21-0.432,0.389-0.594,0.537c-0.176,0.16-0.316,0.268-0.39,0.334c-0.386-0.381-0.884-0.887-1.271-1.271
	C117.242,120.482,117.52,120.187,117.768,119.986z M113.639,116.395c0.166,0.552,0.486,1.203,0.938,1.645
	c0.461,0.447,1.103,0.75,1.67,0.898c-0.158,0.186-0.393,0.506-0.621,0.752c-0.838-0.83-1.829-1.8-2.678-2.641
	C113.178,116.833,113.463,116.549,113.639,116.395z M109.703,111.988c0.914,0.903,2.002,1.982,2.915,2.886
	c-0.197,0.249-0.474,0.571-0.87,0.995c-0.947-0.941-2.07-2.051-3.027-3C109.141,112.473,109.455,112.185,109.703,111.988z
	 M104.98,107.161c0.006,0.006,0.095-0.015,0.102-0.009c0.036,0.836,0.35,1.777,1.02,2.432c0.639,0.623,1.562,0.967,2.359,1.012
	c-0.197,0.244-0.527,0.713-0.902,1.113c-1.23-1.221-2.541-2.524-3.626-3.601C104.354,107.711,104.734,107.359,104.98,107.161z
	 M100.297,102.666c1.069,1.061,2.225,2.205,3.306,3.275c-0.196,0.248-0.472,0.572-0.866,0.996c-1.115-1.105-2.313-2.29-3.432-3.397
	C99.723,103.148,100.046,102.866,100.297,102.666z M97.07,100.306c0.294,0.126,0.68,0.091,0.996,0.138
	c0.07,0.01,0.133,0.098,0.152,0.162c0.334,0.33,0.654,0.65,0.75,0.742c-0.2,0.253-0.481,0.578-0.87,0.996
	c-0.532-0.528-1.108-1.098-1.642-1.628C96.729,100.498,96.926,100.373,97.07,100.306z M87.469,94.892
	c-0.426-0.421-0.85-0.842-1.273-1.262c0.137-0.142,0.266-0.275,0.395-0.404c0.425,0.422,0.852,0.846,1.281,1.271
	C87.742,94.622,87.607,94.754,87.469,94.892z M87.061,92.753c0.764-0.758,1.3-1.238,1.68-1.539c0.375,0.372,0.756,0.748,1.135,1.125
	c-0.299,0.379-0.775,0.917-1.531,1.685C87.914,93.601,87.486,93.176,87.061,92.753z M89.967,97.367
	c-0.436-0.432-0.871-0.863-1.305-1.294c0.135-0.142,0.266-0.276,0.392-0.403c0.438,0.434,0.877,0.868,1.315,1.303
	C90.242,97.099,90.106,97.23,89.967,97.367z M90.84,96.501c-0.438-0.437-0.877-0.872-1.314-1.305
	c0.766-0.759,1.303-1.238,1.68-1.539c0.389,0.383,0.776,0.769,1.168,1.157C92.076,95.191,91.601,95.729,90.84,96.501z
	 M92.651,100.027c-0.161-0.16-0.323-0.321-0.485-0.48c0.137-0.143,0.267-0.277,0.394-0.404c0.165,0.162,0.33,0.326,0.495,0.49
	C92.928,99.758,92.792,99.891,92.651,100.027z M93.525,99.16c-0.162-0.164-0.328-0.327-0.493-0.491
	c0.764-0.757,1.3-1.237,1.677-1.54c0.046,0.045,0.236,0.238,0.329,0.332c0,0.034,0,0.068,0.003,0.104
	C94.852,97.77,94.102,98.576,93.525,99.16z M96.56,103.899c-0.549-0.545-1.147-1.138-1.698-1.683
	c0.281-0.297,0.531-0.549,0.755-0.765c0.554,0.548,1.156,1.144,1.708,1.692C97.095,103.375,96.843,103.627,96.56,103.899z
	 M101.193,108.49c-1.121-1.109-2.316-2.296-3.441-3.408c0.273-0.283,0.523-0.537,0.754-0.768c1.129,1.117,2.328,2.307,3.451,3.42
	C101.729,107.966,101.475,108.217,101.193,108.49z M105.992,113.23c-1.158-1.146-2.436-2.401-3.603-3.557
	c0.272-0.283,0.523-0.537,0.754-0.768c1.171,1.16,2.476,2.461,3.638,3.609C106.552,112.747,106.273,112.959,105.992,113.23z
	 M110.211,117.429c-0.952-0.944-2.059-2.056-3.022-3.011c0.273-0.281,0.494-0.539,0.724-0.769c0.967,0.958,2.107,2.077,3.064,3.024
	C110.747,116.904,110.492,117.156,110.211,117.429z M114.07,121.242c-0.841-0.834-1.837-1.816-2.689-2.66
	c0.273-0.283,0.523-0.536,0.755-0.768c0.855,0.851,1.854,1.836,2.7,2.674C114.607,120.719,114.354,120.97,114.07,121.242z
	 M118.823,125.955c-1.14-1.129-2.411-2.39-3.579-3.547c0.273-0.282,0.484-0.568,0.715-0.797c1.171,1.158,2.484,2.457,3.629,3.59
	C119.358,125.432,119.104,125.684,118.823,125.955z M123.717,130.798c-1.16-1.149-2.475-2.448-3.674-3.638
	c0.135-0.14,0.272-0.272,0.397-0.398c1.202,1.19,2.516,2.488,3.679,3.642C123.994,130.529,123.857,130.661,123.717,130.798z
	 M124.589,129.936c-0.899-0.892-1.882-1.866-2.805-2.78c0.146,0.003,0.292-0.052,0.403-0.164c0.215-0.219,0.215-0.571-0.004-0.788
	c-0.178-0.175-0.424-0.42-0.602-0.596c0.418-0.394,0.74-0.674,0.988-0.873c0.021,0.021,0.215-0.205,0.236-0.182
	c0.057,0.809,0.334,1.918,0.983,2.551c0.636,0.621,1.546,0.891,2.339,0.938c0.019,0.02,0.026,0.129,0.046,0.148
	C125.885,128.561,125.352,129.159,124.589,129.936z M126.068,133.135c-0.363-0.361-0.797-0.787-1.168-1.154
	c0.137-0.142,0.269-0.275,0.395-0.402c0.375,0.372,0.813,0.799,1.184,1.168L126.068,133.135z M128.599,135.651
	c-0.361-0.358-0.817-0.821-1.183-1.185l0.406-0.389c0.365,0.361,0.807,0.799,1.165,1.156
	C128.848,135.373,128.727,135.527,128.599,135.651z M129.869,134.314c-0.115,0.127-0.279,0.331-0.399,0.455
	c-0.379-0.376-0.854-0.848-1.241-1.23c0.153-0.364,0.119-0.764-0.133-1.026c-0.265-0.278-0.686-0.327-1.072-0.166
	c-0.396-0.392-0.845-0.839-1.245-1.235c0.774-0.77,1.31-1.244,1.677-1.537c0.957,0.947,1.949,1.93,2.877,2.852
	c0.277,0.09,0.346,0.477,0.465,0.729C130.65,133.397,130.322,133.813,129.869,134.314z M135.262,138.891
	c-0.405,0-0.901-0.156-1.281-0.344c0.002-0.311-0.211-0.674-0.428-0.9c-0.223-0.234-0.912-0.327-0.947-0.324
	c-0.44-0.739-0.447-1.82-0.138-2.506c0.174,0.064,0.464,0.111,0.455,0.178c-0.01,0.063,2.148,2.126,3.12,3.089
	c0.174,0.101,0.346,0.434,0.396,0.583C136.16,138.801,135.6,138.891,135.262,138.891z M136.563,143.529
	c-0.275-0.271-0.615-0.607-0.895-0.887c0.137-0.143,0.268-0.278,0.393-0.404c0.283,0.281,0.626,0.621,0.904,0.896
	C136.826,143.271,136.689,143.406,136.563,143.529z M137.435,142.66c-0.276-0.274-0.63-0.604-0.911-0.883
	c0.712-0.688,1.172-1.048,1.467-1.232c0.24,0.105,0.639-0.014,0.889,0.029c0.027,0.025,0.072,0.17,0.098,0.195
	c-0.148,0.265-0.532,0.795-1.089,1.409C137.741,142.34,137.588,142.5,137.435,142.66z M139.525,146.466
	c-0.502-0.497-1.018-1.009-1.544-1.53c0.138-0.145,0.267-0.277,0.392-0.404c0.532,0.525,1.049,1.037,1.557,1.54
	C139.79,146.211,139.654,146.343,139.525,146.466z M140.846,145.121c-0.145,0.16-0.296,0.318-0.447,0.475
	c-0.506-0.502-1.022-1.014-1.553-1.538c0.869-0.856,1.408-1.277,1.74-1.474c0.427,0.423,0.844,0.837,1.258,1.245
	C141.695,144.095,141.408,144.502,140.846,145.121z"/>
<g>
	<path fill="#FFFFFF" d="M130.775,128.686c0.209-0.213,0.363-0.457,0.472-0.721c0.492-0.961,0.279-2.226-0.602-3.084
		c-0.419-0.408-0.923-0.66-1.441-0.762c-0.159-0.58-0.474-1.139-0.946-1.6c-0.475-0.463-1.039-0.764-1.627-0.908
		c-0.089-0.569-0.365-1.129-0.825-1.578c-0.801-0.781-1.924-1.003-2.835-0.648c0.791-0.761,1.575-1.52,2.233-2.179
		c0.401-0.401,0.759-0.763,1.042-1.063c0.284-0.302,0.496-0.539,0.615-0.699c0.029-0.04,0.178-0.255,0.229-0.329
		c0.274-0.417,0.428-0.93,0.428-1.466v-0.002c0-0.288-0.043-0.58-0.135-0.871c-0.361-1.155-1.361-1.921-2.42-1.923
		c-0.215,0-0.431,0.033-0.646,0.099c-0.997,0.315-1.612,1.292-1.612,2.369v0.003c0.001,0.287,0.044,0.582,0.136,0.875
		c0.097,0.301,0.304,0.564,0.473,0.842c0.174,0.281,0.313,0.568,0.313,0.916l0,0c0,0.432-0.221,0.992-0.971,1.765
		c-1.031,1.002-2.207,2.108-3.123,2.964c-0.459,0.428-0.854,0.793-1.133,1.051c-0.174,0.161-0.303,0.281-0.376,0.348l0.194,0.199
		c0.439-0.404,2.768-2.549,4.633-4.366l0.003-0.002h0.001c0.775-0.796,1.05-1.424,1.05-1.958c0-0.426-0.173-0.768-0.354-1.061
		s-0.373-0.549-0.444-0.781c-0.083-0.267-0.123-0.533-0.123-0.793c0.001-0.975,0.552-1.833,1.417-2.104
		c0.188-0.059,0.375-0.088,0.563-0.088h0.002c0.92,0,1.824,0.68,2.152,1.729c0.084,0.265,0.122,0.531,0.122,0.79v0.001
		c0,0.485-0.138,0.943-0.382,1.312c-0.043,0.065-0.199,0.286-0.222,0.316c-0.103,0.142-0.312,0.378-0.593,0.675
		c-0.984,1.042-2.859,2.852-4.486,4.398c-0.813,0.773-1.564,1.482-2.113,1.998c-0.242,0.228-0.443,0.414-0.592,0.555l0.198,0.195
		c0.491-0.461,1.517-1.422,2.672-2.52c-0.008,0.019-0.019,0.035-0.026,0.056c-0.321,0.628-0.34,1.384-0.072,2.071
		c-0.158,0.352-0.844,1.314-3.59,3.91c-0.125,0.117-0.21,0.197-0.236,0.225c-0.349,0.359-0.322,0.95,0.059,1.321
		c0.188,0.185,0.434,0.287,0.689,0.287c0.243,0,0.467-0.093,0.631-0.263c0.021-0.02,0.07-0.072,0.145-0.151
		c1.773-1.888,2.791-2.82,3.375-3.28c0.027,0.845,0.385,1.704,1.064,2.367c0.66,0.645,1.501,0.98,2.325,1.005
		c-0.446,0.578-1.358,1.585-3.211,3.336c-0.126,0.118-0.21,0.196-0.237,0.227c-0.349,0.357-0.322,0.948,0.059,1.32
		c0.189,0.185,0.434,0.286,0.691,0.286c0.242,0,0.465-0.093,0.629-0.262c0.021-0.021,0.07-0.072,0.143-0.15
		c2.661-2.834,3.632-3.521,3.967-3.686C129.051,129.553,130.092,129.389,130.775,128.686z M118.978,127.994
		c-0.241,0.248-0.657,0.234-0.929-0.029c-0.27-0.266-0.294-0.68-0.053-0.927c0.221-0.228,4.194-3.854,3.939-4.562
		c-0.252-0.708-0.104-1.554,0.44-2.111c0.806-0.826,2.192-0.781,3.096,0.102c0.315,0.307,0.526,0.676,0.64,1.061
		c-0.895-0.076-1.784,0.209-2.431,0.871c-0.012,0.014-0.022,0.029-0.036,0.043c-0.039,0.037-0.08,0.07-0.119,0.109
		c-0.498,0.513-0.77,1.168-0.822,1.852C121.41,125.357,119.148,127.818,118.978,127.994z M126.017,127.861
		c-0.759,0-1.529-0.293-2.127-0.877c-0.614-0.6-0.928-1.393-0.928-2.174c0-0.089,0.003-0.178,0.011-0.267
		c0-0.005,0.002-0.012,0.002-0.019c0.006-0.062,0.017-0.122,0.027-0.185c0.01-0.054,0.02-0.108,0.033-0.163
		c0.109-0.486,0.344-0.947,0.714-1.326c0.544-0.559,1.272-0.836,2.011-0.836c0.147,0,0.295,0.016,0.441,0.036
		c0.074,0.011,0.149,0.025,0.223,0.043c0.01,0.002,0.02,0.004,0.027,0.007c0.07,0.016,0.141,0.033,0.21,0.056
		c0.442,0.142,0.865,0.384,1.224,0.733c0.353,0.344,0.602,0.751,0.754,1.182c0.032,0.091,0.059,0.182,0.082,0.271
		c0,0,0.001,0.002,0.001,0.003c0.022,0.093,0.042,0.186,0.055,0.28c0.022,0.146,0.038,0.293,0.038,0.439
		c0,0.713-0.262,1.419-0.787,1.959c-0.388,0.396-0.869,0.65-1.382,0.764c-0.048,0.012-0.098,0.021-0.146,0.029
		c-0.068,0.012-0.135,0.022-0.203,0.029c-0.002,0-0.004,0-0.005,0C126.201,127.856,126.108,127.861,126.017,127.861z
		 M123.817,132.842c-0.241,0.247-0.657,0.234-0.929-0.031c-0.27-0.264-0.295-0.68-0.053-0.926c0.175-0.18,2.664-2.455,3.598-3.766
		c0.707-0.055,1.383-0.346,1.902-0.877c0.014-0.014,0.025-0.03,0.039-0.045c0.038-0.035,0.078-0.068,0.115-0.106
		c0.627-0.641,0.894-1.505,0.821-2.368c0.36,0.106,0.706,0.303,1.001,0.59c0.904,0.882,0.981,2.268,0.178,3.092
		c-0.559,0.572-1.393,0.726-2.152,0.477C127.684,128.638,124.037,132.615,123.817,132.842z"/>
	<path fill="#FFFFFF" d="M100.952,98.922c0.585-1.146,0.331-2.65-0.717-3.676c-1.267-1.235-3.209-1.298-4.338-0.14
		c-0.247,0.253-0.432,0.544-0.561,0.857c-0.401,0.787-0.409,1.742-0.036,2.594c-0.177,0.39-0.766,1.203-2.57,2.873
		c-0.122,0.115-0.204,0.191-0.242,0.231c-0.396,0.404-0.365,1.077,0.066,1.499c0.217,0.209,0.494,0.326,0.786,0.326
		c0.273,0,0.528-0.105,0.713-0.296c0.032-0.032,0.099-0.104,0.19-0.206c1.658-1.826,2.469-2.447,2.867-2.638
		c1.132,0.481,2.434,0.3,3.278-0.567C100.637,99.527,100.822,99.235,100.952,98.922z M97.484,100.014
		c-0.779-0.289-3.367,2.713-3.631,2.982c-0.287,0.295-0.78,0.278-1.105-0.035c-0.322-0.316-0.35-0.812-0.063-1.105
		c0.265-0.271,3.24-2.855,2.938-3.699c-0.301-0.844-0.125-1.85,0.525-2.516c0.959-0.984,2.611-0.93,3.688,0.121
		c1.077,1.05,1.171,2.701,0.211,3.686C99.385,100.127,98.391,100.311,97.484,100.014z"/>
	<path fill="#FFFFFF" d="M113.066,111.137c0.206-0.213,0.361-0.457,0.47-0.721c0.492-0.96,0.279-2.225-0.602-3.084
		c-0.421-0.41-0.931-0.664-1.45-0.762c-0.166-0.547-0.471-1.07-0.92-1.506c-0.475-0.463-1.039-0.764-1.624-0.908
		c-0.091-0.569-0.366-1.129-0.826-1.578c-1.063-1.037-2.693-1.09-3.64-0.119c-0.209,0.215-0.363,0.459-0.471,0.721
		c-0.321,0.628-0.342,1.383-0.071,2.072c-0.159,0.35-0.846,1.314-3.59,3.909c-0.128,0.118-0.211,0.199-0.237,0.227
		c-0.348,0.356-0.323,0.95,0.057,1.321c0.191,0.184,0.436,0.285,0.691,0.285c0.242,0,0.468-0.094,0.63-0.262
		c0.021-0.021,0.071-0.072,0.145-0.15c1.771-1.889,2.793-2.821,3.376-3.282c0.027,0.845,0.383,1.704,1.063,2.366
		c0.638,0.623,1.444,0.956,2.24,1c-0.47,0.592-1.382,1.583-3.146,3.25c-0.125,0.117-0.208,0.197-0.237,0.227
		c-0.347,0.356-0.321,0.949,0.059,1.319c0.188,0.185,0.435,0.286,0.692,0.286c0.242,0,0.465-0.092,0.63-0.262
		c0.021-0.02,0.069-0.072,0.144-0.15c2.659-2.832,3.629-3.521,3.964-3.685C111.34,112.004,112.381,111.841,113.066,111.137z
		 M101.285,110.539c-0.241,0.248-0.658,0.234-0.927-0.031c-0.272-0.263-0.296-0.678-0.056-0.926
		c0.224-0.227,4.195-3.854,3.941-4.563c-0.253-0.707-0.105-1.552,0.438-2.109c0.808-0.828,2.194-0.782,3.097,0.102
		c0.314,0.306,0.527,0.675,0.639,1.059c-0.892-0.074-1.781,0.211-2.429,0.873c-0.013,0.014-0.022,0.029-0.036,0.041
		c-0.039,0.037-0.082,0.072-0.119,0.11c-0.5,0.513-0.771,1.168-0.822,1.851C103.717,107.9,101.457,110.362,101.285,110.539z
		 M106.198,109.531c-0.616-0.603-0.93-1.396-0.93-2.178c0-0.088,0.005-0.177,0.013-0.266c0-0.006,0.002-0.012,0.002-0.018
		c0.007-0.061,0.016-0.123,0.024-0.184c0.011-0.055,0.022-0.11,0.034-0.164c0.109-0.488,0.346-0.947,0.715-1.326
		c0.543-0.559,1.273-0.838,2.012-0.838c0.146,0,0.294,0.016,0.44,0.038c0.075,0.011,0.149,0.024,0.224,0.042
		c0.008,0.002,0.018,0.004,0.025,0.006c0.072,0.018,0.143,0.035,0.211,0.057c0.444,0.143,0.865,0.385,1.224,0.734
		c0.327,0.319,0.567,0.693,0.722,1.092c0.035,0.089,0.066,0.178,0.092,0.27c0,0.001,0,0.002,0.001,0.003
		c0.024,0.093,0.047,0.186,0.064,0.278c0.032,0.176,0.05,0.355,0.05,0.533c0,0.712-0.26,1.418-0.786,1.958
		c-0.411,0.419-0.923,0.681-1.467,0.785c-0.002,0-0.004,0-0.007,0.001c-0.064,0.012-0.131,0.02-0.196,0.027
		c-0.052,0.006-0.102,0.011-0.153,0.014c-0.062,0.004-0.125,0.01-0.188,0.01C107.565,110.406,106.797,110.113,106.198,109.531z
		 M106.104,115.292c-0.241,0.249-0.655,0.234-0.927-0.029c-0.271-0.265-0.294-0.68-0.053-0.927c0.17-0.174,2.542-2.344,3.525-3.668
		c0.741-0.037,1.452-0.328,1.992-0.883c0.014-0.013,0.025-0.029,0.039-0.043c0.039-0.037,0.08-0.068,0.116-0.107
		c0.648-0.662,0.911-1.564,0.812-2.458c0.357,0.108,0.699,0.303,0.992,0.589c0.902,0.881,0.982,2.265,0.178,3.092
		c-0.559,0.57-1.392,0.725-2.152,0.477C109.973,111.09,106.328,115.067,106.104,115.292z"/>
	<path fill="#FFFFFF" d="M121.135,119.115c0.207-0.212,0.361-0.457,0.471-0.722c0.49-0.962,0.278-2.224-0.602-3.083
		c-0.352-0.342-0.762-0.573-1.188-0.698c-0.181-0.413-0.441-0.803-0.788-1.142c-0.345-0.336-0.737-0.586-1.149-0.754
		c-0.133-0.445-0.379-0.872-0.744-1.23c-1.064-1.036-2.692-1.09-3.641-0.117c-0.209,0.212-0.362,0.458-0.471,0.72
		c-0.322,0.628-0.34,1.383-0.072,2.073c-0.159,0.348-0.844,1.313-3.59,3.906c-0.125,0.121-0.209,0.2-0.238,0.229
		c-0.346,0.356-0.32,0.948,0.061,1.32c0.188,0.186,0.434,0.286,0.689,0.286c0.242,0,0.467-0.094,0.631-0.261
		c0.02-0.021,0.069-0.074,0.142-0.152c1.414-1.503,2.346-2.398,2.962-2.935c0.166,0.55,0.473,1.079,0.924,1.518
		c0.461,0.45,1.006,0.746,1.576,0.896c-0.524,0.608-1.402,1.529-2.875,2.925c-0.127,0.119-0.212,0.198-0.238,0.226
		c-0.348,0.359-0.322,0.949,0.059,1.322c0.189,0.184,0.436,0.285,0.689,0.285c0.242,0,0.468-0.093,0.631-0.262
		c0.021-0.02,0.071-0.074,0.145-0.152c2.66-2.832,3.631-3.521,3.965-3.684C119.408,119.982,120.449,119.817,121.135,119.115z
		 M113.531,116.253c-1.305,1.112-3.074,3.04-3.226,3.194c-0.241,0.248-0.657,0.234-0.929-0.029c-0.271-0.265-0.295-0.68-0.053-0.928
		c0.222-0.227,4.193-3.853,3.939-4.561c-0.252-0.709-0.104-1.553,0.439-2.111c0.808-0.828,2.191-0.781,3.098,0.102
		c0.189,0.184,0.338,0.392,0.453,0.611c-1.012-0.203-2.066,0.066-2.803,0.82c-0.012,0.012-0.021,0.027-0.035,0.042
		c-0.041,0.036-0.08,0.07-0.119,0.11C113.579,114.238,113.332,115.268,113.531,116.253z M114.662,117.938
		c-0.451-0.439-0.739-0.984-0.86-1.551c-0.023-0.103-0.041-0.207-0.052-0.313c-0.012-0.104-0.016-0.209-0.016-0.314
		c-0.002-0.712,0.258-1.417,0.786-1.956c0.544-0.558,1.273-0.837,2.009-0.837c0.32,0,0.641,0.057,0.949,0.159
		c0.087,0.029,0.174,0.062,0.258,0.099c0,0.001,0.001,0.001,0.001,0.001c0.085,0.038,0.17,0.078,0.253,0.124
		c0.236,0.133,0.462,0.295,0.666,0.493c0.205,0.2,0.373,0.423,0.51,0.657c0.055,0.095,0.105,0.191,0.15,0.289
		c0,0.002,0.002,0.002,0.002,0.002c0.043,0.1,0.082,0.199,0.115,0.301c0.1,0.303,0.15,0.615,0.15,0.928
		c0.002,0.712-0.259,1.416-0.785,1.957c-0.545,0.559-1.273,0.837-2.012,0.837c-0.063,0-0.124-0.005-0.188-0.009
		c-0.108-0.008-0.217-0.02-0.322-0.037C115.692,118.665,115.125,118.389,114.662,117.938z M114.174,123.271
		c-0.24,0.247-0.656,0.234-0.926-0.03c-0.271-0.265-0.297-0.68-0.055-0.927c0.155-0.159,2.121-1.959,3.221-3.281
		c0.979,0.162,1.983-0.111,2.692-0.838c0.015-0.015,0.026-0.031,0.039-0.047c0.039-0.035,0.079-0.068,0.116-0.105
		c0.717-0.736,0.965-1.763,0.766-2.75c0.23,0.113,0.449,0.26,0.641,0.449c0.906,0.883,0.985,2.267,0.179,3.093
		c-0.556,0.571-1.39,0.726-2.151,0.476C118.041,119.068,114.395,123.045,114.174,123.271z"/>
	<path fill="#FFFFFF" d="M141.583,135.205c-1.265-1.236-3.208-1.299-4.337-0.141c-0.086,0.088-0.162,0.182-0.233,0.277
		c-0.085,0.069-0.168,0.141-0.245,0.221c-0.768,0.787-0.959,1.938-0.605,2.98c-0.281,0.133-0.596,0.204-0.938,0.204
		c-0.403,0-0.813-0.104-1.193-0.292c0.002-0.311-0.101-0.607-0.318-0.836c-0.222-0.234-0.531-0.361-0.875-0.361
		c-0.033,0-0.066,0.003-0.1,0.006c-0.441-0.74-0.527-1.599-0.219-2.283c1.094,0.4,2.313,0.196,3.118-0.63
		c0.086-0.087,0.163-0.182,0.233-0.278c0.086-0.068,0.169-0.141,0.246-0.221c1.129-1.158,1.018-3.096-0.248-4.332
		s-3.208-1.297-4.338-0.142c-0.084,0.089-0.162,0.183-0.232,0.279c-0.086,0.067-0.168,0.14-0.246,0.221
		c-0.854,0.876-0.998,2.198-0.468,3.326c-0.146,0.243-0.403,0.595-0.856,1.095c-0.674,0.747-1.5,1.511-1.896,1.879
		c-0.13,0.121-0.216,0.201-0.255,0.242c-0.396,0.404-0.365,1.076,0.068,1.498c0.215,0.21,0.494,0.326,0.785,0.326
		c0.273,0,0.527-0.105,0.713-0.297c0.029-0.029,0.094-0.097,0.182-0.193c0.348-0.379,0.658-0.706,0.941-0.998
		c-0.004,0.629,0.164,1.289,0.504,1.896l-0.839,0.8c-0.585,0.56-0.667,1.431-0.179,1.94c0.221,0.232,0.532,0.361,0.875,0.361
		c0.382,0,0.771-0.162,1.07-0.447l0.934-0.889c0.537,0.264,1.111,0.411,1.682,0.411c0.113,0,0.227-0.008,0.34-0.021
		c-0.443,0.44-0.859,0.824-1.106,1.055c-0.13,0.121-0.218,0.201-0.255,0.242c-0.395,0.404-0.364,1.076,0.068,1.497
		c0.215,0.212,0.494,0.326,0.785,0.326c0.274,0,0.527-0.103,0.713-0.294c0.029-0.031,0.092-0.1,0.182-0.196
		c1.662-1.811,2.551-2.549,3.021-2.841c1.133,0.488,2.441,0.309,3.289-0.561c0.086-0.088,0.163-0.184,0.233-0.278
		c0.086-0.069,0.169-0.142,0.247-0.223C142.961,138.381,142.851,136.44,141.583,135.205z M128.945,137.755
		c-0.287,0.294-0.781,0.278-1.105-0.038c-0.322-0.313-0.351-0.809-0.063-1.104c0.265-0.27,3.558-3.156,3.256-4.001
		c-0.301-0.844-0.125-1.851,0.522-2.515c0.96-0.984,2.613-0.932,3.69,0.121c1.078,1.049,1.171,2.699,0.21,3.683
		c-0.662,0.681-1.657,0.864-2.562,0.567c-0.015-0.005-0.033-0.008-0.049-0.01l0,0C132.006,134.306,129.203,137.489,128.945,137.755z
		 M132.574,140.013l-1.104,1.051c-0.454,0.435-1.113,0.477-1.476,0.099c-0.358-0.379-0.284-1.035,0.168-1.467l1.035-0.984
		c-0.482-0.736-0.673-1.566-0.567-2.322c0.692-0.688,1.175-1.096,1.506-1.334c-0.271,0.805-0.118,1.767,0.439,2.57
		c0.333-0.082,0.673-0.01,0.896,0.226c0.2,0.208,0.262,0.501,0.204,0.796c0.847,0.493,1.826,0.568,2.608,0.205
		c0.006,0.014,0.01,0.025,0.016,0.039c-0.146,0.242-0.402,0.594-0.855,1.095c-0.123,0.136-0.254,0.274-0.385,0.411
		C134.282,140.606,133.381,140.475,132.574,140.013z M141.173,139.589c-0.665,0.68-1.659,0.864-2.563,0.567
		c-0.779-0.29-3.687,3.015-3.949,3.283c-0.287,0.296-0.781,0.279-1.105-0.035s-0.352-0.809-0.063-1.104
		c0.122-0.125,0.883-0.801,1.641-1.577c0,0,0.001,0,0.001-0.001c0.092-0.095,0.186-0.194,0.277-0.292l0,0
		c0.711-0.755,1.348-1.551,1.355-1.998c0-0.006,0-0.012,0-0.016c0-0.043-0.005-0.081-0.018-0.117
		c-0.012-0.034-0.02-0.07-0.029-0.105c-0.252-0.82-0.07-1.771,0.553-2.41c0.961-0.984,2.612-0.932,3.688,0.119
		C142.037,136.954,142.133,138.604,141.173,139.589z"/>
	<path fill="#FFFFFF" d="M158.266,148.638l-0.811-0.811c-0.023,0.049-0.049,0.1-0.08,0.152c-0.125,0.226-0.303,0.489-0.527,0.784
		c-0.369,0.48-0.852,1.03-1.398,1.59l-0.002,0.002l-7.848-7.742c0.332-0.496,0.648-1.006,0.863-1.361
		c1.129,0.785,2.34,0.964,2.932,0.355c0.045-0.043,0.084-0.092,0.119-0.143c0.043-0.027,0.082-0.061,0.117-0.098
		c0.59-0.605,0.023-2.115-1.264-3.371c-1.291-1.258-2.814-1.787-3.402-1.181c-0.037,0.035-0.068,0.075-0.096,0.118
		c-0.049,0.036-0.096,0.076-0.141,0.123c-0.639,0.652-0.348,1.996,0.621,3.167c-0.16,0.28-0.439,0.723-0.885,1.271l-1.941-1.915
		c-0.26-0.256-0.6-0.384-0.938-0.384c-0.343,0-0.69,0.132-0.952,0.397c-0.256,0.26-0.384,0.601-0.384,0.939
		c0,0.345,0.132,0.689,0.397,0.951l2.152,2.121c0.012,0.383,0.314,0.653,0.314,0.653s0.197,0.169,0.52,0.169l3.557,3.508
		c-0.516,0.576-0.965,0.979-1.293,1.239c-0.971-0.784-2.273-0.831-3.018-0.068c-0.798,0.819-0.648,2.262,0.338,3.222
		c0.982,0.959,2.428,1.073,3.227,0.254c0.568-0.581,0.654-1.478,0.305-2.292c0.418-0.319,1.031-0.804,1.549-1.263l3.17,3.123
		l-0.023,0.018c-0.439,0.342-0.816,0.599-1.123,0.764c-0.053,0.027-0.105,0.053-0.152,0.075l0.199,0.2
		c0.287,0.287,0.576,0.574,0.668,0.668c0.078-0.009,0.199-0.056,0.365-0.143c0.635-0.34,1.613-1.126,2.615-2.105
		c0.662-0.646,1.264-1.313,1.693-1.877c0.203-0.27,0.365-0.506,0.475-0.701c0.086-0.158,0.135-0.275,0.145-0.351L158.266,148.638z
		 M147.111,137.049c0.52-0.533,1.898-0.028,3.08,1.126c1.182,1.151,1.721,2.519,1.201,3.05c-0.518,0.533-1.896,0.029-3.08-1.125
		C147.131,138.946,146.594,137.58,147.111,137.049z M145.054,142.99c-0.106,0.119-0.172,0.231-0.21,0.342l-2.039-2.01
		c-0.221-0.217-0.329-0.504-0.329-0.789c0-0.282,0.105-0.563,0.319-0.779c0.217-0.221,0.504-0.331,0.79-0.331
		c0.283,0,0.563,0.106,0.778,0.317l1.957,1.931C145.984,142.068,145.568,142.513,145.054,142.99z M155.09,150.713
		c-0.482,0.473-0.982,0.92-1.445,1.295l-3.18-3.133c0.295-0.27,0.543-0.525,0.68-0.724c0.549-0.797,0.047-1.275,0.047-1.275
		s-0.617-0.573-1.191,0.067c-0.229,0.305-0.451,0.576-0.66,0.82l-3.428-3.379c0.16-0.048,0.34-0.141,0.531-0.307
		c0.279-0.24,0.658-0.736,1.025-1.273l7.82,7.711C155.223,150.582,155.156,150.648,155.09,150.713z"/>
	<path fill="#FFFFFF" d="M75.822,71.21c1.225-1.196,2.424-2.17,3.207-2.605c0.084-0.044,0.158-0.083,0.227-0.116l-0.25-0.25
		l-0.022-0.022c-0.269-0.269-0.523-0.524-0.606-0.607c-0.088,0.008-0.228,0.065-0.432,0.174c-0.731,0.406-1.877,1.339-3.061,2.499
		c-0.782,0.763-1.493,1.545-2.006,2.202c-0.244,0.314-0.436,0.589-0.564,0.815c-0.064,0.11-0.11,0.203-0.142,0.282
		c-0.022,0.057-0.036,0.101-0.039,0.133c0.069,0.068,0.257,0.256,0.472,0.472l0.205,0.202l0.21,0.21
		c0.033-0.072,0.072-0.147,0.12-0.229c0.146-0.253,0.354-0.552,0.618-0.891C74.287,72.8,75.021,71.994,75.822,71.21z"/>
	<path fill="#FFFFFF" d="M84.773,74.036c-2.383-2.39-4.457-4.474-4.711-4.729c-0.087,0.006-0.227,0.063-0.434,0.175
		c-0.73,0.406-1.875,1.339-3.06,2.497c-0.782,0.765-1.493,1.546-2.005,2.202c-0.244,0.315-0.437,0.589-0.566,0.816
		c-0.063,0.108-0.109,0.202-0.14,0.282c-0.022,0.056-0.034,0.101-0.038,0.132c0.338,0.337,3.889,3.863,7.205,7.153l2.066,2.052
		l1.021,1.013c0.025-0.034,0.052-0.069,0.083-0.107c0.157-0.201,0.383-0.462,0.67-0.779c0.581-0.638,1.367-1.446,2.215-2.275
		c1.189-1.164,2.334-2.206,2.987-2.718c0.088-0.068,0.162-0.125,0.228-0.172l-3.4-3.412L84.773,74.036z"/>
	<path fill="#FFFFFF" d="M44.119,33.482c-0.029-0.029-0.08-0.048-0.154-0.051h-0.063c-0.144,0.005-0.34,0.059-0.576,0.157
		c-0.823,0.347-1.956,1.178-3.029,2.228c-0.729,0.713-1.355,1.45-1.809,2.126c-0.215,0.322-0.383,0.616-0.494,0.874
		c-0.107,0.247-0.162,0.45-0.162,0.601c-0.001,0.055,0.006,0.129,0.046,0.17c0.091,0.093,0.271,0.271,0.462,0.463
		c0.036-0.124,0.084-0.255,0.145-0.396c0.131-0.295,0.314-0.624,0.553-0.979c0.479-0.716,1.135-1.488,1.896-2.232
		c1.129-1.105,2.342-1.989,3.239-2.366c0.143-0.059,0.274-0.106,0.4-0.139C44.384,33.748,44.206,33.571,44.119,33.482z"/>
</g>
<path fill="#FFFFFF" d="M56.446,58.132c0.084-0.056,0.165-0.121,0.24-0.194c0.604-0.612,0.554-2.374-0.063-2.982l-1.603-1.584
	c-0.613-0.609-1.605-0.605-2.211,0.007c-0.18,0.182-0.3,0.465-0.367,0.788L56.446,58.132z"/>
</svg>
