<?xml version="1.0" encoding="utf-8"?>
<!-- Generator: Adobe Illustrator 15.0.0, SVG Export Plug-In . SVG Version: 6.00 Build 0)  -->
<!DOCTYPE svg PUBLIC "-//W3C//DTD SVG 1.1//EN" "http://www.w3.org/Graphics/SVG/1.1/DTD/svg11.dtd">
<svg version="1.1" id="Ebene_1" xmlns="http://www.w3.org/2000/svg" xmlns:xlink="http://www.w3.org/1999/xlink" x="0px" y="0px"
	 width="190px" height="190px" viewBox="0 0 190 190" enable-background="new 0 0 190 190" xml:space="preserve">
<g id="Kreise_1_">
	<path d="M134.197,38.654l-0.563-0.156c-0.266-1.908-0.791-3.783-0.791-3.783c1.396-5.171,0.574-5.91,0.574-5.91l-0.834-0.15
		l-0.037-4.079c1.498-0.024,1.608-0.243,1.608-0.243c0.287-1.93-0.655-2.217-0.655-2.217s-0.287-0.041-0.492-0.451
		c-0.082-0.232-0.245-0.383-0.409-0.481v-1.243l-0.863,0.041v1.098c-0.113,0.049-0.221,0.119-0.314,0.203
		c-0.293-0.188-0.676-0.371-1.146-0.547c0-0.002,0-0.006,0-0.008l-0.02,0.002c0,0,0,0,0-0.002h0.02
		c-0.002-0.016-0.004-0.031-0.006-0.047c0.732-0.346,1.063-0.729,1.06-1.191c-0.007-0.722-0.806-1.229-2.675-1.701
		c-1.493-0.376-3.631-0.711-6.354-0.995c-5.52-0.576-12.979-0.894-20.998-0.894c-0.762,0-1.535,0.003-2.303,0.008
		c-8.512,0.064-16.514,0.473-22.533,1.147c-2.941,0.331-5.254,0.708-6.875,1.122c-2.012,0.514-2.865,1.051-2.861,1.796
		c0.004,0.429,0.289,0.78,0.908,1.095c-0.545,0.217-0.963,0.443-1.25,0.674v-1.16l-0.914,0.051v1.197
		c-0.578,0.211-1.031,0.738-0.586,1.474c0.186,0.309,0.422,0.619,0.662,0.903l-0.016,4.455c-0.16,0.083-0.285,0.264-0.285,0.638
		c0,0-1.107,0-1.107,0.491c0,0.473,0.189,5.064,1.367,5.724v0.069l-0.834,0.035l-0.041,0.287c0,0,0.205,0.986-0.082,2.34
		c-0.287,1.354,0,2.586,0,2.586h-1.559L62.5,41.404h-0.658c0,0-0.451,0.533,0,1.066h0.863c0,0,0,0.575,0.328,0.658
		c0.328,0.081,1.148,0.163,1.148,0.163l-0.041,0.247l0.268,0.029l1.059,3.031l-0.004,0.868c-0.449,0.521-0.756,1.086-0.225,1.282
		c0,0-0.215,0.401,0.125,0.678v1.016h1.012c0.152,0.25,0.35,0.488,0.588,0.717c-0.023,0.125-0.035,0.251-0.033,0.376
		c0.02,2.646,5.023,4.359,9.219,5.333c3.074,0.713,6.697,1.254,10.656,1.607l0.947,2.022l0.025,0.036l1.529,1.469l4.242,6.147
		l0.014,0.017c0.006,0.004,0.063,0.061,0.162,0.124c0.301,0.224,0.703,0.24,0.703,0.24l2.412,0.037
		c-0.135,0.117-0.217,0.253-0.233,0.404c-0.023,0.2-0.039,0.624-0.056,1.009l-1.24-0.002c-0.105-0.283-0.252-0.535-0.324-0.627
		l-0.01-0.01l-0.049-0.037l-0.014-0.008c-0.09-0.032-0.246-0.044-0.408-0.044c-0.148,0-0.289,0.01-0.375,0.043l-0.014,0.007
		l-0.055,0.043l-0.008,0.004c-0.107,0.105-0.449,0.437-0.582,0.564c-0.043,0.043-0.07,0.104-0.068,0.169c0,0.045,0,1.125,0,1.343
		l0.008,0.057l0.021,0.043c0.191,0.227,0.484,0.289,0.752,0.289c0.354,0,0.674-0.107,0.727-0.123h0.316
		c-0.027,0.332-0.047,0.563-0.055,0.629l-0.002,0.033c0,0.082,0.035,0.162,0.094,0.234c0.201,0.244,0.686,0.443,1.363,0.602
		c0.279,0.065,0.592,0.119,0.928,0.166L97.52,74.18l-1.403-0.396c-0.171-0.048-0.337-0.06-0.492-0.046
		c-0.391-0.689-1.209-1.164-2.158-1.164c-1.326,0-2.4,0.924-2.4,2.063v2.348c-0.305-0.572-0.676-1.188-0.939-1.334
		c-0.051-0.029-0.166-0.021-0.178-0.018c-0.432,0.12-0.576,0.252-0.576,0.82c0,0.167,0.01,0.583,0.023,1.09
		c-0.164,0.118-0.229,0.301-0.229,0.675c0,0.161,0.01,0.551,0.021,1.03c-1.244,0.602,0.184,4.166,0.184,4.166
		s0.918,2.127,1.432,2.42c0.051,0.029,0.166,0.023,0.18,0.02c0.432-0.114,0.578-0.246,0.584-0.813
		c0.004-0.173-0.002-0.608-0.012-1.137c0.074,0,0.158-0.004,0.248-0.014v11.437c-0.773,0.149-1.279,0.39-1.279,0.661
		c0,0.34,0,7.602,0,7.921c0,0.208,0.299,0.397,0.787,0.543v16.339c-0.098,0.033-0.189,0.066-0.277,0.104l-0.807-0.191
		c-0.17-0.04-0.342-0.042-0.508-0.01c-0.275,0.055-1.094,0.545-1.25,0.66c-0.201,0.152-0.369,0.363-0.486,0.613
		c-0.51,0.313-1.264,0.984-1.721,2.379c0,0-0.205,0.575-0.615,0.944c-0.158,0.144-2.631,2.692-5.605,5.765
		c-0.227-0.053-0.465-0.033-0.682,0.072c-0.434,0.213-0.645,0.709-0.566,1.219c-3.703,3.829-7.771,8.043-9.039,9.356
		c-0.316-0.101-0.736-0.101-1.17,0.284c-0.725,0.645-4.168,4.172-5.367,5.404c-0.594,0.596-0.641,2.053,0.639,2.819
		c1.676,1.006,3.693,0.817,4.279,0.585c0.586-0.232,1.271-0.966,1.875-2.626c0.576-1.58,2.197-3.675,1.498-4.769
		c1.143-1.168,4.924-5.037,8.539-8.729c0.061,0.21,0.115,0.441,0.141,0.672c0.082,0.698,0.328,1.108,0.574,1.518
		c0.213,0.354,5.32,8.201,6.766,10.422c-0.086,0.77-0.17,1.544-0.254,2.314c-0.424,3.871-0.84,7.67-1.15,10.502
		c-0.223,2.028-0.391,3.555-0.469,4.262c-0.416,0.156-0.916,0.658-1.178,2.092c-0.492,2.709-1.969,9.05-2.031,9.355
		c-0.063,0.31-0.063,1.355,0.801,1.541c0.861,0.185,2.77,0.307,3.447,0.246c0.678-0.063,1.416-0.432,1.416-2.463
		s-0.246-7.389-0.246-8.064c0.021-0.832-0.354-1.861-0.826-2.383l0.004-0.019v-0.007c0,0,0.793-6.967,1.637-14.376l1.389,0.519
		c0,0.182,0,0.332,0,0.436c0,0.5,0.598,0.941,1.51,1.211v1.18c0,0.182,0.148,0.327,0.328,0.327c0.115,0,0.219-0.06,0.275-0.147
		c0.004-0.006,0.102-0.164,0.219-0.365h0.676v0.287c0,0.184,0.146,0.33,0.33,0.33c0.113,0,0.215-0.062,0.273-0.149
		c0.01-0.017,0.598-0.966,0.652-1.214c1.588-0.127,2.799-0.688,2.894-1.373l2.719-0.414c0,0,0.07-0.045,0.07-0.115
		c0-0.051,0-1.029,0-1.622c1.246-1.463,9.364-11.003,9.481-11.159c0.125-0.173,0.403-0.568,0.953-0.766
		c0.213-0.075,0.536-0.323,0.854-0.6c4.76,4.627,9.813,9.541,11.934,11.605c-0.477,1.201,1.379,3.268,1.934,4.934
		c0.615,1.847,1.355,2.678,2,2.955c0.648,0.275,2.895,0.555,4.803-0.492s0.924-2.217,0.924-2.217s-5.295-5.725-6.248-6.617
		c-0.539-0.506-1.077-0.448-1.442-0.307c-2.972-2.891-22.595-21.982-22.937-22.287c-0.328-0.287-0.737-0.41-0.942-0.574
		c-0.168-0.135-1.328-1.51-1.742-2.002c-0.032-0.041-0.063-0.086-0.104-0.123c-0.024-0.029-0.043-0.051-0.043-0.051
		c-0.01-0.004-0.02-0.004-0.026-0.008c-0.229-0.197-0.522-0.32-0.851-0.32h-1.754c-0.02,0-0.037,0.006-0.055,0.006
		c-0.201-0.137-0.459-0.258-0.762-0.36v-16.339c0.488-0.145,0.785-0.336,0.785-0.543c0-0.379,0-7.524,0-7.922
		c0-0.271-0.504-0.511-1.277-0.66V79.59l1.369,0.385c0,0.023,0,0.043-0.002,0.056c-0.025,0.436,0.709,0.833,1.643,0.889
		c0.932,0.054,1.707-0.255,1.732-0.69c0.006-0.079,0.02-0.404,0.037-0.854c0.375-0.031,0.68-0.22,0.764-0.515
		c0.107-0.388-0.203-0.816-0.703-1.007c0.02-0.463,0.037-0.937,0.055-1.364c0.32-0.056,0.572-0.237,0.648-0.501
		c0.1-0.358-0.156-0.751-0.588-0.961c0.002-0.023,0.002-0.047,0.004-0.062c0.012-0.191-0.125-0.374-0.357-0.524l0.078-1.763
		c0.115-0.045,0.221-0.095,0.31-0.152c0.077,0.139,0.215,0.351,0.44,0.596c0.027,0.028,0.068,0.092,0.15,0.145
		c0.084,0.05,0.207,0.087,0.404,0.087c0.063,0,0.137-0.004,0.219-0.012c0.297-0.031,0.68-0.134,0.998-0.267
		c0.158-0.067,0.303-0.142,0.41-0.222c0.107-0.081,0.188-0.166,0.201-0.271c0.008-0.074,0.026-0.299,0.053-0.627
		c0.096,0.003,0.182,0.004,0.246,0.004c0.107,0,0.199-0.061,0.271-0.143c0.218-0.25,0.326-0.738,0.328-1.043
		c0-0.195-0.021-0.393-0.065-0.563c-0.047-0.168-0.119-0.313-0.236-0.396c-0.105-0.073-0.439-0.268-0.75-0.447l-0.045-0.026
		c0.043-0.114,0.074-0.231,0.1-0.353c0.152-0.237,0.309-0.493,0.414-0.703c0,0,0.326-0.698,2.256-1.765
		c0.494-0.328,0.738-0.657,0.738-0.657l1.643-2.462c0,0,0.125-0.471,0.047-0.945c-0.01-0.068,0.115-0.438,0.115-0.438l1.697-2.441
		l6.738-0.486c0,0,0.246,0,0.432-0.184c0.234-0.117,1.367-1.463,3.289-1.16c0.18,0.056,6.191-0.748,6.432-0.783
		c0.277-0.082,0.355-0.297,0.314-0.72c0,0-0.076-0.559-0.186-1.396c0.256-0.113,0.58-0.26,0.811-0.375c0.012,0,0.023,0,0.033,0
		c0.273-0.006,0.494-0.086,0.492-0.182l-0.002-0.004l-0.002-0.091c1.756-0.976,2.676-2.042,2.666-3.144
		c0-0.117-0.015-0.231-0.033-0.345c0.438-0.428,0.74-0.888,0.867-1.38c0.647,0.184,0.914-0.21,0.914-0.21l-0.041-0.533
		c0.123-0.041,0.123-0.862,0.123-0.862l0.409-0.535c-0.137-0.364-0.414-0.603-0.633-0.742l-0.052-5.522
		c0.746-0.22,1.095-0.547,1.095-0.547c0-0.263-0.015-0.54-0.035-0.825l0.199,0.045C134.32,39.105,134.197,38.654,134.197,38.654z
		 M65.469,45.86l-0.795-2.272l0.418,0.021l0.381,0.977L65.469,45.86z M65.477,43.914l-0.119-0.303l0.121-0.046L65.477,43.914z
		 M68.518,44.313c-0.996,0.541-1.766,1.15-2.172,1.831l-0.137-0.354l0.008-2.294c0.18-0.006,0.674-0.037,0.674-0.205
		c0-0.206,0-0.616,0-0.616l1.627-0.146V44.313z M68.518,28.181c-0.402,0.05-0.922,0.169-1.258,0.46
		c-0.463,0.402-0.834,0.222-0.988,0.108l0.012-3.372c0.414,0.399,1.148,0.763,2.234,1.112V28.181z M90.541,147.424l-0.385-0.115
		c-0.215-0.33-0.553-0.854-0.969-1.502c0.025-0.225,0.051-0.447,0.076-0.67l0.076,0.02c0.031,0.584,0.707,1.046,1.047,1.322
		c0.225,0.186,0.422,0.521,0.529,0.723C90.775,147.27,90.65,147.344,90.541,147.424z M91.311,143.762l-0.986-1.007
		c-0.029-0.463-0.43-0.647-0.43-0.647h-0.287c0.57-5.008,1.016-8.938,1.045-9.209c0.035-0.334,0.127-0.69,0.268-0.953
		c0.07-0.131,0.154-0.237,0.242-0.309c0.047-0.037,0.096-0.064,0.148-0.08V143.762z M91.311,128.205
		c-0.166,0.229-0.375,0.514-0.586,0.804c-0.477,0.653-0.967,1.328-1.035,1.425c-0.064,0.092-0.182,0.256-0.293,0.592
		c-0.113,0.338-0.225,0.854-0.303,1.684c-0.076,0.842-0.584,5.548-1.189,11.105c-2.266-3.516-5.26-8.16-5.336-8.262
		c-0.123-0.164-0.41-0.535-0.451-1.109c-0.021-0.297-0.275-0.873-0.516-1.355c3.16-3.225,5.85-5.964,6.016-6.111
		c0.41-0.371,0.615-0.945,0.615-0.945c0.256-0.783,0.682-1.35,1.127-1.762l0.707,0.168c0,0.135,0,0.248,0,0.328
		c0,0.426,0.482,0.805,1.244,1.063V128.205z M95.988,125.826c0.717-0.242,1.184-0.596,1.234-0.99
		c0.434-0.006,1.071-0.02,1.686-0.051c0.469,0.551,0.992,1.156,1.104,1.244c0.205,0.164,0.613,0.287,0.943,0.574
		c0.152,0.138,4.139,4.008,8.773,8.515c-0.211,0.137-0.457,0.278-0.709,0.384c-0.658,0.271-0.99,0.637-1.32,1.001
		c-0.303,0.331-8.328,9.718-9.734,11.36H97.16c-0.16-0.327-0.584-0.616-1.172-0.828V125.826z M97.93,64.789
		c-0.318,0.088-0.574,0.216-0.727,0.379c-0.639,0-1.49,0-2.238,0l-3.336-4.85l-0.01-0.013l-1.197-1.313l-0.061-0.253
		c1.078,0.064,2.178,0.112,3.291,0.148c0.012,0.36,0.082,0.703,0.305,0.76c0.492,0.122,3.201-0.063,3.633,0.062
		c0.111,0.031,0.313,0.098,0.559,0.175L97.93,64.789z M101.668,69.987l-0.43-0.001c0.008-0.165,0.016-0.312,0.025-0.415
		c0.231,0.075,0.44,0.122,0.6,0.151C101.787,69.893,101.699,69.965,101.668,69.987z M106.289,60.487c0,0-0.123,0.248-0.082,0.411
		c0.043,0.164,0.205,0.617,0.205,0.617l-1.682,2.256c0,0-2.176,1.354-2.627,2.093l0.051,0.236l-0.379-0.317c0,0,0-1.15,0-1.273
		c0-0.121-0.246-0.246-0.246-0.246l-0.982-0.089l0.174-3.911c0.353,0.125,1.141,0.41,1.424,0.553c0.369,0.185,0.861,0,0.924-0.185
		c0,0,0.738,0.185,0.925-0.062c0.185-0.246,0.062-0.555,0.062-0.555l2.672-0.193L106.289,60.487z M131.822,26.047l0.021,2.475
		l-0.93-0.168c0,0,0,0-0.164-0.123c-0.067-0.05-0.278-0.052-0.506-0.039L131.822,26.047z M129.994,26.068
		c0.178-0.064,0.344-0.131,0.5-0.197l-0.5,0.452V26.068z M130.438,44.417c-0.141-0.096-0.289-0.188-0.442-0.282v-2.313
		c0.935-0.256,1.412-0.705,1.412-0.705c0.196-0.006,0.379-0.02,0.551-0.041l0.037,4.198C131.6,45.007,130.932,44.662,130.438,44.417
		z"/>
	<g>
		<path fill="#FFFFFF" d="M109.703,46.502c-0.268,0.408-0.621,0.892-0.953,1.181c0.42,0.016,0.926,0,1.354-0.021v-0.051
			c-0.094-0.018-0.149-0.035-0.162-0.039c-0.088-0.031-0.149-0.107-0.162-0.199C109.746,47.128,109.723,46.831,109.703,46.502z"/>
		<path fill="#FFFFFF" d="M112.707,35.469c-0.004-0.271-0.156-0.621-0.367-0.975c0.059,1.756-0.031,3.142-0.15,4.149
			C112.492,37.291,112.707,35.469,112.707,35.469z"/>
		<path fill="#FFFFFF" d="M112.736,45.768c-0.023-1.654-0.609-4.19-0.875-5.266c-0.01,0.035-0.019,0.064-0.023,0.087
			c0.395,2.266,0.516,4.029,0.545,5.185L112.736,45.768z"/>
		<path fill="#FFFFFF" d="M109.688,40.498c0.354-0.787,0.449-4.731,0.449-4.731c-0.131-0.429-1.846-3.021-1.846-3.021l-0.307,0.135
			c0.207,2.705,0.016,14.68,0.016,14.68l0.313,0.116c0.58-0.196,1.59-1.971,1.59-1.971S110.18,42.541,109.688,40.498z"/>
		<path fill="#FFFFFF" d="M111.584,40.576c0,0,0.705-2.289,0.486-6.688c0,0-0.766,0.256-2.123,0.031c0,0-0.033,0.33-0.074,0.85
			c0.254,0.42,0.455,0.775,0.5,0.925c0.008,0.024,0.012,0.052,0.01,0.078c-0.01,0.39-0.1,3.694-0.424,4.697
			c0.006,0.021,0.01,0.046,0.014,0.067c0,0-0.002,0.037-0.002,0.097c0.437,2.054,0.189,4.968,0.178,5.094
			c-0.002,0.036-0.014,0.069-0.03,0.101c-0.035,0.063-0.101,0.173-0.185,0.313c0.019,0.465,0.047,0.88,0.09,1.199
			c0,0,0.588,0.207,2.093-0.031C112.115,47.309,112.324,44.781,111.584,40.576z"/>
		<path fill="#FFFFFF" d="M111.459,47.762V47.76c0-0.002,0-0.121,0-0.121c-0.193,0.018-0.377,0.027-0.551,0.031
			c-0.303,0.003-0.525-0.016-0.682-0.037l0.002,0.105c0,0,0.006,0.057,0.012,0.068c0.047,0.109,0.303,0.19,0.609,0.187
			C111.18,47.988,111.445,47.887,111.459,47.762z"/>
		<path fill="#FFFFFF" d="M67.326,49.336c-0.309-0.239-0.574-0.49-0.779-0.754c-0.026,0.059-0.047,0.118-0.065,0.178l0.742,2.127
			c0.271,0.263,0.609,0.519,1.006,0.768L67.326,49.336z"/>
		<path fill="#FFFFFF" d="M66.789,50.383l-0.387-1.104C66.406,49.656,66.537,50.023,66.789,50.383z"/>
		<path fill="#FFFFFF" d="M66.418,47.006C66.406,47.08,66.4,47.155,66.4,47.23c0.004,0.46,0.223,0.908,0.627,1.341L66.418,47.006z"
			/>
		<path fill="#FFFFFF" d="M69.672,53.255c0-0.087,0.016-0.261,0.029-0.412c-0.66-0.287-1.268-0.6-1.787-0.938
			c0.188,0.826,0.973,1.612,2.256,2.335l-0.006-0.698C69.873,53.484,69.672,53.378,69.672,53.255z"/>
		<path fill="#FFFFFF" d="M70.15,46.078l0.035,4.023c-1.668-0.833-2.637-1.794-2.645-2.881c-0.004-0.636,0.322-1.254,0.977-1.84
			v-0.643c-1.043,0.593-1.727,1.219-1.992,1.868l0.918,2.353c0.643,0.523,1.572,1.02,2.744,1.482l0.004,0.397
			c-0.951-0.366-1.811-0.778-2.498-1.239l0.881,2.262c0.367,0.21,0.785,0.415,1.238,0.613c0.086-0.066,0.223-0.122,0.393-0.158v0.02
			l0.186-0.002l-0.057-6.217C70.27,46.107,70.205,46.096,70.15,46.078z"/>
		<path fill="#FFFFFF" d="M95.988,121.234v0.389c0.016,0.042,0.025,0.085,0.025,0.13c0,0.044-0.011,0.087-0.025,0.13v0.042h-0.016
			c-0.209,0.431-1.168,0.755-2.325,0.755c-1.154,0-2.115-0.324-2.322-0.755H91.31v-0.042c-0.016-0.043-0.027-0.086-0.027-0.13
			c0-0.045,0.012-0.088,0.027-0.13v-0.389c-0.305,0.177-0.482,0.39-0.482,0.619c0,0.609,1.262,1.104,2.82,1.104
			s2.823-0.494,2.823-1.104C96.471,121.624,96.293,121.411,95.988,121.234z"/>
		<path fill="#FFFFFF" d="M91.803,95.529c-0.432,0.119-0.697,0.281-0.697,0.459c0,0.369,1.139,0.668,2.543,0.668
			c1.406,0,2.542-0.299,2.542-0.668c0-0.178-0.264-0.34-0.694-0.459v0.283c0.017,0.024,0.026,0.053,0.026,0.08
			c0,0.271-0.839,0.491-1.875,0.491s-1.873-0.221-1.873-0.491c0-0.027,0.01-0.056,0.027-0.08V95.529z"/>
		<path fill="#FFFFFF" d="M95.988,147.506v0.342c0.016,0.043,0.025,0.086,0.025,0.131c0,0.51-1.06,0.926-2.366,0.926
			c-1.305,0-2.365-0.416-2.365-0.926c0-0.045,0.012-0.088,0.027-0.131v-0.342c-0.305,0.188-0.482,0.412-0.482,0.654
			c0,0.646,1.262,1.17,2.82,1.17s2.823-0.523,2.823-1.17C96.471,147.918,96.293,147.693,95.988,147.506z"/>
		<path fill="#FFFFFF" d="M100.086,74.673l-0.004,0.107c0.037,0.04,0.057,0.081,0.055,0.121c-0.014,0.216-0.613,0.407-1.357,0.362
			c-0.743-0.046-1.352-0.312-1.338-0.527c0.002-0.039,0.023-0.073,0.06-0.104l0.006-0.108c-0.114,0.074-0.185,0.162-0.188,0.26
			c-0.021,0.317,0.623,0.615,1.434,0.666c0.811,0.049,1.484-0.168,1.504-0.486C100.26,74.863,100.199,74.764,100.086,74.673z"/>
		<path fill="#FFFFFF" d="M100.5,65.213l-0.008,0.16c0.037,0.035,0.055,0.073,0.053,0.111c-0.012,0.203-0.625,0.33-1.371,0.285
			c-0.744-0.047-1.336-0.248-1.324-0.451c0.002-0.035,0.023-0.069,0.063-0.1l0.006-0.162c-0.116,0.074-0.188,0.162-0.192,0.262
			c-0.021,0.318,0.623,0.615,1.434,0.666c0.811,0.05,1.484-0.168,1.504-0.484C100.668,65.399,100.609,65.302,100.5,65.213z"/>
		<path fill="#FFFFFF" d="M73.369,45.744c-0.043-0.751-0.326-5.744-0.326-9.824c0-1.709,0.049-3.253,0.188-4.27l-0.246,0.022
			l-2.242,2.603v0.004c-0.004,0.025-0.008,0.066-0.012,0.12c-0.01,0.106-0.02,0.27-0.02,0.489c0,0.693,0.092,1.949,0.566,3.776
			l0.002,0.052c0,0.002-0.031,0.18-0.08,0.474c-0.049,0.293-0.113,0.7-0.178,1.154c-0.131,0.905-0.26,2.003-0.258,2.743
			c0,0.168,0.008,0.314,0.021,0.436l2.299,2.299L73.369,45.744z"/>
		<path fill="#FFFFFF" d="M70.451,31.691c-0.33,0.008-0.596,0.11-0.607,0.234l0,0v0.002c0,0.004-0.002,0.006-0.002,0.01
			c0,0.002,0.002,0.004,0.002,0.007l0.004,0.449c0.113,0.018,0.221,0.043,0.322,0.077c0.037,0.012,0.068,0.035,0.094,0.062
			c0.309-0.081,0.576-0.157,0.816-0.23l-0.006-0.389H71.07l0,0C71.068,31.783,70.791,31.685,70.451,31.691z"/>
		<path fill="#FFFFFF" d="M70.396,44.92L70.396,44.92l0.002,0.002l0.014,0.012c0.016,0.01,0.039,0.025,0.072,0.045
			c0.068,0.038,0.18,0.094,0.344,0.152c0.303,0.109,0.787,0.232,1.516,0.299l-1.764-1.764c-0.02-0.018-0.033-0.043-0.035-0.07
			c-0.02-0.146-0.027-0.316-0.027-0.508c0-1.447,0.467-4.107,0.516-4.389c-0.475-1.83-0.568-3.1-0.568-3.811
			c0-0.453,0.037-0.681,0.039-0.688c0.004-0.021,0.014-0.043,0.027-0.06l1.736-2.016c-0.383,0.174-0.99,0.396-1.934,0.642
			c-0.027,0.495-0.238,4.688,0.348,5.858c0.021,0.045,0.029,0.093,0.023,0.142c-0.006,0.047-0.582,4.655-0.314,6.15
			C70.393,44.918,70.395,44.92,70.396,44.92z"/>
		<path fill="#FFFFFF" d="M71.232,45.656h0.002v-0.002c0-0.002,0.002-0.006,0.002-0.008c0-0.004-0.002-0.006-0.004-0.008
			l-0.002-0.133c-0.473-0.113-0.744-0.242-0.881-0.321c-0.021,0.026-0.047,0.05-0.078,0.067C70.253,45.259,70.15,45.31,70,45.349
			l0.002,0.322h0.004l0,0c0.004,0.127,0.279,0.227,0.619,0.219C70.957,45.884,71.221,45.779,71.232,45.656z"/>
		<path fill="#FFFFFF" d="M70.092,32.704c-0.615-0.206-1.271,0-1.271,0c0,2.913,0.861,6.114,0.861,6.114
			c-0.986,3.324-0.596,6.109-0.596,6.109c0.451,0.422,1.074,0.104,1.074,0.104c-0.309-1.481,0.301-6.296,0.301-6.296
			C69.805,37.424,70.092,32.704,70.092,32.704z"/>
		<path fill="#FFFFFF" d="M125.318,45.375l2.26-2.335c0.012-0.122,0.018-0.269,0.016-0.436c-0.012-0.741-0.158-1.835-0.303-2.739
			c-0.072-0.453-0.145-0.859-0.197-1.152c-0.052-0.293-0.088-0.47-0.088-0.47v-0.054c0.445-1.835,0.516-3.091,0.506-3.785
			c-0.004-0.219-0.016-0.381-0.027-0.49c-0.004-0.053-0.01-0.093-0.014-0.118v-0.004l-2.285-2.565h-0.387
			c0.156,1.014,0.219,4.529,0.246,6.238c0.066,4.078-0.133,7.107-0.164,7.859L125.318,45.375z"/>
		<path fill="#FFFFFF" d="M127.732,38.281c-0.006-0.048,0-0.098,0.021-0.141c0.565-1.181,0.287-5.369,0.252-5.863
			c-0.946-0.23-1.709-0.442-2.096-0.609l1.769,1.986c0.016,0.018,0.024,0.038,0.03,0.061c0,0.006,0.041,0.234,0.049,0.687
			c0.013,0.711-0.063,1.98-0.506,3.819c0.056,0.28,0.563,2.932,0.588,4.379c0.002,0.191-0.004,0.363-0.021,0.508
			c-0.004,0.027-0.016,0.052-0.032,0.071l-1.736,1.792c0.709-0.051,1.688-0.258,2.101-0.441
			C128.447,43.21,127.74,38.329,127.732,38.281z"/>
		<path fill="#FFFFFF" d="M128.393,45.175L128.393,45.175h0.004l-0.004-0.255c-0.151-0.035-0.256-0.084-0.272-0.092
			c-0.033-0.016-0.058-0.041-0.078-0.066c-0.138,0.081-0.379,0.119-0.851,0.239l-0.026,0.16c0,0.003-0.002,0.006-0.002,0.009
			s0.002,0.005,0.002,0.009v0.002h0.002c0.015,0.122,0.28,0.222,0.61,0.224C128.115,45.405,128.393,45.303,128.393,45.175z"/>
		<path fill="#FFFFFF" d="M129.279,32.189c0,0-0.451-0.194-1.063,0.021c0,0,0.363,4.714-0.271,6.037c0,0,0.688,4.803,0.404,6.291
			c0,0,0.418,0.306,0.86-0.123c0,0,0.347-2.791-0.692-6.099C128.518,38.317,129.326,35.104,129.279,32.189z"/>
		<path fill="#FFFFFF" d="M86.879,33.838l-0.002-0.234c-0.053,0.067-0.105,0.137-0.16,0.211
			C86.762,33.822,86.818,33.83,86.879,33.838z"/>
		<path fill="#FFFFFF" d="M88.602,33.766c0.041,0.006,0.082,0.018,0.115,0.043c0.055,0.041,0.09,0.102,0.098,0.17
			c0.004,0.035,0.025,0.223,0.055,0.516c0.363-0.605,0.773-1.255,1.002-1.613c-0.391-0.029-0.984-0.043-1.656,0.031
			c0.191,0.063,0.344,0.172,0.377,0.344l0.008,0.063l-0.002,0.031L88.602,33.766z"/>
		<path fill="#FFFFFF" d="M88.938,47.456c-0.01,0.091-0.072,0.171-0.158,0.202c-0.014,0.004-0.068,0.021-0.164,0.042l0.002,0.05
			c0.428,0.014,0.936,0.021,1.354,0.001c-0.336-0.283-0.695-0.762-0.971-1.167C88.986,46.914,88.967,47.211,88.938,47.456z"/>
		<path fill="#FFFFFF" d="M86.186,34.617c-0.203,0.356-0.354,0.709-0.354,0.98c0,0,0.244,1.818,0.566,3.166
			C86.264,37.757,86.154,36.373,86.186,34.617z"/>
		<path fill="#FFFFFF" d="M86.779,40.703c-0.008-0.021-0.014-0.052-0.025-0.087c-0.25,1.081-0.799,3.626-0.799,5.28h0.355
			C86.322,44.74,86.418,42.975,86.779,40.703z"/>
		<path fill="#FFFFFF" d="M90.41,47.739l0.309-0.122c0,0-0.369-11.971-0.201-14.679l-0.309-0.13c0,0-1.678,2.617-1.803,3.047
			c0,0,0.156,3.943,0.521,4.725c-0.461,2.05-0.139,5.211-0.139,5.211S89.826,47.552,90.41,47.739z"/>
		<path fill="#FFFFFF" d="M88.693,47.427c0.037-0.32,0.061-0.735,0.072-1.2c-0.086-0.139-0.154-0.249-0.189-0.311
			c-0.018-0.029-0.029-0.064-0.033-0.1c-0.012-0.127-0.301-3.036,0.105-5.096c-0.004-0.061-0.006-0.097-0.006-0.097
			c0.004-0.021,0.008-0.044,0.014-0.067c-0.34-0.998-0.48-4.301-0.496-4.691c0-0.025,0.004-0.052,0.01-0.077
			c0.043-0.151,0.238-0.51,0.486-0.933c-0.047-0.52-0.086-0.85-0.086-0.85c-1.354,0.247-2.123,0-2.123,0
			c-0.154,4.402,0.584,6.68,0.584,6.68c-0.678,4.218-0.432,6.741-0.432,6.741C88.109,47.643,88.693,47.427,88.693,47.427z"/>
		<path fill="#FFFFFF" d="M87.123,33.318v0.002h-0.002l0.004,0.54c0.09,0.005,0.186,0.009,0.293,0.009
			c0.297,0,0.613-0.03,0.938-0.081l-0.004-0.46c0-0.004,0.002-0.006,0.002-0.01c0-0.002-0.002-0.004-0.002-0.008v-0.002l0,0
			c-0.016-0.123-0.283-0.221-0.613-0.221C87.398,33.088,87.123,33.191,87.123,33.318z"/>
		<path fill="#FFFFFF" d="M87.875,48.035c0.338,0,0.6-0.143,0.613-0.232c0.006-0.045,0.006-0.08,0.006-0.08
			c-0.156,0.024-0.379,0.047-0.68,0.047c-0.174,0-0.359-0.008-0.553-0.022c0,0,0,0.062,0,0.063v0.004l0,0
			C87.277,47.938,87.543,48.035,87.875,48.035z"/>
		<path fill="#FFFFFF" d="M71.129,52.316c0.293,0.062,0.492,0.181,0.492,0.317c0,0.118-0.027,0.366-0.037,0.522
			c3.66,1.242,9.035,2.2,15.393,2.719c0.004-0.164,0.287-0.299,0.676-0.344l-0.051-7.326c-0.029-0.006-0.059-0.01-0.088-0.016
			c-0.035-0.01-0.066-0.021-0.098-0.033l0.041,5.778c-4.449-0.325-8.518-0.859-11.92-1.583c-1.457-0.309-3.004-0.7-4.42-1.18
			l-0.002-0.391c3.17,1.09,7.762,1.967,13.242,2.516c-5.432-0.576-10.188-1.509-13.246-2.775l-0.039-4.455
			c-0.059,0.02-0.121,0.035-0.184,0.047l0.055,6.215l0.186-0.002V52.316z"/>
		<path fill="#FFFFFF" d="M111.635,33.492l0.002,0.232c0.059-0.008,0.115-0.016,0.16-0.024
			C111.74,33.627,111.688,33.558,111.635,33.492z"/>
		<path fill="#FFFFFF" d="M110.609,55.314l-0.053-7.133c-0.095-0.004-0.187-0.047-0.187-0.047l0.043,5.654
			c-3.58,0.307-7.399,0.483-11.328,0.512c-0.394,0.004-0.78,0.006-1.17,0.006c-3.289,0-6.494-0.106-9.535-0.307l-0.041-5.841
			c-0.057,0.021-0.117,0.036-0.186,0.048l0.053,7.324c0.391,0.045,0.678,0.182,0.678,0.346c0,0.036-0.002,0.085-0.006,0.139
			c3.211,0.212,6.646,0.313,10.209,0.285c3.802-0.027,7.447-0.2,10.838-0.491c0.005-0.058,0.007-0.11,0.007-0.147
			c0-0.137,0.198-0.256,0.491-0.318v0.001C110.482,55.333,110.545,55.322,110.609,55.314z"/>
		<path fill="#FFFFFF" d="M128.893,52.307c0.002,0.141,0.051,0.486,0.055,0.619c0.003,0.123-0.196,0.232-0.487,0.295l0.004,0.256
			c0.945-0.638,1.529-1.313,1.688-2.01c-0.391,0.26-0.83,0.505-1.303,0.736C128.873,52.236,128.893,52.271,128.893,52.307z"/>
		<path fill="#FFFFFF" d="M128.316,50.245l-0.004-0.401c2.147-0.943,3.356-1.997,3.348-3.104c-0.006-0.764-0.592-1.495-1.666-2.174
			v0.848c0.346,0.429,0.521,0.878,0.525,1.335c0.008,1.047-0.873,1.943-2.211,2.703l-0.041-3.864
			c-0.058,0.019-0.119,0.032-0.187,0.042l0.067,6.337c0.047,0.003,0.09,0.01,0.134,0.016c0.034,0.004,0.069,0.008,0.104,0.015
			c2.104-0.979,3.284-2.066,3.276-3.211c-0.002-0.226-0.054-0.449-0.146-0.668C130.891,48.936,129.729,49.643,128.316,50.245z"/>
		<path fill="#FFFFFF" d="M130.273,22.371v0.002c0,0.152-0.076,0.295-0.197,0.419c-0.119,0.125-0.287,0.238-0.502,0.351
			c-0.361,0.188-0.859,0.367-1.482,0.539c0.248,0.055,0.416,0.15,0.418,0.262c0,0.055,0.01,0.15,0.021,0.252
			c2.127-0.56,3.318-1.183,3.311-1.836c-0.006-0.44-0.557-0.862-1.568-1.256c0,0.309-0.002,0.713-0.002,0.996
			C130.271,22.215,130.271,22.31,130.273,22.371L130.273,22.371L130.273,22.371z"/>
		<path fill="#FFFFFF" d="M126.662,24.622c-0.002-0.007-0.006-0.013-0.006-0.019c-0.004-0.126-0.041-0.413-0.053-0.568
			c-1.47,0.304-3.345,0.583-5.547,0.83c-2.736,0.307-5.98,0.564-9.576,0.755c0.098,0.052,0.156,0.112,0.156,0.177
			c0,0.101-0.023,0.32-0.035,0.484C117.818,25.928,123.066,25.346,126.662,24.622z"/>
		<path fill="#FFFFFF" d="M97.912,26.652c0.389,0,0.777,0,1.172-0.002c3.711-0.018,7.277-0.111,10.604-0.27
			c0.004-0.162,0.041-0.466,0.041-0.584c0-0.031,0.013-0.062,0.037-0.092c-3.34,0.153-6.947,0.25-10.713,0.279
			c-0.758,0.006-1.51,0.008-2.254,0.008c-2.828,0-5.553-0.039-8.123-0.116c0.002,0.006,0.004,0.01,0.004,0.015
			c0,0.125-0.035,0.436-0.041,0.591C91.568,26.592,94.68,26.652,97.912,26.652z"/>
		<path fill="#FFFFFF" d="M99.053,23.06c14.896-0.11,27.391-1.276,30.836-2.751c-1.984-1.586-15.059-2.725-30.887-2.606
			c-15.809,0.119-28.855,1.45-30.836,3.064C71.617,22.19,84.139,23.172,99.053,23.06z"/>
		<path fill="#FFFFFF" d="M66.668,22.742c0.775,0.272,1.016,0.924,1.076,1.146c0.48,0.19,1.066,0.374,1.754,0.549
			c0.004-0.067,0.008-0.128,0.008-0.167c0-0.083,0.092-0.158,0.24-0.217c-0.256-0.07-0.49-0.144-0.697-0.219
			c-0.512-0.185-0.873-0.375-1.084-0.596c-0.111-0.119-0.182-0.254-0.184-0.402c0-0.062,0-0.16,0-0.279
			c0-0.318,0.002-0.787,0.002-1.1c0-0.031,0-0.059-0.002-0.085c-0.545,0.218-0.951,0.44-1.215,0.671
			C66.717,22.342,66.668,22.742,66.668,22.742z"/>
		<path fill="#FFFFFF" d="M86.734,26.4c0.006-0.09,0.016-0.197,0.023-0.295c0.004-0.035,0.006-0.068,0.008-0.1
			c0-0.01,0.002-0.019,0.002-0.027c0.002-0.033,0.004-0.065,0.004-0.088c0-0.014,0.002-0.026,0.006-0.04
			c0.006-0.013,0.014-0.024,0.021-0.036c-2.725-0.104-5.25-0.245-7.51-0.422c-3.236-0.255-5.922-0.58-7.883-0.958
			c-0.004,0.042-0.006,0.085-0.01,0.13c-0.01,0.107-0.018,0.214-0.021,0.288C75.023,25.559,80.387,26.104,86.734,26.4L86.734,26.4z"
			/>
		<path fill="#FFFFFF" d="M69.471,24.786c-0.305-0.077-0.592-0.156-0.857-0.235c-0.719-0.217-1.287-0.439-1.719-0.674l-0.15-0.015
			v1.449c0.6,0.438,1.705,0.85,3.227,1.226l0.043,4.975c0.061-0.018,0.121-0.031,0.186-0.043l-0.055-6.23
			c-0.066-0.008-0.127-0.018-0.186-0.031v0.002c-0.01-0.002-0.016-0.004-0.023-0.006c-0.027-0.006-0.051-0.012-0.076-0.019
			c-0.025-0.007-0.047-0.015-0.07-0.023c-0.027-0.009-0.053-0.019-0.078-0.028c-0.02-0.01-0.039-0.018-0.059-0.027
			c-0.012-0.006-0.025-0.014-0.037-0.021c-0.027-0.015-0.051-0.031-0.07-0.05c-0.004-0.003-0.008-0.007-0.01-0.01
			c-0.018-0.018-0.031-0.034-0.043-0.052c-0.004-0.006-0.006-0.012-0.01-0.018c-0.01-0.021-0.016-0.042-0.016-0.064
			C69.467,24.863,69.469,24.826,69.471,24.786L69.471,24.786z"/>
		<path fill="#FFFFFF" d="M87.275,32.822c0.059-0.014,0.123-0.025,0.184-0.037l-0.049-5.928c-0.166-0.019-0.311-0.053-0.426-0.101
			c-4.301-0.196-8.234-0.509-11.543-0.925c-1.654-0.208-3.107-0.438-4.348-0.684c-0.004,0.001-0.006,0.002-0.01,0.003
			c-0.029,0.011-0.063,0.021-0.098,0.031c-0.086,0.024-0.184,0.042-0.289,0.056l0.057,6.229c0.066,0.01,0.129,0.023,0.184,0.043
			l-0.043-4.759c3.742,0.808,9.486,1.429,16.344,1.749L87.275,32.822z"/>
		<path fill="#FFFFFF" d="M68.09,22.834c0,0.049,0.021,0.109,0.1,0.192c0.076,0.081,0.207,0.177,0.385,0.271
			c0.301,0.158,0.742,0.319,1.299,0.473l-0.006-0.846l-0.002-0.004v-0.008c0-0.002,0.002-0.003,0.002-0.004l-0.002-0.051h0.016
			c0.01-0.023,0.027-0.045,0.045-0.06c0.035-0.027,0.076-0.048,0.125-0.064c0.1-0.034,0.229-0.054,0.369-0.054
			c0.215,0.002,0.395,0.041,0.494,0.118c0.033,0.026,0.061,0.063,0.063,0.114v0.009l-0.002,0.005l0.008,1.01
			c0.188,0.041,0.334,0.101,0.422,0.186c1.314,0.258,2.975,0.49,4.92,0.693c3.002,0.314,6.686,0.555,10.814,0.703l-0.008-0.975
			L87.13,24.54v-0.01v-0.002v-0.051h0.016c0.012-0.023,0.027-0.045,0.047-0.061c0.033-0.027,0.074-0.047,0.125-0.064
			c0.098-0.033,0.227-0.053,0.367-0.053c0.215,0.001,0.396,0.039,0.494,0.117c0.033,0.026,0.063,0.065,0.063,0.113v0.01
			l-0.002,0.006l0.01,1.008l0.004,0.002c2.693,0.082,5.561,0.129,8.547,0.129c0.742,0,1.494-0.004,2.252-0.01
			c3.891-0.029,7.611-0.131,11.043-0.293l-0.008-0.933l-0.002-0.003v-0.009c0-0.001,0.002-0.002,0.002-0.003v-0.049h0.014
			c0.012-0.024,0.027-0.046,0.047-0.062c0.033-0.027,0.076-0.048,0.125-0.065c0.099-0.033,0.228-0.052,0.369-0.052
			c0.213,0.001,0.396,0.038,0.494,0.117c0.033,0.026,0.061,0.065,0.063,0.113v0.01l-0.002,0.005l0.008,0.874
			c2.358-0.123,4.571-0.272,6.592-0.449c3.906-0.339,7.093-0.769,9.229-1.248l-0.012-1v-0.005v-0.008V22.61
			c0-0.049,0.027-0.088,0.062-0.113c0.03-0.028,0.073-0.049,0.123-0.066c0.096-0.035,0.225-0.058,0.364-0.061h0.033
			c0.203,0.002,0.373,0.035,0.467,0.11c0.021,0.016,0.035,0.037,0.047,0.062h0.013l0.002,0.045c0,0.001,0,0.002,0,0.003v0.009v0.003
			l0.008,0.746c0.244-0.069,0.472-0.141,0.671-0.212c0.532-0.189,0.897-0.393,1.055-0.561l0,0c0.086-0.091,0.109-0.154,0.109-0.205
			v-0.002c0-0.061-0.003-0.156-0.003-0.271l0.003-1.1c0-0.047,0-0.087,0-0.123c-0.402,0.161-0.894,0.314-1.484,0.466
			c-1.625,0.416-3.941,0.794-6.885,1.124c-6.021,0.676-14.025,1.084-22.539,1.147c-0.769,0.006-1.543,0.009-2.308,0.009
			c-8.02,0-15.479-0.317-21.002-0.895c-2.723-0.284-4.863-0.619-6.361-0.998c-0.512-0.128-0.938-0.26-1.297-0.398
			c0,0.037,0,0.078,0,0.125c0,0.313-0.002,0.781-0.002,1.1C68.088,22.676,68.09,22.774,68.09,22.834z"/>
		<path fill="#FFFFFF" d="M127.459,52.021c0.045-0.012,0.09-0.021,0.139-0.028l-0.061-6.356c-0.064-0.01-0.125-0.024-0.186-0.041
			l0.041,4.324c-0.252,0.117-0.517,0.229-0.787,0.339c-0.066-0.483-0.115-0.816-0.131-0.884c-0.07-0.305-0.662-0.576-1.117-0.576
			c-0.139,0-0.267,0.026-0.359,0.084c-0.4,0.246-1.355,1.262-1.479,1.416c-0.117,0.148-0.263,0.414-0.191,1.033
			c-0.73,0.197-1.465,0.378-2.178,0.533c-1.797,0.397-3.777,0.742-5.896,1.033c3.041-0.394,5.766-0.887,8.086-1.455
			c0.012,0.09,0.023,0.218,0.039,0.373c-0.391,0.096-0.777,0.185-1.158,0.27c-3.162,0.697-6.859,1.244-10.885,1.619l-0.041-5.574
			c0,0-0.094,0.035-0.186,0.043c0.008,0.012,0.055,7.141,0.055,7.141c0.064,0.008,0.125,0.019,0.184,0.03v-0.001
			c0.271,0.058,0.459,0.163,0.486,0.286c4.512-0.462,8.492-1.14,11.684-1.971c0.01,0.131,0.019,0.26,0.027,0.388
			c-0.443,0.115-0.883,0.222-1.314,0.321c-3.037,0.701-6.569,1.254-10.412,1.644c-0.01,0.111-0.02,0.214-0.02,0.27
			c0,0.116-0.17,0.217-0.43,0.275l0.01,1.076h-0.002c0.002,0.003,0.002,0.005,0.002,0.008c0,0.094-0.221,0.171-0.492,0.171
			c-0.273,0-0.494-0.077-0.494-0.171c0-0.001,0.002-0.003,0.002-0.005l-0.01-1.067c-0.293-0.056-0.494-0.162-0.494-0.287
			c0-0.022,0.002-0.054,0.004-0.089c-3.426,0.292-7.065,0.46-10.805,0.487c-0.375,0.002-0.746,0.004-1.119,0.004
			c-3.139,0-6.205-0.1-9.123-0.291c-0.002,0.043-0.004,0.079-0.004,0.105c0,0.115-0.172,0.217-0.43,0.274l0.01,1.075h-0.002
			c0,0.004,0.002,0.006,0.002,0.01c0,0.093-0.221,0.17-0.494,0.17c-0.271,0-0.494-0.077-0.494-0.17c0-0.002,0.002-0.004,0.002-0.006
			l-0.01-1.067c-0.291-0.056-0.492-0.162-0.492-0.286c0-0.055,0.006-0.147,0.016-0.245c-4.244-0.346-8.127-0.893-11.398-1.618
			c-1.387-0.309-2.857-0.692-4.219-1.16c-0.055,0.02-0.117,0.039-0.184,0.055l0.008,1.074l0,0c0,0.004,0.002,0.006,0.002,0.01
			c0,0.033-0.029,0.064-0.078,0.09c5.098,2.364,15.729,3.938,28.006,3.846c8.233-0.063,15.718-0.863,21.277-2.119
			c-0.113,0.15-0.175,0.389-0.148,0.648c0.039,0.406,0.273,0.719,0.531,0.719l0.03-0.002c0,0,5.97-0.698,6.209-0.735
			c0.39-0.065,0.457-0.39,0.414-0.812c0,0-0.114-0.885-0.264-2.019c0.117-0.058,0.234-0.114,0.346-0.174l-0.01-0.825
			c-0.256-0.053-0.426-0.147-0.436-0.26c-0.02,0.008-0.043,0.016-0.064,0.023c-0.018-0.129-0.033-0.26-0.051-0.391
			c0.025-0.01,0.053-0.018,0.08-0.027c-0.01-0.09-0.018-0.175-0.02-0.23C126.98,52.21,127.174,52.09,127.459,52.021z M123.643,55.57
			c0,0.014,0,0.023,0,0.023s-0.024,0.275-0.235,0.313c-0.128,0.023-1.117,0.149-1.88,0.246
			C122.273,55.968,122.98,55.771,123.643,55.57z M127.219,56.266c0.051,0.515-0.102,0.584-0.258,0.611
			c-0.234,0.035-6.143,0.728-6.199,0.734l-0.014,0.001c-0.139,0-0.316-0.227-0.348-0.552c-0.019-0.168,0.01-0.332,0.07-0.453
			c0.049-0.094,0.112-0.15,0.182-0.158c0.104-0.014,2.574-0.32,2.789-0.359c0.272-0.052,0.371-0.325,0.387-0.479v-0.028
			c-0.01-0.145-0.217-3.525-0.309-4.2c-0.092-0.671,0.08-0.886,0.145-0.968c0.125-0.157,1.057-1.145,1.432-1.375
			c0.059-0.035,0.152-0.055,0.262-0.055c0.416,0,0.896,0.251,0.938,0.433C126.355,49.673,126.982,54.451,127.219,56.266z
			 M126.689,50.865c-0.019-0.133-0.035-0.258-0.051-0.375c0.26-0.092,0.516-0.182,0.758-0.273l0.004,0.395
			C127.168,50.699,126.93,50.783,126.689,50.865z"/>
		<path fill="#FFFFFF" d="M110.766,32.988c-0.326,0-0.531,0.127-0.531,0.127c-0.045,0.032-0.073,0.066-0.077,0.104h-0.003v0.002
			c0,0.004-0.002,0.006,0,0.01c0,0.002,0,0.005,0,0.008l0.005,0.46c0.323,0.047,0.641,0.072,0.938,0.068
			c0.107-0.002,0.203-0.008,0.293-0.014l-0.004-0.541h-0.004l0,0C111.383,33.139,111.271,32.995,110.766,32.988z"/>
		<path fill="#FFFFFF" d="M87.965,26.857l0.047,5.834c0.063-0.008,0.123-0.019,0.186-0.026l-0.033-4.124
			c3.08,0.131,6.373,0.201,9.801,0.201c0.373,0,0.746-0.001,1.123-0.003c3.899-0.018,7.64-0.124,11.106-0.305l0.035,4.382
			c-0.646-0.059-1.221-0.037-1.602-0.004c0.234,0.355,0.654,1,1.025,1.599c0.025-0.293,0.045-0.481,0.047-0.517
			c0.008-0.067,0.041-0.129,0.098-0.17c0.033-0.026,0.072-0.04,0.113-0.046l-0.002-0.343v-0.069l-0.004-0.027v-0.002v-0.004
			l0.004-0.032l0.002-0.023l0.002-0.008v-0.002l0,0l0.002-0.006c0.006-0.026,0.016-0.055,0.031-0.085
			c0.004-0.009,0.008-0.017,0.012-0.024c0.027-0.046,0.07-0.095,0.133-0.139l0.012-0.008c0.019-0.012,0.131-0.076,0.313-0.121
			l-0.051-6.02c-0.104-0.013-0.203-0.031-0.291-0.056l0,0c-3.435,0.168-7.132,0.267-10.99,0.283
			c-0.394,0.002-0.782,0.003-1.172,0.003c-3.344,0-6.598-0.064-9.684-0.188C88.148,26.83,88.059,26.846,87.965,26.857z"/>
		<path fill="#FFFFFF" d="M127.209,31.035c0.057-0.02,0.117-0.036,0.184-0.048l-0.059-6.052c-0.1-0.01-0.191-0.025-0.275-0.046
			c-3.682,0.778-9.154,1.392-15.67,1.753c-0.119,0.057-0.281,0.101-0.469,0.122l0.049,5.989c0.068,0.006,0.131,0.016,0.186,0.027
			l-0.036-4.396c6.729-0.382,12.358-1.043,16.047-1.869L127.209,31.035z"/>
		<path fill="#FFFFFF" d="M128.33,31.43c-0.006-0.064-0.242-0.225-0.611-0.225s-0.508,0.099-0.508,0.099
			c-0.066,0.036-0.107,0.081-0.107,0.13l0,0H127.1l0.002,0.391c0.24,0.07,0.51,0.143,0.818,0.217
			c0.025-0.026,0.057-0.05,0.094-0.063c0.103-0.036,0.209-0.062,0.32-0.081l-0.004-0.449c0-0.002,0.004-0.006,0.004-0.008
			c0-0.003-0.002-0.006-0.004-0.008V31.43L128.33,31.43z"/>
		<path fill="#FFFFFF" d="M131.844,24.256c-0.002-0.205-0.115-0.514-0.326-0.871c-0.588,0.408-1.594,0.794-2.955,1.152
			c0,0.008,0.002,0.018,0.002,0.027c0,0.021-0.008,0.043-0.018,0.064c-0.002,0.006-0.006,0.012-0.01,0.018
			c-0.01,0.018-0.021,0.033-0.037,0.049c-0.004,0.006-0.008,0.01-0.012,0.015c-0.021,0.018-0.045,0.034-0.07,0.051
			c-0.012,0.008-0.027,0.016-0.041,0.023c-0.016,0.009-0.033,0.017-0.051,0.024c-0.035,0.018-0.076,0.031-0.121,0.047
			c-0.01,0.002-0.018,0.006-0.029,0.01c-0.025,0.008-0.055,0.015-0.084,0.021c-0.006,0.002-0.012,0.004-0.02,0.006v-0.001
			c-0.059,0.014-0.119,0.024-0.186,0.034l0.061,6.056c0.064,0.01,0.125,0.023,0.186,0.041l-0.047-4.728
			C130.492,25.682,131.852,24.986,131.844,24.256z"/>
	</g>
</g>
<g id="Orientierungskreise" display="none">
	<g id="Weißer_Kreis_x5F_Violin_9_" display="inline">
		<g>
			<path fill="#4D4D4F" d="M-1122.268,9.917c47.365,0,85.898,38.534,85.898,85.899s-38.534,85.897-85.898,85.897
				c-47.365,0-85.899-38.534-85.899-85.897C-1208.167,48.451-1169.633,9.917-1122.268,9.917 M-1122.268,9.69
				c-47.566,0-86.126,38.559-86.126,86.126c0,47.564,38.56,86.125,86.126,86.125s86.125-38.561,86.125-86.125
				C-1036.143,48.249-1074.702,9.69-1122.268,9.69L-1122.268,9.69z"/>
		</g>
	</g>
	<g id="Weißer_Kreis_x5F_Violin_10_" display="inline">
		<g>
			<path fill="#4D4D4F" d="M-1122.268,12.492c45.944,0,83.322,37.378,83.322,83.322s-37.378,83.322-83.322,83.322
				c-45.945,0-83.323-37.378-83.323-83.322C-1205.591,49.871-1168.212,12.492-1122.268,12.492 M-1122.268,12.272
				c-46.139,0-83.543,37.402-83.543,83.542c0,46.14,37.404,83.543,83.543,83.543c46.139,0,83.542-37.403,83.542-83.543
				S-1076.128,12.272-1122.268,12.272L-1122.268,12.272z"/>
		</g>
	</g>
	<g id="Weißer_Kreis_x5F_Violin_2_" display="inline">
		<g>
			<path fill="#4D4D4F" d="M-1122.268,232.007c47.365,0,85.898,38.534,85.898,85.899s-38.534,85.898-85.898,85.898
				c-47.365,0-85.899-38.535-85.899-85.898C-1208.167,270.542-1169.633,232.007-1122.268,232.007 M-1122.268,231.781
				c-47.566,0-86.126,38.559-86.126,86.125s38.56,86.125,86.126,86.125s86.125-38.559,86.125-86.125
				C-1036.143,270.339-1074.702,231.781-1122.268,231.781L-1122.268,231.781z"/>
		</g>
	</g>
	<g id="Weißer_Kreis_x5F_Violin_1_" display="inline">
		<g>
			<path fill="#4D4D4F" d="M-1122.268,234.583c45.944,0,83.322,37.378,83.322,83.323c0,45.943-37.378,83.322-83.322,83.322
				c-45.945,0-83.323-37.379-83.323-83.322C-1205.591,271.961-1168.212,234.583-1122.268,234.583 M-1122.268,234.363
				c-46.139,0-83.543,37.402-83.543,83.543c0,46.139,37.404,83.541,83.543,83.541c46.139,0,83.542-37.402,83.542-83.541
				C-1038.726,271.766-1076.128,234.363-1122.268,234.363L-1122.268,234.363z"/>
		</g>
	</g>
	<g id="Weißer_Kreis_x5F_Violin_6_" display="inline">
		<g>
			<path fill="#4D4D4F" d="M-1122.268,676.191c47.365,0,85.898,38.535,85.898,85.9c0,47.363-38.534,85.896-85.898,85.896
				c-47.365,0-85.899-38.533-85.899-85.896C-1208.167,714.727-1169.633,676.191-1122.268,676.191 M-1122.268,675.967
				c-47.566,0-86.126,38.559-86.126,86.125c0,47.564,38.56,86.125,86.126,86.125s86.125-38.561,86.125-86.125
				C-1036.143,714.523-1074.702,675.967-1122.268,675.967L-1122.268,675.967z"/>
		</g>
	</g>
	<g id="Weißer_Kreis_x5F_Violin_5_" display="inline">
		<g>
			<path fill="#4D4D4F" d="M-1122.268,678.768c45.944,0,83.322,37.379,83.322,83.324c0,45.943-37.378,83.32-83.322,83.32
				c-45.945,0-83.323-37.377-83.323-83.32C-1205.591,716.146-1168.212,678.768-1122.268,678.768 M-1122.268,678.549
				c-46.139,0-83.543,37.4-83.543,83.543c0,46.139,37.404,83.541,83.543,83.541c46.139,0,83.542-37.402,83.542-83.541
				C-1038.726,715.949-1076.128,678.549-1122.268,678.549L-1122.268,678.549z"/>
		</g>
	</g>
	<g id="Weißer_Kreis_x5F_Violin_8_" display="inline">
		<g>
			<path fill="#4D4D4F" d="M-1122.268,898.285c47.365,0,85.898,38.533,85.898,85.898s-38.534,85.898-85.898,85.898
				c-47.365,0-85.899-38.533-85.899-85.898S-1169.633,898.285-1122.268,898.285 M-1122.268,898.059
				c-47.566,0-86.126,38.559-86.126,86.127c0,47.564,38.56,86.125,86.126,86.125s86.125-38.561,86.125-86.125
				C-1036.143,936.617-1074.702,898.059-1122.268,898.059L-1122.268,898.059z"/>
		</g>
	</g>
	<g id="Weißer_Kreis_x5F_Violin_7_" display="inline">
		<g>
			<path fill="#4D4D4F" d="M-1122.268,900.859c45.944,0,83.322,37.379,83.322,83.324c0,45.943-37.378,83.322-83.322,83.322
				c-45.945,0-83.323-37.379-83.323-83.322C-1205.591,938.238-1168.212,900.859-1122.268,900.859 M-1122.268,900.641
				c-46.139,0-83.543,37.402-83.543,83.543c0,46.139,37.404,83.543,83.543,83.543c46.139,0,83.542-37.404,83.542-83.543
				C-1038.726,938.043-1076.128,900.641-1122.268,900.641L-1122.268,900.641z"/>
		</g>
	</g>
	<g id="Weißer_Kreis_x5F_Violin_4_" display="inline">
		<g>
			<path fill="#4D4D4F" d="M-1122.268,454.102c47.365,0,85.898,38.533,85.898,85.898c0,47.363-38.534,85.898-85.898,85.898
				c-47.365,0-85.899-38.535-85.899-85.898C-1208.167,492.635-1169.633,454.102-1122.268,454.102 M-1122.268,453.873
				c-47.566,0-86.126,38.561-86.126,86.127c0,47.564,38.56,86.125,86.126,86.125s86.125-38.561,86.125-86.125
				C-1036.143,492.434-1074.702,453.873-1122.268,453.873L-1122.268,453.873z"/>
		</g>
	</g>
	<g id="Weißer_Kreis_x5F_Violin_3_" display="inline">
		<g>
			<path fill="#4D4D4F" d="M-1122.267,456.676c45.944,0,83.322,37.379,83.322,83.324c0,45.943-37.378,83.322-83.322,83.322
				c-45.945,0-83.323-37.379-83.323-83.322C-1205.59,494.055-1168.212,456.676-1122.267,456.676 M-1122.267,456.457
				c-46.139,0-83.543,37.402-83.543,83.543c0,46.139,37.404,83.543,83.543,83.543c46.139,0,83.542-37.404,83.542-83.543
				C-1038.725,493.859-1076.128,456.457-1122.267,456.457L-1122.267,456.457z"/>
		</g>
	</g>
</g>
</svg>
