<?xml version="1.0" encoding="utf-8"?>
<!-- Generator: Adobe Illustrator 16.0.0, SVG Export Plug-In . SVG Version: 6.00 Build 0)  -->
<!DOCTYPE svg PUBLIC "-//W3C//DTD SVG 1.1//EN" "http://www.w3.org/Graphics/SVG/1.1/DTD/svg11.dtd">
<svg version="1.1" id="Layer_1" xmlns="http://www.w3.org/2000/svg" xmlns:xlink="http://www.w3.org/1999/xlink" x="0px" y="0px"
	 width="189.92px" height="189.92px" viewBox="0 0 189.92 189.92" enable-background="new 0 0 189.92 189.92" xml:space="preserve">
<g>
	<path fill="#010101" d="M78.59,32.378c5.503-1.283,11.223-1.98,17.105-1.98c5.884,0,11.604,0.697,17.101,1.98
		c-2.687-6.826-9.322-11.662-17.101-11.662S81.283,25.553,78.59,32.378z"/>
	<path fill="#010101" d="M80.774,49.837c3.342,4.638,8.771,7.671,14.921,7.671s11.583-3.033,14.923-7.671
		c-4.771-1.273-9.753-2.014-14.923-2.014C90.527,47.823,85.543,48.563,80.774,49.837z"/>
	<path fill="#010101" d="M180.736,105.756c0-7.731-4.775-14.337-11.532-17.057c1.298,5.53,2.002,11.288,2.002,17.21
		c0,5.801-0.678,11.448-1.923,16.874C176.001,120.044,180.736,113.459,180.736,105.756z"/>
	<path fill="#010101" d="M143.942,105.756c0,6.221,3.106,11.715,7.831,15.042c1.271-4.763,2.008-9.732,2.008-14.889
		c0-5.249-0.756-10.305-2.076-15.146C147.016,94.1,143.942,99.562,143.942,105.756z"/>
	<path fill="#010101" d="M22.11,122.783c-1.246-5.426-1.925-11.073-1.925-16.874c0-5.922,0.706-11.68,2.001-17.21
		c-6.755,2.719-11.529,9.325-11.529,17.057C10.658,113.459,15.391,120.044,22.11,122.783z"/>
	<path fill="#010101" d="M39.688,90.764c-1.312,4.84-2.078,9.896-2.078,15.146c0,5.156,0.742,10.126,2.005,14.889
		c4.731-3.327,7.829-8.821,7.829-15.042C47.443,99.562,44.375,94.1,39.688,90.764z"/>
	<path fill="#010101" d="M45.97,76.042c5.643,1.015,11.674-0.59,16.098-4.891c4.419-4.296,6.203-10.271,5.352-15.938
		C58.578,60.167,51.194,67.376,45.97,76.042z"/>
	<path fill="#010101" d="M32.27,65.009c6.262-9.677,14.661-17.845,24.539-23.801c-6.678-3.009-14.8-1.856-20.374,3.564
		C30.864,50.181,29.467,58.244,32.27,65.009z"/>
	<path fill="#010101" d="M123.969,55.213c-0.854,5.667,0.935,11.642,5.352,15.938c4.427,4.301,10.464,5.906,16.103,4.891
		C140.198,67.376,132.812,60.167,123.969,55.213z"/>
	<path fill="#010101" d="M159.121,65.009c2.8-6.761,1.405-14.829-4.159-20.237c-5.576-5.417-13.7-6.573-20.38-3.564
		C144.461,47.164,152.857,55.331,159.121,65.009z"/>
	<path fill="#010101" d="M167.819,105.756c0-6.25-0.797-12.315-2.291-18.098c-1.787-6.911-4.567-13.417-8.187-19.367
		c-6.369-10.449-15.336-19.141-25.983-25.214c-5.459-3.114-11.34-5.542-17.567-7.153c-5.776-1.492-11.847-2.291-18.096-2.291
		c-6.248,0-12.319,0.799-18.1,2.291c-6.221,1.611-12.111,4.045-17.56,7.157C49.38,49.149,40.419,57.842,34.053,68.294
		c-3.617,5.946-6.407,12.453-8.19,19.363c-1.496,5.783-2.289,11.848-2.289,18.098c0,6.253,0.792,12.316,2.289,18.104
		c8.033,31.072,36.252,54.024,69.833,54.024c33.579,0,61.8-22.952,69.833-54.024C167.022,118.072,167.819,112.009,167.819,105.756z
		 M134.095,156.181c-1.624-1.152-4.291-1.322-7.728-1.031c-7.374,0.625-18.373,3.395-30.672,3.395
		c-12.954,0-24.442-3.548-31.794-4.078c-3.113-0.216-5.471,0.117-6.882,1.492c-10.564-8.16-18.488-19.563-22.261-32.718
		c-1.603-5.554-2.473-11.413-2.473-17.48c0-6.062,0.875-11.923,2.473-17.481c1.419-4.952,3.429-9.652,5.946-14.03
		c5.91-10.277,14.604-18.749,25.059-24.372c3.922-2.109,8.093-3.805,12.449-5.055c5.558-1.601,11.421-2.471,17.483-2.471
		c6.065,0,11.925,0.874,17.483,2.471c4.358,1.25,8.527,2.946,12.452,5.055c10.451,5.623,19.143,14.094,25.053,24.372
		c2.518,4.377,4.531,9.078,5.952,14.03c1.602,5.556,2.469,11.419,2.469,17.481c0,6.067-0.873,11.927-2.469,17.48
		C152.823,136.508,144.8,148,134.095,156.181z"/>
</g>
</svg>
