<?xml version="1.0" encoding="utf-8"?>
<!-- Generator: Adobe Illustrator 15.0.0, SVG Export Plug-In . SVG Version: 6.00 Build 0)  -->
<!DOCTYPE svg PUBLIC "-//W3C//DTD SVG 1.1//EN" "http://www.w3.org/Graphics/SVG/1.1/DTD/svg11.dtd">
<svg version="1.1" id="Ebene_1" xmlns="http://www.w3.org/2000/svg" xmlns:xlink="http://www.w3.org/1999/xlink" x="0px" y="0px"
	 width="190px" height="190px" viewBox="0 0 190 190" enable-background="new 0 0 190 190" xml:space="preserve">
<g id="Orientierungskreise" display="none">
	<g id="Weißer_Kreis_x5F_Violin_9_" display="inline">
		<g>
			<path fill="#4D4D4F" d="M-1122.268,9.917c47.365,0,85.898,38.534,85.898,85.899s-38.534,85.897-85.898,85.897
				c-47.365,0-85.899-38.534-85.899-85.897C-1208.167,48.451-1169.633,9.917-1122.268,9.917 M-1122.268,9.69
				c-47.566,0-86.126,38.559-86.126,86.126c0,47.564,38.56,86.125,86.126,86.125s86.125-38.561,86.125-86.125
				C-1036.143,48.249-1074.702,9.69-1122.268,9.69L-1122.268,9.69z"/>
		</g>
	</g>
	<g id="Weißer_Kreis_x5F_Violin_10_" display="inline">
		<g>
			<path fill="#4D4D4F" d="M-1122.268,12.492c45.944,0,83.322,37.378,83.322,83.322s-37.378,83.322-83.322,83.322
				c-45.945,0-83.323-37.378-83.323-83.322C-1205.591,49.871-1168.212,12.492-1122.268,12.492 M-1122.268,12.272
				c-46.139,0-83.543,37.402-83.543,83.542c0,46.14,37.404,83.543,83.543,83.543c46.139,0,83.542-37.403,83.542-83.543
				S-1076.128,12.272-1122.268,12.272L-1122.268,12.272z"/>
		</g>
	</g>
	<g id="Weißer_Kreis_x5F_Violin_2_" display="inline">
		<g>
			<path fill="#4D4D4F" d="M-1122.268,232.007c47.365,0,85.898,38.534,85.898,85.899s-38.534,85.898-85.898,85.898
				c-47.365,0-85.899-38.535-85.899-85.898C-1208.167,270.542-1169.633,232.007-1122.268,232.007 M-1122.268,231.781
				c-47.566,0-86.126,38.559-86.126,86.125s38.56,86.125,86.126,86.125s86.125-38.559,86.125-86.125
				C-1036.143,270.339-1074.702,231.781-1122.268,231.781L-1122.268,231.781z"/>
		</g>
	</g>
	<g id="Weißer_Kreis_x5F_Violin_1_" display="inline">
		<g>
			<path fill="#4D4D4F" d="M-1122.268,234.583c45.944,0,83.322,37.378,83.322,83.323c0,45.943-37.378,83.322-83.322,83.322
				c-45.945,0-83.323-37.379-83.323-83.322C-1205.591,271.961-1168.212,234.583-1122.268,234.583 M-1122.268,234.363
				c-46.139,0-83.543,37.402-83.543,83.543c0,46.139,37.404,83.541,83.543,83.541c46.139,0,83.542-37.402,83.542-83.541
				C-1038.726,271.766-1076.128,234.363-1122.268,234.363L-1122.268,234.363z"/>
		</g>
	</g>
	<g id="Weißer_Kreis_x5F_Violin_6_" display="inline">
		<g>
			<path fill="#4D4D4F" d="M-1122.268,676.191c47.365,0,85.898,38.535,85.898,85.9c0,47.363-38.534,85.896-85.898,85.896
				c-47.365,0-85.899-38.533-85.899-85.896C-1208.167,714.727-1169.633,676.191-1122.268,676.191 M-1122.268,675.967
				c-47.566,0-86.126,38.559-86.126,86.125c0,47.564,38.56,86.125,86.126,86.125s86.125-38.561,86.125-86.125
				C-1036.143,714.523-1074.702,675.967-1122.268,675.967L-1122.268,675.967z"/>
		</g>
	</g>
	<g id="Weißer_Kreis_x5F_Violin_5_" display="inline">
		<g>
			<path fill="#4D4D4F" d="M-1122.268,678.768c45.944,0,83.322,37.379,83.322,83.324c0,45.943-37.378,83.32-83.322,83.32
				c-45.945,0-83.323-37.377-83.323-83.32C-1205.591,716.146-1168.212,678.768-1122.268,678.768 M-1122.268,678.549
				c-46.139,0-83.543,37.4-83.543,83.543c0,46.139,37.404,83.541,83.543,83.541c46.139,0,83.542-37.402,83.542-83.541
				C-1038.726,715.949-1076.128,678.549-1122.268,678.549L-1122.268,678.549z"/>
		</g>
	</g>
	<g id="Weißer_Kreis_x5F_Violin_8_" display="inline">
		<g>
			<path fill="#4D4D4F" d="M-1122.268,898.285c47.365,0,85.898,38.533,85.898,85.898s-38.534,85.898-85.898,85.898
				c-47.365,0-85.899-38.533-85.899-85.898S-1169.633,898.285-1122.268,898.285 M-1122.268,898.059
				c-47.566,0-86.126,38.559-86.126,86.127c0,47.564,38.56,86.125,86.126,86.125s86.125-38.561,86.125-86.125
				C-1036.143,936.617-1074.702,898.059-1122.268,898.059L-1122.268,898.059z"/>
		</g>
	</g>
	<g id="Weißer_Kreis_x5F_Violin_7_" display="inline">
		<g>
			<path fill="#4D4D4F" d="M-1122.268,900.859c45.944,0,83.322,37.379,83.322,83.324c0,45.943-37.378,83.322-83.322,83.322
				c-45.945,0-83.323-37.379-83.323-83.322C-1205.591,938.238-1168.212,900.859-1122.268,900.859 M-1122.268,900.641
				c-46.139,0-83.543,37.402-83.543,83.543c0,46.139,37.404,83.543,83.543,83.543c46.139,0,83.542-37.404,83.542-83.543
				C-1038.726,938.043-1076.128,900.641-1122.268,900.641L-1122.268,900.641z"/>
		</g>
	</g>
	<g id="Weißer_Kreis_x5F_Violin_4_" display="inline">
		<g>
			<path fill="#4D4D4F" d="M-1122.268,454.102c47.365,0,85.898,38.533,85.898,85.898c0,47.363-38.534,85.898-85.898,85.898
				c-47.365,0-85.899-38.535-85.899-85.898C-1208.167,492.635-1169.633,454.102-1122.268,454.102 M-1122.268,453.873
				c-47.566,0-86.126,38.561-86.126,86.127c0,47.564,38.56,86.125,86.126,86.125s86.125-38.561,86.125-86.125
				C-1036.143,492.434-1074.702,453.873-1122.268,453.873L-1122.268,453.873z"/>
		</g>
	</g>
	<g id="Weißer_Kreis_x5F_Violin_3_" display="inline">
		<g>
			<path fill="#4D4D4F" d="M-1122.267,456.676c45.944,0,83.322,37.379,83.322,83.324c0,45.943-37.378,83.322-83.322,83.322
				c-45.945,0-83.323-37.379-83.323-83.322C-1205.59,494.055-1168.212,456.676-1122.267,456.676 M-1122.267,456.457
				c-46.139,0-83.543,37.402-83.543,83.543c0,46.139,37.404,83.543,83.543,83.543c46.139,0,83.542-37.404,83.542-83.543
				C-1038.725,493.859-1076.128,456.457-1122.267,456.457L-1122.267,456.457z"/>
		</g>
	</g>
</g>
<g id="Kreise">
	<path d="M173.691,68.895c-0.017-0.496-0.107-1.047-0.328-1.652c-0.146-0.401-0.359-0.754-0.717-0.973
		c-0.144-0.088-0.281-0.19-0.443-0.256c-0.256-0.131-0.541-0.232-0.84-0.308l0.037-1.716c0.244-0.025,0.422-0.114,0.432-0.243
		c0.008-0.083,0.178-1.541,0.188-1.652c0.013-0.159-0.237-0.316-0.576-0.376c-0.014-0.14-0.114-0.249-0.245-0.254
		c-0.138-0.003-0.248,0.107-0.261,0.254c-0.02,0.004-0.037,0.009-0.055,0.015l-0.016-0.426l-0.275,0.008
		c-0.021-0.137-0.055-0.272-0.09-0.41c0.064-0.296,0.092-0.596,0.084-0.899c-0.201-6.076-15.631-10.505-34.467-9.888
		c-16.289,0.533-29.789,4.668-33.012,9.707c-0.066-0.034-0.148-0.058-0.244-0.072l-0.004-0.104
		c-0.006-0.155-0.125-0.275-0.269-0.271c-0.141,0.004-0.25,0.134-0.245,0.288l0.004,0.131c-0.277,0.084-0.47,0.246-0.447,0.406
		c0.021,0.193,0.156,1.123,0.178,1.303c0.014,0.117,0.139,0.205,0.314,0.243c-0.017,0.164-0.023,0.329-0.019,0.494
		c0.011,0.3,0.058,0.596,0.142,0.885c-0.035,0.164-0.058,0.332-0.07,0.497c-0.447,0.151-0.607,0.582-0.607,0.582
		s-0.041-1.318-0.055-1.682c-0.012-0.362-0.277-0.637-0.277-0.637l-1.258,0.041l0.006,0.199c0,0-0.203,0.061-0.332,0.093
		c-0.127,0.032-0.361-0.071-0.361-0.071c-0.42-0.24-0.61,0.205-0.61,0.205c-0.088,0.288-0.136,0.813-0.152,1.499
		c-0.045-0.66-0.116-1.17-0.221-1.447c0,0-0.229-0.448-0.688-0.19c0,0-0.259,0.115-0.402,0.085
		c-0.145-0.028-0.373-0.085-0.373-0.085v-0.202h-1.406c0,0-0.287,0.287-0.287,0.661c0,0.373,0,1.723,0,1.723
		s-0.193-0.435-0.699-0.571c-0.021-0.171-0.053-0.34-0.096-0.51c0.082-0.299,0.123-0.604,0.123-0.911
		c0-0.17-0.014-0.337-0.039-0.506c0.197-0.045,0.332-0.14,0.344-0.258c0.018-0.184,0.133-1.142,0.152-1.341
		c0.018-0.165-0.203-0.326-0.516-0.401v-0.133c0-0.16-0.129-0.289-0.287-0.289c-0.158,0-0.287,0.129-0.287,0.287v0.105
		c-0.107,0.018-0.199,0.044-0.271,0.084c-3.783-5.055-19.012-8.836-37.227-8.836c-21.059,0-38.131,5.054-38.131,11.287
		c0,0.311,0.043,0.617,0.125,0.919c-0.035,0.14-0.066,0.279-0.086,0.424h-0.309v0.438c-0.02-0.006-0.039-0.01-0.061-0.013
		c-0.02-0.151-0.148-0.264-0.299-0.254c-0.148,0.008-0.258,0.126-0.266,0.271c-0.377,0.069-0.652,0.24-0.631,0.403
		c0.016,0.114,0.258,1.602,0.268,1.687c0.018,0.13,0.219,0.214,0.494,0.233l0.104,1.755c-0.332,0.089-0.646,0.202-0.928,0.345
		c-0.178,0.074-0.33,0.183-0.484,0.276c-0.393,0.239-0.619,0.605-0.766,1.021c-0.225,0.627-0.307,1.195-0.307,1.703
		c0,0.821,0.258,1.42,0.424,1.943c3.367,9.964,10.264,28.706,17.861,45.59c-2.072,0.557-4.01,1.074-4.152,1.107
		c-0.346,0.076-0.652,0.23-0.691,0.879c-0.035,0.625-0.213,4.159-0.229,4.459c-0.49,0.157-0.805,0.391-0.805,0.655
		c0,0.034,0.01,0.069,0.02,0.104c-0.008,0.082-0.5,0.418-0.5,0.672c0,0.178,0.037,0.307,0.227,0.455
		c-0.262,0.395-0.381,1.287,1.059,2.996c0.309,0.364,0.594,0.697,0.863,1.002c-0.354,1.235-0.068,2.721,0.887,3.922
		c1.406,1.771,3.736,2.277,5.314,1.197c0.379-0.111,0.74-0.293,1.063-0.549c1.574-1.248,1.666-3.756,0.207-5.595
		c-0.461-0.58-1.021-1.022-1.621-1.321l0.217-0.226h0.361l0.021-0.345l-1.57-0.69v-0.804c0,0-0.123-0.293-1.584-0.4
		c-0.064-0.072-0.199-0.122-0.283-0.188c-0.049-0.037-0.066-0.051-0.104-0.129c0.012-0.035,0.02-0.069,0.02-0.104
		c0-0.098-0.043-0.188-0.117-0.271c0.518,0.127,3.162,0.891,3.486,0.891c0.344,0,1.07-0.113,1.453-0.229
		c0.184-0.057,0.623-0.002,1.031,0.068c-0.021,0.156-0.035,0.318-0.035,0.479c0,4.101,6.811,7.508,15.795,8.223
		c3.729,2.673,12.727,3.186,12.727,3.186s7.006,4.135,7.467,4.363c0.459,0.229,0.805,0.652,0.805,0.652s1.225,2.563,1.455,3.1
		c0.229,0.536,0.285,0.594,0.496,0.729c0.211,0.133,5.475,2.334,5.857,2.49c0.385,0.151,0.557,0.131,0.768,0.074
		c0.182-0.051,1.814-0.768,2.236-0.952c0.117-0.048,0.092-0.168,0.08-0.225c-0.076-0.372-0.365-0.546-0.365-0.546v-2.09
		c0.283-0.139,1.67-1.092,1.67-1.092c0.404-0.336,0.42-0.746,0.238-1.056c-3.074-5.487-5.961-10.573-8.07-14.289
		c-0.986-1.739-1.793-3.159-2.365-4.177c5.236-13.357,10.576-28.393,14.07-39.53c0.549-1.643,1.111-3.358,1.676-5.123
		c1.658-1.054,2.672-1.847,3.289-2.438c0.389-0.376,0.621-0.668,0.76-0.908c0.051-0.082,0.084-0.159,0.113-0.228
		c0.105-0.038,0.178-0.12,0.178-0.211v-0.739c0.598,0,1.174,0,1.229,0c0.115,0,0.195-0.091,0.222-0.22
		c0.008-0.047,0.323-4.934,0.369-8.922c0.172,3.856,0.598,8.48,0.606,8.524c0.025,0.124,0.103,0.213,0.205,0.208
		c0.049,0,0.563-0.019,1.098-0.034l0.023,0.72c0.002,0.063,0.039,0.122,0.096,0.163c0.039,0.408,0.213,1.064,0.801,1.933
		c0.648,0.96,1.8,2.18,3.824,3.625c0.32,0.948,0.635,1.879,0.945,2.788c3.48,10.757,8.738,25.261,13.848,38.132
		c-0.479,1.011-1.153,2.418-1.981,4.143c-1.767,3.686-4.187,8.73-6.761,14.172c-0.151,0.305-0.021,0.676,0.353,0.992l0.011,0.009
		c0.108,0.089,0.727,0.616,0.729,0.617l0.016,0.013c0.186,0.146,0.412,0.278,0.67,0.403l0.066,2.039c0,0-0.254,0.181-0.311,0.546
		c-0.008,0.055-0.025,0.169,0.082,0.215c0.381,0.17,1.862,0.819,2.028,0.863c0.188,0.048,0.347,0.063,0.683-0.098
		c0.338-0.16,4.977-2.463,5.16-2.6c0.182-0.137,0.233-0.193,0.422-0.722c0.188-0.533,1.201-3.07,1.201-3.07s0.297-0.421,0.7-0.655
		c0.401-0.238,6.535-4.475,6.535-4.475s8.032-0.768,11.28-3.48c8.015-0.959,13.996-4.481,13.865-8.479
		c-0.006-0.157-0.022-0.313-0.047-0.468c0.363-0.078,0.754-0.146,0.918-0.096c0.348,0.099,1,0.191,1.31,0.183
		c0.288-0.011,2.631-0.833,3.09-0.976c-0.063,0.086-0.099,0.178-0.097,0.27c0.002,0.035,0.011,0.07,0.021,0.104
		c-0.031,0.076-0.047,0.09-0.09,0.131c-0.072,0.063-0.191,0.115-0.248,0.188c-1.301,0.148-1.404,0.439-1.404,0.439l0.027,0.783
		l-1.383,0.719l0.031,0.334l0.322-0.01l0.2,0.213c-0.526,0.309-1.015,0.756-1.405,1.338c-1.248,1.838-1.086,4.275,0.362,5.449
		c0.295,0.236,0.623,0.402,0.968,0.504c1.444,1.004,3.514,0.444,4.715-1.324c0.813-1.199,1.022-2.658,0.668-3.852
		c0.229-0.305,0.479-0.637,0.739-1.003c1.234-1.708,1.099-2.575,0.851-2.95c0.166-0.15,0.195-0.279,0.188-0.453
		c-0.008-0.248-0.459-0.561-0.469-0.641c0.01-0.033,0.015-0.068,0.015-0.102c-0.009-0.258-0.298-0.477-0.74-0.616
		c-0.023-0.292-0.295-3.731-0.349-4.341c-0.055-0.631-0.334-0.771-0.646-0.84c-0.129-0.023-1.877-0.473-3.752-0.955
		c6.256-16.688,11.826-35.163,14.521-44.979C173.506,70.289,173.717,69.693,173.691,68.895z M18.395,68.141l-0.102-1.69
		c0.152-0.04,0.281-0.099,0.367-0.165c0.092,0.155,0.189,0.281,0.285,0.335c0,0,0.754,1.107,1.107,1.341
		C19.566,67.981,18.977,68.032,18.395,68.141z M39.432,117.581c-0.574,0.155-1.754,0.481-3.008,0.817
		c-2.273-5.201-8.377-19.59-13.574-37.346c0,0-2.641-8.002-1.186-8.883c0.279-0.195,0.488-0.3,0.639-0.352
		c0.063-0.009,0.156,0.04,0.172,0.093c0.35,1.085,1.029,1.96,2.281,2.915c1.141,6.562,3.057,13.729,5.623,18.911
		c0.795,1.604,1.83,3.136,3.066,4.562l6.23,18.897C39.557,117.354,39.525,117.418,39.432,117.581z M44.053,114.182
		c-0.688-2.922-1.455-6.186-2.191-9.35c3.131,1.627,6.654,2.788,10.385,3.344l0.357,3.928
		C49.289,112.469,46.359,113.2,44.053,114.182z M83.566,94.392c-1.547,5.934-3.092,11.284-4.461,15.771
		c-0.949,0.397-2.068,0.63-3.4,0.63c-1.379,0-2.984-0.252-4.85-0.828l0.977-4.783C76.898,102.676,81.004,98.913,83.566,94.392z
		 M68.686,106.531l-0.486,2.453c-1.033-0.379-1.969-0.657-2.816-0.855c0.016-0.199,0.033-0.398,0.049-0.6
		C66.545,107.249,67.631,106.915,68.686,106.531z M57.055,111.214c0,0.031,0,0.39,0,0.627c-0.615,0.005-1.217,0.015-1.814,0.041
		l-0.404-3.425c0.768,0.055,1.539,0.084,2.316,0.084c0.74,0,1.475-0.025,2.199-0.073c-0.867,0.481-1.385,1.13-1.684,1.681
		c-0.207,0.383-0.311,0.717-0.359,0.92C57.158,111.092,57.055,111.146,57.055,111.214z M61.662,111.281l-1.885,0.535
		c-0.396,0.074-1.029,0.104-1.893-0.004c0-0.234-0.002-0.564-0.002-0.6c0-0.054-0.068-0.102-0.176-0.13
		c0.082-0.3,0.281-0.841,0.727-1.369c0.451-0.536,1.146-1.071,2.254-1.354c0.396-0.043,0.791-0.088,1.184-0.141
		C61.805,109.204,61.736,110.223,61.662,111.281z M67.57,109.807c-0.234-0.246-0.846,0.037-0.846,0.037l-1.516,0.43
		c0.047-0.58,0.096-1.164,0.143-1.748c0.832,0.195,1.752,0.473,2.77,0.851l-0.172,0.864C67.828,110.096,67.68,109.928,67.57,109.807
		z M76.055,119.742c0.018-0.137-0.037-0.297-0.037-0.43c-0.277-2.236-2.27-4.049-5.963-5.436l0.723-3.525
		c1.879,0.572,3.512,0.832,4.928,0.832c1.242,0.002,2.32-0.199,3.256-0.543C77.832,114.334,76.828,117.422,76.055,119.742z
		 M95.043,78.8c-0.523,0.427-1.225,0.939-2.154,1.544c0.621-1.958,1.246-3.974,1.859-6.029v0.687c0,0,0.004,0.041,0.041,0.041
		c0.039,0,0.574,0,0.574,0s0,1.015,0,1.072c0,0.057,0.041,0.287,0.286,0.287c0.082,0,0.381,0,0.752,0v0.739
		c0,0.055,0.024,0.104,0.067,0.143c-0.016,0.033-0.03,0.064-0.053,0.099C96.244,77.677,95.857,78.14,95.043,78.8z M129.803,103.167
		c0.092,0.847,0.176,1.631,0.25,2.315c-0.752,0.263-1.578,0.613-2.488,1.063l-0.867-4.333
		C127.703,102.591,128.74,102.908,129.803,103.167z M123.271,100.652l1.459,6.931c-1.246,0.345-2.361,0.5-3.359,0.5
		c-0.951,0-1.795-0.144-2.547-0.386c-1.389-4.467-3.141-10.161-4.684-15.371C116.396,95.762,119.541,98.625,123.271,100.652z
		 M101.994,78.569c-0.539-0.796-0.695-1.378-0.736-1.726c0.07-0.044,0.115-0.109,0.113-0.188l-0.023-0.722
		c0.33-0.011,0.6-0.019,0.67-0.021c0.219-0.008,0.25-0.231,0.248-0.286c0-0.059-0.033-1.047-0.033-1.047s0.479-0.016,0.513-0.017
		c0.034-0.001,0.034-0.043,0.034-0.043l-0.021-0.667c0.851,2.743,1.714,5.409,2.562,7.949
		C103.57,80.509,102.566,79.419,101.994,78.569z M121.332,115.693c0,0-0.99-3.121-2.375-7.57c0.727,0.21,1.527,0.324,2.414,0.324
		c1.029,0,2.17-0.157,3.436-0.508l0.838,3.983C123.42,112.992,121.979,114.252,121.332,115.693z M127.762,107.543l-0.125-0.627
		c0.902-0.447,1.719-0.798,2.455-1.061c0.125,1.187,0.215,2.008,0.236,2.195L127.762,107.543z M136.926,109.338
		c-0.768,0.13-1.334,0.121-1.691,0.059l-1.162-0.304l-0.297-3.896c0.742,0.048,1.312,0.244,1.752,0.521
		c0.769,0.479,1.162,1.201,1.367,1.841c0.142,0.438,0.188,0.826,0.205,1.053c-0.115,0.031-0.192,0.086-0.188,0.143
		C136.91,108.788,136.918,109.107,136.926,109.338z M139.295,109.326c-0.537-0.014-1.074,0-1.625,0.016
		c-0.008-0.232-0.02-0.582-0.02-0.613c-0.002-0.054-0.076-0.104-0.187-0.129c-0.022-0.361-0.123-1.115-0.522-1.867
		c-0.258-0.484-0.646-0.967-1.224-1.323c-0.504-0.318-1.151-0.533-1.971-0.58l-0.082-1.065c1.101,0.141,2.644,0.217,3.694,0.182
		c0.775-0.025,1.548-0.088,2.313-0.176L139.295,109.326z M149.373,111.241c-2.094-0.888-4.738-1.519-7.713-1.777l0.346-6.065
		c3.389-0.681,6.617-1.948,9.475-3.66C150.553,104.803,149.633,109.814,149.373,111.241z M167.277,78.316
		c-4.08,17.467-9.078,31.675-10.945,36.814c-1.131-0.292-2.197-0.573-2.717-0.707c-0.088-0.157-0.119-0.221-0.23-0.37l5.734-21.12
		c0.98-1.326,1.793-2.728,2.398-4.186c1.946-4.685,3.338-10.821,4.182-16.752c0.881-0.851,1.373-1.649,1.623-2.606
		c0.012-0.052,0.092-0.101,0.15-0.094c0.137,0.046,0.325,0.141,0.582,0.325C169.385,70.437,167.277,78.316,167.277,78.316z
		 M170.852,65.596c-0.526-0.088-1.055-0.121-1.49-0.127c0.31-0.236,0.947-1.341,0.947-1.341c0.082-0.055,0.166-0.181,0.244-0.333
		c0.08,0.061,0.197,0.113,0.334,0.149L170.852,65.596z"/>
	<g>
		<path fill="#FFFFFF" d="M70.209,130.289v-5.426v-0.25v-0.186c0,0,0.139-0.058,0.33,0.059c0.061,0.039,0.193,0.168,0.193,0.168
			c0.113,0.129,0.232,0.324,0.35,0.623c0.119-0.09,0.25-0.174,0.393-0.258c-0.057-0.192-0.141-0.39-0.254-0.576
			c2.154-0.963,3.705-2.149,4.42-3.465l0.424-1.324c0.012-0.105,0.02-0.213,0.02-0.317c0-3.086-4.539-5.743-11.049-6.925
			c-0.006,0.076-0.012,0.152-0.02,0.227c2.035,0.369,3.908,0.891,5.529,1.551c3.426,1.396,5.309,3.224,5.309,5.147
			c0,1.82-1.688,3.554-4.764,4.915c-0.32-0.418-0.83-0.74-1.646-0.74c-2.297,0-4.596,1.147-5.092,1.53
			c-0.412,0.317-0.43,0.767-0.141,1.128c-0.104,0.018-0.205,0.036-0.309,0.053c-0.006,0.08-0.014,0.156-0.02,0.232
			c0.18-0.025,0.355-0.055,0.533-0.082c0.004,0.003,0.008,0.006,0.012,0.01c0.498,0.383,0.881,0.572,0.881,1.607
			c0,1.031,0,3.178,0,3.178s-0.115,2.372,1.225,2.372c0,0,0.439,0.092,0.537,0.422l9.225,5.438l0.27-0.346l-10.426-7.791
			L70.209,130.289z"/>
		<path fill="#FFFFFF" d="M76.596,125.872l-0.305-0.543c-0.18-0.317-0.33-0.585-0.443-0.787c-0.002-0.015-0.008-0.024-0.012-0.036
			l-0.025-0.018c-0.568-0.104-1.473-0.027-2.445,0.248c-1.135,0.322-2.049,0.82-2.395,1.263l0.08,0.151
			c0,0,6.564,13.06,10.945,19.061c0.32,0.461,0.539,0.584,0.539,0.584c0.535,0.124,1.396,0.064,2.322-0.195
			c0.791-0.225,1.463-0.549,1.885-0.881c0,0,0.346-0.283,0.254-0.438C82.51,136.268,78.42,129.113,76.596,125.872z"/>
		<path fill="#FFFFFF" d="M90.959,73.363v0.18c0.715,0.5,1.551,1.178,0.422,0.93c0.262,0.261,0.453,0.554,0.533,0.876
			c0.404,1.625,0.1,2.798-0.113,3.637c-2.758,10.28-8.828,28.657-15.309,45.811l0.314,0.536
			c6.777-17.298,13.197-36.004,16.109-46.41c0.223-0.835,0.539-2.004,0.152-3.632C92.871,74.462,91.953,73.824,90.959,73.363z"/>
		<path fill="#FFFFFF" d="M120.693,122.525c-6.342-16.53-12.357-34.262-15.15-44.202c-0.217-0.813-0.525-1.948-0.217-3.543
			c0.061-0.317,0.225-0.608,0.449-0.873c-1.002,0.276-0.275-0.41,0.346-0.919l-0.006-0.174c-0.873,0.479-1.676,1.128-1.824,1.939
			c-0.293,1.6,0.027,2.73,0.252,3.538c2.938,10.06,9.275,28.104,15.889,44.772L120.693,122.525z"/>
		<path fill="#FFFFFF" d="M125.676,123.557c-0.322-0.426-1.156-0.882-2.182-1.164c-0.879-0.238-1.689-0.289-2.195-0.166
			l-0.021,0.016c-0.004,0.011-0.006,0.021-0.01,0.031c-0.096,0.203-0.627,1.32-0.627,1.32c-1.529,3.215-4.957,10.313-8.713,18.256
			c-0.078,0.151,0.24,0.424,0.24,0.424c0.389,0.311,1.002,0.604,1.715,0.799c0.838,0.23,1.609,0.261,2.082,0.123
			c0,0,0.193-0.125,0.465-0.584c3.727-5.981,9.18-18.904,9.18-18.904L125.676,123.557z"/>
		<path fill="#FFFFFF" d="M121.297,115.459l0.092,0.292c0.59-1.356,2.059-2.644,4.291-3.726c1.43-0.69,3.086-1.252,4.896-1.672
			c-0.009-0.076-0.017-0.147-0.022-0.223C125.914,111.208,122.441,113.171,121.297,115.459z"/>
		<path fill="#FFFFFF" d="M131.727,123.523c0.248-0.361,0.219-0.799-0.16-1.098c-0.457-0.357-2.549-1.41-4.604-1.345
			c-0.73,0.021-1.176,0.354-1.449,0.772c-1.1-0.488-2.006-1.039-2.707-1.633l0.115,0.363c0.682,0.536,1.516,1.027,2.482,1.46
			c-0.096,0.187-0.164,0.38-0.211,0.565c0.131,0.08,0.252,0.158,0.361,0.24c0.094-0.293,0.196-0.486,0.293-0.615
			c0,0,0.112-0.131,0.168-0.17c0.166-0.119,0.291-0.064,0.291-0.064l0.008,0.182l0.008,0.24l0.172,5.288l3.672,0.833l-9.074,7.902
			l0.25,0.33l8.078-5.574c0.076-0.325,0.465-0.426,0.465-0.426c1.199-0.039,1.021-2.351,1.021-2.351s-0.068-2.092-0.102-3.1
			c-0.035-1.009,0.303-1.206,0.735-1.593c0.004-0.004,0.008-0.008,0.012-0.01c0.158,0.022,0.316,0.045,0.479,0.064
			c-0.01-0.073-0.018-0.153-0.025-0.227C131.912,123.553,131.82,123.538,131.727,123.523z"/>
		<polygon fill="#FFFFFF" points="82.996,149.428 85.025,148.741 85.025,146.328 82.996,146.788 		"/>
		
			<ellipse transform="matrix(-0.9885 0.1512 -0.1512 -0.9885 110.8479 253.7509)" fill="#FFFFFF" cx="45.78" cy="131.088" rx="0.365" ry="0.496"/>
		<path fill="#FFFFFF" d="M63.318,78.388c-0.088-0.095-0.145-0.12-0.145-0.12S63.229,78.31,63.318,78.388z"/>
		<path fill="#FFFFFF" d="M61.979,131.741c-0.275,0-0.498,0.224-0.498,0.495c0,0.277,0.223,0.502,0.498,0.502
			c0.273,0,0.496-0.225,0.496-0.502C62.475,131.965,62.252,131.741,61.979,131.741z"/>
		<path fill="#FFFFFF" d="M36.184,76.487c0,0-1.859,0.194-2.986,2.47c0,0-0.381,1.088-0.891,1.063
			c-0.631-0.032-0.557-1.3-0.254-1.832c0.262-0.464,0.629-0.872,1.574-1.392c-0.006-0.28,0.02-0.645,0.02-0.645
			s-2.834,1.224-2.488,3.828c0.344,2.604,2.279,13.579,13.535,51.326c0,0,0.279,0.248,0.422-0.152l-0.217-0.768
			c0,0-0.283-0.597,0.443-0.443c0.461,0.076,0.709,0.459,0.766,0.592l0.307,0.959c0,0,0.23,0.21,0.365-0.114
			c0,0-10.76-34.323-13.057-51.321C33.723,80.058,33.467,77.585,36.184,76.487z"/>
		<path fill="#FFFFFF" d="M57.055,111.945c0-0.055,0-0.118,0-0.184c-5.119,0.045-9.729,0.93-13.027,2.336
			c0.018,0.073,0.035,0.149,0.053,0.225c0.105-0.045,0.205-0.088,0.313-0.133c3.338-1.357,7.732-2.131,12.434-2.197
			C56.902,111.975,56.977,111.958,57.055,111.945z"/>
		<path fill="#FFFFFF" d="M33.229,74.406l-0.027-0.697c-7.084-1.729-12.17-4.224-13.982-7.089h-0.273
			c-0.055-0.032-0.109-0.086-0.164-0.155C20.063,69.686,25.439,72.509,33.229,74.406z"/>
		<path fill="#FFFFFF" d="M64.443,75.978c-2.525,0.163-5.143,0.25-7.826,0.25c-8.393,0-16.152-0.849-22.449-2.287l0.027,0.694
			c6.293,1.435,14.041,2.283,22.422,2.283c2.689,0,5.314-0.087,7.846-0.255L64.443,75.978z"/>
		<path fill="#FFFFFF" d="M90.293,69.893c-5.055,2.97-14.004,5.194-24.717,6.004l0.02,0.688c10.699-0.812,19.641-3.032,24.693-6.002
			L90.293,69.893z"/>
		<path fill="#FFFFFF" d="M90.945,69.487l-0.002,0.69c2.438-1.572,3.805-3.339,3.805-5.206c0-0.114-0.004-0.229-0.016-0.345
			C94.574,66.366,93.23,68.01,90.945,69.487z"/>
		<path fill="#FFFFFF" d="M37.145,125.855c-0.082-0.063-0.178-0.229-0.203-0.278c-8.76-18.353-17.166-40.995-20.982-52.295
			c-0.268-0.843-0.65-2.021-0.076-3.639c0.16-0.453,0.535-0.783,1.016-1.029c-0.178,0.074-0.348,0.153-0.502,0.25
			c-0.393,0.239-0.705,0.555-0.852,0.97c-0.225,0.63-0.307,1.196-0.307,1.704c0,0.822,0.217,1.485,0.383,2.007v0.002l0,0
			c3.813,11.284,12.195,33.872,20.939,52.209c0.023,0.051,0.07,0.135,0.123,0.219c0.057,0.086,0.115,0.168,0.191,0.227
			c0.1,0.068,0.24,0.136,0.416,0.136c0.186,0.001,0.398-0.08,0.609-0.292l0.033-0.036v-0.178
			C37.588,126.098,37.301,125.975,37.145,125.855z"/>
		<path fill="#FFFFFF" d="M35.436,128.794l-0.939,0.978l-1.961-0.692l0.043,0.198c0,0.002,0.057,0.27,0.141,0.681
			c0.129,0.612,0.32,1.534,0.482,2.313c0.08,0.393,0.154,0.746,0.209,1.013c0.025,0.131,0.049,0.239,0.063,0.319
			c0.008,0.039,0.014,0.071,0.02,0.094l0.006,0.027v0.008v0.002l0,0c0.008,0.065,0.029,0.135,0.029,0.22
			c0,0.08-0.016,0.167-0.082,0.259c-0.064,0.094-0.182,0.199-0.4,0.296l-0.002,0.003l0,0c-0.109,0.051-0.205,0.068-0.291,0.068
			c-0.281,0.002-0.494-0.213-0.572-0.295c-0.404-0.403-1.52-1.485-3.537-3.881c-0.951-1.125-1.209-1.866-1.209-2.316
			c0.002-0.227,0.063-0.381,0.137-0.494c0.5,0.328,1.42,0.551,2.479,0.551c1.584,0,2.871-0.498,2.871-1.111
			c0-0.256-0.225-0.489-0.594-0.678c-0.023,0.067-0.066,0.131-0.125,0.191c0.314,0.156,0.488,0.333,0.488,0.484
			c0,0.369-1.004,0.885-2.641,0.885c-1.637,0-2.643-0.516-2.643-0.885c0-0.151,0.174-0.328,0.488-0.484
			c-0.059-0.063-0.102-0.124-0.125-0.191c-0.369,0.188-0.594,0.422-0.594,0.678c0,0.146,0.078,0.289,0.215,0.421
			c-0.104,0.151-0.186,0.354-0.186,0.635c0.002,0.541,0.295,1.317,1.262,2.466c2.021,2.398,3.146,3.492,3.549,3.895
			c0.08,0.076,0.338,0.361,0.736,0.365c0.121,0,0.252-0.029,0.387-0.094l0,0c0,0,0,0,0.002-0.002l0,0l0,0
			c0.244-0.109,0.4-0.236,0.494-0.373c0.096-0.138,0.123-0.277,0.121-0.391c0-0.117-0.027-0.217-0.029-0.242
			c-0.002-0.02-0.006-0.04-0.014-0.082c-0.098-0.509-0.703-3.41-0.869-4.197l1.715,0.605l0.975-1.016h0.334v-0.457l-0.09,0.229
			h-0.343V128.794z"/>
		<ellipse fill="#FFFFFF" cx="56.617" cy="62.485" rx="36.084" ry="10.605"/>
		<path fill="#FFFFFF" d="M22.303,71.818c0.693,2.449,3.941,4.664,8.893,6.376c0.094-0.206,0.207-0.399,0.33-0.576
			c-4.697-1.581-7.922-3.604-8.98-5.851C22.486,71.77,22.408,71.781,22.303,71.818z"/>
		<path fill="#FFFFFF" d="M62.65,80.886c-1.959,0.11-3.975,0.167-6.033,0.167c-7.049,0-13.604-0.672-19.063-1.822
			c-0.115,0.167-0.219,0.372-0.301,0.627c5.52,1.189,12.186,1.886,19.363,1.886c2.131,0,4.217-0.063,6.24-0.181
			C62.807,81.333,62.736,81.104,62.65,80.886z"/>
		<path fill="#FFFFFF" d="M67.387,80.51c0.023,0.215,0.035,0.443,0.037,0.684c8.182-0.854,15.004-2.654,19.188-4.988
			c-0.139-0.11-0.242-0.165-0.32-0.188c-0.037-0.013-0.146-0.072-0.281-0.181C81.783,78.02,75.203,79.695,67.387,80.51z"/>
		<path fill="#FFFFFF" d="M44.721,116.076c1.025-0.939,2.76-1.758,4.949-2.33c1.693-0.443,3.658-0.744,5.775-0.855
			c0.125-0.158,0.266-0.302,0.426-0.426c-3.35,0.151-6.355,0.771-8.627,1.701c-1.141,0.467-2.096,1.016-2.818,1.626
			c0.037,0.155,0.074,0.313,0.111,0.468C44.598,116.197,44.656,116.137,44.721,116.076z"/>
		<path fill="#FFFFFF" d="M39.084,119.337c0-0.869,0.387-1.719,1.127-2.519c-0.025-0.086-0.047-0.166-0.072-0.25
			c-0.826,0.859-1.285,1.791-1.285,2.769c0,1.61,1.238,3.104,3.344,4.334c-0.029-0.104-0.061-0.212-0.092-0.313
			C40.139,122.164,39.084,120.775,39.084,119.337z"/>
		<path fill="#FFFFFF" d="M61.566,112.673c-0.807-0.096-1.639-0.166-2.496-0.205c0.162,0.126,0.305,0.273,0.43,0.433
			c0.697,0.043,1.377,0.104,2.037,0.188C61.547,112.947,61.557,112.813,61.566,112.673z"/>
		<path fill="#FFFFFF" d="M49.611,122.631c2.213,0.58,4.877,0.92,7.742,0.92c1.188,0,2.34-0.063,3.439-0.168
			c0.006-0.08,0.012-0.158,0.018-0.238c-1.105,0.111-2.262,0.176-3.457,0.176c-3.795,0-7.234-0.598-9.711-1.563
			c-0.787-0.306-1.475-0.648-2.049-1.018c0.025,0.109,0.051,0.212,0.076,0.318C46.701,121.686,48.043,122.221,49.611,122.631z"/>
		<path fill="#FFFFFF" d="M71.664,118.495c0,0.754-0.371,1.485-1.076,2.172c-1.057,1.026-2.855,1.922-5.131,2.552
			c-0.428,0.118-0.877,0.223-1.334,0.323c-0.01,0.12-0.02,0.241-0.031,0.36c1.334-0.283,2.549-0.646,3.602-1.078
			c1.314-0.541,2.385-1.184,3.133-1.91c0.75-0.725,1.184-1.546,1.184-2.419c0-0.872-0.434-1.692-1.184-2.419
			c-1.123-1.09-2.967-1.994-5.277-2.635c-0.191-0.055-0.389-0.104-0.584-0.154c-0.012,0.146-0.023,0.289-0.037,0.434
			c0.771,0.197,1.488,0.424,2.139,0.678c1.238,0.479,2.236,1.052,2.92,1.679c0.684,0.627,1.047,1.302,1.047,1.999
			s-0.363,1.371-1.047,2.002c-1.023,0.941-2.758,1.757-4.949,2.332c-0.273,0.07-0.553,0.139-0.838,0.201
			c-0.006,0.08-0.012,0.16-0.02,0.238c1.088-0.24,2.088-0.537,2.969-0.875c1.26-0.49,2.279-1.072,2.994-1.728
			c0.713-0.655,1.121-1.39,1.121-2.172c0-0.72-0.35-1.396-0.961-2.009c0.1,0.084,0.195,0.168,0.285,0.256
			C71.293,117.009,71.664,117.738,71.664,118.495z"/>
		<path fill="#FFFFFF" d="M47.375,122.506c-0.566-0.232-1.08-0.484-1.541-0.751c0.037,0.155,0.074,0.308,0.109,0.459
			c0.967,0.521,2.131,0.974,3.445,1.339c2.313,0.639,5.09,1.012,8.08,1.012c1.117,0,2.203-0.055,3.248-0.153
			c0.008-0.115,0.018-0.229,0.025-0.349c-1.051,0.103-2.146,0.158-3.273,0.158C53.52,124.221,49.947,123.563,47.375,122.506z"/>
		<path fill="#FFFFFF" d="M57.469,118.828c1.654,0,3.076-0.436,3.734-1.055c0.041-0.565,0.082-1.125,0.121-1.67
			c-0.178-0.074-0.367-0.139-0.566-0.197c-0.156-0.092-0.328-0.176-0.516-0.254c0.01,0.041,0.021,0.084,0.033,0.125l0,0
			c0,0.004,0.002,0.006,0.002,0.009c0.025,0.084,0.051,0.167,0.076,0.241c0,0,0,0.004,0.002,0.005l0,0
			c0.088,0.271,0.178,0.483,0.25,0.567c0.105,0.123,0.164,0.256,0.164,0.394c0,0.702-1.479,1.271-3.301,1.271
			c-1.822,0-3.301-0.568-3.301-1.271c0-0.134,0.055-0.267,0.158-0.386c0.072-0.088,0.164-0.305,0.252-0.574l0,0
			c0.002-0.002,0.002-0.006,0.004-0.008c0.023-0.072,0.049-0.153,0.072-0.232c0.002-0.005,0.002-0.008,0.004-0.012l0,0
			c0.01-0.043,0.023-0.084,0.035-0.127c-0.191,0.078-0.363,0.162-0.52,0.254c-0.182,0.054-0.357,0.111-0.521,0.176
			c-0.492,0.191-0.896,0.419-1.18,0.68c-0.285,0.26-0.459,0.563-0.459,0.891c0,0.326,0.174,0.63,0.459,0.891
			c0.428,0.391,1.119,0.708,1.98,0.936c0.865,0.227,1.902,0.356,3.016,0.356c1.395,0,2.66-0.207,3.625-0.546
			c0.006-0.084,0.012-0.167,0.02-0.249c-0.215,0.078-0.443,0.151-0.688,0.216c-0.842,0.221-1.861,0.348-2.957,0.348
			c-1.461,0-2.785-0.229-3.734-0.597c-0.475-0.184-0.854-0.401-1.107-0.636c-0.256-0.232-0.383-0.477-0.383-0.719
			c0-0.245,0.127-0.486,0.383-0.721c0.234-0.219,0.578-0.416,1.004-0.594c-0.184,0.205-0.287,0.43-0.287,0.662
			C53.344,118.009,55.191,118.828,57.469,118.828z"/>
		<path fill="#FFFFFF" d="M61.615,111.949c-1.203-0.113-2.451-0.178-3.732-0.188c0,0.064,0,0.129,0,0.184
			c0.078,0.013,0.154,0.027,0.229,0.047c1.188,0.016,2.354,0.08,3.49,0.184C61.605,112.1,61.609,112.023,61.615,111.949z"/>
		<path fill="#FFFFFF" d="M46.674,125.273c0.02,0.09,0.039,0.174,0.061,0.256c3.033,0.873,6.736,1.39,10.734,1.39
			c1.045,0,2.068-0.038,3.066-0.106c0.006-0.074,0.012-0.152,0.018-0.229c-1.01,0.066-2.041,0.104-3.084,0.104
			C53.537,126.688,49.797,126.191,46.674,125.273z"/>
		<path fill="#FFFFFF" d="M65.691,78.157l0.004,0.178c1.842,1.598,0.752,3.573,0.232,3.601c-0.258,0-0.973,0.295-1.348-1.315
			c-0.287-1.237-0.967-1.964-1.262-2.232c0.291,0.319,0.922,1.424,0.842,5.001c-0.076,6.088-3.408,49.234-3.408,49.234
			c0.02,0.306,0.307,0.038,0.307,0.038s0.02-0.364,0.039-0.727c0.02-0.367,0.268-0.461,0.268-0.461
			c1.455-0.383,1.492,0.307,1.492,0.307s-0.037,0.084-0.01,0.66c0.027,0.574,0.316-0.086,0.316-0.086s3.973-47.797,4.029-50.813
			C67.266,79.192,66.363,78.414,65.691,78.157z"/>
		<polygon fill="#FFFFFF" points="113.758,143.79 113.834,146.141 115.672,146.753 115.586,144.18 		"/>
		<path fill="#FFFFFF" d="M148.42,127.299c-0.18-0.025-0.348,0.172-0.377,0.438c-0.027,0.266,0.094,0.502,0.273,0.525
			c0.178,0.024,0.346-0.173,0.373-0.439C148.719,127.559,148.598,127.32,148.42,127.299z"/>
		<path fill="#FFFFFF" d="M131.125,76.784c0,0-0.051,0.025-0.125,0.12C131.076,76.825,131.125,76.784,131.125,76.784z"/>
		
			<ellipse transform="matrix(-0.9995 0.0328 -0.0328 -0.9995 272.0098 254.2735)" fill="#FFFFFF" cx="133.919" cy="129.368" rx="0.447" ry="0.486"/>
		<path fill="#FFFFFF" d="M157.465,73.853c0,0,0.035,0.354,0.037,0.631c0.863,0.477,1.205,0.864,1.453,1.311
			c0.287,0.512,0.396,1.742-0.168,1.789c-0.455,0.042-0.83-1.008-0.83-1.008c-1.082-2.185-2.75-2.319-2.75-2.319
			c2.467,0.991,2.314,3.409,2.314,3.409c-1.51,16.641-10.035,50.425-10.035,50.425c0.131,0.313,0.328,0.101,0.328,0.101l0.244-0.941
			c0.047-0.133,0.258-0.512,0.666-0.602c0.645-0.172,0.409,0.42,0.409,0.42l-0.168,0.754c0.142,0.388,0.382,0.141,0.382,0.141
			c8.858-37.141,10.239-47.897,10.467-50.447C160.039,74.967,157.465,73.853,157.465,73.853z"/>
		<path fill="#FFFFFF" d="M149.393,111.156c-2.994-1.27-7.145-1.997-11.725-1.893c0.002,0.063,0.004,0.127,0.006,0.18
			c0.068,0.008,0.139,0.021,0.205,0.039c4.207-0.074,8.162,0.551,11.191,1.775c0.098,0.04,0.188,0.08,0.281,0.123
			C149.365,111.307,149.379,111.232,149.393,111.156z"/>
		<path fill="#FFFFFF" d="M157.785,71.458l-0.002,0.683c6.904-2.078,11.623-4.99,12.666-8.167c-0.045,0.066-0.094,0.123-0.141,0.154
			l-0.244,0.008C168.533,66.982,164.066,69.565,157.785,71.458z"/>
		<path fill="#FFFFFF" d="M156.928,71.711c-5.586,1.59-12.498,2.646-20.006,2.893c-2.398,0.077-4.74,0.068-7.006-0.02l0.004,0.672
			c2.27,0.089,4.619,0.099,7.025,0.019c7.494-0.246,14.397-1.299,19.979-2.885L156.928,71.711z"/>
		<path fill="#FFFFFF" d="M128.9,74.539c-9.607-0.473-17.683-2.379-22.299-5.131l0.022,0.676c4.614,2.748,12.685,4.651,22.278,5.127
			L128.9,74.539z"/>
		<path fill="#FFFFFF" d="M106.027,69.708l-0.023-0.674c-2.09-1.371-3.346-2.935-3.541-4.626c-0.006,0.112-0.008,0.222-0.004,0.336
			C102.518,66.563,103.797,68.247,106.027,69.708z"/>
		<path fill="#FFFFFF" d="M173.781,68.814c-0.016-0.494-0.109-1.045-0.328-1.651c-0.145-0.4-0.436-0.699-0.793-0.922
			c-0.141-0.088-0.295-0.162-0.457-0.228c0.438,0.226,0.783,0.537,0.941,0.973c0.565,1.562,0.262,2.72,0.049,3.549
			c-3.055,11.13-9.848,33.46-17.096,51.607c-0.021,0.053-0.101,0.215-0.173,0.278c-0.135,0.122-0.387,0.251-0.709-0.002l0.007,0.177
			l0.03,0.029c0.194,0.2,0.392,0.275,0.558,0.27c0.155-0.004,0.278-0.078,0.367-0.146c0.065-0.057,0.114-0.139,0.161-0.223
			c0.048-0.088,0.084-0.17,0.104-0.217c7.236-18.14,14.012-40.408,17.061-51.522v-0.001v-0.001
			C173.637,70.271,173.807,69.616,173.781,68.814z"/>
		<path fill="#FFFFFF" d="M164.877,123.273c-0.008-0.246-0.213-0.469-0.551-0.642c-0.018,0.067-0.055,0.13-0.105,0.193
			c0.285,0.141,0.447,0.308,0.451,0.454c0.012,0.359-0.869,0.894-2.334,0.939c-1.463,0.047-2.379-0.426-2.389-0.783
			c-0.006-0.148,0.143-0.326,0.42-0.485c-0.057-0.058-0.096-0.119-0.117-0.185c-0.326,0.192-0.518,0.43-0.51,0.676
			c0.02,0.602,1.186,1.047,2.604,1.002c0.945-0.031,1.762-0.272,2.197-0.61c0.07,0.108,0.131,0.258,0.139,0.479
			c0.014,0.439-0.19,1.168-1.008,2.297c-1.727,2.391-2.689,3.481-3.037,3.886c-0.068,0.082-0.252,0.3-0.504,0.308
			c-0.076,0.002-0.162-0.015-0.26-0.064h-0.002h-0.002c-0.199-0.088-0.309-0.188-0.369-0.274c-0.061-0.092-0.076-0.173-0.08-0.254
			c-0.002-0.081,0.014-0.147,0.018-0.211l0,0v-0.002l0.002-0.007l0.004-0.028c0.002-0.021,0.009-0.055,0.015-0.092
			c0.013-0.079,0.024-0.187,0.047-0.317c0.039-0.257,0.095-0.604,0.152-0.99c0.12-0.766,0.264-1.67,0.356-2.271
			c0.064-0.398,0.105-0.665,0.105-0.665l0.031-0.196l-1.73,0.733l-0.873-0.925l-0.305,0.011l-0.088-0.22l0.016,0.445l0.297-0.01
			l0.904,0.958l1.516-0.642c-0.123,0.773-0.574,3.619-0.643,4.119c-0.006,0.041-0.01,0.063-0.012,0.08
			c-0.002,0.026-0.021,0.123-0.019,0.236c0.005,0.11,0.031,0.247,0.121,0.379c0.088,0.129,0.229,0.25,0.453,0.35h0.002
			c0,0,0,0,0.002,0c0.121,0.06,0.24,0.082,0.349,0.078c0.354-0.012,0.578-0.299,0.646-0.375c0.349-0.403,1.317-1.504,3.049-3.901
			c0.828-1.147,1.063-1.917,1.052-2.44c-0.011-0.271-0.091-0.473-0.188-0.615C164.818,123.563,164.883,123.421,164.877,123.273z"/>
		
			<ellipse transform="matrix(0.9995 -0.0327 0.0327 0.9995 -1.9284 4.4955)" fill="#FFFFFF" cx="136.475" cy="61.203" rx="32.291" ry="10.347"/>
		<path fill="#FFFFFF" d="M159.408,75.222c0.117,0.169,0.225,0.354,0.314,0.552c4.375-1.813,7.207-4.07,7.75-6.477
			c-0.097-0.033-0.168-0.044-0.22-0.043C166.379,71.475,163.559,73.543,159.408,75.222z"/>
		<path fill="#FFFFFF" d="M154.066,76.973c-4.844,1.28-10.687,2.126-16.99,2.334c-1.84,0.061-3.646,0.063-5.4,0.014
			c-0.07,0.214-0.127,0.44-0.164,0.666c1.814,0.057,3.682,0.057,5.588-0.01c6.42-0.21,12.359-1.082,17.258-2.406
			C154.273,77.328,154.176,77.129,154.066,76.973z"/>
		<path fill="#FFFFFF" d="M110.623,75.081c-0.117,0.11-0.215,0.17-0.248,0.185c-0.068,0.027-0.16,0.083-0.279,0.193
			c3.814,2.154,9.977,3.709,17.32,4.302c-0.004-0.233-0.002-0.458,0.012-0.671C120.412,78.527,114.471,77.086,110.623,75.081z"/>
		<path fill="#FFFFFF" d="M149.008,113.281c0.027-0.152,0.055-0.307,0.084-0.461c-0.668-0.572-1.539-1.076-2.572-1.502
			c-2.063-0.842-4.771-1.356-7.771-1.405c0.146,0.118,0.276,0.25,0.396,0.399c1.897,0.051,3.666,0.285,5.19,0.668
			c1.979,0.494,3.558,1.24,4.502,2.129C148.896,113.166,148.951,113.225,149.008,113.281z"/>
		<path fill="#FFFFFF" d="M152.895,113.697c0.687,0.761,1.063,1.578,1.09,2.427c0.045,1.401-0.854,2.786-2.575,4.008
			c-0.025,0.099-0.05,0.205-0.072,0.306c1.845-1.258,2.904-2.752,2.853-4.319c-0.031-0.953-0.472-1.851-1.236-2.661
			C152.932,113.538,152.912,113.617,152.895,113.697z"/>
		<path fill="#FFFFFF" d="M135.518,110.443c0.105-0.159,0.23-0.305,0.369-0.432c-0.764,0.061-1.508,0.153-2.225,0.271
			c0.014,0.134,0.025,0.27,0.039,0.404C134.287,110.589,134.895,110.509,135.518,110.443z"/>
		<path fill="#FFFFFF" d="M148.205,117.684c-0.502,0.377-1.107,0.729-1.799,1.051c-2.186,1.012-5.242,1.695-8.637,1.808
			c-1.07,0.035-2.105,0.009-3.099-0.067c0.009,0.076,0.017,0.154,0.022,0.229c0.988,0.073,2.021,0.096,3.082,0.062
			c2.563-0.082,4.935-0.492,6.894-1.121c1.394-0.449,2.576-1.008,3.478-1.647C148.166,117.891,148.184,117.788,148.205,117.684z"/>
		<path fill="#FFFFFF" d="M128.797,112.125c0.572-0.266,1.207-0.508,1.891-0.723c-0.014-0.141-0.028-0.278-0.045-0.42
			c-0.174,0.056-0.35,0.111-0.518,0.166c-2.047,0.691-3.666,1.631-4.637,2.725c-0.646,0.73-1.008,1.542-0.98,2.395
			c0.027,0.851,0.441,1.637,1.133,2.323c0.695,0.688,1.672,1.283,2.865,1.771c0.957,0.392,2.055,0.711,3.256,0.947
			c-0.014-0.115-0.025-0.232-0.039-0.354c-0.412-0.08-0.818-0.174-1.203-0.273c-2.055-0.547-3.692-1.367-4.672-2.34
			c-0.652-0.646-1.01-1.349-1.031-2.084c-0.022-0.736,0.285-1.458,0.894-2.148c0.078-0.088,0.16-0.174,0.248-0.262
			c-0.526,0.618-0.817,1.289-0.795,1.989c0.024,0.763,0.414,1.468,1.071,2.084c0.658,0.617,1.593,1.153,2.73,1.597
			c0.801,0.308,1.703,0.563,2.684,0.767c-0.008-0.077-0.018-0.153-0.024-0.229c-0.258-0.056-0.508-0.115-0.754-0.175
			c-1.979-0.495-3.556-1.239-4.502-2.129c-0.632-0.593-0.978-1.237-1-1.92c-0.021-0.681,0.28-1.349,0.873-1.981
			C126.83,113.219,127.703,112.631,128.797,112.125z"/>
		<path fill="#FFFFFF" d="M134.764,121.366c0.01,0.114,0.021,0.226,0.033,0.338c0.938,0.065,1.91,0.087,2.91,0.054
			c2.674-0.086,5.146-0.531,7.193-1.225c1.164-0.395,2.19-0.868,3.039-1.405c0.024-0.146,0.053-0.296,0.082-0.452
			c-0.404,0.277-0.855,0.536-1.354,0.779c-2.267,1.105-5.44,1.854-8.974,1.967C136.688,121.454,135.707,121.436,134.764,121.366z"/>
		<path fill="#FFFFFF" d="M140.869,116.229c-0.838,0.391-2.014,0.651-3.322,0.695c-0.98,0.031-1.895-0.064-2.654-0.255
			c-0.223-0.056-0.43-0.12-0.621-0.188c0.008,0.08,0.017,0.16,0.023,0.24c0.875,0.303,2.014,0.467,3.26,0.426
			c0.998-0.031,1.922-0.189,2.687-0.437c0.764-0.244,1.372-0.573,1.741-0.97c0.246-0.262,0.392-0.561,0.381-0.881
			c-0.01-0.32-0.174-0.608-0.438-0.854c-0.264-0.245-0.629-0.456-1.076-0.63c-0.147-0.057-0.307-0.105-0.473-0.152
			c-0.143-0.084-0.299-0.162-0.473-0.232c0.012,0.039,0.022,0.082,0.037,0.121h-0.002c0.002,0.002,0.002,0.008,0.004,0.011
			c0.024,0.08,0.049,0.153,0.072,0.226c0.002,0.004,0.002,0.006,0.002,0.008c0.09,0.263,0.178,0.471,0.246,0.553
			c0.094,0.115,0.147,0.24,0.151,0.373c0.022,0.688-1.281,1.281-2.91,1.337c-1.631,0.052-2.969-0.457-2.991-1.146
			c-0.007-0.133,0.043-0.265,0.133-0.387c0.063-0.087,0.137-0.298,0.207-0.561l0,0c0-0.002,0-0.004,0-0.006
			c0.02-0.076,0.041-0.156,0.061-0.238c0-0.002,0-0.006,0.002-0.008l0,0c0.01-0.039,0.018-0.08,0.025-0.121
			c-0.168,0.078-0.318,0.166-0.453,0.262c-0.178,0.063-0.344,0.132-0.5,0.206c0.051,0.532,0.104,1.075,0.16,1.626
			c0.606,0.587,1.895,0.966,3.375,0.918c2.037-0.066,3.664-0.916,3.631-1.9c-0.006-0.229-0.107-0.441-0.277-0.636
			c0.385,0.158,0.699,0.345,0.916,0.55c0.234,0.223,0.357,0.451,0.365,0.688c0.008,0.24-0.098,0.479-0.318,0.716
			C141.619,115.814,141.287,116.037,140.869,116.229z"/>
		<path fill="#FFFFFF" d="M136.932,109.467c0-0.051-0.002-0.111-0.006-0.181c-1.145,0.05-2.258,0.149-3.332,0.294
			c0.008,0.072,0.014,0.146,0.021,0.219c1.012-0.134,2.055-0.229,3.115-0.277C136.797,109.498,136.863,109.48,136.932,109.467z"/>
		<path fill="#FFFFFF" d="M135.014,123.816c0.008,0.076,0.016,0.15,0.023,0.226c0.893,0.037,1.811,0.043,2.746,0.013
			c3.576-0.117,6.869-0.729,9.555-1.671c0.016-0.079,0.031-0.161,0.047-0.25c-2.766,0.986-6.094,1.582-9.611,1.696
			C136.84,123.861,135.918,123.854,135.014,123.816z"/>
		<path fill="#FFFFFF" d="M131,76.904c-0.258,0.27-0.842,0.997-1.061,2.215c-0.281,1.58-0.931,1.313-1.162,1.321
			c-0.465-0.013-1.502-1.905,0.094-3.521l-0.004-0.171c-0.592,0.27-1.373,1.056-1.234,3.343c0.148,2.939,5.229,49.429,5.229,49.429
			s0.279,0.637,0.285,0.076c0.008-0.563-0.028-0.644-0.028-0.644s0.012-0.673,1.325-0.343c0,0,0.226,0.086,0.254,0.439
			c0.029,0.355,0.06,0.708,0.06,0.708s0.267,0.253,0.271-0.048c0,0-4.356-41.974-4.623-47.906
			C130.219,78.32,130.748,77.223,131,76.904z"/>
	</g>
</g>
</svg>
