<?xml version="1.0" encoding="utf-8"?>
<!-- Generator: Adobe Illustrator 15.0.0, SVG Export Plug-In . SVG Version: 6.00 Build 0)  -->
<!DOCTYPE svg PUBLIC "-//W3C//DTD SVG 1.1//EN" "http://www.w3.org/Graphics/SVG/1.1/DTD/svg11.dtd">
<svg version="1.1" id="Ebene_1" xmlns="http://www.w3.org/2000/svg" xmlns:xlink="http://www.w3.org/1999/xlink" x="0px" y="0px"
	 width="190px" height="190px" viewBox="0 0 190 190" enable-background="new 0 0 190 190" xml:space="preserve">
<g id="Orientierungskreise" display="none">
	<g id="Weißer_Kreis_x5F_Violin_9_" display="inline">
		<g>
			<path fill="#4D4D4F" d="M-1122.268,9.917c47.365,0,85.898,38.534,85.898,85.899s-38.534,85.897-85.898,85.897
				c-47.365,0-85.899-38.534-85.899-85.897C-1208.167,48.451-1169.633,9.917-1122.268,9.917 M-1122.268,9.69
				c-47.566,0-86.126,38.559-86.126,86.126c0,47.564,38.56,86.125,86.126,86.125s86.125-38.561,86.125-86.125
				C-1036.143,48.249-1074.702,9.69-1122.268,9.69L-1122.268,9.69z"/>
		</g>
	</g>
	<g id="Weißer_Kreis_x5F_Violin_10_" display="inline">
		<g>
			<path fill="#4D4D4F" d="M-1122.268,12.492c45.944,0,83.322,37.378,83.322,83.322s-37.378,83.322-83.322,83.322
				c-45.945,0-83.323-37.378-83.323-83.322C-1205.591,49.871-1168.212,12.492-1122.268,12.492 M-1122.268,12.272
				c-46.139,0-83.543,37.402-83.543,83.542c0,46.14,37.404,83.543,83.543,83.543c46.139,0,83.542-37.403,83.542-83.543
				S-1076.128,12.272-1122.268,12.272L-1122.268,12.272z"/>
		</g>
	</g>
	<g id="Weißer_Kreis_x5F_Violin_2_" display="inline">
		<g>
			<path fill="#4D4D4F" d="M-1122.268,232.007c47.365,0,85.898,38.534,85.898,85.899s-38.534,85.898-85.898,85.898
				c-47.365,0-85.899-38.535-85.899-85.898C-1208.167,270.542-1169.633,232.007-1122.268,232.007 M-1122.268,231.781
				c-47.566,0-86.126,38.559-86.126,86.125s38.56,86.125,86.126,86.125s86.125-38.559,86.125-86.125
				C-1036.143,270.339-1074.702,231.781-1122.268,231.781L-1122.268,231.781z"/>
		</g>
	</g>
	<g id="Weißer_Kreis_x5F_Violin_1_" display="inline">
		<g>
			<path fill="#4D4D4F" d="M-1122.268,234.583c45.944,0,83.322,37.378,83.322,83.323c0,45.943-37.378,83.322-83.322,83.322
				c-45.945,0-83.323-37.379-83.323-83.322C-1205.591,271.961-1168.212,234.583-1122.268,234.583 M-1122.268,234.363
				c-46.139,0-83.543,37.402-83.543,83.543c0,46.139,37.404,83.541,83.543,83.541c46.139,0,83.542-37.402,83.542-83.541
				C-1038.726,271.766-1076.128,234.363-1122.268,234.363L-1122.268,234.363z"/>
		</g>
	</g>
	<g id="Weißer_Kreis_x5F_Violin_6_" display="inline">
		<g>
			<path fill="#4D4D4F" d="M-1122.268,676.191c47.365,0,85.898,38.535,85.898,85.9c0,47.363-38.534,85.896-85.898,85.896
				c-47.365,0-85.899-38.533-85.899-85.896C-1208.167,714.727-1169.633,676.191-1122.268,676.191 M-1122.268,675.967
				c-47.566,0-86.126,38.559-86.126,86.125c0,47.564,38.56,86.125,86.126,86.125s86.125-38.561,86.125-86.125
				C-1036.143,714.523-1074.702,675.967-1122.268,675.967L-1122.268,675.967z"/>
		</g>
	</g>
	<g id="Weißer_Kreis_x5F_Violin_5_" display="inline">
		<g>
			<path fill="#4D4D4F" d="M-1122.268,678.768c45.944,0,83.322,37.379,83.322,83.324c0,45.943-37.378,83.32-83.322,83.32
				c-45.945,0-83.323-37.377-83.323-83.32C-1205.591,716.146-1168.212,678.768-1122.268,678.768 M-1122.268,678.549
				c-46.139,0-83.543,37.4-83.543,83.543c0,46.139,37.404,83.541,83.543,83.541c46.139,0,83.542-37.402,83.542-83.541
				C-1038.726,715.949-1076.128,678.549-1122.268,678.549L-1122.268,678.549z"/>
		</g>
	</g>
	<g id="Weißer_Kreis_x5F_Violin_8_" display="inline">
		<g>
			<path fill="#4D4D4F" d="M-1122.268,898.285c47.365,0,85.898,38.533,85.898,85.898s-38.534,85.898-85.898,85.898
				c-47.365,0-85.899-38.533-85.899-85.898S-1169.633,898.285-1122.268,898.285 M-1122.268,898.059
				c-47.566,0-86.126,38.559-86.126,86.127c0,47.564,38.56,86.125,86.126,86.125s86.125-38.561,86.125-86.125
				C-1036.143,936.617-1074.702,898.059-1122.268,898.059L-1122.268,898.059z"/>
		</g>
	</g>
	<g id="Weißer_Kreis_x5F_Violin_7_" display="inline">
		<g>
			<path fill="#4D4D4F" d="M-1122.268,900.859c45.944,0,83.322,37.379,83.322,83.324c0,45.943-37.378,83.322-83.322,83.322
				c-45.945,0-83.323-37.379-83.323-83.322C-1205.591,938.238-1168.212,900.859-1122.268,900.859 M-1122.268,900.641
				c-46.139,0-83.543,37.402-83.543,83.543c0,46.139,37.404,83.543,83.543,83.543c46.139,0,83.542-37.404,83.542-83.543
				C-1038.726,938.043-1076.128,900.641-1122.268,900.641L-1122.268,900.641z"/>
		</g>
	</g>
	<g id="Weißer_Kreis_x5F_Violin_4_" display="inline">
		<g>
			<path fill="#4D4D4F" d="M-1122.268,454.102c47.365,0,85.898,38.533,85.898,85.898c0,47.363-38.534,85.898-85.898,85.898
				c-47.365,0-85.899-38.535-85.899-85.898C-1208.167,492.635-1169.633,454.102-1122.268,454.102 M-1122.268,453.873
				c-47.566,0-86.126,38.561-86.126,86.127c0,47.564,38.56,86.125,86.126,86.125s86.125-38.561,86.125-86.125
				C-1036.143,492.434-1074.702,453.873-1122.268,453.873L-1122.268,453.873z"/>
		</g>
	</g>
	<g id="Weißer_Kreis_x5F_Violin_3_" display="inline">
		<g>
			<path fill="#4D4D4F" d="M-1122.267,456.676c45.944,0,83.322,37.379,83.322,83.324c0,45.943-37.378,83.322-83.322,83.322
				c-45.945,0-83.323-37.379-83.323-83.322C-1205.59,494.055-1168.212,456.676-1122.267,456.676 M-1122.267,456.457
				c-46.139,0-83.543,37.402-83.543,83.543c0,46.139,37.404,83.543,83.543,83.543c46.139,0,83.542-37.404,83.542-83.543
				C-1038.725,493.859-1076.128,456.457-1122.267,456.457L-1122.267,456.457z"/>
		</g>
	</g>
</g>
<path d="M153.789,152.929c-0.164-0.854-0.664-1.509-1.369-1.797c-0.252-0.104-36.277-14.794-36.98-15.084
	c-0.252-0.104-0.521-0.156-0.799-0.156c-0.258,0-0.514,0.051-0.764,0.139l-7.836-3.192l25.533-0.682v-0.001h0.002
	c0.658-0.018,1.158-1.295,1.115-2.854c-0.039-1.535-0.588-2.771-1.232-2.792c-0.006,0-0.074-0.002-0.074-0.002l-38.365,1.023
	l-38.453-15.67l-0.063-0.021c-0.162-0.059-0.334-0.086-0.51-0.086c-0.9,0-1.814,0.752-2.273,1.873
	c-0.574,1.401-0.229,2.826,0.785,3.252l0.014,0.006l26.979,11.006l-35.139,0.938h-0.002c-0.053,0.002-0.105,0.002-0.156,0.002
	c-0.564,0-1.043-0.088-1.43-0.223c-0.293-0.1-0.535-0.228-0.73-0.367c-0.297-0.21-0.492-0.441-0.629-0.701
	c-0.137-0.262-0.219-0.559-0.221-0.959c0-0.35,0.07-0.785,0.273-1.311c2.313-5.381,5.898-13.117,9.971-21.672
	c6.129-12.876,13.363-27.625,19.08-39.182c2.857-5.779,5.334-10.761,7.105-14.313c0.887-1.777,1.594-3.197,2.086-4.18
	c0.246-0.491,0.438-0.875,0.568-1.139c0.066-0.133,0.119-0.236,0.154-0.311c0.02-0.037,0.033-0.065,0.045-0.09l0.018-0.035
	l0.01-0.023l0,0c0.309-0.631,0.697-1.031,1.109-1.297c0.416-0.265,0.863-0.389,1.307-0.389c0.354,0,0.703,0.08,1.041,0.247
	c0.338,0.169,0.67,0.425,0.982,0.831c0.014,0.019,0.076,0.102,0.17,0.229c1.551,2.069,12.338,16.508,24.057,32.197
	c11.018,14.748,22.861,30.605,28.639,38.342c0.006,0.008,0.029,0.029,0.035,0.033c0.201,0.112,1.289-0.473,2.502-1.354
	c1.244-0.902,2.152-1.777,2.057-1.977c-0.002-0.004-0.004-0.006-0.006-0.009s-0.02-0.022-0.025-0.029
	c-5.975-8-18.506-24.777-29.875-39.997c-6.023-8.063-11.719-15.688-15.941-21.342c-2.111-2.826-3.855-5.158-5.086-6.807
	c-0.617-0.822-1.104-1.476-1.447-1.935c-0.17-0.228-0.305-0.407-0.402-0.536c-0.049-0.064-0.086-0.115-0.115-0.155
	c-0.031-0.04-0.047-0.063-0.066-0.086l-0.004-0.007c-0.814-1.066-1.834-1.903-2.957-2.46c-0.09-0.044-0.178-0.083-0.268-0.124
	c0.283-0.339,0.578-0.697,0.879-1.078c0.418,0.173,0.914,0.126,1.256-0.326c0.445-0.588,0.9-1.217,1.348-1.885
	c1.299-1.943,2.555-4.211,3.426-6.742V27.67v-0.002c0.701-2.063,1.018-3.982,1.018-5.728c0.002-2.884-0.871-5.295-2.279-7.039
	c-1.406-1.744-3.344-2.817-5.391-3.033c-0.205-0.021-0.41-0.031-0.613-0.031c-0.674,0-1.336,0.117-1.971,0.332
	c-1.113,0.379-2.141,1.052-3.066,1.934c-1.389,1.324-2.564,3.127-3.479,5.258c-0.912,2.131-1.557,4.594-1.838,7.252
	c-0.082,0.793-0.121,1.602-0.121,2.414c0,2.073,0.252,4.168,0.676,6.074c0.234,1.049,0.52,2.041,0.848,2.943
	c0.125,0.086,0.467,0.065,0.836-0.032c0.086,0.227,0.176,0.444,0.268,0.655c-1.063,0.813-1.959,1.9-2.588,3.201l-0.002,0.005
	c0,0-0.014,0.029-0.033,0.069c-0.166,0.334-0.766,1.53-1.693,3.391c-3.252,6.518-10.594,21.26-18.127,36.715
	c-3.768,7.727-7.582,15.633-10.961,22.781c-3.379,7.149-6.316,13.537-8.346,18.263l-0.031,0.075
	c-0.447,1.127-0.682,2.281-0.682,3.414c0,1.125,0.234,2.225,0.686,3.213c0.338,0.742,0.795,1.42,1.344,2.008
	c0.822,0.883,1.844,1.56,2.973,2.007c1.133,0.449,2.371,0.674,3.66,0.674c0.102,0,0.207-0.001,0.311-0.004H44.51l47.996-1.28
	l19.316,7.879c0.242,0.484,0.617,0.865,1.117,1.07c0.252,0.103,36.045,14.698,36.98,15.082c0.254,0.105,0.521,0.156,0.799,0.156
	c1.135,0,2.262-0.898,2.811-2.238C153.832,154.411,153.924,153.624,153.789,152.929z M77.635,29.026
	c0-0.741,0.035-1.471,0.109-2.176c0.391-3.722,1.572-7.005,3.111-9.284c0.766-1.141,1.619-2.028,2.473-2.607
	c0.428-0.29,0.857-0.507,1.275-0.649c0.422-0.143,0.834-0.213,1.246-0.213c0.125,0,0.25,0.007,0.375,0.02
	c1.418,0.15,2.813,0.895,3.869,2.203c1.055,1.31,1.777,3.188,1.779,5.621c0,1.471-0.268,3.143-0.896,4.998
	c-0.787,2.291-1.943,4.393-3.166,6.217c-0.439,0.656-0.887,1.275-1.328,1.855c-0.311,0.409-0.219,0.87,0.059,1.211
	c-0.344,0.434-0.678,0.838-0.998,1.215c-0.852-0.295-1.74-0.445-2.625-0.445c-1.52-0.002-3.029,0.436-4.342,1.272
	c-0.004,0.002-0.006,0.003-0.008,0.005c-0.068-0.162-0.135-0.326-0.201-0.497c0.338-0.177,0.6-0.411,0.594-0.675
	c-0.266-0.752-0.506-1.594-0.703-2.488C77.869,32.862,77.635,30.915,77.635,29.026z"/>
<g>
	<g>
		<path fill="#FFFFFF" d="M131.441,126.962h-0.002c-0.215,0.006-0.717,0.85-0.676,2.391c0.039,1.527,0.586,2.352,0.799,2.352
			c0.076-0.003,0.254-0.156,0.412-0.563c0.188-0.477,0.283-1.145,0.266-1.828C132.199,127.785,131.656,126.962,131.441,126.962z"/>
	</g>
	<g>
		
			<ellipse transform="matrix(0.3792 -0.9253 0.9253 0.3792 -48.8214 235.5896)" fill="#FFFFFF" cx="151.171" cy="154.181" rx="2.166" ry="1.422"/>
	</g>
	<g>
		<path fill="#FFFFFF" d="M54.352,112.386c-0.719-0.285-1.66,0.363-2.109,1.457c-0.447,1.096-0.23,2.225,0.488,2.52h0.002l0,0l0,0
			l58.846,24.004c-0.137-0.678-0.066-1.463,0.252-2.236c0.309-0.754,0.801-1.367,1.377-1.762L54.352,112.386L54.352,112.386z"/>
	</g>
</g>
</svg>
