<?xml version="1.0" encoding="utf-8"?>
<!-- Generator: Adobe Illustrator 15.0.0, SVG Export Plug-In . SVG Version: 6.00 Build 0)  -->
<!DOCTYPE svg PUBLIC "-//W3C//DTD SVG 1.1//EN" "http://www.w3.org/Graphics/SVG/1.1/DTD/svg11.dtd">
<svg version="1.1" id="Ebene_1" xmlns="http://www.w3.org/2000/svg" xmlns:xlink="http://www.w3.org/1999/xlink" x="0px" y="0px"
	 width="190px" height="190px" viewBox="0 0 190 190" enable-background="new 0 0 190 190" xml:space="preserve">
<g id="Orientierungskreise" display="none">
	<g id="Weißer_Kreis_x5F_Violin_9_" display="inline">
		<g>
			<path fill="#4D4D4F" d="M-1122.268,9.917c47.365,0,85.898,38.534,85.898,85.899s-38.534,85.897-85.898,85.897
				c-47.365,0-85.899-38.534-85.899-85.897C-1208.167,48.451-1169.633,9.917-1122.268,9.917 M-1122.268,9.69
				c-47.566,0-86.126,38.559-86.126,86.126c0,47.564,38.56,86.125,86.126,86.125s86.125-38.561,86.125-86.125
				C-1036.143,48.249-1074.702,9.69-1122.268,9.69L-1122.268,9.69z"/>
		</g>
	</g>
	<g id="Weißer_Kreis_x5F_Violin_10_" display="inline">
		<g>
			<path fill="#4D4D4F" d="M-1122.268,12.492c45.944,0,83.322,37.378,83.322,83.322s-37.378,83.322-83.322,83.322
				c-45.945,0-83.323-37.378-83.323-83.322C-1205.591,49.871-1168.212,12.492-1122.268,12.492 M-1122.268,12.272
				c-46.139,0-83.543,37.402-83.543,83.542c0,46.14,37.404,83.543,83.543,83.543c46.139,0,83.542-37.403,83.542-83.543
				S-1076.128,12.272-1122.268,12.272L-1122.268,12.272z"/>
		</g>
	</g>
	<g id="Weißer_Kreis_x5F_Violin_2_" display="inline">
		<g>
			<path fill="#4D4D4F" d="M-1122.268,232.007c47.365,0,85.898,38.534,85.898,85.899s-38.534,85.898-85.898,85.898
				c-47.365,0-85.899-38.535-85.899-85.898C-1208.167,270.542-1169.633,232.007-1122.268,232.007 M-1122.268,231.781
				c-47.566,0-86.126,38.559-86.126,86.125s38.56,86.125,86.126,86.125s86.125-38.559,86.125-86.125
				C-1036.143,270.339-1074.702,231.781-1122.268,231.781L-1122.268,231.781z"/>
		</g>
	</g>
	<g id="Weißer_Kreis_x5F_Violin_1_" display="inline">
		<g>
			<path fill="#4D4D4F" d="M-1122.268,234.583c45.944,0,83.322,37.378,83.322,83.323c0,45.943-37.378,83.322-83.322,83.322
				c-45.945,0-83.323-37.379-83.323-83.322C-1205.591,271.961-1168.212,234.583-1122.268,234.583 M-1122.268,234.363
				c-46.139,0-83.543,37.402-83.543,83.543c0,46.139,37.404,83.541,83.543,83.541c46.139,0,83.542-37.402,83.542-83.541
				C-1038.726,271.766-1076.128,234.363-1122.268,234.363L-1122.268,234.363z"/>
		</g>
	</g>
	<g id="Weißer_Kreis_x5F_Violin_6_" display="inline">
		<g>
			<path fill="#4D4D4F" d="M-1122.268,676.191c47.365,0,85.898,38.535,85.898,85.9c0,47.363-38.534,85.896-85.898,85.896
				c-47.365,0-85.899-38.533-85.899-85.896C-1208.167,714.727-1169.633,676.191-1122.268,676.191 M-1122.268,675.967
				c-47.566,0-86.126,38.559-86.126,86.125c0,47.564,38.56,86.125,86.126,86.125s86.125-38.561,86.125-86.125
				C-1036.143,714.523-1074.702,675.967-1122.268,675.967L-1122.268,675.967z"/>
		</g>
	</g>
	<g id="Weißer_Kreis_x5F_Violin_5_" display="inline">
		<g>
			<path fill="#4D4D4F" d="M-1122.268,678.768c45.944,0,83.322,37.379,83.322,83.324c0,45.943-37.378,83.32-83.322,83.32
				c-45.945,0-83.323-37.377-83.323-83.32C-1205.591,716.146-1168.212,678.768-1122.268,678.768 M-1122.268,678.549
				c-46.139,0-83.543,37.4-83.543,83.543c0,46.139,37.404,83.541,83.543,83.541c46.139,0,83.542-37.402,83.542-83.541
				C-1038.726,715.949-1076.128,678.549-1122.268,678.549L-1122.268,678.549z"/>
		</g>
	</g>
	<g id="Weißer_Kreis_x5F_Violin_8_" display="inline">
		<g>
			<path fill="#4D4D4F" d="M-1122.268,898.285c47.365,0,85.898,38.533,85.898,85.898s-38.534,85.898-85.898,85.898
				c-47.365,0-85.899-38.533-85.899-85.898S-1169.633,898.285-1122.268,898.285 M-1122.268,898.059
				c-47.566,0-86.126,38.559-86.126,86.127c0,47.564,38.56,86.125,86.126,86.125s86.125-38.561,86.125-86.125
				C-1036.143,936.617-1074.702,898.059-1122.268,898.059L-1122.268,898.059z"/>
		</g>
	</g>
	<g id="Weißer_Kreis_x5F_Violin_7_" display="inline">
		<g>
			<path fill="#4D4D4F" d="M-1122.268,900.859c45.944,0,83.322,37.379,83.322,83.324c0,45.943-37.378,83.322-83.322,83.322
				c-45.945,0-83.323-37.379-83.323-83.322C-1205.591,938.238-1168.212,900.859-1122.268,900.859 M-1122.268,900.641
				c-46.139,0-83.543,37.402-83.543,83.543c0,46.139,37.404,83.543,83.543,83.543c46.139,0,83.542-37.404,83.542-83.543
				C-1038.726,938.043-1076.128,900.641-1122.268,900.641L-1122.268,900.641z"/>
		</g>
	</g>
	<g id="Weißer_Kreis_x5F_Violin_4_" display="inline">
		<g>
			<path fill="#4D4D4F" d="M-1122.268,454.102c47.365,0,85.898,38.533,85.898,85.898c0,47.363-38.534,85.898-85.898,85.898
				c-47.365,0-85.899-38.535-85.899-85.898C-1208.167,492.635-1169.633,454.102-1122.268,454.102 M-1122.268,453.873
				c-47.566,0-86.126,38.561-86.126,86.127c0,47.564,38.56,86.125,86.126,86.125s86.125-38.561,86.125-86.125
				C-1036.143,492.434-1074.702,453.873-1122.268,453.873L-1122.268,453.873z"/>
		</g>
	</g>
	<g id="Weißer_Kreis_x5F_Violin_3_" display="inline">
		<g>
			<path fill="#4D4D4F" d="M-1122.267,456.676c45.944,0,83.322,37.379,83.322,83.324c0,45.943-37.378,83.322-83.322,83.322
				c-45.945,0-83.323-37.379-83.323-83.322C-1205.59,494.055-1168.212,456.676-1122.267,456.676 M-1122.267,456.457
				c-46.139,0-83.543,37.402-83.543,83.543c0,46.139,37.404,83.543,83.543,83.543c46.139,0,83.542-37.404,83.542-83.543
				C-1038.725,493.859-1076.128,456.457-1122.267,456.457L-1122.267,456.457z"/>
		</g>
	</g>
</g>
<path id="graue_Fläche_1_" d="M181.029,107.295c0-0.1-0.035-0.195-0.098-0.277c-0.092-0.125-0.239-0.227-0.422-0.297
	c-0.182-0.07-0.4-0.111-0.635-0.111c-0.311,0-0.595,0.072-0.805,0.193c-0.037,0.02-0.072,0.045-0.105,0.07
	c-0.301-0.389-0.654-0.729-1.044-1.035c-0.664-0.518-1.433-0.939-2.246-1.252c-0.813-0.311-1.673-0.51-2.536-0.537l-3.352-0.1
	l-0.243-0.008c-0.006-0.012-0.011-0.021-0.017-0.033c-0.02-0.033-0.04-0.064-0.08-0.09c-0.021-0.014-0.051-0.023-0.08-0.023
	c-0.012,0-0.118,0.002-0.256,0.006h-0.002c-0.029,0-0.883,0.027-0.914,0.027c-0.03,0-0.059,0.01-0.081,0.023
	c-0.021,0.014-0.036,0.029-0.05,0.047c-0.025,0.031-0.043,0.066-0.059,0.109c-0.018,0.045-0.033,0.1-0.047,0.16l-97.858-2.855
	c-0.146-0.359-0.362-0.586-0.604-0.586c-0.368,0-4.372-0.166-4.77-0.166c-0.001,0-0.001,0-0.001,0
	c-0.137-0.004-0.236-0.006-0.284-0.006c-0.239,0-0.452,0.223-0.6,0.576l-5.521-0.162c-0.146-0.365-0.363-0.596-0.607-0.596
	c-0.369,0-0.791-0.046-1.188-0.046h-0.002c-0.137-0.004-0.236-0.006-0.283-0.006c-0.238,0-0.451,0.22-0.598,0.569l-3.595-0.104
	l-0.032-4.561l1.834,0.598c0.03,0.01,0.061,0.012,0.09,0.01c0.027,0.006,0.056,0.01,0.086,0.01c0.213,0,0.385-0.172,0.385-0.385
	v-3.871c0-0.202-0.156-0.367-0.354-0.382c-0.047-0.019-0.101-0.023-0.152-0.004l-1.912,0.662l-0.051-7.185
	c3.342,0.044,6.801,0.107,10.193,0.196c4.721,0.125,9.301,0.296,13.225,0.539c3.921,0.241,7.186,0.551,9.267,0.947
	c6.514,1.237,10.353,4.681,12.487,7.496c0.281,1.641,0.624,2.978,1.012,3.915c0.195,0.471,0.401,0.839,0.623,1.101
	c0.111,0.129,0.228,0.23,0.35,0.301c0.122,0.072,0.252,0.11,0.387,0.11c0.127,0,0.252-0.036,0.37-0.101
	c0.221-0.121,0.419-0.344,0.608-0.647c0.33-0.533,0.631-1.331,0.9-2.35c0.807-3.057,1.33-8.112,1.331-13.835
	c0-4.651-0.347-8.863-0.909-11.917c-0.281-1.527-0.616-2.765-0.993-3.629c-0.188-0.432-0.388-0.772-0.602-1.01
	c-0.106-0.119-0.218-0.212-0.336-0.278c-0.118-0.064-0.243-0.1-0.37-0.1c-0.123,0-0.244,0.033-0.357,0.093
	c-0.2,0.106-0.381,0.292-0.553,0.549c-0.258,0.384-0.497,0.926-0.719,1.608c-0.221,0.676-0.422,1.489-0.604,2.417
	c-2.116,2.775-3.419,5.532-12.625,7.486c-8.499,1.805-47.991,3.379-54.012,3.611c-0.106-0.101-0.226-0.158-0.351-0.158
	c-0.068,0-0.189,0-0.34,0c-0.316,0-1.68,0-2.371,0c-0.15,0-0.27,0-0.34,0c-0.144,0-0.278,0.075-0.396,0.206l-6.992,0.08
	c-0.115-0.113-0.248-0.176-0.389-0.176c-0.041,0-0.172,0-0.34,0c-0.104,0-0.759,0-1.178,0c-0.168,0-0.298,0-0.341,0
	c-0.223,0-0.425,0.157-0.578,0.425c-0.222,0.004-0.389,0.007-0.483,0.01c-1.035,0.039-2.344,0.461-3.237,0.925
	c-0.671,0.348-1.281,0.805-1.817,1.347c-0.805,0.813-1.446,1.814-1.889,2.938c-0.443,1.123-0.687,2.371-0.687,3.68v2.182
	c0.001,2.327,0.767,4.46,2.063,6.048c0.647,0.794,1.433,1.571,2.33,2.036c0.872,0.451,1.851,0.711,2.872,0.725v0.002l0.861,0.014
	c0.15,0.256,0.349,0.404,0.565,0.404c0.04,0,0.171,0,0.341,0c0.42,0,1.078,0,1.178,0c0.17,0,0.3,0,0.34,0
	c0.142,0,0.275-0.072,0.393-0.201l6.909,0.123c0.118,0.129,0.251,0.203,0.392,0.203c0.074,0,0.192,0,0.34,0
	c0.693,0,2.117,0.096,2.455,0.096c0.148,0,0.268,0,0.34,0c0.203,0,0.391-0.131,0.537-0.357l13.117,0.326
	c0.461,0.35,1.031,0.557,1.65,0.557c0.302,0,0.591-0.051,0.863-0.143c-0.388,0.566-0.643,1.52-0.643,2.6
	c0,1.738,0.656,3.143,1.465,3.143c0.154,0,0.748,0.023,0.914,0.023c0.355,0,0.684-0.275,0.937-0.73
	c0.181,0.035,0.366,0.057,0.558,0.063c1.146,0.033,2.154-0.477,2.668-1.252c0.414,0.012,0.832,0.023,1.245,0.037
	c0.108,0.176,0.243,0.281,0.39,0.281l0,0c0.779,0.025,2.992,0.092,5,0.154c0.152,0.285,0.352,0.459,0.57,0.459
	c0.404,0,4.703,0.178,5.137,0.178l0,0c0.147,0.006,0.255,0.008,0.307,0.008c0.277,0,0.525-0.281,0.683-0.713
	c15.163,0.465,41.21,1.266,64.153,1.969c12.246,0.373,23.607,0.721,31.958,0.975c3.563,0.107,6.576,0.199,8.878,0.268
	c0.006,0.027,0.012,0.055,0.018,0.08c0.02,0.088,0.043,0.16,0.074,0.217c0.02,0.033,0.039,0.064,0.078,0.092
	c0.021,0.012,0.051,0.023,0.082,0.023c0.012,0,0.117-0.004,0.256-0.008l0,0c0.031,0,0.884-0.025,0.914-0.025
	c0.031,0,0.061-0.012,0.082-0.025c0.016-0.01,0.028-0.021,0.039-0.033c1.549,0.047,2.621,0.078,3.133,0.092h0.002
	c0.021,0,0.043,0,0.063,0c0.119,0,0.224-0.006,0.334-0.018c0.164-0.016,0.334-0.039,0.512-0.074c0.178-0.037,0.359-0.08,0.557-0.148
	h0.001c0.223-0.078,0.468-0.174,0.724-0.295c0.193-0.092,0.389-0.195,0.586-0.318c0.148-0.094,0.297-0.197,0.444-0.318
	c0.218-0.182,0.438-0.4,0.626-0.701c0.094-0.15,0.178-0.322,0.238-0.516c0.061-0.191,0.097-0.404,0.098-0.623
	c0.115,0.023,0.236,0.037,0.363,0.037c0.313,0,0.596-0.072,0.805-0.193c0.105-0.061,0.191-0.133,0.252-0.215
	c0.063-0.084,0.098-0.18,0.098-0.279C181.029,107.613,181.029,107.363,181.029,107.295z M17.876,93.307h-1.279
	c-0.167,0-0.319-0.037-0.472-0.11c-0.227-0.108-0.445-0.306-0.607-0.583c-0.164-0.275-0.267-0.624-0.267-1.008l0,0v-0.001v-0.003
	c-0.001-0.513,0.185-0.959,0.446-1.256c0.13-0.148,0.277-0.261,0.428-0.333c0.152-0.073,0.305-0.109,0.472-0.11h1.279V93.307z
	 M17.876,87.649h-1.279h-0.003c-0.516,0-1.012,0.122-1.451,0.334c-0.66,0.321-1.197,0.841-1.566,1.466
	c-0.371,0.628-0.58,1.37-0.58,2.155c0.001,1.049,0.369,2.017,1.004,2.742c0.316,0.362,0.701,0.666,1.143,0.879
	c0.439,0.213,0.936,0.334,1.451,0.334h0.002l0,0h1.28v3.883c-0.146,0-0.258,0-0.297,0c-0.184,0-0.353,0.105-0.491,0.291
	l-0.846-0.016H16.23c-0.617,0-1.199-0.149-1.75-0.434c-0.412-0.213-0.805-0.504-1.162-0.865c-0.537-0.541-0.995-1.243-1.314-2.057
	c-0.32-0.814-0.505-1.739-0.505-2.723v0v-2.182c0-0.875,0.146-1.704,0.403-2.448c0.385-1.118,1.025-2.044,1.785-2.67
	c0.379-0.313,0.787-0.553,1.211-0.715c0.428-0.162,0.96-0.309,1.373-0.336c0.055-0.004,0.336-0.007,0.777-0.009
	c0.146,0.243,0.33,0.388,0.53,0.388c0.036,0,0.149,0,0.297,0V87.649z M53.643,96.293l-1.628-0.529l-0.003-0.394l1.631-0.623V96.293z
	 M53.643,94.276l-1.635,0.625v-0.128l1.635-1.362V94.276z M53.643,92.758v0.081l-1.639,1.366l-0.006-0.877L53.643,92.758z
	 M50.511,100.74l-0.942-0.027c0.277-0.428,0.439-0.941,0.439-1.493c0-0.321-0.055-0.629-0.155-0.916
	c0.022-0.264,0.034-0.529,0.039-0.794l0.593-0.495L50.511,100.74z M45.858,89.95c0.335,0.431,0.623,0.929,0.845,1.483
	c0.318,0.79,0.5,1.69,0.5,2.649c0,0.588,0.02,1.152,0.041,1.682c0.01,0.264,0.02,0.519,0.026,0.764
	c-0.513,0.02-0.987,0.189-1.384,0.467c0-0.313,0-5.501,0-6.678v-0.003C45.887,90.19,45.875,90.068,45.858,89.95z M50.403,85.658
	l0.077,10.789l-0.588,0.49c-0.007-0.422-0.023-0.846-0.039-1.272c-0.021-0.526-0.039-1.056-0.039-1.582h-0.057h0.057
	c-0.002-2.292-0.77-4.389-2.064-5.95l0,0c-0.648-0.778-1.434-1.424-2.324-1.877v0c-0.657-0.334-1.374-0.562-2.123-0.657
	C45.531,85.609,47.926,85.629,50.403,85.658z M29.926,85.667c0.148,0,0.268,0,0.34,0c0.123,0,0.238-0.055,0.344-0.152
	c0.904,0.015,2.554,0.067,2.554,0.067c-0.817,0.052-1.599,0.26-2.312,0.594c-0.186,0.087-0.367,0.184-0.543,0.287l-0.443-0.796
	C29.888,85.667,29.909,85.667,29.926,85.667z M19.471,85.665c0.129-0.01,0.25-0.081,0.359-0.198h6.992
	c0.118,0.127,0.252,0.2,0.393,0.2c0.072,0,0.192,0,0.34,0c0.375,0,0.938,0,1.43,0l0.682,1.224c-0.305,0.229-0.592,0.483-0.857,0.758
	h-9.338V85.665z M26.702,93.307h-0.595v-3.404h1.217c-0.402,0.943-0.629,1.989-0.629,3.083
	C26.695,93.093,26.698,93.199,26.702,93.307z M19.471,89.902h5.867v3.404h-5.867V89.902z M28.974,99.552c-0.49,0-1.05,0-1.419,0
	c-0.15,0-0.27,0-0.34,0c-0.144,0-0.278,0.076-0.396,0.207l-6.986-0.129c-0.107-0.104-0.233-0.176-0.361-0.186V95.56h7.621
	c0.019,0.059,0.037,0.118,0.058,0.176c0.228,0.641,0.54,1.237,0.935,1.774c0.296,0.404,0.638,0.774,1.02,1.102L28.974,99.552z
	 M30.83,99.999c-0.152-0.278-0.349-0.447-0.564-0.447c-0.068,0-0.189,0-0.34,0c-0.041,0-0.102,0-0.176,0l0.058-0.414
	c0.177,0.116,0.358,0.226,0.548,0.326c0.43,0.227,0.889,0.412,1.373,0.555L30.83,99.999z M39.73,97.969l0.006-0.002
	c-0.271,0.102-0.594,0.157-0.936,0.164h-0.01c-0.102,0-0.479-0.024-0.979-0.062c-0.752-0.055-1.791-0.139-2.643-0.207
	c-0.426-0.036-0.805-0.066-1.076-0.089c-0.27-0.023-0.434-0.036-0.438-0.037l0,0c-0.727-0.063-1.353-0.233-1.883-0.482
	c-0.399-0.188-0.746-0.42-1.045-0.689c-0.182-0.166-0.344-0.348-0.491-0.544L30.3,95.56h8.502l0,0h0.001
	c0.305,0,0.59,0.05,0.84,0.132l0,0h0.002c0.377,0.125,0.675,0.331,0.854,0.541l0,0c0.091,0.105,0.154,0.211,0.193,0.313l0,0
	c0.041,0.102,0.06,0.197,0.061,0.301c-0.002,0.139-0.034,0.264-0.107,0.403c-0.056,0.104-0.137,0.21-0.246,0.313l0,0
	c-0.162,0.155-0.389,0.3-0.662,0.404L39.73,97.969z M40.354,100.138h-0.002H40.354c0.726-0.242,1.368-0.648,1.853-1.207l0,0
	c0.24-0.281,0.44-0.6,0.581-0.952c0.14-0.352,0.217-0.736,0.217-1.131v-0.002v-0.004c0-0.527-0.14-1.033-0.376-1.47l-0.001-0.001
	l0.002,0.001c-0.18-0.331-0.41-0.624-0.678-0.878l0,0c-0.402-0.38-0.885-0.676-1.418-0.877c-0.534-0.201-1.119-0.31-1.731-0.31
	h-9.485c-0.006-0.106-0.01-0.211-0.01-0.321c0-0.674,0.125-1.313,0.351-1.894c0.168-0.435,0.392-0.833,0.659-1.189l12.751,0.001
	c0.034,0.011,0.075,0.025,0.12,0.044v0.001c0.07,0.027,0.147,0.063,0.215,0.104v0c0.1,0.059,0.176,0.131,0.199,0.165v0v0
	c0.015,0.021,0.019,0.03,0.022,0.041c0.004,0.014,0.007,0.022,0.007,0.056c0,1.178,0,6.355,0,6.677c0,0.013,0,0.028,0,0.046
	c0,0.113,0.008,0.326,0.06,0.602c0.038,0.206,0.103,0.449,0.216,0.71c0.02,0.043,0.041,0.088,0.063,0.132
	c-0.127,0.092-0.248,0.193-0.357,0.307c-0.389,0.397-0.662,0.915-0.764,1.493l-2.764-0.066
	C40.176,100.192,40.266,100.167,40.354,100.138z M57.516,104.994c-1.568-0.047-3.011-0.092-3.539-0.107c-0.002,0-0.004,0-0.006,0
	c-0.145,0-0.278,0.1-0.386,0.268c-0.39-0.012-0.78-0.023-1.169-0.033c-0.459-0.818-1.447-1.402-2.609-1.436
	c-0.23-0.008-0.457,0.008-0.674,0.045c-0.258-0.484-0.595-0.779-0.963-0.779c-0.129,0-0.563-0.014-0.799-0.02
	c0.029-0.025,0.061-0.055,0.09-0.08l8.164,0.236c0.147,0.377,0.369,0.617,0.617,0.617c0.376,0,0.784,0.045,1.188,0.045
	c0,0,0,0,0.001,0c0.137,0.004,0.235,0.006,0.284,0.006c0.242,0,0.459-0.229,0.605-0.59l1.342,0.039L57.516,104.994z M66.846,105.557
	c-0.399-0.012-0.791-0.023-1.176-0.037c-0.158-0.443-0.408-0.732-0.689-0.732c-0.329,0-3.348-0.121-4.614-0.164l1.62-1.35
	l1.842,0.055c0.146,0.373,0.367,0.609,0.614,0.609c0.302,0,2.935,0.107,4.168,0.15L66.846,105.557z M175.402,108.598
	c0,0-0.001,0-0.002,0l0,0h0.006H175.402z M176.379,108.309c-0.158,0.078-0.335,0.148-0.486,0.201l0,0
	c-0.016,0.004-0.057,0.018-0.105,0.029c-0.074,0.016-0.17,0.033-0.251,0.045c-0.04,0.004-0.076,0.008-0.104,0.01
	c-0.013,0.002-0.024,0.002-0.031,0.002l-0.007,0.002c-0.51-0.016-1.586-0.045-3.135-0.092c-0.008-0.018-0.016-0.035-0.023-0.051
	c-0.02-0.033-0.041-0.064-0.08-0.09c-0.021-0.014-0.051-0.023-0.082-0.023c-0.009,0-0.117,0.002-0.253,0.008
	c-0.001,0-0.001-0.002-0.001-0.002c-0.033,0-0.885,0.027-0.916,0.027s-0.061,0.01-0.082,0.023c-0.021,0.014-0.036,0.029-0.049,0.047
	c-0.025,0.033-0.043,0.066-0.059,0.107c-0.02,0.051-0.036,0.111-0.051,0.182c-17.136-0.514-73.386-2.242-101.5-3.105l2.488-2.072
	l96.287,2.811c0.006,0.033,0.014,0.066,0.021,0.098c0.021,0.088,0.043,0.158,0.074,0.217c0.02,0.033,0.039,0.064,0.079,0.09
	c0.022,0.014,0.051,0.023,0.081,0.023c0.011,0,0.119-0.002,0.255-0.008l0.001,0.002c0.031,0,0.885-0.025,0.916-0.025
	c0.029,0,0.059-0.012,0.08-0.025s0.037-0.029,0.051-0.045c0-0.002,0.002-0.002,0.002-0.004l0.207,0.006l3.352,0.1
	c0.316,0.008,0.686,0.066,1.064,0.17c0.568,0.154,1.158,0.414,1.648,0.721c0.245,0.152,0.465,0.316,0.647,0.479
	c0.029,0.027,0.058,0.053,0.087,0.08C176.465,108.266,176.422,108.287,176.379,108.309z"/>
<g>
	<path fill="#FFFFFF" d="M179.875,106.818c-0.459,0-0.831,0.213-0.831,0.477c0,0.268,0.372,0.48,0.831,0.48
		c0.46,0,0.832-0.213,0.832-0.48C180.707,107.031,180.335,106.818,179.875,106.818z"/>
	<path fill="#FFFFFF" d="M17.557,82.119c-0.475,0-0.875,0.718-0.875,1.725c0,1.007,0.386,1.828,0.861,1.828
		c0.023,0.006,0.199,0.006,0.324-0.004c0.006-0.001,0.024-0.003,0.01-0.005c-0.455-0.045-0.818-0.842-0.818-1.819
		c0-1.007,0.385-1.713,0.861-1.713C17.779,82.111,17.6,82.119,17.557,82.119z"/>
	<path fill="#FFFFFF" d="M27.555,82.021c-0.148-0.013-0.264-0.017-0.332-0.017c-0.476,0-0.896,0.833-0.896,1.839
		c0,1.007,0.398,1.834,0.874,1.834c0.071,0,0.225-0.007,0.354-0.012c-0.476,0-0.861-0.815-0.861-1.822
		C26.693,82.837,27.079,82.021,27.555,82.021z"/>
	<path fill="#FFFFFF" d="M30.288,82.021c-0.112-0.02-0.308-0.013-0.376-0.013c-0.477,0-0.872,0.829-0.872,1.836
		c0,1.007,0.386,1.831,0.861,1.831c0.071,0,0.239,0.003,0.387-0.009c-0.476,0-0.86-0.815-0.86-1.822
		C29.428,82.837,29.813,82.021,30.288,82.021z"/>
	<path fill="#FFFFFF" d="M19.486,99.442c-0.003,0-0.006,0-0.01-0.001c-0.15-0.008-0.311-0.008-0.353-0.008
		c-0.476,0-0.87,0.716-0.87,1.723c0,1.006,0.395,1.725,0.87,1.725c0.041,0,0.198,0.006,0.362-0.014
		c-0.477,0-0.862-0.705-0.862-1.711C18.624,100.149,19.01,99.442,19.486,99.442z"/>
	<path fill="#FFFFFF" d="M30.288,99.552c-0.126-0.031-0.301-0.012-0.37-0.012c-0.447,0-0.861,0.829-0.861,1.835
		s0.396,1.729,0.873,1.729c0.07,0,0.232-0.004,0.358-0.016c-0.476,0-0.86-0.707-0.86-1.713S29.813,99.552,30.288,99.552z"/>
	<path fill="#FFFFFF" d="M27.512,99.552c-0.123-0.029-0.293-0.012-0.359-0.012c-0.436,0-0.838,0.805-0.838,1.784
		c0,0.979,0.344,1.691,0.848,1.68c0.07-0.002,0.227-0.002,0.35-0.014c-0.461,0-0.836-0.688-0.836-1.666
		C26.676,100.345,27.051,99.552,27.512,99.552z"/>
	<ellipse fill="#FFFFFF" cx="99.416" cy="83.326" rx="2.716" ry="15.194"/>
	<path fill="#FFFFFF" d="M64.893,104.785c-0.149-0.025-0.268-0.021-0.319-0.021c-0.474,0-0.881,0.832-0.881,1.838
		c0,1.008,0.396,1.836,0.871,1.836c0.044,0,0.18,0.004,0.306-0.008v-0.002c-0.463-0.027-0.836-0.83-0.836-1.82
		C64.033,105.604,64.418,104.787,64.893,104.785z"/>
	<path fill="#FFFFFF" d="M57.633,100.371c-0.127-0.021-0.26-0.024-0.307-0.024c-0.441,0-0.8,0.759-0.8,1.692
		c0,0.936,0.358,1.717,0.8,1.717c0.078,0.01,0.172,0.018,0.3,0h-0.029c-0.43-0.025-0.761-0.775-0.761-1.693
		C56.836,101.129,57.191,100.373,57.633,100.371z"/>
	<path fill="#FFFFFF" d="M55.738,102.021c0-0.934,0.357-1.69,0.797-1.692c-0.127-0.02-0.26-0.023-0.307-0.023
		c-0.441,0-0.799,0.759-0.799,1.692c0,0.936,0.298,1.672,0.791,1.723c0.078,0.01,0.18,0.014,0.308-0.006l-0.027-0.006
		C56.068,103.682,55.738,102.939,55.738,102.021z"/>
	<path fill="#FFFFFF" d="M49.068,103.734c-0.051-0.012-0.101-0.02-0.152-0.018c-0.686,0.002-1.236,1.08-1.23,2.406
		c0.006,1.324,0.566,2.398,1.252,2.395c0.017,0,0.033,0,0.051-0.002c-0.555-0.145-0.989-1.152-0.995-2.379
		C47.988,104.838,48.466,103.779,49.068,103.734z"/>
	<polygon fill="#FFFFFF" points="45.428,86.255 45.426,86.254 45.426,86.255 	"/>
	<path fill="#FFFFFF" d="M54.209,104.891c-0.034-0.021-0.215-0.012-0.253-0.012c-0.359,0-0.66,0.621-0.66,1.381
		s0.284,1.396,0.642,1.396c0.039,0,0.255-0.012,0.255-0.012c-0.358-0.002-0.65-0.627-0.65-1.385
		C53.542,105.5,53.882,104.898,54.209,104.891z"/>
	<path fill="#FFFFFF" d="M169.547,103.9c-0.019-0.035-0.041-0.064-0.08-0.092c-0.021-0.014-0.05-0.023-0.082-0.023
		c-0.01,0-0.139-0.006-0.273,0.016c0.03,0,0.059,0.01,0.079,0.023c0.04,0.027,0.061,0.057,0.079,0.092
		c0.033,0.057,0.055,0.129,0.076,0.217c0.062,0.264,0.099,0.68,0.1,1.152c-0.001,0.385-0.025,0.732-0.068,0.988
		c-0.021,0.129-0.045,0.236-0.078,0.316c-0.016,0.041-0.033,0.078-0.058,0.109c-0.013,0.016-0.028,0.033-0.051,0.047
		c-0.021,0.012-0.049,0.023-0.081,0.023c0.08,0.018,0.266,0.006,0.273,0.006c0.033,0,0.062-0.01,0.082-0.023
		c0.022-0.012,0.037-0.029,0.05-0.045c0.026-0.033,0.051-0.082,0.066-0.123c0.031-0.082,0.056-0.188,0.077-0.316
		c0.043-0.258,0.067-0.605,0.067-0.988c0-0.475-0.037-0.891-0.099-1.154C169.605,104.037,169.578,103.957,169.547,103.9z"/>
	<path fill="#FFFFFF" d="M168.624,103.926c-0.019-0.035-0.039-0.066-0.079-0.092c-0.021-0.014-0.051-0.023-0.082-0.023
		c-0.01,0-0.139-0.006-0.273,0.016c0.031,0,0.059,0.01,0.08,0.023c0.04,0.025,0.06,0.057,0.078,0.09
		c0.033,0.059,0.055,0.129,0.076,0.219c0.061,0.264,0.098,0.678,0.098,1.152c0,0.385-0.024,0.73-0.067,0.988
		c-0.021,0.129-0.044,0.234-0.077,0.316c-0.016,0.041-0.032,0.076-0.058,0.109c-0.013,0.016-0.029,0.031-0.05,0.045
		c-0.021,0.014-0.05,0.023-0.081,0.023c0.079,0.018,0.263,0.008,0.273,0.008c0.03,0,0.06-0.01,0.081-0.023s0.037-0.029,0.051-0.045
		c0.024-0.033,0.049-0.082,0.064-0.123c0.032-0.082,0.057-0.189,0.078-0.316c0.041-0.258,0.066-0.605,0.066-0.99
		c0-0.473-0.037-0.889-0.099-1.152C168.684,104.063,168.655,103.982,168.624,103.926z"/>
	<path fill="#FFFFFF" d="M172.25,108.445c-0.02-0.033-0.04-0.064-0.08-0.09c-0.021-0.014-0.051-0.023-0.081-0.023
		c-0.011,0-0.13-0.006-0.268,0.018c0.03,0,0.058,0.01,0.079,0.023c0.04,0.025,0.06,0.057,0.079,0.09
		c0.031,0.057,0.054,0.127,0.075,0.217c0.061,0.264,0.099,0.68,0.099,1.152c0,0.385-0.025,0.732-0.067,0.99
		c-0.021,0.127-0.046,0.232-0.077,0.316c-0.016,0.041-0.033,0.076-0.06,0.107c-0.012,0.018-0.027,0.033-0.049,0.047
		c-0.022,0.014-0.05,0.023-0.08,0.023c0.019-0.002,0.26,0.008,0.27,0.008c0.031,0,0.061-0.01,0.082-0.021
		c0.021-0.016,0.037-0.031,0.051-0.047c0.025-0.033,0.042-0.068,0.058-0.109c0.032-0.082,0.062-0.203,0.083-0.332
		c0.042-0.258,0.066-0.604,0.068-0.988c-0.002-0.475-0.038-0.891-0.1-1.154C172.311,108.584,172.28,108.504,172.25,108.445z"/>
	<path fill="#FFFFFF" d="M171.342,108.473c-0.02-0.031-0.039-0.063-0.08-0.09c-0.021-0.014-0.049-0.023-0.08-0.023
		c-0.012,0-0.131-0.006-0.269,0.018c0.029,0,0.058,0.012,0.079,0.023c0.039,0.025,0.06,0.057,0.078,0.09
		c0.032,0.059,0.055,0.129,0.076,0.219c0.061,0.262,0.1,0.678,0.1,1.152c0,0.383-0.025,0.73-0.068,0.988
		c-0.021,0.127-0.045,0.234-0.077,0.316c-0.016,0.041-0.034,0.076-0.06,0.109c-0.013,0.016-0.027,0.033-0.049,0.045
		c-0.021,0.014-0.051,0.023-0.08,0.023c0.019,0,0.26,0.01,0.271,0.01c0.03,0,0.06-0.01,0.081-0.023s0.037-0.029,0.051-0.047
		c0.025-0.031,0.042-0.068,0.059-0.109c0.031-0.082,0.061-0.203,0.082-0.33c0.043-0.258,0.068-0.605,0.068-0.99
		c0-0.473-0.037-0.889-0.1-1.152C171.403,108.613,171.373,108.531,171.342,108.473z"/>
	<path fill="#FFFFFF" d="M45.804,99.917c-0.202,0-0.382,0.094-0.501,0.242c0.108-0.08,0.238-0.131,0.383-0.131
		c0.357,0,0.646,0.299,0.646,0.663c0,0.16-0.055,0.307-0.146,0.42c0.16-0.119,0.266-0.314,0.266-0.533
		C46.451,100.212,46.16,99.917,45.804,99.917z"/>
	<ellipse fill="#FFFFFF" cx="45.57" cy="100.787" rx="0.647" ry="0.663"/>
	<path fill="#FFFFFF" d="M19.105,85.672c0.023,0.006,0.242,0.006,0.369-0.004c0.007-0.001-0.021-0.003-0.035-0.005
		c-0.456-0.045-0.82-0.842-0.82-1.819c0-1.007,0.387-1.713,0.863-1.713c-0.142-0.021-0.32-0.012-0.363-0.012
		c-0.476,0-0.875,0.718-0.875,1.725C18.244,84.852,18.629,85.672,19.105,85.672z"/>
	<path fill="#FFFFFF" d="M17.053,101.156c0-0.978,0.362-1.685,0.818-1.712c-0.119-0.024-0.264-0.014-0.303-0.014
		c-0.477,0-0.887,0.719-0.887,1.726c0,1.006,0.396,1.725,0.871,1.725c0.041,0,0.197,0.006,0.361-0.014
		C17.438,102.867,17.053,102.162,17.053,101.156z"/>
	<path fill="#FFFFFF" d="M59.854,104.613c-0.149-0.027-0.268-0.023-0.318-0.023c-0.477,0-0.883,0.832-0.883,1.838
		s0.396,1.838,0.872,1.838c0.044,0,0.18,0.004,0.306-0.008v-0.002c-0.463-0.027-0.836-0.832-0.836-1.82
		C58.994,105.43,59.379,104.615,59.854,104.613z"/>
	<path fill="#FFFFFF" d="M69.428,100.725c-0.139-0.025-0.248-0.02-0.296-0.02c-0.44,0-0.817,0.77-0.817,1.701
		c0,0.934,0.367,1.703,0.808,1.703c0.042,0,0.167,0.004,0.284-0.008V104.1c-0.43-0.025-0.775-0.77-0.775-1.688
		C68.631,101.482,68.988,100.727,69.428,100.725z"/>
	<path fill="#FFFFFF" d="M64.418,103.957c0.043,0,0.168,0.004,0.285-0.008l-0.016-0.01c-0.431-0.025-0.754-0.777-0.754-1.693
		c0-0.932,0.356-1.688,0.797-1.689c-0.139-0.023-0.248-0.02-0.296-0.02c-0.44,0-0.817,0.771-0.817,1.703
		S63.979,103.957,64.418,103.957z"/>
</g>
</svg>
