<?xml version="1.0" encoding="utf-8"?>
<!-- Generator: Adobe Illustrator 15.0.0, SVG Export Plug-In . SVG Version: 6.00 Build 0)  -->
<!DOCTYPE svg PUBLIC "-//W3C//DTD SVG 1.1//EN" "http://www.w3.org/Graphics/SVG/1.1/DTD/svg11.dtd">
<svg version="1.1" xmlns="http://www.w3.org/2000/svg" xmlns:xlink="http://www.w3.org/1999/xlink" x="0px" y="0px" width="190px"
	 height="190px" viewBox="0 0 190 190" enable-background="new 0 0 190 190" xml:space="preserve">
<g id="Kreise">
	<path d="M147.498,132.057V107.57c0-2.986,0-22.565,0-22.565c0-11.75-10.413-21.275-23.259-21.275
		c-12.847,0-23.261,9.525-23.261,21.275v5.041l-0.842-0.077l1.058-17.409c0,0,1.661-28.306,10.35-37.145
		c11.039-1.586,18.298-4.274,18.298-7.322c0-4.876-18.578-8.831-41.496-8.831c-22.916,0-41.494,3.955-41.494,8.831
		c0,3.047,7.258,5.735,18.296,7.322c8.689,8.838,10.849,36.93,10.849,36.93l0.673,10.81c-0.714-0.499-1.378-1.031-1.884-1.427
		c0.196-0.476,0.376-1.037,0.35-1.629c-0.105-2.316-1.979-4.199-4.415-4.199c-2.438,0-4.415,1.88-4.415,4.199
		c0,2.319,1.977,4.2,4.415,4.2c0.592,0,1.155-0.113,1.672-0.314c0.038-0.049,0.075-0.104,0.146-0.049
		c1.038,0.829,2.445,1.986,4.227,3.284c0.068,0.05,0.092,0.111,0.162,0.161l2.815,45.687c-0.28,0.305-0.43,0.628-0.43,0.965
		c0,0.081,0.002,0.178,0.007,0.286c0.127,0.336,0.137,1.104,0.09,1.316c0.098,1.171,0.234,2.552,0.234,3.135
		c0,0.361,0.184,0.708,0.516,1.031l0.361,5.867c0,15.172,13.189,27.472,29.461,27.472h8.057c16.271,0,29.461-12.3,29.461-27.472
		v-6.308c0.266-0.406,0.41-0.844,0.41-1.302c0-0.196,0-4.468,0-4.679C147.908,132.912,147.764,132.467,147.498,132.057z
		 M100.072,91.043l0.906,0.083v5.026c-0.389-0.191-0.791-0.4-1.184-0.593L100.072,91.043z M99.546,99.607
		c0.484,0.235,0.959,0.468,1.433,0.698v19.17h-2.635L99.546,99.607z M97.027,144.815c-0.047-0.407,0.049-3.176,0.121-5.049
		c0.311-0.312,0.482-0.649,0.482-0.998c0-0.603,0.146-2.064,0.244-3.263c-0.043-0.239-0.039-0.776,0.084-1.285
		c0.002-0.069,0.004-0.132,0.004-0.189c0-0.341-0.158-0.669-0.443-0.976l0.734-12.073h2.725v17.529
		c0,4.672,1.002,8.377,3.016,11.147v6.319c0,0.375,0.033,0.742,0.094,1.101C100.121,154.477,97.63,150.105,97.027,144.815z
		 M109.307,158.847c-0.537-0.246-0.998-0.632-1.324-1.11c-0.344-0.506-0.541-1.103-0.543-1.76v-3.069
		c0.584,0.375,1.205,0.719,1.867,1.023V158.847z M109.307,142.669c-0.631-1.621-0.939-3.29-0.861-4.78l0.205-5.388h0.656V142.669z
		 M109.307,130.928h-0.596l0.262-6.854c0.105,0.106,0.219,0.208,0.334,0.304V130.928z M131.887,76.553
		c2.351,1.706,3.912,4.071,4.221,6.684l-4.221-1.818V76.553z M112.968,77.973c1.591-1.784,3.909-3.116,6.604-3.743v5.653
		c-2.106,0.508-4.002,1.523-5.518,2.913c-0.387,0.357-0.751,0.74-1.087,1.146V77.973z M115.557,101.415
		c-0.027,0.009-0.057,0.019-0.083,0.031c-0.091,0.034-0.179,0.075-0.265,0.119c-0.01,0.004-0.019,0.008-0.026,0.012
		c-0.202,0.105-0.391,0.236-0.563,0.385c-0.001,0.001-0.002,0.001-0.002,0.001c-0.083,0.073-0.161,0.151-0.237,0.232
		c-0.006,0.004-0.01,0.01-0.014,0.014c-0.074,0.082-0.145,0.166-0.209,0.257c0,0-0.001,0-0.001,0.001
		c-0.095-0.045-0.188-0.038-0.292-0.088l-0.004-1.967l5.711-1.794v2.657c0,0.503-0.144,1.06-0.341,1.482l-0.713-0.77
		c-0.522-0.464-1.208-0.751-1.963-0.751c-0.114,0-0.227,0.009-0.338,0.022c-0.032,0.003-0.066,0.011-0.1,0.016
		c-0.077,0.011-0.155,0.025-0.231,0.042c-0.035,0.008-0.07,0.019-0.104,0.027C115.705,101.364,115.631,101.388,115.557,101.415z
		 M115.791,107.819c-0.427,0.276-0.844,0.657-1.111,1.01c-0.452,0.593-0.685,1.203-0.818,1.725v-4.168
		c0.029,0.015,1.355,0.723,1.377,0.723L115.791,107.819z M113.861,98.832V90.89c0.001-1.078,0.236-2.097,0.67-3.035
		c0.646-1.405,1.745-2.63,3.154-3.502c0.58-0.359,1.215-0.655,1.887-0.884v13.57L113.861,98.832z M112.753,146.77
		c0.856,1.095,1.914,2.037,3.116,2.782c0.314,0.194,0.639,0.374,0.971,0.54c-1.539-0.41-2.915-1.234-4.087-2.307V146.77z
		 M115.648,158.594c-0.516,0.344-1.129,0.543-1.805,0.544h-1.091v-1.257h3.655C116.196,158.157,115.939,158.4,115.648,158.594z
		 M117.06,155.978c0,0.135-0.011,0.267-0.028,0.397h-4.278v-1.26c1.323,0.324,2.759,0.546,4.307,0.672V155.978z M117.06,146.195
		c-0.235-0.175-0.461-0.36-0.675-0.556c-0.791-0.726-1.423-1.582-1.854-2.52c-0.434-0.938-0.669-1.955-0.67-3.034v-2.427h3.198
		V146.195z M117.06,136.153h-3.198v-3.652h3.198V136.153z M119.323,159.732c0.011-0.017,0.025-0.034,0.039-0.053
		c0.371-0.543,0.663-1.15,0.858-1.798h1.259c0.093,0.268,0.201,0.527,0.325,0.774c0.129,0.254,0.274,0.494,0.432,0.725
		C121.256,159.556,120.266,159.666,119.323,159.732z M121.152,133.677v2.476h-0.646v-2.476H121.152z M120.506,132.6v-3.037v-4.339
		c0-0.44,0.088-0.848,0.25-1.225c0.102-0.24,0.236-0.466,0.396-0.674v6.238v3.037H120.506z M121.152,137.659v7.733
		c-0.08,0.001-0.157,0.007-0.238,0.007c-0.154,0-0.289,0.012-0.408,0.036v-7.776H121.152z M121.152,155.873v0.105
		c0,0.133,0.006,0.266,0.014,0.397h-0.676c0.008-0.131,0.016-0.264,0.016-0.397v-0.076
		C120.72,155.895,120.934,155.886,121.152,155.873z M121.659,117.337c-0.247,0.554-0.412,1.154-0.483,1.78
		c-0.014,0.005-0.027,0.01-0.042,0.016c-1.194,0.5-2.21,1.333-2.931,2.388c-0.72,1.053-1.145,2.336-1.144,3.703v4.339v1.365h-3.198
		v-5.759c0.128-0.05,0.256-0.104,0.377-0.163c0.902-0.445,1.624-1.155,2.119-2.007c0.497-0.852,0.774-1.854,0.774-2.914v-8.062
		l-0.003-0.039c0-0.004,0-0.011,0-0.027c0-0.066,0.006-0.234,0.041-0.417c0.025-0.135,0.066-0.28,0.119-0.398
		c0.039-0.088,0.084-0.167,0.132-0.226c0.073-0.091,0.139-0.15,0.269-0.215c0.053-0.024,0.194-0.068,0.277-0.09l0.477,0.608
		c0.459,0.673,1.151,1.116,1.974,1.3l2.265,2.902c0.043,0.062,0.088,0.122,0.133,0.179
		C122.367,116.091,121.934,116.72,121.659,117.337z M123.385,106.912l-0.598-0.637l-0.014,0.011
		c-0.193-0.171-0.408-0.317-0.641-0.435l-0.479-0.511c0.087-0.118,0.225-0.31,0.306-0.433c0.669-1.047,1.06-2.301,1.06-3.632v-5.23
		l0.365-0.089V106.912z M123.385,94.849l-0.365,0.088V82.97c0.123,0.003,0.243,0.016,0.365,0.025V94.849z M125.896,158.326
		c-0.168-0.136-0.322-0.286-0.467-0.444h1.367C126.508,158.042,126.208,158.19,125.896,158.326z M127.469,156.375h-2.83
		c-0.025-0.132-0.041-0.266-0.041-0.397v-0.605c0.977-0.209,1.941-0.466,2.871-0.739V156.375z M127.469,143.135
		c-0.465,0.402-0.992,0.769-1.583,1.081c-0.402,0.212-0.835,0.398-1.288,0.559v-7.115h2.871V143.135z M127.469,136.153h-2.871
		v-3.652h2.871V136.153z M127.469,130.928h-2.871v-1.365v-7.501h2.313c0.041,0,0.17,0.004,0.209,0.005l0.357,0.458L127.469,130.928z
		 M127.469,110.896l-0.442-0.444c-0.071-0.065-0.148-0.124-0.226-0.18c-0.016-0.011-0.029-0.02-0.044-0.03
		c-0.077-0.053-0.202-0.177-0.286-0.224c-0.001,0,0.047-0.028,0.045-0.029l0.953-0.77V110.896z M127.469,106.301h-0.197V84.62h0.197
		V106.301z M127.469,80.429c-1.377-0.546-2.88-0.865-4.449-0.906v-5.689c0.313-0.001,0.627,0.002,0.945,0.02
		c1.223,0.064,2.397,0.268,3.504,0.583V80.429z M131.308,145.352c-0.13,0.166-0.261,0.32-0.394,0.46v-8.153h0.394V145.352z
		 M131.322,136.153h-0.408v-3.652h0.408V136.153z M131.322,130.928h-0.408v-4.755c0.133,0.047,0.268,0.085,0.406,0.115
		c0,0,0,0.001,0.002,0.001V130.928z M132.602,143.376v-0.755c0.65-1.193,1.256-2.563,1.759-4.105
		c0.052,0.233,0.141,0.46,0.266,0.679C134.045,140.555,133.342,142.065,132.602,143.376z M136.061,89.697
		c-0.379-0.092-0.796-0.146-1.246-0.157c-0.141-1.099-0.445-2.153-0.897-3.129c-0.51-1.106-1.2-2.113-2.03-2.997v-0.353l4.266,1.835
		L136.061,89.697z"/>
	<g>
		<ellipse fill="#FFFFFF" cx="88.346" cy="28.093" rx="35.422" ry="7.54"/>
		<path fill="#FFFFFF" d="M96.951,138.797c-0.48,0.388-1.148,0.723-1.969,1.004c-1.637,0.563-3.874,0.904-6.347,0.905
			c-1.621,0-3.142-0.148-4.458-0.409c-1.316-0.261-2.428-0.63-3.237-1.087c-0.539-0.305-0.947-0.647-1.184-1.042
			c-0.076-0.129-0.133-0.263-0.168-0.402c0.009,0.434,0.015,0.822,0.015,1.053c0,1.706,4.065,3.125,9.032,3.125
			c4.649,0,8.491-1.229,8.965-2.785c0.081-0.244,0.058-0.491,0.068-0.642c0.019-0.316,0.021-0.475,0.015-0.751
			c-0.035,0.139-0.09,0.272-0.166,0.402C97.383,138.394,97.189,138.603,96.951,138.797z"/>
		<path fill="#FFFFFF" d="M97.209,135.259c-0.496,0.4-1.188,0.748-2.033,1.037c-1.69,0.58-4.001,0.933-6.553,0.934
			c-1.676,0-3.246-0.152-4.605-0.42c-1.36-0.269-2.508-0.651-3.343-1.123c-0.556-0.315-0.979-0.668-1.223-1.078
			c-0.058-0.096-0.1-0.195-0.134-0.297c0.014,0.348,0.049,0.811,0.09,1.316c0.571,1.572,4.478,2.791,9.215,2.791
			c4.862,0,8.849-1.283,9.252-2.917c0.041-0.501,0.074-0.956,0.084-1.285c-0.037,0.136-0.091,0.269-0.166,0.393
			C97.654,134.843,97.455,135.058,97.209,135.259z"/>
		<path fill="#FFFFFF" d="M141.109,140.78c-3.754,0-6.799-1.702-6.799-3.801c0,0.195,0.002,1.01,0.002,1.205
			c0,2.1,3.043,3.745,6.797,3.745c3.756,0,6.82-1.683,6.82-3.782c0-0.195-0.021-0.973-0.021-1.168
			C147.908,139.078,144.865,140.78,141.109,140.78z"/>
		<path fill="#FFFFFF" d="M141.109,137.228c-3.754,0-6.799-1.724-6.799-3.851c0,0.211,0,1.03,0,1.24
			c0,2.099,3.045,3.801,6.799,3.801c3.756,0,6.834-1.696,6.834-3.794c0-0.21-0.035-1.035-0.035-1.247
			C147.908,135.504,144.865,137.228,141.109,137.228z"/>
		<path fill="#FFFFFF" d="M135.295,123.117c0-0.104-0.006-0.206-0.017-0.309c-0.003-0.037-0.009-0.072-0.013-0.108
			c-0.008-0.063-0.018-0.125-0.03-0.188c-0.009-0.045-0.017-0.09-0.027-0.134c-0.011-0.05-0.024-0.101-0.038-0.15
			c-0.016-0.05-0.029-0.1-0.047-0.149c-0.014-0.038-0.027-0.075-0.041-0.114c-0.021-0.057-0.042-0.112-0.066-0.167
			c-0.005-0.009-0.01-0.019-0.014-0.028c-0.102-0.225-0.229-0.435-0.374-0.629c-0.007-0.008-0.013-0.018-0.019-0.024l-0.162-0.194
			l0,0v-0.001c-0.047-0.05-0.091-0.1-0.139-0.148l-1.656-1.76c0.141-0.365,0.219-0.757,0.219-1.171c0-0.104-0.006-0.207-0.014-0.309
			c-0.005-0.037-0.01-0.072-0.015-0.108c-0.009-0.064-0.019-0.127-0.03-0.189c-0.008-0.045-0.018-0.089-0.028-0.133
			c-0.013-0.051-0.024-0.101-0.039-0.151c-0.014-0.049-0.028-0.099-0.045-0.148c-0.013-0.038-0.026-0.077-0.042-0.115
			c-0.021-0.056-0.041-0.112-0.066-0.166c-0.004-0.01-0.009-0.02-0.012-0.029c-0.104-0.224-0.229-0.434-0.376-0.63
			c-0.007-0.008-0.013-0.015-0.019-0.023l-0.161-0.193l0,0c-0.001,0-0.001,0-0.001,0c-0.045-0.051-0.09-0.102-0.139-0.149
			l-4.858-5.143c-0.218-0.193-0.464-0.355-0.732-0.479l-3.507-3.73l-0.014,0.01c-0.191-0.17-0.405-0.313-0.635-0.43l-3.604-3.834
			l-0.015,0.011c-0.521-0.465-1.208-0.75-1.962-0.75c-0.989,0-1.86,0.486-2.399,1.23c-2.164-1.03-6.708-3.196-10.668-5.121
			c-5.872-2.852-12.822-6.29-18.129-9.093c-5.611-2.965-8.917-5.24-10.773-6.721l-0.006-0.003l-0.002-0.003l-0.01-0.005
			c-0.033-0.026-0.174-0.144-0.424-0.43c0.012-0.104,0.019-0.208,0.019-0.314c0-1.517-1.181-2.746-2.638-2.746
			c-1.458,0-2.639,1.229-2.639,2.746c0,1.289,0.855,2.368,2.005,2.663c0.296,0.156,0.628,0.244,0.981,0.244
			c0.016,0,0.027,0,0.041-0.001l0.078,0.061c0.185,0.156,0.383,0.318,0.596,0.487c1.04,0.829,2.355,1.951,4.135,3.249
			c1.781,1.299,4.029,2.772,6.941,4.31c5.752,3.04,13.301,6.759,19.425,9.727c4.901,2.375,8.886,4.266,10.282,4.926
			c0.078,0.038,0.305,0.152,0.576,0.292c0.129,0.066,0.27,0.137,0.413,0.212c0.097,0.05,0.194,0.1,0.293,0.152
			c0.044,0.022,0.118,0.054,0.2,0.085c0.041,0.013,0.084,0.028,0.127,0.04c0.042,0.012,0.08,0.02,0.129,0.02l0,0
			c0.021,0,0.043-0.001,0.066-0.002l3.189,4.085c0.049,0.07,0.1,0.14,0.154,0.208c0.016,0.02,0.033,0.041,0.05,0.06
			c0.058,0.067,0.115,0.132,0.177,0.194c0.012,0.013,0.026,0.025,0.041,0.039c0.055,0.053,0.11,0.104,0.168,0.153
			c0.018,0.016,0.035,0.031,0.055,0.046c0.066,0.054,0.137,0.107,0.208,0.156c0.021,0.015,0.04,0.026,0.061,0.04
			c0.067,0.045,0.14,0.089,0.213,0.131c0.009,0.005,0.019,0.01,0.027,0.015c0.081,0.043,0.163,0.083,0.247,0.119
			c0.021,0.008,0.041,0.019,0.064,0.027c0.084,0.034,0.17,0.066,0.258,0.094c0.015,0.005,0.031,0.008,0.047,0.014
			c0.07,0.022,0.145,0.04,0.217,0.056l2.267,2.904c0.048,0.07,0.101,0.138,0.155,0.206c0.016,0.02,0.033,0.04,0.05,0.061
			c0.057,0.065,0.114,0.131,0.175,0.193c0.013,0.014,0.027,0.026,0.041,0.039c0.056,0.053,0.112,0.104,0.171,0.154
			c0.017,0.015,0.033,0.03,0.052,0.044c0.068,0.055,0.139,0.108,0.209,0.157c0.02,0.014,0.041,0.027,0.061,0.04
			c0.068,0.045,0.141,0.089,0.213,0.129c0.01,0.005,0.02,0.011,0.028,0.016c0.081,0.044,0.162,0.081,0.246,0.118
			c0.022,0.01,0.042,0.019,0.063,0.028c0.086,0.035,0.172,0.067,0.26,0.095c0.014,0.005,0.031,0.008,0.045,0.013
			c0.082,0.026,0.165,0.046,0.25,0.065c0.006,0.001,0.014,0.003,0.021,0.004l0.025,0.034c-0.104,0.298-0.159,0.619-0.159,0.952
			c0,0.719,0.257,1.379,0.683,1.892l4.087,5.236c0.05,0.071,0.102,0.139,0.155,0.206c0.018,0.021,0.033,0.042,0.051,0.062
			c0.057,0.066,0.114,0.13,0.176,0.193c0.013,0.012,0.027,0.026,0.041,0.04c0.054,0.053,0.111,0.104,0.169,0.153
			c0.018,0.015,0.034,0.03,0.052,0.044c0.068,0.055,0.139,0.107,0.211,0.157c0.02,0.014,0.04,0.027,0.06,0.04
			c0.069,0.046,0.14,0.088,0.213,0.129c0.009,0.004,0.019,0.011,0.028,0.017c0.08,0.042,0.163,0.082,0.246,0.119
			c0.021,0.009,0.043,0.019,0.064,0.027c0.085,0.033,0.17,0.066,0.258,0.094c0.016,0.005,0.031,0.008,0.047,0.013
			c0.082,0.024,0.164,0.045,0.247,0.064c0.019,0.004,0.034,0.007,0.052,0.011c0.093,0.019,0.187,0.034,0.281,0.043
			c0.021,0.002,0.043,0.004,0.063,0.006c0.1,0.009,0.199,0.014,0.301,0.014C133.824,126.402,135.295,124.932,135.295,123.117z
			 M133.19,120.056c-0.314-0.122-0.651-0.195-1.004-0.215c0.123-0.159,0.231-0.328,0.323-0.509L133.19,120.056z M131.654,115.723
			l0.003,0.002c0.042,0.042,0.085,0.088,0.129,0.138l0.001,0.002l0.012,0.013c0.021,0.026,0.049,0.051,0.071,0.078
			c0.011,0.013,0.021,0.028,0.03,0.042c0.045,0.056,0.09,0.112,0.131,0.173c0.02,0.027,0.035,0.057,0.055,0.086
			c0.029,0.046,0.059,0.094,0.086,0.143c0.019,0.032,0.035,0.065,0.053,0.098c0.023,0.048,0.047,0.096,0.068,0.146
			c0.016,0.033,0.029,0.069,0.045,0.104c0.02,0.05,0.038,0.102,0.055,0.153c0.012,0.034,0.023,0.07,0.035,0.106
			c0.016,0.053,0.029,0.11,0.041,0.166c0.008,0.034,0.018,0.069,0.025,0.105c0.012,0.061,0.02,0.124,0.027,0.186
			c0.004,0.031,0.009,0.061,0.013,0.092c0.009,0.094,0.016,0.189,0.016,0.285c0,0.82-0.333,1.558-0.868,2.095
			c-0.537,0.535-1.276,0.868-2.094,0.868c-0.118,0-0.232-0.008-0.347-0.022c-0.034-0.005-0.069-0.011-0.103-0.016
			c-0.08-0.011-0.157-0.025-0.234-0.044c-0.036-0.008-0.074-0.019-0.111-0.029c-0.076-0.02-0.148-0.045-0.223-0.071
			c-0.031-0.012-0.064-0.023-0.094-0.035c-0.102-0.042-0.201-0.086-0.296-0.137c0-0.001-0.001-0.001-0.003-0.001
			c-0.096-0.052-0.188-0.112-0.279-0.174c-0.023-0.018-0.048-0.036-0.072-0.055c-0.063-0.047-0.127-0.098-0.188-0.15
			c-0.025-0.021-0.051-0.045-0.075-0.068c-0.058-0.055-0.114-0.113-0.169-0.172c-0.019-0.021-0.041-0.044-0.061-0.066
			c-0.068-0.083-0.137-0.168-0.197-0.259l0,0l-0.004-0.004l-0.002-0.002c-0.318-0.473-0.504-1.042-0.504-1.656
			c0-0.484,0.118-0.938,0.322-1.343c0.531-0.301,0.971-0.743,1.266-1.28c0.41-0.215,0.877-0.338,1.373-0.338
			c0.803,0,1.531,0.322,2.064,0.841L131.654,115.723z M130.767,114.78c-0.366-0.142-0.765-0.224-1.179-0.224
			c-0.416,0-0.811,0.082-1.176,0.222c0.131-0.356,0.205-0.737,0.205-1.136c0-0.104-0.006-0.208-0.016-0.31
			c-0.003-0.037-0.008-0.073-0.013-0.108c-0.007-0.063-0.018-0.127-0.029-0.191c-0.009-0.043-0.019-0.087-0.028-0.131
			c-0.012-0.051-0.025-0.102-0.041-0.151c-0.012-0.05-0.026-0.1-0.043-0.148c-0.014-0.038-0.027-0.076-0.042-0.114
			c-0.021-0.056-0.042-0.112-0.065-0.167c-0.006-0.01-0.01-0.019-0.014-0.028c-0.039-0.086-0.084-0.17-0.133-0.25L130.767,114.78z
			 M126.514,110.58c-0.367-0.142-0.764-0.223-1.18-0.223c-0.424,0-0.826,0.084-1.199,0.231c0.146-0.372,0.229-0.777,0.229-1.2
			c0-0.105-0.006-0.208-0.014-0.309c-0.004-0.037-0.01-0.074-0.014-0.109c-0.008-0.064-0.018-0.127-0.029-0.19
			c-0.01-0.045-0.02-0.09-0.029-0.133c-0.012-0.051-0.024-0.102-0.039-0.151c-0.013-0.049-0.027-0.1-0.045-0.147
			c-0.012-0.04-0.027-0.077-0.041-0.115c-0.022-0.056-0.042-0.112-0.066-0.166c-0.005-0.011-0.01-0.02-0.015-0.028
			c-0.02-0.045-0.045-0.086-0.066-0.129L126.514,110.58z M115.111,106.833c-0.003,0-0.027-0.004-0.055-0.013
			c-0.086-0.023-0.221-0.08-0.253-0.098c-0.097-0.05-0.196-0.101-0.293-0.151c-0.145-0.074-0.284-0.146-0.413-0.213
			c-0.273-0.14-0.497-0.253-0.586-0.294c-1.395-0.661-5.379-2.551-10.279-4.925c-6.123-2.967-13.67-6.687-19.416-9.723
			c-2.898-1.532-5.131-2.995-6.9-4.285s-3.078-2.408-4.125-3.241c-0.211-0.168-0.409-0.329-0.594-0.484l-0.003-0.002l-0.128-0.1
			l-0.047-0.037l-0.061,0.003c-0.037,0.001-0.064,0.006-0.084,0.006c-0.51,0-0.972-0.215-1.311-0.566
			c-0.336-0.35-0.545-0.835-0.545-1.374c0-0.536,0.209-1.021,0.545-1.372c0.339-0.351,0.801-0.565,1.311-0.565
			c0.891,0,1.641,0.658,1.816,1.541l0.009,0.041l0.024,0.031c0.412,0.498,0.623,0.661,0.663,0.69
			c1.876,1.496,5.198,3.781,10.822,6.751c5.315,2.809,12.265,6.245,18.138,9.1c5.381,2.614,11.83,5.673,11.947,5.728
			c0.414,0.221,0.714,0.493,0.906,0.812l0,0c0.191,0.323,0.256,0.617,0.271,1.072l0.001,0.042c-0.004,0.726-0.248,1.112-0.532,1.339
			C115.656,106.771,115.307,106.833,115.111,106.833z M115.541,107.095c0.192-0.053,0.403-0.143,0.6-0.298
			c0.365-0.286,0.658-0.794,0.655-1.593v-0.048v-0.003v-0.001c-0.013-0.478-0.093-0.854-0.319-1.227l0,0
			c-0.227-0.377-0.576-0.689-1.032-0.933l-0.003-0.001l-0.004-0.002c0,0-0.102-0.048-0.289-0.138
			c-0.168-0.078-0.403-0.19-0.692-0.329c0.073-0.096,0.15-0.189,0.235-0.276c0.479-0.478,1.137-0.773,1.866-0.773
			c0.716,0,1.364,0.287,1.84,0.75l0.077,0.074l3.785,4.028c-0.367-0.141-0.764-0.223-1.18-0.223c-1.813,0-3.285,1.471-3.285,3.285
			c0,0.236,0.027,0.466,0.075,0.688L115.541,107.095z M120.631,112.312c-0.078-0.012-0.156-0.026-0.234-0.043
			c-0.036-0.01-0.074-0.019-0.11-0.029c-0.075-0.022-0.149-0.046-0.223-0.074c-0.032-0.01-0.063-0.022-0.096-0.034
			c-0.101-0.041-0.198-0.086-0.295-0.138c-0.001,0-0.001-0.001-0.002-0.001c-0.097-0.051-0.189-0.111-0.279-0.174
			c-0.024-0.017-0.048-0.035-0.071-0.054c-0.064-0.048-0.127-0.097-0.188-0.15c-0.027-0.022-0.051-0.046-0.076-0.07
			c-0.059-0.053-0.115-0.112-0.17-0.17c-0.02-0.022-0.039-0.043-0.059-0.068c-0.07-0.081-0.138-0.168-0.198-0.256
			c-0.001-0.001-0.001-0.001-0.001-0.001l-0.002-0.004l-0.002-0.002c-0.32-0.473-0.506-1.042-0.506-1.655
			c0-0.819,0.331-1.557,0.867-2.094c0.536-0.535,1.275-0.866,2.094-0.866c0.805,0,1.531,0.321,2.066,0.84v0.002l0.004,0.001
			c0.041,0.043,0.084,0.089,0.13,0.139l0.001,0.002l0.012,0.012c0.022,0.026,0.048,0.051,0.07,0.077
			c0.01,0.014,0.021,0.029,0.031,0.043c0.045,0.056,0.088,0.112,0.129,0.172c0.019,0.028,0.036,0.057,0.055,0.085
			c0.029,0.048,0.061,0.095,0.086,0.145c0.02,0.031,0.036,0.065,0.053,0.098c0.025,0.049,0.049,0.096,0.07,0.146
			c0.016,0.034,0.029,0.069,0.043,0.104c0.021,0.05,0.039,0.1,0.057,0.153c0.012,0.035,0.023,0.071,0.034,0.108
			c0.015,0.053,0.028,0.107,0.042,0.163c0.008,0.036,0.017,0.071,0.023,0.106c0.012,0.06,0.021,0.124,0.027,0.187
			c0.004,0.032,0.01,0.061,0.014,0.091c0.009,0.095,0.014,0.189,0.014,0.286c0,0.818-0.33,1.557-0.867,2.094
			c-0.536,0.536-1.274,0.867-2.094,0.867c-0.118,0-0.23-0.009-0.346-0.021C120.699,112.324,120.664,112.317,120.631,112.312z
			 M122.122,114.331l-1.304-1.671c0.086,0.007,0.174,0.014,0.262,0.014c0.424,0,0.828-0.083,1.199-0.23
			c-0.146,0.373-0.23,0.775-0.23,1.199C122.049,113.879,122.075,114.108,122.122,114.331z M124.651,116.522
			c-0.038-0.009-0.075-0.02-0.111-0.03c-0.076-0.021-0.151-0.046-0.224-0.073c-0.031-0.01-0.063-0.021-0.094-0.035
			c-0.103-0.04-0.201-0.085-0.295-0.137c-0.002,0-0.002-0.001-0.003-0.001c-0.097-0.052-0.188-0.11-0.279-0.173
			c-0.024-0.018-0.048-0.036-0.073-0.053c-0.063-0.049-0.127-0.099-0.188-0.152c-0.025-0.021-0.049-0.044-0.075-0.068
			c-0.058-0.055-0.114-0.112-0.167-0.172c-0.021-0.021-0.041-0.042-0.063-0.065c-0.07-0.083-0.137-0.168-0.197-0.258
			c0,0,0,0-0.001,0l-0.002-0.005l-0.002-0.002c-0.319-0.473-0.507-1.041-0.507-1.654c0-0.514,0.133-0.999,0.363-1.421
			c0.488-0.285,0.895-0.692,1.18-1.178c0.422-0.231,0.904-0.364,1.42-0.364c0.805,0,1.531,0.322,2.064,0.842l0.002,0.001
			l0.003,0.003c0.043,0.041,0.085,0.088,0.13,0.138v0.002l0.014,0.012c0.021,0.026,0.046,0.051,0.069,0.077
			c0.011,0.014,0.021,0.029,0.032,0.042c0.045,0.056,0.088,0.113,0.129,0.172c0.019,0.028,0.035,0.057,0.055,0.085
			c0.029,0.047,0.059,0.095,0.086,0.144c0.02,0.032,0.037,0.066,0.052,0.099c0.026,0.047,0.05,0.095,0.069,0.145
			c0.017,0.035,0.03,0.07,0.045,0.105c0.02,0.05,0.039,0.102,0.055,0.153c0.013,0.036,0.022,0.071,0.035,0.107
			c0.016,0.055,0.029,0.109,0.042,0.165c0.009,0.034,0.018,0.07,0.024,0.105c0.012,0.061,0.02,0.125,0.027,0.187
			c0.004,0.03,0.01,0.06,0.013,0.092c0.009,0.094,0.015,0.189,0.015,0.286c0,0.817-0.33,1.557-0.866,2.093
			c-0.538,0.537-1.276,0.868-2.095,0.868c-0.117,0-0.232-0.009-0.347-0.021c-0.034-0.004-0.069-0.011-0.104-0.016
			C124.806,116.553,124.729,116.539,124.651,116.522z M126.375,118.529l-1.258-1.614c0.07,0.005,0.143,0.012,0.217,0.012
			c0.414,0,0.81-0.08,1.176-0.221c-0.133,0.354-0.207,0.735-0.207,1.135C126.303,118.078,126.33,118.309,126.375,118.529z
			 M125.463,119.532l-0.003-0.003c-0.382-0.458-0.61-1.044-0.61-1.688c0-0.221,0.025-0.436,0.078-0.642l1.947,2.494
			c0.047,0.071,0.1,0.138,0.153,0.205c0.017,0.021,0.034,0.041,0.052,0.061c0.056,0.067,0.113,0.133,0.174,0.196
			c0.014,0.012,0.027,0.025,0.04,0.038c0.056,0.053,0.112,0.104,0.171,0.154c0.018,0.015,0.035,0.031,0.053,0.044
			c0.066,0.055,0.139,0.108,0.21,0.158c0.02,0.014,0.04,0.026,0.059,0.038c0.069,0.046,0.141,0.09,0.214,0.13
			c0.01,0.006,0.02,0.011,0.027,0.017c0.08,0.042,0.163,0.082,0.246,0.119c0.022,0.009,0.045,0.019,0.066,0.027
			c0.083,0.035,0.17,0.067,0.258,0.095c0.014,0.006,0.03,0.009,0.047,0.014c0.08,0.024,0.163,0.044,0.248,0.064
			c0.016,0.003,0.033,0.007,0.049,0.011c0.094,0.019,0.188,0.033,0.284,0.043c0.02,0.001,0.041,0.003,0.061,0.005
			c0.041,0.005,0.083,0.005,0.122,0.007c-0.426,0.554-0.683,1.246-0.684,2c0,0.236,0.028,0.466,0.074,0.689L125.463,119.532z
			 M132.01,126.079c-0.117,0-0.232-0.008-0.344-0.021c-0.035-0.004-0.07-0.01-0.104-0.016c-0.079-0.012-0.157-0.026-0.235-0.046
			c-0.035-0.008-0.074-0.017-0.109-0.028c-0.076-0.021-0.15-0.045-0.223-0.073c-0.032-0.012-0.065-0.021-0.096-0.034
			c-0.102-0.041-0.2-0.085-0.295-0.137c0,0,0-0.001-0.002-0.001c-0.097-0.053-0.189-0.111-0.28-0.174
			c-0.024-0.017-0.046-0.037-0.07-0.054c-0.065-0.048-0.129-0.098-0.188-0.15c-0.025-0.023-0.052-0.045-0.076-0.069
			c-0.059-0.054-0.115-0.112-0.17-0.172c-0.02-0.022-0.039-0.044-0.058-0.066c-0.071-0.083-0.14-0.168-0.199-0.258c0,0,0,0-0.001,0
			l-0.002-0.004l-0.003-0.002c-0.318-0.471-0.505-1.041-0.505-1.656c0-0.773,0.299-1.475,0.787-2.003
			c0.799-0.061,1.52-0.405,2.059-0.937c0.039-0.009,0.081-0.018,0.115-0.021c0.805,0,1.531,0.321,2.065,0.841l0.001,0.002
			l0.002,0.001c0.044,0.042,0.087,0.089,0.131,0.139l0.001,0.002l0.013,0.011c0.022,0.026,0.049,0.051,0.07,0.077
			c0.012,0.016,0.021,0.03,0.031,0.042c0.047,0.057,0.088,0.115,0.13,0.173c0.018,0.027,0.034,0.057,0.054,0.086
			c0.029,0.047,0.061,0.094,0.088,0.143c0.018,0.034,0.034,0.066,0.051,0.099c0.024,0.048,0.049,0.096,0.07,0.144
			c0.016,0.036,0.029,0.07,0.043,0.106c0.02,0.05,0.039,0.101,0.057,0.153c0.012,0.036,0.023,0.072,0.035,0.107
			c0.016,0.054,0.029,0.109,0.041,0.165c0.008,0.034,0.018,0.069,0.023,0.104c0.012,0.063,0.021,0.125,0.029,0.188
			c0.004,0.03,0.008,0.061,0.012,0.092c0.01,0.094,0.016,0.189,0.016,0.285c0,0.818-0.332,1.558-0.869,2.097
			C133.566,125.749,132.828,126.079,132.01,126.079z"/>
		<circle fill="#FFFFFF" cx="132.655" cy="123.844" r="1.165"/>
		<path fill="#FFFFFF" d="M132.655,122.464c0.42,0,0.796,0.188,1.049,0.484c-0.144-0.181-0.373-0.444-0.45-0.519
			c-0.246-0.23-0.577-0.371-0.941-0.371c-0.764,0-1.381,0.617-1.381,1.381c0,0.326,0.113,0.625,0.303,0.862
			c0.044,0.053,0.206,0.249,0.344,0.405c-0.189-0.238-0.303-0.537-0.303-0.863C131.275,123.082,131.893,122.464,132.655,122.464z"/>
		<path fill="#FFFFFF" d="M132.01,120.967c-1.188,0-2.15,0.963-2.15,2.15c0,1.19,0.963,2.152,2.15,2.152
			c0.166,0,0.327-0.02,0.483-0.055c-0.181-0.021-0.351-0.077-0.502-0.161c-0.528-0.004-1.003-0.22-1.351-0.566
			c-0.351-0.351-0.566-0.833-0.566-1.369c0-0.534,0.216-1.018,0.566-1.368c0.352-0.351,0.834-0.567,1.369-0.567
			c0.537,0,1.019,0.217,1.369,0.567c0.352,0.35,0.566,0.834,0.566,1.368c0,0.071-0.003,0.142-0.011,0.211
			c0.063,0.158,0.1,0.332,0.101,0.513c0.081-0.227,0.127-0.469,0.127-0.724C134.162,121.93,133.198,120.967,132.01,120.967z"/>
		<circle fill="#FFFFFF" cx="130.232" cy="118.568" r="1.165"/>
		<path fill="#FFFFFF" d="M130.232,117.188c0.42,0,0.795,0.188,1.049,0.485c-0.145-0.181-0.373-0.445-0.45-0.518
			c-0.247-0.231-0.577-0.373-0.943-0.373c-0.762,0-1.38,0.619-1.38,1.379c0,0.327,0.114,0.627,0.305,0.864
			c0.043,0.053,0.205,0.25,0.344,0.405c-0.191-0.236-0.304-0.536-0.304-0.863C128.853,117.806,129.47,117.188,130.232,117.188z"/>
		<path fill="#FFFFFF" d="M127.436,117.841c0,1.188,0.963,2.152,2.152,2.152c0.166,0,0.326-0.021,0.48-0.057
			c-0.181-0.021-0.35-0.076-0.5-0.16c-0.527-0.005-1.005-0.22-1.352-0.566c-0.35-0.351-0.566-0.834-0.566-1.37
			c0-0.535,0.217-1.018,0.566-1.368c0.353-0.352,0.834-0.568,1.371-0.568c0.533,0,1.018,0.216,1.369,0.568
			c0.35,0.35,0.566,0.833,0.566,1.368c0,0.072-0.004,0.143-0.012,0.211c0.063,0.159,0.1,0.331,0.1,0.512
			c0.081-0.227,0.128-0.468,0.128-0.723c0-1.189-0.964-2.151-2.151-2.151C128.398,115.69,127.436,116.652,127.436,117.841z"/>
		<circle fill="#FFFFFF" cx="125.979" cy="114.368" r="1.165"/>
		<path fill="#FFFFFF" d="M125.979,112.988c0.42,0,0.795,0.188,1.048,0.485c-0.144-0.18-0.372-0.446-0.448-0.518
			c-0.247-0.231-0.579-0.374-0.943-0.374c-0.762,0-1.38,0.619-1.38,1.38c0,0.327,0.112,0.627,0.304,0.863
			c0.043,0.054,0.205,0.25,0.344,0.405c-0.189-0.236-0.303-0.535-0.303-0.862C124.6,113.605,125.217,112.988,125.979,112.988z"/>
		<path fill="#FFFFFF" d="M125.816,115.737c-0.18-0.021-0.35-0.075-0.502-0.159c-0.526-0.006-1.002-0.222-1.35-0.567
			c-0.35-0.351-0.566-0.835-0.566-1.369c0-0.535,0.217-1.019,0.566-1.37c0.352-0.349,0.834-0.566,1.369-0.566
			s1.019,0.217,1.368,0.566c0.353,0.351,0.567,0.835,0.567,1.37c0,0.071-0.003,0.141-0.012,0.209c0.063,0.159,0.1,0.332,0.102,0.513
			c0.08-0.226,0.125-0.469,0.125-0.722c0-1.189-0.961-2.152-2.15-2.152s-2.152,0.962-2.152,2.152c0,1.189,0.963,2.152,2.152,2.152
			C125.499,115.794,125.66,115.772,125.816,115.737z"/>
		<circle fill="#FFFFFF" cx="121.726" cy="110.114" r="1.164"/>
		<path fill="#FFFFFF" d="M121.726,108.734c0.419,0,0.796,0.188,1.048,0.485c-0.145-0.18-0.371-0.445-0.45-0.518
			c-0.246-0.231-0.578-0.374-0.941-0.374c-0.763,0-1.38,0.618-1.38,1.38c0,0.327,0.113,0.626,0.305,0.863
			c0.041,0.051,0.205,0.249,0.342,0.404c-0.189-0.236-0.304-0.535-0.304-0.862C120.345,109.352,120.962,108.734,121.726,108.734z"/>
		<path fill="#FFFFFF" d="M121.563,111.484c-0.18-0.021-0.35-0.077-0.502-0.16c-0.526-0.007-1.002-0.22-1.349-0.567
			c-0.353-0.351-0.568-0.833-0.568-1.369s0.216-1.019,0.568-1.369c0.351-0.352,0.833-0.568,1.368-0.568s1.018,0.216,1.368,0.568
			c0.353,0.35,0.566,0.833,0.566,1.369c0,0.071-0.003,0.141-0.011,0.21c0.064,0.158,0.102,0.331,0.102,0.512
			c0.08-0.226,0.126-0.468,0.126-0.722c0-1.189-0.962-2.152-2.151-2.152c-1.188,0-2.151,0.963-2.151,2.152
			c0,1.189,0.963,2.151,2.151,2.151C121.245,111.54,121.406,111.519,121.563,111.484z"/>
	</g>
</g>
<g id="Orientierungskreise" display="none">
	<g id="Weißer_Kreis_x5F_Violin_9_" display="inline">
		<g>
			<path fill="#4D4D4F" d="M-1122.268,9.917c47.365,0,85.898,38.534,85.898,85.899c0,47.365-38.534,85.898-85.898,85.898
				c-47.365,0-85.899-38.534-85.899-85.898C-1208.167,48.451-1169.633,9.917-1122.268,9.917 M-1122.268,9.69
				c-47.566,0-86.126,38.559-86.126,86.126c0,47.565,38.56,86.125,86.126,86.125s86.125-38.56,86.125-86.125
				C-1036.143,48.249-1074.702,9.69-1122.268,9.69L-1122.268,9.69z"/>
		</g>
	</g>
	<g id="Weißer_Kreis_x5F_Violin_10_" display="inline">
		<g>
			<path fill="#4D4D4F" d="M-1122.268,12.492c45.944,0,83.322,37.378,83.322,83.323c0,45.944-37.378,83.322-83.322,83.322
				c-45.945,0-83.323-37.378-83.323-83.322C-1205.591,49.871-1168.212,12.492-1122.268,12.492 M-1122.268,12.272
				c-46.139,0-83.543,37.402-83.543,83.543c0,46.139,37.404,83.542,83.543,83.542s83.542-37.403,83.542-83.542
				C-1038.726,49.675-1076.128,12.272-1122.268,12.272L-1122.268,12.272z"/>
		</g>
	</g>
	<g id="Weißer_Kreis_x5F_Violin_2_" display="inline">
		<g>
			<path fill="#4D4D4F" d="M-1122.268,232.007c47.365,0,85.898,38.534,85.898,85.899c0,47.365-38.534,85.898-85.898,85.898
				c-47.365,0-85.899-38.534-85.899-85.898C-1208.167,270.542-1169.633,232.007-1122.268,232.007 M-1122.268,231.781
				c-47.566,0-86.126,38.559-86.126,86.126c0,47.565,38.56,86.125,86.126,86.125s86.125-38.56,86.125-86.125
				C-1036.143,270.339-1074.702,231.781-1122.268,231.781L-1122.268,231.781z"/>
		</g>
	</g>
	<g id="Weißer_Kreis_x5F_Violin_1_" display="inline">
		<g>
			<path fill="#4D4D4F" d="M-1122.268,234.583c45.944,0,83.322,37.378,83.322,83.323c0,45.944-37.378,83.322-83.322,83.322
				c-45.945,0-83.323-37.378-83.323-83.322C-1205.591,271.961-1168.212,234.583-1122.268,234.583 M-1122.268,234.363
				c-46.139,0-83.543,37.402-83.543,83.543c0,46.139,37.404,83.542,83.543,83.542s83.542-37.403,83.542-83.542
				C-1038.726,271.765-1076.128,234.363-1122.268,234.363L-1122.268,234.363z"/>
		</g>
	</g>
	<g id="Weißer_Kreis_x5F_Violin_6_" display="inline">
		<g>
			<path fill="#4D4D4F" d="M-1122.268,676.192c47.365,0,85.898,38.534,85.898,85.899c0,47.364-38.534,85.898-85.898,85.898
				c-47.365,0-85.899-38.534-85.899-85.898C-1208.167,714.727-1169.633,676.192-1122.268,676.192 M-1122.268,675.966
				c-47.566,0-86.126,38.559-86.126,86.126c0,47.565,38.56,86.125,86.126,86.125s86.125-38.56,86.125-86.125
				C-1036.143,714.524-1074.702,675.966-1122.268,675.966L-1122.268,675.966z"/>
		</g>
	</g>
	<g id="Weißer_Kreis_x5F_Violin_5_" display="inline">
		<g>
			<path fill="#4D4D4F" d="M-1122.268,678.768c45.944,0,83.322,37.379,83.322,83.323s-37.378,83.322-83.322,83.322
				c-45.945,0-83.323-37.378-83.323-83.322S-1168.212,678.768-1122.268,678.768 M-1122.268,678.548
				c-46.139,0-83.543,37.402-83.543,83.543c0,46.139,37.404,83.542,83.543,83.542s83.542-37.403,83.542-83.542
				C-1038.726,715.95-1076.128,678.548-1122.268,678.548L-1122.268,678.548z"/>
		</g>
	</g>
	<g id="Weißer_Kreis_x5F_Violin_8_" display="inline">
		<g>
			<path fill="#4D4D4F" d="M-1122.268,898.285c47.365,0,85.898,38.534,85.898,85.899c0,47.364-38.534,85.898-85.898,85.898
				c-47.365,0-85.899-38.534-85.899-85.898C-1208.167,936.819-1169.633,898.285-1122.268,898.285 M-1122.268,898.059
				c-47.566,0-86.126,38.559-86.126,86.126c0,47.565,38.56,86.125,86.126,86.125s86.125-38.56,86.125-86.125
				C-1036.143,936.617-1074.702,898.059-1122.268,898.059L-1122.268,898.059z"/>
		</g>
	</g>
	<g id="Weißer_Kreis_x5F_Violin_7_" display="inline">
		<g>
			<path fill="#4D4D4F" d="M-1122.268,900.86c45.944,0,83.322,37.379,83.322,83.323s-37.378,83.322-83.322,83.322
				c-45.945,0-83.323-37.378-83.323-83.322S-1168.212,900.86-1122.268,900.86 M-1122.268,900.641
				c-46.139,0-83.543,37.402-83.543,83.543c0,46.139,37.404,83.542,83.543,83.542s83.542-37.403,83.542-83.542
				C-1038.726,938.043-1076.128,900.641-1122.268,900.641L-1122.268,900.641z"/>
		</g>
	</g>
	<g id="Weißer_Kreis_x5F_Violin_4_" display="inline">
		<g>
			<path fill="#4D4D4F" d="M-1122.268,454.101c47.365,0,85.898,38.534,85.898,85.899c0,47.364-38.534,85.898-85.898,85.898
				c-47.365,0-85.899-38.534-85.899-85.898C-1208.167,492.635-1169.633,454.101-1122.268,454.101 M-1122.268,453.874
				c-47.566,0-86.126,38.559-86.126,86.126c0,47.565,38.56,86.125,86.126,86.125s86.125-38.56,86.125-86.125
				C-1036.143,492.433-1074.702,453.874-1122.268,453.874L-1122.268,453.874z"/>
		</g>
	</g>
	<g id="Weißer_Kreis_x5F_Violin_3_" display="inline">
		<g>
			<path fill="#4D4D4F" d="M-1122.267,456.676c45.944,0,83.322,37.378,83.322,83.323c0,45.944-37.378,83.323-83.322,83.323
				c-45.945,0-83.323-37.379-83.323-83.323C-1205.59,494.055-1168.212,456.676-1122.267,456.676 M-1122.267,456.457
				c-46.139,0-83.543,37.402-83.543,83.543c0,46.139,37.404,83.542,83.543,83.542s83.542-37.403,83.542-83.542
				C-1038.725,493.859-1076.128,456.457-1122.267,456.457L-1122.267,456.457z"/>
		</g>
	</g>
</g>
</svg>
