<?xml version="1.0" encoding="utf-8"?>
<!-- Generator: Adobe Illustrator 15.0.0, SVG Export Plug-In . SVG Version: 6.00 Build 0)  -->
<!DOCTYPE svg PUBLIC "-//W3C//DTD SVG 1.1//EN" "http://www.w3.org/Graphics/SVG/1.1/DTD/svg11.dtd">
<svg version="1.1" xmlns="http://www.w3.org/2000/svg" xmlns:xlink="http://www.w3.org/1999/xlink" x="0px" y="0px" width="190px"
	 height="190px" viewBox="0 0 190 190" enable-background="new 0 0 190 190" xml:space="preserve">
<g id="Kreise">
	<path d="M165.297,128.278c0,0.023-0.002,0.045-0.003,0.068c0.074-1.98-0.144-3.953-0.599-5.914
		c-2.928-12.617-20.289-19.078-20.289-19.078c-5.249-2.22-4.104-4.004-4.845-5.35l-1.667-0.695
		c-0.479,0.653-2.268,3.197-5.487,3.005c-6.183-1.121-11.462-5.135-14.57-8.587c0.303-0.407,0.661-0.753,0.993-1.026
		c0.238-0.197,0.461-0.355,0.638-0.476c0.089-0.06,0.165-0.111,0.229-0.153c0.031-0.022,0.061-0.041,0.086-0.059
		c0.027-0.019,0.051-0.035,0.078-0.06c0.098-0.082,0.15-0.208,0.138-0.335c0-0.002-0.024-0.272-0.056-0.548
		c-0.016-0.138-0.032-0.276-0.05-0.388c-0.009-0.058-0.019-0.106-0.03-0.156c-0.006-0.026-0.013-0.05-0.029-0.092
		c-0.01-0.021-0.061-0.118-0.133-0.174c-1.171-0.728-0.66-4.257-0.322-4.783c0.289-0.448-0.041-1.476-0.33-1.549
		c-2.948-0.752-3.595-1.183-4.588-3.17c-1.01-2.019-3.494-5.881-3.494-5.881c-3.001-5.233-10.354-8.932-18.95-8.932
		c-4.913,0-9.421,1.209-12.94,3.222l-0.127,0.094L54.141,45.578l0.025-0.062c-0.419-0.189-0.721-0.423-0.931-0.608
		c0.116-0.069,0.226-0.149,0.324-0.238l0.692-0.387c0.748,0.746,1.828,1.045,2.807,0.675c1.376-0.521,2.029-2.168,1.456-3.678
		c-0.571-1.511-2.149-2.313-3.526-1.792c-0.611,0.231-1.079,0.685-1.361,1.251c-0.688-0.814-1.734-1.174-2.665-0.822
		c-1.026,0.389-1.586,1.521-1.429,2.712c-2.482-0.645-4.332,0.549-4.705,0.718c-0.555,0.252-0.757-0.252-0.757-0.252
		s0.707-0.354,1.414-0.808c0.706-0.454-0.454-2.221-0.454-2.221c1.363,0,0.605-2.473-0.203-3.331
		c-0.807-0.858-1.361,0.101-1.361,0.101c-1.263-1.211-3.887-2.826-4.088-2.877c-0.557-0.404-1.213-0.151-1.264,0.051
		c-0.049,0.202-0.302,0.555-0.504,0.403c-0.201-0.151-0.959-0.151-0.959,0.404c0,0.208-0.113,0.339-0.256,0.42
		c-0.191,0.274-0.551,0.135-0.551,0.135c-1.188-0.246-0.627,2.533-0.356,3.587c0.101,0.418,0.265,0.795,0.33,0.954
		c0.112,0.272,0.224,0.54,0.335,0.802c-0.103,0.042-0.22,0.054-0.359,0.024c-0.942-0.202-2.423,1.682-0.203,3.163
		c1.052,0.701,1.65,0.437,1.989-0.035c0.97,1.99,1.874,3.521,2.716,4.676l-1.762,0.986c-0.617-0.414-1.428-0.583-2.25-0.402
		c-1.514,0.333-2.492,1.726-2.188,3.109c0.305,1.385,1.777,2.236,3.291,1.903c0.213-0.046,0.414-0.115,0.604-0.201
		c0.004,0.023,0.008,0.046,0.013,0.069c0.306,1.384,1.778,2.236,3.292,1.903c1.512-0.333,2.491-1.725,2.188-3.108
		c-0.015-0.067-0.033-0.133-0.053-0.197l1.75-0.98c2.019,0.415,3.937,3.111,3.937,3.111c2.827,2.692,4.665,0.35,4.665,0.35
		s9.271,8.986,14.914,17.213c0.024,0.041,0.166,0.155,0.13,0.182c-1.939,1.409-3.775,3.175-5.232,4.836
		c-1.954,2.23-3.12,4.121-4.095,6.687c-0.006,0.016-0.258,0.696-0.262,0.713c-0.543,1.834-0.539,3.375-0.123,5.076
		c0.166,0.677,0.361,7.237,0.959,9.194c0.635,2.085,1.854,4.142,3.617,6.116c3.07,3.433,6.941,5.669,8.213,6.405
		c0.132,0.075,0.236,0.136,0.301,0.175c2.088,1.358,2.77,2.426,2.975,3.084c0.172,0.551,0.022,0.875-0.011,0.937
		c-0.134,0.165-0.173,0.358-0.137,0.566c0.037,0.214,0.183,0.378,0.372,0.486l1.664,0.959c0.117,0.067,0.246,0.102,0.377,0.102
		c0.091,0,0.184-0.018,0.271-0.055c0.21-0.089,0.364-0.263,0.419-0.483c0.031-0.101,0.463-1.366,2.254-1.705
		c0.014-0.004,0.027-0.007,0.041-0.009c0.301-0.077,0.618-0.116,0.939-0.116c3.543,0,7.92,4.547,10.891,11.314
		c0.019,0.045,0.189,0.425,0.209,0.47c-0.026,0.047-0.271,0.473-0.299,0.518c-1.328,2.271-4.477,2.194-4.455,2.381l0.117,1.943
		c0.029,0.248,0.146,0.419,0.311,0.474c0.725,0.235,0.727,3.393,0.286,3.544c-0.276,0.129-0.452,0.423-0.416,0.741l0.177,1.578
		c0.04,0.353,0.328,0.626,0.684,0.648c0.006,0,0.908,0.062,1.915,0.518c1.282,0.581,2.144,1.513,2.557,2.771
		c2.217,7.748,4.863,12.125,5.015,12.373c0.127,0.213,2.164,3.584,6.051,6.996c2.313,2.029,4.801,3.647,7.398,4.81
		c3.256,1.458,6.689,2.196,10.203,2.196c2.564,0,5.209-0.397,7.863-1.177c5.994-1.762,11.518-4.247,16.416-7.386
		c4.543-2.911,8.426-6.297,11.541-10.065c2.932-3.544,5.113-7.397,6.313-11.143C165.792,132.857,165.297,128.278,165.297,128.278z
		 M42.189,51.15c-0.577-0.302-1.282-0.41-1.996-0.252c-0.213,0.046-0.414,0.115-0.604,0.201c-0.001-0.003-0.002-0.006-0.002-0.01
		l1.932-1.081c0.372,0.379,0.729,0.681,1.075,0.915L42.189,51.15z"/>
	<g>
		<path fill="#FFFFFF" d="M42.544,44.584c1.774-0.539,3.835,1.453,5.035,3.158l0.401-0.171C46.688,45.736,44.4,43.57,42.544,44.584z
			"/>
		<path fill="#FFFFFF" d="M41.555,45.087c0.254-0.09,0.543-0.229,0.868-0.433c0.04-0.025,0.081-0.046,0.121-0.069
			c-0.178,0.054-0.353,0.133-0.522,0.24C41.856,44.929,41.701,45.015,41.555,45.087z"/>
		<path fill="#FFFFFF" d="M93.836,108.301c-0.809,3.281,3.264,8.076,4.693,9.59c0.959,1.06,6.207,5.889,4.795,8.883
			c-1.045,1.851-2.902,0.935-2.902,0.935c0.265-0.255,0.428-0.602,0.428-0.984c0-0.781-0.677-1.415-1.514-1.415
			c-0.437,0-0.883,0.202-1.137,0.529c-0.26,0.274-0.402,0.835-0.308,1.335c0.153,0.78,0.599,2.022,2.151,2.022
			c1.918,0,3.853-0.975,4.391-2.372c0.539-1.397,1.615-4.491-3.28-10.498s-5.804-6.881-5.501-8.63
			c0.202-1.169,1.238-1.316,1.844-1.09c-0.02,0.091-0.027,0.186-0.027,0.282c0,0.763,0.565,1.38,1.262,1.38
			c0.595,0,1.123-0.428,1.257-1.033c0.034-0.143,0.036-0.386-0.015-0.581c-0.062-0.389-0.195-0.649-0.563-0.926
			C98.744,105.235,94.643,105.022,93.836,108.301z"/>
		<path fill="#FFFFFF" d="M39.869,44.847c0.48-0.792,0.273-2.85-0.578-5.068c-0.842-2.2-2.025-4.153-2.902-4.538
			c-0.236,0.13-0.543,0.131-0.543,0.131c-0.002,0-0.002,0-0.002,0c0.889,0.229,2.16,2.265,3.047,4.578
			c0.849,2.218,1.058,4.275,0.578,5.066c0,0,0.564,0.822,2.086,0.07C40.333,45.521,39.869,44.847,39.869,44.847z"/>
		<path fill="#FFFFFF" d="M50.611,47.041l-0.936,0.4L96.72,95.314c0.663-0.621,1.464-1.296,2.388-1.939L50.611,47.041z"/>
		<path fill="#FFFFFF" d="M165.097,122.094c-0.692-2.986-2.224-5.876-4.549-8.591c-1.839-2.146-4.178-4.189-6.952-6.07
			c-4.604-3.123-8.799-4.729-9.146-4.859c-3.578-1.518-3.813-2.686-4.021-3.715c-0.082-0.409-0.167-0.83-0.4-1.255
			c-0.1-0.18-0.266-0.314-0.463-0.374l-1.493-0.446c-0.075-0.022-0.149-0.034-0.226-0.034c-0.289,0-0.563,0.161-0.699,0.43
			c-0.344,0.677-1.77,2.436-4.212,2.436c-0.475,0-0.972-0.065-1.478-0.198c-9.969-2.929-14.535-8.107-14.639-11.943
			c-0.049-1.824,1.77-3.034,2.366-3.432c0.12-0.08,0.191-0.128,0.257-0.183c0.193-0.165,0.297-0.415,0.273-0.67
			c0,0-0.025-0.277-0.057-0.557c-0.066-0.576-0.134-1.172-0.797-1.236c-2.449-0.235-2.777-0.894-3.653-2.655l-0.123-0.248
			c-0.987-1.975-3.304-5.591-3.505-5.905c-1.566-2.722-4.215-5.036-7.665-6.692c-3.497-1.678-7.593-2.566-11.847-2.566
			c-4.976,0-9.691,1.209-13.463,3.427L54.166,45.517L53.9,45.63l51.695,45.022c0.143-0.023,0.285-0.044,0.431-0.061L79.234,67.306
			c3.496-1.992,7.965-3.187,12.836-3.187c8.547,0,15.857,3.676,18.842,8.88c0,0,2.471,3.841,3.474,5.849
			c0.987,1.975,1.392,3.042,4.403,3.331c0.048,0.004,0.146,1.083,0.146,1.083c-0.256,0.217-2.969,1.676-2.9,4.234
			c0.114,4.17,4.848,9.636,15.215,12.679c0.603,0.157,1.165,0.226,1.687,0.226c2.847,0,4.492-2.039,4.911-2.865l1.494,0.446
			c0.736,1.338-0.4,3.112,4.817,5.32c0,0,17.263,6.422,20.173,18.969c2.035,8.774-0.693,17.795-13.233,26.615
			c0.403-2.065-2.073-3.78-2.073-3.78s-11.955-10.695-15.521-19.308c-3.567-8.613-5.317-9.959-5.317-9.959s-0.058-1.798-1.846-1.3
			l-8.691-12.282l0.25-2.577c0.857,0.766,1.904,1.718,3.225,2.907c5.512,4.961,9.013,5.234,10.603,5.324
			c1.589,0.09,2.985-0.835,3.337-2.052c0.285-0.985-0.959-1.65-1.764-1.989c-0.518-0.214-1.142-0.298-1.482-0.217
			c-0.394,0.059-0.691,0.279-0.771,0.558c-0.154,0.53,0.397,1.156,1.23,1.397c0.409,0.118,0.81,0.122,1.13,0.032
			c0,0,0.636,1.462-1.53,1.552c-3.455-0.029-7.645-4.85-8.6-5.787c-1.354-1.374-5.724-5.438-9.373-5.939
			c-1.088-0.15-1.896-0.017-2.486,0.258l-5.822-5.071c-0.215,0.033-0.428,0.07-0.639,0.114l6.002,5.226
			c-0.666,0.491-0.924,1.185-0.938,1.686l-7.07-6.336c0.642-0.236,1.31-0.433,2.007-0.575l-51.57-44.915l-0.809,0.345l50.372,45.145
			c-0.001,0-0.002,0.001-0.003,0.001h0.001c-0.179,0.065-0.353,0.133-0.524,0.205l9.768,8.754c-1.055,0.507-2.1,1.144-3.113,1.903
			l-9.544-9.119c0.869-0.572,1.837-1.105,2.89-1.538L52.067,46.417l-0.954,0.409l48.421,46.26c0,0.001-0.001,0.001-0.002,0.001
			c-0.146,0.096-0.286,0.192-0.425,0.289l9.565,9.14c-0.886,0.696-1.741,1.486-2.556,2.362l-9.397-9.563
			c-0.001,0.001-0.002,0.002-0.003,0.003l0,0c-0.126,0.118-0.245,0.233-0.361,0.347l9.421,9.587
			c-0.636,0.715-1.241,1.481-1.811,2.301l0.804,4.719l0.916,0.999c0.068-0.083,0.137-0.167,0.206-0.251
			c1.091-1.313,2.278-2.468,3.519-3.455l8.674,10.423c-0.65,0.556-0.999,0.897-0.999,0.897c-0.925,0.926,0.235,1.649,0.382,1.659
			c0.031,0.449,1.271,2.013,8.904,7.427c11.104,7.873,17.068,19.98,17.068,19.98s0.814,1.836,2.604,2.165
			c-4.613,2.693-10.209,5.36-16.938,7.992c-2.744,0.781-5.311,1.119-7.699,1.119c-15.081,0-23.012-13.464-23.012-13.464
			s-2.709-4.416-4.918-12.244c-1.09-3.5-4.406-3.665-5.02-3.665c-0.063,0-0.1,0.001-0.1,0.001l-0.199-1.706
			c0,0,8.58-0.954,4.314-10.99c-3.102-7.115-7.943-11.578-11.892-11.578c-0.395,0-0.78,0.045-1.155,0.136
			c0,0-2.508,0.854-3.161,2.359l-1.405-0.602c0,0,1.706-2.611-2.86-5.169c-1.306-0.802-15.154-9.233-12.043-19.771
			c2.323-6.118,7.171-10.221,10.954-12.635C82.727,84.5,94.83,97.33,94.975,97.156c0.307-0.368,0.773-0.895,1.381-1.492
			L49.18,47.654l-0.666,0.286c0,0,10.656,11.437,21.764,23.285l0.086,0.091c-0.402,0.26-0.816,0.537-1.237,0.834
			c-3.306,2.329-7.707,6.32-9.903,12.105l-0.02,0.056c-0.758,2.568-0.627,5.218,0.389,7.879c0.809,2.12,2.184,4.252,4.086,6.338
			c2.855,3.131,6.165,5.37,7.884,6.427l0.026,0.016l0.028,0.017c1.519,0.85,2.452,1.8,2.703,2.748
			c0.193,0.733-0.083,1.249-0.12,1.313c-0.133,0.193-0.165,0.423-0.102,0.649c0.064,0.228,0.235,0.402,0.453,0.496l1.405,0.601
			c0.101,0.044,0.206,0.064,0.309,0.064c0.303,0,0.592-0.177,0.72-0.473c0.41-0.944,2.065-1.706,2.663-1.917
			c0.298-0.069,0.612-0.105,0.934-0.105c3.729,0,8.323,4.568,11.173,11.107c1.326,3.12,1.484,5.59,0.463,7.333
			c-1.299,2.222-4.117,2.56-4.146,2.563c-0.207,0.023-0.396,0.129-0.527,0.292c-0.129,0.164-0.188,0.373-0.164,0.581l0.201,1.706
			c0.046,0.397,0.383,0.692,0.777,0.692l0.041-0.001c0.003,0,0.024,0,0.059,0c0.55,0,3.342,0.149,4.268,3.104
			c2.191,7.761,4.838,12.163,4.998,12.424c0.123,0.21,2.131,3.547,6.007,6.92c3.63,3.159,9.644,6.924,17.677,6.924
			c2.574,0,5.238-0.386,7.914-1.149c0.024-0.006,0.047-0.015,0.07-0.023c7.236-2.831,13.449-5.824,18.49-8.906
			c0.705-0.229,1.731-0.692,2.473-1.582c4.078-2.735,7.371-5.605,9.804-8.549c2.587-3.132,4.292-6.454,5.067-9.875
			C165.931,128.809,165.887,125.501,165.097,122.094z M112.924,96.43c1.297,0.235,2.068,0.697,4.122,2.493
			c-0.546,0.043-1.101,0.129-1.662,0.253l-3.196-2.784C112.389,96.37,112.631,96.377,112.924,96.43z M111.511,99.015
			c0.046,0.01,0.089,0.018,0.126,0.024c0.67,0.102,1.224-0.103,1.333-0.478c0.128-0.442-0.429-0.992-1.241-1.228
			c-0.104-0.03-0.205-0.053-0.305-0.071c-0.066-0.227-0.012-0.494,0.219-0.673l3.143,2.735c-0.696,0.189-1.396,0.44-2.094,0.748
			L111.511,99.015z M118.471,119.662l-8.662-10.407c0.924-0.703,1.875-1.312,2.837-1.824l8.229,10.381
			C119.895,118.512,119.084,119.151,118.471,119.662z M121.287,117.52l-8.184-10.326c1.072-0.536,2.155-0.949,3.223-1.234
			l7.174,10.109C122.694,116.563,121.955,117.053,121.287,117.52z M123.934,115.806l-7.081-9.978
			c0.153-0.035,0.309-0.068,0.462-0.098l0.262-2.705l8.275,11.695C125.18,115.078,124.539,115.442,123.934,115.806z"/>
		<path fill="#FFFFFF" d="M52.715,45.448l0.367-0.155c-1.414-1.798-3.352-3.353-5.772-2.806
			C49.472,42.269,51.402,43.778,52.715,45.448z"/>
	</g>
</g>
<g id="Orientierungskreise" display="none">
	<g id="Weißer_Kreis_x5F_Violin_9_" display="inline">
		<g>
			<path fill="#4D4D4F" d="M-1122.268,9.917c47.365,0,85.898,38.534,85.898,85.899c0,47.365-38.534,85.898-85.898,85.898
				c-47.365,0-85.899-38.534-85.899-85.898C-1208.167,48.451-1169.633,9.917-1122.268,9.917 M-1122.268,9.69
				c-47.566,0-86.126,38.559-86.126,86.126c0,47.565,38.56,86.125,86.126,86.125s86.125-38.56,86.125-86.125
				C-1036.143,48.249-1074.702,9.69-1122.268,9.69L-1122.268,9.69z"/>
		</g>
	</g>
	<g id="Weißer_Kreis_x5F_Violin_10_" display="inline">
		<g>
			<path fill="#4D4D4F" d="M-1122.268,12.492c45.944,0,83.322,37.378,83.322,83.323c0,45.944-37.378,83.322-83.322,83.322
				c-45.945,0-83.323-37.378-83.323-83.322C-1205.591,49.871-1168.212,12.492-1122.268,12.492 M-1122.268,12.272
				c-46.139,0-83.543,37.402-83.543,83.543c0,46.139,37.404,83.542,83.543,83.542s83.542-37.403,83.542-83.542
				C-1038.726,49.675-1076.128,12.272-1122.268,12.272L-1122.268,12.272z"/>
		</g>
	</g>
	<g id="Weißer_Kreis_x5F_Violin_2_" display="inline">
		<g>
			<path fill="#4D4D4F" d="M-1122.268,232.007c47.365,0,85.898,38.534,85.898,85.899c0,47.365-38.534,85.898-85.898,85.898
				c-47.365,0-85.899-38.534-85.899-85.898C-1208.167,270.542-1169.633,232.007-1122.268,232.007 M-1122.268,231.781
				c-47.566,0-86.126,38.559-86.126,86.126c0,47.565,38.56,86.125,86.126,86.125s86.125-38.56,86.125-86.125
				C-1036.143,270.339-1074.702,231.781-1122.268,231.781L-1122.268,231.781z"/>
		</g>
	</g>
	<g id="Weißer_Kreis_x5F_Violin_1_" display="inline">
		<g>
			<path fill="#4D4D4F" d="M-1122.268,234.583c45.944,0,83.322,37.378,83.322,83.323c0,45.944-37.378,83.322-83.322,83.322
				c-45.945,0-83.323-37.378-83.323-83.322C-1205.591,271.961-1168.212,234.583-1122.268,234.583 M-1122.268,234.363
				c-46.139,0-83.543,37.402-83.543,83.543c0,46.139,37.404,83.542,83.543,83.542s83.542-37.403,83.542-83.542
				C-1038.726,271.765-1076.128,234.363-1122.268,234.363L-1122.268,234.363z"/>
		</g>
	</g>
	<g id="Weißer_Kreis_x5F_Violin_6_" display="inline">
		<g>
			<path fill="#4D4D4F" d="M-1122.268,676.192c47.365,0,85.898,38.534,85.898,85.899c0,47.364-38.534,85.898-85.898,85.898
				c-47.365,0-85.899-38.534-85.899-85.898C-1208.167,714.727-1169.633,676.192-1122.268,676.192 M-1122.268,675.966
				c-47.566,0-86.126,38.559-86.126,86.126c0,47.565,38.56,86.125,86.126,86.125s86.125-38.56,86.125-86.125
				C-1036.143,714.524-1074.702,675.966-1122.268,675.966L-1122.268,675.966z"/>
		</g>
	</g>
	<g id="Weißer_Kreis_x5F_Violin_5_" display="inline">
		<g>
			<path fill="#4D4D4F" d="M-1122.268,678.768c45.944,0,83.322,37.379,83.322,83.323s-37.378,83.322-83.322,83.322
				c-45.945,0-83.323-37.378-83.323-83.322S-1168.212,678.768-1122.268,678.768 M-1122.268,678.548
				c-46.139,0-83.543,37.402-83.543,83.543c0,46.139,37.404,83.542,83.543,83.542s83.542-37.403,83.542-83.542
				C-1038.726,715.95-1076.128,678.548-1122.268,678.548L-1122.268,678.548z"/>
		</g>
	</g>
	<g id="Weißer_Kreis_x5F_Violin_8_" display="inline">
		<g>
			<path fill="#4D4D4F" d="M-1122.268,898.285c47.365,0,85.898,38.534,85.898,85.899c0,47.364-38.534,85.898-85.898,85.898
				c-47.365,0-85.899-38.534-85.899-85.898C-1208.167,936.819-1169.633,898.285-1122.268,898.285 M-1122.268,898.059
				c-47.566,0-86.126,38.559-86.126,86.126c0,47.565,38.56,86.125,86.126,86.125s86.125-38.56,86.125-86.125
				C-1036.143,936.617-1074.702,898.059-1122.268,898.059L-1122.268,898.059z"/>
		</g>
	</g>
	<g id="Weißer_Kreis_x5F_Violin_7_" display="inline">
		<g>
			<path fill="#4D4D4F" d="M-1122.268,900.86c45.944,0,83.322,37.379,83.322,83.323s-37.378,83.322-83.322,83.322
				c-45.945,0-83.323-37.378-83.323-83.322S-1168.212,900.86-1122.268,900.86 M-1122.268,900.641
				c-46.139,0-83.543,37.402-83.543,83.543c0,46.139,37.404,83.542,83.543,83.542s83.542-37.403,83.542-83.542
				C-1038.726,938.043-1076.128,900.641-1122.268,900.641L-1122.268,900.641z"/>
		</g>
	</g>
	<g id="Weißer_Kreis_x5F_Violin_4_" display="inline">
		<g>
			<path fill="#4D4D4F" d="M-1122.268,454.101c47.365,0,85.898,38.534,85.898,85.899c0,47.364-38.534,85.898-85.898,85.898
				c-47.365,0-85.899-38.534-85.899-85.898C-1208.167,492.635-1169.633,454.101-1122.268,454.101 M-1122.268,453.874
				c-47.566,0-86.126,38.559-86.126,86.126c0,47.565,38.56,86.125,86.126,86.125s86.125-38.56,86.125-86.125
				C-1036.143,492.433-1074.702,453.874-1122.268,453.874L-1122.268,453.874z"/>
		</g>
	</g>
	<g id="Weißer_Kreis_x5F_Violin_3_" display="inline">
		<g>
			<path fill="#4D4D4F" d="M-1122.267,456.676c45.944,0,83.322,37.378,83.322,83.323c0,45.944-37.378,83.323-83.322,83.323
				c-45.945,0-83.323-37.379-83.323-83.323C-1205.59,494.055-1168.212,456.676-1122.267,456.676 M-1122.267,456.457
				c-46.139,0-83.543,37.402-83.543,83.543c0,46.139,37.404,83.542,83.543,83.542s83.542-37.403,83.542-83.542
				C-1038.725,493.859-1076.128,456.457-1122.267,456.457L-1122.267,456.457z"/>
		</g>
	</g>
</g>
</svg>
