<?xml version="1.0" encoding="utf-8"?>
<!-- Generator: Adobe Illustrator 15.0.0, SVG Export Plug-In . SVG Version: 6.00 Build 0)  -->
<!DOCTYPE svg PUBLIC "-//W3C//DTD SVG 1.1//EN" "http://www.w3.org/Graphics/SVG/1.1/DTD/svg11.dtd">
<svg version="1.1" id="Ebene_1" xmlns="http://www.w3.org/2000/svg" xmlns:xlink="http://www.w3.org/1999/xlink" x="0px" y="0px"
	 width="190px" height="190px" viewBox="0 0 190 190" enable-background="new 0 0 190 190" xml:space="preserve">
<g id="Orientierungskreise" display="none">
	<g id="Weißer_Kreis_x5F_Violin_9_" display="inline">
		<g>
			<path fill="#4D4D4F" d="M-1122.268,9.917c47.365,0,85.898,38.534,85.898,85.899s-38.534,85.897-85.898,85.897
				c-47.365,0-85.899-38.534-85.899-85.897C-1208.167,48.451-1169.633,9.917-1122.268,9.917 M-1122.268,9.69
				c-47.566,0-86.126,38.559-86.126,86.126c0,47.564,38.56,86.125,86.126,86.125s86.125-38.561,86.125-86.125
				C-1036.143,48.249-1074.702,9.69-1122.268,9.69L-1122.268,9.69z"/>
		</g>
	</g>
	<g id="Weißer_Kreis_x5F_Violin_10_" display="inline">
		<g>
			<path fill="#4D4D4F" d="M-1122.268,12.492c45.944,0,83.322,37.378,83.322,83.322s-37.378,83.322-83.322,83.322
				c-45.945,0-83.323-37.378-83.323-83.322C-1205.591,49.871-1168.212,12.492-1122.268,12.492 M-1122.268,12.272
				c-46.139,0-83.543,37.402-83.543,83.542c0,46.14,37.404,83.543,83.543,83.543c46.139,0,83.542-37.403,83.542-83.543
				S-1076.128,12.272-1122.268,12.272L-1122.268,12.272z"/>
		</g>
	</g>
	<g id="Weißer_Kreis_x5F_Violin_2_" display="inline">
		<g>
			<path fill="#4D4D4F" d="M-1122.268,232.007c47.365,0,85.898,38.534,85.898,85.899s-38.534,85.898-85.898,85.898
				c-47.365,0-85.899-38.535-85.899-85.898C-1208.167,270.542-1169.633,232.007-1122.268,232.007 M-1122.268,231.781
				c-47.566,0-86.126,38.559-86.126,86.125s38.56,86.125,86.126,86.125s86.125-38.559,86.125-86.125
				C-1036.143,270.339-1074.702,231.781-1122.268,231.781L-1122.268,231.781z"/>
		</g>
	</g>
	<g id="Weißer_Kreis_x5F_Violin_1_" display="inline">
		<g>
			<path fill="#4D4D4F" d="M-1122.268,234.583c45.944,0,83.322,37.378,83.322,83.323c0,45.943-37.378,83.322-83.322,83.322
				c-45.945,0-83.323-37.379-83.323-83.322C-1205.591,271.961-1168.212,234.583-1122.268,234.583 M-1122.268,234.363
				c-46.139,0-83.543,37.402-83.543,83.543c0,46.139,37.404,83.541,83.543,83.541c46.139,0,83.542-37.402,83.542-83.541
				C-1038.726,271.766-1076.128,234.363-1122.268,234.363L-1122.268,234.363z"/>
		</g>
	</g>
	<g id="Weißer_Kreis_x5F_Violin_6_" display="inline">
		<g>
			<path fill="#4D4D4F" d="M-1122.268,676.191c47.365,0,85.898,38.535,85.898,85.9c0,47.363-38.534,85.896-85.898,85.896
				c-47.365,0-85.899-38.533-85.899-85.896C-1208.167,714.727-1169.633,676.191-1122.268,676.191 M-1122.268,675.967
				c-47.566,0-86.126,38.559-86.126,86.125c0,47.564,38.56,86.125,86.126,86.125s86.125-38.561,86.125-86.125
				C-1036.143,714.523-1074.702,675.967-1122.268,675.967L-1122.268,675.967z"/>
		</g>
	</g>
	<g id="Weißer_Kreis_x5F_Violin_5_" display="inline">
		<g>
			<path fill="#4D4D4F" d="M-1122.268,678.768c45.944,0,83.322,37.379,83.322,83.324c0,45.943-37.378,83.32-83.322,83.32
				c-45.945,0-83.323-37.377-83.323-83.32C-1205.591,716.146-1168.212,678.768-1122.268,678.768 M-1122.268,678.549
				c-46.139,0-83.543,37.4-83.543,83.543c0,46.139,37.404,83.541,83.543,83.541c46.139,0,83.542-37.402,83.542-83.541
				C-1038.726,715.949-1076.128,678.549-1122.268,678.549L-1122.268,678.549z"/>
		</g>
	</g>
	<g id="Weißer_Kreis_x5F_Violin_8_" display="inline">
		<g>
			<path fill="#4D4D4F" d="M-1122.268,898.285c47.365,0,85.898,38.533,85.898,85.898s-38.534,85.898-85.898,85.898
				c-47.365,0-85.899-38.533-85.899-85.898S-1169.633,898.285-1122.268,898.285 M-1122.268,898.059
				c-47.566,0-86.126,38.559-86.126,86.127c0,47.564,38.56,86.125,86.126,86.125s86.125-38.561,86.125-86.125
				C-1036.143,936.617-1074.702,898.059-1122.268,898.059L-1122.268,898.059z"/>
		</g>
	</g>
	<g id="Weißer_Kreis_x5F_Violin_7_" display="inline">
		<g>
			<path fill="#4D4D4F" d="M-1122.268,900.859c45.944,0,83.322,37.379,83.322,83.324c0,45.943-37.378,83.322-83.322,83.322
				c-45.945,0-83.323-37.379-83.323-83.322C-1205.591,938.238-1168.212,900.859-1122.268,900.859 M-1122.268,900.641
				c-46.139,0-83.543,37.402-83.543,83.543c0,46.139,37.404,83.543,83.543,83.543c46.139,0,83.542-37.404,83.542-83.543
				C-1038.726,938.043-1076.128,900.641-1122.268,900.641L-1122.268,900.641z"/>
		</g>
	</g>
	<g id="Weißer_Kreis_x5F_Violin_4_" display="inline">
		<g>
			<path fill="#4D4D4F" d="M-1122.268,454.102c47.365,0,85.898,38.533,85.898,85.898c0,47.363-38.534,85.898-85.898,85.898
				c-47.365,0-85.899-38.535-85.899-85.898C-1208.167,492.635-1169.633,454.102-1122.268,454.102 M-1122.268,453.873
				c-47.566,0-86.126,38.561-86.126,86.127c0,47.564,38.56,86.125,86.126,86.125s86.125-38.561,86.125-86.125
				C-1036.143,492.434-1074.702,453.873-1122.268,453.873L-1122.268,453.873z"/>
		</g>
	</g>
	<g id="Weißer_Kreis_x5F_Violin_3_" display="inline">
		<g>
			<path fill="#4D4D4F" d="M-1122.267,456.676c45.944,0,83.322,37.379,83.322,83.324c0,45.943-37.378,83.322-83.322,83.322
				c-45.945,0-83.323-37.379-83.323-83.322C-1205.59,494.055-1168.212,456.676-1122.267,456.676 M-1122.267,456.457
				c-46.139,0-83.543,37.402-83.543,83.543c0,46.139,37.404,83.543,83.543,83.543c46.139,0,83.542-37.404,83.542-83.543
				C-1038.725,493.859-1076.128,456.457-1122.267,456.457L-1122.267,456.457z"/>
		</g>
	</g>
</g>
<path d="M132.211,28.336c-0.365-0.135-0.734-0.193-1.094-0.205c-0.082-0.003-0.727,0.074-1.098,0.547
	c-0.078,0.11-0.156,0.236-0.234,0.372l-2.887-1.012c0.711-0.945,1.234-2.087,1.291-3.716c0.064-0.166,0.129-0.344,0.193-0.528
	c0.158,0.271,0.336,0.424,0.518,0.413c0.248-0.015,0.453-0.336,0.59-0.844c0.15,0.215,0.324,0.338,0.504,0.326
	c0.457-0.027,0.779-0.903,0.715-1.955c-0.063-1.053-0.488-1.883-0.945-1.855c-0.096,0.006-0.182,0.049-0.264,0.12
	c-0.049-0.246-0.107-0.474-0.176-0.678c0.176-1.884-0.01-3.267-0.525-3.368c-0.094-0.019-0.193,0.007-0.299,0.073
	c-0.17,0.104-0.367,0.249-0.602,0.05c-0.176-0.063-0.338-0.192-0.385-0.388c-0.064-0.265-0.174-0.435-0.33-0.485
	c-0.131-0.04-0.285,0.008-0.455,0.13c-0.016-0.216-0.078-0.371-0.199-0.443c-0.447-0.272-1.51,0.614-2.645,2.108
	c-0.008-0.026-0.02-0.049-0.031-0.074c-0.008-0.014-0.014-0.026-0.021-0.039c-0.01-0.019-0.021-0.037-0.031-0.055
	c-0.014-0.016-0.027-0.03-0.039-0.045c-0.012-0.011-0.02-0.023-0.031-0.033c-0.025-0.025-0.055-0.045-0.086-0.063
	c-0.039-0.022-0.084-0.035-0.131-0.045c-0.012-0.002-0.027-0.002-0.043-0.004c-0.033-0.004-0.068-0.004-0.105,0
	c-0.016,0.001-0.031,0.002-0.049,0.006c-0.041,0.006-0.084,0.016-0.129,0.03c-0.012,0.004-0.021,0.006-0.033,0.011
	c-0.059,0.021-0.119,0.046-0.182,0.08l-0.002,0.002c-0.063,0.032-0.125,0.072-0.188,0.115c-0.01,0.008-0.021,0.015-0.031,0.021
	c-0.059,0.043-0.119,0.088-0.18,0.14c-0.006,0.005-0.012,0.01-0.02,0.015c-0.145,0.123-0.295,0.271-0.445,0.439
	c-0.143,0.158-0.406,0.422-0.414,0.387c-0.002-0.017-0.008-0.029-0.012-0.044c-0.004-0.011-0.006-0.022-0.01-0.032
	c-0.014-0.045-0.033-0.084-0.059-0.119c-0.004-0.006-0.01-0.013-0.016-0.02c-0.025-0.033-0.057-0.063-0.094-0.082
	c-0.326-0.176-0.916,0.284-1.318,1.029c-0.404,0.746-0.465,1.492-0.141,1.67c0.037,0.02,0.08,0.031,0.125,0.033
	c0.027,0.003,0.059-0.002,0.09-0.007c0.014-0.002,0.025,0,0.039-0.003c0.096-0.021,0.217,0.143,0.184,0.278
	c-0.002,0.005-0.002,0.008-0.002,0.011c-0.021,0.089-0.039,0.174-0.053,0.258c-0.002,0.01-0.006,0.02-0.006,0.028
	c-0.014,0.085-0.025,0.165-0.033,0.243c0,0.004,0,0.009-0.002,0.014c-0.014,0.166-0.016,0.316,0,0.449
	c0.002,0.01,0.004,0.019,0.006,0.028c0.006,0.052,0.016,0.101,0.027,0.147c0.006,0.016,0.01,0.031,0.016,0.047
	c0.01,0.037,0.023,0.07,0.039,0.104c0.008,0.016,0.014,0.031,0.023,0.045c0.016,0.029,0.035,0.057,0.057,0.082
	c0.008,0.011,0.016,0.021,0.027,0.032c0.029,0.033,0.064,0.06,0.102,0.081c0.033,0.017,0.066,0.027,0.102,0.037
	c0.016,0.004,0.031,0.006,0.049,0.009s0.035,0.005,0.055,0.005c0.023,0.002,0.047,0,0.07-0.002c0.012,0,0.023-0.002,0.035-0.003
	c0.029-0.005,0.066,0.062,0.057,0.101c-0.23,0.803-0.143,1.377,0.129,1.543c0.111,0.068,0.174,0.05,0.352-0.018
	c-0.414,0.627-0.986,1.358-1.832,2.154c-0.682,0.639-1.328,1.328-1.947,2.059l-2.881-1.012c0.082-0.16,0.152-0.33,0.184-0.497
	c0.041-0.197-0.02-0.538-0.336-0.847c-0.307-0.276-0.686-0.518-1.127-0.697c-1.643-0.67-3.51-0.266-4.172,0.906
	c-0.66,1.17,0.137,2.662,1.779,3.332c0.377,0.154,0.764,0.242,1.146,0.291c0.088,0.012,0.775,0.01,1.211-0.364
	c0.104-0.104,0.215-0.224,0.322-0.354l2.557,0.896c-0.813,1.104-1.576,2.29-2.305,3.552l-2.783-0.977
	c0.063-0.2,0.115-0.41,0.131-0.613c0.02-0.253-0.076-0.673-0.434-1.026c-0.346-0.31-0.762-0.566-1.234-0.738
	c-1.77-0.646-3.662,0.092-4.229,1.645c-0.566,1.555,0.406,3.337,2.174,3.982c0.404,0.146,0.814,0.212,1.213,0.227
	c0.092,0.003,0.807-0.084,1.219-0.608c0.166-0.241,0.35-0.544,0.498-0.878l3.436,1.205L97.633,68.324
	c-1.713-0.363-3.527-0.614-5.281-0.614c-4.484,0-8.867,1.181-12.674,3.413c-3.76,2.206-6.623,5.23-8.283,8.752
	c-0.166,0.313-2.16,4.188-2.16,9.553c0,3.606-2.08,5.4-3.08,6.264c-0.479,0.412-0.77,0.66-0.717,1.082
	c0.027,0.215,0.156,0.395,0.35,0.505c0.018,0.079,0.055,0.17,0.119,0.276c0.232,0.377,1.055,1.514,1.08,2.226
	c0.033,0.243,0.217,0.478,0.477,0.554c0.262,0.075,1.256,0.248,1.502,0.295c0.412,0.078,0.863,0.199,1.277,0.407
	c-0.012,0.52-0.092,1.098-0.244,1.73c-1.525,6.413-7.133,14.856-11.805,15.723c-0.461,0.085-0.91,0.13-1.34,0.13
	c-1.813,0-2.857-0.771-3.42-1.184c-0.293-0.215-0.484-0.357-0.756-0.357l0,0c-0.291,0-0.541,0.182-0.633,0.463
	c-0.074,0.217-0.027,0.42,0.043,0.727c0.219,0.967,0.732,3.229-1.992,5.613c-1.854,1.423-4.893,4.408-7.383,8.157
	c-3.275,4.938-4.799,9.844-4.525,14.581c0.186,3.229,1.213,6.307,3.063,9.217c0.441,1.034,1.061,2.063,1.826,3.066
	c-0.123,0.17-0.197,0.381-0.197,0.606c0,0.58,0.469,1.05,1.049,1.05l0.588,0.018c1,1.039,2.164,2.026,3.455,2.939
	c1.471,1.258,3.131,2.48,4.979,3.668c-0.021,0.086-0.037,0.172-0.037,0.264c0,0.578,0.471,1.048,1.049,1.048
	c0.021,0,0.041-0.006,0.063-0.007l-0.008,0.007l1.188,0.065c1.166,0.686,2.324,1.326,3.475,1.914
	c0.059,0.148,0.08,0.264,0.084,0.346c-0.102,0.078-0.178,0.174-0.219,0.285c-0.219,0.58,0.518,1.396,1.645,1.818
	s2.217,0.297,2.436-0.283c0.037-0.102,0.045-0.208,0.027-0.32c5.369,2.256,10.508,3.401,15.352,3.401
	c9.033,0,14.85-3.892,18.139-7.155c3.855-3.826,6.25-8.897,6.25-13.234c-0.029-8.994,1.232-12.627,2.057-14.038
	c0.324-0.558,0.904-0.907,0.996-0.985c0.189-0.166,0.281-0.429,0.246-0.715c-0.043-0.369-0.953-0.659-1.436-1.838
	c0.049-0.105,0.066-0.227,0.049-0.353c-0.041-0.296-0.326-0.505-0.625-0.505l-0.051,0.002c0,0-0.096,0.007-0.26,0.007
	c-0.65,0-2.717-0.124-4.273-1.542c-0.611-1.652-0.65-3.846-0.109-6.557c1.051-5.25,2.268-8.881,3.721-11.101
	c1.105-1.69,2.715-2.74,4.201-2.74c0.861,0,1.691,0.341,2.463,1.012c0.148,0.128,0.336,0.198,0.531,0.198
	c0.893,0,0.945-0.945,0.979-1.51c0.064-1.141,0.184-3.262,2.174-5.189c3.137-3.037,6.014-8.226,6.844-12.338
	c0.945-4.271,0.49-8.373-1.305-12.063c-0.662-2.361-1.818-4.598-3.465-6.65c-2.113-2.629-4.963-4.905-8.416-6.746L118.35,42.07
	c1.178-0.5,3.922-2.213,4.895-7.496l3.123,1.094c-0.113,0.287-0.221,0.607-0.244,0.916c-0.02,0.24,0.07,0.641,0.412,0.975
	c0.328,0.297,0.723,0.539,1.174,0.704c1.682,0.613,3.48-0.088,4.02-1.565c0.41-1.127-0.033-2.38-1.01-3.183
	c1.482,0.369,2.979-0.295,3.451-1.591C134.682,30.521,133.803,28.916,132.211,28.336z M128.508,32.697
	c-0.088-0.004-0.766,0.078-1.158,0.576c-0.088,0.126-0.178,0.271-0.264,0.426l-3.342-1.172c0.35-0.898,0.91-1.962,1.717-2.89
	l3.641,1.274c-0.113,0.279-0.223,0.598-0.246,0.903c-0.018,0.228,0.068,0.608,0.391,0.925c0.027,0.025,0.061,0.049,0.088,0.072
	C129.057,32.742,128.779,32.705,128.508,32.697z"/>
<g>
	<g>
		<path fill="#FFFFFF" d="M128.5,16.026c-0.166,0.103-0.398,0.117-0.602,0.05c-0.625,0.592-1.355,2.438-1.803,4.698
			c-0.355,1.813-0.443,3.448-0.281,4.433c0,0-4.9,4.634-6.529,11.108c-0.004,0.013,0.496,0.191,0.496,0.191
			c1.572-6.589,6.371-11.012,6.506-11.048c-0.207-0.953-0.135-2.684,0.246-4.611c0.486-2.468,1.314-4.439,1.973-4.824
			C128.504,16.023,128.502,16.025,128.5,16.026z"/>
	</g>
	<g>
		<path fill="#FFFFFF" d="M92.916,118.674c-1.604-2.898-4.643-1.606-5.109-0.939c-0.246,0.355-0.326,0.705-0.297,1.001
			c0.008,0.197,0.076,0.427,0.146,0.552c0.281,0.539,0.861,0.81,1.381,0.658c0.609-0.175,0.936-0.9,0.729-1.621
			c-0.025-0.091-0.061-0.179-0.1-0.261c0.467-0.366,1.414-0.489,1.91,0.565c0.742,1.576,0.186,2.633-2.461,9.547
			c-2.648,6.914-0.861,9.567-0.008,10.752c0.852,1.184,2.893,1.837,4.49,1.131c1.393-0.614,1.521-1.687,1.443-2.462
			c-0.053-0.497-0.443-0.984-0.744-1.177c-0.313-0.244-0.758-0.322-1.141-0.211c-0.732,0.211-1.154,0.979-0.939,1.717
			c0.104,0.361,0.342,0.649,0.643,0.824c0,0-1.377,1.334-2.795-0.151c-2.053-2.474,0.807-8.433,1.357-9.677
			C92.26,127.13,94.516,121.57,92.916,118.674z"/>
	</g>
	<g>
		<path fill="#FFFFFF" d="M49.809,164.713c1.031,0.729,2.129,1.443,3.291,2.142c0.09-0.126,0.203-0.233,0.336-0.311
			c-0.195-0.083-0.389-0.167-0.584-0.254C51.789,165.814,50.771,165.285,49.809,164.713z"/>
	</g>
	<g>
		<path fill="#FFFFFF" d="M114.109,35.12L97.518,68.037c-1.699-0.354-3.428-0.536-5.166-0.536c-4.521,0-8.941,1.189-12.781,3.442
			c-3.793,2.225-6.686,5.281-8.363,8.838c-0.188,0.354-2.184,4.26-2.184,9.646c0,3.511-2.031,5.263-3.006,6.104
			c-0.494,0.427-0.854,0.735-0.785,1.268c0.035,0.301,0.217,0.551,0.494,0.691c0.215,0.104,0.459,0.139,0.832,0.189
			c0.85,0.116,2.27,0.313,2.988,1.36c0.553,0.808,0.637,2.046,0.248,3.678c-1.514,6.354-7.041,14.714-11.639,15.565
			c-0.449,0.082-0.887,0.125-1.303,0.125c-1.744,0-2.754-0.743-3.295-1.143c-0.303-0.223-0.541-0.397-0.881-0.397l0,0
			c-0.383,0-0.709,0.237-0.832,0.606c-0.092,0.272-0.039,0.51,0.037,0.84c0.211,0.929,0.703,3.103-1.92,5.405
			c-1.867,1.435-4.922,4.435-7.424,8.202c-3.303,4.975-4.838,9.926-4.563,14.711c0.219,3.762,1.563,7.319,4.008,10.647
			c-0.668-1.14-1.137-2.296-1.367-3.441c-0.037-0.179-0.064-0.353-0.078-0.52c-6.379-13.372,6.123-26.054,9.938-28.974
			c3.633-3.172,2.023-6.281,2.137-6.615c0.148-0.45,1.646,2.096,5.689,1.348c5.178-0.959,10.781-9.884,12.279-16.173
			c1.498-6.29-3.895-5.84-4.492-6.139c-0.6-0.302,3.744-1.948,3.744-7.339s2.096-9.283,2.096-9.283
			c3.814-8.104,14.428-13.5,25.211-11.358l-17.275,34.269c0,0,0.189,0.039,0.543,0.136l33.969-67.974L114.109,35.12z"/>
	</g>
	<g>
		<path fill="#FFFFFF" d="M54.99,167.27c0.01,0.057,0.02,0.116,0.02,0.178c0,0.164-0.043,0.317-0.111,0.457
			c1.074,0.608,2.141,1.176,3.195,1.707C57.564,169.029,56.633,168.254,54.99,167.27z"/>
	</g>
	<g>
		<path fill="#FFFFFF" d="M88.91,106.941l29.635-70.217l-0.979-0.354L86.5,105.648C87.25,106.026,88.057,106.456,88.91,106.941z"/>
	</g>
	<g>
		<path fill="#FFFFFF" d="M62.91,168.762c0.012-0.014,0.025-0.033,0.037-0.05c-1.361-0.031-2.768-0.198-4.189-0.493
			c0.092,0.16,0.211,0.305,0.373,0.428C61.279,170.271,62.693,169.064,62.91,168.762z"/>
	</g>
	<g>
		<path fill="#FFFFFF" d="M120.543,26.319c0.857-0.817,1.512-1.689,1.602-1.856l-0.314-0.117c-0.287,0.449-0.42,0.707-1.566,1.854
			c-1.521,1.518-3.756,4.251-6.07,8.426l0.426,0.151C114.619,34.776,117.248,29.711,120.543,26.319z"/>
	</g>
	<g>
		<path fill="#FFFFFF" d="M119.023,36.896l-29.668,70.302c-0.15-0.087-0.297-0.173-0.445-0.257l-7.07,16.75l-2.855-1.283
			l7.516-16.762c-0.156-0.078-0.307-0.153-0.457-0.226l31.043-69.224l-0.92-0.333l-32.572,68.449
			c0.725,0.298,1.545,0.665,2.449,1.107l-7.523,16.777l-2.832-1.272l7.906-16.612c-0.162-0.068-0.32-0.131-0.473-0.191
			l32.564-68.433l-0.826-0.298l-33.955,67.945c0.543,0.165,1.291,0.418,2.217,0.785l-7.896,16.595l-2.455-1.104l2.592-5.186
			c0.08-0.014,0.162-0.035,0.242-0.066c0.125-0.051,0.314-0.172,0.451-0.31c0.281-0.243,0.438-0.474,0.521-0.886
			c0.035-0.191-0.006-0.526-0.135-0.898l4.463-8.931c-0.191-0.06-0.357-0.107-0.496-0.146l-4.24,8.485
			c-0.533-0.91-1.596-1.735-3.346-1.075c-2.865,1.085-5.139,6.524-5.807,8.349c-0.48,1.248-2.648,7.355-5.512,7.85
			c-1.832,0.18-1.791-1.652-1.791-1.652c0.297,0.063,0.629,0.006,0.928-0.189c0.613-0.399,0.861-1.221,0.557-1.834
			c-0.158-0.321-0.48-0.545-0.828-0.566c-0.311-0.05-0.801,0.131-1.16,0.459c-0.557,0.51-1.105,2.326-0.207,3.498
			c0.475,0.676,1.49,1.449,2.865,1.125c1.377-0.324,4.111-1.11,7.035-7.775c2.924-6.664,3.277-7.777,4.76-8.451
			c0.99-0.448,1.482,0.237,1.525,0.797c-0.076,0.033-0.154,0.076-0.229,0.125c-0.598,0.39-0.877,1.121-0.621,1.631
			c0.1,0.204,0.271,0.346,0.475,0.422l-2.508,5.019c-0.84-0.392-1.137-0.134-1.201,0.039c-0.105,0.349,0.189,0.753,0.699,1.164
			l-4.24,12.935c-1.854-1.008-2.613,11.523-2.867,17.367c1.289,1.064,2.363,2.305,3.172,3.672c2.541-3.811,7.889-11.115,8.404-11.92
			c0.66-1.022,3.955-4.543,0.693-5.128l4.811-12.354c1.121,0.4,2.1,0.701,2.682,0.786c0.625,0.075,0.766-0.314,0.791-0.419
			c0.078-0.311-0.275-0.446-0.51-0.553l-2.432-1.094l7.049-16.702c0.498,0.29,1.012,0.599,1.541,0.93L105.619,71.8
			c9.242,4.622,14.742,12.462,12.563,22.285c-0.779,3.878-3.574,9.07-6.719,12.114c-3.145,3.045-2.166,6.575-2.631,6.575
			c-2.91-2.532-6.221-0.789-7.998,1.926c-1.508,2.304-2.797,6.067-3.896,11.565c-2.396,11.98,6.738,11.231,6.738,11.231
			s-3.344,1.099-3.295,15.872c0.135,12.738-12.791,27.848-37.793,17.422c-0.031,0.313-0.041,0.618-0.041,0.861
			c5.537,2.277,10.762,3.436,15.6,3.436c6.758,0,12.576-2.272,16.832-6.573c4.006-4.05,6.271-9.572,6.211-15.152
			c-0.027-8.343,1.041-12.146,1.865-13.835c0.564-1.165,1.537-1.682,1.486-2.143c-0.051-0.408-0.451-0.695-0.861-0.695l-0.07,0.002
			c0,0-0.088,0.006-0.242,0.006c-0.701,0-3.102-0.145-4.621-1.996c-1.426-1.737-1.768-4.523-1.018-8.277
			c1.068-5.334,2.305-9.024,3.781-11.281c1.127-1.721,2.768-2.789,4.279-2.789c0.881,0,1.725,0.347,2.512,1.031
			c0.146,0.128,0.336,0.199,0.531,0.199c0.895,0,0.949-0.955,0.98-1.523c0.064-1.159,0.186-3.318,2.213-5.28
			c3.186-3.083,6.107-8.352,6.949-12.528c1.289-5.83,0.016-11.348-3.688-15.955c-2.303-2.871-5.486-5.323-9.361-7.251L119.67,37.13
			L119.023,36.896z M67.994,133.865l4.24-12.939c0.664,0.454,1.525,0.906,2.357,1.307l-4.494,12.819
			C69.096,134.523,68.326,134.066,67.994,133.865z M70.555,135.287l4.5-12.84c0.65,0.295,1.705,0.754,2.896,1.246l-4.438,12.928
			C72.469,136.219,71.443,135.74,70.555,135.287z M76.447,137.457c-0.779-0.121-1.617-0.359-2.455-0.659l4.43-12.911
			c0.945,0.385,1.945,0.779,2.875,1.121L76.447,137.457z"/>
	</g>
	<g>
		<path fill="#FFFFFF" d="M64.551,168.088c0.863-0.043,1.689-0.268,2.34-1.123c1.301-1.892,2.045-4.077,2.045-6.406
			c0-7.195-7.086-13.027-15.824-13.027c-4.145,0-7.914,1.313-10.734,3.461c-1.107,0.777-1.422,1.566-1.174,2.721
			c0.869,4.323,5.398,9.121,11.893,12.03C57.104,167.537,61.146,168.295,64.551,168.088z"/>
	</g>
</g>
</svg>
