<?xml version="1.0" encoding="utf-8"?>
<!-- Generator: Adobe Illustrator 16.0.0, SVG Export Plug-In . SVG Version: 6.00 Build 0)  -->
<!DOCTYPE svg PUBLIC "-//W3C//DTD SVG 1.1//EN" "http://www.w3.org/Graphics/SVG/1.1/DTD/svg11.dtd">
<svg version="1.1" id="Layer_1" xmlns="http://www.w3.org/2000/svg" xmlns:xlink="http://www.w3.org/1999/xlink" x="0px" y="0px"
	 width="190px" height="190px" viewBox="0 0 190 190" enable-background="new 0 0 190 190" xml:space="preserve">
<path fill="#31313D" d="M138.719,94.554c10.269-9.479,10.359-27.456-9.111-40.477C106.195,38.424,103,15.355,103,15.203V15h-7.097
	l0.568,119.149c-5.449-5.188-13.444-8.479-22.361-8.479c-16.415,0-29.72,11.085-29.72,24.769c0,13.683,13.305,24.876,29.72,24.876
	c16.268,0,29.479-10.314,29.711-24.314H103v-0.53c0-0.014,0-0.026,0-0.039c0-0.016,0-0.034,0-0.05l0.248-45.419
	c3.842,5.939,10.769,12.956,22.731,21.905c24.201,18.104,6.97,36.926,6.97,36.926c12.867-6.224,17.774-22.535,5.718-36.55
	C147.003,119.548,148.785,106.253,138.719,94.554z M126.188,61.484c15.86,11.865,13.878,24.039,10.632,31.02
	c-1.982-1.983-4.317-3.909-7.048-5.734c-21.004-14.044-25.582-34.045-26.318-38.125l-0.033-9.449
	C107.22,45.216,113.961,52.339,126.188,61.484z M136.82,125.196c-1.982-1.985-4.317-3.91-7.048-5.737
	c-20.071-13.419-25.142-32.278-26.193-37.488l-0.036-9.892c3.819,5.979,10.551,13.049,22.646,22.098
	C142.049,106.043,140.066,118.213,136.82,125.196z"/>
</svg>
