<?xml version="1.0" encoding="utf-8"?>
<!-- Generator: Adobe Illustrator 16.0.0, SVG Export Plug-In . SVG Version: 6.00 Build 0)  -->
<!DOCTYPE svg PUBLIC "-//W3C//DTD SVG 1.1//EN" "http://www.w3.org/Graphics/SVG/1.1/DTD/svg11.dtd">
<svg version="1.1" id="Layer_1" xmlns="http://www.w3.org/2000/svg" xmlns:xlink="http://www.w3.org/1999/xlink" x="0px" y="0px"
	 width="190px" height="190px" viewBox="0 0 190 190" enable-background="new 0 0 190 190" xml:space="preserve">
<path fill="#31313D" d="M124.336,130.75c-3.622-9.057-13.371-14.914-24.836-14.914c-6.461,0-12.637,1.849-17.861,5.367
	c-3.881,2.615-6.92,5.328-9.304,9.053L72.884,14h-8.368l-0.559,153.588l0.001,0.286c-0.012,0.886-0.021,1.914-0.021,2.782
	l0.004,4.286l4.255-0.352c0,0,1.33-0.591,3.553-0.591c0.001,0,0.001,0,0.002,0c7.362,0,21.351-0.013,32.326-4.715
	C121,162.032,130.086,145.127,124.336,130.75z M100.547,161.739c-9.188,3.938-21.59,4.603-27.586,4.675
	c0.532-20.047,4.816-31.776,13.688-37.752c3.684-2.482,8.248-3.849,12.851-3.849c7.777,0,14.259,3.64,16.511,9.272
	C119.97,143.982,113.032,156.389,100.547,161.739z"/>
</svg>
