<?xml version="1.0" encoding="utf-8"?>
<!-- Generator: Adobe Illustrator 16.0.0, SVG Export Plug-In . SVG Version: 6.00 Build 0)  -->
<!DOCTYPE svg PUBLIC "-//W3C//DTD SVG 1.1//EN" "http://www.w3.org/Graphics/SVG/1.1/DTD/svg11.dtd">
<svg version="1.1" id="Layer_1" xmlns="http://www.w3.org/2000/svg" xmlns:xlink="http://www.w3.org/1999/xlink" x="0px" y="0px"
	 width="190px" height="190px" viewBox="0 0 190 190" enable-background="new 0 0 190 190" xml:space="preserve">
<g id="Layer_1_1_">
	<g>
		<line fill="none" stroke="#000000" stroke-width="4" stroke-miterlimit="10" x1="-54" y1="48" x2="294" y2="48"/>
		<line fill="none" stroke="#000000" stroke-width="4" stroke-miterlimit="10" x1="-54" y1="70" x2="294" y2="70"/>
		<line fill="none" stroke="#000000" stroke-width="4" stroke-miterlimit="10" x1="-54" y1="93" x2="294" y2="93"/>
		<line fill="none" stroke="#000000" stroke-width="4" stroke-miterlimit="10" x1="-54" y1="116" x2="294" y2="116"/>
		<line fill="none" stroke="#000000" stroke-width="4" stroke-miterlimit="10" x1="-54" y1="138" x2="294" y2="138"/>
	</g>
</g>
<g id="Layer_2">
	<path fill="#31313D" d="M106.785,104.492c0-0.004,0-0.01,0-0.014c0-0.008,0-0.015,0-0.02l0.062-51.96h-2.854l0.216,45.745
		c-2.091-1.993-5.146-3.195-8.571-3.195c-6.305,0-11.431,4.18-11.431,9.436c0,5.257,5.077,9.498,11.381,9.498
		c6.25,0,11.106-3.934,11.195-9.306l0,0L106.785,104.492L106.785,104.492z"/>
</g>
<path fill="#31313D" d="M81.404,95.828v-6.071h-9.737V71.546h-4.101v18.211h-10.25V76.403h-4.1v13.354h-9.737v6.071h9.737v15.783
	h-9.737v6.071h9.737v18.614h4.1v-18.614h10.25v13.354h4.101v-13.354h9.737v-6.071h-9.737V95.828H81.404z M67.566,111.611h-10.25
	V95.828h10.25V111.611z"/>
</svg>
