<?xml version="1.0" encoding="utf-8"?>
<!-- Generator: Adobe Illustrator 16.0.0, SVG Export Plug-In . SVG Version: 6.00 Build 0)  -->
<!DOCTYPE svg PUBLIC "-//W3C//DTD SVG 1.1//EN" "http://www.w3.org/Graphics/SVG/1.1/DTD/svg11.dtd">
<svg version="1.1" id="Layer_1" xmlns="http://www.w3.org/2000/svg" xmlns:xlink="http://www.w3.org/1999/xlink" x="0px" y="0px"
	 width="190px" height="190px" viewBox="0 0 190 190" enable-background="new 0 0 190 190" xml:space="preserve">
<g id="Layer_1_1_">
	<g>
		<line fill="none" stroke="#000000" stroke-width="4" stroke-miterlimit="10" x1="-54" y1="48" x2="294" y2="48"/>
		<line fill="none" stroke="#000000" stroke-width="4" stroke-miterlimit="10" x1="-54" y1="70" x2="294" y2="70"/>
		<line fill="none" stroke="#000000" stroke-width="4" stroke-miterlimit="10" x1="-54" y1="93" x2="294" y2="93"/>
		<line fill="none" stroke="#000000" stroke-width="4" stroke-miterlimit="10" x1="-54" y1="116" x2="294" y2="116"/>
		<line fill="none" stroke="#000000" stroke-width="4" stroke-miterlimit="10" x1="-54" y1="138" x2="294" y2="138"/>
	</g>
</g>
<g id="Layer_2">
	<path fill="#31313D" d="M106.785,93.325c0-0.004,0-0.009,0-0.014c0-0.007,0-0.014,0-0.019l0.062-51.96h-2.854l0.216,45.745
		c-2.091-1.993-5.146-3.195-8.571-3.195c-6.305,0-11.431,4.179-11.431,9.436c0,5.256,5.077,9.499,11.381,9.499
		c6.25,0,11.106-3.935,11.195-9.307l0,0L106.785,93.325L106.785,93.325z"/>
</g>
<path fill="#31313D" d="M80.98,89.74c-1.082-2.705-3.995-4.455-7.419-4.455c-1.93,0-3.775,0.552-5.336,1.603
	c-1.159,0.782-2.067,1.592-2.779,2.705l0.164-34.729h-2.5l-0.167,45.881v0.085c-0.004,0.265-0.006,0.572-0.006,0.831l0.001,1.28
	l1.271-0.104c0,0,0.397-0.178,1.062-0.178c0.001,0,0.001,0,0.001,0c2.199,0,6.378-0.003,9.656-1.407
	C79.984,99.085,82.698,94.035,80.98,89.74z M73.873,98.998c-2.744,1.176-6.449,1.374-8.241,1.396
	c0.159-5.989,1.439-9.492,4.089-11.279c1.101-0.741,2.464-1.149,3.839-1.149c2.323,0,4.259,1.088,4.932,2.77
	C79.676,93.693,77.604,97.399,73.873,98.998z"/>
</svg>
