<?xml version="1.0" encoding="utf-8"?>
<!-- Generator: Adobe Illustrator 16.0.0, SVG Export Plug-In . SVG Version: 6.00 Build 0)  -->
<!DOCTYPE svg PUBLIC "-//W3C//DTD SVG 1.1//EN" "http://www.w3.org/Graphics/SVG/1.1/DTD/svg11.dtd">
<svg version="1.1" id="Layer_1" xmlns="http://www.w3.org/2000/svg" xmlns:xlink="http://www.w3.org/1999/xlink" x="0px" y="0px"
	 width="190px" height="190px" viewBox="0 0 190 190" enable-background="new 0 0 190 190" xml:space="preserve">
<g>
	<path fill="#31313D" d="M126.32,37.844c-6.777-8.367-15.601-14.577-24.606-18.271c-1.125-0.473-2.244-0.926-3.382-1.294
		l-1.691-0.583l-0.987-0.327l-0.758-0.216l-1.553-0.435l-1.852-0.454c-1.233-0.298-2.347-0.476-3.52-0.668
		c-4.644-0.684-9.22-0.776-13.53-0.299c-8.649,0.914-16.069,3.884-21.911,7.289c-5.86,3.468-10.025,7.675-12.859,11.456
		c-2.859,3.791-4.396,7.203-5.309,9.549c-0.45,1.181-0.738,2.108-0.899,2.754c-0.058,0.198-0.099,0.357-0.136,0.497
		c-1.267,2.741-2.012,5.776-2.085,8.988c-0.284,12.52,9.634,22.9,22.154,23.184c12.519,0.282,22.897-9.637,23.183-22.155
		c0.269-11.88-8.657-21.818-20.268-23.045c0.575-0.279,1.128-0.562,1.723-0.837c4.95-2.34,10.886-4.077,17.334-4.184
		c6.443-0.148,13.291,1.451,20.098,4.803c6.805,3.275,13.102,8.143,18.161,14.502c2.506,3.191,4.748,6.709,6.602,10.528
		c1.809,3.839,3.307,7.927,4.405,12.204c2.205,8.56,2.68,17.818,1.675,26.965c-0.497,4.6-1.372,9.104-2.612,13.521
		c-1.308,4.546-2.84,8.685-4.938,12.725c-2.046,4.018-4.404,7.863-7.104,11.426c-2.7,3.567-5.757,6.815-8.982,9.805
		c-6.479,5.94-13.707,10.815-21.127,14.404c-7.397,3.649-14.911,6.165-22.021,7.847c-7.13,1.6-13.859,2.421-19.867,2.638
		c-6.007,0.198-11.292-0.063-15.632-0.541c-4.33-0.554-7.723-1.101-10.038-1.618c-2.308-0.523-3.539-0.804-3.539-0.804
		s1.168,0.479,3.358,1.375c2.195,0.859,5.501,2.078,9.808,3.24c4.32,1.099,9.666,2.23,15.922,2.766
		c6.245,0.549,13.403,0.661,21.156-0.284c7.728-0.992,16.137-2.717,24.573-6.062c4.24-1.607,8.491-3.584,12.678-5.931
		c2.12-1.133,4.163-2.459,6.25-3.771c2.017-1.415,4.059-2.845,6.009-4.444c7.882-6.267,15.062-14.227,20.469-23.596
		c2.713-4.626,4.91-9.804,6.626-14.809c1.749-5.147,3.083-10.499,3.944-15.867c1.732-10.789,1.397-21.98-0.966-32.703
		C137.952,56.391,133.173,46.147,126.32,37.844z"/>
	<circle fill="#31313D" cx="165.478" cy="74.221" r="14.077"/>
	<circle fill="#31313D" cx="165.478" cy="120.142" r="14.077"/>
</g>
</svg>
