<?xml version="1.0" encoding="utf-8"?>
<!-- Generator: Adobe Illustrator 16.0.0, SVG Export Plug-In . SVG Version: 6.00 Build 0)  -->
<!DOCTYPE svg PUBLIC "-//W3C//DTD SVG 1.1//EN" "http://www.w3.org/Graphics/SVG/1.1/DTD/svg11.dtd">
<svg version="1.1" xmlns="http://www.w3.org/2000/svg" xmlns:xlink="http://www.w3.org/1999/xlink" x="0px" y="0px" width="190px"
	 height="190px" viewBox="0 0 190 190" enable-background="new 0 0 190 190" xml:space="preserve">
<g id="Layer_1">
	<g>
		<line stroke="#000000" stroke-width="4" stroke-miterlimit="10" x1="-54" y1="48" x2="294" y2="48"/>
		<line stroke="#000000" stroke-width="4" stroke-miterlimit="10" x1="-54" y1="70" x2="294" y2="70"/>
		<line stroke="#000000" stroke-width="4" stroke-miterlimit="10" x1="-54" y1="93" x2="294" y2="93"/>
		<line stroke="#000000" stroke-width="4" stroke-miterlimit="10" x1="-54" y1="116" x2="294" y2="116"/>
		<line stroke="#000000" stroke-width="4" stroke-miterlimit="10" x1="-54" y1="138" x2="294" y2="138"/>
	</g>
	<line stroke="#000000" stroke-width="4" stroke-miterlimit="10" x1="76.209" y1="160" x2="113.709" y2="160"/>
</g>
<g id="Layer_2">
	<path fill="#31313D" d="M105.652,159.969c0-0.004,0-0.009,0-0.014c0-0.006,0-0.013,0-0.018l0.061-49.354h-2.71l0.205,43.451
		c-1.986-1.894-4.889-3.035-8.142-3.035c-5.989,0-10.857,3.97-10.857,8.963c0,4.992,4.822,9.021,10.811,9.021
		c5.936,0,10.549-3.736,10.633-8.839l0,0V159.969z"/>
</g>
</svg>
