<?xml version="1.0" encoding="utf-8"?>
<!-- Generator: Adobe Illustrator 16.0.0, SVG Export Plug-In . SVG Version: 6.00 Build 0)  -->
<!DOCTYPE svg PUBLIC "-//W3C//DTD SVG 1.1//EN" "http://www.w3.org/Graphics/SVG/1.1/DTD/svg11.dtd">
<svg version="1.1" xmlns="http://www.w3.org/2000/svg" xmlns:xlink="http://www.w3.org/1999/xlink" x="0px" y="0px" width="190px"
	 height="190px" viewBox="0 0 190 190" enable-background="new 0 0 190 190" xml:space="preserve">
<g id="Layer_1">
	<g>
		<line stroke="#000000" stroke-width="4" stroke-miterlimit="10" x1="-54" y1="48" x2="294" y2="48"/>
		<line stroke="#000000" stroke-width="4" stroke-miterlimit="10" x1="-54" y1="70" x2="294" y2="70"/>
		<line stroke="#000000" stroke-width="4" stroke-miterlimit="10" x1="-54" y1="93" x2="294" y2="93"/>
		<line stroke="#000000" stroke-width="4" stroke-miterlimit="10" x1="-54" y1="116" x2="294" y2="116"/>
		<line stroke="#000000" stroke-width="4" stroke-miterlimit="10" x1="-54" y1="138" x2="294" y2="138"/>
	</g>
</g>
<g id="Layer_2">
	<path fill="#31313D" d="M106.785,81.516c0-0.004,0-0.009,0-0.014c0-0.007,0-0.014,0-0.019l0.063-52.15h-2.864l0.217,45.913
		c-2.099-2-5.165-3.207-8.603-3.207c-6.328,0-11.473,4.195-11.473,9.471c0,5.275,5.096,9.533,11.423,9.533
		c6.272,0,11.146-3.948,11.236-9.34l0,0V81.516z"/>
</g>
</svg>
