<?xml version="1.0" encoding="utf-8"?>
<!-- Generator: Adobe Illustrator 16.0.0, SVG Export Plug-In . SVG Version: 6.00 Build 0)  -->
<!DOCTYPE svg PUBLIC "-//W3C//DTD SVG 1.1//EN" "http://www.w3.org/Graphics/SVG/1.1/DTD/svg11.dtd">
<svg version="1.1" id="Layer_1" xmlns="http://www.w3.org/2000/svg" xmlns:xlink="http://www.w3.org/1999/xlink" x="0px" y="0px"
	 width="190px" height="190px" viewBox="0 0 190 190" enable-background="new 0 0 190 190" xml:space="preserve">
<g id="Layer_1_1_">
	<g>
		<line fill="none" stroke="#000000" stroke-width="4" stroke-miterlimit="10" x1="-54" y1="48" x2="294" y2="48"/>
		<line fill="none" stroke="#000000" stroke-width="4" stroke-miterlimit="10" x1="-54" y1="70" x2="294" y2="70"/>
		<line fill="none" stroke="#000000" stroke-width="4" stroke-miterlimit="10" x1="-54" y1="93" x2="294" y2="93"/>
		<line fill="none" stroke="#000000" stroke-width="4" stroke-miterlimit="10" x1="-54" y1="116" x2="294" y2="116"/>
		<line fill="none" stroke="#000000" stroke-width="4" stroke-miterlimit="10" x1="-54" y1="138" x2="294" y2="138"/>
	</g>
</g>
<g id="Layer_2">
	<path fill="#31313D" d="M105.652,137.969c0-0.004,0-0.009,0-0.014c0-0.006,0-0.014,0-0.018l0.061-49.354h-2.71l0.205,43.451
		c-1.985-1.894-4.89-3.035-8.142-3.035c-5.989,0-10.857,3.97-10.857,8.963c0,4.992,4.822,9.021,10.811,9.021
		c5.936,0,10.548-3.735,10.632-8.838l0,0V137.969L105.652,137.969z"/>
</g>
<path fill="#31313D" d="M81.587,129.717v-6.07H71.85v-18.211H67.75v18.211H57.5v-13.355h-4.1v13.355h-9.737v6.07H53.4V145.5h-9.737
	v6.071H53.4v18.614h4.1v-18.614h10.25v13.354h4.101v-13.354h9.737V145.5H71.85v-15.783H81.587z M67.75,145.5H57.5v-15.783h10.25
	V145.5z"/>
</svg>
