<?xml version="1.0" encoding="utf-8"?>
<!-- Generator: Adobe Illustrator 16.0.0, SVG Export Plug-In . SVG Version: 6.00 Build 0)  -->
<!DOCTYPE svg PUBLIC "-//W3C//DTD SVG 1.1//EN" "http://www.w3.org/Graphics/SVG/1.1/DTD/svg11.dtd">
<svg version="1.1" id="Layer_1" xmlns="http://www.w3.org/2000/svg" xmlns:xlink="http://www.w3.org/1999/xlink" x="0px" y="0px"
	 width="190px" height="190px" viewBox="0 0 190 190" enable-background="new 0 0 190 190" xml:space="preserve">
<g id="Layer_1_1_">
	<g>
		<line fill="none" stroke="#000000" stroke-width="4" stroke-miterlimit="10" x1="-54" y1="48" x2="294" y2="48"/>
		<line fill="none" stroke="#000000" stroke-width="4" stroke-miterlimit="10" x1="-54" y1="70" x2="294" y2="70"/>
		<line fill="none" stroke="#000000" stroke-width="4" stroke-miterlimit="10" x1="-54" y1="93" x2="294" y2="93"/>
		<line fill="none" stroke="#000000" stroke-width="4" stroke-miterlimit="10" x1="-54" y1="116" x2="294" y2="116"/>
		<line fill="none" stroke="#000000" stroke-width="4" stroke-miterlimit="10" x1="-54" y1="138" x2="294" y2="138"/>
	</g>
</g>
<g id="Layer_2">
	<path fill="#31313D" d="M105.652,126.969c0-0.004,0-0.009,0-0.014c0-0.006,0-0.014,0-0.018l0.061-49.354h-2.71l0.205,43.451
		c-1.985-1.894-4.89-3.035-8.142-3.035c-5.989,0-10.857,3.97-10.857,8.963c0,4.992,4.822,9.021,10.811,9.021
		c5.936,0,10.548-3.735,10.632-8.838l0,0V126.969L105.652,126.969z"/>
</g>
<path fill="#31313D" d="M80.397,123.407c-1.082-2.705-3.995-4.455-7.419-4.455c-1.93,0-3.775,0.551-5.336,1.602
	c-1.159,0.783-2.067,1.593-2.779,2.705l0.164-34.728h-2.5l-0.167,45.881v0.085c-0.004,0.265-0.006,0.572-0.006,0.831l0.001,1.28
	l1.271-0.104c0,0,0.397-0.178,1.062-0.178c0.001,0,0.001,0,0.001,0c2.199,0,6.378-0.003,9.656-1.407
	C79.4,132.752,82.114,127.702,80.397,123.407z M73.29,132.665c-2.744,1.176-6.449,1.374-8.241,1.396
	c0.159-5.989,1.439-9.492,4.089-11.279c1.101-0.74,2.464-1.148,3.839-1.148c2.323,0,4.259,1.088,4.932,2.77
	C79.092,127.36,77.02,131.066,73.29,132.665z"/>
</svg>
