<?xml version="1.0" encoding="utf-8"?>
<!-- Generator: Adobe Illustrator 16.0.0, SVG Export Plug-In . SVG Version: 6.00 Build 0)  -->
<!DOCTYPE svg PUBLIC "-//W3C//DTD SVG 1.1//EN" "http://www.w3.org/Graphics/SVG/1.1/DTD/svg11.dtd">
<svg version="1.1" xmlns="http://www.w3.org/2000/svg" xmlns:xlink="http://www.w3.org/1999/xlink" x="0px" y="0px" width="190px"
	 height="190px" viewBox="0 0 190 190" enable-background="new 0 0 190 190" xml:space="preserve">
<g id="Layer_1">
	<g>
		<line stroke="#000000" stroke-width="4" stroke-miterlimit="10" x1="-54" y1="48" x2="294" y2="48"/>
		<line stroke="#000000" stroke-width="4" stroke-miterlimit="10" x1="-54" y1="70" x2="294" y2="70"/>
		<line stroke="#000000" stroke-width="4" stroke-miterlimit="10" x1="-54" y1="93" x2="294" y2="93"/>
		<line stroke="#000000" stroke-width="4" stroke-miterlimit="10" x1="-54" y1="116" x2="294" y2="116"/>
		<line stroke="#000000" stroke-width="4" stroke-miterlimit="10" x1="-54" y1="138" x2="294" y2="138"/>
	</g>
</g>
<g id="Layer_2">
	<path fill="#31313D" d="M106.785,93.325c0-0.004,0-0.009,0-0.014c0-0.007,0-0.014,0-0.019l0.063-51.96h-2.854l0.216,45.745
		c-2.091-1.993-5.146-3.195-8.571-3.195c-6.305,0-11.431,4.179-11.431,9.436c0,5.256,5.077,9.498,11.381,9.498
		c6.25,0,11.106-3.934,11.195-9.306l0,0V93.325z"/>
</g>
</svg>
