<?xml version="1.0" encoding="utf-8"?>
<!-- Generator: Adobe Illustrator 16.0.0, SVG Export Plug-In . SVG Version: 6.00 Build 0)  -->
<!DOCTYPE svg PUBLIC "-//W3C//DTD SVG 1.1//EN" "http://www.w3.org/Graphics/SVG/1.1/DTD/svg11.dtd">
<svg version="1.1" id="Layer_1" xmlns="http://www.w3.org/2000/svg" xmlns:xlink="http://www.w3.org/1999/xlink" x="0px" y="0px"
	 width="190px" height="190px" viewBox="0 0 190 190" enable-background="new 0 0 190 190" xml:space="preserve">
<g>
	<path fill="#31313D" d="M151,79.807c-8-19.828-30.281-34.137-56.703-34.137C69.308,45.67,47,58.466,39,76.62V36h-8v120h8v-41.675
		c8,18.154,30.308,30.951,55.297,30.951c26.422,0,48.703-14.311,56.703-34.136V156h8V36h-8V79.807z M94.332,129.276
		c-24.119,0-43.739-15.164-43.739-33.802c0-18.641,19.62-33.804,43.739-33.804c24.115,0,43.735,15.163,43.735,33.804
		C138.067,114.112,118.447,129.276,94.332,129.276z"/>
	<rect x="167" y="36" fill="#31313D" width="8" height="120"/>
	<rect x="15" y="36" fill="#31313D" width="8" height="120"/>
</g>
</svg>
