<?xml version="1.0" encoding="utf-8"?>
<!-- Generator: Adobe Illustrator 16.0.0, SVG Export Plug-In . SVG Version: 6.00 Build 0)  -->
<!DOCTYPE svg PUBLIC "-//W3C//DTD SVG 1.1//EN" "http://www.w3.org/Graphics/SVG/1.1/DTD/svg11.dtd">
<svg version="1.1" id="Layer_1" xmlns="http://www.w3.org/2000/svg" xmlns:xlink="http://www.w3.org/1999/xlink" x="0px" y="0px"
	 width="190px" height="190px" viewBox="0 0 190 190" enable-background="new 0 0 190 190" xml:space="preserve">
<path fill="#31313D" d="M139.604,15.218C124.689,15.218,112.578,26,112.314,38H112v-0.501c0,0.014,0,0.029,0,0.044
	c0,0.019,0.151,0.038,0.151,0.057l0.485,111.367l-82.113,10.694l-0.438-96.167c5.003,4.763,12.356,7.774,20.548,7.774
	c15.078,0,27.305-10.188,27.305-22.758s-12.22-22.309-27.298-22.309C35.729,26.202,23.621,36,23.355,49H23v-0.534
	c0,0.015,0,0.03,0,0.045c0,0.019,0.173,0.139,0.173,0.158L23.799,173h0.005l0.008,2.086l95.87-11.975l-0.162-14.807l-0.457-95.765
	c5.004,4.763,12.348,7.768,20.541,7.768c15.078,0,27.299-9.976,27.299-22.545S154.682,15.218,139.604,15.218z"/>
</svg>
