<?xml version="1.0" encoding="utf-8"?>
<!-- Generator: Adobe Illustrator 16.0.0, SVG Export Plug-In . SVG Version: 6.00 Build 0)  -->
<!DOCTYPE svg PUBLIC "-//W3C//DTD SVG 1.1//EN" "http://www.w3.org/Graphics/SVG/1.1/DTD/svg11.dtd">
<svg version="1.1" id="Layer_1" xmlns="http://www.w3.org/2000/svg" xmlns:xlink="http://www.w3.org/1999/xlink" x="0px" y="0px"
	 width="190px" height="190px" viewBox="0 0 190 190" enable-background="new 0 0 190 190" xml:space="preserve">
<path fill="#31313D" d="M167,141.544c0-0.012,0-0.023,0-0.035c0-0.016-0.133-0.049-0.133-0.063L166.284,17h-0.005l-0.007-2.014
	L70.379,26.921l0.163,14.906l0.456,95.663c-5.005-4.766-12.351-7.777-20.545-7.777c-15.082,0-27.307,10.192-27.307,22.765
	s12.225,22.358,27.307,22.358c14.947,0,27.081-8.836,27.296-22.836H78v0.515c0-0.012,0-0.024,0-0.036c0-0.016,0-0.03,0-0.046
	L77.472,41.026L159.58,30.33l0.43,96.192c-5.006-4.765-12.366-7.777-20.561-7.777c-15.081,0-27.313,10.191-27.313,22.765
	c0,12.572,12.222,22.343,27.304,22.343c14.945,0,27.076-8.852,27.29-22.852H167V141.544z"/>
</svg>
