<?xml version="1.0" encoding="utf-8"?>
<!-- Generator: Adobe Illustrator 16.0.0, SVG Export Plug-In . SVG Version: 6.00 Build 0)  -->
<!DOCTYPE svg PUBLIC "-//W3C//DTD SVG 1.1//EN" "http://www.w3.org/Graphics/SVG/1.1/DTD/svg11.dtd">
<svg version="1.1" id="Layer_1" xmlns="http://www.w3.org/2000/svg" xmlns:xlink="http://www.w3.org/1999/xlink" x="0px" y="0px"
	 width="190px" height="190px" viewBox="0 0 190 190" enable-background="new 0 0 190 190" xml:space="preserve">
<path fill="#31313D" d="M167,141.668c0-0.015,0-0.029,0-0.043c0-0.02,0-0.037,0-0.055L166.316,17h-0.005l-0.007-2.055l-95.88,11.989
	l0.156,14.771l0.423,95.845c-5.003-4.766-12.346-7.767-20.539-7.77c-15.079-0.006-27.305,10.186-27.31,22.756
	s12.214,22.265,27.293,22.271C65.349,174.811,77.455,166,77.745,152H78v0.622c0-0.021,0-0.041,0-0.062
	c0-0.025-0.124-0.051-0.124-0.077l-0.38-97.361L159.637,43.9l0.352,82.738c-5.003-4.766-12.354-7.78-20.547-7.784
	c-15.078-0.004-27.308,10.181-27.312,22.751s12.211,23.231,27.29,23.235c14.901,0.008,27.005-9.84,27.295-21.84H167V141.668z
	 M77.411,47.744l-0.021-6.616l82.157-10.666l0.029,6.061L77.411,47.744z"/>
</svg>
