<?xml version="1.0" encoding="utf-8"?>
<!-- Generator: Adobe Illustrator 16.0.0, SVG Export Plug-In . SVG Version: 6.00 Build 0)  -->
<!DOCTYPE svg PUBLIC "-//W3C//DTD SVG 1.1//EN" "http://www.w3.org/Graphics/SVG/1.1/DTD/svg11.dtd">
<svg version="1.1" id="Layer_1" xmlns="http://www.w3.org/2000/svg" xmlns:xlink="http://www.w3.org/1999/xlink" x="0px" y="0px"
	 width="190px" height="190px" viewBox="0 0 190 190" enable-background="new 0 0 190 190" xml:space="preserve">
<path fill="#31313D" d="M139.602,15.224C124.693,15.224,112.586,26,112.314,38H112v-0.5c0,0.015,0,0.03,0,0.045
	c0,0.019,0.151,0.038,0.153,0.057l0.431,97.373l-82.122,11.251l-0.376-82.73c5.005,4.763,12.356,7.774,20.549,7.774
	c15.078,0,27.304-10.189,27.304-22.758c0-12.569-12.22-22.304-27.297-22.304C35.732,26.208,23.628,36,23.357,49H23v-0.533
	c0,0.016,0,0.03,0,0.045c0,0.019,0.174,0.148,0.175,0.167L23.8,173h0.005l0.008,2.093l95.868-11.979l-0.162-14.798l-0.457-95.774
	c5.004,4.763,12.348,7.768,20.539,7.768c15.078,0,27.299-9.973,27.299-22.542C166.9,25.199,154.68,15.224,139.602,15.224z
	 M112.686,142.352l0.025,6.616l-82.147,10.693l-0.03-6.06L112.686,142.352z"/>
</svg>
