<?xml version="1.0" encoding="utf-8"?>
<!-- Generator: Adobe Illustrator 16.0.0, SVG Export Plug-In . SVG Version: 6.00 Build 0)  -->
<!DOCTYPE svg PUBLIC "-//W3C//DTD SVG 1.1//EN" "http://www.w3.org/Graphics/SVG/1.1/DTD/svg11.dtd">
<svg version="1.1" id="Layer_1" xmlns="http://www.w3.org/2000/svg" xmlns:xlink="http://www.w3.org/1999/xlink" x="0px" y="0px"
	 width="190px" height="190px" viewBox="0 0 190 190" enable-background="new 0 0 190 190" xml:space="preserve">
<path fill="#31313D" d="M129.637,54.067C106.221,38.41,103,15.336,103,15.184V15h-7.05l0.567,119.169
	c-5.449-5.188-13.446-8.487-22.366-8.487c-16.418,0-29.726,11.086-29.726,24.772s13.308,24.873,29.726,24.873
	c16.274,0,29.487-10.327,29.717-24.327H104v-0.518c0-0.013,0-0.025,0-0.039c0-0.016,0-0.033,0-0.049l-0.467-111.212
	c3.799,6.022,10.513,13.146,22.74,22.294c24.207,18.108,6.756,36.937,6.756,36.937C148.388,90.979,152.238,69.18,129.637,54.067z"/>
</svg>
