<?xml version="1.0" encoding="utf-8"?>
<!-- Generator: Adobe Illustrator 16.0.0, SVG Export Plug-In . SVG Version: 6.00 Build 0)  -->
<!DOCTYPE svg PUBLIC "-//W3C//DTD SVG 1.1//EN" "http://www.w3.org/Graphics/SVG/1.1/DTD/svg11.dtd">
<svg version="1.1" id="Layer_1" xmlns="http://www.w3.org/2000/svg" xmlns:xlink="http://www.w3.org/1999/xlink" x="0px" y="0px"
	 width="190px" height="190px" viewBox="0 0 190 190" enable-background="new 0 0 190 190" xml:space="preserve">
<path fill="#31313D" d="M127.42,35.474c-0.168,0.175-13.728,13.917-35.904,21.747c0.822-2.476,1.282-5.115,1.282-7.867
	c0-13.81-11.194-25.005-25.006-25.005S42.787,35.544,42.787,49.354c0,0.953,0.064,1.89,0.168,2.815
	c0.004,3.789,0.842,7.55,2.578,10.942c2.274,4.455,9.589,14.551,28.315,12.225c19.083-2.387,34.672-9.736,45.611-16.617
	L84.694,170.983L97.67,175l49.543-160L127.42,35.474z"/>
</svg>
