<?xml version="1.0" encoding="utf-8"?>
<!-- Generator: Adobe Illustrator 16.0.0, SVG Export Plug-In . SVG Version: 6.00 Build 0)  -->
<!DOCTYPE svg PUBLIC "-//W3C//DTD SVG 1.1//EN" "http://www.w3.org/Graphics/SVG/1.1/DTD/svg11.dtd">
<svg version="1.1" id="Layer_1" xmlns="http://www.w3.org/2000/svg" xmlns:xlink="http://www.w3.org/1999/xlink" x="0px" y="0px"
	 width="190px" height="190px" viewBox="0 0 190 190" enable-background="new 0 0 190 190" xml:space="preserve">
<path fill="#31313D" d="M124,150.452c0-0.013,0-0.025,0-0.039c0-0.016,0.36,0.005,0.36-0.01L124.228,15h-7.429l0.567,119.142
	c-5.449-5.188-13.442-8.484-22.361-8.484c-16.415,0-29.72,11.082-29.72,24.766s13.305,24.884,29.72,24.884
	c16.269,0,29.479-10.307,29.709-24.307H124V150.452z M95.005,167.229c-11.998,0-21.76-7.545-21.76-16.816
	c0-9.273,9.762-16.815,21.76-16.815c12,0,21.759,7.542,21.759,16.815C116.765,159.685,107.005,167.229,95.005,167.229z"/>
</svg>
