<?xml version="1.0" encoding="utf-8"?>
<!-- Generator: Adobe Illustrator 16.0.0, SVG Export Plug-In . SVG Version: 6.00 Build 0)  -->
<!DOCTYPE svg PUBLIC "-//W3C//DTD SVG 1.1//EN" "http://www.w3.org/Graphics/SVG/1.1/DTD/svg11.dtd">
<svg version="1.1" id="Layer_1" xmlns="http://www.w3.org/2000/svg" xmlns:xlink="http://www.w3.org/1999/xlink" x="0px" y="0px"
	 width="190px" height="190px" viewBox="0 0 190 190" enable-background="new 0 0 190 190" xml:space="preserve">
<path fill="#31313D" d="M129.63,54.077C106.22,38.424,103,15.355,103,15.203V15h-7.053l0.567,119.149
	c-5.448-5.188-13.443-8.479-22.36-8.479c-16.416,0-29.72,11.085-29.72,24.769c0,13.683,13.304,24.876,29.72,24.876
	c16.269,0,29.478-10.314,29.709-24.314H103v-0.53c0-0.014,0-0.026,0-0.039c0-0.016,0-0.034,0-0.05l0.149-78.301
	c3.822,5.979,10.771,13.048,22.866,22.097c24.2,18.103,6.973,36.924,6.973,36.924c12.867-6.226,17.684-22.534,5.628-36.549
	C148.882,85.072,149.103,67.097,129.63,54.077z M129.817,86.77c-21.003-14.046-25.581-34.051-26.317-38.127l-0.033-9.446
	c3.798,6.021,10.54,13.144,22.768,22.288c15.86,11.865,13.878,24.038,10.631,31.02C134.883,90.52,132.549,88.594,129.817,86.77z"/>
</svg>
