<?xml version="1.0" encoding="UTF-8" standalone="no"?>
<!-- Created with Inkscape (http://www.inkscape.org/) -->
<svg
   xmlns:svg="http://www.w3.org/2000/svg"
   xmlns="http://www.w3.org/2000/svg"
   version="1.0"
   width="310.99765"
   height="142.41167"
   id="svg5910">
  <defs
     id="defs5912">
    <marker
       markerUnits="strokeWidth"
       refX="0"
       refY="5"
       markerWidth="4"
       markerHeight="3"
       orient="auto"
       viewBox="0 0 10 10"
       id="ArrowEnd">
      <path
         d="M 0,0 L 10,5 L 0,10 L 0,0 z "
         id="path5915" />
    </marker>
    <marker
       markerUnits="strokeWidth"
       refX="10"
       refY="5"
       markerWidth="4"
       markerHeight="3"
       orient="auto"
       viewBox="0 0 10 10"
       id="ArrowStart">
      <path
         d="M 10,0 L 0,5 L 10,10 L 10,0 z "
         id="path5918" />
    </marker>
  </defs>
  <g
     transform="matrix(1.426236,0,0,1.426236,0,-6.506133e-6)"
     id="g5920">
    <path
       d="M 217.065,69.5258 L 218.011,69.5258 L 218.011,30.1738 L 217.065,30.1738 L 217.065,69.5258 z "
       style="fill:none;stroke:black;stroke-width:0.07011463;stroke-linejoin:round"
       id="path5922" />
    <path
       d="M 217.065,69.5258 L 218.011,69.5258 L 218.011,30.1738 L 217.065,30.1738 L 217.065,69.5258 z "
       style="fill:black;fill-rule:evenodd;stroke:none"
       id="path5924" />
    <path
       d="M 217.065,89.9498 L 218.011,89.9498 L 218.011,69.5267 L 217.065,69.5267 L 217.065,89.9498 z "
       style="fill:none;stroke:black;stroke-width:0.07011463;stroke-linejoin:round"
       id="path5926" />
    <path
       d="M 217.065,89.9498 L 218.011,89.9498 L 218.011,69.5267 L 217.065,69.5267 L 217.065,89.9498 z "
       style="fill:black;fill-rule:evenodd;stroke:none"
       id="path5928" />
    <path
       d="M 217.065,30.1718 L 218.011,30.1718 L 218.011,9.74878 L 217.065,9.74878 L 217.065,30.1718 z "
       style="fill:none;stroke:black;stroke-width:0.07011463;stroke-linejoin:round"
       id="path5930" />
    <path
       d="M 217.065,30.1718 L 218.011,30.1718 L 218.011,9.74878 L 217.065,9.74878 L 217.065,30.1718 z "
       style="fill:black;fill-rule:evenodd;stroke:none"
       id="path5932" />
    <path
       d="M 217.065,69.5258 L 218.011,69.5258 L 218.011,30.1738 L 217.065,30.1738 L 217.065,69.5258 z "
       style="fill:none;stroke:black;stroke-width:0.07011463;stroke-linejoin:round"
       id="path5934" />
    <path
       d="M 217.065,69.5258 L 218.011,69.5258 L 218.011,30.1738 L 217.065,30.1738 L 217.065,69.5258 z "
       style="fill:black;fill-rule:evenodd;stroke:none"
       id="path5936" />
    <path
       d="M 217.065,89.9498 L 218.011,89.9498 L 218.011,69.5267 L 217.065,69.5267 L 217.065,89.9498 z "
       style="fill:none;stroke:black;stroke-width:0.07011463;stroke-linejoin:round"
       id="path5938" />
    <path
       d="M 217.065,89.9498 L 218.011,89.9498 L 218.011,69.5267 L 217.065,69.5267 L 217.065,89.9498 z "
       style="fill:black;fill-rule:evenodd;stroke:none"
       id="path5940" />
    <path
       d="M 217.065,30.1718 L 218.011,30.1718 L 218.011,9.74878 L 217.065,9.74878 L 217.065,30.1718 z "
       style="fill:none;stroke:black;stroke-width:0.07011463;stroke-linejoin:round"
       id="path5942" />
    <path
       d="M 217.065,30.1718 L 218.011,30.1718 L 218.011,9.74878 L 217.065,9.74878 L 217.065,30.1718 z "
       style="fill:black;fill-rule:evenodd;stroke:none"
       id="path5944" />
    <path
       d="M 153.142,69.5258 L 154.088,69.5258 L 154.088,30.1738 L 153.142,30.1738 L 153.142,69.5258 z "
       style="fill:none;stroke:black;stroke-width:0.07011463;stroke-linejoin:round"
       id="path5946" />
    <path
       d="M 153.142,69.5258 L 154.088,69.5258 L 154.088,30.1738 L 153.142,30.1738 L 153.142,69.5258 z "
       style="fill:black;fill-rule:evenodd;stroke:none"
       id="path5948" />
    <path
       d="M 153.142,89.9498 L 154.088,89.9498 L 154.088,69.5267 L 153.142,69.5267 L 153.142,89.9498 z "
       style="fill:none;stroke:black;stroke-width:0.07011463;stroke-linejoin:round"
       id="path5950" />
    <path
       d="M 153.142,89.9498 L 154.088,89.9498 L 154.088,69.5267 L 153.142,69.5267 L 153.142,89.9498 z "
       style="fill:black;fill-rule:evenodd;stroke:none"
       id="path5952" />
    <path
       d="M 153.142,30.1718 L 154.088,30.1718 L 154.088,9.74878 L 153.142,9.74878 L 153.142,30.1718 z "
       style="fill:none;stroke:black;stroke-width:0.07011463;stroke-linejoin:round"
       id="path5954" />
    <path
       d="M 153.142,30.1718 L 154.088,30.1718 L 154.088,9.74878 L 153.142,9.74878 L 153.142,30.1718 z "
       style="fill:black;fill-rule:evenodd;stroke:none"
       id="path5956" />
    <path
       d="M 7.705,89.6978 L 217.762,89.6978"
       style="fill:none;stroke:black;stroke-width:0.3492634;stroke-linecap:round;stroke-linejoin:round"
       id="path5958" />
    <path
       d="M 7.705,84.7178 L 217.762,84.7178"
       style="fill:none;stroke:black;stroke-width:0.3492634;stroke-linecap:round;stroke-linejoin:round"
       id="path5960" />
    <path
       d="M 7.705,79.7377 L 217.762,79.7377"
       style="fill:none;stroke:black;stroke-width:0.3492634;stroke-linecap:round;stroke-linejoin:round"
       id="path5962" />
    <path
       d="M 7.705,74.7578 L 217.762,74.7578"
       style="fill:none;stroke:black;stroke-width:0.3492634;stroke-linecap:round;stroke-linejoin:round"
       id="path5964" />
    <path
       d="M 7.705,69.7778 L 217.762,69.7778"
       style="fill:none;stroke:black;stroke-width:0.3492634;stroke-linecap:round;stroke-linejoin:round"
       id="path5966" />
    <path
       d="M 7.705,29.9257 L 217.762,29.9257"
       style="fill:none;stroke:black;stroke-width:0.3492634;stroke-linecap:round;stroke-linejoin:round"
       id="path5968" />
    <path
       d="M 7.705,24.9457 L 217.762,24.9457"
       style="fill:none;stroke:black;stroke-width:0.3492634;stroke-linecap:round;stroke-linejoin:round"
       id="path5970" />
    <path
       d="M 7.705,19.9598 L 217.762,19.9598"
       style="fill:none;stroke:black;stroke-width:0.3492634;stroke-linecap:round;stroke-linejoin:round"
       id="path5972" />
    <path
       d="M 7.705,14.9797 L 217.762,14.9797"
       style="fill:none;stroke:black;stroke-width:0.3492634;stroke-linecap:round;stroke-linejoin:round"
       id="path5974" />
    <path
       d="M 7.705,9.99976 L 217.762,9.99976"
       style="fill:none;stroke:black;stroke-width:0.3492634;stroke-linecap:round;stroke-linejoin:round"
       id="path5976" />
    <path
       d="M 29.251,75.4688 C 29.191,75.4888 29.112,75.5287 29.052,75.5488 L 28.952,75.5887 L 28.952,76.0668 C 28.972,76.3458 29.032,79.0157 29.091,82.0248 C 29.191,88.0018 29.191,87.6238 29.31,87.7628 C 29.39,87.8627 29.549,87.9418 29.669,87.9418 C 29.7689,87.9418 29.9279,87.8818 30.0279,87.7828 C 30.0679,87.7628 30.1669,87.6238 30.2669,87.5037 C 30.5059,87.2048 30.6059,87.1058 31.5029,86.4478 C 32.1409,85.9897 32.3989,85.7698 32.6779,85.4907 C 32.9569,85.2117 33.1369,84.9728 33.2758,84.6937 C 33.5348,84.1357 33.5348,83.4578 33.2559,82.8408 C 33.1559,82.6218 33.0369,82.4617 32.8579,82.2828 C 32.4989,81.9238 32.1009,81.7648 31.5829,81.7847 C 31.0049,81.8248 30.4269,82.0438 30.0089,82.3828 L 29.9089,82.4628 L 29.9089,81.9847 C 29.9289,81.2468 30.0479,75.6088 30.0479,75.5887 C 30.0479,75.5887 30.0079,75.5687 29.9479,75.5488 C 29.7689,75.4487 29.4699,75.4288 29.2509,75.4688 L 29.251,75.4688 z M 31.403,82.7007 C 31.622,82.8207 31.782,83.0397 31.881,83.4177 C 31.9209,83.5767 31.9209,83.6378 31.9209,83.9357 C 31.9209,84.2147 31.9209,84.2947 31.881,84.4338 C 31.801,84.7927 31.582,85.1907 31.323,85.5297 C 31.144,85.7687 30.705,86.2078 30.386,86.4868 L 30.127,86.7057 L 30.107,86.5668 C 30.047,86.1088 30.047,85.6097 30.047,84.7338 C 30.067,84.2158 30.087,83.7578 30.087,83.6777 C 30.147,83.2388 30.386,82.8807 30.705,82.7208 C 30.864,82.6407 30.944,82.6207 31.123,82.6207 C 31.243,82.6407 31.302,82.6407 31.402,82.7007 L 31.403,82.7007 z "
       style="fill:black;fill-rule:evenodd;stroke:none"
       id="path5978" />
    <path
       d="M 33.851,68.0687 C 33.791,68.0887 33.712,68.1287 33.652,68.1487 L 33.552,68.1887 L 33.552,68.6667 C 33.572,68.9457 33.632,71.6157 33.691,74.6248 C 33.791,80.6017 33.791,80.2238 33.91,80.3627 C 33.99,80.4628 34.149,80.5417 34.269,80.5417 C 34.369,80.5417 34.528,80.4818 34.628,80.3828 C 34.6679,80.3627 34.7669,80.2238 34.8669,80.1038 C 35.1059,79.8047 35.2059,79.7057 36.1029,79.0477 C 36.741,78.5897 36.999,78.3698 37.278,78.0908 C 37.557,77.8118 37.737,77.5728 37.876,77.2938 C 38.135,76.7358 38.135,76.0577 37.856,75.4407 C 37.756,75.2217 37.637,75.0618 37.458,74.8828 C 37.099,74.5237 36.701,74.3647 36.1829,74.3848 C 35.6049,74.4247 35.0269,74.6437 34.6089,74.9827 L 34.5089,75.0627 L 34.5089,74.5848 C 34.5289,73.8467 34.6479,68.2087 34.6479,68.1887 C 34.6479,68.1887 34.6079,68.1688 34.5479,68.1487 C 34.369,68.0488 34.07,68.0287 33.851,68.0687 z M 36.003,75.3007 C 36.222,75.4208 36.382,75.6398 36.481,76.0178 C 36.521,76.1768 36.521,76.2377 36.521,76.5358 C 36.521,76.8148 36.521,76.8948 36.481,77.0338 C 36.401,77.3928 36.182,77.7908 35.923,78.1298 C 35.744,78.3688 35.305,78.8077 34.986,79.0867 L 34.727,79.3057 L 34.7071,79.1667 C 34.6471,78.7087 34.6471,78.2098 34.6471,77.3337 C 34.667,76.8157 34.687,76.3577 34.687,76.2778 C 34.747,75.8387 34.986,75.4808 35.305,75.3207 C 35.464,75.2407 35.544,75.2208 35.723,75.2208 C 35.843,75.2407 35.902,75.2407 36.002,75.3007 L 36.003,75.3007 z "
       style="fill:black;fill-rule:evenodd;stroke:none"
       id="path5980" />
    <path
       d="M 38.351,77.9688 C 38.291,77.9888 38.212,78.0287 38.152,78.0488 L 38.052,78.0887 L 38.052,78.5668 C 38.072,78.8458 38.132,81.5157 38.191,84.5248 C 38.291,90.5018 38.291,90.1238 38.41,90.2628 C 38.49,90.3627 38.649,90.4418 38.769,90.4418 C 38.869,90.4418 39.028,90.3818 39.128,90.2828 C 39.168,90.2628 39.267,90.1238 39.367,90.0037 C 39.606,89.7048 39.706,89.6058 40.603,88.9478 C 41.241,88.4897 41.499,88.2698 41.778,87.9907 C 42.057,87.7117 42.237,87.4728 42.376,87.1937 C 42.635,86.6357 42.635,85.9578 42.356,85.3408 C 42.256,85.1218 42.137,84.9617 41.958,84.7828 C 41.599,84.4238 41.201,84.2648 40.683,84.2847 C 40.105,84.3248 39.527,84.5438 39.109,84.8828 L 39.009,84.9628 L 39.009,84.4847 C 39.029,83.7468 39.148,78.1088 39.148,78.0887 C 39.148,78.0887 39.108,78.0687 39.048,78.0488 C 38.869,77.9487 38.57,77.9288 38.351,77.9688 z M 40.503,85.2007 C 40.722,85.3207 40.882,85.5397 40.981,85.9177 C 41.021,86.0767 41.021,86.1378 41.021,86.4357 C 41.021,86.7147 41.021,86.7947 40.981,86.9338 C 40.901,87.2927 40.682,87.6907 40.423,88.0297 C 40.244,88.2687 39.805,88.7078 39.486,88.9868 L 39.227,89.2057 L 39.207,89.0668 C 39.147,88.6088 39.147,88.1097 39.147,87.2338 C 39.167,86.7158 39.187,86.2578 39.187,86.1777 C 39.247,85.7388 39.486,85.3807 39.805,85.2208 C 39.964,85.1407 40.044,85.1207 40.223,85.1207 C 40.343,85.1407 40.402,85.1407 40.502,85.2007 L 40.503,85.2007 z "
       style="fill:black;fill-rule:evenodd;stroke:none"
       id="path5982" />
    <path
       d="M 42.951,70.4688 C 42.891,70.4888 42.812,70.5287 42.752,70.5488 L 42.652,70.5887 L 42.652,71.0668 C 42.672,71.3458 42.732,74.0157 42.791,77.0248 C 42.891,83.0018 42.891,82.6238 43.01,82.7628 C 43.09,82.8627 43.249,82.9418 43.369,82.9418 C 43.469,82.9418 43.628,82.8818 43.728,82.7828 C 43.768,82.7628 43.867,82.6238 43.967,82.5037 C 44.206,82.2048 44.306,82.1058 45.203,81.4478 C 45.841,80.9897 46.099,80.7698 46.378,80.4907 C 46.657,80.2117 46.837,79.9728 46.976,79.6937 C 47.235,79.1357 47.235,78.4578 46.956,77.8408 C 46.856,77.6218 46.737,77.4617 46.558,77.2828 C 46.199,76.9238 45.801,76.7648 45.283,76.7847 C 44.705,76.8248 44.127,77.0438 43.709,77.3828 L 43.609,77.4628 L 43.609,76.9847 C 43.629,76.2468 43.748,70.6088 43.748,70.5887 C 43.748,70.5887 43.708,70.5687 43.648,70.5488 C 43.469,70.4487 43.17,70.4288 42.951,70.4688 z M 45.103,77.7007 C 45.322,77.8207 45.482,78.0397 45.581,78.4177 C 45.621,78.5767 45.621,78.6378 45.621,78.9357 C 45.621,79.2147 45.621,79.2947 45.581,79.4338 C 45.501,79.7927 45.282,80.1907 45.023,80.5297 C 44.844,80.7687 44.405,81.2078 44.086,81.4868 L 43.827,81.7057 L 43.807,81.5668 C 43.747,81.1088 43.747,80.6097 43.747,79.7338 C 43.767,79.2158 43.787,78.7578 43.787,78.6777 C 43.847,78.2388 44.086,77.8807 44.405,77.7208 C 44.564,77.6407 44.644,77.6207 44.823,77.6207 C 44.943,77.6407 45.002,77.6407 45.102,77.7007 L 45.103,77.7007 z "
       style="fill:black;fill-rule:evenodd;stroke:none"
       id="path5984" />
    <path
       d="M 15.654,69.5737 C 14.12,69.7327 12.725,70.7288 12.008,72.1838 C 11.689,72.8408 11.53,73.4988 11.49,74.2158 C 11.49,74.5547 11.51,74.7537 11.59,74.9927 C 11.869,75.9297 12.845,76.5867 13.842,76.5267 C 14.798,76.4667 15.556,75.6898 15.695,74.6738 C 15.755,74.3148 15.675,73.8768 15.516,73.5577 C 15.098,72.6807 14.061,72.2228 13.205,72.5217 L 13.046,72.5817 L 13.086,72.4617 C 13.544,71.2657 14.401,70.3898 15.397,70.1307 C 16.353,69.8917 17.31,70.1508 18.047,70.8278 C 19.342,72.0637 19.84,74.5538 19.2019,76.7457 C 19.063,77.1838 18.943,77.5228 18.704,77.9808 C 18.226,78.9578 17.628,79.7537 16.711,80.6907 C 15.496,81.8857 13.922,83.0417 11.69,84.3568 C 11.272,84.6157 11.232,84.6558 11.232,84.7748 C 11.232,84.8948 11.352,85.0137 11.491,85.0137 C 11.511,85.0137 11.571,84.9938 11.611,84.9738 C 11.651,84.9537 11.85,84.8538 12.049,84.7737 C 16.333,82.9208 19.0229,81.0677 20.557,78.8958 C 21.4729,77.5807 21.9519,76.0867 21.9519,74.5518 C 21.9519,71.8417 20.2779,70.0488 17.3889,69.6498 C 16.791,69.5497 16.094,69.5297 15.6549,69.5698 L 15.654,69.5737 z M 23.365,71.3267 C 23.006,71.4067 22.708,71.7057 22.628,72.0637 C 22.489,72.6218 22.827,73.1797 23.365,73.2988 C 24.1219,73.4777 24.78,72.8207 24.6009,72.0637 C 24.481,71.5258 23.924,71.1868 23.365,71.3257 L 23.365,71.3267 z M 23.365,76.2888 C 23.006,76.3688 22.708,76.6677 22.628,77.0258 C 22.489,77.5837 22.827,78.1417 23.365,78.2618 C 24.1219,78.4407 24.78,77.7828 24.6009,77.0258 C 24.481,76.4877 23.924,76.1487 23.365,76.2888 z "
       style="fill:black;fill-rule:evenodd;stroke:none"
       id="path5986" />
    <path
       d="M 29.251,10.7687 C 29.191,10.7888 29.112,10.8287 29.052,10.8488 L 28.952,10.8887 L 28.952,11.3668 C 28.972,11.6458 29.032,14.3157 29.091,17.3248 C 29.191,23.3018 29.191,22.9238 29.31,23.0627 C 29.39,23.1627 29.549,23.2418 29.669,23.2418 C 29.7689,23.2418 29.9279,23.1818 30.0279,23.0828 C 30.0679,23.0627 30.1669,22.9238 30.2669,22.8038 C 30.5059,22.5048 30.6059,22.4058 31.5029,21.7477 C 32.1409,21.2897 32.3989,21.0698 32.6779,20.7908 C 32.9569,20.5118 33.1369,20.2728 33.2758,19.9938 C 33.5348,19.4357 33.5348,18.7578 33.2559,18.1407 C 33.1559,17.9218 33.0369,17.7618 32.8579,17.5828 C 32.4989,17.2238 32.1009,17.0648 31.5829,17.0848 C 31.0049,17.1248 30.4269,17.3438 30.0089,17.6827 L 29.9089,17.7628 L 29.9089,17.2847 C 29.9289,16.5468 30.0479,10.9088 30.0479,10.8887 C 30.0479,10.8887 30.0079,10.8688 29.9479,10.8488 C 29.7689,10.7488 29.4699,10.7288 29.2509,10.7687 L 29.251,10.7687 z M 31.403,18.0007 C 31.622,18.1207 31.782,18.3397 31.881,18.7178 C 31.9209,18.8768 31.9209,18.9377 31.9209,19.2358 C 31.9209,19.5148 31.9209,19.5947 31.881,19.7338 C 31.801,20.0928 31.582,20.4907 31.323,20.8298 C 31.144,21.0687 30.705,21.5078 30.386,21.7867 L 30.127,22.0057 L 30.107,21.8668 C 30.047,21.4088 30.047,20.9097 30.047,20.0338 C 30.067,19.5157 30.087,19.0577 30.087,18.9777 C 30.147,18.5388 30.386,18.1807 30.705,18.0208 C 30.864,17.9407 30.944,17.9208 31.123,17.9208 C 31.243,17.9407 31.302,17.9407 31.402,18.0007 L 31.403,18.0007 z "
       style="fill:black;fill-rule:evenodd;stroke:none"
       id="path5988" />
    <path
       d="M 33.851,3.26874 C 33.791,3.28876 33.712,3.32874 33.652,3.34875 L 33.552,3.38873 L 33.552,3.86676 C 33.572,4.14575 33.632,6.81573 33.691,9.82477 C 33.791,15.8018 33.791,15.4238 33.91,15.5627 C 33.99,15.6627 34.149,15.7418 34.269,15.7418 C 34.369,15.7418 34.528,15.6818 34.628,15.5828 C 34.6679,15.5627 34.7669,15.4238 34.8669,15.3038 C 35.1059,15.0048 35.2059,14.9058 36.1029,14.2477 C 36.741,13.7897 36.999,13.5698 37.278,13.2908 C 37.557,13.0118 37.737,12.7728 37.876,12.4938 C 38.135,11.9357 38.135,11.2578 37.856,10.6407 C 37.756,10.4218 37.637,10.2618 37.458,10.0828 C 37.099,9.72375 36.701,9.56476 36.1829,9.58478 C 35.6049,9.62476 35.0269,9.84375 34.6089,10.1827 L 34.5089,10.2628 L 34.5089,9.78473 C 34.5289,9.04675 34.6479,3.40875 34.6479,3.38873 C 34.6479,3.38873 34.6079,3.36877 34.5479,3.34875 C 34.369,3.24878 34.07,3.22876 33.851,3.26874 z M 36.003,10.5007 C 36.222,10.6207 36.382,10.8397 36.481,11.2178 C 36.521,11.3768 36.521,11.4377 36.521,11.7358 C 36.521,12.0148 36.521,12.0947 36.481,12.2338 C 36.401,12.5928 36.182,12.9907 35.923,13.3298 C 35.744,13.5687 35.305,14.0078 34.986,14.2867 L 34.727,14.5057 L 34.7071,14.3668 C 34.6471,13.9088 34.6471,13.4097 34.6471,12.5338 C 34.667,12.0157 34.687,11.5577 34.687,11.4777 C 34.747,11.0388 34.986,10.6807 35.305,10.5208 C 35.464,10.4407 35.544,10.4208 35.723,10.4208 C 35.843,10.4407 35.902,10.4407 36.002,10.5007 L 36.003,10.5007 z "
       style="fill:black;fill-rule:evenodd;stroke:none"
       id="path5990" />
    <path
       d="M 38.351,13.2687 C 38.291,13.2888 38.212,13.3287 38.152,13.3488 L 38.052,13.3887 L 38.052,13.8668 C 38.072,14.1458 38.132,16.8157 38.191,19.8248 C 38.291,25.8018 38.291,25.4238 38.41,25.5627 C 38.49,25.6627 38.649,25.7418 38.769,25.7418 C 38.869,25.7418 39.028,25.6818 39.128,25.5828 C 39.168,25.5627 39.267,25.4238 39.367,25.3038 C 39.606,25.0048 39.706,24.9058 40.603,24.2477 C 41.241,23.7897 41.499,23.5698 41.778,23.2908 C 42.057,23.0118 42.237,22.7728 42.376,22.4938 C 42.635,21.9357 42.635,21.2578 42.356,20.6407 C 42.256,20.4218 42.137,20.2618 41.958,20.0828 C 41.599,19.7238 41.201,19.5648 40.683,19.5848 C 40.105,19.6248 39.527,19.8438 39.109,20.1827 L 39.009,20.2628 L 39.009,19.7847 C 39.029,19.0468 39.148,13.4088 39.148,13.3887 C 39.148,13.3887 39.108,13.3688 39.048,13.3488 C 38.869,13.2488 38.57,13.2288 38.351,13.2687 z M 40.503,20.5007 C 40.722,20.6207 40.882,20.8397 40.981,21.2178 C 41.021,21.3768 41.021,21.4377 41.021,21.7358 C 41.021,22.0148 41.021,22.0947 40.981,22.2338 C 40.901,22.5928 40.682,22.9907 40.423,23.3298 C 40.244,23.5687 39.805,24.0078 39.486,24.2867 L 39.227,24.5057 L 39.207,24.3668 C 39.147,23.9088 39.147,23.4097 39.147,22.5338 C 39.167,22.0157 39.187,21.5577 39.187,21.4777 C 39.247,21.0388 39.486,20.6807 39.805,20.5208 C 39.964,20.4407 40.044,20.4208 40.223,20.4208 C 40.343,20.4407 40.402,20.4407 40.502,20.5007 L 40.503,20.5007 z "
       style="fill:black;fill-rule:evenodd;stroke:none"
       id="path5992" />
    <path
       d="M 42.951,5.76874 C 42.891,5.78876 42.812,5.82874 42.752,5.84875 L 42.652,5.88873 L 42.652,6.36676 C 42.672,6.64575 42.732,9.31573 42.791,12.3248 C 42.891,18.3018 42.891,17.9238 43.01,18.0627 C 43.09,18.1627 43.249,18.2418 43.369,18.2418 C 43.469,18.2418 43.628,18.1818 43.728,18.0828 C 43.768,18.0627 43.867,17.9238 43.967,17.8038 C 44.206,17.5048 44.306,17.4058 45.203,16.7477 C 45.841,16.2897 46.099,16.0698 46.378,15.7908 C 46.657,15.5118 46.837,15.2728 46.976,14.9938 C 47.235,14.4357 47.235,13.7578 46.956,13.1407 C 46.856,12.9218 46.737,12.7618 46.558,12.5828 C 46.199,12.2238 45.801,12.0648 45.283,12.0848 C 44.705,12.1248 44.127,12.3438 43.709,12.6827 L 43.609,12.7628 L 43.609,12.2847 C 43.629,11.5468 43.748,5.90875 43.748,5.88873 C 43.748,5.88873 43.708,5.86877 43.648,5.84875 C 43.469,5.74878 43.17,5.72876 42.951,5.76874 z M 45.103,13.0007 C 45.322,13.1207 45.482,13.3397 45.581,13.7178 C 45.621,13.8768 45.621,13.9377 45.621,14.2358 C 45.621,14.5148 45.621,14.5947 45.581,14.7338 C 45.501,15.0928 45.282,15.4907 45.023,15.8298 C 44.844,16.0687 44.405,16.5078 44.086,16.7867 L 43.827,17.0057 L 43.807,16.8668 C 43.747,16.4088 43.747,15.9097 43.747,15.0338 C 43.767,14.5157 43.787,14.0577 43.787,13.9777 C 43.847,13.5388 44.086,13.1807 44.405,13.0208 C 44.564,12.9407 44.644,12.9208 44.823,12.9208 C 44.943,12.9407 45.002,12.9407 45.102,13.0007 L 45.103,13.0007 z "
       style="fill:black;fill-rule:evenodd;stroke:none"
       id="path5994" />
    <path
       d="M 17.786,0.0467529 C 17.746,0.0667725 17.607,0.20575 17.467,0.345764 C 16.032,1.76074 15.156,3.55377 14.937,5.54578 C 14.897,5.88477 14.897,6.70172 14.917,7.23975 C 14.997,9.25177 15.315,10.7667 16.132,13.3367 L 16.232,13.6957 L 15.654,14.4327 C 13.781,16.8038 13.064,17.8597 12.446,19.1348 C 11.828,20.4097 11.53,21.5657 11.49,22.8408 C 11.43,25.1718 12.466,27.3638 14.319,28.7388 C 15.833,29.8748 17.667,30.3328 19.639,30.0538 C 19.798,30.0338 19.938,30.0137 19.938,30.0338 L 19.938,31.0107 C 19.938,33.2427 19.799,34.1788 19.32,35.1558 C 19.021,35.7737 18.662,36.2318 18.224,36.5507 C 17.726,36.9297 17.228,37.0887 16.61,37.0887 C 15.9131,37.0887 15.295,36.8898 14.737,36.4708 C 14.5581,36.3508 14.2591,36.0527 14.1391,35.8727 L 14.0391,35.7527 L 14.1191,35.7927 C 14.796,36.0317 15.6731,35.7327 16.132,35.1157 C 16.511,34.6177 16.61,33.9998 16.411,33.3428 C 16.1721,32.5057 15.515,31.9478 14.6971,31.9078 C 13.9201,31.8878 13.1231,32.2667 12.7051,32.9238 C 12.3861,33.4218 12.3061,34.0198 12.4851,34.7968 C 12.7051,35.8328 13.3821,36.7498 14.3381,37.3077 C 14.9561,37.6868 15.6931,37.9058 16.43,37.9448 C 17.745,37.9847 18.901,37.3668 19.738,36.1318 C 20.296,35.2947 20.615,34.3387 20.694,33.1627 C 20.774,32.3857 20.774,32.0468 20.794,30.9307 L 20.794,29.7947 L 20.993,29.7147 C 21.81,29.3958 22.507,28.8777 23.105,28.1407 C 24.121,26.8857 24.46,25.2318 24.042,23.6177 C 23.663,22.1238 22.667,20.8478 21.332,20.1907 C 20.695,19.8718 20.077,19.7128 19.34,19.6727 L 19.001,19.6528 L 18.921,19.3137 C 18.682,18.4567 18.224,16.9818 17.766,15.5677 L 17.6661,15.2888 L 18.0051,14.8298 C 19.42,13.0167 20.197,11.6818 20.695,10.3467 C 21.153,9.09174 21.313,7.77673 21.153,6.58075 C 20.874,4.40875 19.659,1.71875 18.3041,0.264771 C 18.0651,0.0057373 17.9451,-0.0542603 17.7861,0.0457764 L 17.786,0.0467529 z M 19.022,2.93573 C 19.062,2.99573 19.3809,3.63275 19.481,3.85272 C 19.581,4.13177 19.68,4.52972 19.74,4.84875 C 19.7799,5.18774 19.7799,6.30377 19.74,6.64172 C 19.521,8.51477 18.823,10.1487 17.309,12.2607 C 17.17,12.4598 17.03,12.6597 16.97,12.7397 L 16.87,12.8597 L 16.81,12.6407 C 16.451,11.5248 16.093,10.1097 15.973,9.29272 C 15.913,8.89478 15.913,8.13776 15.953,7.73877 C 16.132,6.42377 16.591,5.32776 17.408,4.31177 C 17.607,4.05273 18.085,3.57373 18.344,3.37476 C 18.5429,3.21576 18.9619,2.91675 18.982,2.91675 C 18.982,2.91675 19.0019,2.93677 19.0219,2.93677 L 19.022,2.93573 z M 17.249,16.7438 C 17.707,18.1588 18.145,19.6927 18.126,19.7128 C 18.126,19.7128 18.026,19.7527 17.947,19.7527 C 17.688,19.8127 17.25,19.9517 17.01,20.0718 C 16.572,20.2908 16.233,20.5098 15.894,20.8488 C 14.858,21.9047 14.4791,23.4788 14.9381,24.8937 C 15.117,25.4918 15.4561,26.0297 15.914,26.4877 C 16.273,26.8467 16.631,27.1058 17.13,27.3447 C 17.369,27.4647 17.409,27.4647 17.528,27.4647 C 17.648,27.4647 17.667,27.4647 17.747,27.4047 C 17.867,27.3248 17.946,27.1658 17.946,27.0258 C 17.926,26.8467 17.866,26.7867 17.607,26.6277 C 16.3711,25.9297 15.774,24.7748 16.112,23.6188 C 16.351,22.7618 17.089,22.1248 18.105,21.9058 C 18.304,21.8458 18.683,21.8057 18.703,21.8257 C 18.703,21.8257 18.783,22.1047 18.902,22.6627 C 19.281,24.2167 19.54,25.6718 19.699,27.0668 C 19.819,27.9437 19.918,29.1188 19.8779,29.1588 C 19.858,29.1788 19.46,29.2388 19.081,29.2587 C 17.846,29.3387 16.79,29.1387 15.734,28.6017 C 15.136,28.3027 14.658,27.9437 14.2,27.5057 C 13.463,26.7488 13.045,25.9117 12.945,24.9758 C 12.905,24.7167 12.925,24.1188 12.965,23.7397 C 13.184,21.9667 13.9009,20.3127 15.396,18.2407 C 15.8139,17.6428 16.9899,16.1088 17.0299,16.1088 L 17.249,16.7438 z M 19.938,21.9247 C 21.472,22.2637 22.608,23.4988 22.887,25.0928 C 22.9069,25.2318 22.9069,25.3917 22.9069,25.6907 C 22.9069,26.0497 22.9069,26.1298 22.867,26.3488 C 22.827,26.5078 22.787,26.7078 22.747,26.7867 C 22.508,27.4838 21.99,28.1818 21.392,28.5798 C 21.173,28.7388 20.755,28.9387 20.735,28.9188 C 20.735,28.8987 20.715,28.7797 20.715,28.6597 C 20.655,27.8828 20.476,26.3887 20.297,25.3317 C 20.138,24.3358 19.799,22.6417 19.62,21.9448 L 19.5801,21.8447 L 19.64,21.8647 C 19.68,21.8647 19.799,21.8848 19.939,21.9247 L 19.938,21.9247 z "
       style="fill:black;fill-rule:evenodd;stroke:none"
       id="path5996" />
    <path
       d="M 186.903,94.4797 L 187.152,94.4797 L 187.152,78.7457 L 186.903,78.7457 L 186.903,94.4797 z "
       style="fill:none;stroke:black;stroke-width:0.27941102;stroke-linejoin:round"
       id="path5998" />
    <path
       d="M 186.903,94.4797 L 187.152,94.4797 L 187.152,78.7457 L 186.903,78.7457 L 186.903,94.4797 z "
       style="fill:black;fill-rule:evenodd;stroke:none"
       id="path6000" />
    <path
       d="M 193.179,23.4398 L 193.428,23.4398 L 193.428,5.21576 L 193.179,5.21576 L 193.179,23.4398 z "
       style="fill:none;stroke:black;stroke-width:0.27941102;stroke-linejoin:round"
       id="path6002" />
    <path
       d="M 193.179,23.4398 L 193.428,23.4398 L 193.428,5.21576 L 193.179,5.21576 L 193.179,23.4398 z "
       style="fill:black;fill-rule:evenodd;stroke:none"
       id="path6004" />
    <path
       d="M 184.713,76.9838 C 183.637,77.0837 182.86,77.2828 182.143,77.6407 C 181.685,77.8597 181.446,78.0388 181.186,78.2977 C 180.708,78.7767 180.349,79.5338 180.15,80.4498 C 180.09,80.7687 180.09,81.2267 180.15,81.4658 C 180.23,81.6848 180.329,81.8638 180.489,82.0237 C 180.887,82.4028 181.485,82.5018 182.8,82.3428 C 184.095,82.2037 185.271,81.7448 185.909,81.1077 C 186.387,80.6097 186.746,79.8527 186.945,78.9357 C 187.005,78.6168 187.005,78.1588 186.945,77.9197 C 186.865,77.7007 186.766,77.5217 186.606,77.3618 C 186.447,77.2028 186.267,77.1027 185.988,77.0228 C 185.809,76.9827 185.729,76.9827 185.41,76.9628 C 185.171,76.9628 184.892,76.9827 184.713,76.9827 L 184.713,76.9838 z M 185.749,77.6017 C 186.008,77.6818 186.167,77.8007 186.287,78.0198 C 186.407,78.2787 186.387,78.5377 186.267,78.7968 C 186.108,79.0958 185.629,79.5137 184.573,80.1918 C 183.178,81.1287 182.401,81.5668 181.923,81.7457 C 181.445,81.9047 181.006,81.7457 180.807,81.3668 C 180.687,81.1077 180.707,80.8488 180.827,80.5897 C 180.986,80.2908 181.465,79.8727 182.521,79.1948 C 183.537,78.5167 184.195,78.1188 184.613,77.8998 C 185.211,77.6008 185.47,77.5408 185.749,77.6008 L 185.749,77.6017 z "
       style="fill:black;fill-rule:evenodd;stroke:none"
       id="path6006" />
    <path
       d="M 191.313,74.5837 C 190.237,74.6838 189.46,74.8828 188.743,75.2407 C 188.285,75.4598 188.046,75.6387 187.786,75.8978 C 187.308,76.3768 186.949,77.1337 186.75,78.0497 C 186.69,78.3688 186.69,78.8267 186.75,79.0657 C 186.83,79.2847 186.929,79.4637 187.089,79.6238 C 187.487,80.0027 188.085,80.1017 189.4,79.9427 C 190.695,79.8038 191.871,79.3447 192.509,78.7078 C 192.987,78.2098 193.346,77.4528 193.545,76.5358 C 193.605,76.2167 193.605,75.7587 193.545,75.5198 C 193.465,75.3007 193.366,75.1218 193.206,74.9617 C 193.047,74.8027 192.867,74.7028 192.588,74.6227 C 192.409,74.5828 192.329,74.5828 192.01,74.5627 C 191.771,74.5627 191.492,74.5828 191.313,74.5828 L 191.313,74.5837 z M 192.349,75.2017 C 192.608,75.2817 192.767,75.4008 192.887,75.6198 C 193.007,75.8787 192.987,76.1378 192.867,76.3967 C 192.708,76.6957 192.229,77.1138 191.173,77.7917 C 189.778,78.7288 189.001,79.1667 188.523,79.3458 C 188.045,79.5048 187.606,79.3458 187.407,78.9667 C 187.287,78.7078 187.307,78.4487 187.427,78.1898 C 187.586,77.8907 188.065,77.4728 189.121,76.7947 C 190.137,76.1168 190.795,75.7188 191.213,75.4998 C 191.811,75.2007 192.07,75.1407 192.349,75.2007 L 192.349,75.2017 z "
       style="fill:black;fill-rule:evenodd;stroke:none"
       id="path6008" />
    <path
       d="M 191.313,22.1838 C 190.237,22.2838 189.46,22.4827 188.743,22.8408 C 188.285,23.0598 188.046,23.2388 187.786,23.4977 C 187.308,23.9767 186.949,24.7338 186.75,25.6498 C 186.69,25.9688 186.69,26.4268 186.75,26.6658 C 186.83,26.8848 186.929,27.0637 187.089,27.2238 C 187.487,27.6027 188.085,27.7017 189.4,27.5427 C 190.695,27.4037 191.871,26.9448 192.509,26.3077 C 192.987,25.8098 193.346,25.0527 193.545,24.1357 C 193.605,23.8168 193.605,23.3588 193.545,23.1198 C 193.465,22.9008 193.366,22.7217 193.206,22.5618 C 193.047,22.4028 192.867,22.3027 192.588,22.2228 C 192.409,22.1827 192.329,22.1827 192.01,22.1627 C 191.771,22.1627 191.492,22.1827 191.313,22.1827 L 191.313,22.1838 z M 192.349,22.8018 C 192.608,22.8818 192.767,23.0007 192.887,23.2197 C 193.007,23.4788 192.987,23.7377 192.867,23.9968 C 192.708,24.2958 192.229,24.7137 191.173,25.3917 C 189.778,26.3287 189.001,26.7667 188.523,26.9457 C 188.045,27.1047 187.606,26.9457 187.407,26.5668 C 187.287,26.3077 187.307,26.0488 187.427,25.7897 C 187.586,25.4907 188.065,25.0728 189.121,24.3948 C 190.137,23.7167 190.795,23.3187 191.213,23.0997 C 191.811,22.8007 192.07,22.7407 192.349,22.8007 L 192.349,22.8018 z "
       style="fill:black;fill-rule:evenodd;stroke:none"
       id="path6010" />
    <path
       d="M 191.313,17.2838 C 190.237,17.3837 189.46,17.5828 188.743,17.9407 C 188.285,18.1597 188.046,18.3387 187.786,18.5978 C 187.308,19.0767 186.949,19.8337 186.75,20.7498 C 186.69,21.0687 186.69,21.5267 186.75,21.7657 C 186.83,21.9847 186.929,22.1638 187.089,22.3237 C 187.487,22.7028 188.085,22.8018 189.4,22.6428 C 190.695,22.5037 191.871,22.0447 192.509,21.4078 C 192.987,20.9097 193.346,20.1528 193.545,19.2358 C 193.605,18.9167 193.605,18.4587 193.545,18.2197 C 193.465,18.0007 193.366,17.8218 193.206,17.6617 C 193.047,17.5027 192.867,17.4028 192.588,17.3228 C 192.409,17.2828 192.329,17.2828 192.01,17.2628 C 191.771,17.2628 191.492,17.2828 191.313,17.2828 L 191.313,17.2838 z M 192.349,17.9017 C 192.608,17.9818 192.767,18.1008 192.887,18.3198 C 193.007,18.5787 192.987,18.8378 192.867,19.0967 C 192.708,19.3958 192.229,19.8137 191.173,20.4918 C 189.778,21.4288 189.001,21.8668 188.523,22.0458 C 188.045,22.2048 187.606,22.0458 187.407,21.6667 C 187.287,21.4078 187.307,21.1487 187.427,20.8898 C 187.586,20.5908 188.065,20.1727 189.121,19.4948 C 190.137,18.8168 190.795,18.4188 191.213,18.1998 C 191.811,17.9008 192.07,17.8408 192.349,17.9008 L 192.349,17.9017 z "
       style="fill:black;fill-rule:evenodd;stroke:none"
       id="path6012" />
    <path
       d="M 166.672,83.5837 L 166.921,83.5837 L 166.921,62.5018 L 166.672,62.5018 L 166.672,83.5837 z "
       style="fill:none;stroke:black;stroke-width:0.27941102;stroke-linejoin:round"
       id="path6014" />
    <path
       d="M 166.672,83.5837 L 166.921,83.5837 L 166.921,62.5018 L 166.672,62.5018 L 166.672,83.5837 z "
       style="fill:black;fill-rule:evenodd;stroke:none"
       id="path6016" />
    <path
       d="M 160.763,37.1978 L 161.012,37.1978 L 161.012,16.1157 L 160.763,16.1157 L 160.763,37.1978 z "
       style="fill:none;stroke:black;stroke-width:0.27941102;stroke-linejoin:round"
       id="path6018" />
    <path
       d="M 160.763,37.1978 L 161.012,37.1978 L 161.012,16.1157 L 160.763,16.1157 L 160.763,37.1978 z "
       style="fill:black;fill-rule:evenodd;stroke:none"
       id="path6020" />
    <path
       d="M 164.555,81.9637 C 163.738,82.0637 162.901,82.4017 162.184,82.9598 C 161.367,83.5577 160.809,84.3547 160.63,85.1718 C 160.59,85.4307 160.59,85.8898 160.65,86.0887 C 160.829,86.7858 161.387,87.2247 162.224,87.4037 C 162.463,87.4437 163.061,87.4437 163.36,87.4037 C 164.117,87.2648 164.894,86.9257 165.572,86.4277 C 166.369,85.8298 166.927,85.0328 167.106,84.2158 C 167.146,83.9567 167.146,83.4977 167.086,83.2787 C 166.907,82.6218 166.369,82.1827 165.572,82.0037 C 165.353,81.9637 164.795,81.9437 164.556,81.9637 L 164.555,81.9637 z "
       style="fill:black;fill-rule:evenodd;stroke:none"
       id="path6022" />
    <path
       d="M 164.555,74.5637 C 163.738,74.6638 162.901,75.0018 162.184,75.5598 C 161.367,76.1578 160.809,76.9548 160.63,77.7717 C 160.59,78.0308 160.59,78.4897 160.65,78.6887 C 160.829,79.3857 161.387,79.8248 162.224,80.0037 C 162.463,80.0438 163.061,80.0438 163.36,80.0037 C 164.117,79.8647 164.894,79.5258 165.572,79.0278 C 166.369,78.4297 166.927,77.6328 167.106,76.8157 C 167.146,76.5568 167.146,76.0978 167.086,75.8787 C 166.907,75.2217 166.369,74.7828 165.572,74.6038 C 165.353,74.5637 164.795,74.5438 164.556,74.5637 L 164.555,74.5637 z "
       style="fill:black;fill-rule:evenodd;stroke:none"
       id="path6024" />
    <path
       d="M 164.555,22.1638 C 163.738,22.2637 162.901,22.6017 162.184,23.1597 C 161.367,23.7578 160.809,24.5547 160.63,25.3718 C 160.59,25.6307 160.59,26.0897 160.65,26.2888 C 160.829,26.9858 161.387,27.4247 162.224,27.6038 C 162.463,27.6437 163.061,27.6437 163.36,27.6038 C 164.117,27.4647 164.894,27.1257 165.572,26.6277 C 166.369,26.0297 166.927,25.2327 167.106,24.4158 C 167.146,24.1567 167.146,23.6978 167.086,23.4788 C 166.907,22.8218 166.369,22.3828 165.572,22.2037 C 165.353,22.1638 164.795,22.1437 164.556,22.1638 L 164.555,22.1638 z "
       style="fill:black;fill-rule:evenodd;stroke:none"
       id="path6026" />
    <path
       d="M 164.555,12.2637 C 163.738,12.3638 162.901,12.7017 162.184,13.2598 C 161.367,13.8577 160.809,14.6547 160.63,15.4717 C 160.59,15.7308 160.59,16.1898 160.65,16.3887 C 160.829,17.0858 161.387,17.5248 162.224,17.7037 C 162.463,17.7438 163.061,17.7438 163.36,17.7037 C 164.117,17.5648 164.894,17.2258 165.572,16.7277 C 166.369,16.1298 166.927,15.3328 167.106,14.5157 C 167.146,14.2568 167.146,13.7977 167.086,13.5787 C 166.907,12.9218 166.369,12.4827 165.572,12.3038 C 165.353,12.2637 164.795,12.2438 164.556,12.2637 L 164.555,12.2637 z "
       style="fill:black;fill-rule:evenodd;stroke:none"
       id="path6028" />
    <path
       d="M 140.808,98.5178 L 141.057,98.5178 L 141.057,78.3828 L 140.808,78.3828 L 140.808,98.5178 z "
       style="fill:none;stroke:black;stroke-width:0.27941102;stroke-linejoin:round"
       id="path6030" />
    <path
       d="M 140.808,98.5178 L 141.057,98.5178 L 141.057,78.3828 L 140.808,78.3828 L 140.808,98.5178 z "
       style="fill:black;fill-rule:evenodd;stroke:none"
       id="path6032" />
    <path
       d="M 146.717,28.7917 L 146.966,28.7917 L 146.966,6.16577 L 146.717,6.16577 L 146.717,28.7917 z "
       style="fill:none;stroke:black;stroke-width:0.27941102;stroke-linejoin:round"
       id="path6034" />
    <path
       d="M 146.717,28.7917 L 146.966,28.7917 L 146.966,6.16577 L 146.717,6.16577 L 146.717,28.7917 z "
       style="fill:black;fill-rule:evenodd;stroke:none"
       id="path6036" />
    <path
       d="M 144.555,79.4637 C 143.738,79.5637 142.901,79.9017 142.184,80.4598 C 141.367,81.0577 140.809,81.8547 140.63,82.6718 C 140.59,82.9307 140.59,83.3898 140.65,83.5887 C 140.829,84.2858 141.387,84.7247 142.224,84.9037 C 142.463,84.9437 143.061,84.9437 143.36,84.9037 C 144.117,84.7648 144.894,84.4257 145.572,83.9277 C 146.369,83.3298 146.927,82.5328 147.106,81.7158 C 147.146,81.4567 147.146,80.9977 147.086,80.7787 C 146.907,80.1218 146.369,79.6827 145.572,79.5037 C 145.353,79.4637 144.795,79.4437 144.556,79.4637 L 144.555,79.4637 z "
       style="fill:black;fill-rule:evenodd;stroke:none"
       id="path6038" />
    <path
       d="M 144.555,74.5637 C 143.738,74.6638 142.901,75.0018 142.184,75.5598 C 141.367,76.1578 140.809,76.9548 140.63,77.7717 C 140.59,78.0308 140.59,78.4897 140.65,78.6887 C 140.829,79.3857 141.387,79.8248 142.224,80.0037 C 142.463,80.0438 143.061,80.0438 143.36,80.0037 C 144.117,79.8647 144.894,79.5258 145.572,79.0278 C 146.369,78.4297 146.927,77.6328 147.106,76.8157 C 147.146,76.5568 147.146,76.0978 147.086,75.8787 C 146.907,75.2217 146.369,74.7828 145.572,74.6038 C 145.353,74.5637 144.795,74.5438 144.556,74.5637 L 144.555,74.5637 z "
       style="fill:black;fill-rule:evenodd;stroke:none"
       id="path6040" />
    <path
       d="M 144.555,27.1638 C 143.738,27.2637 142.901,27.6017 142.184,28.1597 C 141.367,28.7578 140.809,29.5547 140.63,30.3718 C 140.59,30.6307 140.59,31.0897 140.65,31.2888 C 140.829,31.9858 141.387,32.4247 142.224,32.6038 C 142.463,32.6437 143.061,32.6437 143.36,32.6038 C 144.117,32.4647 144.894,32.1257 145.572,31.6277 C 146.369,31.0297 146.927,30.2327 147.106,29.4158 C 147.146,29.1567 147.146,28.6978 147.086,28.4788 C 146.907,27.8218 146.369,27.3828 145.572,27.2037 C 145.353,27.1638 144.795,27.1437 144.556,27.1638 L 144.555,27.1638 z "
       style="fill:black;fill-rule:evenodd;stroke:none"
       id="path6042" />
    <path
       d="M 144.555,19.7637 C 143.738,19.8638 142.901,20.2017 142.184,20.7598 C 141.367,21.3577 140.809,22.1547 140.63,22.9717 C 140.59,23.2308 140.59,23.6898 140.65,23.8887 C 140.829,24.5858 141.387,25.0248 142.224,25.2037 C 142.463,25.2438 143.061,25.2438 143.36,25.2037 C 144.117,25.0648 144.894,24.7258 145.572,24.2277 C 146.369,23.6298 146.927,22.8328 147.106,22.0157 C 147.146,21.7568 147.146,21.2977 147.086,21.0787 C 146.907,20.4218 146.369,19.9827 145.572,19.8038 C 145.353,19.7637 144.795,19.7438 144.556,19.7637 L 144.555,19.7637 z "
       style="fill:black;fill-rule:evenodd;stroke:none"
       id="path6044" />
    <path
       d="M 118.8,98.5178 L 119.049,98.5178 L 119.049,78.3828 L 118.8,78.3828 L 118.8,98.5178 z "
       style="fill:none;stroke:black;stroke-width:0.27941102;stroke-linejoin:round"
       id="path6046" />
    <path
       d="M 118.8,98.5178 L 119.049,98.5178 L 119.049,78.3828 L 118.8,78.3828 L 118.8,98.5178 z "
       style="fill:black;fill-rule:evenodd;stroke:none"
       id="path6048" />
    <path
       d="M 124.708,28.7917 L 124.957,28.7917 L 124.957,6.16577 L 124.708,6.16577 L 124.708,28.7917 z "
       style="fill:none;stroke:black;stroke-width:0.27941102;stroke-linejoin:round"
       id="path6050" />
    <path
       d="M 124.708,28.7917 L 124.957,28.7917 L 124.957,6.16577 L 124.708,6.16577 L 124.708,28.7917 z "
       style="fill:black;fill-rule:evenodd;stroke:none"
       id="path6052" />
    <path
       d="M 134.556,95.6797 L 141.057,95.6797 L 141.057,93.6877 L 134.556,93.6877 L 134.556,95.6797 z "
       style="fill:none;stroke:black;stroke-width:0.27941102;stroke-linejoin:round"
       id="path6054" />
    <path
       d="M 134.556,95.6797 L 141.057,95.6797 L 141.057,93.6877 L 134.556,93.6877 L 134.556,95.6797 z "
       style="fill:black;fill-rule:evenodd;stroke:none"
       id="path6056" />
    <path
       d="M 118.8,99.7117 L 141.057,99.7117 L 141.057,97.7197 L 118.8,97.7197 L 118.8,99.7117 z "
       style="fill:none;stroke:black;stroke-width:0.27941102;stroke-linejoin:round"
       id="path6058" />
    <path
       d="M 118.8,99.7117 L 141.057,99.7117 L 141.057,97.7197 L 118.8,97.7197 L 118.8,99.7117 z "
       style="fill:black;fill-rule:evenodd;stroke:none"
       id="path6060" />
    <path
       d="M 128.306,81.0778 C 128.087,81.1177 127.828,81.2578 127.688,81.3967 C 127.608,81.4968 127.489,81.6757 127.449,81.8348 C 127.409,81.9348 127.409,81.9938 127.409,82.1937 C 127.409,82.3928 127.409,82.4528 127.449,82.5527 C 127.588,82.9117 127.808,83.1307 128.166,83.2498 C 128.345,83.3098 128.684,83.3098 128.864,83.2498 C 129.223,83.1298 129.442,82.9108 129.581,82.5527 C 129.621,82.4327 129.621,82.3937 129.621,82.1738 C 129.621,81.9747 129.621,81.9348 129.581,81.8148 C 129.442,81.4557 129.242,81.2568 128.884,81.1177 C 128.745,81.0778 128.445,81.0377 128.306,81.0778 z "
       style="fill:black;fill-rule:evenodd;stroke:none"
       id="path6062" />
    <path
       d="M 122.555,79.4637 C 121.738,79.5637 120.901,79.9017 120.184,80.4598 C 119.367,81.0577 118.809,81.8547 118.63,82.6718 C 118.59,82.9307 118.59,83.3898 118.65,83.5887 C 118.829,84.2858 119.387,84.7247 120.224,84.9037 C 120.463,84.9437 121.061,84.9437 121.36,84.9037 C 122.117,84.7648 122.894,84.4257 123.572,83.9277 C 124.369,83.3298 124.927,82.5328 125.106,81.7158 C 125.146,81.4567 125.146,80.9977 125.086,80.7787 C 124.907,80.1218 124.369,79.6827 123.572,79.5037 C 123.353,79.4637 122.795,79.4437 122.556,79.4637 L 122.555,79.4637 z "
       style="fill:black;fill-rule:evenodd;stroke:none"
       id="path6064" />
    <path
       d="M 128.306,76.1777 C 128.087,76.2178 127.828,76.3577 127.688,76.4968 C 127.608,76.5967 127.489,76.7758 127.449,76.9348 C 127.409,77.0347 127.409,77.0938 127.409,77.2938 C 127.409,77.4927 127.409,77.5527 127.449,77.6528 C 127.588,78.0118 127.808,78.2308 128.166,78.3497 C 128.345,78.4097 128.684,78.4097 128.864,78.3497 C 129.223,78.2297 129.442,78.0107 129.581,77.6528 C 129.621,77.5328 129.621,77.4938 129.621,77.2737 C 129.621,77.0748 129.621,77.0347 129.581,76.9147 C 129.442,76.5557 129.242,76.3568 128.884,76.2178 C 128.745,76.1777 128.445,76.1378 128.306,76.1777 z "
       style="fill:black;fill-rule:evenodd;stroke:none"
       id="path6066" />
    <path
       d="M 122.555,74.5637 C 121.738,74.6638 120.901,75.0018 120.184,75.5598 C 119.367,76.1578 118.809,76.9548 118.63,77.7717 C 118.59,78.0308 118.59,78.4897 118.65,78.6887 C 118.829,79.3857 119.387,79.8248 120.224,80.0037 C 120.463,80.0438 121.061,80.0438 121.36,80.0037 C 122.117,79.8647 122.894,79.5258 123.572,79.0278 C 124.369,78.4297 124.927,77.6328 125.106,76.8157 C 125.146,76.5568 125.146,76.0978 125.086,75.8787 C 124.907,75.2217 124.369,74.7828 123.572,74.6038 C 123.353,74.5637 122.795,74.5438 122.556,74.5637 L 122.555,74.5637 z "
       style="fill:black;fill-rule:evenodd;stroke:none"
       id="path6068" />
    <path
       d="M 140.464,10.9957 L 146.965,10.9957 L 146.965,9.00372 L 140.464,9.00372 L 140.464,10.9957 z "
       style="fill:none;stroke:black;stroke-width:0.27941102;stroke-linejoin:round"
       id="path6070" />
    <path
       d="M 140.464,10.9957 L 146.965,10.9957 L 146.965,9.00372 L 140.464,9.00372 L 140.464,10.9957 z "
       style="fill:black;fill-rule:evenodd;stroke:none"
       id="path6072" />
    <path
       d="M 124.708,6.95776 L 146.965,6.95776 L 146.965,4.96576 L 124.708,4.96576 L 124.708,6.95776 z "
       style="fill:none;stroke:black;stroke-width:0.27941102;stroke-linejoin:round"
       id="path6074" />
    <path
       d="M 124.708,6.95776 L 146.965,6.95776 L 146.965,4.96576 L 124.708,4.96576 L 124.708,6.95776 z "
       style="fill:black;fill-rule:evenodd;stroke:none"
       id="path6076" />
    <path
       d="M 128.306,26.2778 C 128.087,26.3177 127.828,26.4578 127.688,26.5967 C 127.608,26.6968 127.489,26.8757 127.449,27.0347 C 127.409,27.1348 127.409,27.1937 127.409,27.3937 C 127.409,27.5928 127.409,27.6528 127.449,27.7527 C 127.588,28.1118 127.808,28.3307 128.166,28.4498 C 128.345,28.5098 128.684,28.5098 128.864,28.4498 C 129.223,28.3298 129.442,28.1108 129.581,27.7527 C 129.621,27.6328 129.621,27.5938 129.621,27.3738 C 129.621,27.1747 129.621,27.1348 129.581,27.0148 C 129.442,26.6558 129.242,26.4567 128.884,26.3177 C 128.745,26.2778 128.445,26.2377 128.306,26.2778 z "
       style="fill:black;fill-rule:evenodd;stroke:none"
       id="path6078" />
    <path
       d="M 122.555,27.1638 C 121.738,27.2637 120.901,27.6017 120.184,28.1597 C 119.367,28.7578 118.809,29.5547 118.63,30.3718 C 118.59,30.6307 118.59,31.0897 118.65,31.2888 C 118.829,31.9858 119.387,32.4247 120.224,32.6038 C 120.463,32.6437 121.061,32.6437 121.36,32.6038 C 122.117,32.4647 122.894,32.1257 123.572,31.6277 C 124.369,31.0297 124.927,30.2327 125.106,29.4158 C 125.146,29.1567 125.146,28.6978 125.086,28.4788 C 124.907,27.8218 124.369,27.3828 123.572,27.2037 C 123.353,27.1638 122.795,27.1437 122.556,27.1638 L 122.555,27.1638 z "
       style="fill:black;fill-rule:evenodd;stroke:none"
       id="path6080" />
    <path
       d="M 128.306,21.3777 C 128.087,21.4177 127.828,21.5577 127.688,21.6968 C 127.608,21.7968 127.489,21.9758 127.449,22.1348 C 127.409,22.2347 127.409,22.2938 127.409,22.4938 C 127.409,22.6927 127.409,22.7527 127.449,22.8527 C 127.588,23.2117 127.808,23.4307 128.166,23.5497 C 128.345,23.6097 128.684,23.6097 128.864,23.5497 C 129.223,23.4297 129.442,23.2108 129.581,22.8527 C 129.621,22.7327 129.621,22.6937 129.621,22.4738 C 129.621,22.2748 129.621,22.2347 129.581,22.1147 C 129.442,21.7557 129.242,21.5568 128.884,21.4177 C 128.745,21.3777 128.445,21.3378 128.306,21.3777 z "
       style="fill:black;fill-rule:evenodd;stroke:none"
       id="path6082" />
    <path
       d="M 122.555,19.7637 C 121.738,19.8638 120.901,20.2017 120.184,20.7598 C 119.367,21.3577 118.809,22.1547 118.63,22.9717 C 118.59,23.2308 118.59,23.6898 118.65,23.8887 C 118.829,24.5858 119.387,25.0248 120.224,25.2037 C 120.463,25.2438 121.061,25.2438 121.36,25.2037 C 122.117,25.0648 122.894,24.7258 123.572,24.2277 C 124.369,23.6298 124.927,22.8328 125.106,22.0157 C 125.146,21.7568 125.146,21.2977 125.086,21.0787 C 124.907,20.4218 124.369,19.9827 123.572,19.8038 C 123.353,19.7637 122.795,19.7438 122.556,19.7637 L 122.555,19.7637 z "
       style="fill:black;fill-rule:evenodd;stroke:none"
       id="path6084" />
    <path
       d="M 103.436,83.8077 C 103.297,83.8478 103.237,83.9078 103.177,84.0267 C 103.117,84.1857 103.117,84.2657 103.217,84.4448 C 103.874,85.5807 104.253,86.9557 104.213,88.0707 C 104.133,89.7048 102.818,91.2587 99.989,93.0328 L 99.69,93.2117 L 99.351,93.2117 L 99.351,98.1927 L 99.69,98.1927 L 99.69,98.0928 C 99.69,97.7938 99.77,97.2557 99.869,96.8967 C 100.068,96.2587 100.427,95.5217 100.925,94.8447 C 101.284,94.3467 101.582,93.9877 102.439,92.9918 C 103.595,91.6567 104.073,91.0187 104.452,90.2618 C 104.89,89.4047 105.07,88.6478 105.05,87.7507 C 105.01,86.8148 104.831,85.9377 104.452,85.0007 C 104.313,84.6617 104.014,84.0248 103.934,83.9247 C 103.874,83.8447 103.715,83.7657 103.615,83.7657 C 103.555,83.7657 103.476,83.7858 103.436,83.8057 L 103.436,83.8077 z "
       style="fill:black;fill-rule:evenodd;stroke:none"
       id="path6086" />
    <path
       d="M 99.247,98.2178 L 99.496,98.2178 L 99.496,78.3818 L 99.247,78.3818 L 99.247,98.2178 z "
       style="fill:none;stroke:black;stroke-width:0.27941102;stroke-linejoin:round"
       id="path6088" />
    <path
       d="M 99.247,98.2178 L 99.496,98.2178 L 99.496,78.3818 L 99.247,78.3818 L 99.247,98.2178 z "
       style="fill:black;fill-rule:evenodd;stroke:none"
       id="path6090" />
    <path
       d="M 105.251,7.68475 L 105.251,10.1757 L 105.59,10.1757 L 105.889,10.4948 C 107.842,12.5468 108.738,14.0417 108.898,15.4567 C 108.918,15.6957 108.918,16.2737 108.878,16.6318 C 108.778,17.5687 108.519,18.5848 108.141,19.4608 C 108.101,19.5807 108.061,19.6797 108.061,19.7397 C 108.061,19.8198 108.121,19.9788 108.2,20.0388 C 108.26,20.1188 108.439,20.1777 108.539,20.1777 C 108.619,20.1777 108.798,20.0978 108.858,20.0388 C 108.918,19.9788 108.998,19.7797 109.157,19.3007 C 109.675,17.7267 109.874,16.0928 109.675,14.8777 C 109.555,14.1608 109.296,13.4437 108.898,12.6257 C 108.599,12.0278 108.34,11.5897 107.603,10.3937 C 106.607,8.79974 106.228,8.04272 105.929,7.14575 C 105.73,6.54773 105.59,5.81073 105.59,5.31274 L 105.59,5.19275 L 105.251,5.19275 L 105.251,7.68475 z "
       style="fill:black;fill-rule:evenodd;stroke:none"
       id="path6092" />
    <path
       d="M 105.156,28.7917 L 105.405,28.7917 L 105.405,5.21973 L 105.156,5.21973 L 105.156,28.7917 z "
       style="fill:none;stroke:black;stroke-width:0.27941102;stroke-linejoin:round"
       id="path6094" />
    <path
       d="M 105.156,28.7917 L 105.405,28.7917 L 105.405,5.21973 L 105.156,5.21973 L 105.156,28.7917 z "
       style="fill:black;fill-rule:evenodd;stroke:none"
       id="path6096" />
    <path
       d="M 103.055,79.4637 C 102.238,79.5637 101.401,79.9017 100.684,80.4598 C 99.867,81.0577 99.309,81.8547 99.13,82.6718 C 99.09,82.9307 99.09,83.3898 99.15,83.5887 C 99.329,84.2858 99.887,84.7247 100.724,84.9037 C 100.963,84.9437 101.561,84.9437 101.86,84.9037 C 102.617,84.7648 103.394,84.4257 104.072,83.9277 C 104.869,83.3298 105.427,82.5328 105.606,81.7158 C 105.646,81.4567 105.646,80.9977 105.586,80.7787 C 105.407,80.1218 104.869,79.6827 104.072,79.5037 C 103.853,79.4637 103.295,79.4437 103.056,79.4637 L 103.055,79.4637 z "
       style="fill:black;fill-rule:evenodd;stroke:none"
       id="path6098" />
    <path
       d="M 103.055,74.5637 C 102.238,74.6638 101.401,75.0018 100.684,75.5598 C 99.867,76.1578 99.309,76.9548 99.13,77.7717 C 99.09,78.0308 99.09,78.4897 99.15,78.6887 C 99.329,79.3857 99.887,79.8248 100.724,80.0037 C 100.963,80.0438 101.561,80.0438 101.86,80.0037 C 102.617,79.8647 103.394,79.5258 104.072,79.0278 C 104.869,78.4297 105.427,77.6328 105.606,76.8157 C 105.646,76.5568 105.646,76.0978 105.586,75.8787 C 105.407,75.2217 104.869,74.7828 104.072,74.6038 C 103.853,74.5637 103.295,74.5438 103.056,74.5637 L 103.055,74.5637 z "
       style="fill:black;fill-rule:evenodd;stroke:none"
       id="path6100" />
    <path
       d="M 103.055,27.1638 C 102.238,27.2637 101.401,27.6017 100.684,28.1597 C 99.867,28.7578 99.309,29.5547 99.13,30.3718 C 99.09,30.6307 99.09,31.0897 99.15,31.2888 C 99.329,31.9858 99.887,32.4247 100.724,32.6038 C 100.963,32.6437 101.561,32.6437 101.86,32.6038 C 102.617,32.4647 103.394,32.1257 104.072,31.6277 C 104.869,31.0297 105.427,30.2327 105.606,29.4158 C 105.646,29.1567 105.646,28.6978 105.586,28.4788 C 105.407,27.8218 104.869,27.3828 104.072,27.2037 C 103.853,27.1638 103.295,27.1437 103.056,27.1638 L 103.055,27.1638 z "
       style="fill:black;fill-rule:evenodd;stroke:none"
       id="path6102" />
    <path
       d="M 103.055,19.7637 C 102.238,19.8638 101.401,20.2017 100.684,20.7598 C 99.867,21.3577 99.309,22.1547 99.13,22.9717 C 99.09,23.2308 99.09,23.6898 99.15,23.8887 C 99.329,24.5858 99.887,25.0248 100.724,25.2037 C 100.963,25.2438 101.561,25.2438 101.86,25.2037 C 102.617,25.0648 103.394,24.7258 104.072,24.2277 C 104.869,23.6298 105.427,22.8328 105.606,22.0157 C 105.646,21.7568 105.646,21.2977 105.586,21.0787 C 105.407,20.4218 104.869,19.9827 104.072,19.8038 C 103.853,19.7637 103.295,19.7438 103.056,19.7637 L 103.055,19.7637 z "
       style="fill:black;fill-rule:evenodd;stroke:none"
       id="path6104" />
    <path
       d="M 77.17,86.0737 L 77.419,86.0737 L 77.419,62.5018 L 77.17,62.5018 L 77.17,86.0737 z "
       style="fill:none;stroke:black;stroke-width:0.27941102;stroke-linejoin:round"
       id="path6106" />
    <path
       d="M 77.17,86.0737 L 77.419,86.0737 L 77.419,62.5018 L 77.17,62.5018 L 77.17,86.0737 z "
       style="fill:black;fill-rule:evenodd;stroke:none"
       id="path6108" />
    <path
       d="M 71.261,37.1978 L 71.51,37.1978 L 71.51,18.6068 L 71.261,18.6068 L 71.261,37.1978 z "
       style="fill:none;stroke:black;stroke-width:0.27941102;stroke-linejoin:round"
       id="path6110" />
    <path
       d="M 71.261,37.1978 L 71.51,37.1978 L 71.51,18.6068 L 71.261,18.6068 L 71.261,37.1978 z "
       style="fill:black;fill-rule:evenodd;stroke:none"
       id="path6112" />
    <path
       d="M 7.406,89.6978 L 7.7048,89.6978 L 7.7048,9.99677 L 7.406,9.99677 L 7.406,89.6978 z "
       style="fill:none;stroke:black;stroke-width:0.3492634;stroke-linejoin:round"
       id="path6114" />
    <path
       d="M 7.406,89.6978 L 7.7048,89.6978 L 7.7048,9.99677 L 7.406,9.99677 L 7.406,89.6978 z "
       style="fill:black;fill-rule:evenodd;stroke:none"
       id="path6116" />
    <path
       d="M 4.988,10.0427 C 3.489,11.9357 2.29,14.5258 1.69,17.1157 C 1.29,19.2078 1.19,20.4037 1.19,23.2927 C 1.19,26.3807 1.19,27.1788 1.99,32.0598 C 2.79,37.0408 2.79,37.7388 2.79,40.3287 C 2.79,42.8198 2.69,43.8157 2.192,45.5087 C 1.893,46.6047 1.096,48.3978 0.498001,49.1948 C 0.1991,49.4938 0,49.7927 0,49.8917 C 0,49.9918 0.199001,50.2897 0.498001,50.5887 C 1.096,51.3857 1.893,53.1788 2.192,54.2748 C 2.69,55.9688 2.79,56.9647 2.79,59.4548 C 2.79,62.0447 2.79,62.7427 1.99,67.7238 C 1.19,72.6058 1.19,73.4028 1.19,76.4907 C 1.19,79.3798 1.29,80.5757 1.69,82.6677 C 2.29,85.2578 3.489,87.8478 4.988,89.7407 C 5.388,90.3387 5.688,90.5377 5.988,90.1387 C 6.2879,89.8397 6.188,89.7407 5.688,88.9427 C 4.989,88.0468 4.19,86.3527 3.89,85.1567 C 3.39,83.4628 3.291,82.5668 3.291,80.0757 C 3.291,77.4858 3.291,77.0867 3.991,72.0057 C 4.691,67.1238 4.691,66.6257 4.691,63.5377 C 4.691,61.5447 4.691,60.5488 4.591,59.6517 C 4.0931,56.0657 3.0961,53.2758 1.403,50.7847 L 0.805103,49.8887 L 1.403,48.9927 C 3.096,46.5018 4.093,43.7128 4.591,40.1257 C 4.691,39.2288 4.691,38.2327 4.691,36.1407 C 4.691,33.1517 4.691,32.6537 3.991,27.6727 C 3.291,22.6918 3.291,22.2927 3.291,19.7028 C 3.291,17.2117 3.391,16.3157 3.89,14.5228 C 4.19,13.4268 4.989,11.7338 5.688,10.8367 C 6.188,10.0397 6.288,9.84076 5.988,9.64075 C 5.688,9.34174 5.388,9.44177 4.988,10.0388 L 4.988,10.0427 z "
       style="fill:black;fill-rule:evenodd;stroke:none"
       id="path6118" />
    <path
       d="M 29.251,75.4688 C 29.191,75.4888 29.112,75.5287 29.052,75.5488 L 28.952,75.5887 L 28.952,76.0668 C 28.972,76.3458 29.032,79.0157 29.091,82.0248 C 29.191,88.0018 29.191,87.6238 29.31,87.7628 C 29.39,87.8627 29.549,87.9418 29.669,87.9418 C 29.7689,87.9418 29.9279,87.8818 30.0279,87.7828 C 30.0679,87.7628 30.1669,87.6238 30.2669,87.5037 C 30.5059,87.2048 30.6059,87.1058 31.5029,86.4478 C 32.1409,85.9897 32.3989,85.7698 32.6779,85.4907 C 32.9569,85.2117 33.1369,84.9728 33.2758,84.6937 C 33.5348,84.1357 33.5348,83.4578 33.2559,82.8408 C 33.1559,82.6218 33.0369,82.4617 32.8579,82.2828 C 32.4989,81.9238 32.1009,81.7648 31.5829,81.7847 C 31.0049,81.8248 30.4269,82.0438 30.0089,82.3828 L 29.9089,82.4628 L 29.9089,81.9847 C 29.9289,81.2468 30.0479,75.6088 30.0479,75.5887 C 30.0479,75.5887 30.0079,75.5687 29.9479,75.5488 C 29.7689,75.4487 29.4699,75.4288 29.2509,75.4688 L 29.251,75.4688 z M 31.403,82.7007 C 31.622,82.8207 31.782,83.0397 31.881,83.4177 C 31.9209,83.5767 31.9209,83.6378 31.9209,83.9357 C 31.9209,84.2147 31.9209,84.2947 31.881,84.4338 C 31.801,84.7927 31.582,85.1907 31.323,85.5297 C 31.144,85.7687 30.705,86.2078 30.386,86.4868 L 30.127,86.7057 L 30.107,86.5668 C 30.047,86.1088 30.047,85.6097 30.047,84.7338 C 30.067,84.2158 30.087,83.7578 30.087,83.6777 C 30.147,83.2388 30.386,82.8807 30.705,82.7208 C 30.864,82.6407 30.944,82.6207 31.123,82.6207 C 31.243,82.6407 31.302,82.6407 31.402,82.7007 L 31.403,82.7007 z "
       style="fill:black;fill-rule:evenodd;stroke:none"
       id="path6120" />
    <path
       d="M 33.851,68.0687 C 33.791,68.0887 33.712,68.1287 33.652,68.1487 L 33.552,68.1887 L 33.552,68.6667 C 33.572,68.9457 33.632,71.6157 33.691,74.6248 C 33.791,80.6017 33.791,80.2238 33.91,80.3627 C 33.99,80.4628 34.149,80.5417 34.269,80.5417 C 34.369,80.5417 34.528,80.4818 34.628,80.3828 C 34.6679,80.3627 34.7669,80.2238 34.8669,80.1038 C 35.1059,79.8047 35.2059,79.7057 36.1029,79.0477 C 36.741,78.5897 36.999,78.3698 37.278,78.0908 C 37.557,77.8118 37.737,77.5728 37.876,77.2938 C 38.135,76.7358 38.135,76.0577 37.856,75.4407 C 37.756,75.2217 37.637,75.0618 37.458,74.8828 C 37.099,74.5237 36.701,74.3647 36.1829,74.3848 C 35.6049,74.4247 35.0269,74.6437 34.6089,74.9827 L 34.5089,75.0627 L 34.5089,74.5848 C 34.5289,73.8467 34.6479,68.2087 34.6479,68.1887 C 34.6479,68.1887 34.6079,68.1688 34.5479,68.1487 C 34.369,68.0488 34.07,68.0287 33.851,68.0687 z M 36.003,75.3007 C 36.222,75.4208 36.382,75.6398 36.481,76.0178 C 36.521,76.1768 36.521,76.2377 36.521,76.5358 C 36.521,76.8148 36.521,76.8948 36.481,77.0338 C 36.401,77.3928 36.182,77.7908 35.923,78.1298 C 35.744,78.3688 35.305,78.8077 34.986,79.0867 L 34.727,79.3057 L 34.7071,79.1667 C 34.6471,78.7087 34.6471,78.2098 34.6471,77.3337 C 34.667,76.8157 34.687,76.3577 34.687,76.2778 C 34.747,75.8387 34.986,75.4808 35.305,75.3207 C 35.464,75.2407 35.544,75.2208 35.723,75.2208 C 35.843,75.2407 35.902,75.2407 36.002,75.3007 L 36.003,75.3007 z "
       style="fill:black;fill-rule:evenodd;stroke:none"
       id="path6122" />
    <path
       d="M 38.351,77.9688 C 38.291,77.9888 38.212,78.0287 38.152,78.0488 L 38.052,78.0887 L 38.052,78.5668 C 38.072,78.8458 38.132,81.5157 38.191,84.5248 C 38.291,90.5018 38.291,90.1238 38.41,90.2628 C 38.49,90.3627 38.649,90.4418 38.769,90.4418 C 38.869,90.4418 39.028,90.3818 39.128,90.2828 C 39.168,90.2628 39.267,90.1238 39.367,90.0037 C 39.606,89.7048 39.706,89.6058 40.603,88.9478 C 41.241,88.4897 41.499,88.2698 41.778,87.9907 C 42.057,87.7117 42.237,87.4728 42.376,87.1937 C 42.635,86.6357 42.635,85.9578 42.356,85.3408 C 42.256,85.1218 42.137,84.9617 41.958,84.7828 C 41.599,84.4238 41.201,84.2648 40.683,84.2847 C 40.105,84.3248 39.527,84.5438 39.109,84.8828 L 39.009,84.9628 L 39.009,84.4847 C 39.029,83.7468 39.148,78.1088 39.148,78.0887 C 39.148,78.0887 39.108,78.0687 39.048,78.0488 C 38.869,77.9487 38.57,77.9288 38.351,77.9688 z M 40.503,85.2007 C 40.722,85.3207 40.882,85.5397 40.981,85.9177 C 41.021,86.0767 41.021,86.1378 41.021,86.4357 C 41.021,86.7147 41.021,86.7947 40.981,86.9338 C 40.901,87.2927 40.682,87.6907 40.423,88.0297 C 40.244,88.2687 39.805,88.7078 39.486,88.9868 L 39.227,89.2057 L 39.207,89.0668 C 39.147,88.6088 39.147,88.1097 39.147,87.2338 C 39.167,86.7158 39.187,86.2578 39.187,86.1777 C 39.247,85.7388 39.486,85.3807 39.805,85.2208 C 39.964,85.1407 40.044,85.1207 40.223,85.1207 C 40.343,85.1407 40.402,85.1407 40.502,85.2007 L 40.503,85.2007 z "
       style="fill:black;fill-rule:evenodd;stroke:none"
       id="path6124" />
    <path
       d="M 42.951,70.4688 C 42.891,70.4888 42.812,70.5287 42.752,70.5488 L 42.652,70.5887 L 42.652,71.0668 C 42.672,71.3458 42.732,74.0157 42.791,77.0248 C 42.891,83.0018 42.891,82.6238 43.01,82.7628 C 43.09,82.8627 43.249,82.9418 43.369,82.9418 C 43.469,82.9418 43.628,82.8818 43.728,82.7828 C 43.768,82.7628 43.867,82.6238 43.967,82.5037 C 44.206,82.2048 44.306,82.1058 45.203,81.4478 C 45.841,80.9897 46.099,80.7698 46.378,80.4907 C 46.657,80.2117 46.837,79.9728 46.976,79.6937 C 47.235,79.1357 47.235,78.4578 46.956,77.8408 C 46.856,77.6218 46.737,77.4617 46.558,77.2828 C 46.199,76.9238 45.801,76.7648 45.283,76.7847 C 44.705,76.8248 44.127,77.0438 43.709,77.3828 L 43.609,77.4628 L 43.609,76.9847 C 43.629,76.2468 43.748,70.6088 43.748,70.5887 C 43.748,70.5887 43.708,70.5687 43.648,70.5488 C 43.469,70.4487 43.17,70.4288 42.951,70.4688 z M 45.103,77.7007 C 45.322,77.8207 45.482,78.0397 45.581,78.4177 C 45.621,78.5767 45.621,78.6378 45.621,78.9357 C 45.621,79.2147 45.621,79.2947 45.581,79.4338 C 45.501,79.7927 45.282,80.1907 45.023,80.5297 C 44.844,80.7687 44.405,81.2078 44.086,81.4868 L 43.827,81.7057 L 43.807,81.5668 C 43.747,81.1088 43.747,80.6097 43.747,79.7338 C 43.767,79.2158 43.787,78.7578 43.787,78.6777 C 43.847,78.2388 44.086,77.8807 44.405,77.7208 C 44.564,77.6407 44.644,77.6207 44.823,77.6207 C 44.943,77.6407 45.002,77.6407 45.102,77.7007 L 45.103,77.7007 z "
       style="fill:black;fill-rule:evenodd;stroke:none"
       id="path6126" />
    <path
       d="M 15.654,69.5737 C 14.12,69.7327 12.725,70.7288 12.008,72.1838 C 11.689,72.8408 11.53,73.4988 11.49,74.2158 C 11.49,74.5547 11.51,74.7537 11.59,74.9927 C 11.869,75.9297 12.845,76.5867 13.842,76.5267 C 14.798,76.4667 15.556,75.6898 15.695,74.6738 C 15.755,74.3148 15.675,73.8768 15.516,73.5577 C 15.098,72.6807 14.061,72.2228 13.205,72.5217 L 13.046,72.5817 L 13.086,72.4617 C 13.544,71.2657 14.401,70.3898 15.397,70.1307 C 16.353,69.8917 17.31,70.1508 18.047,70.8278 C 19.342,72.0637 19.84,74.5538 19.2019,76.7457 C 19.063,77.1838 18.943,77.5228 18.704,77.9808 C 18.226,78.9578 17.628,79.7537 16.711,80.6907 C 15.496,81.8857 13.922,83.0417 11.69,84.3568 C 11.272,84.6157 11.232,84.6558 11.232,84.7748 C 11.232,84.8948 11.352,85.0137 11.491,85.0137 C 11.511,85.0137 11.571,84.9938 11.611,84.9738 C 11.651,84.9537 11.85,84.8538 12.049,84.7737 C 16.333,82.9208 19.0229,81.0677 20.557,78.8958 C 21.4729,77.5807 21.9519,76.0867 21.9519,74.5518 C 21.9519,71.8417 20.2779,70.0488 17.3889,69.6498 C 16.791,69.5497 16.094,69.5297 15.6549,69.5698 L 15.654,69.5737 z M 23.365,71.3267 C 23.006,71.4067 22.708,71.7057 22.628,72.0637 C 22.489,72.6218 22.827,73.1797 23.365,73.2988 C 24.1219,73.4777 24.78,72.8207 24.6009,72.0637 C 24.481,71.5258 23.924,71.1868 23.365,71.3257 L 23.365,71.3267 z M 23.365,76.2888 C 23.006,76.3688 22.708,76.6677 22.628,77.0258 C 22.489,77.5837 22.827,78.1417 23.365,78.2618 C 24.1219,78.4407 24.78,77.7828 24.6009,77.0258 C 24.481,76.4877 23.924,76.1487 23.365,76.2888 z "
       style="fill:black;fill-rule:evenodd;stroke:none"
       id="path6128" />
    <path
       d="M 80.806,86.0778 C 80.587,86.1177 80.328,86.2578 80.188,86.3967 C 80.108,86.4968 79.989,86.6757 79.949,86.8348 C 79.909,86.9348 79.909,86.9938 79.909,87.1937 C 79.909,87.3928 79.909,87.4528 79.949,87.5527 C 80.088,87.9117 80.308,88.1307 80.666,88.2498 C 80.845,88.3098 81.184,88.3098 81.364,88.2498 C 81.723,88.1298 81.942,87.9108 82.081,87.5527 C 82.121,87.4327 82.121,87.3937 82.121,87.1738 C 82.121,86.9747 82.121,86.9348 82.081,86.8148 C 81.942,86.4557 81.742,86.2568 81.384,86.1177 C 81.245,86.0778 80.945,86.0377 80.806,86.0778 z "
       style="fill:black;fill-rule:evenodd;stroke:none"
       id="path6130" />
    <path
       d="M 75.055,84.4637 C 74.238,84.5637 73.401,84.9017 72.684,85.4598 C 71.867,86.0577 71.309,86.8547 71.13,87.6718 C 71.09,87.9307 71.09,88.3898 71.15,88.5887 C 71.329,89.2858 71.887,89.7247 72.724,89.9037 C 72.963,89.9437 73.561,89.9437 73.86,89.9037 C 74.617,89.7648 75.394,89.4257 76.072,88.9277 C 76.869,88.3298 77.427,87.5328 77.606,86.7158 C 77.646,86.4567 77.646,85.9977 77.586,85.7787 C 77.407,85.1218 76.869,84.6827 76.072,84.5037 C 75.853,84.4637 75.295,84.4437 75.056,84.4637 L 75.055,84.4637 z "
       style="fill:black;fill-rule:evenodd;stroke:none"
       id="path6132" />
    <path
       d="M 80.806,76.1777 C 80.587,76.2178 80.328,76.3577 80.188,76.4968 C 80.108,76.5967 79.989,76.7758 79.949,76.9348 C 79.909,77.0347 79.909,77.0938 79.909,77.2938 C 79.909,77.4927 79.909,77.5527 79.949,77.6528 C 80.088,78.0118 80.308,78.2308 80.666,78.3497 C 80.845,78.4097 81.184,78.4097 81.364,78.3497 C 81.723,78.2297 81.942,78.0107 82.081,77.6528 C 82.121,77.5328 82.121,77.4938 82.121,77.2737 C 82.121,77.0748 82.121,77.0347 82.081,76.9147 C 81.942,76.5557 81.742,76.3568 81.384,76.2178 C 81.245,76.1777 80.945,76.1378 80.806,76.1777 z "
       style="fill:black;fill-rule:evenodd;stroke:none"
       id="path6134" />
    <path
       d="M 75.055,74.5637 C 74.238,74.6638 73.401,75.0018 72.684,75.5598 C 71.867,76.1578 71.309,76.9548 71.13,77.7717 C 71.09,78.0308 71.09,78.4897 71.15,78.6887 C 71.329,79.3857 71.887,79.8248 72.724,80.0037 C 72.963,80.0438 73.561,80.0438 73.86,80.0037 C 74.617,79.8647 75.394,79.5258 76.072,79.0278 C 76.869,78.4297 77.427,77.6328 77.606,76.8157 C 77.646,76.5568 77.646,76.0978 77.586,75.8787 C 77.407,75.2217 76.869,74.7828 76.072,74.6038 C 75.853,74.5637 75.295,74.5438 75.056,74.5637 L 75.055,74.5637 z "
       style="fill:black;fill-rule:evenodd;stroke:none"
       id="path6136" />
    <path
       d="M 29.251,10.7687 C 29.191,10.7888 29.112,10.8287 29.052,10.8488 L 28.952,10.8887 L 28.952,11.3668 C 28.972,11.6458 29.032,14.3157 29.091,17.3248 C 29.191,23.3018 29.191,22.9238 29.31,23.0627 C 29.39,23.1627 29.549,23.2418 29.669,23.2418 C 29.7689,23.2418 29.9279,23.1818 30.0279,23.0828 C 30.0679,23.0627 30.1669,22.9238 30.2669,22.8038 C 30.5059,22.5048 30.6059,22.4058 31.5029,21.7477 C 32.1409,21.2897 32.3989,21.0698 32.6779,20.7908 C 32.9569,20.5118 33.1369,20.2728 33.2758,19.9938 C 33.5348,19.4357 33.5348,18.7578 33.2559,18.1407 C 33.1559,17.9218 33.0369,17.7618 32.8579,17.5828 C 32.4989,17.2238 32.1009,17.0648 31.5829,17.0848 C 31.0049,17.1248 30.4269,17.3438 30.0089,17.6827 L 29.9089,17.7628 L 29.9089,17.2847 C 29.9289,16.5468 30.0479,10.9088 30.0479,10.8887 C 30.0479,10.8887 30.0079,10.8688 29.9479,10.8488 C 29.7689,10.7488 29.4699,10.7288 29.2509,10.7687 L 29.251,10.7687 z M 31.403,18.0007 C 31.622,18.1207 31.782,18.3397 31.881,18.7178 C 31.9209,18.8768 31.9209,18.9377 31.9209,19.2358 C 31.9209,19.5148 31.9209,19.5947 31.881,19.7338 C 31.801,20.0928 31.582,20.4907 31.323,20.8298 C 31.144,21.0687 30.705,21.5078 30.386,21.7867 L 30.127,22.0057 L 30.107,21.8668 C 30.047,21.4088 30.047,20.9097 30.047,20.0338 C 30.067,19.5157 30.087,19.0577 30.087,18.9777 C 30.147,18.5388 30.386,18.1807 30.705,18.0208 C 30.864,17.9407 30.944,17.9208 31.123,17.9208 C 31.243,17.9407 31.302,17.9407 31.402,18.0007 L 31.403,18.0007 z "
       style="fill:black;fill-rule:evenodd;stroke:none"
       id="path6138" />
    <path
       d="M 33.851,3.26874 C 33.791,3.28876 33.712,3.32874 33.652,3.34875 L 33.552,3.38873 L 33.552,3.86676 C 33.572,4.14575 33.632,6.81573 33.691,9.82477 C 33.791,15.8018 33.791,15.4238 33.91,15.5627 C 33.99,15.6627 34.149,15.7418 34.269,15.7418 C 34.369,15.7418 34.528,15.6818 34.628,15.5828 C 34.6679,15.5627 34.7669,15.4238 34.8669,15.3038 C 35.1059,15.0048 35.2059,14.9058 36.1029,14.2477 C 36.741,13.7897 36.999,13.5698 37.278,13.2908 C 37.557,13.0118 37.737,12.7728 37.876,12.4938 C 38.135,11.9357 38.135,11.2578 37.856,10.6407 C 37.756,10.4218 37.637,10.2618 37.458,10.0828 C 37.099,9.72375 36.701,9.56476 36.1829,9.58478 C 35.6049,9.62476 35.0269,9.84375 34.6089,10.1827 L 34.5089,10.2628 L 34.5089,9.78473 C 34.5289,9.04675 34.6479,3.40875 34.6479,3.38873 C 34.6479,3.38873 34.6079,3.36877 34.5479,3.34875 C 34.369,3.24878 34.07,3.22876 33.851,3.26874 z M 36.003,10.5007 C 36.222,10.6207 36.382,10.8397 36.481,11.2178 C 36.521,11.3768 36.521,11.4377 36.521,11.7358 C 36.521,12.0148 36.521,12.0947 36.481,12.2338 C 36.401,12.5928 36.182,12.9907 35.923,13.3298 C 35.744,13.5687 35.305,14.0078 34.986,14.2867 L 34.727,14.5057 L 34.7071,14.3668 C 34.6471,13.9088 34.6471,13.4097 34.6471,12.5338 C 34.667,12.0157 34.687,11.5577 34.687,11.4777 C 34.747,11.0388 34.986,10.6807 35.305,10.5208 C 35.464,10.4407 35.544,10.4208 35.723,10.4208 C 35.843,10.4407 35.902,10.4407 36.002,10.5007 L 36.003,10.5007 z "
       style="fill:black;fill-rule:evenodd;stroke:none"
       id="path6140" />
    <path
       d="M 38.351,13.2687 C 38.291,13.2888 38.212,13.3287 38.152,13.3488 L 38.052,13.3887 L 38.052,13.8668 C 38.072,14.1458 38.132,16.8157 38.191,19.8248 C 38.291,25.8018 38.291,25.4238 38.41,25.5627 C 38.49,25.6627 38.649,25.7418 38.769,25.7418 C 38.869,25.7418 39.028,25.6818 39.128,25.5828 C 39.168,25.5627 39.267,25.4238 39.367,25.3038 C 39.606,25.0048 39.706,24.9058 40.603,24.2477 C 41.241,23.7897 41.499,23.5698 41.778,23.2908 C 42.057,23.0118 42.237,22.7728 42.376,22.4938 C 42.635,21.9357 42.635,21.2578 42.356,20.6407 C 42.256,20.4218 42.137,20.2618 41.958,20.0828 C 41.599,19.7238 41.201,19.5648 40.683,19.5848 C 40.105,19.6248 39.527,19.8438 39.109,20.1827 L 39.009,20.2628 L 39.009,19.7847 C 39.029,19.0468 39.148,13.4088 39.148,13.3887 C 39.148,13.3887 39.108,13.3688 39.048,13.3488 C 38.869,13.2488 38.57,13.2288 38.351,13.2687 z M 40.503,20.5007 C 40.722,20.6207 40.882,20.8397 40.981,21.2178 C 41.021,21.3768 41.021,21.4377 41.021,21.7358 C 41.021,22.0148 41.021,22.0947 40.981,22.2338 C 40.901,22.5928 40.682,22.9907 40.423,23.3298 C 40.244,23.5687 39.805,24.0078 39.486,24.2867 L 39.227,24.5057 L 39.207,24.3668 C 39.147,23.9088 39.147,23.4097 39.147,22.5338 C 39.167,22.0157 39.187,21.5577 39.187,21.4777 C 39.247,21.0388 39.486,20.6807 39.805,20.5208 C 39.964,20.4407 40.044,20.4208 40.223,20.4208 C 40.343,20.4407 40.402,20.4407 40.502,20.5007 L 40.503,20.5007 z "
       style="fill:black;fill-rule:evenodd;stroke:none"
       id="path6142" />
    <path
       d="M 42.951,5.76874 C 42.891,5.78876 42.812,5.82874 42.752,5.84875 L 42.652,5.88873 L 42.652,6.36676 C 42.672,6.64575 42.732,9.31573 42.791,12.3248 C 42.891,18.3018 42.891,17.9238 43.01,18.0627 C 43.09,18.1627 43.249,18.2418 43.369,18.2418 C 43.469,18.2418 43.628,18.1818 43.728,18.0828 C 43.768,18.0627 43.867,17.9238 43.967,17.8038 C 44.206,17.5048 44.306,17.4058 45.203,16.7477 C 45.841,16.2897 46.099,16.0698 46.378,15.7908 C 46.657,15.5118 46.837,15.2728 46.976,14.9938 C 47.235,14.4357 47.235,13.7578 46.956,13.1407 C 46.856,12.9218 46.737,12.7618 46.558,12.5828 C 46.199,12.2238 45.801,12.0648 45.283,12.0848 C 44.705,12.1248 44.127,12.3438 43.709,12.6827 L 43.609,12.7628 L 43.609,12.2847 C 43.629,11.5468 43.748,5.90875 43.748,5.88873 C 43.748,5.88873 43.708,5.86877 43.648,5.84875 C 43.469,5.74878 43.17,5.72876 42.951,5.76874 z M 45.103,13.0007 C 45.322,13.1207 45.482,13.3397 45.581,13.7178 C 45.621,13.8768 45.621,13.9377 45.621,14.2358 C 45.621,14.5148 45.621,14.5947 45.581,14.7338 C 45.501,15.0928 45.282,15.4907 45.023,15.8298 C 44.844,16.0687 44.405,16.5078 44.086,16.7867 L 43.827,17.0057 L 43.807,16.8668 C 43.747,16.4088 43.747,15.9097 43.747,15.0338 C 43.767,14.5157 43.787,14.0577 43.787,13.9777 C 43.847,13.5388 44.086,13.1807 44.405,13.0208 C 44.564,12.9407 44.644,12.9208 44.823,12.9208 C 44.943,12.9407 45.002,12.9407 45.102,13.0007 L 45.103,13.0007 z "
       style="fill:black;fill-rule:evenodd;stroke:none"
       id="path6144" />
    <path
       d="M 17.786,0.0467529 C 17.746,0.0667725 17.607,0.20575 17.467,0.345764 C 16.032,1.76074 15.156,3.55377 14.937,5.54578 C 14.897,5.88477 14.897,6.70172 14.917,7.23975 C 14.997,9.25177 15.315,10.7667 16.132,13.3367 L 16.232,13.6957 L 15.654,14.4327 C 13.781,16.8038 13.064,17.8597 12.446,19.1348 C 11.828,20.4097 11.53,21.5657 11.49,22.8408 C 11.43,25.1718 12.466,27.3638 14.319,28.7388 C 15.833,29.8748 17.667,30.3328 19.639,30.0538 C 19.798,30.0338 19.938,30.0137 19.938,30.0338 L 19.938,31.0107 C 19.938,33.2427 19.799,34.1788 19.32,35.1558 C 19.021,35.7737 18.662,36.2318 18.224,36.5507 C 17.726,36.9297 17.228,37.0887 16.61,37.0887 C 15.9131,37.0887 15.295,36.8898 14.737,36.4708 C 14.5581,36.3508 14.2591,36.0527 14.1391,35.8727 L 14.0391,35.7527 L 14.1191,35.7927 C 14.796,36.0317 15.6731,35.7327 16.132,35.1157 C 16.511,34.6177 16.61,33.9998 16.411,33.3428 C 16.1721,32.5057 15.515,31.9478 14.6971,31.9078 C 13.9201,31.8878 13.1231,32.2667 12.7051,32.9238 C 12.3861,33.4218 12.3061,34.0198 12.4851,34.7968 C 12.7051,35.8328 13.3821,36.7498 14.3381,37.3077 C 14.9561,37.6868 15.6931,37.9058 16.43,37.9448 C 17.745,37.9847 18.901,37.3668 19.738,36.1318 C 20.296,35.2947 20.615,34.3387 20.694,33.1627 C 20.774,32.3857 20.774,32.0468 20.794,30.9307 L 20.794,29.7947 L 20.993,29.7147 C 21.81,29.3958 22.507,28.8777 23.105,28.1407 C 24.121,26.8857 24.46,25.2318 24.042,23.6177 C 23.663,22.1238 22.667,20.8478 21.332,20.1907 C 20.695,19.8718 20.077,19.7128 19.34,19.6727 L 19.001,19.6528 L 18.921,19.3137 C 18.682,18.4567 18.224,16.9818 17.766,15.5677 L 17.6661,15.2888 L 18.0051,14.8298 C 19.42,13.0167 20.197,11.6818 20.695,10.3467 C 21.153,9.09174 21.313,7.77673 21.153,6.58075 C 20.874,4.40875 19.659,1.71875 18.3041,0.264771 C 18.0651,0.0057373 17.9451,-0.0542603 17.7861,0.0457764 L 17.786,0.0467529 z M 19.022,2.93573 C 19.062,2.99573 19.3809,3.63275 19.481,3.85272 C 19.581,4.13177 19.68,4.52972 19.74,4.84875 C 19.7799,5.18774 19.7799,6.30377 19.74,6.64172 C 19.521,8.51477 18.823,10.1487 17.309,12.2607 C 17.17,12.4598 17.03,12.6597 16.97,12.7397 L 16.87,12.8597 L 16.81,12.6407 C 16.451,11.5248 16.093,10.1097 15.973,9.29272 C 15.913,8.89478 15.913,8.13776 15.953,7.73877 C 16.132,6.42377 16.591,5.32776 17.408,4.31177 C 17.607,4.05273 18.085,3.57373 18.344,3.37476 C 18.5429,3.21576 18.9619,2.91675 18.982,2.91675 C 18.982,2.91675 19.0019,2.93677 19.0219,2.93677 L 19.022,2.93573 z M 17.249,16.7438 C 17.707,18.1588 18.145,19.6927 18.126,19.7128 C 18.126,19.7128 18.026,19.7527 17.947,19.7527 C 17.688,19.8127 17.25,19.9517 17.01,20.0718 C 16.572,20.2908 16.233,20.5098 15.894,20.8488 C 14.858,21.9047 14.4791,23.4788 14.9381,24.8937 C 15.117,25.4918 15.4561,26.0297 15.914,26.4877 C 16.273,26.8467 16.631,27.1058 17.13,27.3447 C 17.369,27.4647 17.409,27.4647 17.528,27.4647 C 17.648,27.4647 17.667,27.4647 17.747,27.4047 C 17.867,27.3248 17.946,27.1658 17.946,27.0258 C 17.926,26.8467 17.866,26.7867 17.607,26.6277 C 16.3711,25.9297 15.774,24.7748 16.112,23.6188 C 16.351,22.7618 17.089,22.1248 18.105,21.9058 C 18.304,21.8458 18.683,21.8057 18.703,21.8257 C 18.703,21.8257 18.783,22.1047 18.902,22.6627 C 19.281,24.2167 19.54,25.6718 19.699,27.0668 C 19.819,27.9437 19.918,29.1188 19.8779,29.1588 C 19.858,29.1788 19.46,29.2388 19.081,29.2587 C 17.846,29.3387 16.79,29.1387 15.734,28.6017 C 15.136,28.3027 14.658,27.9437 14.2,27.5057 C 13.463,26.7488 13.045,25.9117 12.945,24.9758 C 12.905,24.7167 12.925,24.1188 12.965,23.7397 C 13.184,21.9667 13.9009,20.3127 15.396,18.2407 C 15.8139,17.6428 16.9899,16.1088 17.0299,16.1088 L 17.249,16.7438 z M 19.938,21.9247 C 21.472,22.2637 22.608,23.4988 22.887,25.0928 C 22.9069,25.2318 22.9069,25.3917 22.9069,25.6907 C 22.9069,26.0497 22.9069,26.1298 22.867,26.3488 C 22.827,26.5078 22.787,26.7078 22.747,26.7867 C 22.508,27.4838 21.99,28.1818 21.392,28.5798 C 21.173,28.7388 20.755,28.9387 20.735,28.9188 C 20.735,28.8987 20.715,28.7797 20.715,28.6597 C 20.655,27.8828 20.476,26.3887 20.297,25.3317 C 20.138,24.3358 19.799,22.6417 19.62,21.9448 L 19.5801,21.8447 L 19.64,21.8647 C 19.68,21.8647 19.799,21.8848 19.939,21.9247 L 19.938,21.9247 z "
       style="fill:black;fill-rule:evenodd;stroke:none"
       id="path6146" />
    <path
       d="M 80.806,21.3777 C 80.587,21.4177 80.328,21.5577 80.188,21.6968 C 80.108,21.7968 79.989,21.9758 79.949,22.1348 C 79.909,22.2347 79.909,22.2938 79.909,22.4938 C 79.909,22.6927 79.909,22.7527 79.949,22.8527 C 80.088,23.2117 80.308,23.4307 80.666,23.5497 C 80.845,23.6097 81.184,23.6097 81.364,23.5497 C 81.723,23.4297 81.942,23.2108 82.081,22.8527 C 82.121,22.7327 82.121,22.6937 82.121,22.4738 C 82.121,22.2748 82.121,22.2347 82.081,22.1147 C 81.942,21.7557 81.742,21.5568 81.384,21.4177 C 81.245,21.3777 80.945,21.3378 80.806,21.3777 z "
       style="fill:black;fill-rule:evenodd;stroke:none"
       id="path6148" />
    <path
       d="M 75.055,19.7637 C 74.238,19.8638 73.401,20.2017 72.684,20.7598 C 71.867,21.3577 71.309,22.1547 71.13,22.9717 C 71.09,23.2308 71.09,23.6898 71.15,23.8887 C 71.329,24.5858 71.887,25.0248 72.724,25.2037 C 72.963,25.2438 73.561,25.2438 73.86,25.2037 C 74.617,25.0648 75.394,24.7258 76.072,24.2277 C 76.869,23.6298 77.427,22.8328 77.606,22.0157 C 77.646,21.7568 77.646,21.2977 77.586,21.0787 C 77.407,20.4218 76.869,19.9827 76.072,19.8038 C 75.853,19.7637 75.295,19.7438 75.056,19.7637 L 75.055,19.7637 z "
       style="fill:black;fill-rule:evenodd;stroke:none"
       id="path6150" />
    <path
       d="M 80.806,16.3777 C 80.587,16.4177 80.328,16.5577 80.188,16.6968 C 80.108,16.7968 79.989,16.9758 79.949,17.1348 C 79.909,17.2347 79.909,17.2938 79.909,17.4938 C 79.909,17.6927 79.909,17.7527 79.949,17.8527 C 80.088,18.2117 80.308,18.4307 80.666,18.5497 C 80.845,18.6097 81.184,18.6097 81.364,18.5497 C 81.723,18.4297 81.942,18.2108 82.081,17.8527 C 82.121,17.7327 82.121,17.6937 82.121,17.4738 C 82.121,17.2748 82.121,17.2347 82.081,17.1147 C 81.942,16.7557 81.742,16.5568 81.384,16.4177 C 81.245,16.3777 80.945,16.3378 80.806,16.3777 z "
       style="fill:black;fill-rule:evenodd;stroke:none"
       id="path6152" />
    <path
       d="M 75.055,14.7637 C 74.238,14.8638 73.401,15.2017 72.684,15.7598 C 71.867,16.3577 71.309,17.1547 71.13,17.9717 C 71.09,18.2308 71.09,18.6898 71.15,18.8887 C 71.329,19.5858 71.887,20.0248 72.724,20.2037 C 72.963,20.2438 73.561,20.2438 73.86,20.2037 C 74.617,20.0648 75.394,19.7258 76.072,19.2277 C 76.869,18.6298 77.427,17.8328 77.606,17.0157 C 77.646,16.7568 77.646,16.2977 77.586,16.0787 C 77.407,15.4218 76.869,14.9827 76.072,14.8038 C 75.853,14.7637 75.295,14.7438 75.056,14.7637 L 75.055,14.7637 z "
       style="fill:black;fill-rule:evenodd;stroke:none"
       id="path6154" />
  </g>
  <path
     d="M 83.735867,21.325908 L 83.735867,20.848909 C 83.9302,20.848909 84.124531,20.804742 84.318868,20.716407 C 85.202199,20.416075 85.838199,20.106908 86.226871,19.788906 C 86.809866,19.329575 87.101366,18.755408 87.101372,18.066405 C 87.101366,17.236075 86.809866,16.502909 86.226871,15.866903 C 85.626198,15.266242 85.007866,14.965909 84.371869,14.965903 C 83.841865,14.965909 83.364865,15.089574 82.940867,15.336902 C 82.516865,15.584242 82.304865,15.805075 82.304866,15.999403 C 82.375532,16.087742 82.446199,16.131908 82.516866,16.131904 C 83.082198,16.131908 83.497365,16.273241 83.762368,16.555903 C 83.939032,16.785575 84.027365,17.121243 84.027368,17.562906 C 84.027365,18.004576 83.886033,18.357908 83.603367,18.622906 C 83.320699,18.870242 82.932033,18.993909 82.437367,18.993907 C 81.942699,18.993909 81.562865,18.870242 81.297865,18.622906 C 81.050531,18.375574 80.926865,17.942743 80.926865,17.324404 C 80.926865,16.317408 81.262532,15.557741 81.933866,15.045403 C 82.69353,14.480075 83.859533,14.197409 85.431869,14.197403 C 86.491866,14.197409 87.437031,14.577242 88.267372,15.336902 C 89.115366,16.096575 89.539367,17.024075 89.539375,18.119406 C 89.539367,18.949742 89.345032,19.594574 88.956374,20.053907 C 88.656031,20.407241 88.134866,20.751742 87.392871,21.087409 C 88.099532,21.387743 88.603031,21.723409 88.903374,22.094409 C 89.327365,22.571409 89.539367,23.225075 89.539375,24.055411 C 89.539367,25.097742 89.115366,26.007575 88.267372,26.784913 C 87.437031,27.579909 86.491866,27.977409 85.431869,27.977416 C 83.859533,27.977409 82.7112,27.703575 81.986865,27.155915 C 81.280198,26.608242 80.926865,25.839741 80.926865,24.850412 C 80.926865,24.249743 81.059364,23.816909 81.324365,23.551911 C 81.607031,23.304575 81.978032,23.180908 82.437367,23.18091 C 83.497365,23.180908 84.027365,23.657909 84.027368,24.611913 C 84.027365,25.035909 83.939032,25.362742 83.762368,25.592413 C 83.515031,25.892742 83.099865,26.042909 82.516866,26.042914 C 82.393198,26.042909 82.322531,26.087076 82.304866,26.175412 C 82.304865,26.352075 82.516865,26.564075 82.940867,26.811415 C 83.382532,27.07641 83.859533,27.208909 84.371869,27.208915 C 85.025532,27.208909 85.643865,26.908576 86.226871,26.307915 C 86.809866,25.724909 87.101366,24.991743 87.101372,24.108412 C 87.101366,23.437076 86.818698,22.871743 86.25337,22.41241 C 85.829366,22.094408 85.184531,21.776409 84.318868,21.458409 L 83.735867,21.325908"
     style="font-size:26.17419624px;font-style:normal;font-variant:normal;font-weight:normal;font-stretch:normal;line-height:100%;writing-mode:lr-tb;text-anchor:start;fill:blue;fill-opacity:1;stroke:none;stroke-width:1pt;stroke-linecap:butt;stroke-linejoin:miter;stroke-opacity:1;font-family:SPW"
     id="text6177" />
  <path
     d="M 86.854405,28.525087 L 84.813903,32.02309 C 84.442897,32.641426 84.124897,33.153761 83.859901,33.560092 C 83.524229,34.054761 83.241564,34.443427 83.0119,34.726094 L 81.686899,36.713596 L 80.547399,38.489098 L 84.177902,38.489098 L 84.177902,34.037093 L 87.225405,31.46659 L 87.225405,38.489098 L 88.523907,38.489098 L 88.523907,39.072098 L 87.225405,39.072098 L 87.198907,39.284098 L 87.198907,39.522598 L 87.225405,40.3706 C 87.260732,40.635595 87.304898,40.838761 87.357906,40.9801 C 87.410898,41.121428 87.622897,41.298095 87.993906,41.510102 L 88.523907,41.722101 L 88.523907,42.305102 L 82.826402,42.305102 L 82.826402,41.722101 C 82.96773,41.722095 83.188563,41.651428 83.488902,41.510102 C 83.806898,41.368761 83.992398,41.209761 84.045403,41.0331 C 84.098398,40.856428 84.124897,40.582595 84.124901,40.2116 C 84.124897,39.805262 84.142565,39.522594 84.177902,39.363598 L 84.177902,39.072098 L 79.434397,39.072098 L 79.434397,38.701098 L 79.434397,38.489098 C 80.582731,37.694094 81.483729,36.448595 82.1374,34.752593 C 82.561398,33.639594 82.879398,32.332261 83.091401,30.83059 C 83.303396,29.328927 83.427066,28.560427 83.462401,28.525087 L 86.854405,28.525087"
     style="font-size:26.17419624px;font-style:normal;font-variant:normal;font-weight:normal;font-stretch:normal;line-height:100%;writing-mode:lr-tb;text-anchor:start;fill:blue;fill-opacity:1;stroke:none;stroke-width:1pt;stroke-linecap:butt;stroke-linejoin:miter;stroke-opacity:1;font-family:SPW"
     id="text6181" />
  <path
     d="M 83.735867,106.69503 L 83.735867,106.21804 C 83.9302,106.21804 84.124531,106.17386 84.318868,106.08553 C 85.202199,105.7852 85.838199,105.47602 86.226871,105.15803 C 86.809866,104.69869 87.101366,104.12454 87.101372,103.43552 C 87.101366,102.6052 86.809866,101.87203 86.226871,101.23602 C 85.626198,100.63536 85.007866,100.33503 84.371869,100.33502 C 83.841865,100.33503 83.364865,100.4587 82.940867,100.70602 C 82.516865,100.95336 82.304865,101.1742 82.304866,101.36853 C 82.375532,101.45686 82.446199,101.50103 82.516866,101.50103 C 83.082198,101.50103 83.497365,101.64236 83.762368,101.92503 C 83.939032,102.1547 84.027365,102.49036 84.027368,102.93203 C 84.027365,103.3737 83.886033,103.72704 83.603367,103.99204 C 83.320699,104.23937 82.932033,104.36303 82.437367,104.36303 C 81.942699,104.36303 81.562865,104.23937 81.297865,103.99204 C 81.050531,103.74471 80.926865,103.31186 80.926865,102.69353 C 80.926865,101.68653 81.262532,100.92686 81.933866,100.41452 C 82.69353,99.849196 83.859533,99.56653 85.431869,99.566524 C 86.491866,99.56653 87.437031,99.946362 88.267372,100.70602 C 89.115366,101.4657 89.539367,102.3932 89.539375,103.48853 C 89.539367,104.31886 89.345032,104.9637 88.956374,105.42303 C 88.656031,105.77637 88.134866,106.12087 87.392871,106.45653 C 88.099532,106.75687 88.603031,107.09255 88.903374,107.46354 C 89.327365,107.94053 89.539367,108.5942 89.539375,109.42454 C 89.539367,110.46687 89.115366,111.37669 88.267372,112.15404 C 87.437031,112.94903 86.491866,113.34653 85.431869,113.34654 C 83.859533,113.34653 82.7112,113.0727 81.986865,112.52504 C 81.280198,111.97737 80.926865,111.20887 80.926865,110.21952 C 80.926865,109.61886 81.059364,109.18604 81.324365,108.92104 C 81.607031,108.6737 81.978032,108.55004 82.437367,108.55004 C 83.497365,108.55004 84.027365,109.02704 84.027368,109.98104 C 84.027365,110.40504 83.939032,110.73187 83.762368,110.96153 C 83.515031,111.26187 83.099865,111.41203 82.516866,111.41204 C 82.393198,111.41203 82.322531,111.4562 82.304866,111.54453 C 82.304865,111.7212 82.516865,111.9332 82.940867,112.18054 C 83.382532,112.44554 83.859533,112.57803 84.371869,112.57804 C 85.025532,112.57803 85.643865,112.27771 86.226871,111.67703 C 86.809866,111.09402 87.101366,110.36087 87.101372,109.47753 C 87.101366,108.8062 86.818698,108.24088 86.25337,107.78153 C 85.829366,107.46354 85.184531,107.14554 84.318868,106.82753 L 83.735867,106.69503"
     style="font-size:26.17419624px;font-style:normal;font-variant:normal;font-weight:normal;font-stretch:normal;line-height:100%;writing-mode:lr-tb;text-anchor:start;fill:blue;fill-opacity:1;stroke:none;stroke-width:1pt;stroke-linecap:butt;stroke-linejoin:miter;stroke-opacity:1;font-family:SPW"
     id="path6187" />
  <path
     d="M 86.854405,113.89421 L 84.813903,117.39223 C 84.442897,118.01056 84.124897,118.52288 83.859901,118.92921 C 83.524229,119.42388 83.241564,119.81255 83.0119,120.09521 L 81.686899,122.08273 L 80.547399,123.85823 L 84.177902,123.85823 L 84.177902,119.40621 L 87.225405,116.83571 L 87.225405,123.85823 L 88.523907,123.85823 L 88.523907,124.44121 L 87.225405,124.44121 L 87.198907,124.65322 L 87.198907,124.89174 L 87.225405,125.73972 C 87.260732,126.00472 87.304898,126.20788 87.357906,126.34923 C 87.410898,126.49055 87.622897,126.66722 87.993906,126.87923 L 88.523907,127.09123 L 88.523907,127.67422 L 82.826402,127.67422 L 82.826402,127.09123 C 82.96773,127.09122 83.188563,127.02055 83.488902,126.87923 C 83.806898,126.73788 83.992398,126.57888 84.045403,126.40223 C 84.098398,126.22556 84.124897,125.95172 84.124901,125.58072 C 84.124897,125.17439 84.142565,124.89172 84.177902,124.73273 L 84.177902,124.44121 L 79.434397,124.44121 L 79.434397,124.07022 L 79.434397,123.85823 C 80.582731,123.0632 81.483729,121.81771 82.1374,120.12172 C 82.561398,119.00872 82.879398,117.70139 83.091401,116.19971 C 83.303396,114.69805 83.427066,113.92956 83.462401,113.89421 L 86.854405,113.89421"
     style="font-size:26.17419624px;font-style:normal;font-variant:normal;font-weight:normal;font-stretch:normal;line-height:100%;writing-mode:lr-tb;text-anchor:start;fill:blue;fill-opacity:1;stroke:none;stroke-width:1pt;stroke-linecap:butt;stroke-linejoin:miter;stroke-opacity:1;font-family:SPW"
     id="path6189" />
</svg>
